<svg width="47" height="47" viewBox="0 0 47 47" fill="none" xmlns="http://www.w3.org/2000/svg">
<path d="M27.6445 18.8618C27.2386 18.8618 26.9101 19.1906 26.9101 19.5961V20.1752H24.8318C24.4258 20.1752 24.0974 20.5041 24.0974 20.9096C24.0974 21.3152 24.4258 21.644 24.8318 21.644H25.282C25.5071 22.1672 25.9318 23.023 26.582 23.8562C26.1152 24.2862 25.1029 24.5229 25.4952 25.3507C26.031 26.2715 27.0503 25.3549 27.5925 24.9218C28.1344 25.3557 29.1539 26.2712 29.6898 25.3506C30.0814 24.5216 29.0702 24.2869 28.6031 23.8563C29.2535 23.023 29.6785 22.1673 29.9037 21.644H30.4579C30.8638 21.644 31.1923 21.3152 31.1923 20.9096C31.1923 20.5041 30.8638 20.1752 30.4579 20.1752H28.3789V19.5961C28.3789 19.1906 28.0504 18.8618 27.6445 18.8618ZM27.5927 22.7624C27.3098 22.3732 27.0829 21.9822 26.9082 21.644H28.2773C28.1026 21.9822 27.8755 22.3732 27.5927 22.7624Z" fill="#266BFF"/>
<path d="M17.2844 18.2633L17.6563 17.3202H19.8126L20.1846 18.2633C20.545 19.157 21.8993 18.6167 21.5515 17.7239C21.5515 17.724 19.4179 12.3155 19.4179 12.3155C19.1996 11.7076 18.2693 11.7055 18.051 12.3155C18.051 12.3155 15.9174 17.724 15.9174 17.724C15.5796 18.6278 16.9144 19.1556 17.2844 18.2633ZM19.2334 15.8514H18.2355L18.7345 14.5864L19.2334 15.8514Z" fill="#266BFF"/>
<path d="M41.9096 23.4333C42.7762 12.2407 34.5895 2.85064 23.2202 2.93962C12.4984 3.04169 4.25696 12.7042 5.09059 23.437C5.08964 23.4403 5.08969 35.6451 5.08969 35.6451C5.08969 36.5115 5.79466 37.2161 6.661 37.2161H7.62819C7.86745 38.2376 8.7808 39.0025 9.87389 39.0025H13.2173C14.0306 39.0025 14.6925 38.3406 14.6925 37.5273V27.5251C14.6925 26.7118 14.0306 26.0502 13.2173 26.0502H9.87389C8.78093 26.0502 7.86767 26.8151 7.62832 27.8363C7.62832 27.8363 6.59328 27.8444 6.55889 27.8467L6.55912 24.1713H7.36454C8.77592 24.1713 9.92409 23.0277 9.92409 21.6221C9.79093 14.2378 16.2749 7.46656 23.7317 7.75408C31.0897 7.87695 37.0759 13.9291 37.0759 21.2452C37.0759 22.8585 38.394 24.1713 40.0148 24.1713H40.4415V27.8467C40.407 27.8444 39.3717 27.8363 39.3717 27.8363C39.1323 26.8151 38.219 26.0502 37.1261 26.0502H33.7827C32.9694 26.0502 32.3075 26.7118 32.3075 27.5251V37.5273C32.3075 38.3406 32.9694 39.0025 33.7827 39.0025H37.1261C38.0442 39.0025 38.8325 38.4602 39.2051 37.6826V39.7244C39.2051 40.6631 38.4349 41.4269 37.4882 41.4269H25.7984C25.5391 40.817 24.934 40.3881 24.2301 40.3881H21.4073C19.1341 40.4021 19.13 44.0465 21.4074 44.0625C21.4073 44.0625 24.2301 44.0625 24.2301 44.0625C24.9811 44.0625 25.6126 43.5711 25.8386 42.8957H37.4882C39.2446 42.8957 40.6739 41.4732 40.6739 39.7244V37.1783C41.3796 37.0243 41.9103 36.3963 41.9103 35.6451C41.9103 35.6451 41.9115 23.4363 41.9096 23.4333ZM24.4646 42.3599C24.4646 42.489 24.3592 42.5937 24.2301 42.5937H21.4073C21.1359 42.5938 21.1695 42.2772 21.1735 42.0906C21.1735 41.9616 21.2782 41.8569 21.4073 41.8569H24.2301C24.5018 41.8568 24.4688 42.173 24.4646 42.3599ZM9.03123 28.362C9.03123 27.8973 9.40917 27.519 9.8739 27.519L13.2238 27.5251C13.2197 27.5265 13.2344 37.5388 13.2173 37.5338C13.2173 37.5338 9.8739 37.5338 9.8739 37.5338C9.31027 37.538 8.96053 37.0118 9.03126 36.4817C9.03122 36.4817 9.03122 28.5707 9.03122 28.5707L9.03123 28.362ZM6.66101 29.3051H7.56248V35.7473H6.66101C6.4917 35.7635 6.57799 35.3731 6.55844 35.1793C6.55845 35.1793 6.55881 29.4068 6.55881 29.4068C6.55935 29.3505 6.60467 29.3051 6.66101 29.3051ZM40.4408 22.7025C39.4691 22.8153 38.5599 22.2834 38.5446 21.2452C38.5526 13.0463 31.7473 6.27547 23.5057 6.28306C15.3358 6.12707 8.32431 13.5051 8.45547 21.6222C8.45535 22.2177 7.96624 22.7025 7.36455 22.7025H6.55917V21.6418C6.55917 12.275 14.0428 4.54393 23.2418 4.40839C33.25 4.17376 41.1691 12.8108 40.4408 22.7025ZM40.4415 29.4076V35.6451C40.4415 35.7014 40.3956 35.7473 40.339 35.7473H39.4375V29.3051H40.339C40.3956 29.3051 40.4415 29.351 40.4415 29.4076ZM37.9688 36.6908C37.9688 37.1555 37.5908 37.5338 37.1261 37.5338H33.7827C33.7614 37.538 33.7909 27.522 33.7827 27.519H37.1261C37.6895 27.515 38.0394 28.0405 37.9687 28.5707C37.9688 28.5707 37.9688 36.6908 37.9688 36.6908Z" fill="#266BFF"/>
<path d="M16.9243 30.4217C16.5184 30.4217 16.19 30.7505 16.19 31.1561V34.6788C16.19 35.0843 16.5184 35.4132 16.9243 35.4132C17.3303 35.4132 17.6587 35.0843 17.6587 34.6788V31.1561C17.6587 30.7505 17.3303 30.4217 16.9243 30.4217Z" fill="#266BFF"/>
<path d="M19.8367 30.7817C19.821 29.8177 18.3841 29.8155 18.368 30.7817V35.0531C18.3837 36.0172 19.8206 36.0194 19.8367 35.0531V30.7817Z" fill="#266BFF"/>
<path d="M20.546 29.8806V35.9543C20.5616 36.9177 21.9986 36.921 22.0148 35.9542V29.8806C21.9992 28.9171 20.5622 28.9139 20.546 29.8806Z" fill="#266BFF"/>
<path d="M23.4577 28.035C23.0518 28.035 22.7233 28.3638 22.7233 28.7693V37.0655C22.7233 37.4711 23.0518 37.7999 23.4577 37.7999C23.8636 37.7999 24.192 37.4711 24.192 37.0655V28.7693C24.192 28.3638 23.8636 28.035 23.4577 28.035Z" fill="#266BFF"/>
<path d="M29.2853 31.1561V34.6788C29.2853 35.0844 29.6138 35.4132 30.0197 35.4132C30.4256 35.4132 30.7541 35.0844 30.7541 34.6788V31.1561C30.7383 30.1918 29.3015 30.19 29.2853 31.1561Z" fill="#266BFF"/>
<path d="M27.1073 30.7817V35.0531C27.1073 35.4587 27.4358 35.7875 27.8417 35.7875C28.2476 35.7875 28.5761 35.4587 28.5761 35.0531V30.7817C28.5603 29.8177 27.1235 29.8155 27.1073 30.7817Z" fill="#266BFF"/>
<path d="M24.9293 29.8806V35.9543C24.9449 36.9177 26.3819 36.921 26.3981 35.9542V29.8806C26.3825 28.9171 24.9455 28.9139 24.9293 29.8806Z" fill="#266BFF"/>
<path d="M26.487 14.1342L19.8633 22.5096C19.2725 23.2617 20.4131 24.1735 21.0151 23.4204C21.015 23.4204 27.6388 15.045 27.6388 15.045C28.2238 14.2811 27.0998 13.3858 26.487 14.1342Z" fill="#266BFF"/>
</svg>
