<svg width="47" height="47" viewBox="0 0 47 47" fill="none" xmlns="http://www.w3.org/2000/svg">
<g clip-path="url(#clip0_49_9)">
<path d="M43.0121 9.3288C42.5848 9.3288 42.3 9.04395 42.3 8.61668V7.26364C42.3 6.19546 41.4455 5.2697 40.3061 5.2697H20.5803C20.4379 5.2697 20.3667 5.26971 20.2242 5.19849L14.9545 2.35001H6.69394C5.55454 2.2788 4.7 3.13334 4.7 4.27274V8.61668C4.7 9.04395 4.41515 9.3288 3.98788 9.3288C3.56061 9.3288 3.27576 9.04395 3.27576 8.61668V4.27274C3.27576 2.42122 4.77121 0.854553 6.69394 0.854553H15.2394C15.3818 0.854553 15.453 0.854553 15.5955 0.925765L20.8651 3.77425H40.4485C42.3 3.77425 43.8667 5.26971 43.8667 7.19243V8.54546C43.7242 8.97274 43.4394 9.3288 43.0121 9.3288Z" fill="#266BFF"/>
<path d="M40.6621 32.1167H33.1136C32.6863 32.1167 32.4015 31.8318 32.4015 31.4045C32.4015 30.9773 32.6863 30.6924 33.1136 30.6924H40.6621C41.6591 30.6924 42.5136 29.9803 42.5848 28.9833L44.8636 11.5364C44.9348 10.9667 44.7924 10.397 44.3651 9.96969C44.0091 9.54242 43.4394 9.32878 42.8697 9.32878H4.13027C3.56058 9.32878 3.06209 9.54242 2.63482 9.96969C2.27876 10.397 2.06512 10.9667 2.13633 11.5364L4.34391 28.9833C4.48633 29.9803 5.34088 30.6924 6.26664 30.6924H13.8151C14.2424 30.6924 14.5272 30.9773 14.5272 31.4045C14.5272 31.8318 14.2424 32.1167 13.8151 32.1167H6.33785C4.62876 32.1167 3.20451 30.8348 2.99088 29.1258L0.71209 11.6788C0.569666 10.6818 0.854514 9.75606 1.49542 9.04393C2.13633 8.33181 3.06209 7.90454 4.05906 7.90454H42.8697C43.8666 7.90454 44.7924 8.33181 45.4333 9.04393C46.0742 9.75606 46.3591 10.753 46.2166 11.6788L44.0091 29.197C43.7954 30.8348 42.3712 32.1167 40.6621 32.1167Z" fill="#266BFF"/>
<path d="M23.5 42.2288C23.3576 42.2288 23.2151 42.1576 23.1439 42.0864C14.4561 36.5319 9.25757 27.0606 9.25757 16.7349V16.5925C9.25757 16.2364 9.54242 15.8803 9.89848 15.8803C11.6788 15.7379 13.5303 15.3819 15.3106 14.8834C18.0879 14.1 20.7227 12.8894 23.1439 11.3228C23.3576 11.1803 23.7136 11.1803 23.9273 11.3228C26.3485 12.8894 28.9121 14.1 31.6894 14.8834C33.4697 15.3819 35.25 15.7379 37.1015 15.8803C37.4576 15.8803 37.7424 16.2364 37.7424 16.5925V16.7349C37.7424 27.0606 32.5439 36.5319 23.9273 42.1576C23.7848 42.2288 23.6424 42.2288 23.5 42.2288ZM10.6818 17.2334C10.8242 26.7046 15.5954 35.3925 23.5 40.6622C31.4045 35.3925 36.1045 26.7046 36.3182 17.2334C34.6091 17.0909 32.9712 16.7349 31.3333 16.3076C28.5561 15.5243 25.9212 14.3849 23.5 12.8182C21.0788 14.3137 18.4439 15.5243 15.6667 16.3076C14.0288 16.7349 12.3909 17.0909 10.6818 17.2334Z" fill="#266BFF"/>
<path d="M26.8469 33.3985H20.153C18.6576 33.3985 17.3757 32.1879 17.3757 30.6213V24.6395C17.3757 23.144 18.5863 21.8622 20.153 21.8622H26.8469C28.3424 21.8622 29.6242 23.0728 29.6242 24.6395V30.6213C29.6242 32.1879 28.3424 33.3985 26.8469 33.3985ZM20.153 23.2864C19.4409 23.2864 18.8 23.9273 18.8 24.6395V30.6213C18.8 31.3334 19.4409 31.9743 20.153 31.9743H26.8469C27.5591 31.9743 28.2 31.3334 28.2 30.6213V24.6395C28.2 23.9273 27.5591 23.2864 26.8469 23.2864H20.153Z" fill="#266BFF"/>
<path d="M26.9182 23.2864C26.4909 23.2864 26.2061 23.0015 26.2061 22.5743V19.1561C26.2061 17.7318 25.0667 16.5925 23.6424 16.5925C22.2182 16.5925 21.0788 17.7318 21.0788 19.1561V22.4319C21.0788 22.8591 20.7939 23.144 20.3667 23.144C19.9394 23.144 19.6545 22.8591 19.6545 22.4319V19.1561C19.6545 16.9485 21.4348 15.1682 23.6424 15.1682C25.85 15.1682 27.6303 16.9485 27.6303 19.1561V22.5743C27.6303 22.9303 27.2742 23.2864 26.9182 23.2864Z" fill="#266BFF"/>
<path d="M23.5712 30.9061C23.1439 30.9061 22.8591 30.6213 22.8591 30.194V29.1258C22.8591 28.6985 23.1439 28.4137 23.5712 28.4137C23.9985 28.4137 24.2833 28.6985 24.2833 29.1258V30.194C24.2833 30.6213 23.9273 30.9061 23.5712 30.9061Z" fill="#266BFF"/>
<path d="M23.5 29.8379C22.2894 29.8379 21.2924 28.841 21.2924 27.6304C21.2924 26.4198 22.2894 25.4228 23.5 25.4228C24.7106 25.4228 25.7076 26.4198 25.7076 27.6304C25.7076 28.841 24.7106 29.8379 23.5 29.8379ZM23.5 26.9182C23.0727 26.9182 22.7167 27.2743 22.7167 27.7016C22.7167 28.1289 23.0727 28.4849 23.5 28.4849C23.9273 28.4849 24.2833 28.1289 24.2833 27.7016C24.2833 27.2743 23.9273 26.9182 23.5 26.9182Z" fill="#266BFF"/>
<path d="M40.4485 39.594C40.306 39.594 40.1636 39.5228 40.0212 39.4515L35.3212 35.9621H30.6212C30.1939 35.9621 29.9091 35.6773 29.9091 35.25C29.9091 34.8228 30.1939 34.5379 30.6212 34.5379H35.606C35.7485 34.5379 35.8909 34.6091 36.0333 34.6803L40.9469 38.3121C41.2318 38.5258 41.303 39.0243 41.0894 39.3091C40.8757 39.5228 40.6621 39.594 40.4485 39.594Z" fill="#266BFF"/>
<path d="M42.5136 43.7242C40.7333 43.7242 39.2379 42.2288 39.2379 40.4485C39.2379 38.6682 40.7333 37.1727 42.5136 37.1727C44.2939 37.1727 45.7894 38.6682 45.7894 40.4485C45.7894 42.2288 44.2939 43.7242 42.5136 43.7242ZM42.5136 38.597C41.5166 38.597 40.6621 39.4515 40.6621 40.4485C40.6621 41.4455 41.5166 42.3 42.5136 42.3C43.5106 42.3 44.3651 41.4455 44.3651 40.4485C44.3651 39.4515 43.5106 38.597 42.5136 38.597Z" fill="#266BFF"/>
<path d="M34.4666 46.1455C32.6863 46.1455 31.1909 44.65 31.1909 42.8697C31.1909 41.0894 32.6863 39.5939 34.4666 39.5939C36.2469 39.5939 37.7424 41.0894 37.7424 42.8697C37.7424 44.65 36.2469 46.1455 34.4666 46.1455ZM34.4666 40.947C33.4696 40.947 32.6151 41.8015 32.6151 42.7985C32.6151 43.7954 33.4696 44.65 34.4666 44.65C35.4636 44.65 36.3181 43.7954 36.3181 42.7985C36.3181 41.8015 35.4636 40.947 34.4666 40.947Z" fill="#266BFF"/>
<path d="M32.6863 41.1606C32.4727 41.1606 32.3303 41.0894 32.1878 40.947L30.55 39.3091H27.3454C26.9181 39.3091 26.6333 39.0243 26.6333 38.597C26.6333 38.1697 26.9181 37.8849 27.3454 37.8849H30.8348C31.0485 37.8849 31.1909 37.9561 31.3333 38.0985L33.1848 39.95C33.4697 40.2349 33.4697 40.6622 33.1848 40.947C33.0424 41.0894 32.8288 41.1606 32.6863 41.1606Z" fill="#266BFF"/>
<path d="M6.3379 39.594C6.12426 39.594 5.91062 39.5228 5.7682 39.3091C5.55456 39.0243 5.62578 38.5258 5.91062 38.3121L10.8955 34.6803C11.0379 34.6091 11.1803 34.5379 11.3227 34.5379H16.5924C17.0197 34.5379 17.3046 34.8228 17.3046 35.25C17.3046 35.6773 17.0197 35.9621 16.5924 35.9621H11.5364L6.76517 39.4515C6.62274 39.594 6.48032 39.594 6.3379 39.594Z" fill="#266BFF"/>
<path d="M4.34393 43.7242C2.56363 43.7242 1.06818 42.2288 1.06818 40.4485C1.06818 38.6682 2.56363 37.1727 4.34393 37.1727C6.12424 37.1727 7.61969 38.6682 7.61969 40.4485C7.61969 42.2288 6.12424 43.7242 4.34393 43.7242ZM4.34393 38.597C3.34696 38.597 2.49242 39.4515 2.49242 40.4485C2.49242 41.4455 3.34696 42.3 4.34393 42.3C5.3409 42.3 6.19545 41.4455 6.19545 40.4485C6.19545 39.4515 5.3409 38.597 4.34393 38.597Z" fill="#266BFF"/>
<path d="M12.3909 46.1455C10.6106 46.1455 9.11517 44.65 9.11517 42.8697C9.11517 41.0894 10.6106 39.5939 12.3909 39.5939C14.1712 39.5939 15.6667 41.0894 15.6667 42.8697C15.6667 44.65 14.1712 46.1455 12.3909 46.1455ZM12.3909 40.947C11.394 40.947 10.5394 41.8015 10.5394 42.7985C10.5394 43.7954 11.394 44.65 12.3909 44.65C13.3879 44.65 14.2424 43.7954 14.2424 42.7985C14.2424 41.8015 13.3879 40.947 12.3909 40.947Z" fill="#266BFF"/>
<path d="M14.1712 41.1606C13.9576 41.1606 13.8152 41.0894 13.6727 40.947C13.3879 40.6622 13.3879 40.2349 13.6727 39.95L15.5243 38.0985C15.6667 37.9561 15.8091 37.8849 16.0227 37.8849H18.9424C19.3697 37.8849 19.6546 38.1697 19.6546 38.597C19.6546 39.0243 19.3697 39.3091 18.9424 39.3091H16.3076L14.6697 40.947C14.5273 41.0894 14.3137 41.1606 14.1712 41.1606Z" fill="#266BFF"/>
</g>
<defs>
<clipPath id="clip0_49_9">
<rect width="47" height="47" fill="white"/>
</clipPath>
</defs>
</svg>
