<svg width="47" height="47" viewBox="0 0 47 47" fill="none" xmlns="http://www.w3.org/2000/svg">
<path fill-rule="evenodd" clip-rule="evenodd" d="M29.4738 39.3398C29.2241 39.3398 28.98 39.212 28.8421 38.9817C28.6348 38.6335 28.7489 38.1831 29.0966 37.9754C31.4427 36.5741 33.6791 34.8545 35.7416 32.8643C39.0606 29.6639 41.6699 26.0211 43.3463 22.3009C41.9773 19.2687 39.981 16.2641 37.482 13.5193C37.2088 13.2188 37.2306 12.7544 37.531 12.4817C37.8302 12.2082 38.2946 12.2303 38.5682 12.5303C40.8318 15.0163 42.7024 17.7146 44.0947 20.4658C44.4014 19.6262 44.6593 18.7856 44.8655 17.9483C46.1103 12.8958 45.3216 8.58522 42.6451 5.809C39.9673 3.03325 35.6875 2.0893 30.5938 3.15075C29.5433 3.36969 28.4848 3.6683 27.4265 4.04155C29.7367 5.17744 32.0148 6.6372 34.1639 8.37574C34.4796 8.63066 34.5282 9.0924 34.2732 9.40854C34.0178 9.72332 33.556 9.77279 33.2404 9.51778C30.7431 7.49788 28.127 5.91393 25.5412 4.78602C21.985 6.33904 18.4862 8.71181 15.3574 11.7291C14.0732 12.9682 12.8791 14.292 11.8077 15.6634C11.5579 15.9829 11.0962 16.0398 10.7767 15.7904C10.4576 15.5403 10.4003 15.0798 10.6501 14.7594C11.7635 13.3338 13.0048 11.9585 14.3385 10.6716C17.2114 7.9006 20.3923 5.64919 23.6578 4.04247C17.5255 1.87927 11.7757 2.36589 8.4552 5.809C6.5696 7.76446 5.60491 10.5276 5.66558 13.8007C5.67293 14.2066 5.35081 14.5409 4.94498 14.5483C4.94021 14.5491 4.93589 14.5491 4.93112 14.5491C4.5318 14.5491 4.20399 14.2287 4.19665 13.8285C4.129 10.1565 5.23597 7.03174 7.39779 4.79006C10.1653 1.92067 14.4495 0.742644 19.4608 1.47445C21.4489 1.76453 23.4985 2.34689 25.5435 3.19041C27.1258 2.53865 28.7177 2.04129 30.2946 1.71294C35.9008 0.544454 40.6619 1.63748 43.7017 4.79006C46.7419 7.94172 47.6615 12.7397 46.2919 18.2999C45.9638 19.6318 45.5127 20.9701 44.9484 22.3C45.6574 23.9681 46.1857 25.6425 46.5143 27.2885C47.5375 32.4182 46.539 36.8628 43.7017 39.8041C42.0831 41.4821 39.9812 42.5782 37.4564 43.0604C36.5 43.2429 35.5022 43.3348 34.4668 43.3348C32.9091 43.3348 31.2657 43.1272 29.5557 42.7139C29.1607 42.6194 28.9184 42.2231 29.0142 41.8282C29.1083 41.4336 29.5059 41.1912 29.8996 41.2867C31.4822 41.6686 33.0054 41.8568 34.4366 41.8568C37.8219 41.8568 40.6953 40.8058 42.645 38.7845C45.1372 36.1995 46 32.2192 45.074 27.576C44.8471 26.4401 44.5187 25.2886 44.096 24.1343C42.3471 27.5926 39.8474 30.9451 36.7619 33.9219C34.6174 35.9892 32.2921 37.7773 29.8493 39.2363C29.7318 39.3065 29.6025 39.3398 29.4738 39.3398ZM21.6261 39.3398C21.8759 39.3398 22.1191 39.212 22.2569 38.9817C22.4655 38.6335 22.3515 38.1831 22.0033 37.9754C19.6573 36.5741 17.4213 34.8545 15.3574 32.8643C13.3335 30.9119 11.5627 28.783 10.0929 26.5358C9.87181 26.1964 9.41659 26.1009 9.07666 26.3238C8.7372 26.5449 8.64173 27.0006 8.86379 27.3401C10.393 29.6779 12.2348 31.8931 14.3386 33.9218C16.4822 35.99 18.8079 37.7772 21.2498 39.2362C21.3686 39.3064 21.4979 39.3398 21.6262 39.3398H21.6261ZM16.6326 43.3348C18.1913 43.3348 19.8345 43.1272 21.5446 42.7139C21.9391 42.6194 22.1815 42.2231 22.0861 41.8282C21.9907 41.4345 21.594 41.1921 21.2004 41.2867C15.8743 42.5718 11.2285 41.6604 8.45529 38.7845C6.13173 36.3746 5.23038 32.8553 5.84817 28.604C5.90719 28.2029 5.62877 27.8301 5.22771 27.7715C4.82665 27.7129 4.45377 27.9909 4.39521 28.3929C3.71839 33.0426 4.78498 37.0952 7.3977 39.8042C9.01709 41.4822 11.1182 42.5782 13.6434 43.0605C14.5999 43.2429 15.5971 43.3349 16.6325 43.3349L16.6326 43.3348Z" fill="#266BFF"/>
<path fill-rule="evenodd" clip-rule="evenodd" d="M25.5496 13.2228C23.4064 13.2228 21.663 14.9667 21.663 17.1102C21.663 19.2538 23.4064 20.9968 25.5496 20.9968C27.6927 20.9968 29.4374 19.2525 29.4374 17.1102C29.4374 14.968 27.6931 13.2228 25.5496 13.2228ZM6.95243 19.0865C6.48151 19.0865 6.0978 19.4702 6.0978 19.941C6.0978 20.4119 6.48151 20.7956 6.95243 20.7956C7.42335 20.7956 7.80706 20.4119 7.80706 19.941C7.80706 19.4702 7.42335 19.0865 6.95243 19.0865ZM6.21796 22.1456V25.0021H4.93189C4.7672 24.6936 4.51752 24.4319 4.19568 24.2401C2.56803 23.2706 1.5578 21.4933 1.5578 19.6025C1.5578 16.6273 3.97803 14.208 6.95234 14.208C9.92665 14.208 12.3465 16.6274 12.3465 19.6025C12.3465 21.4933 11.3367 23.2706 9.709 24.2401C9.38725 24.4319 9.13756 24.6936 8.97288 25.0021H7.6868V22.1456C8.60899 21.8376 9.2759 20.9661 9.2759 19.9411C9.2759 18.6608 8.23318 17.618 6.95234 17.618C5.67149 17.618 4.62923 18.6608 4.62923 19.9411C4.62923 20.9661 5.29614 21.8375 6.21796 22.1456ZM5.16046 26.4707H8.74439V27.4324C8.74439 27.4913 8.69455 27.5408 8.63598 27.5408H5.26878C5.26144 27.5408 5.25318 27.5404 5.24712 27.5391C5.20462 27.53 5.16037 27.4896 5.16037 27.4324L5.16046 26.4707ZM7.90152 29.0098H6.00334V29.2318C6.00334 29.5128 6.231 29.7404 6.51189 29.7404H7.39333C7.67386 29.7404 7.90142 29.5127 7.90142 29.2318L7.90152 29.0098ZM4.53487 28.8277C4.0287 28.5593 3.69199 28.0258 3.69199 27.4324V25.9383C3.69199 25.7463 3.60827 25.5997 3.44395 25.5021C1.37485 24.2686 0.0888672 22.0084 0.0888672 19.6025C0.0888672 15.8178 3.16773 12.7389 6.95243 12.7389C10.7371 12.7389 13.8152 15.8178 13.8152 19.6025C13.8152 22.0085 12.53 24.2687 10.461 25.5014C10.2967 25.5998 10.213 25.7464 10.213 25.9384V27.4325C10.213 28.0371 9.87102 28.5633 9.37054 28.8279V29.2319C9.37054 30.3227 8.48387 31.2094 7.39342 31.2094H6.51199C5.42107 31.2094 4.53487 30.3227 4.53487 29.2319V28.8278V28.8277ZM24.8944 42.8379C24.7088 42.8379 24.5241 42.7681 24.381 42.6298L22.7269 41.0161C22.436 40.7334 22.4303 40.2686 22.713 39.9776C22.9957 39.6876 23.461 39.6811 23.7514 39.9646L24.8849 41.0694L27.3385 38.5923C27.6243 38.3045 28.0895 38.3014 28.3778 38.5871C28.6662 38.8724 28.6679 39.3376 28.3826 39.626L25.4156 42.6203C25.2725 42.7655 25.0835 42.8379 24.8945 42.8379H24.8944ZM25.5496 36.9374C23.5274 36.9374 21.8814 38.5833 21.8814 40.6064C21.8814 42.6295 23.5273 44.2748 25.5496 44.2748C27.5718 44.2748 29.219 42.629 29.219 40.6064C29.219 38.5837 27.573 36.9374 25.5496 36.9374ZM25.5496 45.7433C28.3826 45.7433 30.6874 43.4393 30.6874 40.6063C30.6874 37.7732 28.3825 35.4684 25.5496 35.4684C22.7166 35.4684 20.413 37.7737 20.413 40.6063C20.413 43.4388 22.717 45.7433 25.5496 45.7433ZM32.1087 9.81705L33.569 11.0775C33.7758 11.2561 33.8664 11.5354 33.804 11.8016L33.3635 13.679L35.0128 12.6801C35.247 12.5379 35.5409 12.5379 35.7742 12.6801L37.4243 13.679L36.9838 11.8016C36.9214 11.5354 37.0111 11.2561 37.2188 11.0775L38.6791 9.81705L36.757 9.6553C36.4843 9.63235 36.2476 9.4606 36.1409 9.20825L35.3939 7.43015L34.6468 9.20825C34.5401 9.4606 34.3034 9.63226 34.0307 9.6553L32.1086 9.81705H32.1087ZM38.5378 15.9461C38.4064 15.9461 38.2746 15.9114 38.158 15.8408L35.3939 14.1663L32.6299 15.8408C32.3775 15.993 32.0571 15.9799 31.8177 15.8065C31.5789 15.6322 31.467 15.3322 31.5346 15.0447L32.273 11.8991L29.8264 9.78758C29.6027 9.5938 29.5164 9.28555 29.6078 9.00456C29.6989 8.72357 29.9503 8.52455 30.2452 8.49986L33.4645 8.22979L34.7162 5.25107C34.8311 4.97835 35.0982 4.80145 35.3939 4.80145C35.6897 4.80145 35.9568 4.97835 36.0708 5.25107L37.3225 8.22979L40.5427 8.49986C40.8375 8.52455 41.0881 8.72357 41.18 9.00456C41.2706 9.28555 41.1843 9.5938 40.9614 9.78758L38.5148 11.8991L39.2532 15.0447C39.3199 15.3321 39.2089 15.6322 38.9692 15.8065C38.8417 15.8993 38.6895 15.9461 38.5378 15.9461ZM33.6964 32.8396H17.4034C16.9976 32.8396 16.6693 32.511 16.6693 32.1051V25.5095C16.6693 22.8336 18.4655 20.5479 20.9423 19.8379C20.4672 19.0384 20.1939 18.1058 20.1939 17.1103C20.1939 14.1564 22.5963 11.7539 25.5495 11.7539C28.5027 11.7539 30.9059 14.1564 30.9059 17.1103C30.9059 18.1058 30.6326 19.0385 30.1573 19.8378C32.6343 20.5477 34.4309 22.8335 34.4309 25.5095V32.1051C34.4309 32.511 34.1023 32.8396 33.6964 32.8396ZM21.9988 21.1159C19.81 21.3979 18.1379 23.2718 18.1379 25.5096V31.3708H32.9619V25.5096C32.9619 23.2716 31.2886 21.3976 29.1006 21.1159C28.1546 21.9553 26.9105 22.4659 25.5495 22.4659C24.1884 22.4659 22.9445 21.9553 21.9988 21.1159Z" fill="#266BFF"/>
</svg>
