<svg width="47" height="47" viewBox="0 0 47 47" fill="none" xmlns="http://www.w3.org/2000/svg">
<path d="M43.842 15.0574V12.8483C43.842 11.4285 42.687 10.2734 41.2673 10.2734H32.0826C30.028 4.50677 24.5143 0.367188 18.0512 0.367188C9.83906 0.367188 3.15799 7.04706 3.15799 15.2578C3.15799 23.4686 9.83906 30.1511 18.0512 30.1511H41.2674C42.6871 30.1511 43.8421 28.996 43.8421 27.5762V25.3644C43.8421 24.5437 43.4557 23.812 42.8557 23.3402C43.4556 22.8688 43.8421 22.1379 43.8421 21.3181V19.1063C43.8421 18.2855 43.4555 17.5537 42.8554 17.0818C43.4555 16.61 43.8421 15.8782 43.8421 15.0574L43.842 15.0574ZM4.25863 15.2578C4.25863 7.65402 10.4459 1.46783 18.0512 1.46783C25.6565 1.46783 31.8411 7.65393 31.8411 15.2577C31.8411 22.8616 25.6549 29.0503 18.0512 29.0503C10.4475 29.0503 4.25863 22.863 4.25863 15.2578ZM42.7414 25.3645V27.5763C42.7414 28.3891 42.0801 29.0505 41.2673 29.0505H23.6669C26.295 27.9761 28.5504 26.1721 30.1787 23.8904H41.2673C42.08 23.8904 42.7414 24.5517 42.7414 25.3646V25.3645ZM42.7414 19.1064V21.3182C42.7414 22.1296 42.0801 22.7897 41.2673 22.7897H30.8924C31.8109 21.2291 32.4532 19.4876 32.7516 17.6323H41.2673C42.08 17.6323 42.7414 18.2936 42.7414 19.1064ZM32.8867 16.5316C32.9224 16.1115 32.9418 15.687 32.9418 15.2578C32.9418 13.9147 32.7619 12.6129 32.427 11.3741H41.2674C42.0801 11.3741 42.7414 12.0354 42.7414 12.8483V15.0574C42.7414 15.8702 42.0802 16.5316 41.2674 16.5316H32.8868H32.8867ZM43.2917 40.5933H40.7013V32.9288C40.7013 32.6248 40.4549 32.3785 40.1509 32.3785H36.5575C36.2534 32.3785 36.0071 32.6249 36.0071 32.9288V40.5933H33.4194C33.1968 40.5933 32.9962 40.7273 32.9109 40.933C32.8257 41.1386 32.8728 41.3752 33.0302 41.5327L37.9664 46.4715C38.0695 46.5748 38.2095 46.6328 38.3556 46.6328C38.5016 46.6328 38.6416 46.5748 38.7448 46.4715L43.6809 41.5327C43.8382 41.3752 43.8853 41.1385 43.8001 40.933C43.7149 40.7273 43.5143 40.5933 43.2917 40.5933ZM38.3556 45.304L34.7475 41.694H36.5575C36.8615 41.694 37.1078 41.4476 37.1078 41.1436V33.4791H39.6006V41.1436C39.6006 41.4477 39.847 41.694 40.1509 41.694H41.9635L38.3555 45.304H38.3556ZM28.4363 40.5933H25.8459V32.9288C25.8459 32.6248 25.5995 32.3785 25.2955 32.3785H21.7046C21.4007 32.3785 21.1543 32.6249 21.1543 32.9288V40.5933H18.5639C18.3413 40.5933 18.1407 40.7273 18.0554 40.933C17.9701 41.1386 18.0172 41.3752 18.1746 41.5327L23.1108 46.4715C23.214 46.5748 23.3539 46.6328 23.5 46.6328C23.646 46.6328 23.786 46.5748 23.8892 46.4715L28.8254 41.5327C28.9827 41.3752 29.0298 41.1386 28.9446 40.933C28.8593 40.7273 28.6587 40.5933 28.4361 40.5933H28.4363ZM23.5001 45.304L19.892 41.694H21.7046C22.0086 41.694 22.255 41.4476 22.255 41.1436V33.4791H24.7451V41.1436C24.7451 41.4477 24.9915 41.694 25.2954 41.694H27.1081L23.5 45.304H23.5001ZM13.5834 40.5933H10.9929V32.9288C10.9929 32.6248 10.7466 32.3785 10.4426 32.3785H6.84914C6.5452 32.3785 6.29882 32.6249 6.29882 32.9288V40.5933H3.7084C3.4858 40.5933 3.28513 40.7274 3.19994 40.9331C3.11475 41.1387 3.16184 41.3753 3.31928 41.5328L8.25813 46.4716C8.3614 46.5749 8.50139 46.6328 8.64735 46.6328C8.79331 46.6328 8.9333 46.5748 9.03648 46.4715L13.9727 41.5327C14.13 41.3752 14.1771 41.1386 14.0918 40.933C14.0065 40.7273 13.806 40.5933 13.5834 40.5933ZM8.64708 45.3041L5.03698 41.694H6.84905C7.15299 41.694 7.39937 41.4476 7.39937 41.1436V33.4791H9.89221V41.1436C9.89221 41.4477 10.1386 41.694 10.4425 41.694H12.2552L8.64708 45.3041ZM18.0512 4.62684C12.1879 4.62684 7.41773 9.39587 7.41773 15.2578C7.41773 21.1198 12.1879 25.8914 18.0512 25.8914C23.9145 25.8914 28.6822 21.1212 28.6822 15.2578C28.6822 9.39449 23.9132 4.62684 18.0512 4.62684ZM18.0512 24.7907C12.7948 24.7907 8.51838 20.5142 8.51838 15.2577C8.51838 10.0013 12.7948 5.72748 18.0512 5.72748C23.3076 5.72748 27.5815 10.0027 27.5815 15.2577C27.5815 20.5127 23.3062 24.7907 18.0512 24.7907ZM21.6747 17.5711C21.6747 19.1752 20.3393 20.5082 18.6015 20.7438V21.8802C18.6015 22.1842 18.3551 22.4305 18.0512 22.4305C17.7473 22.4305 17.5009 22.1841 17.5009 21.8802V20.7438C15.7617 20.5084 14.4252 19.1753 14.4252 17.571C14.4252 17.267 14.6716 17.0207 14.9756 17.0207C15.2795 17.0207 15.5259 17.2671 15.5259 17.571C15.5259 18.7339 16.6587 19.6801 18.0512 19.6801C19.4437 19.6801 20.574 18.7339 20.574 17.571C20.574 16.1052 19.655 15.8309 18.0308 15.4724C16.6017 15.1568 14.8233 14.7641 14.8233 12.5984C14.8233 11.1859 15.9823 10.0097 17.5008 9.77729V8.63799C17.5008 8.33396 17.7472 8.08767 18.0511 8.08767C18.3551 8.08767 18.6014 8.33405 18.6014 8.63799V9.77738C20.1185 10.0101 21.2764 11.1861 21.2764 12.5985C21.2764 12.9025 21.03 13.1488 20.7261 13.1488C20.4221 13.1488 20.1758 12.9024 20.1758 12.5985C20.1758 11.6263 19.2226 10.8355 18.0511 10.8355C16.8796 10.8355 15.9239 11.6263 15.9239 12.5985C15.9239 13.8205 16.771 14.067 18.2682 14.3976C19.7058 14.715 21.6747 15.1497 21.6747 17.5711Z" fill="#266BFF"/>
</svg>
