<svg width="47" height="47" viewBox="0 0 47 47" fill="none" xmlns="http://www.w3.org/2000/svg">
<path fill-rule="evenodd" clip-rule="evenodd" d="M40.9358 4.95686H6.0642C4.42168 4.95686 3.08539 6.25844 3.08539 7.8581V31.8643C3.08539 33.4639 4.42177 34.7656 6.0642 34.7656L19.8505 34.7654L16.97 41.0035H13.5642C13.2644 41.0035 13.0207 41.2402 13.0207 41.5329C13.0207 41.8255 13.2638 42.0623 13.5642 42.0623H33.4353C33.7351 42.0623 33.9787 41.8255 33.9787 41.5329C33.9787 41.2402 33.7356 41.0035 33.4353 41.0035H30.0334L27.2529 34.7654H40.9357C42.5781 34.7654 43.9145 33.4638 43.9145 31.8642L43.9143 7.858C43.9143 5.13962 40.8249 4.84606 40.9357 4.95686H40.9358ZM6.06429 6.01518H40.9362C41.9794 6.01518 42.828 6.84191 42.828 7.85791V27.4651L4.17245 27.4653V7.858C4.17245 6.84191 5.02111 6.01518 6.06429 6.01518ZM28.8492 41.0035H18.1616L21.0421 34.7654H26.0689L28.8492 41.0035ZM40.9362 33.7069H6.0642C5.02102 33.7069 4.17235 32.8802 4.17235 31.8642V28.5237H42.8279V31.8642C42.8279 32.8803 41.9793 33.7069 40.9361 33.7069H40.9362ZM16.8312 14.6314C17.1254 14.6314 17.3747 14.8627 17.3747 15.161V24.5618C17.3747 24.8545 17.1311 25.0912 16.8312 25.0912L14.9613 25.091C14.661 25.091 14.4179 24.8539 14.4179 24.5616V15.1608C14.4179 14.8682 14.6614 14.6314 14.9613 14.6314H16.8312ZM16.2878 24.0323H15.5044V15.6899H16.2878V24.0323ZM12.4206 16.1801C12.7209 16.1801 12.964 16.4172 12.964 16.7095V24.5617C12.964 24.8544 12.7205 25.0911 12.4206 25.0911H10.5507C10.2503 25.0911 10.0072 24.854 10.0072 24.5617V16.7095C10.0072 16.4169 10.2508 16.1801 10.5507 16.1801H12.4206ZM11.8771 24.0323H11.0937V17.2386H11.8771V24.0323ZM6.14002 25.0907C5.83966 25.0907 5.59658 24.8536 5.59658 24.5612V18.3349C5.59658 18.0422 5.84012 17.8055 6.14002 17.8055H8.00992C8.31028 17.8055 8.55336 18.0426 8.55336 18.3349V24.5612C8.55336 24.8538 8.30982 25.0907 8.00992 25.0907H6.14002ZM6.68346 18.8644H7.46685V24.0323H6.68346V18.8644ZM18.8286 13.0196C18.8286 12.7214 19.0781 12.4902 19.3721 12.4902H21.2418C21.5422 12.4902 21.7852 12.7273 21.7852 13.0196V24.5613C21.7852 24.8539 21.5417 25.0908 21.2418 25.0908H19.3719C19.0715 25.0908 18.8285 24.8536 18.8285 24.5613V13.0196H18.8286ZM19.9155 13.549H20.6989V24.0322L19.9155 24.0323V13.549V13.549ZM6.27808 14.82C6.28249 14.5304 6.52373 14.297 6.82014 14.297C11.3024 14.297 15.9188 12.2345 19.2463 9.29151L18.5405 9.28021C18.2407 9.27526 18.0012 9.03447 18.0065 8.74228C18.0118 8.45009 18.2591 8.21693 18.5589 8.22189L20.5717 8.25475C20.8585 8.25475 21.107 8.49526 21.107 8.78387C21.107 9.43691 21.0846 10.1001 21.0733 10.7541C21.0683 11.0432 20.8261 11.2745 20.5302 11.2745C20.2326 11.2745 19.9812 11.0384 19.9863 10.7366L19.998 10.0598C16.5271 13.1454 11.5003 15.4169 6.81353 15.3571C6.51969 15.3528 6.2734 15.1179 6.27808 14.82ZM24.3222 16.0817C24.0288 16.0817 23.7787 15.8506 23.7787 15.5521C23.7801 13.4203 24.6329 11.4923 26.2451 9.97787C27.9234 8.40438 30.2729 7.39113 32.5878 7.42078C34.9103 7.39012 37.2487 8.39896 38.9329 9.97805C40.545 11.4925 41.398 13.42 41.3988 15.5523C41.3988 15.8501 41.1491 16.0818 40.8554 16.0818H37.8542C37.5679 16.0818 37.3306 15.8654 37.3121 15.5871C37.1366 12.9694 34.6829 11.1213 32.1331 11.439L33.0695 12.1254C33.529 12.2304 33.9167 12.5723 34.0472 13.0466C34.1387 13.3794 34.0919 13.7271 33.9151 14.0252C33.5441 14.6511 32.7315 14.8485 32.1066 14.4974C31.736 14.2889 31.4679 13.8706 31.4468 13.4449L30.3608 12.0392C29.097 12.7762 28.2263 14.1188 28.1279 15.5871C28.1095 15.8653 27.8722 16.0818 27.5858 16.0818H24.3221L24.3222 16.0817ZM32.9753 13.4966C32.8694 13.6757 32.5949 13.6376 32.541 13.4411C32.5072 13.318 32.5824 13.1912 32.7087 13.1584C32.835 13.1249 32.9653 13.1989 32.9991 13.3217C33.0189 13.3936 32.9753 13.4967 32.9753 13.4967V13.4966ZM30.0534 9.91407C29.8369 9.75535 29.5338 9.77647 29.3426 9.96282C29.1514 10.1494 29.1297 10.4445 29.2925 10.6555L29.706 11.1909C29.6217 11.2424 29.5383 11.2959 29.457 11.352L28.0981 9.87864C29.3378 9.06449 30.8095 8.55676 32.1774 8.48773V10.3692C31.7702 10.407 31.3751 10.4878 30.9963 10.6055L30.0534 9.91407ZM33.2643 10.369V8.506C34.6344 8.62956 36.0854 9.17759 37.2889 10.02L36.4096 11.6715C35.5168 10.9293 34.4203 10.4768 33.2643 10.369ZM40.2921 15.0242H38.3416C38.1887 14.0726 37.786 13.204 37.2039 12.4797L38.146 10.7104C39.3876 11.8939 40.1562 13.2957 40.2921 15.0242ZM27.237 10.5278L28.6309 12.0395C27.8371 12.8396 27.2855 13.8714 27.1007 15.0241H24.8876C25.0281 13.2401 25.8908 11.6866 27.237 10.5278ZM40.1173 19.6634H28.8234C28.5236 19.6634 28.28 19.4266 28.28 19.134C28.28 18.8413 28.523 18.6045 28.8234 18.6045H40.1171C40.4169 18.6045 40.6607 18.8412 40.6607 19.134C40.6607 19.4322 40.4115 19.6634 40.1173 19.6634ZM40.6607 22.1569C40.6607 22.4493 40.4176 22.6863 40.1173 22.6863H28.8234C28.5236 22.6863 28.28 22.4496 28.28 22.1569C28.28 21.8643 28.523 21.6275 28.8234 21.6275H40.1171C40.4111 21.6275 40.6607 21.8589 40.6607 22.1569ZM40.6607 25.1799C40.6607 25.4722 40.4176 25.7093 40.1173 25.7093H28.8234C28.5236 25.7093 28.28 25.4725 28.28 25.1799C28.28 24.8872 28.523 24.6505 28.8234 24.6505H40.1171C40.4111 24.6505 40.6607 24.8818 40.6607 25.1799ZM27.3511 19.1334C27.3511 19.4258 27.108 19.6628 26.8076 19.6628L24.5292 19.663C24.2294 19.663 23.9858 19.4262 23.9858 19.1335C23.9858 18.8408 24.2289 18.6041 24.5292 18.6041L26.8076 18.6039C27.1074 18.6039 27.3511 18.8407 27.3511 19.1333V19.1334ZM26.8076 22.686H24.5292C24.2294 22.686 23.9858 22.4492 23.9858 22.1566C23.9858 21.8639 24.2289 21.6272 24.5292 21.6272L26.8076 21.627C27.1074 21.627 27.3511 21.8637 27.3511 22.1564C27.3511 22.4546 27.102 22.686 26.8076 22.686ZM26.8076 25.7089H24.5292C24.2294 25.7089 23.9858 25.4722 23.9858 25.1795C23.9858 24.8869 24.2289 24.6501 24.5292 24.6501L26.8076 24.6499C27.1074 24.6499 27.3511 24.8867 27.3511 25.1793C27.3511 25.4777 27.102 25.7089 26.8076 25.7089Z" fill="#266BFF"/>
</svg>
