<svg width="60" height="60" viewBox="0 0 60 60" fill="none" xmlns="http://www.w3.org/2000/svg">
<g clip-path="url(#clip0_65_273)">
<path d="M60 30C60 37.4802 57.2624 44.3209 52.7344 49.575C52.3489 50.0223 50.764 49.7625 50.3532 50.1863C44.9005 55.8097 38.4715 58.0288 30.0198 58.0288C20.0595 58.0288 11.2329 53.1748 5.77652 45.7032C5.40422 45.1934 5.0277 46.6427 4.6875 46.1092C1.71973 41.4554 0 35.9285 0 30C0 13.4314 13.4314 0 30 0C46.5686 0 60 13.4314 60 30Z" fill="#2740B1"/>
<path d="M57.549 30C57.549 45.2149 45.2149 57.549 30 57.549C14.7851 57.549 2.45099 45.2149 2.45099 30C2.45099 14.7851 14.7851 2.45099 30 2.45099C45.2149 2.45099 57.549 14.7851 57.549 30Z" fill="#314DCA"/>
<path d="M8.38873 5.625H44.5312C45.1785 5.625 45.7031 6.14965 45.7031 6.79688V55.5668C44.5776 56.2596 43.4031 56.88 42.1856 57.4219H19.0168C17.0647 56.553 15.2225 55.482 13.5169 54.2352C13.3164 54.0886 11.9154 53.9396 11.7187 53.7884C10.2872 52.6866 8.9578 51.4584 7.74748 50.1206C7.40506 49.7422 7.21686 49.249 7.21686 48.7387V6.79688C7.21686 6.14965 7.74151 5.625 8.38873 5.625Z" fill="#64DCFC"/>
<path d="M12.9137 45.1621V10.4035C12.9137 9.79405 13.4078 9.29999 14.0173 9.29999H50.4358C51.0453 9.29999 51.5394 9.79405 51.5394 10.4035V45.1621H12.9137Z" fill="#9AE7FD"/>
<path d="M7.80715 50.1861C6.65578 48.9212 5.61117 47.5575 4.6875 46.1091V6.79688C4.6875 6.14965 5.21215 5.625 5.85938 5.625H8.97902C8.3318 5.625 7.80715 6.14965 7.80715 6.79688V50.1861Z" fill="#00C1FB"/>
<path d="M14.9127 12.6562H43.7305L46.673 19.0417L52.7344 21.66V49.575C47.5395 55.603 39.9879 59.5424 31.5102 59.9627C31.0099 59.9876 30.6985 59.3443 30.192 59.3443C26.5992 59.3443 23.2568 59.1112 20.0639 57.9531C19.9133 57.8985 19.4684 58.0998 19.3188 58.0429C17.6681 57.4137 16.0872 56.643 14.591 55.7456C14.4955 55.6883 14.4003 54.9016 14.3054 54.8433C14.1158 54.7267 13.9276 54.608 13.7407 54.4873V13.8281C13.7408 13.1809 14.2655 12.6562 14.9127 12.6562Z" fill="#FFF5F5"/>
<path d="M14.5911 55.7455C13.5947 55.1479 12.6357 54.4939 11.7188 53.7882V13.8281C11.7188 13.1809 12.2434 12.6562 12.8906 12.6562H15.763C15.1158 12.6562 14.5911 13.1809 14.5911 13.8281V55.7455Z" fill="#C9F0FF"/>
<path d="M43.7307 20.4881V12.6562L52.7344 21.66H44.9025C44.2553 21.66 43.7307 21.1354 43.7307 20.4881Z" fill="#C9F0FF"/>
<path d="M42.4075 34.4579V41.8084C42.4075 42.4556 41.8827 42.9803 41.2356 42.9803C40.5885 42.9803 40.0637 42.4556 40.0637 41.8084V35.6298H22.2802V41.8084C22.2802 42.4556 21.7554 42.9803 21.1083 42.9803C20.4612 42.9803 19.9364 42.4556 19.9364 41.8084V34.4579C19.9364 33.8107 20.4612 33.286 21.1083 33.286H30V26.4958C30 25.8486 30.5248 25.324 31.1719 25.324C31.819 25.324 32.3437 25.8486 32.3437 26.4958V33.286H41.2356C41.8827 33.286 42.4075 33.8107 42.4075 34.4579Z" fill="#64DCFC"/>
<path d="M19.0168 49.4531C19.0168 48.8059 19.5415 48.2812 20.1887 48.2812H42.1552C42.8024 48.2812 43.327 48.8059 43.327 49.4531C43.327 50.1004 42.8024 50.625 42.1552 50.625H20.1887C19.5415 50.625 19.0168 50.1004 19.0168 49.4531ZM42.155 52.9688H20.1887C19.5415 52.9688 19.0168 53.4934 19.0168 54.1406C19.0168 54.7879 19.5415 55.3125 20.1887 55.3125H42.1552C42.8024 55.3125 43.327 54.7879 43.327 54.1406C43.3269 53.4934 42.8023 52.9688 42.155 52.9688ZM31.2155 57.6562H20.1886C19.8436 57.6562 19.5334 57.8054 19.319 58.0427C22.6372 59.3073 26.2377 60 30 60C30.5065 60 31.0099 59.9875 31.5102 59.9626C32.0147 59.832 32.3874 59.3735 32.3874 58.8281C32.3874 58.1809 31.8627 57.6562 31.2155 57.6562Z" fill="#64DCFC"/>
<path d="M41.8602 17.6269V28.6697C41.8602 29.3169 41.3356 29.8416 40.6883 29.8416H23.9387C23.2915 29.8416 22.7668 29.3169 22.7668 28.6697V17.6269C22.7668 16.9797 23.2915 16.455 23.9387 16.455H40.6884C41.3356 16.455 41.8602 16.9797 41.8602 17.6269Z" fill="#FFC143"/>
<path d="M24.6474 29.8417H21.6553C21.0081 29.8417 20.4835 29.3171 20.4835 28.6698V17.627C20.4835 16.9798 21.0081 16.4551 21.6553 16.4551H24.6474C24.0001 16.4551 23.4755 16.9798 23.4755 17.627V28.6698C23.4755 29.3169 24.0003 29.8417 24.6474 29.8417Z" fill="#FFB509"/>
<path d="M39.2379 21.0513C39.2379 21.6986 38.7132 22.2232 38.066 22.2232H24.2777C23.6305 22.2232 23.1058 21.6986 23.1058 21.0513C23.1058 20.4041 23.6305 19.8795 24.2777 19.8795H38.066C38.7132 19.8795 39.2379 20.4041 39.2379 21.0513ZM34.4362 24.567H27.9074C27.2601 24.567 26.7355 25.0916 26.7355 25.7388C26.7355 26.3861 27.2601 26.9107 27.9074 26.9107H34.4362C35.0835 26.9107 35.6081 26.3861 35.6081 25.7388C35.6081 25.0916 35.0835 24.567 34.4362 24.567Z" fill="#FF9500"/>
<path d="M27.6224 39.9379V44.58C27.6224 45.2272 27.0977 45.7519 26.4505 45.7519H19.7045C19.0572 45.7519 18.5326 45.2272 18.5326 44.58V39.9379C18.5326 39.2906 19.0572 38.766 19.7045 38.766H26.4505C27.0977 38.766 27.6224 39.2908 27.6224 39.9379ZM44.7049 38.766H37.9589C37.3117 38.766 36.787 39.2906 36.787 39.9379V44.58C36.787 45.2272 37.3117 45.7519 37.9589 45.7519H44.7049C45.3521 45.7519 45.8768 45.2272 45.8768 44.58V39.9379C45.8768 39.2908 45.3521 38.766 44.7049 38.766Z" fill="#FF5E95"/>
<path d="M19.319 39.9379V44.58C19.319 45.2272 19.8436 45.7519 20.4908 45.7519H17.6387C16.9915 45.7519 16.4669 45.2272 16.4669 44.58V39.9379C16.4669 39.2906 16.9915 38.766 17.6387 38.766H20.4908C19.8436 38.766 19.319 39.2908 19.319 39.9379ZM37.5735 44.58V39.9379C37.5735 39.2906 38.0981 38.766 38.7454 38.766H35.8933C35.246 38.766 34.7214 39.2906 34.7214 39.9379V44.58C34.7214 45.2272 35.246 45.7519 35.8933 45.7519H38.7454C38.0981 45.7519 37.5735 45.2272 37.5735 44.58Z" fill="#FF3980"/>
<path d="M18.6997 3.81354H13.4263C12.7792 3.81354 12.2544 4.33819 12.2544 4.98541V10.9034C12.2544 13.0034 13.9629 14.712 16.063 14.712C18.1631 14.712 19.8716 13.0034 19.8716 10.9034V4.98541C19.8716 4.3383 19.3468 3.81354 18.6997 3.81354ZM17.5278 10.9034C17.5278 11.7112 16.8708 12.3682 16.063 12.3682C15.2552 12.3682 14.5981 11.7112 14.5981 10.9034V6.15729H17.5278V10.9034Z" fill="#FF5E95"/>
</g>
<defs>
<clipPath id="clip0_65_273">
<rect width="60" height="60" fill="white"/>
</clipPath>
</defs>
</svg>
