<svg width="60" height="60" viewBox="0 0 60 60" fill="none" xmlns="http://www.w3.org/2000/svg">
<path d="M57.6119 11.7777V14.2812H2.38391V11.7777C2.38391 6.24497 6.86533 1.76355 12.398 1.76355H47.5978C53.1305 1.76355 57.6119 6.24497 57.6119 11.7777Z" fill="#33527D"/>
<path d="M57.6161 14.2847V42.2177C57.6161 47.7577 53.1286 52.2367 47.5973 52.2367H12.398C6.86667 52.2367 2.38808 47.7577 2.38808 42.2177V14.2847H57.6161Z" fill="#E5E8EF"/>
<path d="M57.6119 42.221V45.1744C57.6119 50.7071 53.1305 55.1885 47.5978 55.1885H12.398C6.86533 55.1885 2.38391 50.7071 2.38391 45.1744V42.221C2.38391 47.7537 6.86533 52.2351 12.398 52.2351H47.5978C53.1305 52.2351 57.6119 47.7537 57.6119 42.221Z" fill="#CDD4DF"/>
<path d="M12.4617 8.02239C12.4617 9.08136 11.6231 9.94212 10.5641 9.94212C9.50513 9.94212 8.64491 9.08136 8.64491 8.02239C8.64491 6.96341 9.50513 6.10266 10.5641 6.10266C11.6231 6.10266 12.4617 6.96341 12.4617 8.02239Z" fill="#4CC66E"/>
<path d="M18.4293 8.02239C18.4293 9.08136 17.5685 9.94212 16.5316 9.94212C15.4727 9.94212 14.6119 9.08136 14.6119 8.02239C14.6119 6.96341 15.4727 6.10266 16.5316 6.10266C17.5685 6.10266 18.4293 6.96341 18.4293 8.02239Z" fill="#FFA300"/>
<path d="M24.3963 8.02239C24.3963 9.08136 23.5356 9.94212 22.4992 9.94212C21.4397 9.94212 20.5795 9.08136 20.5795 8.02239C20.5795 6.96341 21.4397 6.10266 22.4992 6.10266C23.5356 6.10266 24.3963 6.96341 24.3963 8.02239Z" fill="#B244F1"/>
<path d="M17.9207 21.1378V27.4745C17.9207 28.2868 17.2638 28.944 16.4512 28.944H10.1144C9.30204 28.944 8.64491 28.2868 8.64491 27.4745V21.1378C8.64491 20.3324 9.30204 19.6683 10.1144 19.6683H16.4512C17.2638 19.6683 17.9207 20.3324 17.9207 21.1378Z" fill="#ADB9CA"/>
<path d="M51.8938 22.0139V32.1283C51.8938 33.4249 50.8451 34.4738 49.5482 34.4738H24.8334C23.5368 34.4738 22.4879 33.4249 22.4879 32.1283V22.0139C22.4879 20.7282 23.5368 19.6683 24.8334 19.6683H49.5482C50.8451 19.6683 51.8938 20.7282 51.8938 22.0139Z" fill="#ADB9CA"/>
<path d="M17.9207 39.0527V45.3893C17.9207 46.2017 17.2638 46.8588 16.4512 46.8588H10.1144C9.30204 46.8588 8.64491 46.2017 8.64491 45.3893V39.0527C8.64491 38.2472 9.30204 37.5832 10.1144 37.5832H16.4512C17.2638 37.5832 17.9207 38.2472 17.9207 39.0527Z" fill="#ADB9CA"/>
<path d="M17.922 33.2596V33.2665C17.922 33.934 17.3825 34.4738 16.7149 34.4738H9.85088C9.18345 34.4738 8.64362 33.934 8.64362 33.2665V33.2596C8.64362 32.5922 9.18345 32.0454 9.85088 32.0454H16.7149C17.3825 32.0454 17.922 32.5922 17.922 33.2596Z" fill="#ADB9CA"/>
<path d="M31.7663 40.0116V40.0186C31.7663 40.686 31.2268 41.2258 30.5592 41.2258H23.6952C23.0277 41.2258 22.4879 40.686 22.4879 40.0186V40.0116C22.4879 39.3442 23.0277 38.7974 23.6952 38.7974H30.5592C31.2268 38.7974 31.7663 39.3442 31.7663 40.0116Z" fill="#ADB9CA"/>
<path d="M43.5889 40.0116V40.0186C43.5889 40.686 43.0494 41.2258 42.3818 41.2258H35.5178C34.8503 41.2258 34.3105 40.686 34.3105 40.0186V40.0116C34.3105 39.3442 34.8503 38.7974 35.5178 38.7974H42.3818C43.0494 38.7974 43.5889 39.3442 43.5889 40.0116Z" fill="#ADB9CA"/>
<path d="M51.8938 40.0116V40.0186C51.8938 40.686 51.3543 41.2258 50.6867 41.2258H47.3404C46.673 41.2258 46.1331 40.686 46.1331 40.0186V40.0116C46.1331 39.3442 46.673 38.7974 47.3404 38.7974H50.6867C51.3543 38.7974 51.8938 39.3442 51.8938 40.0116Z" fill="#ADB9CA"/>
<path d="M28.2485 45.6446V45.6516C28.2485 46.319 27.709 46.8588 27.0414 46.8588H23.6952C23.0277 46.8588 22.4879 46.319 22.4879 45.6516V45.6446C22.4879 44.9772 23.0277 44.4304 23.6952 44.4304H27.0414C27.709 44.4304 28.2485 44.9772 28.2485 45.6446Z" fill="#ADB9CA"/>
<path d="M36.5178 45.6446V45.6516C36.5178 46.319 35.9783 46.8588 35.3107 46.8588H31.9644C31.297 46.8588 30.7572 46.319 30.7572 45.6516V45.6446C30.7572 44.9772 31.297 44.4304 31.9644 44.4304H35.3107C35.9783 44.4304 36.5178 44.9772 36.5178 45.6446Z" fill="#ADB9CA"/>
<path d="M44.7871 45.6446V45.6516C44.7871 46.319 44.2476 46.8588 43.58 46.8588H40.2337C39.5663 46.8588 39.0264 46.319 39.0264 45.6516V45.6446C39.0264 44.9772 39.5663 44.4304 40.2337 44.4304H43.58C44.2476 44.4304 44.7871 44.9772 44.7871 45.6446Z" fill="#ADB9CA"/>
<path d="M30.5358 35.707L30.5365 35.7077C30.5275 35.7251 30.5185 35.7425 30.5095 35.7599C30.5184 35.7426 30.5269 35.7243 30.5358 35.707Z" fill="#079CFF"/>
<path d="M35.6903 40.8615C35.6734 40.8702 35.6556 40.8785 35.6388 40.8872C35.6558 40.8784 35.6726 40.8696 35.6896 40.8608L35.6903 40.8615Z" fill="#079CFF"/>
<path d="M35.6896 40.8608L30.5365 35.7078C37.0034 23.2121 45.9693 16.4229 52.7081 15.8711C54.3207 15.7404 55.6573 17.077 55.5265 18.6896C54.9748 25.4283 48.1854 34.3941 35.6896 40.8608Z" fill="#079CFF"/>
<path d="M35.6903 40.8615C34.0864 41.6925 32.3895 42.4828 30.5968 43.2237L28.6588 41.2857C30.4515 40.5448 32.1485 39.7545 33.7523 38.9235C46.2461 32.4559 53.0364 23.4925 53.5885 16.7515C53.6117 16.4669 53.5885 16.1937 53.5274 15.9351C54.7479 16.2198 55.634 17.3618 55.5266 18.6896C54.9744 25.4304 48.1841 34.3939 35.6903 40.8615Z" fill="#005EEE"/>
<path d="M23.2486 57.0975C21.482 57.8239 19.5789 58.2191 17.6671 58.2364H9.6158C9.26432 58.2393 8.95042 58.0999 8.72378 57.8733C8.41003 57.5595 8.25894 57.0713 8.42742 56.5832C8.60752 56.0602 9.13061 55.7406 9.68256 55.7407L10.5775 55.7407C12.0245 55.7406 13.2391 54.5842 13.2304 53.1344C13.2245 52.2512 13.3291 51.3562 13.5383 50.4962C16.4118 38.7899 28.1736 40.8005 28.1736 40.8005L30.5968 43.2237C30.5968 43.2237 32.3459 53.3466 23.2486 57.0975Z" fill="#FFD80C"/>
<path d="M23.2486 57.0975C21.482 57.8239 19.5789 58.2191 17.6671 58.2364H9.6158C9.26432 58.2393 8.95042 58.0999 8.72378 57.8732C8.41003 57.5595 8.25894 57.0713 8.42742 56.5832C8.60752 56.0602 9.13061 55.7406 9.68256 55.7406L10.5775 55.7406C11.2575 55.7405 11.8822 55.4878 12.3528 55.0695L14.5436 55.052C16.4555 55.0347 18.3586 54.7004 20.1252 53.974C27.8569 50.7867 27.7523 42.9941 27.5488 40.7278C27.9471 40.7598 28.1736 40.8005 28.1736 40.8005L30.5968 43.2237C30.5968 43.2237 32.3459 53.3466 23.2486 57.0975Z" fill="#FFBE00"/>
<path d="M35.6903 40.8615C34.0864 41.6925 32.3895 42.4828 30.5968 43.2237L28.1736 40.8005C28.9145 39.0078 29.7049 37.3109 30.5358 35.707L35.6903 40.8615Z" fill="#435E88"/>
<path d="M35.6903 40.8616C34.0864 41.6925 32.3895 42.4829 30.5968 43.2237L28.6588 41.2857C30.4515 40.5449 32.1485 39.7545 33.7523 38.9235L35.6903 40.8616Z" fill="#33527D"/>
</svg>
