<svg width="60" height="60" viewBox="0 0 60 60" fill="none" xmlns="http://www.w3.org/2000/svg">
<path d="M30 60C45.8566 60 58.7109 47.1457 58.7109 31.2891C58.7109 15.4324 45.8566 2.57812 30 2.57812C14.1434 2.57812 1.28906 15.4324 1.28906 31.2891C1.28906 47.1457 14.1434 60 30 60Z" fill="#445EA0"/>
<path d="M11.8029 49.4114C11.4806 49.4114 11.2169 49.1477 11.2169 48.8255V8.34924H7.34003C7.01776 8.34924 6.75409 8.61292 6.75409 8.93518V48.1398C8.32042 50.2969 10.1781 52.2286 12.2717 53.8744H44.6621C44.9844 53.8744 45.2481 53.6107 45.2481 53.2884V49.4115L11.8029 49.4114Z" fill="#FFAF10"/>
<path d="M8.98065 8.93518C8.98065 8.61292 9.24432 8.34924 9.56659 8.34924H7.34003C7.01776 8.34924 6.75409 8.61292 6.75409 8.93518V48.1398C7.44163 49.0867 8.18554 49.9901 8.98065 50.8451V8.93518Z" fill="#EF9614"/>
<path d="M15.6701 45.1929C15.3478 45.1929 15.0841 44.9292 15.0841 44.6069V4.21851H11.4707C11.1484 4.21851 10.8847 4.48218 10.8847 4.80444V49.1576C10.8847 49.4799 11.1484 49.7435 11.4707 49.7435H48.793C49.1153 49.7435 49.379 49.4799 49.379 49.1576V45.1929H15.6701Z" fill="#FF9518"/>
<path d="M12.9941 49.1576V4.80444C12.9941 4.48218 13.2578 4.21851 13.58 4.21851H11.4707C11.1484 4.21851 10.8847 4.48218 10.8847 4.80444V49.1576C10.8847 49.4799 11.1484 49.7435 11.4707 49.7435H13.58C13.2578 49.7435 12.9941 49.4799 12.9941 49.1576Z" fill="#EF8318"/>
<path d="M53.2459 44.9391C53.2459 45.2613 52.9822 45.525 52.66 45.525H15.3379C15.0156 45.525 14.7519 45.2613 14.7519 44.9391V0.585938C14.7519 0.263672 15.0156 0 15.3379 0H52.66C52.9822 0 53.2459 0.263672 53.2459 0.585938V44.9391Z" fill="#D9EAFC"/>
<path d="M17.0774 44.9391V0.585938C17.0774 0.263672 17.3411 0 17.6633 0H15.3377C15.0155 0 14.7518 0.263672 14.7518 0.585938V44.9391C14.7518 45.2613 15.0155 45.525 15.3377 45.525H17.6633C17.3411 45.525 17.0774 45.2613 17.0774 44.9391Z" fill="#C3DDF4"/>
<path d="M48.6433 5.95239H40.4917C40.0062 5.95239 39.6128 5.55899 39.6128 5.07349C39.6128 4.5881 40.0062 4.19458 40.4917 4.19458H48.6433C49.1289 4.19458 49.5223 4.5881 49.5223 5.07349C49.5223 5.55899 49.1287 5.95239 48.6433 5.95239Z" fill="#DB722C"/>
<path d="M48.6433 8.94055H40.4917C40.0062 8.94055 39.6128 8.54704 39.6128 8.06165C39.6128 7.57614 40.0062 7.18274 40.4917 7.18274H48.6433C49.1289 7.18274 49.5223 7.57614 49.5223 8.06165C49.5223 8.54704 49.1287 8.94055 48.6433 8.94055Z" fill="#DB722C"/>
<path d="M48.6433 11.9286H40.4917C40.0062 11.9286 39.6128 11.5351 39.6128 11.0497C39.6128 10.5643 40.0062 10.1708 40.4917 10.1708H48.6433C49.1289 10.1708 49.5223 10.5643 49.5223 11.0497C49.5223 11.5352 49.1287 11.9286 48.6433 11.9286Z" fill="#DB722C"/>
<path d="M48.6433 14.9167H40.4917C40.0062 14.9167 39.6128 14.5232 39.6128 14.0378C39.6128 13.5523 40.0062 13.1589 40.4917 13.1589H48.6433C49.1289 13.1589 49.5223 13.5523 49.5223 14.0378C49.5223 14.5232 49.1287 14.9167 48.6433 14.9167Z" fill="#DB722C"/>
<path d="M33.445 35.7751H19.7154C19.2299 35.7751 18.8365 35.3816 18.8365 34.8962C18.8365 34.4108 19.2299 34.0173 19.7154 34.0173H33.4448C33.9304 34.0173 34.3238 34.4108 34.3238 34.8962C34.3239 35.3816 33.9304 35.7751 33.445 35.7751Z" fill="#52BBEF"/>
<path d="M33.445 38.7632H19.7154C19.2299 38.7632 18.8365 38.3698 18.8365 37.8843C18.8365 37.3989 19.2299 37.0054 19.7154 37.0054H33.4448C33.9304 37.0054 34.3238 37.3989 34.3238 37.8843C34.3239 38.3698 33.9304 38.7632 33.445 38.7632Z" fill="#52BBEF"/>
<path d="M33.445 41.7513H19.7154C19.2299 41.7513 18.8365 41.3579 18.8365 40.8724C18.8365 40.387 19.2299 39.9935 19.7154 39.9935H33.4448C33.9304 39.9935 34.3238 40.387 34.3238 40.8724C34.3239 41.3578 33.9304 41.7513 33.445 41.7513Z" fill="#52BBEF"/>
<path d="M48.6434 20.1314H36.1357C35.6502 20.1314 35.2568 19.7379 35.2568 19.2525C35.2568 18.7671 35.6502 18.3736 36.1357 18.3736H48.6434C49.1289 18.3736 49.5223 18.7671 49.5223 19.2525C49.5223 19.7379 49.1288 20.1314 48.6434 20.1314Z" fill="#FE3745"/>
<path d="M48.6434 23.1196H36.1357C35.6502 23.1196 35.2568 22.7261 35.2568 22.2407C35.2568 21.7553 35.6502 21.3618 36.1357 21.3618H48.6434C49.1289 21.3618 49.5223 21.7553 49.5223 22.2407C49.5223 22.7261 49.1288 23.1196 48.6434 23.1196Z" fill="#FE3745"/>
<path d="M48.6434 26.1076H36.1357C35.6502 26.1076 35.2568 25.714 35.2568 25.2287C35.2568 24.7432 35.6502 24.3498 36.1357 24.3498H48.6434C49.1289 24.3498 49.5223 24.7432 49.5223 25.2287C49.5223 25.714 49.1288 26.1076 48.6434 26.1076Z" fill="#FE3745"/>
<path d="M48.6434 29.0956H36.1357C35.6502 29.0956 35.2568 28.7021 35.2568 28.2167C35.2568 27.7313 35.6502 27.3378 36.1357 27.3378H48.6434C49.1289 27.3378 49.5223 27.7313 49.5223 28.2167C49.5223 28.7021 49.1288 29.0956 48.6434 29.0956Z" fill="#FE3745"/>
<path d="M18.1371 25.2838H21.5639C21.5639 23.3912 23.098 21.8569 24.9906 21.8569V18.4303C21.2058 18.4303 18.1371 21.4986 18.1371 25.2838Z" fill="#FE3745"/>
<path d="M26.7286 16.6924V20.1191C28.6212 20.1191 30.1553 21.6532 30.1553 23.5458H33.5822C33.5822 19.7606 30.5136 16.6924 26.7286 16.6924Z" fill="#91E0E8"/>
<path d="M28.4173 25.2838C28.4173 27.1762 26.8833 28.7105 24.9907 28.7105C23.0981 28.7105 21.564 27.1762 21.564 25.2838H18.1371C18.1371 29.0687 21.2058 32.1373 24.9906 32.1373C28.7756 32.1373 31.8442 29.0687 31.8442 25.2838H28.4173Z" fill="#FFAF10"/>
<path d="M22.0733 13.4911V5.30743C22.0733 5.11407 21.9151 4.95587 21.7218 4.95587H19.5911C19.3977 4.95587 19.2395 5.11407 19.2395 5.30743V13.4911H22.0733Z" fill="#FFAF10"/>
<path d="M26.6573 13.4911V7.534C26.6573 7.34064 26.4991 7.18243 26.3058 7.18243H24.1752C23.9818 7.18243 23.8236 7.34064 23.8236 7.534V13.4911H26.6573Z" fill="#FE3745"/>
<path d="M31.2412 13.4911V10.2293C31.2412 10.0359 31.083 9.87775 30.8897 9.87775H28.7591C28.5657 9.87775 28.4075 10.0359 28.4075 10.2293V13.4911H31.2412Z" fill="#37C47A"/>
<path d="M35.8253 13.4911V5.30743C35.8253 5.11407 35.6671 4.95587 35.4737 4.95587H33.343C33.1497 4.95587 32.9915 5.11407 32.9915 5.30743V13.4911H35.8253Z" fill="#91E0E8"/>
<path d="M44.4834 37.4658C44.4834 37.2719 44.6412 37.1142 44.835 37.1142H46.4242V33.1814C46.4242 32.8591 46.1605 32.5955 45.8382 32.5955H40.5506C40.2284 32.5955 39.9647 32.8591 39.9647 33.1814V38.469C39.9647 38.7913 40.2284 39.055 40.5506 39.055H44.4834V37.4658Z" fill="#FE3745"/>
<path d="M48.6433 40.6882C48.6433 41.0104 48.3797 41.2741 48.0574 41.2741H44.835C44.5127 41.2741 44.2491 41.0104 44.2491 40.6882V37.4658C44.2491 37.1435 44.5127 36.8798 44.835 36.8798H48.0574C48.3797 36.8798 48.6433 37.1435 48.6433 37.4658V40.6882Z" fill="#37C47A"/>
<path d="M36.4311 14.9168H18.6338C18.1483 14.9168 17.7549 14.5233 17.7549 14.0379C17.7549 13.5524 18.1483 13.159 18.6338 13.159H36.4311C36.9166 13.159 37.31 13.5524 37.31 14.0379C37.31 14.5233 36.9166 14.9168 36.4311 14.9168Z" fill="#52BBEF"/>
</svg>
