<svg width="60" height="60" viewBox="0 0 60 60" fill="none" xmlns="http://www.w3.org/2000/svg">
<path d="M58.2181 44.243L58.2061 48.5988C58.2061 48.7066 58.182 48.815 58.1461 48.8871C58.11 48.9709 58.0621 49.0307 57.9901 49.067L55.482 50.5307C55.482 50.5189 55.494 50.5066 55.494 50.5066C55.3621 50.6027 55.17 50.591 54.966 50.4709L45.666 45.1066L45.654 46.067C45.654 46.2949 45.498 46.5352 45.186 46.7268L41.3341 48.9586C40.698 49.3189 39.678 49.3189 39.054 48.9586L34.8901 46.5586L27.066 51.1066L22.8901 57.0949L18.5461 56.0625L16.3021 57.3709L10.9021 54.2508L3.89404 52.5949L5.08203 50.891L1.77002 48.9826L9.61807 44.4106L13.8181 38.4229L18.1621 39.443L20.4061 38.1469L25.77 41.243L28.1341 41.8066V41.2066C28.1341 40.967 28.2901 40.7268 28.6021 40.5469L31.854 38.6625V37.1268L28.41 35.1469C27.9901 36.0709 27.3781 36.7787 26.61 37.2229L25.3621 37.943C25.422 37.8949 25.494 37.8352 25.554 37.7871C24.0061 38.9625 21.714 38.9508 19.1581 37.4748C16.95 36.2027 14.9581 34.067 13.4581 31.6066L7.47002 35.0625L6.39006 37.3189L2.11807 39.791L3.48601 36.9229L2.10605 35.6625L6.37805 33.191L7.47002 34.1748L13.0741 30.9469C11.6341 28.3787 10.7461 25.5105 10.7581 22.9189C10.77 20.2307 11.7301 18.3469 13.2781 17.4826L14.67 16.667C16.194 15.7787 18.3181 15.8988 20.67 17.2547C20.814 17.3391 20.9581 17.4469 21.114 17.5307L21.15 3.76699C21.15 3.32285 21.294 3.01055 21.5341 2.83067L21.5581 2.80664C21.594 2.78262 21.6301 2.7709 21.666 2.74688L24.0901 1.30664C24.366 1.13907 24.7621 1.1625 25.194 1.41504L56.694 19.6066C57.5461 20.0988 58.2301 21.2988 58.2301 22.2949L58.182 44.243H58.2181Z" fill="#E4E8F4"/>
<path d="M44.5986 58.8006L51.9186 54.5467L51.9202 53.9959L51.9186 53.9947L51.9202 53.4492L51.9186 53.448L51.9202 52.9025L51.9186 52.902L51.9202 52.3559L44.5523 48.102L37.2323 52.3559L37.2308 52.9066L37.2323 52.9078L37.2308 53.4533L37.2323 53.4545L37.2308 54L37.2323 54.0012L37.2308 54.5467L44.5986 58.8006Z" fill="#E4E8F4"/>
<path d="M45.6625 45.0059L45.656 46.0628C45.656 46.2961 45.5004 46.5361 45.1826 46.7242L41.3375 48.961C40.7021 49.3245 39.6775 49.3245 39.0486 48.961L28.6089 42.9375C28.2912 42.7494 28.1291 42.5094 28.1291 42.2631L28.1356 41.2059C28.1356 41.4526 28.2912 41.6922 28.6089 41.8803L39.0486 47.9042C39.684 48.2673 40.7085 48.2673 41.3375 47.9042L45.1891 45.6673C45.5069 45.4793 45.6625 45.2393 45.6625 45.0059Z" fill="#474B59"/>
<path d="M45.1855 44.3375C45.819 44.7032 45.8222 45.296 45.1889 45.664L41.3389 47.9014C40.7056 48.2694 39.6822 48.2695 39.0488 47.9038L28.6119 41.8781C27.9785 41.5124 27.9711 40.9171 28.6044 40.5491L32.4544 38.3117C33.0877 37.9437 34.1153 37.946 34.7487 38.3117L45.1855 44.3375Z" fill="#5B5E71"/>
<path d="M42.1818 38.571L42.1796 45.1962L40.7463 46.0291L40.7486 39.4039L42.1818 38.571Z" fill="#BAC1CE"/>
<path d="M40.7486 39.4039L40.7463 46.0291L31.8529 40.8944L31.8551 34.2692L40.7486 39.4039Z" fill="#D4DAE8"/>
<path d="M42.1818 38.571L40.7486 39.4039L31.8552 34.2692L33.2884 33.4363L42.1818 38.571Z" fill="#E4E8F4"/>
<path d="M55.6965 45.7059L55.6842 50.0602C55.6839 50.1738 55.6684 50.2787 55.6301 50.3524C55.523 50.5879 55.2641 50.6481 54.9604 50.4727L21.7954 31.3249C21.4993 31.1539 21.2416 30.7955 21.1362 30.4373C21.0984 30.3197 21.076 30.193 21.0763 30.0793L21.0886 25.725L55.6965 45.7059Z" fill="#E4E8F4"/>
<path d="M58.2139 44.2469L58.2021 48.6006C58.2021 48.7075 58.1783 48.815 58.1426 48.8864C58.1069 48.9694 58.0593 49.0287 57.9879 49.0647L55.4781 50.5277C55.5376 50.4917 55.5971 50.4325 55.6328 50.3494C55.6685 50.278 55.6803 50.1711 55.6803 50.0637L55.6923 45.7106L58.2139 44.2469Z" fill="#BAC1CE"/>
<path d="M54.4991 22.6905L54.44 43.5208L22.3611 25L22.4201 4.16969L54.4991 22.6905Z" fill="#E4E8F4"/>
<path d="M58.2357 22.2891L58.1761 44.2469L55.6544 45.7106L55.7258 23.7522C55.7258 22.7654 55.0359 21.5637 54.1795 21.0642L22.6701 2.87696C22.2419 2.62721 21.7835 2.68056 21.498 2.84725L24.0856 1.30705C24.371 1.14036 24.7636 1.16417 25.1918 1.41391L56.6893 19.6012C57.5457 20.1007 58.2357 21.3018 58.2357 22.2891Z" fill="#3F434F"/>
<path d="M54.2146 21.0661C55.0727 21.5616 55.7616 22.7635 55.7588 23.7497L55.6965 45.7059L21.0886 25.725L21.1509 3.76886C21.1537 2.78266 21.8547 2.38309 22.7128 2.87854L54.2146 21.0661ZM54.44 43.5208L54.499 22.6905L22.4201 4.16969L22.361 25L54.44 43.5208Z" fill="#525566"/>
<path d="M36.3046 35.7144C36.973 36.1003 37.5 37.0244 37.4978 37.7813C37.4957 38.5493 36.9652 38.8517 36.2968 38.4658C35.6384 38.0857 35.1014 37.167 35.1036 36.399C35.1057 35.6421 35.6462 35.3343 36.3046 35.7144Z" fill="#BAC1CE"/>
<path d="M32.8083 42.9127L22.8851 57.0893L3.89197 52.5975L13.8155 38.4207L32.8083 42.9127Z" fill="#CAD0DD"/>
<path d="M34.9359 46.5398L16.2997 57.3701L1.76428 48.9781L20.4006 38.1478L34.9359 46.5398Z" fill="#E4E8F4"/>
<path d="M10.2262 49.4426L10.2265 49.6023L10.2267 49.8333L10.1136 49.8337L10.1115 49.5992L10.1106 49.5098L10.068 49.5108L9.02661 49.5345L8.84574 49.5387L8.84496 49.5199L8.841 49.4273L8.81773 48.9066L8.81392 48.819L8.81247 48.7859L8.80797 48.6878L8.78653 48.1993L8.78242 48.1118L7.81029 48.1118L7.53437 48.1117L6.56223 48.1117L6.37422 48.1118L6.37381 48.0029L6.37047 47.4335L6.37024 47.4015L6.47524 47.4047L6.47575 47.4368L6.48389 48.0031L6.48445 48.0477L6.56177 48.0478L7.53391 48.0477L7.79892 48.0478L8.78227 48.0477L8.89264 48.0478L8.89645 48.1354L8.92388 48.7547L8.92838 48.8528L8.95517 49.4559L8.95597 49.4747L9.08292 49.4715L9.96154 49.4493L10.1202 49.4454L10.2262 49.4426Z" fill="#ED435C"/>
<path d="M8.44525 49.8421L8.34491 49.8426L8.34527 49.8103L8.84499 49.5199L8.84578 49.5387L9.02664 49.5345L9.54913 49.8362L10.0886 49.5227L10.0681 49.5108L10.1107 49.5098L10.1115 49.5992L9.70438 49.8358L9.39645 49.8373L8.92346 49.5642L8.44525 49.8421Z" fill="#CAD0DD"/>
<path d="M14.879 49.7818L14.6752 49.9001L8.3136 46.2272L8.51731 46.1089L14.879 49.7818Z" fill="#CAD0DD"/>
<path d="M12.6386 50.2952L12.439 50.3214L12.0398 50.5558L11.8141 50.4257L11.6839 50.4431L11.9617 50.6079L11.736 50.738L11.9182 50.7207L12.0398 50.6512L12.1265 50.7033L12.2654 50.6859L12.1179 50.599L12.6386 50.2952ZM12.6386 50.2952L12.439 50.3214L12.0398 50.5558L11.8141 50.4257L11.6839 50.4431L11.9617 50.6079L11.736 50.738L11.9182 50.7207L12.0398 50.6512L12.1265 50.7033L12.2654 50.6859L12.1179 50.599L12.6386 50.2952ZM12.6386 50.2952L12.439 50.3214L12.0398 50.5558L11.8141 50.4257L11.6839 50.4431L11.9617 50.6079L11.736 50.738L11.9182 50.7207L12.0398 50.6512L12.1265 50.7033L12.2654 50.6859L12.1179 50.599L12.6386 50.2952ZM12.6386 50.2952L12.439 50.3214L12.0398 50.5558L11.8141 50.4257L11.6839 50.4431L11.9617 50.6079L11.736 50.738L11.9182 50.7207L12.0398 50.6512L12.1265 50.7033L12.2654 50.6859L12.1179 50.599L12.6386 50.2952ZM12.6386 50.2952L12.439 50.3214L12.0398 50.5558L11.8141 50.4257L11.6839 50.4431L11.9617 50.6079L11.736 50.738L11.9182 50.7207L12.0398 50.6512L12.1265 50.7033L12.2654 50.6859L12.1179 50.599L12.6386 50.2952ZM13.9839 50.2435L13.9059 50.1913L13.359 49.879L13.2809 49.8353L12.7341 49.523L12.656 49.4709L12.1092 49.1585L12.0311 49.1149L11.4843 48.8025L11.4062 48.7504L10.8594 48.4381L10.7812 48.3944L10.2431 48.0821L10.165 48.0389L9.61822 47.7176L9.54008 47.6744L8.98459 47.3531L8.9065 47.3095L8.36838 46.9972L8.29025 46.9539L7.66535 46.5895L7.04041 46.9539L6.96232 46.9972L6.42421 47.3095L6.34607 47.3616L5.79926 47.6744L5.72981 47.7176L5.183 48.0389L5.10492 48.0821L4.54942 48.4033H4.70565L5.183 48.1253L5.6691 48.4033H5.86002L5.85134 48.5161L6.35476 48.8025L5.85134 49.0975L5.83396 49.1064H5.97286L6.42421 48.8458L6.89287 49.1149H7.0491L6.50229 48.8025L7.0491 48.4813L7.5959 48.8025L7.05779 49.1149H7.20532L7.67404 48.8458L8.16009 49.1238H8.35101V49.2365L8.84574 49.523L8.83705 49.4272L8.37707 49.1585L8.81968 48.9068L8.81104 48.8199L8.29893 49.1149L7.75213 48.8025L8.29025 48.4902L8.81104 48.7852V48.6898L8.37707 48.4381L8.78498 48.2037V48.1084L8.29893 48.3944L7.81289 48.1084H7.53514L7.0491 48.3944L6.56305 48.1084H6.37213V48.0041L5.8774 47.7176L6.37213 47.4311V47.4053H6.47628V47.4396L6.97101 47.7176L6.48492 48.0041V48.0473H6.56305L7.0491 47.7697L7.53514 48.0473H7.79551L8.29025 47.7608L8.78498 48.0473H8.88913L8.89782 48.1342L8.91519 48.1253L9.462 48.4381L8.92388 48.7504L8.93251 48.8547L9.462 49.1585L8.95858 49.4535V49.4709H9.0801L9.54008 49.2018L9.96537 49.4535L10.1216 49.445L9.61822 49.1585L10.165 48.8458L10.7118 49.1585L10.2258 49.445V49.601L10.625 49.8353L10.7899 49.8264L10.2518 49.523L10.7899 49.2018L11.328 49.523L10.7986 49.8264H10.8941V49.8612L11.4062 49.5662L11.9617 49.879L11.4149 50.1913L10.8941 49.8875L10.8854 49.9828L11.3367 50.2435L10.8681 50.5121L11.085 50.4774L11.4149 50.2867L11.5971 50.3994L11.7273 50.3736L11.4929 50.2435L12.0311 49.9222L12.5779 50.2346H12.6126L12.6386 50.2952L12.6647 50.2867L13.2028 50.599L13.2375 50.5906L13.2549 50.6512L13.2809 50.6427L13.8277 50.9639L13.2896 51.2763L12.7428 50.955L13.2549 50.6512L13.0813 50.6685L12.6647 50.9114L12.3609 50.738L12.222 50.7554L12.5866 50.9639L12.0398 51.2763L11.5016 50.9639L11.7881 50.7986L11.6058 50.816L11.4235 50.9203L11.2933 50.8423L11.1544 50.8508L11.3454 50.9639L10.7986 51.2763L10.2518 50.9639L10.2952 50.9376L10.1216 50.955V50.8855L9.62691 50.599L10.1216 50.313L10.113 50.1651L9.66161 49.9048H9.43593L8.92388 50.1998L8.42046 49.9048H8.23817V49.8006L7.76082 49.523L8.23817 49.245V49.1933H8.17741L7.68268 49.4794L7.17062 49.1844L6.94495 49.1755L6.43284 49.4709L5.9121 49.1755L5.71249 49.167L5.19169 49.4709L4.64488 49.1585L5.19169 48.8458L5.71249 49.1496L5.72118 49.0628L5.26983 48.8025L5.74719 48.5245V48.4728H5.67774L5.19169 48.7593L4.68832 48.4639H4.54942V48.4033L4.48866 48.4381L3.86377 48.8025L4.48866 49.1585L4.5668 49.2018L5.11361 49.523L5.19169 49.5662L5.7385 49.879L5.81664 49.9222L6.36344 50.2435L6.44153 50.2867L6.98834 50.599L7.06647 50.6427L7.61328 50.9639L7.69137 51.0071L8.22948 51.3195L8.30762 51.3631L8.85443 51.684L8.93251 51.7276L9.48801 52.0399L9.55746 52.0921L10.1043 52.4044L10.1824 52.4481L10.8073 52.8125L11.4322 52.4481L11.5103 52.4044L12.0484 52.0921L12.1265 52.0399L12.6733 51.7276L12.7428 51.684L13.2896 51.3716L13.3677 51.3195L13.9059 51.0071L13.9839 50.9639L14.6089 50.599L13.9839 50.2435ZM7.66535 48.1253L8.21216 48.4381L7.67404 48.7504L7.12724 48.4381L7.66535 48.1253ZM6.43284 48.1253L6.97101 48.4381L6.42421 48.7593L5.88609 48.4381L6.43284 48.1253ZM6.35476 48.0821L5.80795 48.3944L5.26114 48.0821L5.79926 47.7608L6.35476 48.0821ZM4.01999 48.8025L4.5668 48.4813L5.11361 48.8025L4.5668 49.1149L4.01999 48.8025ZM11.4235 51.0071L11.9617 51.3195L11.4235 51.6407L10.8767 51.3284L11.4235 51.0071ZM11.3454 51.684L10.8073 51.9963L10.2605 51.684L10.7986 51.3716L11.3454 51.684ZM10.1737 51.0071L10.7205 51.3284L10.1824 51.6407L9.63554 51.3195L10.1737 51.0071ZM10.0956 50.9639L9.55746 51.2763L9.01065 50.955L9.54877 50.6427L10.0956 50.9639ZM9.54877 49.9222L10.0956 50.2435L9.54877 50.5558L9.00196 50.2435L9.54877 49.9222ZM9.47063 50.599L8.93251 50.9114L8.38571 50.599L8.92388 50.2867L9.47063 50.599ZM8.29893 49.9222L8.84574 50.2435L8.30762 50.5558L7.76082 50.2435L8.29893 49.9222ZM8.2208 49.879L7.68268 50.1913L7.14456 49.879L7.68268 49.5662L8.2208 49.879ZM7.05779 49.2018L7.60459 49.523L7.06647 49.8353L6.51098 49.523L7.05779 49.2018ZM5.26983 49.523L5.80795 49.2018L6.36344 49.523L5.81664 49.8353L5.26983 49.523ZM5.89472 49.879L6.44153 49.5662L6.98834 49.879L6.44153 50.1998L5.89472 49.879ZM7.05779 50.5558L6.51967 50.2435L7.06647 49.9222L7.60459 50.2435L7.05779 50.5558ZM7.13587 50.599L7.68268 50.2867L8.22948 50.599L7.69137 50.9203L7.13587 50.599ZM7.7695 50.9639L8.30762 50.6427L8.85443 50.955L8.30762 51.2763L7.7695 50.9639ZM8.38571 51.3195L8.93251 51.0071L9.47932 51.3195L8.93251 51.6407L8.38571 51.3195ZM9.01065 51.684L9.55746 51.3631L10.1043 51.684L9.55746 51.9963L9.01065 51.684ZM9.63554 52.0399L10.1824 51.7276L10.7292 52.0399L10.1824 52.3612L9.63554 52.0399ZM10.8073 52.7168L10.2605 52.4044L10.8073 52.0832L11.3541 52.4044L10.8073 52.7168ZM11.4322 52.3612L10.8854 52.0399L11.4235 51.7276L11.9703 52.0399L11.4322 52.3612ZM12.0484 51.9963L11.5016 51.684L12.0398 51.3631L12.5953 51.684L12.0484 51.9963ZM12.6647 51.6407L12.1179 51.3195L12.656 51.0071L13.2115 51.3284L12.6647 51.6407ZM7.66535 46.6848L8.21216 46.9972L7.66535 47.3184L7.11855 46.9972L7.66535 46.6848ZM6.50229 47.3531L7.04041 47.0404L7.58722 47.3616L7.0491 47.6744L6.50229 47.3531ZM7.67404 48.03L7.12724 47.7176L7.66535 47.4053L8.21216 47.7176L7.67404 48.03ZM7.74344 47.3616L8.29025 47.0404L8.83705 47.3531L8.29025 47.6744L7.74344 47.3616ZM8.36838 47.7176L8.91519 47.4053L9.462 47.7176L8.91519 48.0389L8.36838 47.7176ZM8.99328 48.0821L9.54008 47.7608L10.0869 48.0821L9.54008 48.3944L8.99328 48.0821ZM9.54877 49.1149L9.00196 48.8025L9.54008 48.4902L10.0869 48.8025L9.54877 49.1149ZM9.61822 48.4381L10.165 48.1253L10.7031 48.4381L10.165 48.7593L9.61822 48.4381ZM10.2431 48.8025L10.7812 48.4813L11.3367 48.8025L10.7899 49.1149L10.2431 48.8025ZM10.8681 49.1585L11.4062 48.8458L11.953 49.1585L11.4062 49.4709L10.8681 49.1585ZM11.4843 49.523L12.0311 49.2018L12.5779 49.523L12.0311 49.8353L11.4843 49.523ZM12.1092 49.879L12.656 49.5662L13.2028 49.879L12.6647 50.1998L12.1092 49.879ZM12.7341 50.2435L13.2809 49.9222L13.8277 50.2435L13.2809 50.5558L12.7341 50.2435ZM13.9059 50.9203L13.359 50.599L13.9059 50.2867L14.4527 50.599L13.9059 50.9203ZM12.0398 50.5558L11.8141 50.4257L11.6839 50.4431L11.9617 50.6079L11.736 50.738L11.9182 50.7207L12.0398 50.6512L12.1265 50.7033L12.2654 50.6859L12.1179 50.599L12.6386 50.2952L12.439 50.3214L12.0398 50.5558ZM12.6386 50.2952L12.439 50.3214L12.0398 50.5558L11.8141 50.4257L11.6839 50.4431L11.9617 50.6079L11.736 50.738L11.9182 50.7207L12.0398 50.6512L12.1265 50.7033L12.2654 50.6859L12.1179 50.599L12.6386 50.2952ZM12.6386 50.2952L12.439 50.3214L12.0398 50.5558L11.8141 50.4257L11.6839 50.4431L11.9617 50.6079L11.736 50.738L11.9182 50.7207L12.0398 50.6512L12.1265 50.7033L12.2654 50.6859L12.1179 50.599L12.6386 50.2952ZM12.6386 50.2952L12.439 50.3214L12.0398 50.5558L11.8141 50.4257L11.6839 50.4431L11.9617 50.6079L11.736 50.738L11.9182 50.7207L12.0398 50.6512L12.1265 50.7033L12.2654 50.6859L12.1179 50.599L12.6386 50.2952ZM12.6386 50.2952L12.439 50.3214L12.0398 50.5558L11.8141 50.4257L11.6839 50.4431L11.9617 50.6079L11.736 50.738L11.9182 50.7207L12.0398 50.6512L12.1265 50.7033L12.2654 50.6859L12.1179 50.599L12.6386 50.2952Z" fill="#CAD0DD"/>
<path d="M12.6111 50.233L12.6391 50.2938L12.4413 50.3253L11.817 50.4251L11.6873 50.4457L10.9333 50.5661L10.7352 50.5978L10.7403 50.5239L10.779 49.9303L10.7812 49.897L10.6811 49.8973L10.227 49.8991L10.1143 49.8995L9.66172 49.9012L9.43563 49.9021L8.42145 49.9059L8.23468 49.9067L8.23593 49.7988L8.24128 49.2416L8.24175 49.19L8.17624 49.1895L7.16725 49.1818L6.9443 49.18L5.91333 49.1724L5.71206 49.1707L5.71308 49.146L5.71736 49.0592L5.74398 48.523L5.74654 48.4702L5.68104 48.4697L4.68725 48.4645L4.5535 48.4637L4.54767 48.4029L4.70171 48.4033L5.66827 48.4056L5.85676 48.4061L5.85327 48.5124L5.83333 49.1002L5.97483 49.1079L6.89669 49.1148L7.0534 49.116L7.20707 49.1172L8.16176 49.1244L8.35197 49.1259L8.35101 49.2337L8.34526 49.8103L8.3449 49.8426L8.44525 49.8421L9.39643 49.8373L9.70437 49.8358L10.1137 49.8337L10.2268 49.8333L10.6229 49.8312L10.7871 49.8304L10.8968 49.8298L10.8946 49.8631L10.8929 49.8916L10.8876 49.984L10.8564 50.5145L11.0853 50.4777L11.5998 50.3952L11.7294 50.3745L12.5768 50.2384L12.6111 50.233Z" fill="#6EBA6E"/>
<path d="M10.7189 50.6008L10.2279 50.3173L10.2274 50.161L10.6811 49.8973L10.7812 49.8969L10.779 49.9303L10.2473 50.2393L10.7402 50.5239L10.7352 50.5978L10.9333 50.5661L10.8735 50.6008L11.1969 50.7875L11.0641 50.8001L10.7965 50.6456L10.4267 50.8605L10.2419 50.878L10.7189 50.6008Z" fill="#CAD0DD"/>
<path d="M13.2373 50.5946L13.2544 50.6553L13.0826 50.6716L12.3626 50.7401L12.2205 50.7535L11.7883 50.7947L11.6035 50.8122L11.291 50.8418L11.1583 50.8545L10.2959 50.9365L10.1241 50.9529L10.1237 50.8887L10.118 50.3144L10.1169 50.1639L10.1143 49.8995L10.227 49.8991L10.2274 50.161L10.2279 50.3173L10.2286 50.8793L10.2419 50.878L10.4267 50.8605L11.0641 50.8001L11.197 50.7875L11.7331 50.7368L11.9179 50.7193L12.127 50.6996L12.2692 50.6862L13.1996 50.598L13.2373 50.5946Z" fill="#ED435C"/>
<path d="M22.3466 52.7413L22.1429 52.8597L9.48059 45.5491L9.6843 45.4307L22.3466 52.7413Z" fill="#CAD0DD"/>
<path d="M21.763 53.0805L21.5593 53.1988L8.89697 45.8882L9.10068 45.7699L21.763 53.0805Z" fill="#CAD0DD"/>
<path d="M13.2281 52.8917L12.4025 53.3715L12.3028 53.3139L13.1284 52.8342L13.2281 52.8917Z" fill="#F9BB4A"/>
<path d="M14.3645 52.6101L12.7295 53.5603L12.6298 53.5027L14.2648 52.5525L14.3645 52.6101Z" fill="#F9BB4A"/>
<path d="M16.5709 52.0919L13.3889 53.941L13.2836 53.8802L16.4656 52.0311L16.5709 52.0919Z" fill="#F9BB4A"/>
<path d="M15.55 54.2323L14.7244 54.7121L14.6191 54.6513L15.4447 54.1715L15.55 54.2323Z" fill="#8FACFC"/>
<path d="M16.6864 53.9506L15.0514 54.9008L14.9461 54.84L16.5811 53.8899L16.6864 53.9506Z" fill="#8FACFC"/>
<path d="M15.2772 50.9639L11.4322 53.1944L16.5704 56.1627L20.4154 53.9322L15.2772 50.9639ZM16.5618 55.9804L11.7533 53.2029L15.2859 51.1462L20.1029 53.9233L16.5618 55.9804Z" fill="#CAD0DD"/>
<path d="M15.7873 52.1685L13.062 53.7522L12.9567 53.6915L15.682 52.1077L15.7873 52.1685Z" fill="#F9BB4A"/>
<path d="M15.9895 52.8085L13.7159 54.1298L13.6161 54.0722L15.8898 52.7509L15.9895 52.8085Z" fill="#F9BB4A"/>
<path d="M15.5844 53.4227L14.0429 54.3185L13.9431 54.2609L15.4847 53.3651L15.5844 53.4227Z" fill="#F9BB4A"/>
<path d="M18.1036 53.5058L15.3783 55.0896L15.2786 55.032L18.0038 53.4482L18.1036 53.5058Z" fill="#8FACFC"/>
<path d="M18.8872 53.4292L15.7053 55.2784L15.6055 55.2208L18.7875 53.3716L18.8872 53.4292Z" fill="#8FACFC"/>
<path d="M18.3114 54.149L16.0378 55.4703L15.9325 55.4095L18.2061 54.0882L18.3114 54.149Z" fill="#8FACFC"/>
<path d="M17.9063 54.7632L16.3647 55.6591L16.2595 55.5983L17.801 54.7024L17.9063 54.7632Z" fill="#8FACFC"/>
<path d="M24.4253 48.3561C23.6227 48.7355 22.6381 48.9669 21.6087 49.0211L21.6006 47.5536C21.9621 47.5176 22.3111 47.4381 22.6286 47.3188L24.4253 48.3561Z" fill="#DDAF9B"/>
<path d="M26.3727 46.2164C26.2829 46.885 25.8185 47.5175 25.0474 48.0164L23.2632 46.9863C23.5678 46.7658 23.7723 46.5019 23.8454 46.2201L26.3727 46.2164Z" fill="#ED435C"/>
<path d="M20.7632 42.9129L20.7715 44.373C19.3741 44.4599 18.3046 45.1394 18.3095 45.9706C18.318 46.4008 18.6074 46.8055 19.1333 47.1091C19.584 47.3694 20.1651 47.5321 20.7895 47.5681L20.7974 49.0284C19.4994 48.985 18.2933 48.6706 17.3668 48.1357C16.3652 47.5574 15.8056 46.7875 15.8011 45.9706C15.792 44.3513 17.9931 43.007 20.7632 42.9129Z" fill="#576CFB"/>
<path d="M25.4443 44.2321C25.9772 44.6766 26.2919 45.1827 26.3698 45.7249L23.8489 45.7249C23.8045 45.5694 23.7288 45.4248 23.6218 45.2912L25.4443 44.2321Z" fill="#75CA75"/>
<path d="M24.8991 43.8454L23.1266 44.8755L23.0638 44.8322C22.6569 44.5973 22.1383 44.4417 21.5827 44.3875L21.5745 42.92C22.804 42.9888 23.9538 43.2996 24.8303 43.8057L24.8991 43.8454Z" fill="#F9BB4A"/>
<path d="M19.2059 21.4483C22.248 23.2046 24.7182 27.4757 24.7083 30.9789C24.6984 34.4747 22.212 35.8914 19.1699 34.1351C16.1279 32.3788 13.6577 28.1003 13.6676 24.6045C13.6775 21.1013 16.1638 19.6919 19.2059 21.4483ZM19.1747 32.4552C21.4104 33.746 23.2389 32.7036 23.2462 30.1348C23.2535 27.5582 21.4369 24.4115 19.2012 23.1208C16.9589 21.8262 15.1303 22.8682 15.123 25.4448C15.1158 28.0137 16.9325 31.1607 19.1747 32.4552Z" fill="#ED435C"/>
<path d="M19.2106 19.7762C23.0591 21.9981 26.1763 27.3972 26.1637 31.8192C26.1512 36.2338 23.0137 38.0295 19.1652 35.8076C15.3167 33.5857 12.1996 28.1788 12.2121 23.7642C12.2246 19.3422 15.3621 17.5543 19.2106 19.7762ZM19.1699 34.1351C22.212 35.8914 24.6983 34.4747 24.7083 30.9789C24.7182 27.4757 22.248 23.2046 19.2059 21.4483C16.1638 19.6919 13.6775 21.1013 13.6675 24.6045C13.6576 28.1003 16.1278 32.3787 19.1699 34.1351Z" fill="#E8F1FA"/>
<path d="M29.0652 31.8234C29.055 34.4728 28.1205 36.3415 26.611 37.2245L25.1631 38.0669C26.6726 37.1839 27.607 35.3146 27.6173 32.6552C27.6379 27.3052 23.8693 20.7845 19.2175 18.094C16.8762 16.7387 14.7506 16.6153 13.2206 17.5088L14.6684 16.6665C16.1985 15.7735 18.3138 15.8963 20.6654 17.2521C25.3171 19.9426 29.0857 26.4629 29.0652 31.8234Z" fill="#F76D8E"/>
<path d="M19.2154 18.0959C23.8703 20.7834 27.6344 27.3032 27.6192 32.6595C27.6041 38.0085 23.8154 40.1676 19.1604 37.4801C14.4989 34.7888 10.7414 28.2728 10.7566 22.9239C10.7718 17.5675 14.5539 15.4046 19.2154 18.0959ZM19.1652 35.8076C23.0137 38.0295 26.1512 36.2338 26.1637 31.8192C26.1763 27.3972 23.0591 21.9981 19.2106 19.7762C15.3621 17.5543 12.2246 19.3422 12.2121 23.7642C12.1996 28.1788 15.3167 33.5857 19.1652 35.8076Z" fill="#ED435C"/>
<path d="M19.1964 24.7933C17.7606 23.9643 16.5832 24.6355 16.5785 26.2852C16.5738 27.9352 17.7436 29.9538 19.1794 30.7827C20.6152 31.6117 21.786 30.9445 21.7907 29.2945C21.7954 27.6448 20.6322 25.6223 19.1964 24.7933Z" fill="#ED435C"/>
<path d="M19.2011 23.1208C21.4368 24.4115 23.2535 27.5581 23.2462 30.1347C23.2389 32.7036 21.4104 33.746 19.1747 32.4552C16.9324 31.1607 15.1157 28.0137 15.123 25.4448C15.1303 22.8682 16.9589 21.8262 19.2011 23.1208ZM19.1794 30.7827C20.6152 31.6117 21.786 30.9445 21.7907 29.2944C21.7954 27.6448 20.6322 25.6223 19.1964 24.7933C17.7606 23.9643 16.5832 24.6355 16.5785 26.2852C16.5738 27.9352 17.7436 29.9538 19.1794 30.7827Z" fill="#E8F1FA"/>
<path d="M6.37819 33.1902L7.47215 34.1778L18.7973 27.6393C19.011 27.5159 19.184 27.6222 19.1846 27.8599C19.1853 28.1054 19.0135 28.3953 18.7998 28.5187L7.47465 35.0572L6.38989 37.3183L2.1151 39.7863L3.48819 36.9223L2.10339 35.6582L6.37819 33.1902Z" fill="#363A44"/>
<path d="M32.8516 17.0981L32.816 29.6427L30.7086 28.4253L30.7442 15.8807L32.8516 17.0981Z" fill="#37617B"/>
<path d="M37.0054 22.2115L36.9775 32.0468L34.8657 30.8268L34.8935 20.9915L37.0054 22.2115Z" fill="#5B5E71"/>
<path d="M41.1523 28.176L41.1345 34.4483L39.0271 33.2309L39.0449 26.9586L41.1523 28.176Z" fill="#6EBA6E"/>
<path d="M45.3202 26.7281L45.2915 36.8499L43.1841 35.6324L43.2128 25.5106L45.3202 26.7281Z" fill="#4562EF"/>
<path d="M49.4883 25.2344L49.4485 39.2514L47.3411 38.0339L47.3808 24.0169L49.4883 25.2344Z" fill="#EFAC41"/>
<path d="M53.6549 24.211L53.6055 41.6529L51.4981 40.4355L51.5475 22.9936L53.6549 24.211Z" fill="#ED435C"/>
<path d="M51.9202 53.9958L51.9186 54.5466L44.5986 58.8005L44.6002 58.2497L51.9202 53.9958Z" fill="#E5A03C"/>
<path d="M44.6002 58.2497L44.5987 58.8005L37.2308 54.5466L37.2324 53.9959L44.6002 58.2497Z" fill="#EFAC41"/>
<path d="M51.9202 53.9958L44.6002 58.2497L37.2324 53.9959L44.5523 49.742L51.9202 53.9958Z" fill="#F9BB4A"/>
<path d="M51.9202 53.4492L51.9186 53.9999L44.5986 58.2538L44.6002 57.7031L51.9202 53.4492Z" fill="#E63044"/>
<path d="M44.6002 57.7031L44.5987 58.2538L37.2308 54L37.2324 53.4492L44.6002 57.7031Z" fill="#ED435C"/>
<path d="M51.9202 53.4492L44.6002 57.7031L37.2324 53.4493L44.5523 49.1954L51.9202 53.4492Z" fill="#F25574"/>
<path d="M51.9202 52.9025L51.9186 53.4533L44.5986 57.7072L44.6002 57.1564L51.9202 52.9025Z" fill="#65AA65"/>
<path d="M44.6002 57.1564L44.5987 57.7072L37.2308 53.4534L37.2324 52.9026L44.6002 57.1564Z" fill="#6EBA6E"/>
<path d="M51.9202 52.9025L44.6002 57.1564L37.2324 52.9026L44.5523 48.6487L51.9202 52.9025Z" fill="#75CA75"/>
<path d="M51.9202 52.3559L51.9186 52.9066L44.5986 57.1606L44.6002 56.6098L51.9202 52.3559Z" fill="#3C5DD6"/>
<path d="M44.6002 56.6098L44.5987 57.1605L37.2308 52.9067L37.2324 52.356L44.6002 56.6098Z" fill="#4562EF"/>
<path d="M51.9202 52.3559L44.6002 56.6098L37.2324 52.356L44.5524 48.1021L51.9202 52.3559Z" fill="#576CFB"/>
<path d="M46.1578 50.0082L45.7127 50.2668L44.0071 49.2821L44.4521 49.0234L46.1578 50.0082Z" fill="#3C5DD6"/>
<path d="M49.3197 53.131L48.8698 53.3925L47.1591 52.4048L47.609 52.1433L49.3197 53.131Z" fill="#3C5DD6"/>
<path d="M45.038 50.6589L44.5881 50.9204L42.8824 49.9356L43.3324 49.6742L45.038 50.6589Z" fill="#3C5DD6"/>
<path d="M43.9133 51.3125L43.4683 51.5711L41.7626 50.5864L42.2077 50.3278L43.9133 51.3125Z" fill="#3C5DD6"/>
<path d="M47.1813 51.8964L46.7314 52.1579L45.0208 51.1702L45.4707 50.9088L47.1813 51.8964Z" fill="#3C5DD6"/>
<path d="M42.7936 51.9633L42.3436 52.2247L40.638 51.24L41.0879 50.9785L42.7936 51.9633Z" fill="#3C5DD6"/>
<path d="M46.0567 52.55L45.6117 52.8086L43.901 51.821L44.346 51.5623L46.0567 52.55Z" fill="#3C5DD6"/>
<path d="M44.937 53.2007L44.487 53.4622L42.7764 52.4745L43.2263 52.2131L44.937 53.2007Z" fill="#3C5DD6"/>
<path d="M47.793 50.9523L47.3479 51.2109L46.1454 50.5166L46.5905 50.258L47.793 50.9523Z" fill="#3C5DD6"/>
<path d="M49.8709 52.152L49.4259 52.4106L48.2838 51.7512L48.7288 51.4926L49.8709 52.152Z" fill="#3C5DD6"/>
<path d="M47.0753 54.4353L46.6253 54.6968L44.9147 53.7091L45.3646 53.4477L47.0753 54.4353Z" fill="#3C5DD6"/>
<path d="M48.1951 53.7846L47.75 54.0432L46.0394 53.0555L46.4844 52.7969L48.1951 53.7846Z" fill="#3C5DD6"/>
</svg>
