<svg width="60" height="60" viewBox="0 0 60 60" fill="none" xmlns="http://www.w3.org/2000/svg">
<g clip-path="url(#clip0_65_291)">
<path d="M0 46.117C0 46.7643 0.524648 47.2889 1.17188 47.2889H25.037V38.7851C25.037 36.0265 23.2297 33.5927 20.5871 32.7947L15.0218 31.1131H10.0141L4.44879 32.7947C1.80727 33.5927 0 36.0266 0 38.7851L0 46.117Z" fill="#62A4FB"/>
<path d="M8.7805 42.9316C8.7805 38.203 11.9876 34.1123 16.5797 32.9837L19.135 32.3557L20.5875 32.7945C23.2293 33.5924 25.0366 36.0261 25.0366 38.7856V47.2889H8.7805V42.9316Z" fill="#5392F9"/>
<path d="M12.5183 33.6169C13.901 33.6169 15.022 32.4961 15.022 31.1135V26.9648L10.0147 26.974V31.1135C10.0146 32.496 11.1355 33.6169 12.5183 33.6169Z" fill="#FFBD86"/>
<path d="M18.7774 18.402V22.2582C18.7774 25.6978 16.0411 28.5649 12.6014 28.6095C9.10652 28.6548 6.25909 25.8356 6.25909 22.3515V18.402C6.25909 14.9455 9.0614 12.1434 12.5182 12.1434C15.9751 12.1434 18.7774 14.9455 18.7774 18.402Z" fill="#FED2A4"/>
<path d="M44.9781 31.1134L39.4126 32.7945C36.7709 33.5924 34.9635 36.0264 34.9635 38.786V47.2889H58.8281C59.4754 47.2889 60 46.7643 60 46.117V38.786C60 36.0264 58.1926 33.5924 55.5509 32.7945L49.9854 31.1134H44.9781Z" fill="#62A4FB"/>
<path d="M51.2195 42.9316C51.2195 38.203 48.0124 34.1123 43.4203 32.9837L40.865 32.3557L39.4125 32.7945C36.7707 33.5924 34.9634 36.0261 34.9634 38.7856V47.2889H51.2195V42.9316Z" fill="#5392F9"/>
<path d="M47.4817 33.6169C46.099 33.6169 44.978 32.4961 44.978 31.1135V26.9648L49.9853 26.974V31.1135C49.9854 32.496 48.8645 33.6169 47.4817 33.6169Z" fill="#FFBD86"/>
<path d="M41.2226 18.402V22.2582C41.2226 25.6978 43.9589 28.5649 47.3986 28.6095C50.8935 28.6548 53.7409 25.8356 53.7409 22.3515V18.402C53.7409 14.9455 50.9386 12.1434 47.4818 12.1434C44.0249 12.1434 41.2226 14.9455 41.2226 18.402Z" fill="#FED2A4"/>
<path d="M26.0975 33.6586L17.2781 35.8261C14.007 36.63 11.7074 39.5633 11.7074 42.9318V51.9989C11.7074 52.6461 12.232 53.1708 12.8793 53.1708H47.1209C47.7681 53.1708 48.2927 52.6461 48.2927 51.9989V42.9316C48.2927 39.5632 45.9931 36.6299 42.722 35.826L33.9026 33.6585H26.0975V33.6586Z" fill="#E6F7FE"/>
<path d="M31.4205 42.3308L32.8807 38.9018L30 36.0976L27.1193 38.9018L28.5795 42.3308H31.4205Z" fill="#DE5791"/>
<path d="M31.4205 42.3308L32.8807 45.7597H27.1193L28.5795 42.3308H31.4205Z" fill="#E175A5"/>
<path d="M42.7219 35.826L40.6337 35.3128C43.0464 36.5392 44.6343 39.0357 44.6343 41.8341V53.1707H47.121C47.7682 53.1707 48.2929 52.646 48.2929 51.9988V42.9316C48.2927 39.5632 45.993 36.6299 42.7219 35.826Z" fill="#D3EFFD"/>
<path d="M33.9025 30.9756L37.9437 34.6516L35.4996 39.6635C35.2084 40.2607 34.4183 40.3984 33.9422 39.9349L30 36.0976V35.9377H30.2559L33.562 33.8714C33.7738 33.739 33.9025 33.507 33.9025 33.2571V30.9756Z" fill="#B2E5FB"/>
<path d="M26.0975 30.9756L22.0563 34.6516L24.5004 39.6635C24.7916 40.2607 25.5817 40.3984 26.0578 39.9349L30 36.0976V35.9377H29.7441L26.438 33.8714C26.2262 33.739 26.0975 33.507 26.0975 33.2571V30.9756Z" fill="#B2E5FB"/>
<path d="M33.562 33.8713L30.2559 35.9375C30.0994 36.0354 29.9006 36.0354 29.7441 35.9375L26.438 33.8713C26.2262 33.7389 26.0975 33.5068 26.0975 33.257V27.0731H33.9025V33.257C33.9025 33.5068 33.7738 33.739 33.562 33.8713Z" fill="#FFBD86"/>
<path d="M26.0975 30.1823C27.2972 30.6928 28.6161 30.9757 30 30.9757C31.3839 30.9757 32.7028 30.6928 33.9025 30.1823V27.0732H26.0975V30.1823Z" fill="#EA9B58"/>
<path d="M22.6829 11.4799V20.9756C22.6829 25.0167 25.9589 28.2927 30 28.2927C34.0411 28.2927 37.3171 25.0167 37.3171 20.9756V11.4799H22.6829Z" fill="#FED2A4"/>
<path d="M34.1463 11.4799V20.9756C34.1463 24.4721 31.6932 27.394 28.4146 28.1184C28.9253 28.2313 29.4553 28.2927 29.9999 28.2927C34.041 28.2927 37.3169 25.0167 37.3169 20.9756V11.4799H34.1463Z" fill="#FFBD86"/>
<path d="M18.7805 11.2195V17.8049H22.6829L23.6768 16.2375C24.2136 15.3909 25.1462 14.878 26.1486 14.878H28.9197C30.7463 14.878 32.4681 14.0254 33.5753 12.5726L33.6332 12.4965C33.8468 12.2162 34.2823 12.25 34.4439 12.5632C34.6024 12.8704 34.8361 13.2407 35.1717 13.6086C35.6786 14.1646 36.5559 14.5739 37.0159 14.7623C37.1977 14.8369 37.3171 15.0128 37.3171 15.2092V17.8046H41.2195V11.2195C41.2195 5.02312 36.1964 0 30 0C23.8036 0 18.7805 5.02312 18.7805 11.2195Z" fill="#E69642"/>
<path d="M36.4874 2.06473C35.9494 4.78242 34.7689 7.57266 32.9379 10.1515C31.6071 12.0257 30.0575 13.6119 28.3934 14.8781H28.9196C30.7462 14.8781 32.4681 14.0255 33.5753 12.5727L33.6332 12.4968C33.8468 12.2164 34.2823 12.2502 34.4439 12.5634C34.6024 12.8706 34.8361 13.2409 35.1717 13.6089C35.6786 14.1648 36.5559 14.5741 37.0159 14.7626C37.1977 14.8371 37.3171 15.013 37.3171 15.2094V17.805H41.2195V11.2195C41.2195 7.44035 39.351 4.0977 36.4874 2.06473Z" fill="#E38523"/>
<path d="M39.2682 20.7318H37.3171V15.6025C37.3171 15.2024 37.6413 14.8781 38.0414 14.8781H39.2682C40.3459 14.8781 41.2194 15.7518 41.2194 16.8293V18.7805C41.2195 19.8581 40.3459 20.7318 39.2682 20.7318Z" fill="#F6A96C"/>
<path d="M20.7317 20.7318H22.6829V15.6025C22.6829 15.2024 22.3587 14.8781 21.9586 14.8781H20.7317C19.6541 14.8781 18.7806 15.7518 18.7806 16.8293V18.7805C18.7805 19.8581 19.6541 20.7318 20.7317 20.7318Z" fill="#FFBD86"/>
<path d="M30 60C34.8792 60 38.8346 56.0446 38.8346 51.1654C38.8346 46.2861 34.8792 42.3307 30 42.3307C25.1208 42.3307 21.1653 46.2861 21.1653 51.1654C21.1653 56.0446 25.1208 60 30 60Z" fill="#F7E365"/>
<path d="M35.046 43.9153C36.0437 45.3461 36.6305 47.0848 36.6305 48.9613C36.6305 53.8405 32.675 57.7959 27.7958 57.7959C25.9192 57.7959 24.1806 57.2091 22.7498 56.2114C24.3463 58.5007 26.9974 60 30 60C34.8792 60 38.8347 56.0446 38.8347 51.1654C38.8347 48.1628 37.3354 45.5118 35.046 43.9153Z" fill="#F3D332"/>
<path d="M29.625 54.7211L27.9109 55.4602C27.2505 55.7449 26.5263 55.2188 26.5931 54.5027L26.7664 52.6441C26.7906 52.3847 26.7068 52.1266 26.5347 51.9309L25.302 50.5291C24.8271 49.9891 25.1038 49.1378 25.8053 48.9799L27.6265 48.5704C27.8808 48.5132 28.1003 48.3537 28.2332 48.1296L29.1854 46.5241C29.5522 45.9056 30.4475 45.9056 30.8143 46.5241L31.7666 48.1296C31.8996 48.3538 32.119 48.5132 32.3733 48.5704L34.1945 48.9799C34.8961 49.1377 35.1727 49.9891 34.6978 50.5291L33.4651 51.9309C33.293 52.1266 33.2092 52.3847 33.2333 52.6441L33.4066 54.5027C33.4734 55.2188 32.7491 55.7449 32.0889 55.4602L30.3748 54.7211C30.1356 54.6178 29.8644 54.6178 29.625 54.7211Z" fill="#E69642"/>
<path d="M5.93004 42.5077C5.44453 42.5077 5.05113 42.9012 5.05113 43.3866V47.289H6.80894V43.3866C6.80894 42.9012 6.41543 42.5077 5.93004 42.5077Z" fill="#5392F9"/>
<path d="M54.07 42.5077C53.5845 42.5077 53.1911 42.9012 53.1911 43.3866V47.289H54.9489V43.3866C54.9489 42.9012 54.5555 42.5077 54.07 42.5077Z" fill="#5392F9"/>
<path d="M36.1007 8.93133C35.6865 8.65137 35.1236 8.76012 34.8436 9.17449L31.375 14.307C31.3663 14.3198 31.359 14.3332 31.3511 14.3464C32.2157 13.9514 32.9836 13.3487 33.5752 12.5726L33.6331 12.4965C33.8467 12.2162 34.2822 12.25 34.4438 12.5632C34.4832 12.6396 34.5274 12.7201 34.5765 12.8033L36.3437 10.1884C36.6239 9.77414 36.5152 9.21141 36.1007 8.93133Z" fill="#E1761C"/>
<path d="M43.9719 47.8575C43.6286 47.5144 43.072 47.5143 42.729 47.8575L41.9397 48.6469C41.7748 48.8117 41.6822 49.0352 41.6822 49.2684V53.1709H43.44V49.6324L43.9719 49.1005C44.315 48.7573 44.315 48.2007 43.9719 47.8575Z" fill="#B2E5FB"/>
<path d="M17.2711 47.8574C16.928 47.5141 16.3714 47.5143 16.0282 47.8574C15.685 48.2006 15.685 48.7571 16.0283 49.1004L16.5602 49.6323V53.1707H18.318V49.2682C18.318 49.0351 18.2255 48.8115 18.0606 48.6466L17.2711 47.8574Z" fill="#B2E5FB"/>
</g>
<defs>
<clipPath id="clip0_65_291">
<rect width="60" height="60" fill="white"/>
</clipPath>
</defs>
</svg>
