<svg width="60" height="60" viewBox="0 0 60 60" fill="none" xmlns="http://www.w3.org/2000/svg">
<path d="M58.8286 48.7601H57.2795C57.6114 48.2611 57.8055 47.6626 57.8055 47.0194V19.561C57.8055 17.8246 56.3943 16.4118 54.6597 16.4118H41.4255C41.4835 16.2476 41.5151 16.0711 41.5151 15.887V13.4322C41.5151 12.7206 41.0538 12.12 40.3686 11.938L39.207 11.627C39.0565 11.1709 38.8721 10.7261 38.6559 10.2974L39.259 9.25186C39.6125 8.63651 39.5124 7.88558 39.0101 7.38343L37.2761 5.6494C36.7711 5.14433 36.0184 5.04683 35.4075 5.40378L34.3628 6.0039C33.9346 5.78792 33.4904 5.60347 33.0351 5.45276L32.7218 4.29249C32.5395 3.60577 31.9389 3.14429 31.2274 3.14429H28.7725C28.0609 3.14429 27.4604 3.60577 27.2784 4.29097L26.9672 5.45253C26.511 5.603 26.0659 5.78757 25.6369 6.00401L24.5967 5.40636C23.9814 5.04671 23.2285 5.14456 22.7236 5.64929L20.9896 7.38331C20.4874 7.88558 20.3873 8.6364 20.7414 9.25292L21.3439 10.2972C21.1277 10.7258 20.9433 11.1707 20.7927 11.6269L19.6326 11.9375C18.946 12.1199 18.4846 12.7205 18.4846 13.4321V15.8869C18.4846 16.0711 18.5161 16.2476 18.5738 16.4117H5.34356C3.60708 16.4117 2.19438 17.8245 2.19438 19.5609V47.0193C2.19438 47.6624 2.38856 48.2609 2.72079 48.76H1.17122C0.782275 48.76 0.467041 49.0752 0.467041 49.4643V52.8094C0.467041 55.0404 2.28356 56.8554 4.51634 56.8554H55.4868C57.7178 56.8554 59.5328 55.0404 59.5328 52.8094V49.4643C59.5328 49.0753 59.2176 48.76 58.8286 48.76V48.7601ZM19.8932 13.4324C19.8932 13.3648 19.93 13.3163 19.9958 13.2987L21.5338 12.8868C21.7731 12.8227 21.9612 12.6375 22.0291 12.3992C22.2045 11.7823 22.4517 11.1858 22.764 10.6264C22.8848 10.4099 22.8829 10.1459 22.759 9.9312L21.9625 8.5505C21.9278 8.49003 21.9361 8.42933 21.9861 8.3794L23.7201 6.64538C23.7547 6.61081 23.8117 6.57882 23.8911 6.62522L25.2729 7.41905C25.4876 7.54245 25.7509 7.54397 25.9668 7.42339C26.5267 7.11097 27.1232 6.86382 27.7396 6.68851C27.978 6.62077 28.1633 6.43269 28.2274 6.19327L28.6396 4.65378C28.6567 4.58956 28.7052 4.55276 28.7729 4.55276H31.2277C31.2762 4.55276 31.3387 4.57022 31.3617 4.65671L31.7768 6.19468C31.8412 6.43315 32.0259 6.62042 32.2633 6.68827C32.8789 6.86405 33.4744 7.11132 34.0336 7.42327C34.2496 7.54362 34.5131 7.54222 34.7275 7.41894L36.1138 6.62241C36.189 6.57847 36.2458 6.61058 36.2804 6.64515L38.0144 8.37929C38.0643 8.42909 38.0726 8.4898 38.0386 8.54909L37.2414 9.93097C37.1176 10.1457 37.1157 10.4096 37.2364 10.626C37.5487 11.1857 37.7959 11.7822 37.9713 12.3989C38.039 12.6373 38.2271 12.8225 38.4665 12.8866L40.006 13.2989C40.0939 13.3223 40.107 13.3925 40.107 13.4322V15.887C40.107 15.9769 40.049 16.0116 40.0045 16.0239L38.4665 16.4358C38.2274 16.4998 38.0395 16.6846 37.9715 16.9226C37.7956 17.5384 37.5482 18.1341 37.2364 18.693C37.1157 18.9094 37.1176 19.1733 37.2414 19.388L38.0379 20.7686C38.0726 20.8292 38.0644 20.8899 38.0144 20.9398L36.2804 22.6738C36.2306 22.7236 36.1699 22.7321 36.1104 22.698L34.7286 21.9007C34.5139 21.7767 34.2499 21.7751 34.0335 21.8957C33.4748 22.2075 32.8792 22.4548 32.2633 22.6307C32.0258 22.6985 31.8412 22.8858 31.7768 23.1243L31.3608 24.6652C31.3387 24.7486 31.2761 24.7661 31.2276 24.7661H28.7727C28.733 24.7661 28.6628 24.7531 28.6392 24.6637L28.2272 23.1256C28.1631 22.8862 27.978 22.6982 27.7395 22.6303C27.1226 22.455 26.5263 22.2079 25.9668 21.8956C25.86 21.8359 25.7418 21.8062 25.6236 21.8062C25.502 21.8062 25.3805 21.8377 25.2716 21.9005L23.8908 22.697C23.8304 22.7318 23.7695 22.7234 23.7199 22.6736L21.9858 20.9396C21.9359 20.8896 21.9276 20.8289 21.9616 20.7696L22.7588 19.3878C22.8827 19.1731 22.8845 18.9091 22.7637 18.6926C22.452 18.134 22.2046 17.5383 22.0287 16.9224C21.9609 16.6848 21.7736 16.5001 21.5351 16.4359L19.9943 16.0199C19.9109 15.9979 19.8933 15.9353 19.8933 15.8868V13.4319L19.8932 13.4324ZM33.1905 35.8156C33.0585 35.6834 32.8793 35.6091 32.6924 35.609H32.6923C32.5055 35.609 32.3263 35.6833 32.1943 35.8153L28.4287 39.581L26.7824 37.9347C26.6504 37.8026 26.4712 37.7283 26.2844 37.7283C26.0976 37.7283 25.9184 37.8026 25.7863 37.9347L23.7233 39.9979V34.6424C23.7233 34.4677 23.8708 34.3201 24.0455 34.3201H35.5624C35.7381 34.3201 35.8812 34.4646 35.8812 34.6424V38.5087L33.1905 35.8155V35.8156ZM35.8812 40.5013V41.698C35.8812 41.8709 35.7352 42.0169 35.5624 42.0169H30.8645L29.4247 40.5769L32.6921 37.3095L35.8812 40.5013ZM28.8727 42.0169H24.0455C23.9512 42.0169 23.8656 41.9734 23.8061 41.907L26.2844 39.4286L28.8727 42.0169ZM29.3405 29.9153H15.5316C14.5993 29.9153 13.8408 30.6753 13.8408 31.6095V32.9601C11.2733 33.3054 9.28657 35.5094 9.28657 38.1701C9.28657 41.0679 11.6454 43.4254 14.545 43.4254C17.4446 43.4254 19.8002 41.0679 19.8002 38.1701C19.8002 35.5096 17.815 33.3057 15.2493 32.9602V31.6095C15.2493 31.452 15.376 31.3238 15.5317 31.3238H29.3406V32.9116H24.0455C23.0913 32.9116 22.3149 33.688 22.3149 34.6424V41.698C22.3149 42.6505 23.0913 43.4254 24.0455 43.4254H35.5624C36.5147 43.4254 37.2897 42.6505 37.2897 41.698V34.6424C37.2897 33.688 36.5149 32.9116 35.5624 32.9116H30.749V31.3238H44.5613C44.717 31.3238 44.8437 31.452 44.8437 31.6095V32.9116H41.6015C40.9311 32.9116 40.3857 33.4586 40.3857 34.1308V42.2094C40.3857 42.8799 40.9311 43.4253 41.6015 43.4253H49.4976C50.168 43.4253 50.7134 42.8799 50.7134 42.2094V34.1308C50.7134 33.4586 50.168 32.9116 49.4976 32.9116H46.2521V31.6095C46.2521 30.6753 45.4936 29.9153 44.5613 29.9153H30.749V26.175H31.2274C31.9389 26.175 32.5395 25.7135 32.7211 25.0299L33.0352 23.8666C33.4905 23.716 33.9344 23.5316 34.3622 23.3158L35.4077 23.9188C36.0228 24.2723 36.7738 24.1722 37.2762 23.6699L39.0101 21.936C39.1624 21.7838 39.277 21.6086 39.3538 21.4213H52.7962V45.1592H7.20368V21.4213H20.646C20.7229 21.6085 20.8375 21.7837 20.9897 21.9359L22.7238 23.6699C23.2261 24.1724 23.977 24.2725 24.5935 23.9181L25.6379 23.3157C26.0664 23.5319 26.5114 23.7162 26.9675 23.8667L27.2781 25.0268C27.4605 25.7134 28.0611 26.1749 28.7726 26.1749H29.3408V29.9152L29.3405 29.9153ZM14.545 34.3201C16.6661 34.3201 18.3917 36.0473 18.3917 38.1702C18.3917 40.2932 16.666 42.0169 14.545 42.0169C12.424 42.0169 10.6949 40.2912 10.6949 38.1702C10.6949 36.0492 12.422 34.3201 14.545 34.3201ZM49.3049 34.3201V42.0169H41.7942V34.3201H49.3049ZM3.60286 19.5611C3.60286 18.6013 4.3838 17.8204 5.34356 17.8204H20.8374C20.9798 18.2315 21.1483 18.6337 21.3441 19.0219L20.7725 20.0127H6.4995C6.11056 20.0127 5.79532 20.328 5.79532 20.717V45.8635C5.79532 46.2524 6.11056 46.5678 6.4995 46.5678H53.5004C53.8893 46.5678 54.2045 46.2525 54.2045 45.8635V20.717C54.2045 20.3281 53.8893 20.0127 53.5004 20.0127H39.2275L38.6559 19.0219C38.8518 18.6335 39.0202 18.2315 39.1626 17.8204H54.6597C55.6176 17.8204 56.397 18.6012 56.397 19.5611V47.0195C56.397 47.9793 55.6176 48.7602 54.6597 48.7602H5.34356C4.3838 48.7602 3.60286 47.9794 3.60286 47.0195V19.5611ZM36.7716 50.1687V51.1387C36.7716 51.6716 36.3379 52.1052 35.8049 52.1052H24.195C23.6621 52.1052 23.2284 51.6716 23.2284 51.1387V50.1687H36.7716ZM58.1245 52.8095C58.1245 54.2638 56.9412 55.4471 55.4869 55.4471H4.51634C3.06017 55.4471 1.8754 54.2638 1.8754 52.8095V50.1687H21.8199V51.1387C21.8199 52.4483 22.8854 53.5138 24.195 53.5138H35.8049C37.1146 53.5138 38.1801 52.4483 38.1801 51.1387V50.1687H58.1245V52.8095ZM12.8645 40.7302C13.0396 40.832 13.2312 40.8828 13.4222 40.8828C13.6137 40.8828 13.8046 40.8317 13.9771 40.73L16.75 39.1288C17.0958 38.9248 17.3022 38.5663 17.3022 38.1701C17.3022 37.7666 17.093 37.4069 16.7424 37.2071L13.9708 35.6032C13.6264 35.4092 13.2152 35.4092 12.8706 35.6032C12.8665 35.6056 12.8625 35.6079 12.8584 35.6103C12.5146 35.8131 12.3094 36.1715 12.3094 36.569V39.768C12.3094 40.172 12.517 40.5313 12.8645 40.7302ZM13.7179 37.0844L15.5941 38.17L13.7179 39.2533V37.0844ZM29.5465 36.838C29.5465 37.227 29.2313 37.5423 28.8424 37.5423H28.7625C28.3736 37.5423 28.0584 37.2271 28.0584 36.838C28.0584 36.449 28.3736 36.1337 28.7625 36.1337H28.8424C29.2313 36.1337 29.5465 36.449 29.5465 36.838ZM43.681 38.1701C43.681 37.7812 43.9962 37.4658 44.3852 37.4658H46.7138C47.1027 37.4658 47.418 37.781 47.418 38.1701C47.418 38.5592 47.1027 38.8744 46.7138 38.8744H44.3852C43.9962 38.8744 43.681 38.5592 43.681 38.1701ZM43.681 35.7884C43.681 35.3994 43.9962 35.0841 44.3852 35.0841H46.7138C47.1027 35.0841 47.418 35.3993 47.418 35.7884C47.418 36.1775 47.1027 36.4927 46.7138 36.4927H44.3852C43.9962 36.4927 43.681 36.1775 43.681 35.7884ZM43.681 40.5485C43.681 40.1596 43.9962 39.8442 44.3852 39.8442H46.7138C47.1027 39.8442 47.418 40.1595 47.418 40.5485C47.418 40.9376 47.1027 41.2528 46.7138 41.2528H44.3852C43.9962 41.2528 43.681 40.9376 43.681 40.5485ZM30.0016 20.4016C33.1667 20.4016 35.7417 17.8265 35.7417 14.6615C35.7417 11.4965 33.1667 8.91788 30.0016 8.91788C26.8365 8.91788 24.2581 11.4944 24.2581 14.6615C24.2581 17.8286 26.8346 20.4016 30.0016 20.4016ZM30.0016 10.3264C32.3901 10.3264 34.3333 12.2711 34.3333 14.6614C34.3333 17.0516 32.3901 18.993 30.0016 18.993C27.6131 18.993 25.6666 17.0499 25.6666 14.6614C25.6666 12.2728 27.6113 10.3264 30.0016 10.3264ZM27.4916 14.7012C27.2971 14.3644 27.4125 13.9337 27.7493 13.7392C28.086 13.5447 28.5169 13.66 28.7113 13.9969L29.2425 14.9168L31.404 12.7579C31.6791 12.483 32.125 12.4833 32.3999 12.7585C32.6747 13.0337 32.6745 13.4795 32.3993 13.7544L29.5891 16.5614C29.4562 16.6942 29.2768 16.7675 29.0914 16.7675C29.0608 16.7675 29.03 16.7653 28.9993 16.7614C28.7822 16.7328 28.591 16.6049 28.4815 16.4153L27.4916 14.7012Z" fill="#256BFE"/>
</svg>
