<svg width="60" height="60" viewBox="0 0 60 60" fill="none" xmlns="http://www.w3.org/2000/svg">
<path d="M57.1875 7.5H2.8125C2.56386 7.5 2.3254 7.59877 2.14959 7.77459C1.97377 7.9504 1.875 8.18886 1.875 8.4375V51.5625C1.875 51.8111 1.97377 52.0496 2.14959 52.2254C2.3254 52.4012 2.56386 52.5 2.8125 52.5H57.1875C57.4361 52.5 57.6746 52.4012 57.8504 52.2254C58.0262 52.0496 58.125 51.8111 58.125 51.5625V8.4375C58.125 8.18886 58.0262 7.9504 57.8504 7.77459C57.6746 7.59877 57.4361 7.5 57.1875 7.5ZM3.75 9.375H56.25V18.6914H3.75V9.375ZM3.75 50.625V20.5664H56.25V50.625H3.75Z" fill="#256BFE"/>
<path d="M12.1875 11.2207H6.5625C6.31386 11.2207 6.0754 11.3195 5.89959 11.4953C5.72377 11.6711 5.625 11.9096 5.625 12.1582V15.9082C5.625 16.1568 5.72377 16.3953 5.89959 16.5711C6.0754 16.7469 6.31386 16.8457 6.5625 16.8457H12.1875C12.4361 16.8457 12.6746 16.7469 12.8504 16.5711C13.0262 16.3953 13.125 16.1568 13.125 15.9082V12.1582C13.125 11.9096 13.0262 11.6711 12.8504 11.4953C12.6746 11.3195 12.4361 11.2207 12.1875 11.2207ZM11.25 14.9707H7.5V13.0957H11.25V14.9707Z" fill="#256BFE"/>
<path d="M29.0625 11.207C28.5062 11.207 27.9625 11.3719 27.5 11.681C27.0374 11.99 26.677 12.4293 26.4641 12.9432C26.2512 13.4571 26.1955 14.0226 26.304 14.5682C26.4126 15.1137 26.6804 15.6149 27.0738 16.0082C27.4671 16.4015 27.9682 16.6694 28.5138 16.7779C29.0594 16.8865 29.6249 16.8308 30.1388 16.6179C30.6527 16.405 31.092 16.0445 31.401 15.582C31.71 15.1195 31.875 14.5757 31.875 14.0195C31.8742 13.2738 31.5776 12.5589 31.0503 12.0316C30.5231 11.5044 29.8082 11.2078 29.0625 11.207ZM29.0625 14.957C28.8771 14.957 28.6958 14.902 28.5417 14.799C28.3875 14.696 28.2673 14.5495 28.1964 14.3782C28.1254 14.2069 28.1068 14.0184 28.143 13.8366C28.1792 13.6547 28.2685 13.4877 28.3996 13.3566C28.5307 13.2254 28.6977 13.1362 28.8796 13.1C29.0615 13.0638 29.25 13.0824 29.4213 13.1533C29.5926 13.2243 29.739 13.3445 29.842 13.4986C29.945 13.6528 30 13.8341 30 14.0195C29.9997 14.268 29.9008 14.5063 29.7251 14.682C29.5493 14.8578 29.311 14.9566 29.0625 14.957Z" fill="#256BFE"/>
<path d="M36.5879 11.207C36.0316 11.207 35.4879 11.3719 35.0254 11.681C34.5628 11.99 34.2024 12.4293 33.9895 12.9432C33.7766 13.4571 33.7209 14.0226 33.8294 14.5682C33.938 15.1137 34.2058 15.6149 34.5992 16.0082C34.9925 16.4015 35.4936 16.6694 36.0392 16.7779C36.5848 16.8865 37.1503 16.8308 37.6642 16.6179C38.1781 16.405 38.6174 16.0445 38.9264 15.582C39.2354 15.1195 39.4004 14.5757 39.4004 14.0195C39.3996 13.2738 39.103 12.5589 38.5757 12.0316C38.0485 11.5044 37.3336 11.2078 36.5879 11.207ZM36.5879 14.957C36.4025 14.957 36.2212 14.902 36.067 14.799C35.9129 14.696 35.7927 14.5495 35.7218 14.3782C35.6508 14.2069 35.6322 14.0184 35.6684 13.8366C35.7046 13.6547 35.7939 13.4877 35.925 13.3566C36.0561 13.2254 36.2231 13.1362 36.405 13.1C36.5869 13.0638 36.7754 13.0824 36.9467 13.1533C37.118 13.2243 37.2644 13.3445 37.3674 13.4986C37.4704 13.6528 37.5254 13.8341 37.5254 14.0195C37.5251 14.268 37.4262 14.5063 37.2504 14.682C37.0747 14.8578 36.8364 14.9566 36.5879 14.957Z" fill="#256BFE"/>
<path d="M44.1128 11.207C43.5565 11.207 43.0128 11.3719 42.5503 11.681C42.0877 11.99 41.7273 12.4293 41.5144 12.9432C41.3015 13.4571 41.2458 14.0226 41.3543 14.5682C41.4629 15.1137 41.7307 15.6149 42.1241 16.0082C42.5174 16.4015 43.0185 16.6694 43.5641 16.7779C44.1097 16.8865 44.6752 16.8308 45.1891 16.6179C45.703 16.405 46.1423 16.0445 46.4513 15.582C46.7603 15.1195 46.9253 14.5757 46.9253 14.0195C46.9245 13.2738 46.6279 12.5589 46.1006 12.0316C45.5734 11.5044 44.8585 11.2078 44.1128 11.207ZM44.1128 14.957C43.9274 14.957 43.7461 14.902 43.5919 14.799C43.4378 14.696 43.3176 14.5495 43.2467 14.3782C43.1757 14.2069 43.1571 14.0184 43.1933 13.8366C43.2295 13.6547 43.3188 13.4877 43.4499 13.3566C43.581 13.2254 43.748 13.1362 43.9299 13.1C44.1118 13.0638 44.3003 13.0824 44.4716 13.1533C44.6429 13.2243 44.7893 13.3445 44.8923 13.4986C44.9953 13.6528 45.0503 13.8341 45.0503 14.0195C45.05 14.268 44.9511 14.5063 44.7754 14.682C44.5996 14.8578 44.3613 14.9566 44.1128 14.957Z" fill="#256BFE"/>
<path d="M51.6377 11.207C51.0814 11.207 50.5377 11.3719 50.0752 11.681C49.6126 11.99 49.2522 12.4293 49.0393 12.9432C48.8264 13.4571 48.7707 14.0226 48.8792 14.5682C48.9878 15.1137 49.2556 15.6149 49.649 16.0082C50.0423 16.4015 50.5434 16.6694 51.089 16.7779C51.6346 16.8865 52.2001 16.8308 52.714 16.6179C53.2279 16.405 53.6672 16.0445 53.9762 15.582C54.2852 15.1195 54.4502 14.5757 54.4502 14.0195C54.4494 13.2738 54.1528 12.5589 53.6255 12.0316C53.0983 11.5044 52.3834 11.2078 51.6377 11.207ZM51.6377 14.957C51.4523 14.957 51.271 14.902 51.1168 14.799C50.9627 14.696 50.8425 14.5495 50.7716 14.3782C50.7006 14.2069 50.682 14.0184 50.7182 13.8366C50.7544 13.6547 50.8437 13.4877 50.9748 13.3566C51.1059 13.2254 51.2729 13.1362 51.4548 13.1C51.6367 13.0638 51.8252 13.0824 51.9965 13.1533C52.1678 13.2243 52.3142 13.3445 52.4172 13.4986C52.5202 13.6528 52.5752 13.8341 52.5752 14.0195C52.5749 14.268 52.476 14.5063 52.3003 14.682C52.1245 14.8578 51.8862 14.9566 51.6377 14.957Z" fill="#256BFE"/>
<path d="M28.0958 25.3303H25.3048C25.1593 25.3303 25.0158 25.3641 24.8856 25.4292C24.7555 25.4943 24.6423 25.5888 24.555 25.7052L22.0449 29.0511H7.47083C7.32632 29.0514 7.18383 29.085 7.05445 29.1494C6.92507 29.2137 6.81229 29.3071 6.72489 29.4222C6.63749 29.5372 6.57784 29.6709 6.55057 29.8128C6.52329 29.9548 6.52914 30.101 6.56766 30.2403L9.17919 39.6153C9.23427 39.8125 9.35235 39.9863 9.51543 40.1101C9.6785 40.2339 9.87761 40.301 10.0824 40.3011H20.6334C20.882 40.3011 21.1205 40.3998 21.2963 40.5756C21.4721 40.7515 21.5709 40.9899 21.5709 41.2386C21.5709 41.4872 21.4721 41.7257 21.2963 41.9015C21.1205 42.0773 20.882 42.1761 20.6334 42.1761H13.3077C13.2576 42.1761 13.0641 42.1888 13.0387 42.1908C12.6802 42.2316 12.3411 42.3753 12.0624 42.6045C11.7836 42.8336 11.5771 43.1386 11.4677 43.4824C11.3584 43.8263 11.3508 44.1945 11.446 44.5426C11.5411 44.8907 11.7349 45.2038 12.004 45.4442C12.2731 45.6847 12.606 45.8421 12.9626 45.8976C13.3192 45.9531 13.6842 45.9043 14.0136 45.757C14.3431 45.6098 14.6229 45.3704 14.8193 45.0677C15.0158 44.765 15.1205 44.4119 15.1208 44.0511H18.2861C18.2861 44.3128 18.3409 44.5717 18.447 44.811C18.5532 45.0504 18.7082 45.2648 18.9022 45.4406C19.0962 45.6163 19.3249 45.7495 19.5735 45.8315C19.8221 45.9135 20.0851 45.9425 20.3456 45.9167C20.6061 45.8909 20.8584 45.8109 21.086 45.6817C21.3137 45.5525 21.5118 45.377 21.6676 45.1666C21.8233 44.9562 21.9333 44.7155 21.9904 44.46C22.0475 44.2046 22.0504 43.9399 21.9991 43.6833C22.5082 43.4042 22.9178 42.9735 23.171 42.4511C23.4243 41.9286 23.5085 41.3403 23.4122 40.7678C23.3158 40.1952 23.0436 39.6669 22.6333 39.2561C22.223 38.8453 21.695 38.5725 21.1226 38.4754L23.3694 30.4097L25.7736 27.2053H28.0958C28.3445 27.2053 28.5829 27.1066 28.7587 26.9307C28.9346 26.7549 29.0333 26.5165 29.0333 26.2678C29.0333 26.0192 28.9346 25.7807 28.7587 25.6049C28.5829 25.4291 28.3445 25.3303 28.0958 25.3303ZM19.19 38.4261H10.7942L8.70495 30.9261H21.2793L19.19 38.4261Z" fill="#256BFE"/>
<path d="M52.4998 25.3303H33.8281C33.5795 25.3303 33.341 25.4291 33.1652 25.6049C32.9894 25.7807 32.8906 26.0192 32.8906 26.2678C32.8906 26.5165 32.9894 26.7549 33.1652 26.9307C33.341 27.1066 33.5795 27.2053 33.8281 27.2053H52.4998C52.7485 27.2053 52.9869 27.1066 53.1628 26.9307C53.3386 26.7549 53.4373 26.5165 53.4373 26.2678C53.4373 26.0192 53.3386 25.7807 53.1628 25.6049C52.9869 25.4291 52.7485 25.3303 52.4998 25.3303Z" fill="#256BFE"/>
<path d="M52.4998 30H33.8281C33.5795 30 33.341 30.0988 33.1652 30.2746C32.9894 30.4504 32.8906 30.6889 32.8906 30.9375C32.8906 31.1861 32.9894 31.4246 33.1652 31.6004C33.341 31.7762 33.5795 31.875 33.8281 31.875H52.4998C52.7485 31.875 52.9869 31.7762 53.1628 31.6004C53.3386 31.4246 53.4373 31.1861 53.4373 30.9375C53.4373 30.6889 53.3386 30.4504 53.1628 30.2746C52.9869 30.0988 52.7485 30 52.4998 30Z" fill="#256BFE"/>
<path d="M52.4998 34.6697H33.8281C33.5795 34.6697 33.341 34.7684 33.1652 34.9443C32.9894 35.1201 32.8906 35.3585 32.8906 35.6072C32.8906 35.8558 32.9894 36.0943 33.1652 36.2701C33.341 36.4459 33.5795 36.5447 33.8281 36.5447H52.4998C52.7485 36.5447 52.9869 36.4459 53.1628 36.2701C53.3386 36.0943 53.4373 35.8558 53.4373 35.6072C53.4373 35.3585 53.3386 35.1201 53.1628 34.9443C52.9869 34.7684 52.7485 34.6697 52.4998 34.6697Z" fill="#256BFE"/>
<path d="M52.4998 39.3397H33.8281C33.5795 39.3397 33.341 39.4385 33.1652 39.6143C32.9894 39.7901 32.8906 40.0286 32.8906 40.2772C32.8906 40.5259 32.9894 40.7643 33.1652 40.9401C33.341 41.116 33.5795 41.2147 33.8281 41.2147H52.4998C52.7485 41.2147 52.9869 41.116 53.1628 40.9401C53.3386 40.7643 53.4373 40.5259 53.4373 40.2772C53.4373 40.0286 53.3386 39.7901 53.1628 39.6143C52.9869 39.4385 52.7485 39.3397 52.4998 39.3397Z" fill="#256BFE"/>
<path d="M52.4998 44.0094H33.8281C33.5795 44.0094 33.341 44.1082 33.1652 44.284C32.9894 44.4598 32.8906 44.6983 32.8906 44.9469C32.8906 45.1955 32.9894 45.434 33.1652 45.6098C33.341 45.7856 33.5795 45.8844 33.8281 45.8844H52.4998C52.7485 45.8844 52.9869 45.7856 53.1628 45.6098C53.3386 45.434 53.4373 45.1955 53.4373 44.9469C53.4373 44.6983 53.3386 44.4598 53.1628 44.284C52.9869 44.1082 52.7485 44.0094 52.4998 44.0094Z" fill="#256BFE"/>
</svg>
