<svg width="60" height="60" viewBox="0 0 60 60" fill="none" xmlns="http://www.w3.org/2000/svg">
<path d="M7.36127 45.8023H26.8232V48.2916C26.823 48.2993 26.8188 48.3058 26.8188 48.3136C26.8188 48.3214 26.823 48.3278 26.8232 48.3356V53.079C26.8232 54.8352 28.2483 56.2641 29.9995 56.2641H46.8529C48.6046 56.2641 50.0297 54.8352 50.0297 53.079V48.3218C50.0297 48.3189 50.0313 48.3165 50.0313 48.3136C50.0313 48.3107 50.0297 48.3083 50.0297 48.3054V45.8023H52.6393C54.8189 45.8023 56.5922 44.0235 56.5922 41.8373V13.8185C56.5943 13.7986 56.6038 13.7814 56.6038 13.761V7.70093C56.6038 5.78723 55.2412 4.18593 53.435 3.8164C53.178 3.76361 52.9118 3.7359 52.6393 3.7359H7.36127C5.17506 3.7359 3.39624 5.50919 3.39624 7.68932V13.761V41.8373C3.39624 44.0235 5.17506 45.8023 7.36127 45.8023ZM27.9553 26.2818H48.8976V47.7475H27.9553V26.2818ZM48.8976 25.1497H27.9553V20.6767C27.9553 19.549 28.8724 18.632 29.9995 18.632H46.8529C47.9806 18.632 48.8976 19.549 48.8976 20.6767V25.1497ZM46.8529 55.132H29.9995C28.8724 55.132 27.9553 54.2111 27.9553 53.079V48.8796H48.8976V53.079C48.8976 54.2111 47.9806 55.132 46.8529 55.132ZM4.52832 7.68932C4.52832 6.13382 5.79914 4.86798 7.36127 4.86798H52.6393C54.1948 4.86798 55.4601 6.13382 55.4601 7.68932V13.1949H4.52832V7.68932ZM4.52832 14.327H55.4601V41.8373C55.4601 43.3994 54.1948 44.6703 52.6393 44.6703H50.0297V25.724C50.0297 25.7211 50.0313 25.7186 50.0313 25.7157C50.0313 25.7128 50.0297 25.7104 50.0297 25.7075V20.6767C50.0297 18.9249 48.6046 17.4999 46.8529 17.4999H29.9995C28.2483 17.4999 26.8232 18.9249 26.8232 20.6767V25.6938C26.823 25.7015 26.8188 25.7079 26.8188 25.7157C26.8188 25.7236 26.823 25.73 26.8232 25.7377V44.6703H7.36127C5.79914 44.6703 4.52832 43.3994 4.52832 41.8373V14.327Z" fill="#256BFE"/>
<path d="M50.9695 8.4643H37.153C36.8401 8.4643 36.5869 8.71747 36.5869 9.03034C36.5869 9.34321 36.8401 9.59638 37.153 9.59638H50.9695C51.2823 9.59638 51.5355 9.34321 51.5355 9.03034C51.5355 8.71747 51.2823 8.4643 50.9695 8.4643Z" fill="#256BFE"/>
<path d="M9.08702 7.27695C8.15228 7.27695 7.33252 8.09671 7.33252 9.03145C7.33252 9.96619 8.15228 10.7865 9.08702 10.7865C10.0218 10.7865 10.8421 9.96619 10.8421 9.03145C10.8421 8.09671 10.0218 7.27695 9.08702 7.27695ZM9.08702 9.65442C8.77304 9.65442 8.4646 9.34598 8.4646 9.03145C8.4646 8.71748 8.77304 8.40903 9.08702 8.40903C9.40154 8.40903 9.70999 8.71748 9.70999 9.03145C9.70999 9.34598 9.40154 9.65442 9.08702 9.65442Z" fill="#256BFE"/>
<path d="M13.3246 7.27695C12.3898 7.27695 11.5701 8.09671 11.5701 9.03145C11.5701 9.96619 12.3898 10.7865 13.3246 10.7865C14.2593 10.7865 15.0796 9.96619 15.0796 9.03145C15.0796 8.09671 14.2593 7.27695 13.3246 7.27695ZM13.3246 9.65442C13.0106 9.65442 12.7021 9.34598 12.7021 9.03145C12.7021 8.71748 13.0106 8.40903 13.3246 8.40903C13.6391 8.40903 13.9475 8.71748 13.9475 9.03145C13.9475 9.34598 13.6391 9.65442 13.3246 9.65442Z" fill="#256BFE"/>
<path d="M17.5622 7.27695C16.6274 7.27695 15.8071 8.09671 15.8071 9.03145C15.8071 9.96619 16.6274 10.7865 17.5622 10.7865C18.4969 10.7865 19.3167 9.96619 19.3167 9.03145C19.3167 8.09671 18.4969 7.27695 17.5622 7.27695ZM17.5622 9.65442C17.2477 9.65442 16.9392 9.34598 16.9392 9.03145C16.9392 8.71748 17.2477 8.40903 17.5622 8.40903C17.8762 8.40903 18.1846 8.71748 18.1846 9.03145C18.1846 9.34598 17.8762 9.65442 17.5622 9.65442Z" fill="#256BFE"/>
<path d="M38.139 50.277C37.2043 50.277 36.3845 51.0968 36.3845 52.0315C36.3845 52.9663 37.2043 53.7866 38.139 53.7866C39.0738 53.7866 39.8941 52.9663 39.8941 52.0315C39.8941 51.0968 39.0738 50.277 38.139 50.277ZM38.139 52.6545C37.825 52.6545 37.5166 52.3461 37.5166 52.0315C37.5166 51.7176 37.825 51.4091 38.139 51.4091C38.4535 51.4091 38.762 51.7176 38.762 52.0315C38.762 52.3461 38.4535 52.6545 38.139 52.6545Z" fill="#256BFE"/>
<path d="M38.9913 20.2726H37.8592C36.9229 20.2726 36.1611 21.0343 36.1611 21.9707C36.1611 22.9071 36.9229 23.6688 37.8592 23.6688H38.9913C39.9277 23.6688 40.6894 22.9071 40.6894 21.9707C40.6894 21.0343 39.9277 20.2726 38.9913 20.2726ZM38.9913 22.5368H37.8592C37.5469 22.5368 37.2932 22.283 37.2932 21.9707C37.2932 21.6584 37.5469 21.4047 37.8592 21.4047H38.9913C39.3036 21.4047 39.5574 21.6584 39.5574 21.9707C39.5574 22.283 39.3036 22.5368 38.9913 22.5368Z" fill="#256BFE"/>
<path d="M38.4304 29.5404C34.3791 29.5404 31.0835 32.836 31.0835 36.8872C31.0835 40.9324 34.3791 44.2236 38.4304 44.2236C42.4756 44.2236 45.7668 40.9324 45.7668 36.8872C45.7668 32.836 42.4756 29.5404 38.4304 29.5404ZM38.4304 43.0916C35.0037 43.0916 32.2156 40.3084 32.2156 36.8872C32.2156 33.4606 35.0037 30.6724 38.4304 30.6724C41.8515 30.6724 44.6347 33.4606 44.6347 36.8872C44.6347 40.3084 41.8515 43.0916 38.4304 43.0916Z" fill="#256BFE"/>
<path d="M9.55245 26.216H21.924C22.5238 26.216 23.0119 25.7279 23.0119 25.1276V19.0521C23.0119 18.4518 22.5238 17.9637 21.924 17.9637H9.55245C8.9527 17.9637 8.4646 18.4518 8.4646 19.0521V25.1276C8.4646 25.7279 8.9527 26.216 9.55245 26.216ZM21.8804 19.0958L21.924 25.0839L9.59668 25.1276L9.55245 19.0958H21.8804Z" fill="#256BFE"/>
<path d="M9.03064 31.0588H22.4458C22.7587 31.0588 23.0119 30.8057 23.0119 30.4928C23.0119 30.1799 22.7587 29.9268 22.4458 29.9268H9.03064C8.71777 29.9268 8.4646 30.1799 8.4646 30.4928C8.4646 30.8057 8.71777 31.0588 9.03064 31.0588Z" fill="#256BFE"/>
<path d="M9.03064 35.9802H22.4458C22.7587 35.9802 23.0119 35.727 23.0119 35.4141C23.0119 35.1012 22.7587 34.8481 22.4458 34.8481H9.03064C8.71777 34.8481 8.4646 35.1012 8.4646 35.4141C8.4646 35.727 8.71777 35.9802 9.03064 35.9802Z" fill="#256BFE"/>
<path d="M9.03064 40.9015H22.4458C22.7587 40.9015 23.0119 40.6483 23.0119 40.3354C23.0119 40.0226 22.7587 39.7694 22.4458 39.7694H9.03064C8.71777 39.7694 8.4646 40.0226 8.4646 40.3354C8.4646 40.6483 8.71777 40.9015 9.03064 40.9015Z" fill="#256BFE"/>
<path d="M40.0865 35.3588L37.4564 37.6434L36.8445 36.8331C36.656 36.5827 36.3011 36.5324 36.0518 36.7225C35.8025 36.9105 35.7528 37.2659 35.9413 37.5152L36.918 38.8092C37.0125 38.9342 37.1546 39.0149 37.3105 39.0309C37.3304 39.0331 37.3503 39.0342 37.3696 39.0342C37.5056 39.0342 37.6372 38.9856 37.7405 38.8955L40.8283 36.2134C41.0644 36.0083 41.0898 35.6507 40.8847 35.4152C40.6802 35.1781 40.3214 35.1543 40.0865 35.3588Z" fill="#256BFE"/>
</svg>
