<svg width="60" height="60" viewBox="0 0 60 60" fill="none" xmlns="http://www.w3.org/2000/svg">
<g clip-path="url(#clip0_22_313)">
<path d="M55.1613 15.4839H52.2581V0H7.74194V15.4839H4.83871C2.1708 15.4839 0 17.6547 0 20.3226V49.3548C0 52.0227 2.1708 54.1936 4.83871 54.1936H17.4194V58.0645H13.5484V60H46.4516V58.0645H42.5806V54.1936H55.1613C57.8292 54.1936 60 52.0227 60 49.3548V20.3226C60 17.6547 57.8292 15.4839 55.1613 15.4839ZM38.2683 30.4461L39.3892 28.2058L35.6652 24.4818L33.4249 25.6026L32.6334 23.2258H27.3675L26.576 25.6026L24.3358 24.4818L20.6118 28.2058L21.7326 30.4461L19.3548 31.2376V32.9032H9.67742V9.67742H50.3226V32.9032H40.6452V31.2376L38.2683 30.4461ZM37.0346 39.1548L35.2838 40.9055L33.1915 39.8593L32.7728 40.0469C32.6528 40.1003 32.5318 40.1485 32.4066 40.1963L31.978 40.3588L31.2376 42.5806H28.7615L28.021 40.3588L27.5925 40.1963C27.4672 40.1485 27.3463 40.0994 27.2263 40.0469L26.8076 39.8593L24.7152 40.9055L22.9645 39.1548L24.0107 37.0624L23.8231 36.6438C23.7697 36.5238 23.7215 36.4028 23.6738 36.2776L23.5112 35.849L21.2903 35.1085V32.6325L23.5122 31.892L23.6747 31.4634C23.7224 31.3382 23.7716 31.2172 23.824 31.0972L24.0116 30.6786L22.9654 28.5862L24.7162 26.8355L26.8085 27.8816L27.2272 27.6941C27.3472 27.6407 27.4682 27.5925 27.5934 27.5447L28.022 27.3822L28.7624 25.1613H31.2385L31.979 27.3831L32.4075 27.5457C32.5328 27.5934 32.6537 27.6425 32.7738 27.695L33.1924 27.8826L35.2848 26.8364L37.0355 28.5871L35.9893 30.6795L36.1769 31.0982C36.2303 31.2182 36.2785 31.3392 36.3262 31.4644L36.4888 31.893L38.7097 32.6334V35.1095L36.4878 35.8499L36.3253 36.2785C36.2776 36.4037 36.2284 36.5247 36.176 36.6447L35.9884 37.0634L37.0346 39.1548ZM50.3226 1.93548V7.74194H9.67742V1.93548H50.3226ZM4.83871 17.4194H7.74194V34.8387H19.3548V36.5044L21.7317 37.2959L20.6108 39.5361L24.3348 43.2601L26.5751 42.1393L27.3666 44.5161H32.6325L33.424 42.1393L35.6642 43.2601L39.3882 39.5361L38.2674 37.2959L40.6452 36.5044V34.8387H52.2581V17.4194H55.1613C56.7618 17.4194 58.0645 18.7221 58.0645 20.3226V46.4516H1.93548V20.3226C1.93548 18.7221 3.23825 17.4194 4.83871 17.4194ZM40.6452 58.0645H19.3548V54.1936H40.6452V58.0645ZM55.1613 52.2581H4.83871C3.23825 52.2581 1.93548 50.9553 1.93548 49.3548V48.3871H58.0645V49.3548C58.0645 50.9553 56.7618 52.2581 55.1613 52.2581Z" fill="#256BFE"/>
<path d="M11.6128 3.87097H13.5483V5.80646H11.6128V3.87097Z" fill="#256BFE"/>
<path d="M15.4839 3.87097H17.4194V5.80646H15.4839V3.87097Z" fill="#256BFE"/>
<path d="M19.3547 3.87097H21.2902V5.80646H19.3547V3.87097Z" fill="#256BFE"/>
<path d="M30.0001 29.0322C27.3322 29.0322 25.1614 31.203 25.1614 33.8709C25.1614 36.5388 27.3322 38.7096 30.0001 38.7096C32.668 38.7096 34.8388 36.5388 34.8388 33.8709C34.8388 31.203 32.668 29.0322 30.0001 29.0322ZM30.0001 36.7742C28.3996 36.7742 27.0969 35.4714 27.0969 33.8709C27.0969 32.2705 28.3996 30.9677 30.0001 30.9677C31.6005 30.9677 32.9033 32.2705 32.9033 33.8709C32.9033 35.4714 31.6005 36.7742 30.0001 36.7742Z" fill="#256BFE"/>
<path d="M11.6128 11.6129H30.9676V13.5484H11.6128V11.6129Z" fill="#256BFE"/>
<path d="M11.6128 15.4839H30.9676V17.4194H11.6128V15.4839Z" fill="#256BFE"/>
<path d="M11.6128 19.3549H30.9676V21.2903H11.6128V19.3549Z" fill="#256BFE"/>
</g>
<defs>
<clipPath id="clip0_22_313">
<rect width="60" height="60" fill="white"/>
</clipPath>
</defs>
</svg>
