<svg width="500" height="500" viewBox="0 0 500 500" fill="none" xmlns="http://www.w3.org/2000/svg">
<g clip-path="url(#clip0_28_2)">
<path d="M462.533 268.535C462.533 151.156 367.379 56.002 250 56.002C132.621 56.002 37.4669 151.156 37.4669 268.535C37.4669 335.492 68.4399 395.205 116.828 434.162H383.172C431.561 395.206 462.533 335.492 462.533 268.535Z" fill="#EBEBEB"/>
<path d="M25.325 434.885H477.403" stroke="#262526" stroke-width="1.2353" stroke-miterlimit="10"/>
<path d="M213.684 449.293H478.24" stroke="#262526" stroke-width="1.2353" stroke-miterlimit="10"/>
<path d="M288.728 382.864H233.97V425.216H288.728V382.864Z" fill="#B2DAFC"/>
<path d="M324.235 435.055H198.463V427.996C198.463 424.098 201.623 420.937 205.522 420.937H317.177C321.075 420.937 324.236 424.097 324.236 427.996V435.055H324.235Z" fill="#739CD7"/>
<path d="M233.97 393.88L288.728 401.58V382.864H233.97V393.88Z" fill="#95C8ED"/>
<path d="M430.649 390.771H92.0479C87.9719 390.771 84.6689 387.467 84.6689 383.392V162.228C84.6689 158.152 87.9729 154.848 92.0479 154.848H430.649C434.725 154.848 438.028 158.152 438.028 162.228V383.391C438.029 387.467 434.725 390.771 430.649 390.771Z" fill="#759BD7"/>
<path d="M430.542 161.265H92.1549V365.966H430.542V161.265Z" fill="#E2EDF9"/>
<path d="M268.942 378.051C268.942 381.949 265.782 385.11 261.883 385.11C257.984 385.11 254.824 381.95 254.824 378.051C254.824 374.153 257.984 370.992 261.883 370.992C265.782 370.992 268.942 374.153 268.942 378.051Z" fill="#95C8ED"/>
<path d="M240.693 319.408H180.693V324.065H240.693V319.408Z" fill="#ACC5E8"/>
<path d="M220.36 327.241H180.693V331.898H220.36V327.241Z" fill="#F7F7F7"/>
<path d="M319.36 182.342H204.7V186.999H319.36V182.342Z" fill="#ACC5E8"/>
<path d="M319.36 193.316H204.7V197.973H319.36V193.316Z" fill="#ACC5E8"/>
<path d="M281.527 204.29H204.7V208.947H281.527V204.29Z" fill="#ACC5E8"/>
<path d="M394.413 292.58H334.413V297.237H394.413V292.58Z" fill="#ACC5E8"/>
<path d="M374.08 300.413H334.413V305.07H374.08V300.413Z" fill="#F7F7F7"/>
<path d="M155.535 326.004L149.63 320.606L227.196 235.778L303.322 293.179L367.948 204.204L374.421 208.906L305.007 304.47L228.189 246.547L155.535 326.004Z" fill="#E36872"/>
<path d="M152.583 342.555C163.214 342.555 171.833 333.936 171.833 323.305C171.833 312.674 163.214 304.055 152.583 304.055C141.951 304.055 133.333 312.674 133.333 323.305C133.333 333.936 141.951 342.555 152.583 342.555Z" fill="#759BD7"/>
<path d="M152.583 336.485C159.862 336.485 165.763 330.584 165.763 323.305C165.763 316.026 159.862 310.125 152.583 310.125C145.304 310.125 139.403 316.026 139.403 323.305C139.403 330.584 145.304 336.485 152.583 336.485Z" fill="#F7F7F7"/>
<path d="M151.187 328.554V316.187L153.208 318.108H148.786V314.546H155.91V328.554H151.187Z" fill="#759BD7"/>
<path d="M227.692 260.412C238.323 260.412 246.942 251.793 246.942 241.162C246.942 230.531 238.323 221.912 227.692 221.912C217.06 221.912 208.442 230.531 208.442 241.162C208.442 251.793 217.06 260.412 227.692 260.412Z" fill="#759BD7"/>
<path d="M233.444 253.019C239.993 249.842 242.726 241.957 239.549 235.408C236.372 228.859 228.487 226.126 221.938 229.303C215.389 232.481 212.655 240.365 215.833 246.914C219.01 253.463 226.895 256.197 233.444 253.019Z" fill="#F7F7F7"/>
<path d="M222.856 246.411V243.509L227.919 238.827C228.239 238.52 228.472 238.253 228.619 238.026C228.779 237.8 228.886 237.6 228.939 237.426C228.993 237.239 229.019 237.066 229.019 236.906C229.019 236.559 228.906 236.292 228.679 236.105C228.452 235.905 228.112 235.805 227.658 235.805C227.245 235.805 226.851 235.919 226.478 236.145C226.104 236.359 225.811 236.679 225.597 237.106L222.035 235.325C222.542 234.364 223.303 233.584 224.317 232.984C225.331 232.383 226.591 232.083 228.099 232.083C229.206 232.083 230.187 232.263 231.04 232.623C231.894 232.984 232.561 233.491 233.041 234.144C233.522 234.798 233.762 235.572 233.762 236.466C233.762 236.919 233.702 237.373 233.582 237.826C233.475 238.28 233.248 238.76 232.901 239.267C232.555 239.761 232.041 240.314 231.361 240.928L227.558 244.39L226.818 242.749H234.082V246.411H222.856Z" fill="#759BD7"/>
<path d="M304.165 318.075C314.796 318.075 323.415 309.457 323.415 298.825C323.415 288.194 314.796 279.575 304.165 279.575C293.533 279.575 284.915 288.194 284.915 298.825C284.915 309.457 293.533 318.075 304.165 318.075Z" fill="#759BD7"/>
<path d="M317.167 300.925C318.337 293.741 313.462 286.968 306.277 285.797C299.093 284.627 292.32 289.502 291.149 296.687C289.979 303.871 294.854 310.644 302.039 311.815C309.223 312.985 315.996 308.11 317.167 300.925Z" fill="#F7F7F7"/>
<path d="M303.421 304.394C302.46 304.394 301.486 304.287 300.499 304.074C299.512 303.86 298.645 303.547 297.898 303.133L299.499 299.651C300.099 299.998 300.726 300.258 301.38 300.432C302.047 300.592 302.674 300.672 303.261 300.672C303.794 300.672 304.228 300.585 304.561 300.412C304.908 300.225 305.082 299.951 305.082 299.591C305.082 299.284 304.955 299.051 304.701 298.891C304.448 298.717 304.021 298.631 303.421 298.631H301.56V295.729L305.182 292.047L305.602 293.628H298.618V290.066H309.064V292.968L305.442 296.65L303.181 295.369H304.421C306.182 295.369 307.523 295.762 308.444 296.549C309.364 297.337 309.824 298.35 309.824 299.591C309.824 300.392 309.598 301.159 309.144 301.892C308.704 302.626 308.01 303.226 307.063 303.693C306.129 304.16 304.915 304.394 303.421 304.394Z" fill="#759BD7"/>
<path d="M380.714 237.229C396.41 231.97 404.871 214.982 399.612 199.286C394.353 183.59 377.365 175.129 361.669 180.388C345.973 185.647 337.512 202.635 342.771 218.331C348.03 234.027 365.018 242.488 380.714 237.229Z" fill="#759BD7"/>
<path d="M396.058 212.733C398.227 198.999 388.852 186.107 375.118 183.938C361.384 181.769 348.492 191.145 346.323 204.879C344.154 218.613 353.529 231.505 367.263 233.674C380.997 235.843 393.889 226.468 396.058 212.733Z" fill="#F7F7F7"/>
<path d="M371.185 228.075C381.816 228.075 390.435 219.456 390.435 208.825C390.435 198.194 381.816 189.575 371.185 189.575C360.553 189.575 351.935 198.194 351.935 208.825C351.935 219.456 360.553 228.075 371.185 228.075Z" fill="#759BD7"/>
<path d="M384.205 210.887C385.338 203.697 380.427 196.95 373.237 195.817C366.046 194.684 359.299 199.595 358.167 206.785C357.034 213.976 361.945 220.723 369.135 221.855C376.325 222.988 383.072 218.077 384.205 210.887Z" fill="#F7F7F7"/>
<path d="M374.037 215.781C377.871 214.202 379.699 209.813 378.12 205.978C376.54 202.144 372.151 200.316 368.317 201.896C364.482 203.475 362.654 207.864 364.234 211.699C365.814 215.533 370.203 217.361 374.037 215.781Z" fill="#F99595"/>
<path d="M178.374 189.423H121.165V246.632H178.374V189.423Z" fill="#ACC5E8"/>
<path d="M181.98 186.516H124.771V243.725H181.98V186.516Z" fill="white"/>
<path d="M181.914 190.352H123.252C121.134 190.352 119.416 188.635 119.416 186.516C119.416 184.398 121.133 182.68 123.252 182.68H181.914C184.032 182.68 185.75 184.397 185.75 186.516C185.749 188.635 184.032 190.352 181.914 190.352Z" fill="#96AFE4"/>
<path d="M132.405 188.69C133.417 188.69 134.238 187.869 134.238 186.857C134.238 185.845 133.417 185.024 132.405 185.024C131.393 185.024 130.572 185.845 130.572 186.857C130.572 187.869 131.393 188.69 132.405 188.69Z" fill="#7B8FDA"/>
<path d="M129.426 182.681C129.426 180.296 130.595 178.363 132.038 178.363C133.481 178.363 134.65 180.296 134.65 182.681C134.65 185.066 133.481 186.999 132.038 186.999" stroke="white" stroke-width="1.3537" stroke-miterlimit="10"/>
<path d="M175.081 188.69C176.093 188.69 176.914 187.869 176.914 186.857C176.914 185.845 176.093 185.024 175.081 185.024C174.069 185.024 173.248 185.845 173.248 186.857C173.248 187.869 174.069 188.69 175.081 188.69Z" fill="#7B8FDA"/>
<path d="M172.102 182.681C172.102 180.296 173.271 178.363 174.714 178.363C176.157 178.363 177.326 180.296 177.326 182.681C177.326 185.066 176.157 186.999 174.714 186.999" stroke="white" stroke-width="1.3537" stroke-miterlimit="10"/>
<path d="M155.034 188.69C156.046 188.69 156.867 187.869 156.867 186.857C156.867 185.845 156.046 185.024 155.034 185.024C154.022 185.024 153.201 185.845 153.201 186.857C153.201 187.869 154.022 188.69 155.034 188.69Z" fill="#7B8FDA"/>
<path d="M152.055 182.681C152.055 180.296 153.224 178.363 154.667 178.363C156.11 178.363 157.279 180.296 157.279 182.681C157.279 185.066 156.11 186.999 154.667 186.999" stroke="white" stroke-width="1.3537" stroke-miterlimit="10"/>
<path d="M141.341 222.349C139.969 222.349 138.668 222.177 137.44 221.834C136.212 221.473 135.138 220.949 134.217 220.263L136.709 216.443C137.395 216.949 138.172 217.337 139.039 217.608C139.924 217.879 140.809 218.014 141.693 218.014C142.434 218.014 143.057 217.933 143.563 217.771C144.068 217.59 144.448 217.337 144.7 217.012C144.971 216.669 145.107 216.263 145.107 215.793C145.107 215.269 144.899 214.872 144.484 214.601C144.086 214.33 143.454 214.195 142.587 214.195H140.285L140.962 210.808L147.057 205.309L147.355 207.151H137.603L138.443 203.007H152.15L151.5 206.366L145.405 211.865L142.967 210.429H144.159C145.477 210.429 146.606 210.637 147.545 211.052C148.502 211.45 149.233 212.027 149.739 212.786C150.263 213.544 150.525 214.438 150.525 215.468C150.525 216.786 150.127 217.969 149.333 219.017C148.556 220.046 147.473 220.859 146.082 221.455C144.691 222.051 143.111 222.349 141.341 222.349ZM159.804 222.349C158.359 222.349 157.104 222.06 156.039 221.482C154.973 220.904 154.151 220.073 153.573 218.99C152.995 217.906 152.707 216.588 152.707 215.034C152.707 213.301 152.95 211.684 153.438 210.185C153.926 208.668 154.621 207.35 155.524 206.23C156.427 205.092 157.492 204.208 158.72 203.575C159.949 202.943 161.303 202.627 162.784 202.627C164.229 202.627 165.475 202.916 166.522 203.494C167.588 204.072 168.41 204.903 168.988 205.986C169.583 207.07 169.881 208.388 169.881 209.942C169.881 211.675 169.629 213.301 169.123 214.818C168.635 216.317 167.94 217.635 167.037 218.773C166.152 219.893 165.096 220.768 163.868 221.401C162.639 222.033 161.285 222.349 159.804 222.349ZM160.319 217.96C161.023 217.96 161.637 217.698 162.161 217.175C162.685 216.633 163.118 215.955 163.461 215.143C163.804 214.33 164.057 213.472 164.22 212.569C164.4 211.666 164.491 210.836 164.491 210.077C164.491 208.975 164.283 208.19 163.868 207.72C163.47 207.251 162.937 207.016 162.269 207.016C161.565 207.016 160.951 207.287 160.427 207.829C159.903 208.352 159.47 209.02 159.127 209.833C158.784 210.646 158.522 211.504 158.341 212.407C158.179 213.31 158.097 214.14 158.097 214.899C158.097 216.001 158.296 216.786 158.693 217.256C159.109 217.725 159.651 217.96 160.319 217.96Z" fill="#759BD7"/>
<path d="M170.193 227.982H133.359V233.388H170.193V227.982Z" fill="#F0F4F7"/>
<path d="M211.545 434.537H222.295V377.287H211.545V434.537Z" fill="#37539A"/>
<path d="M193.795 434.537H204.545V394.037H193.795V434.537Z" fill="#37539A"/>
<path d="M176.045 434.537H186.795V384.537H176.045V434.537Z" fill="#37539A"/>
<path d="M158.295 434.537H169.045V399.287H158.295V434.537Z" fill="#37539A"/>
<path d="M164.024 393.391L163.317 392.684L181.347 374.654L199.054 385.627L216.528 363.478L217.313 364.097L199.287 386.948L181.494 375.921L164.024 393.391Z" fill="#37539A"/>
<path d="M163.671 394.787C164.638 394.787 165.421 394.003 165.421 393.037C165.421 392.07 164.638 391.287 163.671 391.287C162.705 391.287 161.921 392.07 161.921 393.037C161.921 394.003 162.705 394.787 163.671 394.787Z" fill="#37539A"/>
<path d="M181.421 377.12C182.388 377.12 183.171 376.336 183.171 375.37C183.171 374.403 182.388 373.62 181.421 373.62C180.455 373.62 179.671 374.403 179.671 375.37C179.671 376.336 180.455 377.12 181.421 377.12Z" fill="#37539A"/>
<path d="M199.171 387.704C200.138 387.704 200.921 386.921 200.921 385.954C200.921 384.988 200.138 384.204 199.171 384.204C198.205 384.204 197.421 384.988 197.421 385.954C197.421 386.921 198.205 387.704 199.171 387.704Z" fill="#37539A"/>
<path d="M216.921 365.87C217.888 365.87 218.671 365.086 218.671 364.12C218.671 363.153 217.888 362.37 216.921 362.37C215.955 362.37 215.171 363.153 215.171 364.12C215.171 365.086 215.955 365.87 216.921 365.87Z" fill="#37539A"/>
<path d="M153.884 295.957H133.809V323.293H153.884V295.957Z" fill="#455157"/>
<path d="M136.856 308.484C136.856 311.246 134.617 313.485 131.855 313.485C129.093 313.485 126.854 311.246 126.854 308.484C126.854 305.722 129.093 303.483 131.855 303.483C134.617 303.483 136.856 305.722 136.856 308.484Z" fill="#E5B498"/>
<path d="M150.233 310.133C150.1 312.892 152.23 315.236 154.988 315.368C157.747 315.5 160.09 313.371 160.223 310.613C160.356 307.854 158.226 305.51 155.468 305.378C152.709 305.245 150.366 307.375 150.233 310.133Z" fill="#E5B498"/>
<path d="M130.143 421.52L131.011 429.457L137.949 428.832L137.511 419.02L130.143 421.52Z" fill="#EBBA9A"/>
<path d="M102.761 419.332L102.828 428.282L109.761 428.832L110.886 419.332H102.761Z" fill="#EBBA9A"/>
<path d="M114.015 434.914C113.693 433.32 113.248 431.772 112.638 430.359C111.709 429.715 110.827 428.983 110.073 428.024C109.725 427.582 109.39 427.081 108.931 426.873C108.585 426.716 108.203 426.743 107.831 426.771C105.829 426.924 103.822 427.021 101.817 427.115C101.82 428.737 101.779 430.481 101.473 432.081C101.364 432.651 100.952 434.47 101.282 435.23L114.015 434.914Z" fill="black"/>
<path d="M127.39 321.597C127.369 321.572 127.347 321.547 127.325 321.523C124.811 318.67 120.833 317.509 117.386 318.623C108.323 321.551 108.659 335.578 107.917 343.826C107.132 352.551 106.308 361.272 105.444 369.988C103.803 386.549 103.081 404.478 101.157 421C102.573 421.744 106.395 422.084 107.988 422.243C110.756 422.519 111.668 422.244 112.553 421.527C114.868 406.489 117.922 390.088 120.614 375.129C122.029 367.265 123.117 363.454 124.635 355.614C125.769 349.759 126.1 343.738 127.513 337.943C128.156 335.306 129.868 332.804 130.1 330.183C130.372 327.106 129.322 323.835 127.39 321.597Z" fill="#2354C1"/>
<path d="M118.237 386.864L114.737 386.172" stroke="#122B72" stroke-width="0.7341" stroke-miterlimit="10" stroke-linecap="round" stroke-linejoin="round"/>
<path d="M118.201 386.855L114.063 388.9" stroke="#122B72" stroke-width="0.7341" stroke-miterlimit="10" stroke-linecap="round" stroke-linejoin="round"/>
<path d="M130.019 434.998C130.067 435.012 130.119 435.02 130.17 435.029C130.572 435.025 130.974 435.028 131.377 435.036C131.48 435.035 131.581 435.037 131.681 435.043C132.161 435.056 132.642 435.073 133.123 435.099C136.87 435.302 140.712 435.877 144.403 435.863C145.693 435.858 147.049 435.787 148.206 435.302C151.196 434.049 147.478 432.595 146.264 431.942C144.989 431.256 143.882 430.608 142.525 430.041C140.804 429.322 139.144 428.423 137.575 427.36C135.435 427.941 133.225 428.209 131.019 428.158C129.887 428.132 128.364 434.511 130.019 434.998Z" fill="black"/>
<path d="M138.77 337.831C138.148 334.162 135.074 321.53 130.874 320.944C128.119 320.56 124.623 321.651 122.777 324.013C121.343 325.846 120.598 328.239 120.305 330.643C119.812 334.682 120.199 338.954 120.457 343.005C120.865 349.429 122.468 361.544 122.468 361.544C122.468 361.544 128.777 408.271 128.638 421.458C131.15 424.768 139.296 421.718 139.318 421.333C139.907 410.938 139.686 393.696 139.688 385.662C139.687 377.013 140.222 346.389 138.77 337.831Z" fill="#365FE5"/>
<path d="M121.984 358.292C121.37 351.787 120.756 345.281 120.142 338.776" stroke="#122B72" stroke-width="0.7341" stroke-miterlimit="10"/>
<path d="M113.603 343.081C116.481 343.866 119.512 344.462 122.477 344.773C128.273 345.381 133.879 344.456 139.266 342.581C139.134 340.651 138.972 339.022 138.77 337.831C138.148 334.162 135.074 321.53 130.874 320.944C129.682 320.778 128.351 320.889 127.075 321.259C124.553 318.603 120.723 317.545 117.386 318.623C109.364 321.214 108.706 332.498 108.146 340.777C109.786 341.861 111.687 342.559 113.603 343.081Z" fill="#2751C4"/>
<path d="M129.475 270.309C129.516 270.679 129.542 271.046 129.561 271.397C129.636 272.805 129.712 274.213 129.787 275.621C129.862 277.033 130.101 278.548 130.014 279.958C129.888 281.981 129.455 283.921 127.569 284.909C126.393 285.489 125.002 285.439 123.814 284.926C122.896 284.53 121.732 283.906 121.369 282.879C121.132 282.206 121.132 281.471 121.136 280.753C121.148 278.402 121.096 276.05 121.191 273.7C121.252 272.189 121.141 270.556 121.792 269.159C122.684 267.242 124.974 265.361 127.101 266.199C128.775 266.857 129.288 268.619 129.475 270.309Z" fill="#E5B498"/>
<path d="M134.599 267.888L134.616 267.861C134.554 267.778 134.497 267.706 134.447 267.646C134.09 267.05 133.822 266.365 133.517 265.747C133.535 265.783 133.24 266.143 133.21 266.213C133.108 266.456 133.083 266.757 133.045 267.017C132.964 267.58 132.939 268.152 132.973 268.72C132.986 268.935 133.011 269.161 133.14 269.333C133.441 269.733 134.493 269.366 134.906 269.306C135.043 269.286 135.204 269.247 135.251 269.118C135.392 268.727 134.834 268.198 134.599 267.888Z" fill="#E5B498"/>
<path d="M120.699 259.727C121.827 258.912 124.414 257.71 127.118 257.777C130.055 257.734 131.681 258.971 132.354 260.661C133.385 263.251 133.805 266.056 133.814 268.834C133.818 270.227 133.719 271.62 133.53 272.999C133.355 274.279 132.779 275.183 131.408 275.418C130.137 275.635 128.848 275.733 127.559 275.752C126.411 275.769 125.031 275.882 123.931 275.546C122.042 274.969 120.95 273.104 120.305 271.362C120.127 270.881 119.763 269.287 119.648 268.794C118.943 265.766 119.512 260.585 120.699 259.727Z" fill="#E5B498"/>
<path d="M131.314 255.954C130.782 254.652 129.413 253.738 128.006 253.747" stroke="#1F2326" stroke-width="0.7341" stroke-miterlimit="10" stroke-linecap="round" stroke-linejoin="round"/>
<path d="M132.566 255.797C132.21 255.61 131.722 255.738 131.503 256.074" stroke="#1F2326" stroke-width="0.7341" stroke-miterlimit="10" stroke-linecap="round" stroke-linejoin="round"/>
<path d="M127.276 272.917C127.395 272.889 127.495 272.843 127.555 272.765C127.739 272.527 127.693 271.691 127.733 271.383C127.848 270.493 127.962 269.603 128.077 268.713C128.149 268.153 128.089 267.678 128.55 267.326C128.966 267.009 129.504 266.885 130.019 266.883C131.854 266.877 132.325 267.092 132.057 265.11C131.93 264.168 131.704 263.205 131.885 262.252C132.001 261.643 132.147 261.528 132.505 261.116C133.078 260.455 133.704 260.234 133.857 259.491C132.734 255.648 129.094 253.44 124.811 254.532C122.944 255.008 120.967 255.682 119.543 256.839C118.879 257.379 118.334 258.024 117.979 258.804C117.891 258.996 117.816 259.201 117.832 259.41C117.845 259.577 117.889 259.727 117.955 259.864C116.827 261.591 117.521 263.896 117.86 265.761C118.098 267.068 118.5 268.342 119.018 269.564C119.277 270.175 119.567 270.774 119.882 271.358C120.009 271.594 120.63 273.017 120.817 273.026C122.695 273.111 124.577 273.091 126.452 272.965C126.674 272.949 127.019 272.976 127.276 272.917Z" fill="#1F2326"/>
<path d="M128.861 268.734C129.557 269.521 130.721 269.681 131.4 268.78C131.71 268.369 131.813 267.838 131.841 267.325C131.866 266.867 131.835 266.396 131.654 265.975C131.406 265.401 130.87 265.059 130.273 264.933C128.253 264.506 127.83 267.569 128.861 268.734Z" fill="#E5B498"/>
<path d="M129.71 266.212C129.751 265.946 130.106 265.827 130.353 265.935C130.6 266.043 130.75 266.295 130.857 266.542C131.036 266.953 131.144 267.396 131.175 267.844C130.947 267.764 130.667 267.9 130.589 268.128C130.511 268.356 130.649 268.635 130.878 268.712" stroke="#1F2326" stroke-width="0.466" stroke-miterlimit="10" stroke-linecap="round"/>
<path d="M132.471 263.523C132.941 263.329 133.458 263.249 133.965 263.29" stroke="#1F2326" stroke-width="0.466" stroke-miterlimit="10" stroke-linecap="round"/>
<path d="M133.997 265.738C134.039 266.091 133.787 266.41 133.434 266.452C133.081 266.494 132.762 266.242 132.72 265.889C132.678 265.537 132.93 265.217 133.283 265.175C133.636 265.134 133.955 265.386 133.997 265.738Z" fill="#1F2326"/>
<path d="M132.505 271.223C132.737 271.218 133.253 271.157 133.474 271.128" stroke="#1F2326" stroke-width="0.466" stroke-miterlimit="10" stroke-linecap="round"/>
<path d="M114.821 317.349H108.656C105.159 317.349 102.325 314.514 102.325 311.018C102.325 307.521 105.16 304.687 108.656 304.687H114.821C118.318 304.687 121.152 307.522 121.152 311.018C121.152 314.514 118.318 317.349 114.821 317.349Z" fill="#DD7314"/>
<path d="M111.37 284.412C106.711 289.829 102.473 301.66 102.031 308.716C101.921 310.467 102.245 312.301 103.273 313.723C104.301 315.145 106.12 316.061 107.838 315.708C109.656 315.335 110.94 313.722 111.86 312.111C113.353 309.498 115.526 302.894 116.114 300.045C116.774 296.852 118.213 293.845 118.785 290.584C119.141 288.555 121.045 279.036 116.402 280.285C115.615 280.497 114.94 280.998 114.312 281.518C113.243 282.404 112.263 283.373 111.37 284.412Z" fill="#DD7314"/>
<path d="M119.137 279.554L120.865 276.817L130.156 276.529L132.389 279.698L119.137 279.554Z" fill="white"/>
<path d="M139.173 320.371L137.29 283.58C137.024 283.583 137.31 280.738 136.398 280.191C135.104 279.416 131.574 278.865 130.585 278.674L120.817 278.762C119.605 278.912 117.954 279.382 116.545 279.836C114.828 280.39 113.58 281.884 113.381 283.642L112.021 302.451L110.153 320.054L105.745 333.348C107.354 334.927 109.194 336.269 111.252 337.314C111.871 337.628 112.504 337.905 113.142 338.166C113.142 338.166 122.17 341.798 130.584 339.932C132.158 339.727 133.714 339.448 135.234 339.107C138.489 338.376 139.132 337.904 142.248 336.597L139.173 320.371Z" fill="#FF901B"/>
<path d="M150.761 317.349H144.596C141.1 317.349 138.265 314.514 138.265 311.018C138.265 307.521 141.1 304.687 144.596 304.687H150.761C154.258 304.687 157.092 307.522 157.092 311.018C157.092 314.514 154.257 317.349 150.761 317.349Z" fill="#FF901B"/>
<path d="M140.987 284.98C143.328 288.427 144.721 292.956 146.153 296.851C147.57 300.708 149.995 305.756 149.902 309.93C149.867 311.489 149.249 313.096 147.999 314.027C146.697 314.997 144.914 315.097 143.334 314.721C138.651 313.607 137.353 309.605 135.888 305.64C134.105 300.815 132.869 295.412 132.573 290.277C132.452 288.167 131.641 278.237 136.288 280.119C137.076 280.438 137.712 281.037 138.298 281.648C139.295 282.691 140.19 283.806 140.987 284.98Z" fill="#FF901B"/>
<path d="M138.854 311.806C135.254 304.449 134.812 301.781 134.059 299.183" stroke="#D87012" stroke-width="0.8075" stroke-miterlimit="10"/>
<path d="M134.952 302.555C134.423 301.713 133.893 300.871 133.364 300.029" stroke="#D87012" stroke-width="0.8075" stroke-miterlimit="10"/>
<path d="M261.631 316.261C253.086 317.95 252.854 327.769 253.596 334.797C255.164 349.641 259.478 384.783 259.478 384.783L267.693 427.896L273.435 428.216L270.387 384.592C270.387 384.592 271.843 352.81 273.304 341.739C275.671 326.233 272.984 314.017 261.631 316.261Z" fill="#2354C1"/>
<path d="M273.789 426.763C271.503 427.021 269.873 427.006 267.592 426.708C267.589 426.708 267.586 426.707 267.583 426.707C267.088 426.642 266.601 426.874 266.33 427.293C266.165 427.547 266.006 427.785 265.848 427.984C265 429.052 263.877 429.659 262.568 429.96C262.522 429.977 262.481 430.003 262.434 430.018C260.876 430.213 259.454 431.01 259.277 432.501H273.637C274.14 430.561 274.379 428.523 273.789 426.763Z" fill="black"/>
<path d="M273.901 432.275H259.273V434.162H273.901V432.275Z" fill="#F7F7F7"/>
<path d="M263.137 316.514C254.441 316.015 251.763 325.464 250.727 332.455C248.538 347.22 244.956 382.473 244.956 382.473L248.123 427.947L254.114 427.711L257.461 382.713C257.461 382.713 263.896 354.454 268.076 344.099C274.24 329.678 274.691 317.178 263.137 316.514Z" fill="#365FE5"/>
<path d="M254.619 426.763C252.333 427.021 250.703 427.006 248.422 426.708C248.122 426.669 247.815 426.625 247.521 426.694C247.255 426.756 247.018 426.905 246.785 427.047C244.589 428.385 241.461 429.318 238.932 429.785C237.477 430.053 235.91 430.204 234.754 431.129C234.339 431.461 233.998 432.012 234.047 432.501H254.467C254.97 430.561 255.208 428.523 254.619 426.763Z" fill="black"/>
<path d="M254.425 432.275H233.569V434.162H254.425V432.275Z" fill="#F7F7F7"/>
<path d="M264.222 269.047C264.271 268.062 264.205 267.082 264.014 266.127C265.469 266.618 266.988 266.655 268.473 266.256C269.203 266.059 269.904 265.768 270.588 265.447C270.832 265.333 271.271 264.975 271.675 264.751C270.787 268.03 270.857 271.452 272.886 274.269C271.352 275.597 269.355 276.28 267.359 276.62C265.645 276.912 261.543 277.184 262.529 274.298C262.852 273.354 263.544 272.629 263.818 271.649C264.053 270.806 264.179 269.921 264.222 269.047Z" fill="#E5B498"/>
<path d="M268.193 266.321C266.797 266.644 265.378 266.587 264.014 266.127C264.205 267.081 264.27 268.062 264.222 269.047C264.179 269.921 264.054 270.806 263.818 271.65C263.793 271.738 263.762 271.822 263.731 271.907C263.9 271.886 264.069 271.857 264.238 271.824C266.177 270.517 267.508 268.53 268.193 266.321Z" fill="#AE6E59"/>
<path d="M260.079 262.886C260.197 262.913 260.315 262.93 260.429 262.935C260.789 262.95 260.747 262.499 260.727 262.238C260.673 261.549 260.672 260.828 260.558 260.148C260.309 260.407 260.207 260.722 260.002 261.009C259.734 261.384 259.462 261.755 259.192 262.128C259.155 262.179 259.116 262.234 259.108 262.297C259.088 262.446 259.236 262.559 259.37 262.626C259.581 262.732 259.831 262.829 260.079 262.886Z" fill="#E5B498"/>
<path d="M272.996 262.612C273.605 261.187 273.923 259.642 273.878 258.097C273.829 256.424 273.281 254.746 272.212 253.459C270.653 251.581 267.995 250.691 265.619 251.251C265.009 251.395 264.423 251.633 263.882 251.948C262.56 252.717 261.025 254.263 260.808 255.858C260.759 256.216 260.832 256.558 260.764 256.921C260.662 257.459 260.548 257.992 260.465 258.533C260.299 259.61 260.205 260.704 260.256 261.794C260.315 263.07 260.472 264.362 260.974 265.536C261.476 266.712 262.272 267.506 263.241 268.01C265.06 268.956 267.257 268.66 268.963 267.523C270.739 266.339 272.149 264.592 272.996 262.612Z" fill="#E5B498"/>
<path d="M260.77 264.27C261.02 264.381 261.27 264.492 261.52 264.603" stroke="#373B44" stroke-width="0.4725" stroke-miterlimit="10" stroke-linecap="round"/>
<path d="M238.739 285.844C238.859 285.206 239.339 284.648 239.952 284.434C240.585 284.213 241.657 284.211 241.868 283.575C241.973 283.256 242.078 283.137 241.823 282.92C241.567 282.703 241.224 282.614 240.889 282.593C239.86 282.53 238.818 283.108 238.329 284.016C238.179 284.295 237.961 284.66 237.657 284.571C237.513 284.529 237.419 284.39 237.361 284.252C237.003 283.413 237.498 282.475 237.978 281.699C238.355 281.089 238.758 280.453 239.382 280.099C240.082 279.702 240.937 279.728 241.739 279.783C243.361 279.895 245.06 280.018 246.43 280.983C246.789 281.236 247.117 281.53 247.476 281.784C248.395 282.436 249.482 282.802 250.551 283.159C250.217 284.317 249.883 285.476 249.549 286.634C249.532 286.694 249.511 286.759 249.457 286.792C249.401 286.826 249.329 286.812 249.265 286.796C247.297 286.315 245.025 285.913 243.052 285.604C241.637 285.423 240.138 285.603 238.739 285.844Z" fill="#E5B498"/>
<path d="M262.606 286.24C261.577 285.751 260.476 285.321 259.341 284.932C257.391 284.264 255.34 283.716 253.381 283.199C252.639 283.003 249.796 282.289 249.032 282.168C246.9 283.904 246.298 285.064 246.298 287.629C248.546 289.132 254.007 292.21 256.485 293.391C257.873 294.053 259.251 294.746 260.775 295.202C262.299 295.658 264.007 295.864 265.58 295.517C266.402 295.336 267.212 294.971 267.572 294.378C267.796 294.009 267.825 293.59 267.812 293.183C267.719 290.407 265.697 287.709 262.606 286.24Z" fill="#C47A7A"/>
<path d="M225.561 297.967C224.717 296.468 224.521 294.594 225.142 292.989C225.372 292.395 225.758 291.8 226.365 291.607C227.094 291.375 227.892 291.817 228.353 292.427C228.814 293.037 229.031 293.791 229.326 294.497C229.644 295.26 230.061 295.982 230.563 296.639C231.084 297.321 231.719 297.98 231.87 298.825C231.989 299.496 231.759 300.219 231.274 300.697C229.47 302.473 226.435 299.519 225.561 297.967Z" fill="#E5B498"/>
<path d="M245.886 296.874L234.984 302.159L220.561 289.067L231.464 283.782L245.886 296.874Z" fill="#E1AB3D"/>
<path d="M244.105 296.328L234.741 300.867L222.28 289.555L231.643 285.017L244.105 296.328Z" fill="white"/>
<path d="M233.066 287.41L225.285 291.182L224.526 290.493L232.307 286.721L233.066 287.41Z" fill="#CCDBF5"/>
<path d="M237.042 291.018L229.26 294.79L228.501 294.101L236.283 290.329L237.042 291.018Z" fill="#CCDBF5"/>
<path d="M238.359 292.214L230.577 295.986L229.818 295.297L237.6 291.525L238.359 292.214Z" fill="#CCDBF5"/>
<path d="M239.676 293.409L231.894 297.181L231.135 296.492L238.917 292.72L239.676 293.409Z" fill="#CCDBF5"/>
<path d="M240.993 294.605L233.211 298.376L232.452 297.687L240.234 293.916L240.993 294.605Z" fill="#CCDBF5"/>
<path d="M242.31 295.8L234.528 299.572L233.769 298.883L241.551 295.111L242.31 295.8Z" fill="#CCDBF5"/>
<path d="M231.179 286.082L224.637 289.253L221.854 286.726L228.395 283.555L231.179 286.082Z" fill="#373B44"/>
<path d="M226.691 296.771C226.582 296.898 226.482 297.033 226.394 297.175C225.57 298.499 227.165 299.73 228.18 300.444C230.486 302.066 233.302 302.843 235.975 303.622C237.485 304.062 241.855 302.985 240.649 300.613C239.825 298.994 237.386 298.062 235.783 297.629C234.119 297.317 232.696 296.624 232.072 294.937C231.795 294.187 231.683 293.386 231.439 292.625C231.379 292.438 231.306 292.245 231.16 292.113C231.014 291.981 230.775 291.931 230.621 292.053C230.534 292.122 230.489 292.23 230.451 292.335C229.984 293.637 230.822 294.601 229.219 295.365C228.686 295.619 228.102 295.759 227.586 296.044C227.247 296.23 226.943 296.478 226.691 296.771Z" fill="#E5B498"/>
<path d="M274.97 328.785C274.97 328.785 275.341 328.635 275.624 328.498C277.181 327.697 277.707 325.67 277.862 323.883C278.216 319.78 276.913 315.918 277.071 311.58C277.238 306.99 278.31 302.27 278.957 297.33C279.521 293.022 279.74 288.365 278.773 283.927C278.05 280.612 277.059 276.928 275.035 274.34C274.057 273.088 272.282 272.591 270.915 272.26C269.207 271.846 267.42 271.886 265.714 272.4C263.503 273.066 261.462 274.517 259.877 276.505C258.672 278.017 258.074 280.584 257.459 282.507C256.071 286.844 255.111 291.323 254.599 295.648C254.062 300.186 254.716 298.733 254.483 303.195C254.251 307.662 255.538 311.214 253.244 314.933C252.037 316.89 250.501 318.594 249.735 320.722C248.984 322.809 249.227 325.542 250.993 326.895C250.892 327.689 250.771 328.478 250.699 329.264C254.251 330.991 258.954 331.366 262.75 331.709C266.22 332.023 269.714 332.036 273.197 331.756C274.207 331.756 274.984 331.545 274.984 331.545L274.97 328.785Z" fill="#F99595"/>
<path d="M274.767 328.846C269.768 329.416 264.711 329.191 259.786 328.176" stroke="#373B44" stroke-width="0.2856" stroke-miterlimit="10" stroke-linecap="round"/>
<path d="M264.492 286.811C264.247 286.335 263.945 285.868 263.499 285.572C263.024 285.257 262.429 285.17 261.859 285.195C259.365 285.306 257.391 287.342 256.058 289.454C254.725 291.565 253.699 293.951 251.799 295.571C248.484 298.399 237.32 297.592 233.612 296.767C231.678 296.94 229.467 299.496 230.607 302.156C235.578 304.34 250.568 312.311 255.995 309.727C257.887 308.827 259.295 307.261 260.457 305.486C261.128 304.461 261.718 303.365 262.27 302.288C263.507 299.875 264.694 297.401 265.262 294.749C265.832 292.097 265.735 289.22 264.492 286.811Z" fill="#EFAFAF"/>
<path d="M266.699 277.833C265.043 276.071 262.203 275.882 260.204 277.136C259.035 277.869 258.441 279.384 257.838 280.585C257.099 282.056 256.468 283.582 255.954 285.146C255.422 286.764 255.015 288.42 254.516 290.049C253.699 292.717 252.634 295.315 252.022 298.038C251.41 300.761 251.276 303.685 252.3 306.281C253.763 309.989 258.643 308.019 260.817 305.956C262.689 304.179 263.587 301.636 264.421 299.193C265.259 296.739 266.096 294.286 266.934 291.832C267.641 289.761 268.451 287.021 268.597 284.368C268.732 281.916 268.301 279.539 266.699 277.833Z" fill="#EFAFAF"/>
<path d="M253.392 294.398C254.306 288.915 256.925 282.485 259.524 277.572" stroke="#D18484" stroke-miterlimit="10"/>
<path d="M268.386 288.581C267.315 291.462 266.245 294.343 265.174 297.225C264.405 299.295 263.675 301.939 262.216 303.647C260.764 305.347 259.41 307.206 257.629 308.604C255.897 309.964 254.425 310.371 252.233 310.156" stroke="#D18484" stroke-miterlimit="10"/>
<path d="M269.551 289.346C268.588 289.896 267.782 290.717 267.251 291.691" stroke="#D18484" stroke-miterlimit="10"/>
<path d="M235.985 288.087L234.7 288.784L235.352 287.475L243.103 279.449C243.272 279.274 243.55 279.269 243.725 279.438C243.9 279.607 243.905 279.885 243.736 280.06L235.985 288.087Z" fill="#373B44"/>
<path d="M261.079 260.958C260.657 260.617 260.261 260.25 259.923 259.825C257.773 257.125 259.165 254.137 260.887 251.734C262.805 249.057 266.46 247.591 269.682 247.771C271.521 247.874 273.269 248.468 274.573 249.797C275.177 250.412 275.623 251.067 275.813 251.924C275.87 252.179 276.051 254.188 275.637 254.229C278.813 253.915 278.653 260.824 278.623 262.715C278.546 267.546 278.469 272.378 278.392 277.209C278.364 278.95 278.289 280.829 277.211 282.195C276.146 283.544 274.246 284.075 272.561 283.738C270.876 283.4 269.413 282.295 268.376 280.925C267.494 279.761 266.43 278.023 266.402 276.52C266.371 274.833 266.6 273.093 266.594 271.388C266.585 268.436 266.007 265.273 263.919 263.186C263.069 262.336 262.01 261.711 261.079 260.958Z" fill="#1F2326"/>
<path d="M429.751 360.767L422.356 361.659L423.248 369.053L430.642 368.161L429.751 360.767Z" fill="#ECB781"/>
<path d="M463.268 434.261C462.564 434.261 461.904 433.827 461.649 433.128L416.597 309.755L371.703 433.128C371.377 434.022 370.389 434.482 369.494 434.157C368.6 433.832 368.139 432.842 368.465 431.948L414.978 304.129C415.226 303.449 415.872 302.996 416.597 302.996C417.322 302.996 417.968 303.449 418.216 304.129L464.887 431.948C465.214 432.842 464.752 433.832 463.858 434.157C463.663 434.228 463.464 434.261 463.268 434.261Z" fill="#37539A"/>
<path d="M422.191 321.803H396.66C395.709 321.803 394.937 321.031 394.937 320.08C394.937 319.128 395.709 318.357 396.66 318.357H422.191C423.142 318.357 423.914 319.129 423.914 320.08C423.914 321.032 423.142 321.803 422.191 321.803Z" fill="#37539A"/>
<path d="M428.764 340.591H404.431C403.48 340.591 402.708 339.819 402.708 338.868C402.708 337.917 403.48 337.145 404.431 337.145H428.764C429.715 337.145 430.487 337.917 430.487 338.868C430.487 339.819 429.715 340.591 428.764 340.591Z" fill="#37539A"/>
<path d="M401.746 340.591H378.439C377.528 340.591 376.788 339.819 376.788 338.868C376.788 337.917 377.527 337.145 378.439 337.145H401.746C402.657 337.145 403.397 337.917 403.397 338.868C403.396 339.819 402.657 340.591 401.746 340.591Z" fill="#37539A"/>
<path d="M435.335 359.379H411.002C410.051 359.379 409.279 358.607 409.279 357.656C409.279 356.704 410.051 355.933 411.002 355.933H435.335C436.286 355.933 437.058 356.705 437.058 357.656C437.059 358.608 436.287 359.379 435.335 359.379Z" fill="#37539A"/>
<path d="M396.66 359.379H372.327C371.376 359.379 370.604 358.607 370.604 357.656C370.604 356.704 371.376 355.933 372.327 355.933H396.66C397.612 355.933 398.383 356.705 398.383 357.656C398.383 358.608 397.611 359.379 396.66 359.379Z" fill="#37539A"/>
<path d="M441.907 378.166H417.574C416.622 378.166 415.851 377.394 415.851 376.443C415.851 375.492 416.623 374.72 417.574 374.72H441.907C442.858 374.72 443.63 375.492 443.63 376.443C443.63 377.394 442.858 378.166 441.907 378.166Z" fill="#37539A"/>
<path d="M420.187 366.427C418.891 367.858 417.789 369.505 416.161 370.581C415.37 371.104 415.192 371.614 414.515 372.279C418.874 373.406 423.424 373.789 427.91 373.406C429.203 373.295 430.653 373.027 431.376 371.95C432.079 370.902 431.816 369.507 431.527 368.278C431.267 367.174 430.914 365.943 429.918 365.399C429.451 365.144 428.906 365.082 428.376 365.046C425.633 364.858 422.032 364.39 420.187 366.427Z" fill="black"/>
<path d="M431.684 375.448C431.237 375.645 430.68 375.722 430.064 375.739C425.454 375.862 420.779 375.844 416.167 375.795C414.751 375.78 413.327 375.773 411.915 375.641C411.314 375.584 410.616 375.51 410.122 375.122C409.374 374.534 409.424 373.467 410.068 372.826C410.976 371.922 414.853 369.88 416.127 370.627C416.296 370.726 416.425 370.881 416.575 371.009C416.94 371.321 417.416 371.465 417.882 371.58C420.225 372.159 422.642 372.176 425.013 371.767C426.495 371.512 427.405 371.6 428.665 370.778C429.112 370.487 431.91 368.897 431.663 368.19C432.281 369.956 432.764 371.673 432.77 373.565C432.774 374.591 432.353 375.153 431.684 375.448Z" fill="black"/>
<path d="M389.506 378.166H365.174C364.222 378.166 363.451 377.394 363.451 376.443C363.451 375.492 364.223 374.72 365.174 374.72H389.506C390.457 374.72 391.229 375.492 391.229 376.443C391.229 377.394 390.457 378.166 389.506 378.166Z" fill="#37539A"/>
<path d="M448.478 396.954H424.145C423.194 396.954 422.422 396.182 422.422 395.231C422.422 394.28 423.194 393.508 424.145 393.508H448.478C449.43 393.508 450.201 394.28 450.201 395.231C450.201 396.182 449.43 396.954 448.478 396.954Z" fill="#37539A"/>
<path d="M382.906 396.954H358.573C357.621 396.954 356.85 396.182 356.85 395.231C356.85 394.28 357.622 393.508 358.573 393.508H382.906C383.857 393.508 384.629 394.28 384.629 395.231C384.629 396.182 383.858 396.954 382.906 396.954Z" fill="#37539A"/>
<path d="M455.05 415.742H430.718C429.767 415.742 428.995 414.97 428.995 414.019C428.995 413.068 429.767 412.296 430.718 412.296H455.05C456.001 412.296 456.773 413.068 456.773 414.019C456.774 414.97 456.001 415.742 455.05 415.742Z" fill="#37539A"/>
<path d="M376.141 415.742H351.808C350.857 415.742 350.085 414.97 350.085 414.019C350.085 413.068 350.857 412.296 351.808 412.296H376.141C377.093 412.296 377.864 413.068 377.864 414.019C377.864 414.97 377.092 415.742 376.141 415.742Z" fill="#37539A"/>
<path d="M416.471 306.442H390.94C389.989 306.442 389.217 305.67 389.217 304.719C389.217 303.767 389.989 302.996 390.94 302.996H416.471C417.423 302.996 418.194 303.768 418.194 304.719C418.194 305.67 417.423 306.442 416.471 306.442Z" fill="#37539A"/>
<path d="M437.207 434.121C436.504 434.121 435.843 433.687 435.588 432.988L390.704 309.755L345.704 433.128C345.377 434.022 344.388 434.482 343.495 434.157C342.601 433.832 342.14 432.842 342.466 431.948L389.085 304.129C389.333 303.449 389.979 302.996 390.704 302.996C391.429 302.996 392.075 303.449 392.323 304.129L438.826 431.808C439.153 432.702 438.691 433.692 437.797 434.017C437.602 434.087 437.403 434.121 437.207 434.121Z" fill="#60A2F4"/>
<path d="M420.843 233.639L409.86 219.555L418.649 210.638L432.576 223.885L420.843 233.639Z" fill="#D36D11"/>
<path d="M441.683 361.18H434.235V368.628H441.683V361.18Z" fill="#ECB781"/>
<path d="M433.244 367.232C432.948 367.623 432.649 368.043 432.314 368.476C431.545 369.469 430.39 370.331 429.158 370.644C427.768 370.996 427.576 371.233 426.51 372.28C430.869 373.407 435.419 373.79 439.905 373.407C441.716 373.252 443.496 372.808 443.081 370.6C442.902 369.649 442.724 368.699 442.545 367.748C442.41 367.028 442.274 366.308 442.139 365.588C441.971 364.693 437.897 364.805 437.212 364.836C435.173 364.93 434.233 365.922 433.244 367.232Z" fill="black"/>
<path d="M435.925 375.786C432.948 375.786 430.018 375.77 427.051 375.541C426.21 374.652 426.806 373.078 427.852 372.441C428.897 371.804 430.188 371.791 431.403 371.642C433.512 371.383 435.562 370.654 437.361 369.523C438.381 368.882 439.354 368.099 440.525 367.814C443.917 366.991 443.743 370.736 443.634 372.999C443.602 373.672 443.594 374.568 443.092 375.097C442.497 375.723 441.375 375.734 440.585 375.769C439.035 375.837 437.475 375.79 435.925 375.786Z" fill="black"/>
<path d="M422.422 283.019C422.422 283.019 423.408 306.344 428.759 318.075C434.11 329.805 432.771 362.86 432.771 362.86H443.13C443.13 362.86 443.545 330.047 442.774 322.395C442.004 314.744 440.39 282.107 440.39 282.107L422.422 283.019Z" fill="#304573"/>
<path d="M417.896 285.645C417.896 285.645 412.069 318.579 414.624 326.005C417.179 333.431 421.172 362.86 421.172 362.86L430.86 361.555C430.86 361.555 426.162 321.986 426.039 320.261C425.916 318.536 442.411 280.555 442.411 280.555L417.896 285.645Z" fill="#344B7E"/>
<path d="M428.025 286.887C423.87 287.596 420.252 290.046 416.778 292.435C418.114 286.689 419.45 280.943 420.786 275.198C420.861 274.876 435.058 273.179 436.12 273.707C439.625 275.45 440.026 284.003 440.74 287.751C436.532 288.183 432.25 286.166 428.025 286.887Z" fill="#304573"/>
<path d="M418.087 207.733L416.46 210.804C416.053 211.572 416.61 212.497 417.479 212.497H419.008L418.087 207.733Z" fill="#ECB781"/>
<path d="M417.749 206.611C417.639 204.249 417.21 200.36 419.243 198.596C421.065 197.016 424.382 197.576 426.227 198.726C428.306 200.022 429.68 202.236 430.437 204.566C431.194 206.896 431.397 209.364 431.595 211.805C431.922 215.831 432.249 219.858 432.576 223.884C432.51 223.073 426.492 226.892 426.059 227.374C425.216 226.723 423.792 226.941 422.718 226.888C423.723 224.727 423.594 222.197 423.132 219.871C423.055 219.485 422.946 219.075 422.644 218.823C422.245 218.49 421.666 218.548 421.15 218.483C416.773 217.934 417.877 209.35 417.749 206.611Z" fill="#ECB781"/>
<path d="M416.727 232.944C415.542 236.822 415.601 240.867 414.805 244.809C414.292 247.35 416.891 258.008 416.974 261.513C416.995 262.413 416.58 263.256 416.274 264.103C414.848 268.047 415.315 272.31 415.557 276.401C415.706 278.915 413.703 285.851 415.889 287.626C417.271 288.748 425.643 286.32 427.631 286.116C432.649 285.602 437.098 286.235 441.991 287.142C444.413 281.146 442.353 276.419 441.485 270.184C440.483 262.99 440.368 255.672 441.159 248.451C441.76 242.967 442.871 237.373 441.627 231.998C440.832 228.563 439.761 225.336 435.981 224.223C435.891 223.259 435.8 222.295 435.71 221.331C431.299 220.018 426.497 220.045 422.101 221.41C422.407 221.315 421.955 224.616 421.81 224.938C421.372 225.907 420.548 226.474 419.828 227.252C418.324 228.876 417.372 230.834 416.727 232.944Z" fill="#FF901B"/>
<path d="M423.8 228.075C423.523 235.506 424.761 241.213 421.985 248.112C421.116 250.27 418.65 258.938 416.779 257.555C416.242 257.16 414.109 247.068 414.74 245.631C416.655 241.274 421.003 231.992 423.8 228.075Z" fill="#D38838"/>
<path d="M414.573 193.97C414.759 194.149 414.656 195.894 414.718 196.245C414.739 196.369 414.759 196.493 414.794 196.611C414.939 197.404 415.18 198.169 415.504 198.907C415.559 199.031 415.614 199.148 415.67 199.252C416.456 200.734 417.387 200.473 419.118 200.831C420.835 201.19 421.938 202.831 422.849 204.334C423.159 204.851 423.477 205.368 423.766 205.899C424.387 207.002 424.918 208.147 425.18 209.381C425.959 209.029 427.069 208.098 427.78 208.884C429.394 210.67 427.249 211.732 425.856 212.111C426.139 212.111 426.739 216.131 427.249 216.414C427.477 216.545 427.745 216.573 428.001 216.6C428.939 216.703 429.877 216.8 430.808 216.903C431.422 216.965 432.049 217.027 432.642 216.868C434.821 216.275 437.145 212.503 438.007 210.593C438.572 209.338 438.931 207.987 439.076 206.614C439.248 204.897 439.097 203.138 438.586 201.483C438.303 200.559 437.903 199.649 437.241 198.945C436.876 198.559 436.427 198.242 435.931 198.055C435.531 197.903 435.097 197.834 434.662 197.883C435.427 193.022 426.656 192.242 423.608 193.132C422.077 193.58 420.65 194.366 419.098 194.752C417.552 195.15 415.738 195.067 414.573 193.97Z" fill="#1F2326"/>
<path d="M414.794 196.611C414.939 197.404 415.18 198.169 415.504 198.907C415.559 199.031 415.614 199.148 415.67 199.252C416.456 200.734 417.387 200.473 419.118 200.831C420.835 201.19 421.938 202.831 422.849 204.334C423.159 204.851 423.477 205.368 423.766 205.899C428.821 207.037 434.041 207.423 439.075 206.616C439.247 204.899 439.096 203.14 438.585 201.485C438.302 200.561 437.902 199.651 437.24 198.947C436.875 198.561 436.426 198.244 435.93 198.057C429.02 200.135 421.331 199.687 414.794 196.611Z" fill="#1F2326"/>
<path d="M400.456 238.342C397.741 238.656 394.933 238.552 392.242 238.925C389.298 239.333 386.719 240.159 383.673 239.941C382.369 239.848 381.025 239.623 379.942 238.891C377.871 237.491 377.027 234.576 374.448 233.803C372.211 233.132 367.478 234.692 365.385 235.442C365.426 236.589 368.134 236.452 369.215 236.838C369.301 236.869 368.608 238.647 369.501 239.983C370.042 240.792 374.595 243.553 373.752 241.483C374.371 243.003 380.293 244.511 381.676 244.838C385.365 245.711 389.077 246.52 392.842 246.986C399.895 247.86 405.852 246.486 404.754 237.741C403.35 237.973 401.913 238.173 400.456 238.342Z" fill="#ECB781"/>
<path d="M418.797 205.785C418.797 206.346 419.11 206.8 419.496 206.8C419.882 206.8 420.195 206.346 420.195 205.785C420.195 205.224 419.882 204.77 419.496 204.77C419.11 204.77 418.797 205.224 418.797 205.785Z" fill="#1F2326"/>
<path d="M418.396 204.016C418.396 204.016 419.381 203.172 420.843 204.241" stroke="#1F2326" stroke-width="0.3375" stroke-miterlimit="10" stroke-linecap="round"/>
<path d="M421.124 213.551C421.124 213.551 418.668 214.951 417.997 214.349" stroke="#1F2326" stroke-width="0.3375" stroke-miterlimit="10" stroke-linecap="round"/>
<path d="M421.809 224.937C421.809 224.937 421.913 223.93 416.324 226.18C410.735 228.43 400.36 237.372 399.86 236.776C399.36 236.18 399.86 248.112 399.86 248.112C399.86 248.112 419.129 245.18 419.619 244.43C420.11 243.68 424.308 225.68 424.308 225.68L421.809 224.937Z" fill="#FF901B"/>
<path d="M417.48 212.495L411.43 217.955L399.3 199.365L397 195.225C396.82 195.065 396.61 194.815 396.36 194.435C394.99 192.325 387.94 191.635 387.28 190.225C386.61 188.805 389.69 189.555 388.67 188.725C387.64 187.885 382.44 187.555 385.11 184.225C387.13 181.695 390.17 184.085 391.53 185.385C391.82 185.675 392.03 185.905 392.14 186.025C392.19 186.085 392.22 186.115 392.22 186.115L417.48 212.495Z" fill="#ECB781"/>
<path d="M35.1851 236.18L50.5651 212.93L65.9351 236.18H58.4351V254.68H42.6851V236.18H35.1851Z" fill="#7B8FDA"/>
<path d="M444.454 151.055L459.834 127.805L475.204 151.055H467.704V169.555H451.954V151.055H444.454Z" fill="#60A2F4"/>
<path d="M465.972 234.358L477.407 217.072L488.834 234.358H483.258V248.112H471.548V234.358H465.972Z" fill="#96AFE4"/>
<path d="M322.982 119.406L334.417 102.121L345.843 119.406H340.267V133.16H328.558V119.406H322.982Z" fill="white"/>
<path d="M69.2941 134.926L80.7281 117.641L92.1551 134.926H86.5791V148.68H74.8701V134.926H69.2941Z" fill="#F99595"/>
<path d="M431.988 125.004L401.578 125.069C399.556 125.072 397.915 123.435 397.913 121.413C397.91 119.392 399.547 117.75 401.568 117.748L431.978 117.682C434 117.679 435.641 119.316 435.643 121.338C435.647 123.36 434.01 125.002 431.988 125.004Z" fill="#B1DCFB"/>
<path d="M260.272 92.656L198.082 92.722C196.061 92.725 194.419 91.088 194.417 89.066C194.414 87.045 196.051 85.403 198.072 85.4L260.262 85.334C262.283 85.331 263.925 86.968 263.927 88.99C263.931 91.012 262.294 92.654 260.272 92.656Z" fill="#B1DCFB"/>
<path d="M53.4701 184.333L47.6661 184.341C46.1411 184.343 44.9031 183.109 44.9011 181.584L44.8931 176.136C44.8911 174.611 46.1261 173.373 47.6511 173.371L53.4551 173.363C54.9801 173.361 56.2181 174.595 56.2201 176.12L56.2281 181.568C56.2291 183.094 54.9951 184.331 53.4701 184.333Z" fill="#B1DCFB"/>
<path d="M467.548 280.476L462.449 280.483C461.109 280.485 460.022 279.4 460.02 278.061L460.013 273.274C460.011 271.934 461.096 270.847 462.435 270.845L467.534 270.838C468.874 270.836 469.961 271.921 469.963 273.261L469.97 278.047C469.972 279.387 468.887 280.474 467.548 280.476Z" fill="white"/>
<path d="M180.911 136.529H150.614C148.623 136.529 147.009 134.915 147.009 132.925C147.009 130.934 148.623 129.32 150.614 129.32H180.911C182.902 129.32 184.515 130.934 184.515 132.925C184.516 134.916 182.902 136.529 180.911 136.529Z" fill="white"/>
<path d="M59.8 292.951H29.504C27.513 292.951 25.899 291.337 25.899 289.347C25.899 287.356 27.513 285.742 29.504 285.742H59.8C61.791 285.742 63.404 287.356 63.404 289.347C63.405 291.337 61.791 292.951 59.8 292.951Z" fill="#60A2F4"/>
<path d="M296.74 142.879H263.315C260.358 142.879 257.96 140.482 257.96 137.524V108.87C257.96 106.562 259.831 104.692 262.138 104.692H296.74C299.048 104.692 300.918 106.563 300.918 108.87V138.701C300.918 141.008 299.047 142.879 296.74 142.879Z" fill="#60A2F4"/>
<path d="M275.893 132.021C279.537 132.083 283.227 132.133 286.578 131.901C287.639 131.827 288.556 130.142 287.267 129.61C287.809 129.332 288.358 129.064 288.595 128.456C288.819 127.88 288.55 127.1 287.95 126.951C289.214 127.264 289.712 125.258 288.726 124.611C289.248 124.167 289.682 123.579 289.792 122.902C289.902 122.225 289.625 121.462 289.023 121.134C288.628 120.919 288.158 120.911 287.709 120.907C286.193 120.896 284.678 120.884 283.162 120.873C283.572 118.501 283.696 115.917 282.49 113.834C282.127 113.206 281.152 112.454 280.378 112.937C279.652 113.39 279.854 114.515 279.89 115.224C280.042 118.174 278.363 121.142 275.757 122.532C275.757 122.532 275.93 128.816 275.893 132.021Z" fill="#F9F9F9"/>
<path d="M274.571 122.532H269.063V132.013H274.571V122.532Z" fill="#F9F9F9"/>
<path d="M180.173 125.276H151.353C148.462 125.276 146.118 122.932 146.118 120.041V97.957C146.118 95.066 148.462 92.722 151.353 92.722H180.173C183.064 92.722 185.408 95.066 185.408 97.957V120.041C185.408 122.932 183.064 125.276 180.173 125.276Z" fill="#F99595"/>
<path d="M157.206 111.548H152.51V117.727H157.206V111.548Z" fill="#F7F7F7"/>
<path d="M164.476 107.345H159.78V117.727H164.476V107.345Z" fill="#F7F7F7"/>
<path d="M171.746 104.133H167.05V117.727H171.746V104.133Z" fill="#F7F7F7"/>
<path d="M179.015 99.313H174.319V117.727H179.015V99.313Z" fill="#F7F7F7"/>
<path d="M404.117 111.054L431.602 111.246C435.05 111.27 437.865 108.494 437.89 105.046L438.078 78.078C438.102 74.63 435.326 71.815 431.878 71.791L404.393 71.599C400.945 71.575 398.13 74.351 398.106 77.799L397.917 104.767C397.893 108.215 400.669 111.03 404.117 111.054Z" fill="#FF901B"/>
<path d="M403.488 90.748L403.48 91.878C403.475 92.377 403.832 92.807 404.323 92.895L405.655 93.138C405.807 93.72 406.035 94.281 406.332 94.804L405.547 95.916C405.258 96.321 405.303 96.876 405.653 97.23L406.446 98.034C406.795 98.389 407.349 98.441 407.758 98.158L408.847 97.405C409.366 97.71 409.923 97.945 410.503 98.105L410.727 99.436C410.809 99.928 411.233 100.29 411.732 100.293L412.879 100.301C413.378 100.306 413.808 99.95 413.896 99.458L414.139 98.13C414.721 97.978 415.281 97.751 415.805 97.453L416.908 98.238C417.313 98.527 417.868 98.482 418.222 98.132L419.026 97.339C419.381 96.99 419.433 96.436 419.15 96.027L418.38 94.913C418.685 94.394 418.92 93.837 419.08 93.257L420.412 93.032C420.904 92.951 421.266 92.526 421.269 92.027L421.277 90.897C421.281 90.398 420.926 89.968 420.434 89.88L419.106 89.637C418.954 89.055 418.727 88.495 418.43 87.971L419.215 86.868C419.504 86.463 419.459 85.909 419.11 85.554L418.317 84.75C417.968 84.395 417.414 84.343 417.005 84.626L415.895 85.362C415.376 85.058 414.819 84.822 414.239 84.662L414.015 83.331C413.934 82.839 413.509 82.477 413.01 82.474L411.859 82.466C411.368 82.472 410.95 82.825 410.863 83.309L410.624 84.671C410.042 84.823 409.481 85.05 408.958 85.348L407.855 84.563C407.455 84.269 406.901 84.304 406.541 84.647L405.737 85.44C405.382 85.789 405.33 86.343 405.613 86.752L406.383 87.866C406.078 88.385 405.843 88.942 405.683 89.522L404.347 89.746C403.854 89.828 403.493 90.25 403.488 90.748ZM409.33 91.371C409.33 91.365 409.33 91.36 409.33 91.354C409.342 89.669 410.717 88.313 412.402 88.325C414.087 88.337 415.443 89.712 415.431 91.397C415.419 93.082 414.044 94.438 412.359 94.426C410.681 94.414 409.328 93.049 409.33 91.371Z" fill="white"/>
<path d="M421.46 98.031L421.456 98.596C421.454 98.846 421.632 99.06 421.877 99.105L422.543 99.226C422.619 99.517 422.733 99.797 422.881 100.059L422.488 100.615C422.344 100.818 422.366 101.095 422.541 101.272L422.938 101.674C423.113 101.851 423.389 101.877 423.594 101.736L424.138 101.36C424.398 101.512 424.676 101.63 424.966 101.71L425.078 102.376C425.119 102.622 425.331 102.803 425.581 102.804L426.155 102.808C426.405 102.81 426.619 102.632 426.664 102.387L426.785 101.723C427.076 101.647 427.356 101.533 427.618 101.385L428.17 101.778C428.373 101.922 428.65 101.9 428.827 101.725L429.229 101.328C429.406 101.154 429.432 100.877 429.291 100.672L428.906 100.115C429.058 99.855 429.176 99.577 429.256 99.287L429.922 99.175C430.168 99.134 430.349 98.922 430.35 98.672L430.354 98.107C430.356 97.857 430.178 97.643 429.933 97.599L429.269 97.477C429.193 97.186 429.079 96.906 428.931 96.644L429.324 96.092C429.468 95.889 429.446 95.612 429.271 95.435L428.874 95.033C428.699 94.856 428.423 94.83 428.218 94.971L427.663 95.339C427.403 95.187 427.125 95.069 426.835 94.989L426.723 94.323C426.682 94.077 426.47 93.896 426.22 93.895L425.644 93.891C425.398 93.894 425.19 94.071 425.146 94.312L425.026 94.993C424.735 95.069 424.455 95.183 424.193 95.331L423.641 94.938C423.441 94.791 423.164 94.809 422.984 94.98L422.582 95.376C422.405 95.551 422.379 95.827 422.52 96.032L422.905 96.589C422.753 96.849 422.635 97.127 422.555 97.417L421.887 97.529C421.643 97.572 421.462 97.783 421.46 98.031ZM424.381 98.343C424.381 98.34 424.381 98.337 424.381 98.335C424.387 97.493 425.075 96.815 425.917 96.82C426.759 96.826 427.437 97.513 427.432 98.356C427.426 99.198 426.739 99.877 425.896 99.871C425.056 99.864 424.379 99.182 424.381 98.343Z" fill="white"/>
<path d="M420.423 82.925L420.418 83.645C420.415 83.963 420.642 84.237 420.955 84.293L421.804 84.448C421.901 84.819 422.046 85.176 422.235 85.509L421.735 86.217C421.551 86.475 421.579 86.828 421.802 87.054L422.307 87.566C422.529 87.792 422.882 87.825 423.143 87.645L423.836 87.165C424.167 87.359 424.522 87.509 424.891 87.611L425.034 88.459C425.086 88.773 425.356 89.003 425.674 89.005L426.405 89.01C426.723 89.013 426.997 88.786 427.053 88.473L427.208 87.627C427.579 87.53 427.936 87.385 428.269 87.196L428.972 87.696C429.23 87.88 429.583 87.852 429.809 87.629L430.321 87.124C430.547 86.902 430.58 86.549 430.4 86.288L429.91 85.578C430.104 85.247 430.254 84.892 430.356 84.523L431.204 84.38C431.518 84.328 431.748 84.058 431.75 83.74L431.755 83.02C431.758 82.702 431.531 82.428 431.218 82.372L430.372 82.217C430.275 81.846 430.13 81.489 429.941 81.156L430.441 80.453C430.625 80.195 430.597 79.842 430.374 79.616L429.869 79.104C429.646 78.878 429.294 78.845 429.033 79.025L428.326 79.494C427.995 79.3 427.641 79.15 427.271 79.048L427.128 78.2C427.076 77.886 426.806 77.656 426.488 77.654L425.755 77.649C425.442 77.653 425.176 77.878 425.121 78.186L424.969 79.054C424.598 79.151 424.241 79.296 423.908 79.485L423.205 78.985C422.95 78.798 422.597 78.82 422.368 79.039L421.856 79.544C421.63 79.766 421.597 80.119 421.777 80.38L422.267 81.09C422.073 81.421 421.923 81.776 421.821 82.145L420.97 82.288C420.656 82.339 420.426 82.608 420.423 82.925ZM424.144 83.322C424.144 83.318 424.144 83.315 424.144 83.311C424.151 82.238 425.028 81.374 426.101 81.381C427.174 81.388 428.038 82.264 428.031 83.338C428.023 84.411 427.147 85.275 426.074 85.268C425.005 85.26 424.143 84.391 424.144 83.322Z" fill="white"/>
<path d="M300.918 252.826C312.093 252.826 321.152 243.767 321.152 232.592C321.152 221.417 312.093 212.358 300.918 212.358C289.743 212.358 280.684 221.417 280.684 232.592C280.684 243.767 289.743 252.826 300.918 252.826Z" fill="#DD9E10"/>
<path d="M313.42 243.238C319.311 236.332 318.488 225.959 311.583 220.069C304.678 214.178 294.305 215.001 288.414 221.906C282.524 228.811 283.346 239.184 290.252 245.075C297.157 250.965 307.53 250.143 313.42 243.238Z" fill="#F4B516"/>
<path d="M302.226 241.117V243.941H299.705V241.192C297.209 241.041 294.813 240.259 293.426 239.175L294.813 236.099C296.073 237.032 297.889 237.713 299.705 237.889V233.678C296.906 232.997 293.779 232.064 293.779 228.459C293.779 225.786 295.721 223.491 299.705 223.038V220.239H302.226V222.988C304.117 223.139 305.958 223.644 307.345 224.526L306.084 227.627C304.798 226.896 303.487 226.467 302.226 226.316V230.602C305.025 231.258 308.101 232.191 308.101 235.746C308.101 238.368 306.185 240.638 302.226 241.117ZM299.704 229.971V226.391C298.368 226.693 297.838 227.425 297.838 228.257C297.838 229.139 298.595 229.618 299.704 229.971ZM304.041 236.048C304.041 235.165 303.31 234.686 302.226 234.308V237.788C303.486 237.511 304.041 236.855 304.041 236.048Z" fill="#F7F7F7"/>
<path d="M44.652 377.658C44.652 377.658 35.581 374.793 27.518 370.528L27.101 367.171L24.469 368.804C18.247 365.047 13.566 360.474 15.923 355.885C18.322 351.229 23.694 350.371 29.159 352.686L29.559 356.759L32.274 354.344C38.513 358.375 44.127 366.471 44.652 377.658Z" fill="#FC8D2A"/>
<path d="M17.6589 356.756C17.6589 356.756 41.3289 359.324 47.7839 386.812" stroke="#080808" stroke-width="0.833" stroke-miterlimit="10"/>
<path d="M49.608 366.513C49.608 366.513 41.22 356.518 30.725 345.314L32.724 340.375C32.724 340.375 29.509 340.741 26.868 341.091C17.722 330.071 22.287 322.341 24.252 320.176C25.993 318.26 34.981 313.162 44.176 322.183L43.618 327.048H48.158C48.649 327.764 49.133 328.522 49.607 329.339C60.378 347.663 49.608 366.513 49.608 366.513Z" fill="#FC8D2A"/>
<path d="M26.5439 320.175C26.5439 320.175 47.2289 336.348 48.8949 356.756C50.5609 377.163 50.6079 391.601 50.6079 391.601" stroke="#080808" stroke-width="0.833" stroke-miterlimit="10"/>
<path d="M74.73 360.199L71.656 359.674L72.489 362.098C61.128 371.502 59.77 370.536 55.197 376.416C55.197 376.416 50.024 357.566 61.711 346.979L65.135 348.145L64.685 344.705C79.203 335.36 86.733 349.42 74.73 360.199Z" fill="#FC8D2A"/>
<path d="M77.978 344.956C77.978 344.956 55.488 353.91 53.614 388.061" stroke="#080808" stroke-width="0.833" stroke-miterlimit="10"/>
<path d="M71.1059 383.13H30.0159C30.0159 383.13 28.1999 398.831 31.8149 411.934V430.026C31.8149 431.767 32.8309 433.375 34.4059 434.116C35.2139 434.499 35.9719 434.691 36.6719 434.691C37.3549 434.691 37.9799 434.508 38.5209 434.149C40.0789 433.116 40.9869 430.642 41.2359 426.761C43.7679 428.394 46.8419 429.351 50.5569 429.36C54.8719 429.368 58.3279 428.136 61.0939 426.062C61.2769 430.343 62.2019 433.051 63.8429 434.15C64.3929 434.508 65.0179 434.692 65.6919 434.692C66.3999 434.692 67.1579 434.5 67.966 434.117C69.5319 433.376 70.5479 431.768 70.5479 430.027V407.429H70.5229C72.6639 395.491 71.1059 383.13 71.1059 383.13ZM38.0629 433.457C37.2049 434.023 36.0889 433.998 34.7639 433.365C33.4809 432.757 32.6479 431.441 32.6479 430.025V414.607C34.2889 419.33 36.7629 423.52 40.4359 426.202C40.2119 430.942 39.0789 432.782 38.0629 433.457ZM69.7149 430.025C69.7149 431.441 68.8899 432.757 67.6079 433.365C66.2749 433.998 65.1669 434.023 64.3009 433.457C63.2259 432.741 62.0349 430.742 61.9099 425.402C65.8749 422.02 68.2819 416.823 69.7149 411.208V430.025Z" fill="#070707"/>
<path d="M73.328 379.662H27.793V386.603H73.328V379.662Z" fill="#2A2832"/>
<path d="M456.638 378.865C456.638 378.865 453.03 374.586 445.096 369.132V366.633L443.343 367.854C436.826 362.689 437.134 357.524 443.501 356.797C445.319 356.592 447.072 356.853 448.666 357.673L448.517 360.106L451.118 359.509C454.223 362.707 456.368 368.851 456.638 378.865Z" fill="#60A2F4"/>
<path d="M481.261 352.293C480.524 353.337 479.387 354.512 478.016 355.761L474.221 354.624L474.818 358.437C467.965 363.826 458.838 369.327 458.838 369.327C458.428 360.041 460.264 348.937 468.255 344.07L471.052 345.413L470.185 343.064C470.763 342.812 471.378 342.588 472.012 342.393C483.2 339.008 485.652 346.121 481.261 352.293Z" fill="#60A2F4"/>
<path d="M456.442 348.247C456.442 348.247 450.196 345.142 445.096 340.993V337.954L442.961 339.129C439.716 336.024 437.581 332.556 439.148 329.451C440.919 325.945 444.901 325.675 448.639 327.913L448.798 330.85L450.998 329.703C454.895 333.339 457.831 339.856 456.442 348.247Z" fill="#60A2F4"/>
<path d="M479.76 335.25L475.975 334.112V336.704C469.887 338.895 462.41 341.039 462.41 341.039C463.762 333.963 467.044 327.614 473.775 325.572L475.276 327.008L476.292 325.031C476.758 324.966 477.234 324.928 477.728 324.9C487.134 324.435 485.885 332.658 479.76 335.25Z" fill="#60A2F4"/>
<path d="M459.593 332.966C459.593 332.966 453.179 325.834 445.627 318.31L446.681 314.459L442.644 315.382C442.569 315.307 442.486 315.233 442.411 315.158C433.554 306.609 437.917 294.954 451.119 300.082C452.368 300.567 453.478 301.164 454.466 301.872L453.991 305.135L457.254 304.436C463.546 311.979 461.887 325.19 459.593 332.966Z" fill="#60A2F4"/>
<path d="M484.57 312.315C483.908 313.741 482.771 315.121 481.354 316.408L477.839 316.79L478.203 318.888C472.367 322.925 464.992 325.657 464.992 325.657C464.992 325.657 465.141 314.889 472.357 308.008C472.46 307.905 472.562 307.812 472.665 307.728L475.583 308.707L475.331 305.78C481.652 302.236 487.517 305.975 484.57 312.315Z" fill="#60A2F4"/>
<path d="M475.275 380.38H439.147L444.974 417.527V431.308C444.974 431.356 444.984 432.503 445.869 433.326C446.438 433.854 447.218 434.121 448.192 434.121C448.331 434.121 448.474 434.115 448.621 434.105C451.585 433.885 451.481 428.062 451.397 423.383C451.388 422.9 451.381 422.432 451.376 421.985H465.069C465.064 422.432 465.057 422.9 465.048 423.383C464.965 428.062 464.861 433.884 467.825 434.105C467.972 434.116 468.115 434.121 468.254 434.121C469.228 434.121 470.008 433.854 470.577 433.326C471.462 432.504 471.472 431.357 471.472 431.308V418.084L475.275 380.38ZM450.466 423.399C450.535 427.23 450.638 433.02 448.553 433.174C447.656 433.241 446.965 433.065 446.513 432.65C445.924 432.11 445.908 431.314 445.908 431.309V421.986H450.446C450.449 422.437 450.457 422.91 450.466 423.399ZM469.943 432.643C469.491 433.063 468.801 433.238 467.895 433.174C465.81 433.02 465.913 427.23 465.982 423.399C465.991 422.911 465.999 422.438 466.003 421.985H470.541V431.308C470.541 431.316 470.524 432.103 469.943 432.643Z" fill="#070707"/>
<path d="M477.14 377.466H437.05V383.293H477.14V377.466Z" fill="#252728"/>
<path d="M483.433 308.008C483.433 308.008 458.493 318.264 457.211 354.624C455.929 390.985 457.211 396.579 457.211 396.579" stroke="#252728" stroke-width="0.9323" stroke-miterlimit="10"/>
<path d="M440.391 359.13C440.391 359.13 454.713 362.704 456.642 378.864" stroke="#252728" stroke-width="0.9323" stroke-miterlimit="10"/>
<path d="M481.258 343.747C481.258 343.747 456.888 356.178 456.642 381.972" stroke="#252728" stroke-width="0.9323" stroke-miterlimit="10"/>
<path d="M440.391 330.15C440.391 330.15 456.877 335.359 457.212 354.624" stroke="#252728" stroke-width="0.9323" stroke-miterlimit="10"/>
<path d="M442.411 301.947C442.411 301.947 462.197 315.684 459.593 338.574" stroke="#252728" stroke-width="0.9323" stroke-miterlimit="10"/>
<path d="M483.433 328.519C483.433 328.519 458.493 331.005 457.211 357.732" stroke="#252728" stroke-width="0.9323" stroke-miterlimit="10"/>
</g>
<defs>
<clipPath id="clip0_28_2">
<rect width="500" height="500" fill="white"/>
</clipPath>
</defs>
</svg>
