<svg xmlns="http://www.w3.org/2000/svg" fill="none" viewBox="0 0 2400 2200" width="2400" height="2200"><defs><clipPath id="assetClipPath_jJmULx0H"><path d="m0 0 h 728.093 v 695.828 h -728.093 v -695.828 z" id="path_PrZqeS-p" fill="#ffffff" /></clipPath><clipPath id="assetClipPath_G_YpFFub"><path d="m0 0 h 1806.87 v 1572.219 h -1806.87 v -1572.219 z" id="path_nF6Ql1yN" fill="#ffffff" /></clipPath><clipPath id="assetClipPath_4sVHG2DU"><path d="m0 0 h 1278.788 v 708.942 h -1278.788 v -708.942 z" id="path_IRlb6y9h" fill="#ffffff" /></clipPath><clipPath id="assetClipPath_VMs2lidt"><path d="m0 0 h 691.934 v 566.787 h -691.934 v -566.787 z" id="path_nbrYr91M" fill="#ffffff" /></clipPath><clipPath id="assetClipPath_gkMVRe7j"><path d="m0 0 h 1147.48 v 374.609 h -1147.48 v -374.609 z" id="path_ZXJlrTKw" fill="#ffffff" /></clipPath><clipPath id="assetClipPath_sudfuSTr"><path d="m0 0 h 463.598 v 412.356 h -463.598 v -412.356 z" id="path_a7F60DfK" fill="#ffffff" /></clipPath><clipPath id="assetClipPath_kKuz_s9o"><path d="m0 0 h 454.157 v 419.45 h -454.157 v -419.45 z" id="path_beYZwSag" fill="#ffffff" /></clipPath><clipPath id="assetClipPath_jjefkEHV"><path d="m0 0 h 225.548 v 248.121 h -225.548 v -248.121 z" id="path_KVkw8xOS" fill="#ffffff" /></clipPath><clipPath id="assetClipPath_PtXwjShL"><path d="m0 0 h 293.3 v 200.273 h -293.3 v -200.273 z" id="path_vQZrtJvJ" fill="#ffffff" /></clipPath><clipPath id="assetClipPath_GOidient"><path d="m0 0 h 332.266 v 353.626 h -332.266 v -353.626 z" id="path_6pPWVkEm" fill="#ffffff" /></clipPath></defs><g transform="translate(40 1219) rotate(7.445916081552449 364 347.5)" data-asset-index="0"><g clip-path="url(#assetClipPath_jJmULx0H)" transform="scale(0.9998722690645289 0.9988100507596706)" data-asset-index="0"><defs>
    <linearGradient id="linearGradient_gzFU95yz" x1="1024.316" y1="1062.89" x2="723.893" y2="1133.578" gradientTransform="translate(-805.753 -822.182) rotate(-7.523)" gradientUnits="userSpaceOnUse">
      <stop offset="0" stop-color="#FFD74C" />
      <stop offset="1" stop-color="#FFF0C2" />
    </linearGradient>
    <linearGradient id="linearGradient_knDwRn6v" x1="662.434" y1="1178.626" x2="989.242" y2="1178.626" gradientTransform="translate(-805.753 -822.182) rotate(-7.523)" gradientUnits="userSpaceOnUse">
      <stop offset="0" stop-color="#FFD74C" />
      <stop offset="1" stop-color="#E0B122" />
    </linearGradient>
    <linearGradient id="linearGradient_Z2PMbPH_" x1="633.682" y1="1351.777" x2="1257.391" y2="1622.518" gradientTransform="translate(-805.753 -822.182) rotate(-7.523)" gradientUnits="userSpaceOnUse">
      <stop offset="0" stop-color="#FF92C4" />
      <stop offset="1" stop-color="#D62978" />
    </linearGradient>
    <linearGradient id="linearGradient_bOrg5bpN" x1="1247.998" y1="1106.079" x2="820.727" y2="1517.741" gradientTransform="translate(-805.753 -822.182) rotate(-7.523)" gradientUnits="userSpaceOnUse">
      <stop offset="0" stop-color="#FF92C4" />
      <stop offset="1" stop-color="#FFCFE7" />
    </linearGradient>
  </defs><g id="qyErhepb9mZkH-xPLYSyW">
    <polygon points="389.874 324.273 369.194 399.153 295.13 148.413 311.482 69.329 389.874 324.273" fill="#D62978" id="b6I_RWMdCKv8uWhQfzpuz" />
    <path d="M369.194,400.653c-.664,0-1.25-.437-1.438-1.075l-74.063-250.74c-.07-.237-.08-.487-.03-.729l16.352-79.084c.139-.671.714-1.162,1.398-1.195.656-.031,1.303.402,1.504,1.058l78.392,254.945c.084.273.089.565.013.84l-20.68,74.879c-.179.646-.764,1.095-1.433,1.101h-.014ZM296.675,148.349l72.47,245.345,19.166-69.397-76.544-248.937-15.092,72.99Z" fill="#071838" id="HZE1g-XIuMy7iYhmNChiz" />
  </g><g id="qdYbvlZGangrQpqBKZZGi">
    <g id="GbI3mvY1Wf6LCNPIHDqIy">
      <path d="M259.475,1.5l74.273,249.153L7.294,151.365C52.406,56.785,156.926,7.997,259.475,1.5Z" fill="url(#linearGradient_gzFU95yz)" id="KNwWGZ8aAeQAFGYFK-S1V" />
      <path d="M333.749,252.153c-.146,0-.293-.021-.437-.065L6.858,152.8c-.418-.127-.76-.43-.936-.83-.176-.399-.169-.856.019-1.251,21.269-44.59,57.638-82.153,105.176-108.628C154.452,17.957,205.721,3.403,259.38.003c.688-.046,1.332.399,1.532,1.068l74.273,249.153c.158.529.012,1.103-.38,1.492-.285.284-.667.437-1.058.437ZM9.405,150.439l322.108,97.966L258.379,3.075C169.384,9.018,57.877,50.811,9.405,150.439Z" fill="#071838" id="G3BHhZqhGmOlWb_07WepN" />
    </g>
    <g id="XRh9xDlvd-stb46s3WgHm">
      <polygon points="333.749 250.653 315.122 326.606 1.5 230.937 7.294 151.365 333.749 250.653" fill="url(#linearGradient_knDwRn6v)" id="JuQhdHVlM-IKRVO4kRitb" />
      <path d="M315.122,328.106c-.146,0-.294-.021-.438-.065L1.063,232.372c-.67-.204-1.109-.845-1.059-1.543l5.794-79.572c.033-.455.271-.87.647-1.128s.85-.331,1.285-.198l326.454,99.288c.762.232,1.21,1.019,1.021,1.792l-18.627,75.953c-.099.4-.357.743-.716.946-.228.13-.483.196-.741.196ZM3.083,229.852l310.959,94.857,17.911-73.034L8.654,153.346l-5.571,76.505Z" fill="#071838" id="UAVUz4x6X8xP9lrZcic4r" />
    </g>
  </g><g id="odK4A8-165tjAa5jGWF8">
    <path d="M705.381,475.681l-33.843,70.236c-8.635,17.92-19.772,34.838-33.244,50.405-77.34,89.45-212.006,113.871-324.327,88.612-132.043-28.477-259.532-128.027-278.137-265.995-1.424-11.029-2.037-22.056-1.853-33.064-.289-11.131,7.066-81.2,7.867-93.553-12.384,164.758,140.771,291.548,292.263,323.567,134.837,31.189,306.777-7.811,371.275-140.208" fill="url(#linearGradient_Z2PMbPH_)" id="RFsZZQIasB9rzMV5R82mq" />
    <path d="M399.279,695.778c-28.84,0-57.817-3.123-85.642-9.38-67.709-14.602-132.449-47.378-182.283-92.288-54.674-49.271-88.22-109.775-97.012-174.97-1.423-11.028-2.051-22.225-1.866-33.289-.192-7.326,2.851-39.388,5.295-65.151,1.102-11.608,2.069-21.804,2.459-26.871.037-.541.076-1.078.117-1.619.062-.823.767-1.457,1.601-1.384.823.058,1.445.77,1.392,1.593-.03.457-.068.993-.115,1.602-10.957,159.754,139.141,288.263,291.192,320.4,134.747,31.17,304.959-6.715,369.61-139.387l.002-.005c.004-.008,0,.002.003-.005.362-.744,1.258-1.053,2.003-.693.744.361,1.056,1.256.697,2.001l-33.843,70.236c-8.708,18.071-19.965,35.141-33.461,50.736-36.58,42.308-88.388,72.668-149.82,87.797-28.888,7.114-59.53,10.678-90.329,10.678ZM40.169,327.187c-2.22,23.458-4.866,52.038-4.694,58.649-.182,10.983.438,22.035,1.841,32.911,19.562,145.058,157.284,238.91,276.966,264.721,125.465,28.216,252.196-6.379,322.877-88.127,13.322-15.396,24.435-32.243,33.026-50.075l17.962-37.277c-32.007,45.922-80.297,80.355-141.558,100.566-65.706,21.676-143.276,24.882-212.822,8.796-78.033-16.493-153.971-57.468-208.314-112.413-29.137-29.46-51.294-61.918-65.855-96.471-11.112-26.369-17.609-53.589-19.429-81.28Z" fill="#071838" id="aeqVbxt7zYFUx_idniERA" />
  </g><g id="nEM3O5e_upSVX5d2I6jO3">
    <path d="M311.482,69.329c126.665-8.029,249.227,37.154,333.745,125.082,79.543,81.238,111.374,207.013,46.863,305.005-45.669,70.103-123.194,110.583-210.609,122.779-141,19.575-295.945-37.959-382.574-149.945-54.918-70.323-76.7-166.362-39.092-248.479l330.059,100.502-78.392-254.945Z" fill="url(#linearGradient_bOrg5bpN)" id="JalXYG_852SXpAN-Etmft" />
    <path d="M426.03,627.49c-127.122.005-254.018-58.284-328.31-154.322-28.109-35.995-46.968-77.655-54.533-120.474-8.026-45.422-2.747-90.219,15.265-129.548.313-.683,1.083-1.029,1.801-.811l327.357,99.68-77.562-252.247c-.135-.439-.062-.916.199-1.293.262-.378.681-.615,1.14-.645,62.559-3.964,125.945,5.249,183.297,26.649,58.528,21.839,109.542,55.11,151.624,98.89,40.424,41.285,68.073,93.49,77.847,146.99,10.578,57.907-.077,113.193-30.812,159.879-43.395,66.612-118.562,110.452-211.654,123.44-18.441,2.56-37.062,3.809-55.658,3.81ZM60.637,225.59c-34.399,76.423-19.34,170.454,39.452,245.737,84.529,109.271,237.71,169.3,381.186,149.382,92.217-12.866,166.64-56.233,209.558-122.112,69.097-104.956,24.239-230.709-46.677-303.137-83.49-86.858-203.924-132.256-330.68-124.75l77.831,253.124c.163.53.021,1.107-.371,1.5-.394.393-.971.536-1.499.376L60.637,225.59Z" fill="#071838" id="Cep0NXKyrwj36d8fDdgKA" />
  </g></g></g><g transform="translate(472 419)" data-asset-index="1"><g clip-path="url(#assetClipPath_G_YpFFub)" transform="scale(1.0006253908692935 1.0004967501346822)" data-asset-index="1"><defs>
    <linearGradient id="linearGradient_mEYtz_MK" x1="1191.454" y1="-4.022" x2="683.447" y2="1356.556" gradientUnits="userSpaceOnUse">
      <stop offset="0" stop-color="#E9ECFF" />
      <stop offset="1" stop-color="#C5C9E8" />
    </linearGradient>
    <linearGradient id="linearGradient_BmR6hFs4" x1="363.388" y1="-148.872" x2="1408.117" y2="1456.875" gradientUnits="userSpaceOnUse">
      <stop offset="0" stop-color="#FFFFFF" />
      <stop offset="1" stop-color="#E9ECFF" />
    </linearGradient>
  </defs><g id="F2K01cIlC7duEVcQqYTM4">
    <path d="M1316.939,1566.322L80.193,1178.619c-14.594-4.532-26.466-14.188-34.899-27.067-5.553-8.481-28.665-41.844-28.665-41.844-3.836-17.406,13.474-24.307,19.434-43.891L322.305,125.301c15.115-49.665,60.845-85.649,102.609-80.33l1298.971,165.447c14.867,1.894,26.885-8.095,38.227-.997,0,0,18.43,27.851,24.824,36.286,17.555,23.161,23.625,55.069,13.605,88.567l-344.152,1150.521c-18.309,61.208-82.077,99.342-139.45,81.528Z" fill="url(#linearGradient_mEYtz_MK)" id="DM2r7mF8wv7wgxSXH0Tf" />
    <path d="M1346.102,1572.223c-10.028,0-19.982-1.479-29.608-4.469,0,0-.002,0-.004,0L79.745,1180.05c-14.437-4.482-26.785-14.054-35.706-27.676-5.479-8.369-28.412-41.479-28.643-41.812-.111-.161-.19-.341-.232-.531-2.38-10.799,2.975-17.941,8.644-25.503,4.132-5.512,8.405-11.21,10.82-19.147L320.87,124.864c7.407-24.339,22.26-46.189,41.821-61.528,19.67-15.424,41.839-22.478,62.413-19.854l1298.971,165.447c6.062.772,11.659-.524,17.072-1.779,7.568-1.752,14.718-3.409,21.761.999.182.114.337.265.455.444.184.278,18.476,27.907,24.768,36.208,18.564,24.492,23.611,57.26,13.847,89.902l-344.152,1150.521c-9.425,31.509-31.365,58.39-60.194,73.75-16.486,8.783-34.116,13.249-51.53,13.249ZM1317.387,1564.89c25.571,7.939,53.569,4.897,78.834-8.564,28.126-14.985,49.533-41.214,58.73-71.961l344.152-1150.521c9.487-31.716,4.616-63.51-13.363-87.23-6.007-7.924-22.748-33.149-24.695-36.087-5.906-3.537-12.084-2.107-19.222-.453-5.407,1.252-11.537,2.67-18.128,1.832L424.725,46.459c-40.802-5.196-86.098,30.369-100.984,79.279L37.499,1066.254c-2.569,8.442-7.203,14.621-11.29,20.074-5.641,7.522-10.108,13.481-8.176,22.772,2.125,3.069,23.268,33.614,28.516,41.631,8.534,13.032,20.322,22.181,34.089,26.455l1236.749,387.704Z" fill="#071838" id="kA515AolTaXMoNbqBjeah" />
  </g><g id="TWlJlNeHsgNwtKh7wI7V9">
    <path d="M1289.309,1520.237L50.788,1135.669c-39.79-12.355-59.347-62.803-44.13-112.801L292.9,82.351c15.115-49.665,60.845-85.649,102.609-80.33l1298.971,165.447c60.127,7.658,94.815,63.147,76.656,123.856l-344.152,1150.521c-18.309,61.208-80.301,96.207-137.674,78.392Z" fill="url(#linearGradient_BmR6hFs4)" id="SL4aKz30z0E4lMMixYKXU" />
    <path d="M1319.909,1526.388c-10.441,0-20.882-1.563-31.044-4.719L50.343,1137.102c-19.667-6.107-35.167-21.439-43.646-43.173-8.417-21.575-8.941-46.968-1.475-71.498L291.465,81.915c7.407-24.339,22.259-46.189,41.821-61.528,19.67-15.424,41.838-22.478,62.412-19.853l1298.971,165.447c28.826,3.671,52.888,18.278,67.752,41.129,15.668,24.086,19.273,54.147,10.151,84.644l-344.152,1150.521c-9.295,31.074-29.739,56.353-57.565,71.179-16.102,8.579-33.522,12.935-50.946,12.935ZM1289.754,1518.804c26.352,8.18,54.652,5.342,79.69-7.998,27.114-14.446,47.038-39.09,56.102-69.391l344.152-1150.521c8.866-29.639,5.388-58.813-9.792-82.149-14.376-22.1-37.679-36.23-65.616-39.789L395.319,3.509c-40.791-5.194-86.098,30.368-100.984,79.278L8.093,1023.304c-14.955,49.139,4.397,98.902,43.14,110.933l1238.521,384.567Z" fill="#071838" id="AZySxwNFZQP4RMX1KJy5b" />
  </g><g id="hSs4SWn0gtc2LEYhsxO1P">
    <path d="M1447.048,1376.269c-.137,0-.275-.019-.413-.058L22.923,969.514c-.796-.228-1.258-1.058-1.03-1.854.228-.797,1.06-1.254,1.854-1.03l1423.712,406.697c.796.228,1.258,1.058,1.03,1.854-.188.659-.789,1.088-1.441,1.088Z" fill="#071838" id="EY-Dpnr5RMDscTFUK6l-_" />
    <path d="M1523.287,1121.399c-.121,0-.243-.015-.366-.045L86.351,761.275c-.804-.201-1.292-1.017-1.09-1.819.202-.804,1.013-1.291,1.82-1.091l1436.57,360.079c.804.201,1.292,1.017,1.09,1.82-.171.681-.782,1.135-1.454,1.135Z" fill="#071838" id="iuEi8lx4Wavp2iasr_Wgw" />
    <path d="M1599.395,866.966c-.105,0-.212-.011-.319-.034L149.689,553.328c-.81-.175-1.324-.974-1.149-1.783.176-.809.972-1.327,1.784-1.148l1449.387,313.604c.81.175,1.324.974,1.149,1.783-.152.702-.774,1.183-1.465,1.183Z" fill="#071838" id="x4wIu_8Jfv4C0psXuToQI" />
    <path d="M1675.372,612.971c-.09,0-.181-.008-.271-.024L212.939,345.671c-.814-.149-1.354-.93-1.206-1.745.149-.816.934-1.355,1.745-1.206l1462.162,267.276c.814.149,1.354.931,1.206,1.745-.132.724-.764,1.23-1.474,1.23Z" fill="#071838" id="K14G68K8oea-IxDOIzplI" />
    <path d="M1751.219,359.411c-.074,0-.149-.005-.224-.017L276.1,138.304c-.819-.123-1.384-.887-1.261-1.706.123-.82.887-1.386,1.706-1.261l1474.895,221.09c.819.123,1.384.887,1.261,1.706-.111.744-.751,1.278-1.481,1.278Z" fill="#071838" id="mS-9sOde3Jbs-t9ehuesY" />
    <path d="M1263.322,1513.668c-.143,0-.288-.021-.431-.063-.793-.237-1.244-1.073-1.006-1.867L1665.806,163.569c.237-.793,1.073-1.244,1.868-1.006.793.238,1.244,1.074,1.006,1.868l-403.921,1348.168c-.195.649-.791,1.069-1.437,1.069Z" fill="#071838" id="qkjEAgCBeWdfPE0NB9vs" />
    <path d="M1034.502,1442.618c-.143,0-.288-.021-.432-.063-.793-.238-1.243-1.074-1.005-1.868L1425.956,133.019c.238-.793,1.071-1.246,1.868-1.005.793.238,1.243,1.075,1.005,1.868l-392.89,1307.667c-.195.649-.791,1.068-1.436,1.068Z" fill="#071838" id="wzMJLeOJ04xYJpMq170iq" />
    <path d="M818.987,1375.699c-.143,0-.289-.021-.433-.063-.793-.239-1.243-1.076-1.004-1.869L1199.991,104.237c.239-.793,1.072-1.243,1.869-1.003.793.239,1.243,1.076,1.004,1.869l-382.441,1269.529c-.195.648-.791,1.067-1.436,1.067Z" fill="#071838" id="A7zbonhPX39p3o4IpNdQE" />
    <path d="M615.647,1312.561c-.144,0-.29-.021-.434-.064-.793-.239-1.242-1.076-1.002-1.869L986.738,77.074c.239-.793,1.076-1.242,1.87-1.002.793.24,1.242,1.077,1.002,1.87l-372.527,1233.553c-.196.648-.792,1.066-1.436,1.066Z" fill="#071838" id="RBYyuaGz_7YsJoHuYGjLR" />
    <path d="M423.481,1252.892c-.144,0-.29-.021-.435-.064-.793-.24-1.241-1.077-1.001-1.87L785.157,51.399c.24-.792,1.076-1.241,1.87-1.001.793.24,1.241,1.077,1.001,1.87l-363.112,1199.559c-.196.648-.791,1.065-1.435,1.065Z" fill="#071838" id="AADyBD3Zn1G960e_lcwCH" />
    <path d="M241.59,1196.415c-.144,0-.291-.021-.436-.064-.793-.24-1.24-1.078-1-1.871L594.312,27.09c.241-.792,1.076-1.242,1.871-1,.793.241,1.24,1.078,1,1.871L243.025,1195.35c-.197.647-.792,1.064-1.435,1.064Z" fill="#071838" id="Qw6-ogBrgHlNRBS6rZIm" />
    <path d="M69.174,1142.878c-.145,0-.292-.021-.437-.064-.792-.241-1.24-1.079-.999-1.872L413.37,4.043c.241-.792,1.079-1.241,1.872-.999.792.241,1.24,1.079.999,1.872L70.608,1141.814c-.197.647-.792,1.063-1.435,1.063Z" fill="#071838" id="xs6vhMCUSJlPx9qiOcgdW" />
  </g></g></g><g transform="translate(552 1175)" data-asset-index="2"><g clip-path="url(#assetClipPath_4sVHG2DU)" transform="scale(1.0017297628692168 1.0014923646786338)" data-asset-index="2"><defs>
    <linearGradient id="linearGradient_BoYrxqOW" x1="1221.455" y1="694.331" x2="282.313" y2="-105.418" gradientUnits="userSpaceOnUse">
      <stop offset="0" stop-color="#34C488" />
      <stop offset="1" stop-color="#8FE2BE" />
    </linearGradient>
  </defs><g id="E3g8g9SVeA-F7vQPZdP5o">
    <path d="M16.189,343.209c52.827-40.192,127.152-119.524,187.686-102.606,61.656,17.232,58.105,69.225,119.706,86.928,87.185,25.055,207.61-249.861,316.368-223.431,112.202,27.267,73.5,185.754,188.894,216.503,119.175,31.756,210.082-333.074,370.778-298.607,167.747,35.98,11.541,685.448,11.541,685.448L16.189,343.209Z" fill="#34C488" id="rcu7rnLhk2GNoRgX_gBoZ" />
    <path d="M1211.16,708.942c-.146,0-.294-.021-.438-.065L15.751,344.643c-.539-.164-.939-.616-1.039-1.17-.099-.555.12-1.117.568-1.458,10.5-7.989,21.825-17.506,33.814-27.581,23.649-19.872,50.454-42.397,76.955-57.854,30.64-17.871,56.229-23.573,78.229-17.421,31.35,8.762,46.283,26.622,60.724,43.894,14.113,16.88,28.707,34.333,58.991,43.037,40.609,11.677,89.282-43.997,140.811-102.933,57.844-66.159,117.644-134.573,175.498-120.516,56.604,13.756,75.636,61.273,94.04,107.227,18.516,46.23,37.661,94.035,94.885,109.284,54.583,14.54,104.173-57.174,156.679-133.1,30.592-44.238,62.226-89.983,97.136-122.613,39.809-37.207,78.042-51.243,116.892-42.911,18.69,4.009,34.284,15.76,46.347,34.927,20.409,32.428,31.315,86.954,32.414,162.065.878,59.939-4.442,133.101-15.812,217.453-19.353,143.57-49.956,271.544-50.264,272.819-.097.402-.354.746-.713.951-.229.131-.486.198-.745.198ZM19.416,342.623l1190.653,362.918c3.538-14.997,31.662-136.105,49.843-270.993,11.349-84.2,16.659-157.208,15.783-216.996-1.092-74.546-11.843-128.547-31.954-160.5-11.616-18.457-26.566-29.758-44.437-33.591-37.818-8.114-75.177,5.685-114.214,42.17-34.676,32.409-66.216,78.02-96.718,122.128-48.343,69.908-94.255,136.288-144.794,136.296-4.996,0-10.03-.647-15.124-2.005-58.677-15.636-78.106-64.15-96.897-111.067-18.956-47.33-36.86-92.035-91.964-105.426-56.069-13.631-115.274,54.088-172.53,119.574-52.173,59.674-101.456,116.044-143.897,103.841-31.169-8.957-46.062-26.77-60.464-43.995-14.799-17.7-28.777-34.418-59.231-42.93-47.707-13.33-105.782,35.47-152.446,74.684-11.143,9.364-21.713,18.246-31.609,25.893Z" fill="#071838" id="etyZqXo6-xNNx7helG7Z" />
  </g><g id="Bb9oBSWWCBDrFgiKfJROM">
    <path d="M1.5,325.971c52.827-40.192,128.403-120.481,188.937-103.562,61.656,17.232,58.105,69.225,119.706,86.928,87.185,25.055,207.61-249.861,316.368-223.431,112.202,27.267,73.5,185.754,188.894,216.503,119.175,31.756,210.082-333.074,370.778-298.607,167.747,35.98,11.541,685.448,11.541,685.448L1.5,325.971Z" fill="url(#linearGradient_BoYrxqOW)" id="Tn7KbuRTB0qroo8Msr-8F" />
    <path d="M1197.722,690.747c-.146,0-.293-.021-.436-.064L1.064,327.406c-.539-.164-.941-.616-1.04-1.17-.1-.555.12-1.118.568-1.459,10.476-7.971,21.833-17.509,33.858-27.608,47.729-40.085,107.129-89.975,156.391-76.204,31.35,8.762,46.283,26.622,60.725,43.894,14.112,16.88,28.706,34.333,58.99,43.037,40.611,11.669,89.284-43.998,140.812-102.933,57.844-66.159,117.652-134.577,175.497-120.516,56.604,13.756,75.636,61.273,94.04,107.227,18.516,46.23,37.661,94.035,94.885,109.284,54.585,14.547,104.173-57.173,156.679-133.1,30.592-44.238,62.225-89.983,97.136-122.613,39.809-37.207,78.044-51.244,116.892-42.911,18.69,4.009,34.284,15.76,46.347,34.927,20.409,32.428,31.315,86.954,32.415,162.065.877,59.939-4.443,133.101-15.813,217.453-19.353,143.57-49.956,271.544-50.264,272.819-.096.402-.354.746-.713.951-.229.131-.486.198-.745.198ZM4.73,325.383l1191.901,361.965c3.538-14.996,31.662-136.106,49.843-270.994,11.349-84.2,16.658-157.208,15.783-216.996-1.092-74.547-11.843-128.547-31.954-160.5-11.616-18.456-26.566-29.758-44.437-33.591-37.817-8.113-75.177,5.684-114.214,42.17-34.676,32.409-66.216,78.02-96.718,122.128-48.343,69.908-94.254,136.288-144.794,136.296-4.996,0-10.03-.647-15.124-2.005-58.677-15.636-78.106-64.15-96.897-111.067-18.956-47.33-36.86-92.035-91.964-105.426-56.07-13.629-115.274,54.088-172.529,119.574-52.174,59.672-101.453,116.048-143.898,103.841-31.168-8.957-46.062-26.77-60.464-43.995-14.799-17.7-28.777-34.418-59.231-42.93-47.734-13.339-106.463,35.981-153.654,75.613-11.172,9.383-21.771,18.284-31.649,25.917Z" fill="#071838" id="KhOC3Ug9HkMR6fWRWQyDQ" />
  </g><g id="gvZXfrsSXfyei9YKfpA2l">
    <polygon points="16.189 343.209 1.5 325.971 1197.722 689.248 1211.16 707.442 16.189 343.209" fill="#189960" id="T612p_67mAhyWkosJtiBP" />
    <path d="M1211.16,708.942c-.146,0-.293-.021-.438-.065L15.751,344.643c-.274-.083-.518-.244-.704-.462L.358,326.943c-.432-.507-.478-1.237-.113-1.795.365-.557,1.053-.809,1.691-.613l1196.222,363.277c.31.094.579.285.771.545l13.437,18.194c.385.52.393,1.229.019,1.757-.286.404-.746.634-1.225.634ZM17.046,341.902l1190.212,362.783-10.447-14.146L5.961,328.893l11.085,13.009Z" fill="#071838" id="nMq_cCp3pXcFuSh1FviDu" />
  </g></g></g><g transform="translate(536 464)" data-asset-index="3"><g clip-path="url(#assetClipPath_VMs2lidt)" transform="scale(1.0029858339090145 1.003904464993022)" data-asset-index="3"><defs>
    <linearGradient id="linearGradient_TzRrkKdq" x1="178.007" y1="68.226" x2="581.956" y2="563.604" gradientUnits="userSpaceOnUse">
      <stop offset="0" stop-color="#FFD74C" />
      <stop offset="1" stop-color="#E0B122" />
    </linearGradient>
    <linearGradient id="linearGradient_Oij-6WRx" x1="139.07" y1="29.318" x2="534.707" y2="493.111" gradientUnits="userSpaceOnUse">
      <stop offset="0" stop-color="#FFF0C2" />
      <stop offset="1" stop-color="#FFD74C" />
    </linearGradient>
    <linearGradient id="linearGradient_8tc077JX" x1="115.433" y1="-3.689" x2="516.62" y2="469.877" gradientUnits="userSpaceOnUse">
      <stop offset="0" stop-color="#FFFFFF" />
      <stop offset="1" stop-color="#FFF0C2" />
    </linearGradient>
  </defs><g id="Gc6ByF99RhHlk-aDk-8hp">
    <path d="M513.795,563.778l-423.612-89.47c-27.716-5.854-43.912-30.606-36.387-55.33L148.522,107.727c7.524-24.721,36.336-41.431,64.572-37.291l431.549,63.278c32.298,4.736,52.101,30.289,43.964,57.036l-102.455,336.76c-8.139,26.75-40.65,42.963-72.355,36.267Z" fill="url(#linearGradient_TzRrkKdq)" id="iWlAJ21UDoyzPc2bLacnD" />
    <path d="M528.251,566.786c-4.88,0-9.831-.499-14.766-1.541l-423.611-89.471c-14.426-3.047-26.625-11.438-33.468-23.021-6.153-10.415-7.59-22.565-4.045-34.212L147.087,107.291c7.719-25.362,37.435-42.561,66.224-38.338l431.549,63.278c17.615,2.583,32.388,11.43,40.528,24.274,6.625,10.452,8.277,22.769,4.652,34.683l-102.455,336.76c-7.079,23.269-32.07,38.839-59.334,38.839ZM514.105,562.31c31.04,6.555,62.706-9.254,70.609-35.236l102.457-336.76c3.365-11.065,1.833-22.501-4.317-32.204-7.672-12.105-21.68-20.456-38.43-22.912l-431.549-63.278c-27.381-4.016-55.614,12.241-62.919,36.243L55.231,419.414c-3.296,10.833-1.962,22.131,3.759,31.813,6.416,10.861,17.899,18.739,31.504,21.612l423.611,89.471Z" fill="#071838" id="OhOQHrye4tNlBKIoiuJoP" />
  </g><g id="fLfG9LnFFrxfTH7tFgqU">
    <path d="M483.991,524.391l-419.558-86.61c-27.461-5.669-43.484-30.166-36-54.76L122.661,73.412c7.484-24.591,36.056-41.329,64.031-37.356l427.408,60.704c31.976,4.542,51.553,29.812,43.461,56.407l-101.874,334.84c-8.092,26.598-40.308,42.864-71.697,36.384Z" fill="url(#linearGradient_Oij-6WRx)" id="J9MTXFcvRPydYKB9tLbUN" />
    <path d="M497.935,527.313c-4.711,0-9.485-.47-14.247-1.453l-419.559-86.61c-14.252-2.942-26.316-11.18-33.099-22.6-6.139-10.338-7.571-22.437-4.031-34.066L121.227,72.976c7.679-25.229,37.148-42.459,65.676-38.404l427.409,60.703c17.391,2.47,31.989,11.146,40.052,23.803,6.606,10.372,8.252,22.633,4.633,34.526l-101.873,334.84c-7.071,23.244-32.04,38.868-59.188,38.869ZM178.443,36.977c-24.418,0-47.797,15.354-54.347,36.872L29.868,383.458c-3.29,10.812-1.962,22.056,3.742,31.661,6.353,10.697,17.697,18.421,31.126,21.193l419.559,86.61c4.572.944,9.164,1.396,13.687,1.396,25.856.002,49.582-14.76,56.272-36.748l101.872-334.84c3.36-11.042,1.835-22.421-4.293-32.042-7.591-11.917-21.421-20.098-37.943-22.444L186.481,37.542c-2.678-.38-5.365-.564-8.038-.564Z" fill="#071838" id="wBiw0mAieA9JyQ4WkJkqy" />
  </g><g id="zZ8uSgrQkLinykbPkac-w">
    <g id="n4GwXJG4fBcbCPzzIXLr3">
      <path d="M454.522,485.447L38.954,401.641c-27.209-5.487-43.064-29.734-35.618-54.199L97.072,39.457C104.517,14.995,132.852-1.77,160.57,2.04l423.333,58.182c31.66,4.351,51.013,29.344,42.968,55.788l-101.298,332.941c-8.047,26.447-39.971,42.764-71.05,36.497Z" fill="url(#linearGradient_8tc077JX)" id="C69oeufEAopv1VZJerxrg" />
      <path d="M467.965,488.287c-4.547,0-9.149-.443-13.74-1.369L38.657,403.111c-14.082-2.84-26.015-10.927-32.736-22.187-6.126-10.262-7.554-22.308-4.02-33.919L95.638,39.021C103.275,13.923,132.487-3.333,160.774.554l423.333,58.182c17.171,2.359,31.599,10.867,39.583,23.34,6.589,10.292,8.228,22.498,4.615,34.37l-101.299,332.941c-7.063,23.218-32.008,38.899-59.041,38.899ZM454.819,483.977c30.401,6.129,61.504-9.776,69.318-35.463l101.299-332.941c3.352-11.018,1.835-22.34-4.272-31.88-7.511-11.732-21.166-19.746-37.465-21.986L160.365,3.526c-26.883-3.694-54.631,12.621-61.858,36.368L4.771,347.88c-3.284,10.792-1.961,21.981,3.727,31.507,6.289,10.535,17.498,18.111,30.754,20.784l415.567,83.806Z" fill="#071838" id="uGxi8YX5IlEIgnAJMk-eg" />
    </g>
    <g id="jaKleAv1cd6Mp-z0NBY4U">
      <g id="NTw16-Ig5EWoYusl-__v">
        <g id="H7rdytpGSRmZLCDCR0USK">
          <polygon points="101.974 374.978 46.839 364.191 95.092 205.641 150.636 215.081 101.974 374.978" fill="#FFD74C" id="HVGaKqbh6x5QQxGr4q0_H" />
          <path d="M101.975,376.478c-.096,0-.192-.009-.289-.028l-55.135-10.787c-.416-.082-.779-.336-.998-.7-.218-.364-.272-.803-.148-1.209l48.253-158.55c.22-.722.946-1.166,1.686-1.042l55.544,9.44c.425.072.799.324,1.025.69s.284.813.158,1.225l-48.662,159.897c-.194.642-.785,1.063-1.434,1.063ZM48.758,363.038l52.175,10.208,47.772-156.972-52.562-8.933-47.385,155.697Z" fill="#071838" id="H_hrzLyQB8opPj9lBrOrr" />
        </g>
        <g id="M4dTDEK4yPRSh4HCbcn">
          <polygon points="191.835 392.559 135.182 381.475 172.12 260.1 229.09 270.138 191.835 392.559" fill="#FFD74C" id="NIUN1IOmzwZFLRUkAWb_2" />
          <path d="M191.836,394.059c-.096,0-.192-.009-.289-.028l-56.652-11.084c-.416-.082-.779-.336-.998-.7-.218-.364-.272-.803-.148-1.209l36.938-121.375c.22-.726.942-1.176,1.695-1.041l56.97,10.039c.423.074.793.327,1.018.692s.281.811.156,1.221l-37.255,122.421c-.194.642-.785,1.063-1.434,1.063ZM137.102,380.322l53.692,10.505,36.368-119.505-53.994-9.514-36.066,118.515Z" fill="#071838" id="dCSLhlOo-L9LR6RcHoulF" />
        </g>
        <g id="VC0OuXVpnaiVV-SnNAmju">
          <polygon points="284.199 410.63 225.964 399.237 272.631 245.882 331.272 255.936 284.199 410.63" fill="#FFD74C" id="vBOljdaaNs3WcoYAgHr07" />
          <path d="M284.199,412.13c-.096,0-.192-.009-.289-.028l-58.234-11.394c-.416-.082-.779-.336-.998-.7-.218-.364-.272-.803-.148-1.209l46.667-153.354c.22-.723.939-1.168,1.688-1.042l58.641,10.054c.424.073.797.324,1.022.691.227.366.284.812.158,1.224l-47.073,154.694c-.194.642-.785,1.063-1.434,1.063ZM227.883,398.084l55.274,10.814,46.184-151.771-55.66-9.543-45.798,150.5Z" fill="#071838" id="G9sG-L-Hph7wTq6hNiorj" />
        </g>
        <g id="n6aCEujHRVGf4mxWeH9J">
          <polygon points="379.17 429.211 319.287 417.495 382.224 210.665 442.662 220.549 379.17 429.211" fill="#FFD74C" id="PkV56_6F5pW_VDQWv1Qpy" />
          <path d="M379.171,430.712c-.096,0-.192-.009-.289-.028l-59.883-11.716c-.416-.082-.779-.336-.998-.7-.218-.364-.272-.803-.148-1.209l62.937-206.831c.219-.718.933-1.163,1.677-1.044l60.438,9.884c.427.07.803.321,1.031.688s.287.815.161,1.229l-63.491,208.663c-.194.642-.785,1.063-1.434,1.063ZM321.206,416.342l56.923,11.137,62.598-205.727-57.45-9.396-62.07,203.985Z" fill="#071838" id="LYFidbAXmQ1ETFWhA-Pes" />
        </g>
        <g id="iUj-77BtVq6ZvLMCf1k72">
          <polygon points="476.861 448.325 415.258 436.272 492.994 180.791 555.292 190.549 476.861 448.325" fill="#FFD74C" id="tTAxLd6_Gf0r1r4wB8GGp" />
          <path d="M476.862,449.825c-.096,0-.192-.009-.289-.028l-61.603-12.053c-.416-.082-.779-.336-.998-.7-.218-.364-.272-.803-.148-1.209l77.736-255.481c.218-.715.933-1.16,1.667-1.045l62.298,9.757c.429.067.808.317,1.038.685.231.368.291.818.164,1.233l-78.431,257.776c-.195.642-.786,1.063-1.435,1.063ZM417.177,435.119l58.643,11.474,77.535-254.83-59.305-9.289-76.873,252.645Z" fill="#071838" id="BBawMmN9k6vZqtI5Y4epq" />
        </g>
      </g>
      <g id="SJCON2-PlJpNbj9hBrVX">
        <path d="M128.629,75.037l1.923-6.319,18.486,2.74,5.039-16.557,7.284,1.06-5.045,16.576,18.631,2.761-1.936,6.361-18.626-2.779-5.033,16.538-7.271-1.104,5.028-16.52-18.48-2.758Z" fill="#071838" id="ElhXj2UGOPnuma9ZULqWt" />
        <path d="M178.748,95.895c-2.203-4.02-2.536-8.554-.998-13.607l8.075,1.205c-.726,3.567-.758,6.234-.096,8,1.138,3.163,4.334,5.14,9.595,5.935,4.088.618,7.666.15,10.734-1.405,3.07-1.555,5.069-3.857,5.997-6.905,1.144-3.758.636-6.58-1.523-8.466-2.157-1.884-5.556-3.169-10.193-3.854-.518-.077-1.045-.148-1.581-.214-.536-.065-1.081-.126-1.635-.182l1.838-6.04c.782.194,1.443.345,1.982.45.539.106,1.126.205,1.759.298,2.91.428,5.426.374,7.549-.163,3.724-.938,6.144-3.235,7.257-6.891.827-2.716.365-4.97-1.383-6.76-1.748-1.788-4.078-2.893-6.992-3.313-5.185-.748-9.23.254-12.137,3.004-1.6,1.511-2.941,3.8-4.024,6.865l-7.656-1.118c1.23-4.042,3.193-7.346,5.889-9.911,4.695-4.602,11.026-6.334,19.003-5.191,6.32.905,10.843,2.845,13.563,5.819,2.722,2.978,3.369,6.819,1.938,11.521-1.021,3.355-2.877,5.925-5.567,7.706-1.668,1.108-3.626,1.882-5.874,2.32,3.028,1.269,5.12,3.163,6.274,5.684,1.155,2.522,1.237,5.411.247,8.666-1.586,5.212-4.833,9.164-9.735,11.852-4.897,2.685-10.919,3.483-18.058,2.397-7.296-1.11-12.042-3.677-14.247-7.701Z" fill="#071838" id="TjYrno4aFuHHkLoxmKGs0" />
        <path d="M237.969,75.374c-1.678-2.375-2.021-5.19-1.03-8.45,1.24-4.073,3.99-7.331,8.257-9.774,4.27-2.445,9.515-3.224,15.737-2.332,6.028.864,10.341,2.929,12.929,6.198,2.591,3.273,3.323,6.767,2.193,10.479-1.044,3.432-2.89,6.064-5.534,7.896-1.481,1.04-3.572,1.962-6.269,2.768,2.303,1.436,4,2.942,5.091,4.521,2.024,2.975,2.413,6.514,1.166,10.612-1.473,4.842-4.589,8.666-9.342,11.469-4.748,2.8-10.516,3.683-17.297,2.652-6.097-.927-10.804-3.157-14.127-6.687s-4.14-8.035-2.467-13.533c.984-3.232,2.734-5.892,5.252-7.98,2.518-2.088,5.744-3.496,9.679-4.221-1.937-1.137-3.35-2.343-4.239-3.618ZM255.849,103.945c2.943-1.362,4.937-3.757,5.98-7.186,1.082-3.556.657-6.441-1.275-8.652-1.931-2.21-4.842-3.601-8.732-4.176-3.769-.557-7.126-.074-10.073,1.449-2.945,1.521-4.921,3.939-5.929,7.251-.869,2.854-.535,5.483,1.002,7.887,1.538,2.406,4.582,3.953,9.135,4.641,3.653.552,6.951.148,9.892-1.213ZM262.647,76.569c2.479-1.418,4.079-3.306,4.797-5.665.624-2.05.26-4.07-1.091-6.059-1.352-1.987-3.942-3.257-7.77-3.809-3.794-.547-6.796-.086-9.007,1.382-2.211,1.468-3.664,3.352-4.364,5.651-.785,2.58-.309,4.758,1.431,6.534,1.741,1.778,4.099,2.885,7.075,3.322,3.474.51,6.451.058,8.93-1.358Z" fill="#071838" id="McuLQDRH8Kzr8L0VDqoic" />
        <path d="M333.823,66.392l-1.85,6.079c-2.589,1.431-6.245,4.04-10.964,7.824-4.715,3.78-9.132,7.949-13.254,12.508-4.05,4.431-7.344,8.527-9.884,12.289-1.635,2.418-3.995,6.353-7.079,11.803l-8.827-1.34c5.214-10.226,12.842-20.047,22.899-29.471,5.934-5.529,11.83-10.197,17.687-14.004l-35.247-5.093,2.119-6.962,44.399,6.368Z" fill="#071838" id="Whwr7iBtWDTg-mtpx" />
      </g>
    </g>
  </g></g></g><g transform="translate(810 762)" data-asset-index="4"><g clip-path="url(#assetClipPath_gkMVRe7j)" transform="scale(0.999581692055635 1.0010437549551667)" data-asset-index="4"><defs>
    <linearGradient id="linearGradient_4urj1vQF" x1="34.153" y1="179.686" x2="1120.729" y2="212.508" gradientUnits="userSpaceOnUse">
      <stop offset="0" stop-color="#9FBAFC" />
      <stop offset="1" stop-color="#5C7DE5" />
    </linearGradient>
    <linearGradient id="linearGradient_qTmGgNJm" x1="39.608" y1="13.311" x2="1086.453" y2="322.527" gradientUnits="userSpaceOnUse">
      <stop offset="0" stop-color="#FFFFFF" />
      <stop offset="1" stop-color="#9FBAFC" />
    </linearGradient>
  </defs><g id="Op9KwxLVuVRW_PAEdTBCU">
    <path d="M1020.239,371.172L65.675,175.047c-15.673-3.186-28.437-11.583-37.3-23.217-3.754-4.928-11.967-15.846-11.967-15.846-5.845-15.237-3.708-33.841,1.925-52.216h0C31.342,41.33,73.651,12.626,113.249,19.72l961.152,172.191c17.141,3.071,30.904,5.937,42.538,16.017,0,0,10.971,14.114,14.864,19.751,13.595,19.687,18.191,45.064,10.363,70.912h0c-15.005,49.547-70.117,83.111-121.927,72.581Z" fill="url(#linearGradient_4urj1vQF)" id="StMm7xQyKv_SfaBT9oOEi" />
    <path d="M1039.761,374.624c-6.657,0-13.292-.655-19.82-1.982h-.003L65.373,176.516c-15.542-3.159-28.749-11.382-38.191-23.777-3.755-4.932-11.972-15.854-11.972-15.854-.084-.111-.152-.233-.202-.364-5.316-13.857-4.68-31.755,1.891-53.192C30.1,40.261,73.436,11.067,113.514,18.244l961.152,172.19c17.992,3.224,31.627,6.284,43.256,16.36.074.064.142.136.202.213.448.578,11.041,14.212,14.913,19.819,14.326,20.747,18.178,47.062,10.565,72.198-7.396,24.424-24.381,45.615-47.826,59.672-17.503,10.493-36.851,15.927-56.016,15.927ZM1020.538,369.702c50.306,10.228,105.353-22.538,120.193-71.545,7.346-24.258,3.642-49.635-10.163-69.625-3.638-5.269-13.659-18.196-14.723-19.566-11.049-9.519-23.698-12.351-41.709-15.578L112.984,21.197c-38.629-6.919-80.445,21.346-93.217,63.01-6.338,20.681-7.022,37.853-2.032,51.044,1.053,1.4,8.357,11.105,11.834,15.67,8.995,11.81,21.583,19.644,36.405,22.656l954.564,196.125Z" fill="#071838" id="R99bpYv--kz_MqxfImI_" />
  </g><g id="Aio-TB-B-ClKuAGhBPHoM">
    <path d="M1007.69,352.002L52.692,157.903C13.349,149.907-7.662,109.073,5.35,66.624h0C18.358,24.186,60.667-4.517,100.265,2.577l961.152,172.191c52.14,9.341,82.765,57.148,67.765,106.68h0c-15.005,49.547-69.683,81.084-121.493,70.554Z" fill="url(#linearGradient_qTmGgNJm)" id="LgO9lpIaIcotDdGu02xwF" />
    <path d="M1028,355.535c-6.853,0-13.749-.669-20.609-2.063L52.392,159.373c-18.011-3.66-33.071-14.323-42.406-30.023C-.678,111.414-2.891,88.39,3.915,66.184,17.116,23.118,60.46-6.073,100.53,1.1l961.152,172.19c26.233,4.7,47.831,18.957,60.813,40.146,12.45,20.32,15.335,44.628,8.122,68.446-13.224,43.666-56.785,73.649-102.618,73.652ZM88.17,3.011C53.179,3.011,18.258,29.629,6.784,67.063.225,88.463,2.331,110.606,12.565,127.816c8.897,14.964,23.254,25.127,40.425,28.617l954.998,194.099c6.669,1.355,13.387,2.007,20.047,2.007,44.548.004,86.867-29.113,99.712-71.525,6.961-22.987,4.188-46.431-7.809-66.01-12.529-20.447-33.406-34.213-58.785-38.76L100.001,4.054c-3.921-.702-7.877-1.043-11.831-1.043Z" fill="#071838" id="VcGB2BVEWOqOO7gdjx4zL" />
  </g><g id="SOCI7WdAzfTbuXeN7Bwqw">
    <path d="M1016.141,283.846c-2.642,0-5.298-.247-7.941-.76-10.453-2.029-19.045-7.852-24.191-16.394-4.978-8.263-6.111-18.113-3.192-27.737,6.079-20.038,28.188-33.177,49.306-29.274,10.564,1.949,19.261,7.748,24.486,16.329,5.043,8.28,6.203,18.176,3.268,27.863-5.371,17.72-23.128,29.973-41.734,29.973ZM1022.559,211.992c-17.317,0-33.894,11.422-38.872,27.834-2.67,8.801-1.643,17.792,2.892,25.317,4.702,7.806,12.584,13.132,22.193,14.997,19.786,3.841,40.532-8.331,46.232-27.139,2.685-8.858,1.635-17.891-2.958-25.432-4.776-7.842-12.756-13.147-22.47-14.939-2.334-.432-4.684-.639-7.018-.639ZM1056.439,253.437h.01-.01Z" fill="#071838" id="cPRAhmW80u0XpzdQ5-9wM" />
    <path d="M936.087,296.931c-.513,0-1.013-.264-1.293-.737-.421-.714-.184-1.633.529-2.055l49.411-29.172c.712-.418,1.633-.184,2.055.529.421.714.184,1.633-.529,2.055l-49.411,29.172c-.239.141-.502.208-.762.208Z" fill="#071838" id="rGw4Kkb7E1A4IeUVipLmd" />
  </g><path d="M63.032,134.602c-.146,0-.293-.021-.44-.065-.792-.243-1.237-1.082-.995-1.874L93.681,27.909c.242-.792,1.079-1.239,1.874-.995.792.243,1.237,1.082.995,1.874l-32.083,104.754c-.198.646-.792,1.061-1.434,1.061Z" fill="#071838" id="tlFZEIoqkMYg99hMKMjEu" /></g></g><g transform="translate(1860 1090) rotate(26.0671528190541 -248.5 221) scale(-1 1)" data-asset-index="5"><g clip-path="url(#assetClipPath_sudfuSTr)" transform="scale(1.072049491153974 1.0718893383387171)" data-asset-index="5"><linearGradient id="linearGradient_H_4yR53A" gradientUnits="userSpaceOnUse" x1="27.735" x2="153.972" y1="145.958" y2="217.201"><stop offset="0" stop-color="#BDC1E0" /><stop offset="1" stop-color="#8B96D0" /></linearGradient><linearGradient id="linearGradient_vwG4XnHh" gradientUnits="userSpaceOnUse" x1="205.461" x2="3.278" y1="342.008" y2="326.039"><stop offset=".692" stop-color="#8B96D0" /><stop offset="1" stop-color="#BDC1E0" /></linearGradient><linearGradient id="linearGradient_cKRAH2aH" gradientUnits="userSpaceOnUse" x1="204.245" x2="468.147" y1="213.5" y2="211.231"><stop offset="0" stop-color="#BDC1E0" /><stop offset=".235" stop-color="#8B96D0" /></linearGradient><path d="m151.648 202.884-113.266-62.391c-3.915-2.16-6.285-6.057-6.307-10.228l.154 29.702c.022 4.171 2.392 8.067 6.307 10.228l113.266 62.391z" fill="url(#linearGradient_H_4yR53A)" id="ga4pdIcMIpqBqjqTbwyfz" /><path d="m151.801 234.086c-.249 0-.498-.062-.724-.186l-113.267-62.392c-4.345-2.398-7.059-6.818-7.083-11.534l-.154-29.702s0 0 0 0c-.004-.829.664-1.503 1.492-1.508h.008c.825 0 1.495.667 1.5 1.492.019 3.63 2.139 7.049 5.532 8.922l113.265 62.391c.477.263.773.762.776 1.306l.154 29.703c.003.532-.276 1.025-.734 1.297-.236.14-.501.21-.766.21zm-118.184-95.613.111 21.486c.019 3.63 2.138 7.049 5.532 8.922l111.029 61.159-.136-26.268-112.495-61.966c-1.579-.872-2.944-2.011-4.041-3.333z" fill="#071838" id="qoq2Xv6zSDgCkLKOUwuZ" /><path d="m206.006 262.179-143.344 115.108c-2.626 2.109-6.04 3.142-9.498 2.874-1.58-.114-3.123-.508-4.541-1.143-1.645-.737-3.098-1.786-4.32-3.104l-39.834-44.42c-1.924-2.147-2.954-4.83-2.969-7.598l.154 29.702c.014 2.768 1.045 5.45 2.969 7.598l39.834 44.42c1.223 1.318 2.675 2.367 4.32 3.104 1.418.635 2.962 1.029 4.541 1.143 3.458.268 6.872-.765 9.498-2.874l143.344-115.108z" fill="url(#linearGradient_vwG4XnHh)" id="QtojN44mtPbICSG6iXG-" /><path d="m54.415 411.406c-.402 0-.806-.016-1.212-.047-1.74-.125-3.438-.553-5.039-1.27-1.82-.815-3.437-1.977-4.807-3.453l-39.852-44.438c-2.145-2.395-3.335-5.446-3.352-8.591l-.153-29.702c-.004-.829.664-1.504 1.492-1.508.788.021 1.503.664 1.508 1.492.012 2.412.931 4.757 2.586 6.604l39.834 44.419c1.077 1.16 2.366 2.087 3.817 2.737 1.28.574 2.638.916 4.035 1.016 3.111.238 6.107-.665 8.451-2.547l143.344-115.108c.449-.36 1.064-.433 1.584-.185s.852.771.855 1.346l.154 29.702c.002.458-.204.891-.561 1.177l-143.344 115.108c-2.632 2.115-5.911 3.247-9.341 3.247zm-51.372-79.268.111 21.453c.012 2.412.931 4.757 2.586 6.604l39.834 44.419c1.077 1.16 2.367 2.087 3.817 2.736 1.28.574 2.638.916 4.036 1.016 3.107.238 6.107-.665 8.451-2.547l142.78-114.655-.134-25.871-140.921 113.162c-2.942 2.363-6.692 3.5-10.553 3.2-1.739-.125-3.437-.552-5.039-1.269-1.82-.815-3.438-1.978-4.807-3.454l-39.852-44.436c-.105-.118-.208-.237-.309-.357z" fill="#071838" id="fkD4Gn4_-G1wIRt2jB" /><path d="m454.667 2.691c1.563.7 2.982 1.698 4.149 2.964 3.354 3.618 4.077 8.721 1.845 13.012l-184.998 355.71c-2.231 4.291-7.007 6.96-12.142 6.767-1.788-.075-3.503-.489-5.057-1.184-2.897-1.298-5.234-3.578-6.443-6.481l-46.016-111.299-143.344 115.108c-2.626 2.109-6.04 3.142-9.498 2.874-1.58-.113-3.123-.508-4.541-1.143-1.645-.737-3.098-1.786-4.32-3.104l-39.834-44.42c-2.193-2.449-3.226-5.593-2.914-8.767.308-3.166 1.992-6.097 4.615-8.124l145.478-111.72-113.266-62.391c-4.371-2.412-6.817-6.988-6.218-11.694.599-4.687 4.132-8.618 8.986-10.036l404.082-116.724c3.179-.918 6.552-.64 9.437.652z" fill="#E1E4FF" id="mrpuBemlNv-EXZC_yp_" /><path d="m264.046 382.654c-.193 0-.386-.003-.58-.011-1.964-.083-3.851-.525-5.614-1.314-3.319-1.487-5.881-4.07-7.214-7.273l-45.253-109.453-141.783 113.854c-2.941 2.363-6.688 3.5-10.553 3.2-1.739-.125-3.437-.552-5.039-1.269-1.819-.815-3.437-1.977-4.807-3.453l-39.851-44.439c-2.478-2.767-3.646-6.288-3.29-9.915.344-3.541 2.236-6.881 5.19-9.164l143.663-110.327-111.258-61.284c-4.917-2.714-7.657-7.894-6.982-13.198.674-5.269 4.62-9.699 10.054-11.286l404.085-116.724c3.47-1.001 7.187-.744 10.466.724 1.789.802 3.35 1.917 4.639 3.316 3.785 4.083 4.6 9.863 2.073 14.721l-184.998 355.71c-2.419 4.652-7.458 7.584-12.949 7.584zm-58.04-121.975c.125 0 .25.016.373.047.457.118.833.443 1.013.88l46.016 111.299c1.037 2.492 3.051 4.512 5.67 5.685 1.415.634 2.931.989 4.507 1.055 4.56.178 8.776-2.168 10.749-5.96l184.998-355.71c1.934-3.72 1.3-8.155-1.615-11.301-1.016-1.102-2.247-1.98-3.662-2.614-2.633-1.18-5.62-1.385-8.408-.58l-404.081 116.723c-4.284 1.251-7.392 4.7-7.915 8.785-.519 4.075 1.622 8.076 5.455 10.19l113.265 62.391c.443.244.734.696.772 1.201.038.504-.18.995-.582 1.303l-145.478 111.721c-2.299 1.776-3.771 4.357-4.035 7.079-.273 2.782.628 5.488 2.538 7.621l39.834 44.419c1.077 1.161 2.367 2.088 3.817 2.737 1.281.574 2.638.916 4.036 1.016 3.11.239 6.107-.664 8.451-2.547l143.344-115.108c.269-.216.601-.331.939-.331z" fill="#071838" id="HMquKgpdVCiDmgpdY_mU" /><path d="m461.944 13.413c.009 1.784-.412 3.581-1.282 5.254l-184.998 355.71c-2.232 4.291-7.007 6.96-12.142 6.766-1.788-.075-3.503-.489-5.057-1.184-2.897-1.298-5.234-3.578-6.443-6.481l-46.016-111.299.154 29.702 46.016 111.299c1.209 2.903 3.546 5.183 6.443 6.481 1.554.696 3.269 1.109 5.057 1.184 5.135.193 9.91-2.476 12.142-6.766l184.998-355.71c.87-1.673 1.291-3.47 1.282-5.254z" fill="url(#linearGradient_cKRAH2aH)" id="vq8rXE1fytjImE6oCYF6S" /><path d="m264.2 412.356c-.193 0-.386-.003-.58-.011-1.964-.083-3.851-.525-5.614-1.314-3.318-1.486-5.881-4.069-7.215-7.273l-46.018-111.303c-.074-.18-.113-.372-.114-.565l-.154-29.702c-.004-.717.501-1.337 1.204-1.479.702-.139 1.408.234 1.682.897l46.016 111.299c1.038 2.493 3.051 4.513 5.669 5.685 1.416.634 2.932.989 4.507 1.055 4.56.178 8.776-2.168 10.749-5.96l185-355.71c.746-1.436 1.121-2.968 1.112-4.554-.004-.829.664-1.503 1.492-1.508h.008c.825 0 1.496.667 1.5 1.492s.153 29.702.153 29.702c.011 2.05-.491 4.108-1.451 5.954l-184.998 355.71c-2.419 4.652-7.458 7.584-12.949 7.584zm-56.542-120.777 45.904 111.028c1.038 2.493 3.052 4.513 5.67 5.685 1.416.634 2.932.989 4.507 1.055 4.556.173 8.776-2.168 10.748-5.96l184.998-355.71c.746-1.436 1.121-2.968 1.112-4.554l-.108-20.873-183.494 352.819c-2.504 4.816-7.821 7.779-13.529 7.574-1.964-.083-3.851-.525-5.614-1.314-3.318-1.486-5.881-4.069-7.214-7.274l-43.092-104.226.113 21.75z" fill="#071838" id="fWFU-EP3PokAeF8SJ7Ra-" /></g></g><g transform="translate(995 89)" data-asset-index="6"><g clip-path="url(#assetClipPath_kKuz_s9o)" transform="scale(1.0040580680249342 1.0013112409107165)" data-asset-index="6"><g id="Hy5rdvvqtBzBmQbFz21ih">
    <g id="UMtOnkc3i19tI5DfaaHLH">
      <path d="M237.036,131.688C257.366,64.919,221.09,6.769,156.906,1.834,93.678-3.027,27.018,45.725,7.159,110.698c-19.872,65.015,14.204,123.065,76.964,129.71,63.71,6.745,132.569-41.907,152.913-108.72Z" fill="#34C488" id="e152lZX2tyERW0j8wE8Zh" />
      <path d="M96.105,242.535c-4.058,0-8.104-.208-12.14-.636-29.012-3.072-53.239-17.235-68.218-39.883C-.799,176.999-4.453,143.554,5.724,110.259c9.712-31.774,30.723-60.681,59.162-81.394C93.405,8.094,126.122-2.04,157.021.339c29.971,2.304,55.094,16.191,70.743,39.104,17.111,25.051,21.014,58.833,10.706,92.683l-1.435-.437,1.435.437c-19.234,63.174-81.373,110.411-142.365,110.411ZM148.265,3.005C88.727,3.005,27.327,49.846,8.593,111.136c-9.914,32.436-6.395,64.957,9.657,89.226,14.476,21.887,37.926,35.579,66.031,38.554,3.938.417,7.904.621,11.865.622,59.725.005,120.588-46.326,139.454-108.287,10.04-32.975,6.281-65.821-10.313-90.117-15.126-22.145-39.452-35.571-68.497-37.804-2.83-.218-5.682-.325-8.525-.325Z" fill="#071838" id="pyK6SpDOKDxyrHrWcPFjZ" />
    </g>
    <g id="LKhKBJToKsoq-13JhqPDq">
      <path d="M36.403,118.391l2.968-9.715,24.125,2.189,7.773-25.454,9.507.833-7.781,25.483,24.319,2.206-2.985,9.782-24.312-2.234-7.766,25.434-9.489-.902,7.758-25.405-24.117-2.217Z" fill="#071838" id="yLUtrIlxROnc6uwIE1-Ju" />
      <g id="bxGmEx52YyuX9jv08I5cX">
        <path d="M186.2,104.103c4.726-15.506-3.642-29.115-18.643-30.394-14.948-1.274-30.836,10.185-35.536,25.592-4.701,15.41,3.546,29.013,18.468,30.386,14.974,1.378,30.985-10.076,35.711-25.585Z" fill="#071838" id="fAH-08VH_qZUrV7FWiGCQ" />
        <path d="M148.299,136.867c-23.816-2.212-48.735,11.347-63.246,32.288l104.364,10.165c-1.384-22.723-17.168-40.228-41.118-42.453Z" fill="#071838" id="u_HwBF-EcvxT7OxPJ4aZs" />
      </g>
    </g>
  </g><g id="aB9oIce0iIvjBnv3dNyy-">
    <g id="swyKPulMv67U81Aj9CKnU">
      <path d="M448.176,229.132c16.554-54.586-14.234-102.72-68.153-107.485-53.26-4.706-109.12,34.772-125.361,88.152-16.249,53.408,13.022,101.459,65.971,107.365,53.604,5.979,110.98-33.417,127.543-88.032Z" fill="#5C7DE5" id="jbpjOUvkupdYpNbd9Ri31" />
      <path d="M331.532,319.265c-3.695,0-7.388-.2-11.064-.61-25.066-2.796-45.926-15.051-58.734-34.509-13.786-20.942-16.807-47.501-8.505-74.784,7.96-26.163,25.493-49.832,49.369-66.648,23.931-16.854,51.467-24.87,77.559-22.562,25.733,2.274,47.216,14.348,60.489,33.998,14.17,20.976,17.354,47.759,8.967,75.417-15.609,51.472-67.04,89.698-118.08,89.698ZM371.432,122.77c-49.648,0-100.181,37.659-115.335,87.465-8.036,26.415-5.146,52.077,8.142,72.261,12.31,18.7,32.396,30.482,56.561,33.177,53.11,5.92,109.602-33.095,125.941-86.977h0c8.12-26.776,5.072-52.654-8.581-72.867-12.759-18.887-33.452-30.496-58.268-32.689-2.812-.249-5.635-.371-8.46-.371Z" fill="#071838" id="Q6Zw1qcRqCYqFXna46bQr" />
    </g>
    <g id="nkpktIbY6Acku6iRl6s">
      <g id="kiP-Z3GF5W2djoL4i-Jm8">
        <path d="M426.059,226.922s-25.035,16.104-49.024,13.657c-23.858-2.434-37.659-22.317-37.659-22.317,0,0,24.709-16.032,48.592-13.696,24.015,2.348,38.09,22.356,38.09,22.356Z" fill="#071838" id="PZ_TrAHrFJ02dhCuUeIE0" />
        <path d="M394.33,223.752c1.996-6.576-1.687-12.43-8.218-13.073-6.521-.642-13.415,4.154-15.406,10.713s1.669,12.411,8.185,13.071c6.526.661,13.442-4.134,15.439-10.711Z" fill="#5C7DE5" id="f_SC4X-0a1e92j_wd_kZd" />
      </g>
      <path d="M274.806,215.598l2.222-7.307,18.649,1.855,5.817-19.133,7.341.713-5.822,19.149,18.762,1.866-2.232,7.345-18.758-1.882-5.81,19.111-7.33-.752,5.806-19.094-18.645-1.871Z" fill="#071838" id="uWzTE2nlZ7qWUBzMidXxh" />
    </g>
  </g><g id="U9FQzfqxWcEiND5NlmGZc">
    <g id="dA_Da1Osqyhom-BXKWt">
      <path d="M233.483,357.129c11.574-38.055-9.061-72.307-45.797-76.484-36.422-4.141-74.975,22.888-86.395,60.353s8.486,71.676,44.755,76.405c36.582,4.77,75.859-22.205,87.437-60.274Z" fill="#FF92C4" id="w_rex6lyjXHMv1YXJplWp" />
      <path d="M154.527,419.449c-2.897,0-5.794-.183-8.676-.559-17.067-2.226-31.315-10.971-40.119-24.625-9.6-14.89-11.741-34.464-5.877-53.704,11.602-38.059,51.068-65.605,88-61.406,17.381,1.976,31.925,10.633,40.951,24.376,9.793,14.909,12.02,34.606,6.112,54.034h0c-10.857,35.7-45.724,61.884-80.392,61.884ZM180.293,281.73c-33.344,0-67.123,25.443-77.568,59.707-5.606,18.394-3.591,37.057,5.529,51.204,8.317,12.9,21.808,21.167,37.986,23.276,2.765.36,5.549.536,8.331.536,33.391.002,66.993-25.287,77.477-59.76h0c5.649-18.575,3.555-37.351-5.748-51.514-8.529-12.985-22.303-21.169-38.784-23.043-2.397-.272-4.812-.406-7.223-.406Z" fill="#071838" id="NZyZb4aFRGVP0G_dZ0kaT" />
    </g>
    <g id="BoBRwETFVjpi68-m2ZtBL">
      <path d="M122.095,346.098l1.496-4.908,12.267,1.493,3.913-12.843,4.823.579-3.915,12.851,12.317,1.499-1.5,4.925-12.315-1.506-3.906,12.824-4.818-.597,3.904-12.816-12.265-1.5Z" fill="#071838" id="YFdQqDgxJK6wJM_JplX" />
      <path d="M211.179,332.213c-5.116-3.985-13.879-1.345-19.95,5.851-1.414-8.091-7.988-12.553-15.042-10.03-7.304,2.612-12.366,11.728-11.316,20.371,1.051,8.651,15.407,25.636,15.407,25.636,0,0,23.37-12.345,29.469-20.162,6.104-7.823,6.744-17.528,1.431-21.666Z" fill="#071838" id="jCYpuTx8Fcq3reqAjR3Ud" />
    </g>
  </g></g></g><g transform="translate(1945 459)" data-asset-index="7"><g clip-path="url(#assetClipPath_jjefkEHV)" transform="scale(1.002004008016032 0.9995123347076628)" data-asset-index="7"><defs>
    <linearGradient id="linearGradient_jEXjBZrJ" x1="211.563" y1="209.612" x2="-7.114" y2="44.812" gradientUnits="userSpaceOnUse">
      <stop offset="0" stop-color="#FF92C4" />
      <stop offset="1" stop-color="#FFCFE7" />
    </linearGradient>
  </defs><g id="zwmE86cq_2_v6YCVq_PA">
    <polygon points="193.268 224.414 224.048 193.007 153.892 129.916 223.488 82.928 188.54 35.084 122.44 86.316 85.49 1.5 46.814 20.69 81.022 97.515 16.126 92.699 23.227 136.827 87.566 144.689 74.429 208.988 114.135 230.416 130.174 166.063 193.268 224.414" fill="#D62978" id="xVzvPVGY2405V4f2Av4F2" />
    <path d="M114.134,231.916c-.245,0-.49-.061-.713-.18l-39.705-21.429c-.581-.314-.889-.973-.757-1.62l12.812-62.707-62.726-7.664c-.663-.081-1.193-.591-1.299-1.251l-7.102-44.128c-.073-.453.065-.915.375-1.253.311-.338.765-.521,1.217-.481l62.394,4.63L45.444,21.301c-.327-.735-.017-1.597.703-1.954L84.824.156c.37-.183.797-.206,1.181-.065.386.141.697.434.861.81l36.18,83.048,64.576-50.051c.32-.248.721-.355,1.129-.3.401.057.763.273,1.001.601l34.947,47.844c.24.329.337.741.267,1.143s-.301.758-.638.985l-68.005,45.914,68.729,61.807c.304.273.483.659.496,1.068.013.408-.142.805-.428,1.097l-30.78,31.407c-.567.581-1.494.604-2.09.052l-61.232-56.63-15.428,61.893c-.111.45-.425.822-.85,1.01-.193.086-.399.128-.605.128ZM76.122,208.196l37.024,19.981,15.573-62.477c.128-.515.518-.924,1.026-1.075.506-.149,1.059-.023,1.447.336l62.023,57.361,28.665-29.248-68.992-62.044c-.344-.309-.525-.759-.493-1.219.031-.461.274-.881.657-1.14l68.305-46.117-33.118-45.341-64.881,50.288c-.365.283-.845.382-1.29.268-.449-.114-.819-.43-1.004-.854L84.746,3.545l-35.977,17.85,33.622,75.51c.215.482.16,1.042-.144,1.474-.303.432-.806.679-1.338.633l-63.002-4.675,6.621,41.139,63.219,7.725c.416.051.791.273,1.036.613.244.34.336.766.252,1.176l-12.914,63.208Z" fill="#071838" id="J3eod_0mgZggtw9QGGCNU" />
  </g><g id="Yj6jzmjNg4QfPUPYlLKGo">
    <polygon points="122.44 86.316 107.814 102.521 70.865 17.705 85.49 1.5 122.44 86.316" fill="#D62978" id="FAAO-hX5DMCpkPXiZZIF5" />
    <path d="M107.814,104.022c-.08,0-.161-.007-.241-.02-.503-.082-.931-.414-1.134-.882L69.49,18.304c-.235-.54-.133-1.167.262-1.604L84.378.495c.34-.378.852-.56,1.354-.476.503.082.931.414,1.134.881l36.949,84.817c.235.539.133,1.167-.262,1.604l-14.626,16.205c-.286.318-.692.495-1.113.495ZM72.627,17.992l35.633,81.797,12.419-13.76L85.046,4.232l-12.419,13.76Z" fill="#071838" id="I41EL0M5Hb2sU3RhluxJC" />
  </g><g id="mizsd4pBYtg4Mr8FpHTU8">
    <polygon points="32.189 36.895 46.814 20.69 85.49 1.5 70.865 17.705 32.189 36.895" fill="#D62978" id="KSSmvYmid1RLlxotB1zGm" />
    <path d="M32.19,38.396c-.458,0-.905-.209-1.196-.594-.436-.574-.4-1.376.082-1.911l14.625-16.205c.126-.14.277-.255.446-.339L84.824.156c.647-.32,1.429-.136,1.862.438.436.574.4,1.376-.082,1.911l-14.626,16.205c-.126.14-.277.255-.446.339l-38.676,19.19c-.213.105-.441.156-.666.156ZM47.736,21.907l-9.151,10.14,31.358-15.559,9.151-10.14-31.358,15.559Z" fill="#071838" id="NYj_KBKyVAzLwIB0ycYYP" />
  </g><g id="bA0L7hZww-iKyfvvi5QRa">
    <polygon points="173.915 51.289 188.54 35.084 223.488 82.928 208.862 99.133 173.915 51.289" fill="#D62978" id="Uiv-Mq0FwYo97llIB_hqK" />
    <path d="M208.862,100.633c-.025,0-.052,0-.077-.002-.451-.023-.868-.249-1.134-.613l-34.947-47.844c-.419-.574-.379-1.362.098-1.89l14.626-16.205c.303-.335.744-.515,1.19-.493.451.023.868.249,1.134.613l34.947,47.844c.419.573.379,1.362-.098,1.89l-14.626,16.205c-.285.316-.69.495-1.113.495ZM175.845,51.389l33.14,45.369,12.572-13.93-33.14-45.37-12.572,13.93Z" fill="#071838" id="F2ez5rthiHS7h4vlzImq" />
  </g><g id="ROore4EnRqtORzHDazxcT">
    <polygon points="139.266 146.121 153.892 129.916 224.048 193.007 209.422 209.212 139.266 146.121" fill="#D62978" id="oZ9RZpmtrMU4-p3Yw2T56" />
    <path d="M209.422,210.712c-.357,0-.717-.127-1.003-.385l-70.156-63.091c-.296-.267-.475-.64-.495-1.037s.117-.787.385-1.083l14.626-16.205c.554-.616,1.502-.664,2.116-.11l70.156,63.091c.296.267.475.64.495,1.037s-.117.787-.385,1.083l-14.626,16.205c-.296.328-.704.495-1.113.495ZM141.386,146.011l67.926,61.085,12.616-13.979-67.926-61.085-12.616,13.979Z" fill="#071838" id="t9nhAtvUT9T4jajdU5T9" />
  </g><g id="y5fwcOYkUZfIM4T2pZAuB">
    <polygon points="99.509 246.621 114.135 230.416 130.174 166.063 115.548 182.268 99.509 246.621" fill="#D62978" id="yBG-a53f7q0E4GUNCk4Jw" />
    <path d="M99.507,248.121c-.239,0-.481-.058-.704-.176-.607-.323-.917-1.02-.75-1.687l16.04-64.354c.06-.239.177-.46.342-.643l14.626-16.204c.46-.513,1.21-.643,1.818-.319.607.323.917,1.02.75,1.687l-16.04,64.353c-.06.239-.177.46-.342.643l-14.626,16.205c-.292.324-.699.495-1.114.495ZM116.914,182.994l-14.499,58.168,10.354-11.473,14.499-58.167-10.354,11.472Z" fill="#071838" id="XSxEGvP0Iz5t1beXrMkxr" />
  </g><g id="wu5nJWlQf2Nn0Xr2yPUyk">
    <polygon points="1.5 108.904 16.126 92.699 81.022 97.515 66.396 113.719 1.5 108.904" fill="#D62978" id="ofucPHJ6ugA3KMXgckaCF" />
    <path d="M66.396,115.22c-.037,0-.074,0-.111-.004L1.388,110.4c-.57-.043-1.068-.406-1.281-.938-.213-.532-.104-1.139.279-1.563l14.626-16.205c.311-.345.762-.524,1.225-.491l64.896,4.815c.57.043,1.068.406,1.281.938.213.532.104,1.139-.279,1.563l-14.625,16.205c-.285.316-.69.495-1.113.495ZM4.666,107.635l61.109,4.535,12.08-13.386-61.108-4.535-12.081,13.386Z" fill="#071838" id="W5CgysuijwyFiaoJiGmh" />
  </g><g id="tRL8Y2GDnozXRAyfxCjd">
    <polygon points="122.44 86.316 107.814 102.521 173.915 51.289 188.54 35.084 122.44 86.316" fill="#D62978" id="NO1Brkc3qXl1COsv2DMFt" />
    <path d="M107.815,104.022c-.404,0-.807-.163-1.101-.479-.528-.57-.534-1.448-.014-2.025l14.626-16.205c.06-.066.124-.126.194-.181l66.101-51.233c.615-.476,1.491-.404,2.019.166.528.569.534,1.448.014,2.025l-14.626,16.205c-.06.066-.124.126-.194.181l-66.101,51.233c-.272.211-.597.314-.918.314ZM123.464,87.421l-3.225,3.571,52.65-40.808,3.225-3.572-52.65,40.808Z" fill="#071838" id="ZDcOVlMc7-KEijztKUdlj" />
  </g><g id="H7khyozdnkfkRXvbCAcJo">
    <polygon points="178.643 240.619 209.422 209.212 139.266 146.121 208.862 99.133 173.915 51.289 107.814 102.521 70.865 17.705 32.189 36.895 66.396 113.719 1.5 108.904 8.601 153.032 72.94 160.894 59.803 225.193 99.509 246.621 115.548 182.268 178.643 240.619" fill="url(#linearGradient_jEXjBZrJ)" id="j2jszQ-Ld0-cUmerD7Zju" />
    <path d="M99.508,248.121c-.245,0-.49-.061-.713-.18l-39.704-21.429c-.582-.314-.89-.973-.758-1.62l12.812-62.707-62.726-7.664c-.663-.081-1.193-.591-1.299-1.251L.019,109.143c-.073-.453.065-.915.375-1.253.311-.338.756-.517,1.217-.481l62.395,4.63L30.819,37.506c-.327-.735-.017-1.597.703-1.954l38.676-19.19c.369-.184.796-.206,1.181-.065.386.141.697.434.861.81l36.18,83.048,64.576-50.051c.319-.248.725-.356,1.129-.3.401.057.763.273,1.001.601l34.947,47.844c.24.329.337.741.267,1.143s-.301.758-.639.985l-68.004,45.914,68.729,61.807c.304.273.483.659.496,1.068.013.408-.142.805-.428,1.097l-30.78,31.407c-.566.581-1.494.604-2.09.052l-61.232-56.631-15.428,61.894c-.111.45-.425.822-.85,1.01-.193.086-.399.128-.605.128ZM61.496,224.401l37.024,19.981,15.573-62.478c.128-.515.518-.924,1.026-1.075.506-.15,1.058-.023,1.447.336l62.023,57.362,28.665-29.248-68.992-62.044c-.344-.309-.525-.759-.493-1.219.031-.461.274-.881.657-1.14l68.305-46.117-33.118-45.341-64.881,50.288c-.366.284-.844.383-1.29.268-.449-.114-.819-.43-1.004-.854L70.12,19.75l-35.976,17.85,33.622,75.51c.215.482.16,1.042-.144,1.474s-.81.68-1.338.633l-63.003-4.675,6.621,41.139,63.219,7.725c.416.051.791.273,1.036.613.244.34.336.766.252,1.176l-12.914,63.208Z" fill="#071838" id="NZsaKRdF2l_xIvrrsC0co" />
  </g></g></g><g transform="translate(479 744) rotate(-153.11752855715983 -148 101) scale(-1 1)" data-asset-index="8"><g clip-path="url(#assetClipPath_PtXwjShL)" transform="scale(1.0092055915444937 1.0086232292920163)" data-asset-index="8"><linearGradient id="linearGradient_uJdcxpsi" gradientUnits="userSpaceOnUse" x1="115.143" x2="191.042" y1="21.679" y2="190.994"><stop offset="0" stop-color="#C5C9E8" /><stop offset="1" stop-color="#939ED8" /></linearGradient><path d="m233.332 90.277c4.307-6.3 7.232-12.388 8.895-18.171l33.843-15.297-3.015-24.906-35.675 10.563c-6.969-8.766-19.335-14.862-36.276-17.115l9.599-23.852-44.949 3.12-18.232 24.451c-21.059 4.892-41.772 13.284-59.844 23.788l-25.968-6.284-33.163 27.417 18.301 11.677c-5.14 6.024-9.28 12.197-12.176 18.399-2.856 6.116-4.316 11.861-4.578 17.172l-28.593 13.579 9.626 20.03 29.953-8.503c7.937 6.778 19.897 11.274 35.026 12.795l-5.29 16.847 37.029-2.571 14.492-17.486c18.216-3.836 36.57-10.437 53.304-18.927l22.242 4.879 34.472-23.091-14.676-10.575c6.092-5.715 11.406-11.728 15.653-17.94zm-94.408 32.032c-45.765 14.231-70.643-7.978-37.98-36.538 7.308-6.39 17.255-11.89 27.824-15.348 49.941-16.341 72.97 9.063 37.257 37.792-7.409 5.96-17.079 10.978-27.102 14.095z" fill="#6B79B2" id="EZwt9AfUsfQht1gP5pu0L" /><path d="m70.814 177.489c-.457 0-.893-.209-1.178-.571-.307-.39-.402-.905-.253-1.378l4.742-15.105c-13.968-1.654-25.466-5.93-33.401-12.428l-29.189 8.286c-.7.2-1.445-.136-1.761-.793l-9.626-20.031c-.173-.36-.195-.773-.062-1.15.133-.376.41-.684.771-.855l27.794-13.199c.395-5.39 1.961-11.047 4.661-16.831 2.681-5.74 6.475-11.593 11.287-17.419l-16.859-10.757c-.404-.258-.661-.694-.69-1.172-.029-.479.172-.943.541-1.249l33.163-27.417c.365-.301.854-.412 1.309-.302l25.384 6.143c18.369-10.606 38.815-18.731 59.201-23.525l17.905-24.011c.261-.351.662-.57 1.099-.6l44.948-3.121c.518-.035 1.013.197 1.316.614.304.418.371.963.179 1.442l-8.885 22.077c15.561 2.38 27.504 8.095 34.698 16.609l34.722-10.281c.424-.124.881-.057 1.249.185.369.243.613.635.666 1.074l3.015 24.906c.079.65-.274 1.277-.871 1.547l-33.217 15.014c-1.773 5.855-4.767 11.886-8.901 17.934-3.887 5.685-8.775 11.375-14.547 16.935l13.208 9.518c.398.287.631.751.623 1.242-.009.492-.257.947-.665 1.221l-34.472 23.091c-.34.228-.759.305-1.156.219l-21.721-4.765c-16.798 8.471-34.99 14.931-52.684 18.707l-14.158 17.083c-.263.316-.642.511-1.052.54l-37.029 2.57c-.034.002-.069.003-.104.003zm-29.736-32.643c.353 0 .699.125.974.359 7.819 6.677 19.646 10.979 34.203 12.443.448.045.854.29 1.102.667.249.377.314.845.179 1.275l-4.631 14.749 34.194-2.374 14.082-16.991c.217-.261.515-.441.846-.511 17.769-3.742 36.073-10.242 52.936-18.797.309-.156.66-.202 1-.127l21.617 4.743 32.147-21.534-12.925-9.313c-.363-.262-.591-.673-.62-1.12-.028-.447.144-.884.471-1.19 6.189-5.808 11.385-11.76 15.441-17.693 4.112-6.014 7.037-11.982 8.692-17.739.121-.423.423-.771.823-.952l32.84-14.843-2.669-22.05-33.975 10.06c-.586.174-1.219-.026-1.6-.505-6.901-8.681-19.108-14.408-35.3-16.562-.459-.061-.864-.331-1.098-.731-.233-.4-.269-.886-.096-1.316l8.704-21.629-41.872 2.907-17.821 23.898c-.212.285-.518.484-.862.564-20.471 4.755-41.021 12.924-59.431 23.624-.334.195-.731.252-1.106.161l-25.238-6.107-30.997 25.626 16.564 10.569c.366.233.613.614.677 1.043s-.061.865-.342 1.195c-5.166 6.055-9.189 12.131-11.958 18.06-2.687 5.753-4.18 11.342-4.438 16.61-.027.552-.355 1.044-.854 1.281l-27.232 12.933 8.426 17.534 28.738-8.158c.135-.039.272-.057.409-.057zm71.583-16.626c-12.631 0-22.215-3.738-26.226-10.909-4.977-8.897-.048-20.805 13.521-32.67 7.508-6.565 17.574-12.121 28.345-15.645 30.298-9.914 49.324-4.272 54.74 5.716 5.139 9.478-.871 22.439-16.076 34.671-7.55 6.073-17.351 11.172-27.597 14.358-9.683 3.011-18.794 4.479-26.708 4.479zm44.588-61.481c-7.655 0-17.028 1.514-28.014 5.109-10.396 3.401-20.093 8.747-27.304 15.052-12.406 10.848-17.1 21.398-12.878 28.947 4.682 8.369 22.146 13.512 49.425 5.029l.445 1.432-.445-1.432c9.895-3.077 19.344-7.989 26.606-13.832 13.985-11.25 19.712-22.802 15.319-30.903-2.973-5.484-10.842-9.403-23.155-9.403z" fill="#071838" id="nAvZFw_q1eJRBssMclVbJ" /><path d="m86.544 198.773-15.729-22.784 5.289-16.847 15.73 22.784z" fill="#6B79B2" id="zDsJKKEPH6B84h4qO0SMi" /><g fill="#071838" id="uz2vBdtKQqce3DcPivC_-"><path d="m86.544 200.273c-.488 0-.952-.238-1.234-.648l-15.729-22.784c-.263-.38-.335-.86-.196-1.301l5.29-16.847c.171-.547.64-.948 1.206-1.034.566-.085 1.133.159 1.459.631l15.729 22.784c.263.38.335.86.196 1.301l-5.29 16.847c-.171.547-.64.948-1.206 1.034-.075.011-.15.017-.225.017zm-14.079-24.534 13.568 19.653 4.15-13.217-13.568-19.653z" fill="#071838" id="q7Bq_iLaefTqB1SrrYn8I" /><path d="m232.355 118.793 15.729 22.784-14.676-10.575-15.729-22.784z" fill="#071838" id="XEhEQr35KJCjBu6kT2JY" /><path d="m248.084 143.077c-.307 0-.613-.093-.877-.283l-14.676-10.575c-.139-.1-.26-.224-.357-.365l-15.729-22.784c-.415-.601-.337-1.413.185-1.923.522-.512 1.336-.571 1.927-.146l14.676 10.575c.139.1.26.224.357.365l15.729 22.784c.415.601.337 1.413-.185 1.923-.289.284-.669.429-1.05.429zm-13.589-13.141 7.422 5.348-10.649-15.425-7.422-5.348z" fill="#071838" id="dRUDeUhKlVtTHWVDjq1Dv" /></g><path d="m249.061 113.062c4.307-6.3 7.232-12.388 8.895-18.171l33.843-15.297-3.015-24.906-35.675 10.563c-6.969-8.766-19.335-14.862-36.276-17.115l9.599-23.852-44.949 3.12-18.232 24.451c-21.059 4.892-41.772 13.284-59.844 23.788l-25.968-6.284-33.163 27.417 18.301 11.677c-5.14 6.024-9.28 12.197-12.176 18.399-2.856 6.116-4.316 11.861-4.578 17.172l-28.593 13.579 9.626 20.03 29.953-8.503c7.937 6.778 19.897 11.274 35.026 12.795l-5.29 16.847 37.029-2.571 14.492-17.486c18.216-3.836 36.57-10.437 53.304-18.927l22.242 4.879 34.472-23.091-14.676-10.575c6.092-5.715 11.406-11.728 15.653-17.94zm-94.408 32.031c-45.765 14.231-70.643-7.978-37.98-36.538 7.308-6.39 17.255-11.89 27.824-15.348 49.941-16.341 72.97 9.063 37.257 37.792-7.409 5.96-17.079 10.978-27.102 14.095z" fill="url(#linearGradient_uJdcxpsi)" id="vappOrllfmySiFWGXQ6hm" /><path d="m86.544 200.273c-.457 0-.893-.209-1.178-.571-.307-.39-.402-.905-.253-1.378l4.742-15.105c-13.968-1.653-25.467-5.93-33.401-12.428l-29.19 8.286c-.697.2-1.446-.136-1.761-.793l-9.625-20.03c-.173-.36-.195-.773-.062-1.15.133-.376.41-.684.771-.855l27.793-13.199c.396-5.391 1.962-11.047 4.662-16.831 2.682-5.742 6.476-11.596 11.287-17.419l-16.859-10.757c-.404-.258-.661-.694-.69-1.172-.029-.479.172-.943.541-1.249l33.163-27.417c.366-.302.854-.413 1.309-.302l25.384 6.144c18.369-10.606 38.814-18.731 59.2-23.525l17.905-24.011c.261-.351.662-.57 1.099-.6l44.95-3.121c.52-.032 1.014.197 1.316.614.304.418.371.963.179 1.442l-8.886 22.077c15.561 2.38 27.505 8.095 34.699 16.609l34.721-10.281c.425-.124.881-.057 1.249.185.369.243.613.635.666 1.074l3.016 24.906c.079.65-.274 1.277-.871 1.547l-33.218 15.014c-1.771 5.853-4.764 11.882-8.9 17.934-3.887 5.684-8.775 11.374-14.547 16.935l13.208 9.518c.398.287.631.751.623 1.242-.009.492-.257.947-.665 1.221l-34.472 23.092c-.34.228-.758.306-1.156.219l-21.722-4.765c-16.798 8.471-34.99 14.932-52.683 18.707l-14.158 17.083c-.263.316-.642.511-1.052.54l-37.029 2.57c-.034.002-.069.003-.104.003zm-29.736-32.643c.353 0 .699.125.974.359 7.819 6.677 19.646 10.98 34.203 12.443.448.045.854.29 1.102.667.249.377.314.845.179 1.275l-4.631 14.749 34.194-2.374 14.082-16.991c.217-.261.515-.441.846-.511 17.768-3.742 36.072-10.242 52.935-18.797.309-.156.661-.201 1-.127l21.618 4.743 32.147-21.535-12.925-9.313c-.363-.262-.591-.673-.62-1.12-.028-.447.144-.884.471-1.19 6.189-5.808 11.385-11.761 15.441-17.693 4.113-6.017 7.038-11.985 8.691-17.739.121-.423.423-.771.823-.952l32.841-14.843-2.67-22.05-33.974 10.06c-.585.173-1.219-.026-1.6-.505-6.901-8.681-19.108-14.408-35.301-16.562-.459-.061-.864-.331-1.098-.731-.233-.4-.269-.886-.096-1.316l8.705-21.629-41.873 2.907-17.821 23.898c-.212.285-.518.484-.862.564-20.47 4.755-41.021 12.924-59.43 23.624-.334.195-.732.253-1.106.161l-25.238-6.108-30.997 25.626 16.564 10.569c.366.233.613.614.677 1.043s-.061.865-.343 1.195c-5.164 6.053-9.188 12.129-11.957 18.06-2.687 5.752-4.18 11.341-4.439 16.61-.027.552-.355 1.044-.854 1.281l-27.231 12.933 8.425 17.534 28.739-8.158c.135-.039.272-.057.409-.057zm192.253-54.569h.01zm-120.669 37.944c-12.632 0-22.216-3.738-26.227-10.909-4.977-8.897-.049-20.806 13.521-32.671 7.507-6.564 17.573-12.12 28.345-15.645 30.3-9.914 49.326-4.272 54.741 5.716 5.139 9.478-.871 22.438-16.076 34.67-7.549 6.073-17.35 11.172-27.597 14.358-9.683 3.011-18.794 4.479-26.707 4.479zm44.586-61.482c-7.656 0-17.029 1.514-28.015 5.109-10.397 3.402-20.094 8.747-27.304 15.052-12.406 10.848-17.1 21.398-12.877 28.947 4.682 8.37 22.146 13.514 49.425 5.03l.445 1.432-.445-1.432c9.896-3.077 19.345-7.99 26.606-13.832 13.985-11.25 19.712-22.802 15.319-30.902-2.973-5.484-10.842-9.403-23.155-9.403z" fill="#071838" id="U-4FVGgAAzGnw_VakiBY_" /><path d="m17.229 157.603-15.729-22.784 28.593-13.579 15.73 22.784z" fill="#6B79B2" id="w_Z1CnQccDbsoBPB_Gg" /><path d="m17.23 159.103c-.48 0-.947-.23-1.235-.648l-15.729-22.784c-.25-.362-.328-.815-.215-1.24.114-.425.408-.778.806-.967l28.594-13.579c.665-.315 1.46-.103 1.878.503l15.729 22.784c.25.362.328.815.215 1.24-.114.425-.408.778-.806.967l-28.593 13.579c-.207.098-.426.145-.643.145zm-13.494-23.686 14.003 20.283 25.847-12.275-14.002-20.283-25.848 12.275z" fill="#071838" id="LhB1cFvJTGdt0Z5gd4d7" /><path d="m17.229 157.603 9.626 20.03-15.729-22.784-9.626-20.03z" fill="#071838" id="fzf5dBR_U8ZjVQ5Lfrhz" /><path d="m26.855 179.133c-.478 0-.946-.229-1.235-.648l-15.729-22.784c-.045-.064-.084-.132-.117-.202l-9.626-20.03c-.34-.706-.079-1.554.599-1.947.677-.392 1.544-.199 1.987.445l15.729 22.784c.045.064.084.132.117.202l9.625 20.03c.34.706.079 1.554-.599 1.947-.236.137-.495.203-.752.203zm-14.428-25.039 4.777 6.92-1.275-2.655-4.777-6.919z" fill="#071838" id="d6eNKyUdO0co4CPfIclq" /><path d="m44.275 96.776-15.729-22.784 33.163-27.417 15.729 22.784z" fill="#939ED8" id="YGHrxWZNnoSlXkwhIpWMG" /><path d="m44.275 98.276c-.068 0-.138-.005-.206-.014-.416-.058-.789-.288-1.028-.634l-15.729-22.784c-.442-.64-.321-1.512.278-2.008l33.163-27.417c.323-.268.744-.386 1.162-.33.416.058.789.288 1.028.634l15.729 22.784c.442.64.321 1.512-.278 2.008l-33.163 27.417c-.271.224-.609.344-.956.344zm-13.714-24.004 14.019 20.306 30.843-25.499-14.019-20.306z" fill="#071838" id="YyRGfg5hUoTXCg9kLrwW2" /><path d="m87.677 52.859 15.729 22.784-25.968-6.284-15.729-22.784z" fill="#6B79B2" id="GOduKxvsPRvYm9CTdBmF" /><path d="m103.406 77.143c-.117 0-.235-.014-.353-.042l-25.968-6.285c-.358-.087-.673-.302-.882-.606l-15.729-22.784c-.354-.512-.354-1.189-.002-1.702.354-.513.983-.754 1.589-.608l25.968 6.284c.358.087.673.302.882.606l15.729 22.784c.354.512.354 1.189.002 1.702-.284.413-.75.65-1.236.65zm-25.058-9.108 21.591 5.226-13.171-19.079-21.591-5.225z" fill="#071838" id="esZZj6Um2qjso_SFk1t0" /><path d="m163.25 51.855 18.233-24.451-15.729-22.784-18.233 24.451z" fill="#6B79B2" id="W2VxiW-IahzX9cTp1YNGY" /><path d="m163.25 53.355c-.009 0-.019 0-.027 0-.483-.009-.933-.25-1.207-.647l-15.729-22.784c-.365-.529-.353-1.233.032-1.749l18.232-24.451c.288-.387.772-.618 1.229-.603.483.009.933.25 1.207.647l15.729 22.784c.365.529.353 1.233-.032 1.749l-18.232 24.451c-.283.38-.729.604-1.202.604zm-13.883-24.25 13.93 20.178 16.34-21.912-13.93-20.178z" fill="#071838" id="OLIEaMIp9KuHhhgzDplWs" /><path d="m181.483 27.404 44.949-3.12-15.729-22.784-44.949 3.12z" fill="#939ED8" id="uy2-FY7hJG5ih9GOeTLVG" /><path d="m181.482 28.905c-.491 0-.953-.241-1.234-.648l-15.729-22.784c-.307-.443-.351-1.017-.117-1.502.233-.486.71-.809 1.248-.846l44.95-3.121c.536-.032 1.038.209 1.338.645l15.729 22.784c.307.443.351 1.017.117 1.502-.233.486-.71.809-1.248.846l-44.95 3.121c-.034.002-.069.003-.104.003zm-12.999-22.971 13.748 19.915 41.472-2.879-13.749-19.914z" fill="#071838" id="eqA2eoawjjVOpEmrZ_nVw" /><path d="m273.055 31.904 15.73 22.784-35.676 10.563-15.729-22.784z" fill="#6B79B2" id="xpBpgKWjkdIeQ5IFKH6sr" /><path d="m253.109 66.751c-.484 0-.949-.235-1.234-.648l-15.729-22.784c-.273-.396-.34-.898-.18-1.352.159-.453.527-.802.988-.939l35.676-10.563c.62-.184 1.292.052 1.66.586l15.729 22.784c.273.396.34.898.18 1.352-.159.453-.527.802-.988.939l-35.675 10.563c-.141.042-.284.062-.426.062zm-13.319-23.433 13.936 20.187 32.648-9.667-13.936-20.187z" fill="#071838" id="kNgGxh6isztszqnjaB0" /></g></g><g transform="translate(2014 1551)" data-asset-index="9"><g clip-path="url(#assetClipPath_GOidient)" transform="scale(1.005218710310414 1.0038854609106798)" data-asset-index="9"><defs>
    <linearGradient id="linearGradient_kx9EH-5o" x1="-326.543" y1="974.1" x2="-44.492" y2="705.997" gradientTransform="translate(260.466 -677.168) rotate(-6.514)" gradientUnits="userSpaceOnUse">
      <stop offset="0" stop-color="#2F48B2" />
      <stop offset="1" stop-color="#5C7DE5" />
    </linearGradient>
  </defs><g id="ssA5eKJ5lylA0L9HPmal-">
    <path d="M4.806,252.391s5.436,19.776,7.368,26.934c4.173,15.46,12.636,30.537,25.379,43.303,36.854,36.913,94.26,40.076,125.032,4.42,14.286-16.554,43.24-50.105,57.351-66.456,7.242-8.392,11.958-17.852,14.385-27.772,9.928-4.396,18.835-10.722,26.019-19.047,13.892-16.098,42.051-48.727,55.776-64.63,14.205-16.459,17.648-36.348,12.192-55.219-1.44-4.98-7.477-27.326-7.477-27.326-7.935-14.27-19.808-14.487-37.359-23.803-42.13-22.358-94.873-15.937-120.748,13.05-12.155,13.617-37.074,41.532-49.358,55.294-6.228,6.977-10.605,14.896-13.209,23.304-8.543,4.075-16.205,9.639-22.481,16.669-12.451,13.949-37.978,42.545-50.562,56.642l.004.004s-.003.003-.004.004c-12.228,13.698-22.546,26.093-22.308,44.631ZM157.487,186.154c-7.828-5.816-13.025-13.247-15.428-20.986,8.812.482,17.876,3.513,25.766,9.222,8.08,5.846,13.648,13.547,16.386,21.683-9.267-.668-18.707-3.962-26.724-9.918ZM224.545,175.614c-7.08-11.956-17.213-22.871-30.068-31.552-.002-.001-.003-.002-.005-.004l.004-.005c-12.451-8.407-26.087-13.749-39.75-16.19,12.78-14.432,38.338-43.291,44.249-49.965,12.661-14.297,38.555-16.922,58.512-5.535,20.715,11.819,27.266,34.172,13.859,49.554-6.248,7.168-33.23,38.126-46.8,53.696ZM59.063,235.885c1.913-2.16,40.018-45.188,45.447-51.318,5.538,11.734,14.234,22.844,26.042,32.236,12.196,9.702,26.175,16.409,40.566,20.11-13.88,15.925-41.64,47.775-48.149,55.243-14.043,16.112-40.215,15.427-57.762-.996-16.887-15.807-19.366-40.345-6.144-55.275Z" fill="url(#linearGradient_kx9EH-5o)" id="M58l92o-bo15uQgqBETfp" />
    <path d="M105.853,353.627c-25.139,0-50.256-10.803-69.362-29.939-12.461-12.483-21.37-27.689-25.766-43.973-1.931-7.155-7.365-26.927-7.365-26.927-.034-.123-.052-.25-.054-.378-.237-18.477,9.214-30.548,22.603-45.553.026-.036.055-.07.085-.104l50.562-56.643c6.131-6.866,13.651-12.496,22.365-16.739,2.76-8.604,7.24-16.418,13.325-23.233l49.358-55.293c26.636-29.841,80.476-35.716,122.57-13.376,5.213,2.768,9.99,4.752,14.206,6.503,10.032,4.167,17.957,7.459,23.761,17.896.06.106.105.22.138.337.061.224,6.05,22.391,7.47,27.302,5.884,20.352,1.445,40.459-12.498,56.616l-55.775,64.63c-6.97,8.075-15.672,14.511-25.877,19.138-2.619,10.232-7.505,19.543-14.527,27.681l-57.352,66.456c-13.533,15.681-32.959,24.752-54.697,25.542-1.056.038-2.113.058-3.17.058ZM6.304,252.181c.558,2.029,5.495,20.002,7.317,26.753,4.259,15.778,12.901,30.521,24.992,42.635,19.322,19.353,44.974,29.933,70.301,29.003,20.896-.759,39.552-9.462,52.534-24.505l57.352-66.455c6.873-7.965,11.604-17.099,14.063-27.148.11-.452.425-.827.85-1.015,10.086-4.466,18.662-10.742,25.491-18.656l55.775-64.63c13.259-15.362,17.48-34.478,11.887-53.822-1.357-4.7-6.858-25.041-7.435-27.173-5.288-9.4-12.391-12.35-22.202-16.425-4.276-1.776-9.124-3.79-14.461-6.623-40.931-21.724-93.17-16.133-118.926,12.724l-49.358,55.293c-5.944,6.657-10.282,14.312-12.896,22.748-.124.4-.409.73-.787.91-8.602,4.104-16.007,9.592-22.008,16.314l-50.477,56.546c-.008.01-.015.02-.022.029-.038.048-.078.094-.121.137-12.874,14.426-22.025,26.033-21.87,43.36ZM96.204,305.368c-11.483,0-23.045-4.711-32.021-13.113-17.489-16.37-20.231-41.567-6.242-57.363l45.446-51.317c.334-.378.841-.56,1.335-.491.499.071.93.389,1.145.845,5.599,11.862,14.458,22.824,25.619,31.702,11.597,9.225,25.431,16.083,40.007,19.831.504.13.904.512,1.059,1.009.154.496.04,1.038-.302,1.43l-48.148,55.243c-6.388,7.329-15.545,11.651-25.783,12.172-.703.035-1.408.054-2.113.054ZM59.063,235.885l1.123.994c-12.689,14.329-9.977,38.188,6.047,53.186,8.935,8.364,20.582,12.832,31.932,12.253,9.418-.479,17.826-4.438,23.674-11.146l46.57-53.434c-14.121-3.966-27.488-10.77-38.791-19.761-10.881-8.654-19.649-19.245-25.471-30.737l-43.961,49.64-1.123-.994ZM184.212,197.573c-.036,0-.071,0-.107-.004-9.976-.719-19.488-4.25-27.512-10.211-7.834-5.82-13.355-13.339-15.966-21.744-.146-.47-.053-.98.25-1.367.303-.388.778-.592,1.265-.576,9.502.52,18.688,3.806,26.562,9.505,8.113,5.868,13.967,13.621,16.93,22.419.16.476.071,1-.236,1.397-.285.368-.724.581-1.186.581ZM144.225,166.844c2.648,6.941,7.507,13.165,14.156,18.105h0c6.826,5.072,15.125,8.366,23.593,9.399-2.955-7.297-8.112-13.741-15.028-18.743-6.785-4.91-14.597-7.916-22.721-8.762ZM224.546,177.114c-.045,0-.091-.002-.137-.006-.479-.044-.908-.315-1.154-.729-7.148-12.072-17.39-22.817-29.617-31.073-.032-.022-.064-.045-.095-.07l-.012-.009c-11.776-7.93-25.283-13.422-39.069-15.886-.534-.096-.975-.472-1.153-.984-.178-.512-.065-1.08.294-1.486l44.249-49.965c13.292-15.01,39.813-17.577,60.379-5.844,11.604,6.621,19.326,16.715,21.185,27.691,1.479,8.743-.984,17.32-6.938,24.151l-46.8,53.695c-.286.329-.699.515-1.131.515ZM195.424,142.891c11.948,8.089,22.052,18.493,29.339,30.19l45.452-52.148c5.353-6.142,7.569-13.841,6.242-21.68-1.708-10.087-8.893-19.413-19.713-25.587-19.054-10.87-44.465-8.528-56.646,5.227l-42.504,47.995c13.328,2.746,26.318,8.223,37.723,15.923.037.025.073.052.107.08Z" fill="#071838" id="qMVIcbElPqdRf0UWCcQbo" />
  </g><g id="AW7aFK7bB4-GY2YKc9N8-">
    <g id="yqCg80TnsC-eFCVSsHm-1">
      <path d="M70.045,123.24c-12.451,13.949-37.978,42.545-50.563,56.643-27.09,30.348-23.541,80.825,10.439,114.868,36.854,36.913,94.26,40.076,125.031,4.419,14.286-16.554,43.24-50.105,57.351-66.456,30.019-34.784,17.043-87.83-25.458-116.53-39.256-26.508-90.291-22.642-116.801,7.056ZM51.432,208.007c7.653-8.642,46.54-52.553,52.192-58.935,12.981-14.658,38.021-15.981,56.57-2.561,19.263,13.937,24.311,38.408,10.542,54.206-5.996,6.88-47.272,54.237-55.398,63.561-14.043,16.112-40.215,15.427-57.761-.997-16.887-15.807-19.366-40.346-6.145-55.275Z" fill="#5C7DE5" id="sJSIppoTq4JOt1mLrpXp5" />
      <path d="M98.222,325.749c-25.141,0-50.256-10.802-69.362-29.939-34.004-34.066-38.615-85.427-10.497-116.927l50.562-56.643h0c27.324-30.61,79.489-33.818,118.761-7.3,23.25,15.7,38.486,38.982,41.803,63.878,2.7,20.266-3,39.754-16.049,54.876l-57.352,66.456c-13.533,15.681-32.958,24.752-54.696,25.541-1.055.038-2.114.058-3.17.058ZM71.164,124.239l-50.562,56.643c-27.061,30.314-22.5,79.866,10.382,112.81,19.321,19.354,44.973,29.925,70.301,29.003,20.895-.759,39.552-9.461,52.533-24.504l57.352-66.456c12.481-14.463,17.932-33.115,15.347-52.52-3.203-24.046-17.968-46.566-40.509-61.787-38.048-25.693-88.496-22.698-114.843,6.812ZM88.573,277.49c-11.483,0-23.046-4.711-32.022-13.113-17.489-16.369-20.23-41.566-6.242-57.363h0l52.192-58.935c13.667-15.434,39.396-16.657,58.572-2.781,10.569,7.646,17.395,18.717,18.726,30.373,1.104,9.653-1.714,18.899-7.932,26.033l-55.398,63.561c-6.388,7.329-15.544,11.651-25.782,12.172-.703.035-1.409.054-2.113.054ZM52.554,209.001h0c-12.688,14.329-9.977,38.188,6.047,53.186,8.937,8.364,20.593,12.834,31.933,12.253,9.418-.479,17.825-4.438,23.673-11.146l55.398-63.561c5.658-6.491,8.22-14.916,7.213-23.722-1.236-10.82-7.616-21.13-17.503-28.284-17.941-12.979-41.909-11.952-54.568,2.34l-52.192,58.935Z" fill="#071838" id="bERTTtMSuTA4aeX7OFpn6" />
    </g>
    <g id="egaeWqduPNj4Nq8lVnF_7">
      <path d="M155.093,27.966c-12.156,13.617-37.074,41.532-49.359,55.294-26.442,29.621-19.952,76.125,17.186,105.667,40.238,32.007,99.859,31.65,129.788-3.031,13.892-16.098,42.051-48.727,55.776-64.63,29.199-33.835,12.926-82.16-32.643-106.349-42.131-22.358-94.873-15.937-120.748,13.05ZM140.439,107.501c5.584-6.306,43.532-49.156,50.904-57.48,12.662-14.297,38.555-16.922,58.512-5.535,20.715,11.819,27.266,34.172,13.859,49.555-7.807,8.958-48.016,55.091-53.936,61.883-13.67,15.684-40.83,16.538-59.923,2.353-18.385-13.658-22.31-36.216-9.417-50.775Z" fill="#9FBAFC" id="GFvbgcmpU9bU1kPpHSwNM" />
      <path d="M189.722,213.924c-23.286,0-47.711-7.896-67.735-23.824-19.768-15.724-31.691-36.555-33.575-58.653-1.557-18.269,4.197-35.736,16.203-49.187l49.358-55.293c26.638-29.839,80.478-35.714,122.571-13.376,25.495,13.533,42.635,34.724,47.026,58.139,3.413,18.196-1.541,36.136-13.95,50.516l-55.776,64.63c-15.514,17.977-39.164,27.049-64.122,27.049ZM156.212,28.965l-49.358,55.293c-11.451,12.828-16.938,29.496-15.452,46.934,1.813,21.269,13.339,41.355,32.453,56.561,19.496,15.508,43.271,23.202,65.891,23.203,24.098.002,46.887-8.727,61.828-26.041l55.776-64.63c11.801-13.674,16.515-30.721,13.273-48.002-4.223-22.512-20.801-42.938-45.484-56.041C234.211-5.476,181.972.114,156.212,28.965ZM180.092,169.902c-10.618,0-21.737-3.442-31.131-10.421-9.932-7.379-16.271-17.807-17.393-28.608-.937-9.013,1.816-17.667,7.748-24.365l50.904-57.48c13.293-15.011,39.812-17.577,60.378-5.844,11.605,6.621,19.327,16.715,21.186,27.691,1.479,8.743-.984,17.32-6.938,24.151l-53.936,61.883c-7.512,8.618-18.848,12.993-30.818,12.993ZM222.967,38.95c-12.063,0-23.479,4.137-30.5,12.065l-50.904,57.48h0c-5.369,6.062-7.858,13.899-7.011,22.067,1.035,9.968,6.939,19.631,16.198,26.51,18.438,13.697,44.95,12.719,57.898-2.135l53.936-61.883c5.353-6.142,7.569-13.841,6.242-21.68-1.708-10.087-8.894-19.413-19.714-25.587-8.07-4.604-17.283-6.839-26.146-6.839ZM140.439,107.501h.01-.01Z" fill="#071838" id="ijbHcMMS5eTa0czjtGWv" />
    </g>
    <path d="M160.194,146.512c-18.55-13.421-43.59-12.097-56.57,2.561-5.652,6.382-44.539,50.293-52.192,58.935l-31.95-28.133c12.585-14.098,38.111-42.694,50.563-56.642,26.51-29.698,77.545-33.563,116.801-7.056" fill="#5C7DE5" id="fig7SG8ugBku7XDJ1yBTF" />
    <path d="M19.48,181.374c-.355,0-.712-.126-.998-.381-.618-.552-.672-1.5-.12-2.118l50.562-56.643c27.324-30.609,79.488-33.817,118.76-7.3.687.464.867,1.396.403,2.083-.464.686-1.396.867-2.083.403-38.05-25.693-88.495-22.702-114.842,6.812l-50.562,56.643c-.297.332-.707.501-1.12.501Z" fill="#071838" id="Glz90Q9RtLJ_UPEKH5dCL" />
    <path d="M51.43,209.507c-.354,0-.708-.124-.993-.377-.62-.55-.678-1.497-.129-2.117l52.192-58.935c13.667-15.434,39.396-16.657,58.572-2.781.672.485.822,1.423.336,2.094-.484.671-1.422.822-2.094.336-17.941-12.979-41.909-11.952-54.568,2.34l-52.192,58.935c-.297.335-.709.506-1.124.506Z" fill="#071838" id="ZvjRh7xHowZ8DqjDIfQjg" />
  </g><g id="qtXY89tWYjkwxrZ2JH4wR">
    <line x1="234.321" y1="232.82" x2="226.703" y2="204.956" id="bptb8XuX-a6RKjE0n75LP" fill="#939ED8" />
    <path d="M234.32,234.32c-.659,0-1.264-.438-1.446-1.104l-7.618-27.863c-.218-.799.253-1.624,1.052-1.843.797-.217,1.624.252,1.843,1.052l7.618,27.863c.218.799-.253,1.624-1.052,1.843-.132.036-.266.053-.396.053Z" fill="#071838" id="TjTisNVAVhTyyqm8frMmT" />
  </g><g id="GkSdj_J4f0GGirup6dWIu">
    <line x1="104.51" y1="184.567" x2="96.871" y2="156.698" id="IYjzmPfLIX9CgCct1B_rV" fill="#939ED8" />
    <path d="M104.509,186.068c-.659,0-1.263-.438-1.445-1.104l-7.639-27.87c-.22-.799.251-1.624,1.05-1.843.805-.223,1.624.252,1.843,1.05l7.639,27.87c.22.799-.251,1.624-1.05,1.843-.133.037-.267.054-.397.054Z" fill="#071838" id="RDbU-L4V09rtuQ71r27lM" />
  </g></g></g></svg>