<svg width="60" height="60" viewBox="0 0 60 60" fill="none" xmlns="http://www.w3.org/2000/svg">
<path fill-rule="evenodd" clip-rule="evenodd" d="M26.4165 27.712H19.4727C18.8581 27.712 18.48 27.9725 18.3278 28.306C18.2724 28.4336 18.2438 28.5712 18.2438 28.7103C18.2438 28.8494 18.2724 28.987 18.3278 29.1146C18.4801 29.448 18.8581 29.7086 19.4727 29.7086H26.4165C27.0312 29.7086 27.4092 29.448 27.5616 29.1146C27.617 28.987 27.6456 28.8494 27.6456 28.7103C27.6456 28.5712 27.617 28.4336 27.5616 28.306C27.4092 27.9725 27.0312 27.712 26.4165 27.712ZM20.0298 26.0914H25.8591C26.4737 26.0914 26.8518 25.8308 27.004 25.4974C27.0594 25.3698 27.088 25.2322 27.088 25.0931C27.088 24.954 27.0594 24.8164 27.004 24.6888C26.8517 24.3553 26.4737 24.0947 25.8591 24.0947H20.0301C19.4153 24.0947 19.0374 24.3553 18.885 24.6888C18.8296 24.8164 18.8011 24.954 18.8011 25.0931C18.8011 25.2322 18.8296 25.3698 18.885 25.4974C19.0374 25.8308 19.4153 26.0914 20.0301 26.0914H20.0298ZM20.3228 31.3289C19.708 31.3289 19.3301 31.5894 19.1777 31.9229C19.1224 32.0505 19.0938 32.1881 19.0938 32.3272C19.0938 32.4663 19.1224 32.6039 19.1777 32.7315C19.3301 33.0649 19.708 33.3255 20.3228 33.3255H25.5656C26.1803 33.3255 26.5583 33.0649 26.7106 32.7315C26.7659 32.6039 26.7945 32.4663 26.7945 32.3272C26.7945 32.1881 26.7659 32.0505 26.7106 31.9229C26.5582 31.5894 26.1803 31.3289 25.5656 31.3289H20.3233H20.3228ZM21.4463 34.9458C20.8316 34.9458 20.4536 35.2064 20.3013 35.5399C20.246 35.6675 20.2174 35.8051 20.2174 35.9442C20.2174 36.0833 20.246 36.2209 20.3013 36.3485C20.4537 36.6819 20.8316 36.9425 21.4463 36.9425H24.442C25.0567 36.9425 25.4347 36.6819 25.5871 36.3485C25.6424 36.2209 25.671 36.0833 25.671 35.9442C25.671 35.8051 25.6424 35.6675 25.5871 35.5399C25.4347 35.2064 25.0568 34.9458 24.4422 34.9458H21.4467H21.4463ZM9.47216 23.3624H5.19974C5.11567 23.3633 5.03529 23.3971 4.97583 23.4565C4.91638 23.5159 4.88258 23.5963 4.88169 23.6804V36.7734C4.88252 36.8575 4.9163 36.9379 4.97577 36.9973C5.03524 37.0568 5.11566 37.0905 5.19974 37.0913H9.47216C9.55625 37.0905 9.63667 37.0568 9.69614 36.9973C9.75561 36.9379 9.78939 36.8575 9.79021 36.7734V23.6804C9.78933 23.5963 9.75553 23.5159 9.69607 23.4565C9.63661 23.3971 9.55623 23.3633 9.47216 23.3624ZM7.94873 35.5326C7.89733 35.6279 7.82734 35.7118 7.74289 35.7795C7.65845 35.8472 7.56127 35.8973 7.45712 35.9267C7.35297 35.9562 7.24397 35.9644 7.13658 35.951C7.02918 35.9375 6.92559 35.9026 6.83192 35.8484C6.73826 35.7942 6.65643 35.7217 6.5913 35.6352C6.52617 35.5488 6.47906 35.4502 6.45275 35.3452C6.42645 35.2402 6.42149 35.131 6.43817 35.024C6.45485 34.9171 6.49283 34.8146 6.54986 34.7226L6.60646 34.6248C6.71673 34.4449 6.8929 34.3153 7.09738 34.2636C7.30186 34.2119 7.51847 34.2421 7.70099 34.3478C7.88352 34.4535 8.01751 34.6263 8.07439 34.8294C8.13127 35.0326 8.10653 35.2499 8.00544 35.435L7.94884 35.5328L7.94873 35.5326ZM19.109 15.0901C19.1677 15.1506 19.2228 15.2146 19.2741 15.2815C19.8689 16.055 20.1822 17.4036 19.7698 18.874L18.6829 22.7499C18.1211 23.0053 17.671 23.4559 17.4163 24.018C17.2252 24.4371 17.1492 24.8995 17.1962 25.3577C17.2431 25.816 17.4114 26.2534 17.6836 26.6249C17.3258 26.8845 17.0416 27.2326 16.8591 27.6352C16.7037 27.9724 16.6232 28.3392 16.6232 28.7105C16.6232 29.0817 16.7037 29.4486 16.8591 29.7857C17.0754 30.2634 17.4341 30.6625 17.886 30.9285C17.6507 31.2927 17.5111 31.7105 17.4802 32.143C17.4494 32.5755 17.5283 33.0088 17.7095 33.4027C17.959 33.9534 18.3962 34.3973 18.943 34.6552C18.903 34.7251 18.8664 34.7964 18.8331 34.8693C18.6833 35.1941 18.6031 35.5466 18.5975 35.9042C18.5919 36.2618 18.6612 36.6166 18.8008 36.9459H13.7011V36.9427C13.1868 36.9321 12.6823 36.8001 12.2288 36.5575C11.9092 36.3991 11.6296 36.1705 11.4107 35.8889V24.9754C11.5246 24.9249 11.6872 24.856 11.8392 24.7915C12.0741 24.7016 12.3003 24.5906 12.5152 24.46C14.9815 22.8036 15.7859 20.4352 16.6737 17.8211C16.8729 17.2342 17.0766 16.6347 17.2769 16.1009C17.5982 15.2449 17.9669 14.8326 18.3138 14.7478C18.4539 14.7186 18.5998 14.7389 18.7266 14.8053C18.8473 14.8651 18.9581 14.9433 19.0547 15.0372C19.0717 15.0556 19.0897 15.0732 19.1085 15.0901H19.109ZM28.2041 30.7968C28.5627 30.5372 28.8474 30.1887 29.0302 29.7855C29.1855 29.4483 29.266 29.0815 29.266 28.7102C29.266 28.339 29.1855 27.9722 29.0302 27.635C28.8476 27.2324 28.5635 26.8843 28.2056 26.6247C28.4793 26.2539 28.6484 25.8164 28.6954 25.3579C28.7424 24.8995 28.6656 24.4368 28.4729 24.0181C28.1086 23.2204 27.3382 22.5833 26.1704 22.4872C26.6022 20.1327 27.8286 17.9977 29.6449 16.4385C31.4611 14.8793 33.7573 13.9904 36.15 13.9203C38.5426 13.8501 40.887 14.6028 42.7915 16.0528C44.696 17.5029 46.0455 19.5624 46.6145 21.8874C47.1836 24.2125 46.9377 26.6624 45.9181 28.8281C44.8984 30.9938 43.1667 32.7441 41.012 33.7868C38.8574 34.8295 36.4102 35.1015 34.0792 34.5573C31.7482 34.0132 29.6744 32.6858 28.2041 30.7968ZM24.6728 40.2421L20.8711 49.5786L25.6875 46.8446C25.7936 46.7845 25.9119 46.7491 26.0336 46.7412C26.1553 46.7333 26.2772 46.7531 26.3902 46.7991C26.5031 46.845 26.6042 46.9159 26.6858 47.0065C26.7675 47.0971 26.8275 47.205 26.8615 47.3221L28.399 52.6447L32.3636 42.9078C32.0746 42.7376 31.7665 42.6022 31.4458 42.5043C30.8823 42.3493 30.1684 42.3754 29.4571 42.4015C28.3204 42.4432 27.1899 42.4845 26.196 41.9023C25.5111 41.5012 25.0553 40.9023 24.6719 40.242L24.6728 40.2421ZM49.2018 38.3868L54.3895 51.1278H54.3883C54.4513 51.2833 54.4643 51.4545 54.4255 51.6178C54.3868 51.781 54.2982 51.9281 54.172 52.0387C54.0459 52.1493 53.8884 52.2179 53.7215 52.2349C53.5546 52.2519 53.3865 52.2166 53.2406 52.1337L47.2868 48.7544L45.4028 55.2773C45.3666 55.4467 45.2771 55.6 45.1473 55.7147C45.0175 55.8294 44.8544 55.8995 44.6818 55.9145C44.5093 55.9296 44.3364 55.889 44.1887 55.7985C44.041 55.7081 43.9262 55.5726 43.8612 55.4121L39.1185 43.7643C38.2957 44.2587 37.4384 44.6784 36.4413 44.6784C35.4443 44.6784 34.5869 44.259 33.7638 43.7643L29.0211 55.4128C28.9561 55.5733 28.8413 55.7088 28.6936 55.7992C28.5459 55.8897 28.3731 55.9303 28.2005 55.9153C28.028 55.9002 27.8648 55.8301 27.735 55.7154C27.6053 55.6007 27.5157 55.4474 27.4795 55.278L25.5956 48.7563L19.6418 52.1346C19.4959 52.2174 19.3279 52.2527 19.161 52.2357C18.9941 52.2187 18.8366 52.1501 18.7104 52.0395C18.5843 51.9289 18.4957 51.7818 18.4569 51.6186C18.4182 51.4554 18.4312 51.2841 18.4942 51.1286H18.4929L23.6091 38.5628H21.4467C21.3947 38.5628 21.3434 38.5617 21.2927 38.5597H13.7011V38.5628C12.9243 38.5493 12.1616 38.3522 11.4755 37.9877C11.3557 37.9244 11.2391 37.8562 11.1256 37.7832C10.9521 38.0661 10.7091 38.3 10.4197 38.4625C10.1303 38.625 9.80408 38.7108 9.47216 38.7117H5.19974C4.68593 38.7107 4.19342 38.5062 3.83007 38.143C3.46672 37.7797 3.26213 37.2872 3.26111 36.7734V23.6804C3.26204 23.1665 3.46659 22.674 3.82996 22.3107C4.19333 21.9473 4.68589 21.7428 5.19974 21.742H9.47216C9.90966 21.7429 10.334 21.8914 10.6767 22.1635C11.0193 22.4355 11.2602 22.8152 11.3603 23.241C11.4484 23.206 11.5339 23.1649 11.6163 23.118C13.6246 21.7693 14.3458 19.6458 15.1417 17.302C15.3299 16.7479 15.5222 16.1817 15.764 15.5375C16.2983 14.1138 17.0917 13.3839 17.934 13.1779C18.4323 13.0577 18.957 13.1162 19.4166 13.343C19.448 13.3579 19.4793 13.3735 19.5103 13.3899C20.0765 12.8457 20.7951 12.4801 21.5122 12.1151C22.1333 11.7994 22.7523 11.4842 23.1488 11.0878C23.5452 10.6913 23.8606 10.0717 24.1764 9.451C24.6865 8.44834 25.1981 7.44264 26.1968 6.85776C27.1908 6.27545 28.3213 6.31694 29.458 6.35854C30.1692 6.38456 30.8834 6.41081 31.4468 6.25577C31.9906 6.10612 32.5851 5.73241 33.1858 5.35471C34.1901 4.72331 35.2091 4.08264 36.4415 4.08264C37.6738 4.08264 38.6926 4.72331 39.6968 5.35459C40.2976 5.73229 40.8921 6.106 41.436 6.25565C41.9995 6.41057 42.7133 6.38456 43.4247 6.35842C44.5614 6.3167 45.692 6.27534 46.6859 6.85752C47.6847 7.44264 48.1963 8.44823 48.7064 9.451C49.0222 10.0721 49.3375 10.6911 49.7339 11.0875C50.1304 11.484 50.7499 11.7993 51.3706 12.1151C52.3733 12.6253 53.3789 13.137 53.9639 14.1356C54.5461 15.1294 54.5047 16.2601 54.4631 17.3967C54.4371 18.1079 54.411 18.822 54.566 19.3856C54.7156 19.9294 55.0893 20.5239 55.467 21.1246C56.0983 22.1289 56.739 23.148 56.739 24.3802C56.739 25.6124 56.0984 26.6314 55.4671 27.6357C55.0894 28.2364 54.7156 28.831 54.566 29.3749C54.4111 29.9383 54.4371 30.6522 54.4633 31.3635C54.505 32.5003 54.5463 33.6308 53.9642 34.6248C53.379 35.6235 52.3733 36.1352 51.3707 36.6453C50.7496 36.9611 50.1306 37.2762 49.7342 37.6727C49.5287 37.8887 49.3499 38.1287 49.2019 38.3875L49.2018 38.3868ZM40.5182 42.908L44.4827 52.6448L46.0195 47.3226C46.0535 47.2055 46.1136 47.0976 46.1953 47.007C46.2769 46.9164 46.378 46.8455 46.491 46.7995C46.6039 46.7536 46.7258 46.7338 46.8475 46.7417C46.9692 46.7496 47.0876 46.7849 47.1936 46.8451L52.0101 49.5791L48.2087 40.2433C47.8254 40.9033 47.3697 41.5021 46.6853 41.9032C45.6914 42.4853 44.5608 42.4439 43.4242 42.4024C42.713 42.3762 41.9988 42.3502 41.4352 42.5053C41.1143 42.6032 40.8062 42.7387 40.5171 42.9089L40.5182 42.908ZM39.0367 41.9119L38.8364 42.0376C38.0322 42.5432 37.216 43.0564 36.4417 43.0564C35.6674 43.0564 34.8515 42.5433 34.0472 42.0377C33.9804 41.9957 33.9137 41.9539 33.847 41.9121C33.8196 41.8925 33.791 41.8747 33.7614 41.8587C33.1569 41.4837 32.5479 41.1328 31.8711 40.9467C31.0684 40.7259 30.2332 40.7565 29.4014 40.7869C28.4985 40.82 27.6002 40.8529 27.0138 40.5093C26.4307 40.1677 26.0247 39.3698 25.6199 38.5742C25.5886 38.5133 25.5574 38.4524 25.5261 38.3916C25.862 38.2808 26.1713 38.1017 26.4346 37.8656C26.6979 37.6294 26.9095 37.3413 27.056 37.0195C27.2114 36.6823 27.2919 36.3155 27.2919 35.9443C27.2919 35.573 27.2114 35.2062 27.056 34.8691C27.0229 34.7962 26.9863 34.7248 26.9461 34.655C27.4929 34.3971 27.9301 33.9531 28.1796 33.4025C28.2057 33.3453 28.2297 33.2875 28.2515 33.2292C30.2235 35.0532 32.7484 36.1661 35.4252 36.3913C38.102 36.6165 40.7773 35.941 43.0264 34.472C45.2755 33.0031 46.9693 30.8249 47.8391 28.2834C48.7089 25.7418 48.7047 22.9825 47.8272 20.4436C46.9497 17.9047 45.2491 15.7317 42.9956 14.2697C40.7421 12.8076 38.0647 12.1402 35.3886 12.3736C32.7125 12.6069 30.191 13.7275 28.2245 15.5575C26.2581 17.3876 24.9593 19.8221 24.5344 22.4745H20.44L21.3272 19.3105C21.8555 17.4264 21.4678 15.6372 20.6993 14.4973C21.1026 14.1399 21.675 13.8487 22.2462 13.558C22.9829 13.183 23.7183 12.8089 24.2943 12.233C24.8702 11.6572 25.2443 10.9217 25.6192 10.1848C26.0241 9.38924 26.43 8.59108 27.013 8.24983C27.599 7.90635 28.4978 7.93916 29.4007 7.97233C30.2327 8.00268 31.0678 8.03338 31.8706 7.8126C32.6538 7.59709 33.3464 7.16163 34.0463 6.72159C34.8506 6.21592 35.6668 5.70264 36.4411 5.70264C37.2154 5.70264 38.0313 6.21581 38.8356 6.72135C39.5356 7.16139 40.2283 7.59698 41.0115 7.81237C41.8143 8.03315 42.6496 8.00256 43.4814 7.97209C44.3837 7.93905 45.2826 7.90612 45.869 8.24971C46.4521 8.59131 46.858 9.38913 47.2635 10.1848C47.6385 10.9216 48.0124 11.6569 48.5884 12.2329C49.1644 12.8089 49.8994 13.1835 50.6367 13.5585C51.4323 13.9634 52.2305 14.3694 52.5717 14.9524C52.9153 15.5389 52.8824 16.437 52.8493 17.3399C52.819 18.172 52.7884 19.0072 53.0092 19.8099C53.2247 20.5932 53.6601 21.2858 54.1002 21.9858C54.6058 22.7901 55.1189 23.6063 55.1189 24.3805C55.1189 25.1546 54.6059 25.9707 54.1002 26.7749C53.6602 27.475 53.2247 28.1677 53.0092 28.951C52.7884 29.7537 52.8191 30.5889 52.8495 31.4207C52.8826 32.3237 52.9154 33.2219 52.572 33.8084C52.2304 34.3915 51.4324 34.7975 50.6369 35.2023C49.9 35.5773 49.1647 35.9513 48.5888 36.5272C48.0128 37.103 47.6387 37.8385 47.2637 38.5754C46.859 39.371 46.4529 40.1691 45.87 40.5104C45.2841 40.854 44.3854 40.821 43.4824 40.788C42.6504 40.7575 41.8152 40.7271 41.0124 40.9478C40.3356 41.134 39.7263 41.4846 39.1215 41.8604C39.0923 41.8762 39.064 41.8938 39.0369 41.9131L39.0367 41.9119ZM31.291 25.9218L34.4349 28.6272C34.5978 28.7664 34.8093 28.8353 35.0229 28.8187C35.2365 28.8021 35.4349 28.7014 35.5743 28.5386C35.5872 28.523 35.5995 28.5074 35.6112 28.4917L41.6836 21.266C41.7531 21.1851 41.8059 21.0912 41.8389 20.9898C41.8719 20.8884 41.8845 20.7815 41.8759 20.6752C41.8673 20.5689 41.8377 20.4654 41.7888 20.3706C41.7399 20.2758 41.6727 20.1917 41.5911 20.1231C41.5095 20.0544 41.4151 20.0027 41.3133 19.9707C41.2116 19.9388 41.1045 19.9274 40.9983 19.9372C40.8921 19.9469 40.7889 19.9776 40.6947 20.0275C40.6005 20.0774 40.517 20.1455 40.4493 20.2278L34.8693 26.8686L32.3422 24.694C32.2623 24.6207 32.1683 24.5642 32.066 24.528C31.9638 24.4917 31.8552 24.4764 31.7469 24.4829C31.6386 24.4895 31.5327 24.5178 31.4356 24.5661C31.3384 24.6145 31.252 24.6819 31.1814 24.7643C31.1109 24.8468 31.0576 24.9426 31.0249 25.046C30.9921 25.1495 30.9806 25.2585 30.9908 25.3665C31.0011 25.4746 31.033 25.5794 31.0846 25.6749C31.1363 25.7703 31.2066 25.8544 31.2914 25.9221L31.291 25.9218Z" fill="#266BFF"/>
</svg>
