<svg width="60" height="60" viewBox="0 0 60 60" fill="none" xmlns="http://www.w3.org/2000/svg">
<path d="M52.7819 17.0999H48.8909V16.109C48.8909 13.3727 47.2637 11.009 44.9364 9.91813C46.1637 9.02722 46.9728 7.57268 46.9728 5.9454C46.9728 3.23631 44.7637 1.02722 42.0546 1.02722C39.3455 1.02722 37.1364 3.23631 37.1364 5.9454C37.1364 7.58177 37.9364 9.02722 39.1728 9.91813C37.8364 10.5454 36.7364 11.5818 36.0364 12.8727C35.3364 11.5818 34.2364 10.5454 32.9 9.91813C34.1273 9.02722 34.9364 7.57268 34.9364 5.9454C34.9364 3.23631 32.7273 1.02722 30.0182 1.02722C27.3091 1.02722 25.1 3.23631 25.1 5.9454C25.1 7.58177 25.9 9.02722 27.1364 9.91813C25.8 10.5454 24.7 11.5818 24 12.8727C23.3 11.5818 22.2 10.5454 20.8637 9.91813C22.0909 9.02722 22.9 7.57268 22.9 5.9454C22.9 3.23631 20.6909 1.02722 17.9819 1.02722C15.2728 1.02722 13.0637 3.23631 13.0637 5.9454C13.0637 7.58177 13.8637 9.02722 15.1 9.91813C12.7637 11.009 11.1455 13.3727 11.1455 16.109V17.0999H7.21821C6.78185 17.0999 6.41821 17.4545 6.41821 17.8999V21.9545C6.41821 22.3909 6.77276 22.7545 7.21821 22.7545H10.0728L25.1182 38.7454C25.2273 39.0545 25.5182 39.2727 25.8728 39.2727C26.3091 39.2727 26.6728 38.9181 26.6728 38.4727V38.3727C26.6728 38.1727 26.6 37.9727 26.4546 37.8272L12.2546 22.7454H47.7455L33.5546 37.8272C33.4182 37.9727 33.3364 38.1727 33.3364 38.3727V38.4727C33.3364 38.909 33.6909 39.2727 34.1364 39.2727C34.4818 39.2727 34.7819 39.0545 34.8909 38.7454L49.9364 22.7545H52.7819C53.2182 22.7545 53.5818 22.3999 53.5818 21.9545V17.8999C53.5728 17.4636 53.2182 17.0999 52.7819 17.0999ZM38.7182 5.9454C38.7182 4.10904 40.2091 2.61813 42.0455 2.61813C43.8818 2.61813 45.3728 4.10904 45.3728 5.9454C45.3728 7.78177 43.8818 9.27268 42.0455 9.27268C40.2091 9.27268 38.7182 7.78177 38.7182 5.9454ZM42.0455 10.8636C44.9455 10.8636 47.3 13.2181 47.3 16.1181V17.109H36.8455V16.1181C36.8455 15.9545 36.8364 15.7999 36.8182 15.6363C37.0637 12.9636 39.3091 10.8636 42.0455 10.8636ZM26.6728 5.9454C26.6728 4.10904 28.1637 2.61813 30 2.61813C31.8364 2.61813 33.3273 4.10904 33.3273 5.9454C33.3273 7.78177 31.8364 9.27268 30 9.27268C28.1637 9.27268 26.6728 7.78177 26.6728 5.9454ZM30 10.8636C32.7364 10.8636 34.9819 12.9636 35.2273 15.6363C35.2182 15.7909 35.2 15.9545 35.2 16.1181V17.109H24.8V16.1181C24.8 15.9545 24.7909 15.7999 24.7728 15.6363C25.0182 12.9636 27.2637 10.8636 30 10.8636ZM14.6273 5.9454C14.6273 4.10904 16.1182 2.61813 17.9546 2.61813C19.7909 2.61813 21.2819 4.10904 21.2819 5.9454C21.2819 7.78177 19.7909 9.27268 17.9546 9.27268C16.1182 9.27268 14.6273 7.78177 14.6273 5.9454ZM12.7091 16.109C12.7091 13.2181 15.0637 10.8545 17.9637 10.8545C20.7 10.8545 22.9455 12.9545 23.1909 15.6272C23.1819 15.7818 23.1637 15.9454 23.1637 16.109V17.0999H12.7091V16.109ZM51.9818 21.1545H8.01821V18.6909H51.9909V21.1545H51.9818Z" fill="#266BFF"/>
<path d="M30 40.5636C24.9273 40.5636 20.7909 44.6909 20.7909 49.7727C20.7909 54.8454 24.9182 58.9818 30 58.9818C35.0818 58.9818 39.2091 54.8545 39.2091 49.7727C39.2091 44.7 35.0818 40.5636 30 40.5636ZM30 57.3909C25.8 57.3909 22.3818 53.9727 22.3818 49.7727C22.3818 45.5727 25.8 42.1545 30 42.1545C34.2 42.1545 37.6182 45.5727 37.6182 49.7727C37.6182 53.9727 34.2 57.3909 30 57.3909Z" fill="#266BFF"/>
<path d="M30 46.4454C30.7 46.4454 31.2637 47.0182 31.2637 47.7091C31.2637 48.1454 31.6182 48.5091 32.0637 48.5091C32.5091 48.5091 32.8637 48.1545 32.8637 47.7091C32.8637 46.4091 31.991 45.3272 30.8 44.9818V44.4C30.8 43.9636 30.4455 43.6 30 43.6C29.5546 43.6 29.2 43.9545 29.2 44.4V44.9818C28.0091 45.3272 27.1364 46.4182 27.1364 47.7091C27.1364 49.2818 28.4182 50.5636 29.991 50.5636C30.691 50.5636 31.2546 51.1363 31.2546 51.8272C31.2546 52.5182 30.6819 53.0909 29.991 53.0909C29.3 53.0909 28.7273 52.5182 28.7273 51.8272C28.7273 51.3909 28.3728 51.0273 27.9273 51.0273C27.4819 51.0273 27.1273 51.3818 27.1273 51.8272C27.1273 53.1272 28 54.2091 29.191 54.5545V55.1363C29.191 55.5727 29.5455 55.9363 29.991 55.9363C30.4364 55.9363 30.791 55.5818 30.791 55.1363V54.5545C31.9819 54.2091 32.8546 53.1182 32.8546 51.8272C32.8546 50.2545 31.5728 48.9727 30 48.9727C29.3 48.9727 28.7364 48.4 28.7364 47.7091C28.7364 47.0182 29.3 46.4454 30 46.4454Z" fill="#266BFF"/>
</svg>
