<svg width="60" height="60" viewBox="0 0 60 60" fill="none" xmlns="http://www.w3.org/2000/svg">
<path d="M24.2344 6.22383C24.2344 5.83594 24.5496 5.5207 24.9375 5.5207H35.0625C35.4504 5.5207 35.7657 5.83594 35.7657 6.22383C35.7657 6.61172 35.4504 6.92695 35.0625 6.92695H24.9375C24.5485 6.92695 24.2344 6.61172 24.2344 6.22383ZM39.8028 20.8992C39.8028 20.3531 40.0114 19.8562 40.3512 19.4801C40.0114 19.1039 39.8028 18.607 39.8028 18.0609C39.8028 16.8902 40.7543 15.9387 41.925 15.9387C43.0957 15.9387 44.0473 16.8902 44.0473 18.0609C44.0473 18.607 43.8387 19.1039 43.4989 19.4801C43.8387 19.8562 44.0473 20.3531 44.0473 20.8992C44.0473 22.0699 43.0957 23.0215 41.925 23.0215C40.7543 23.0215 39.8028 22.0699 39.8028 20.8992ZM42.641 20.8992C42.641 20.5043 42.3199 20.1832 41.925 20.1832C41.5301 20.1832 41.209 20.5043 41.209 20.8992C41.209 21.2941 41.5301 21.6152 41.925 21.6152C42.3199 21.6152 42.641 21.2941 42.641 20.8992ZM41.209 18.0609C41.209 18.4559 41.5301 18.777 41.925 18.777C42.3199 18.777 42.641 18.4559 42.641 18.0609C42.641 17.666 42.3199 17.3449 41.925 17.3449C41.5301 17.3449 41.209 17.666 41.209 18.0609ZM44.4223 20.8992C44.4223 20.3531 44.6309 19.8562 44.9707 19.4801C44.6309 19.1039 44.4223 18.607 44.4223 18.0609C44.4223 16.8902 45.3739 15.9387 46.5446 15.9387C47.7153 15.9387 48.6668 16.8902 48.6668 18.0609C48.6668 18.607 48.4582 19.1039 48.1184 19.4801C48.4582 19.8562 48.6668 20.3531 48.6668 20.8992C48.6668 22.0699 47.7153 23.0215 46.5446 23.0215C45.3739 23.0215 44.4223 22.0699 44.4223 20.8992ZM47.2606 20.8992C47.2606 20.5043 46.9395 20.1832 46.5446 20.1832C46.1496 20.1832 45.8285 20.5043 45.8285 20.8992C45.8285 21.2941 46.1496 21.6152 46.5446 21.6152C46.9395 21.6152 47.2606 21.2941 47.2606 20.8992ZM45.8285 18.0609C45.8285 18.4559 46.1496 18.777 46.5446 18.777C46.9395 18.777 47.2606 18.4559 47.2606 18.0609C47.2606 17.666 46.9395 17.3449 46.5446 17.3449C46.1496 17.3449 45.8285 17.666 45.8285 18.0609ZM54.0246 33.3059V41.9766C54.0246 43.4391 52.834 44.6297 51.3715 44.6297H46.3442V53.352C46.3442 56.0484 44.1504 58.2422 41.4539 58.2422H18.5449C15.8485 58.2422 13.6547 56.0484 13.6547 53.352V35.4258H8.62737C7.16487 35.4258 5.97424 34.2352 5.97424 32.7727V24.102C5.97424 22.6395 7.16487 21.4488 8.62737 21.4488H13.6547V6.64805C13.6547 3.95156 15.8485 1.75781 18.5449 1.75781H41.4539C44.1504 1.75781 46.3442 3.95156 46.3442 6.64805V12.4922H48.8215C50.284 12.4922 51.4746 13.6828 51.4746 15.1453V23.816C51.4746 25.2785 50.284 26.4691 48.8215 26.4691H46.3442V30.6527H51.3715C52.8352 30.6527 54.0246 31.8422 54.0246 33.3059ZM48.8215 13.8973H32.052C31.3641 13.8973 30.8051 14.4562 30.8051 15.1441V23.8148C30.8051 24.5027 31.3641 25.0617 32.052 25.0617H34.8481C35.236 25.0617 35.5512 25.377 35.5512 25.7648V27.3258L38.7492 25.1813C38.8653 25.1039 39.0012 25.0617 39.1407 25.0617H48.8203C49.5082 25.0617 50.0672 24.5027 50.0672 23.8148V15.1441C50.0696 14.4574 49.5094 13.8973 48.8215 13.8973ZM15.0621 6.64805V9.28359H44.9391V6.64805C44.9391 4.72734 43.3758 3.16406 41.4551 3.16406H18.5449C16.6242 3.16406 15.0621 4.72734 15.0621 6.64805ZM8.62854 34.0195H18.3082C18.4477 34.0195 18.5836 34.0605 18.6996 34.1391L21.8977 36.2836V34.7227C21.8977 34.3348 22.2129 34.0195 22.6008 34.0195H25.3969C26.0848 34.0195 26.6438 33.4605 26.6438 32.7727V24.102C26.6438 23.4141 26.0848 22.8551 25.3969 22.8551H8.62854C7.94065 22.8551 7.38167 23.4141 7.38167 24.102V32.7727C7.38167 33.4605 7.94065 34.0195 8.62854 34.0195ZM34.9465 56.8359C34.793 55.7391 34.1028 54.8824 33.3012 54.8824H26.6989C25.8973 54.8824 25.2059 55.7391 25.0535 56.8359H34.9465ZM44.9379 44.6297H41.9051L37.7895 47.3895C37.6711 47.468 37.5352 47.509 37.3981 47.509C37.2844 47.509 37.1707 47.482 37.0676 47.4258C36.8391 47.3039 36.6949 47.0648 36.6949 46.8059V44.6297H34.602C33.1395 44.6297 31.9489 43.4391 31.9489 41.9766V33.3059C31.9489 31.8434 33.1395 30.6527 34.602 30.6527H44.9379V26.4691H39.3551L35.2395 29.2289C35.1211 29.3074 34.9852 29.3484 34.8481 29.3484C34.7344 29.3484 34.6207 29.3215 34.5176 29.2652C34.2879 29.1434 34.1449 28.9043 34.1449 28.6453V26.4691H32.052C30.5895 26.4691 29.3989 25.2785 29.3989 23.816V15.1453C29.3989 13.6828 30.5895 12.4922 32.052 12.4922H44.9379V10.6898H15.0621V21.4488H25.3981C26.8606 21.4488 28.0512 22.6395 28.0512 24.102V32.7727C28.0512 34.2352 26.8606 35.4258 25.3981 35.4258H23.3051V37.602C23.3051 37.8621 23.1621 38.1 22.9324 38.2219C22.8282 38.277 22.7145 38.3051 22.602 38.3051C22.4649 38.3051 22.3278 38.2652 22.2106 38.1855L18.0949 35.4258H15.0621V53.352C15.0621 55.2727 16.6254 56.8359 18.5461 56.8359H23.6379C23.8207 54.9457 25.1239 53.4762 26.7 53.4762H33.3024C34.8785 53.4762 36.1817 54.9469 36.3633 56.8359H41.4551C43.3758 56.8359 44.9391 55.2727 44.9391 53.352V44.6297H44.9379ZM52.6184 33.3059C52.6184 32.618 52.0594 32.059 51.3715 32.059H34.602C33.9141 32.059 33.3551 32.618 33.3551 33.3059V41.9766C33.3551 42.6645 33.9141 43.2234 34.602 43.2234H37.3981C37.786 43.2234 38.1012 43.5387 38.1012 43.9266V45.4875L41.2992 43.343C41.4153 43.2656 41.5512 43.2234 41.6907 43.2234H51.3703C52.0582 43.2234 52.6172 42.6645 52.6172 41.9766V33.3059H52.6184ZM16.7989 31.7133C16.9231 31.9723 16.8774 32.2805 16.684 32.4926C16.5481 32.6402 16.3594 32.7211 16.1649 32.7211C16.0817 32.7211 15.9985 32.707 15.9176 32.6766L14.2946 32.066C13.7731 32.3145 13.2 32.4445 12.6176 32.4445C10.4707 32.4445 8.72346 30.6973 8.72346 28.5504C8.72346 26.4035 10.4707 24.6562 12.6176 24.6562C14.7645 24.6562 16.5117 26.4035 16.5117 28.5504C16.5117 29.1527 16.3735 29.7422 16.1086 30.2766L16.7989 31.7133ZM14.7235 29.8758C14.9742 29.4797 15.1067 29.0215 15.1067 28.5492C15.1067 27.177 13.991 26.0613 12.6188 26.0613C11.2465 26.0613 10.1309 27.177 10.1309 28.5492C10.1309 29.9215 11.2465 31.0371 12.6188 31.0371C13.0664 31.0371 13.5047 30.9176 13.8867 30.6902C14.0707 30.5813 14.2934 30.5613 14.4938 30.6363L14.7739 30.7418L14.6836 30.5555C14.5793 30.3375 14.5934 30.0809 14.7235 29.8758ZM21.1114 29.4105V27.7055C21.1114 26.55 22.0512 25.6102 23.2067 25.6102C24.3621 25.6102 25.302 26.55 25.302 27.7055V29.4105C25.302 30.566 24.3621 31.5059 23.2067 31.5059C22.0512 31.5059 21.1114 30.566 21.1114 29.4105ZM22.5176 29.4105C22.5176 29.7902 22.827 30.0996 23.2067 30.0996C23.5864 30.0996 23.8957 29.7902 23.8957 29.4105V27.7055C23.8957 27.3258 23.5864 27.0164 23.2067 27.0164C22.827 27.0164 22.5176 27.3258 22.5176 27.7055V29.4105ZM18.9715 28.0102V30.8027C18.9715 31.1906 19.2867 31.5059 19.6746 31.5059C20.0625 31.5059 20.3778 31.1906 20.3778 30.8027V26.3133C20.3778 26.0285 20.2067 25.773 19.9442 25.6641C19.6817 25.5551 19.3793 25.616 19.1778 25.8164L17.7399 27.2543C17.4657 27.5285 17.4657 27.9738 17.7399 28.2492C18.0141 28.5234 18.4594 28.5234 18.7348 28.2492L18.9715 28.0102ZM42.2449 36.6082C42.2449 37.5633 41.8559 38.5254 41.1492 39.3152C40.4801 40.0641 39.7442 40.6277 38.8336 41.0906C38.734 41.141 38.6239 41.1668 38.5149 41.1668C38.4059 41.1668 38.2969 41.141 38.1961 41.0906C37.2856 40.6277 36.5496 40.0641 35.8805 39.3152C35.1739 38.5242 34.7848 37.5633 34.7848 36.6082C34.7848 35.2852 35.8617 34.2082 37.1848 34.2082C37.6664 34.2082 38.1258 34.35 38.5149 34.609C38.9039 34.35 39.3633 34.2082 39.8449 34.2082C41.168 34.2082 42.2449 35.284 42.2449 36.6082ZM40.8387 36.6082C40.8387 36.0598 40.3922 35.6145 39.8449 35.6145C39.5403 35.6145 39.2555 35.7516 39.0656 35.9918C38.9321 36.1594 38.7293 36.2578 38.5149 36.2578C38.3004 36.2578 38.0977 36.1594 37.9641 35.9918C37.7742 35.7527 37.4895 35.6145 37.1848 35.6145C36.6364 35.6145 36.191 36.0609 36.191 36.6082C36.191 37.2176 36.4535 37.8457 36.9293 38.3777C37.3992 38.9027 37.909 39.3176 38.516 39.6645C39.1231 39.3176 39.6328 38.9027 40.1028 38.3777C40.5774 37.8457 40.8387 37.2176 40.8387 36.6082ZM46.936 35.9566V37.6875V39.4184C46.936 40.0875 46.3922 40.6313 45.7231 40.6313H43.9922C43.6043 40.6313 43.2891 40.316 43.2891 39.9281C43.2891 39.5402 43.6043 39.225 43.9922 39.225H45.5297V38.3906H44.502C43.834 38.3906 43.2891 37.8469 43.2891 37.1777V35.9555C43.2891 35.2863 43.8328 34.7426 44.502 34.7426H45.7242C46.3922 34.7438 46.936 35.2875 46.936 35.9566ZM44.6953 36.9844H45.5297V36.15H44.6953V36.9844ZM51.1899 35.9566V37.6875V39.4184C51.1899 40.0875 50.6461 40.6313 49.977 40.6313H48.2461C47.8582 40.6313 47.543 40.316 47.543 39.9281C47.543 39.5402 47.8582 39.225 48.2461 39.225H49.7836V38.3906H48.7559C48.0879 38.3906 47.543 37.8469 47.543 37.1777V35.9555C47.543 35.2863 48.0867 34.7426 48.7559 34.7426H49.9782C50.6461 34.7438 51.1899 35.2875 51.1899 35.9566ZM48.9492 36.9844H49.7836V36.15H48.9492V36.9844ZM33.5438 19.2445C33.2836 18.9129 33.1266 18.4969 33.1266 18.0434C33.1266 16.9676 34.002 16.0922 35.0778 16.0922C36.1535 16.0922 37.0289 16.9676 37.0289 18.0434C37.0289 18.4934 36.8742 18.9082 36.6164 19.2387C37.5457 19.8211 38.1739 20.9133 38.1739 22.1648C38.1739 22.5527 37.8586 22.868 37.4707 22.868H32.7C32.3121 22.868 31.9969 22.5527 31.9969 22.1648C31.9957 20.918 32.6192 19.8281 33.5438 19.2445ZM34.5328 18.0434C34.5328 18.3434 34.7778 18.5883 35.0778 18.5883C35.3778 18.5883 35.6227 18.3434 35.6227 18.0434C35.6227 17.7434 35.3778 17.4984 35.0778 17.4984C34.7778 17.4984 34.5328 17.7434 34.5328 18.0434ZM33.5133 21.4617H36.6551C36.4125 20.7246 35.7996 20.1996 35.0836 20.1996C34.3676 20.1996 33.7559 20.7246 33.5133 21.4617Z" fill="#266BFF"/>
</svg>
