<svg width="60" height="60" viewBox="0 0 60 60" fill="none" xmlns="http://www.w3.org/2000/svg">
<path fill-rule="evenodd" clip-rule="evenodd" d="M16.4275 12.1241H6.02413V43.5428H19.6813C20.1358 43.5428 20.5048 43.9119 20.5048 44.3664C20.5048 44.821 20.1358 45.1899 19.6813 45.1899H5.2006C4.74578 45.1899 4.37708 44.8212 4.37708 44.3664V11.3006C4.37708 10.8458 4.74578 10.4771 5.2006 10.4771H38.2665C38.7213 10.4771 39.09 10.8458 39.09 11.3006V24.549C39.09 25.0034 38.721 25.3725 38.2665 25.3725C37.8119 25.3725 37.443 25.0034 37.443 24.549V12.1241H27.0397V24.3728C27.0397 24.6978 26.8486 24.9923 26.5519 25.1248C26.2552 25.2573 25.9084 25.203 25.6664 24.9861L21.7335 21.4611L17.8007 24.9861C17.5587 25.203 17.2119 25.2573 16.9152 25.1248C16.6185 24.9923 16.4275 24.6978 16.4275 24.3728V12.1241ZM25.3926 12.1241H18.0746V22.5288L21.1839 19.7419C21.4967 19.4615 21.9704 19.4615 22.2832 19.7419L25.3926 22.5288V12.1241ZM29.2218 51.3935L29.1347 51.4438C26.5221 52.9534 23.1491 52.0503 21.6417 49.4378C20.1321 46.8252 21.0374 43.4521 23.6498 41.945L27.3033 39.836C27.5525 39.6921 27.8457 39.6933 28.085 39.8133C31.8328 36.9958 34.7038 33.7993 36.3621 30.7165L36.332 30.6643C35.508 29.237 36.001 27.3952 37.4281 26.5711C38.8553 25.7472 40.6973 26.2421 41.5213 27.6693L44.313 32.5045C45.8681 31.7674 47.7546 32.3367 48.6312 33.8554C49.5073 35.3717 49.0585 37.29 47.6414 38.2697L50.4332 43.105C51.2574 44.5299 50.765 46.3725 49.3373 47.1967C47.9101 48.0207 46.0682 47.5278 45.2442 46.1006L45.215 46.0499C41.7653 45.9445 37.6305 46.8064 33.38 48.5924L38.3293 55.2544C38.8711 55.984 38.7787 56.9893 38.108 57.5973L36.9982 58.6037L36.997 58.605C36.6241 58.9439 36.1744 59.0958 35.669 59.0515H35.6684C35.1625 59.0068 34.7394 58.7744 34.4344 58.3688L34.4327 58.3667L29.2218 51.3935ZM27.4135 41.6741L24.4731 43.3714C22.6452 44.426 22.0117 46.7861 23.0679 48.614L23.0681 48.6145C24.1227 50.4423 26.4827 51.0739 28.3106 50.0177L28.311 50.0175L31.2512 48.3203L27.4135 41.6741ZM32.1524 49.7018L30.6583 50.5643L35.7506 57.3787C35.7511 57.3794 35.7517 57.3801 35.7521 57.3808C35.7672 57.3995 35.7885 57.4085 35.8126 57.4107L35.8132 57.4108C35.8419 57.4132 35.8679 57.4054 35.8892 57.386L35.8905 57.3848L37.0017 56.3772C37.0418 56.3408 37.0393 56.2801 37.0071 56.2365L37.0068 56.2363L32.1524 49.7018ZM37.3155 32.3678C35.5051 35.3704 32.658 38.4439 29.0234 41.1683C29.6019 42.17 31.9157 46.1773 32.4941 47.1791C36.6708 45.3926 40.756 44.4637 44.2614 44.3983L37.3155 32.3678ZM45.142 33.9405L46.8124 36.8337C47.4432 36.3178 47.6255 35.4072 47.205 34.6793L47.2047 34.6788C46.7839 33.9495 45.9037 33.6519 45.142 33.9405ZM38.2517 27.9975C37.6091 28.3686 37.3873 29.198 37.7584 29.8407L46.6706 45.2771C47.0417 45.9197 47.8712 46.1414 48.5138 45.7704C49.1561 45.3995 49.3782 44.5707 49.0073 43.9294L40.0948 28.4928C39.7238 27.85 38.8945 27.6264 38.2517 27.9975ZM51.3502 33.235C50.9565 33.462 50.4525 33.3267 50.2254 32.933C49.9984 32.5392 50.1337 32.0352 50.5274 31.8081L53.2261 30.2518C53.6198 30.0247 54.1239 30.16 54.351 30.5538C54.578 30.9475 54.4427 31.4515 54.049 31.6786L51.3502 33.235ZM47.5042 29.8757C47.2768 30.2692 46.7727 30.404 46.3792 30.1766C45.9857 29.9492 45.8508 29.4451 46.0783 29.0515L47.7224 26.2064C47.9499 25.8128 48.454 25.678 48.8475 25.9054C49.2411 26.1328 49.3759 26.637 49.1485 27.0305L47.5042 29.8757ZM51.513 38.4671C51.0585 38.4671 50.6894 38.098 50.6894 37.6435C50.6894 37.1891 51.0585 36.82 51.513 36.82H54.7994C55.2539 36.82 55.623 37.1891 55.623 37.6435C55.623 38.098 55.2539 38.4671 54.7994 38.4671H51.513ZM38.1753 8.52767C37.7237 8.47743 37.3977 8.06978 37.448 7.61814C37.4983 7.16637 37.9059 6.84049 38.3577 6.89073C39.4373 7.01096 40.4726 7.47437 41.2905 8.2832C42.1084 9.0919 42.5833 10.122 42.7155 11.2003C42.7708 11.6514 42.4495 12.0626 41.9984 12.118C41.5473 12.1733 41.136 11.852 41.0807 11.4008C40.9925 10.6817 40.6778 9.99367 40.1324 9.45426C39.5868 8.91484 38.8954 8.6079 38.1753 8.52767ZM38.6544 5.46884C38.2011 5.43508 37.8605 5.03978 37.8942 4.58649C37.928 4.1332 38.3234 3.79261 38.7766 3.82637C40.484 3.95343 42.1881 4.68414 43.5337 6.01473C44.8793 7.34543 45.629 9.04131 45.7751 10.7471C45.8139 11.1999 45.4777 11.5991 45.0248 11.6379C44.572 11.6767 44.1728 11.3406 44.134 10.8877C44.0197 9.55261 43.4287 8.22731 42.3755 7.1859C41.3224 6.14449 39.9906 5.56837 38.6544 5.46884ZM39.2383 2.5852C38.7854 2.54731 38.4485 2.14873 38.4864 1.69578C38.5244 1.24284 38.923 0.905902 39.3759 0.943902C41.6425 1.13378 43.8873 2.10802 45.6618 3.86284C47.4362 5.61755 48.4354 7.85131 48.6506 10.1158C48.6937 10.5683 48.3612 10.9705 47.9087 11.0135C47.4562 11.0565 47.054 10.724 47.011 10.2715C46.8306 8.37437 45.9904 6.50414 44.5037 5.0339C43.0168 3.56367 41.1374 2.74437 39.2383 2.5852Z" fill="#266BFF"/>
</svg>
