<svg width="60" height="60" viewBox="0 0 60 60" fill="none" xmlns="http://www.w3.org/2000/svg">
<path fill-rule="evenodd" clip-rule="evenodd" d="M48.0686 25.1506C48.1542 24.8002 48.016 24.8973 48.1524 24.7152C48.2588 24.573 48.4157 24.2883 48.5683 24.2062L48.7974 24.1527C48.8201 24.1281 48.8218 24.1594 48.8389 24.1594L49.2395 24.0657C49.4212 24.0414 49.568 24.0916 49.7532 23.9987L49.981 23.9719C49.9944 23.9719 50.0084 23.9519 50.0225 23.9519C50.2753 23.9519 50.4616 23.7665 51.0024 23.8849C51.0252 23.8917 51.0486 23.8849 51.0707 23.9117C51.2102 23.9117 51.4102 23.9712 51.4733 24.106C51.5222 24.2106 51.685 24.3847 51.7345 24.6217C51.8009 24.9871 51.7996 24.9167 51.7117 25.1777C51.6641 25.1921 51.6712 25.3726 51.5858 25.3385C51.5498 25.3241 51.5279 25.4127 51.403 25.4323C51.3962 25.4323 51.3889 25.4323 51.3829 25.4391C51.3622 25.4391 51.3709 25.4832 51.338 25.4926C51.3274 25.4993 51.3166 25.4859 51.3059 25.5193C51.3052 25.5261 51.3038 25.5261 51.3031 25.5261C51.281 25.5059 51.2596 25.5595 51.2382 25.593C51.2261 25.6131 51.212 25.5997 51.1993 25.5997C51.0952 25.6264 51.2744 25.6391 50.8624 25.66L50.4451 25.6801C50.3753 25.6852 50.4109 25.7069 50.2402 25.7069H49.9086C49.8886 25.7136 49.8684 25.7269 49.8484 25.7269C49.5773 25.7393 49.4436 25.6469 49.1591 25.5996L48.5917 25.5327C48.5678 25.5519 48.5611 25.4995 48.5442 25.4657L48.4698 25.4457C48.3343 25.4272 48.3624 25.2874 48.2413 25.3787C48.2234 25.3923 48.2375 25.2916 48.1736 25.2916C48.1196 25.359 48.0773 25.1769 48.0686 25.1506ZM43.1476 12.451C43.128 12.2794 43.1392 12.2254 43.2353 12.0893C43.301 11.9962 43.2745 11.9983 43.303 12.0022L43.4483 11.7611C43.5504 11.5695 43.7741 11.4519 43.8354 11.2386C43.846 11.2019 43.8584 11.2572 43.8816 11.1783C43.9115 11.1195 44.0122 11.0494 44.1348 10.8031C44.2591 10.5666 44.6254 10.2539 44.6954 10.2539C44.7025 10.2658 44.7605 10.171 44.8916 10.1333C45.1358 10.0633 45.0577 10.1293 45.244 10.1467C45.6574 10.1854 46.0208 10.6023 45.9942 10.6023C45.9806 10.6248 46.0529 10.6687 46.0417 10.7094C46.0282 10.7589 46.108 10.8635 46.096 10.8635C45.9799 11.0085 46.1215 10.8835 46.0036 11.1047L45.9983 11.232C46.0003 11.232 46.0003 11.2387 45.9996 11.2387C45.9721 11.2387 45.9955 11.2923 46.0024 11.3325C46.0063 11.3525 45.987 11.3525 45.9816 11.3659L45.9528 11.4531L45.5094 11.9488C45.509 11.9491 45.3022 12.2235 45.2588 12.2235C45.2132 12.2235 45.224 12.2837 45.1925 12.2971C45.1376 12.319 45.1723 12.4219 44.938 12.5584L44.1161 13.1211C44.0999 13.1413 44.118 13.1754 44.0504 13.1345C44.012 13.1112 43.878 13.2207 43.7959 13.2015C43.7245 13.1848 43.8097 13.3287 43.7209 13.2617L43.6519 13.255C43.6486 13.2617 43.6452 13.2617 43.6452 13.2617C43.6574 13.359 43.4484 13.2216 43.4483 13.2215L43.4182 13.1344L43.2574 12.9937L43.1476 12.451ZM16.5815 11.2854C16.5053 11.1712 16.5943 11.0346 16.6015 10.9438C16.6103 10.8342 16.7132 10.6023 16.7777 10.5084L16.966 10.2606L17.069 10.2003C17.0807 10.2168 17.1367 10.1407 17.1715 10.1533L17.3262 10.0931C17.4071 10.1782 17.4506 10.0989 17.554 10.1735C17.6036 10.2094 17.6154 10.149 17.641 10.1735C17.6714 10.2025 17.683 10.1735 17.6845 10.1735C17.6872 10.207 17.7395 10.1802 17.7756 10.1735L17.8192 10.2003C17.9243 10.2003 18.0473 10.3149 18.0716 10.3677L18.3604 10.6356C18.3894 10.6605 18.4104 10.6341 18.5827 10.8232C18.5954 10.8366 18.6196 10.8432 18.6196 10.8701C18.6196 10.9103 18.6758 10.8969 18.6899 10.9305C18.7104 10.9806 18.8134 10.9452 18.9377 11.1715C19.218 11.6814 19.2754 11.6484 19.4621 11.9485C19.4729 11.9685 19.5204 11.9571 19.4714 12.0155C19.442 12.0505 19.5505 12.1535 19.5277 12.2633C19.517 12.3144 19.6453 12.2542 19.5866 12.3303C19.5556 12.3706 19.5826 12.4042 19.5846 12.4039C19.6729 12.3925 19.5492 12.5839 19.535 12.5982L19.3676 12.7121C19.3402 12.7336 19.3735 12.7943 19.1909 12.826C19.0366 12.8527 18.6668 12.9823 18.5318 12.8929L18.3697 12.7992C18.3326 12.8118 18.3563 12.7635 18.343 12.7657L17.9323 12.4911C17.8614 12.4252 17.7262 12.2925 17.6262 12.2767L17.4588 12.1428C17.4481 12.1361 17.428 12.1428 17.4193 12.1294C17.3699 12.0649 17.2721 12.0303 17.211 12.0021L17.002 11.848C16.843 11.7059 16.874 11.7679 16.7581 11.5734C16.736 11.5362 16.6933 11.5218 16.6958 11.473C16.6958 11.4663 16.6938 11.4663 16.6918 11.4663C16.6588 11.4221 16.6224 11.4219 16.5815 11.2854ZM11.0515 24.7487C11.0371 24.6322 11.0267 24.5075 11.0622 24.5075C11.0886 24.4782 11.074 24.4085 11.1011 24.4003C11.1493 24.3857 11.14 24.2068 11.2236 24.2395C11.2734 24.2591 11.2447 24.1715 11.4031 24.1457C11.4545 24.1373 11.4271 24.0982 11.4667 24.0855C11.4761 24.0787 11.4868 24.0855 11.4976 24.0587C11.4983 24.052 11.4996 24.052 11.5002 24.052C11.5217 24.072 11.543 24.0118 11.5632 23.985C11.5759 23.965 11.5886 23.9783 11.6014 23.9783C11.7104 23.9499 11.6221 23.883 11.9296 23.9181C11.9443 23.9181 11.9584 23.9046 11.9731 23.9046L12.3361 23.8979C12.3635 23.8979 12.3809 23.8711 12.5357 23.8711L12.7018 23.8779C12.7346 23.9113 12.7674 23.8644 12.8003 23.8711C12.8899 23.8961 12.8798 23.797 13.1606 23.8711C13.7074 24.0113 13.5696 23.9731 14.1439 24.0453C14.1713 24.0138 14.1803 24.1035 14.1901 24.1056C14.393 24.1647 14.3773 24.24 14.4413 24.2262C14.4736 24.2193 14.4919 24.1505 14.5009 24.2329C14.5055 24.2746 14.5394 24.2865 14.5512 24.2865C14.6056 24.2184 14.646 24.4015 14.653 24.4271L14.6249 24.5477C14.5996 24.7368 14.6936 24.6973 14.5726 24.8625C14.5098 24.9481 14.262 25.3501 14.1673 25.3715L13.9436 25.4184C13.9064 25.4622 13.9156 25.3945 13.9021 25.4184L13.6048 25.4921L13.1533 25.5256L12.3194 25.7131C11.843 25.7502 11.9677 25.693 11.7259 25.6662C11.5921 25.6662 11.3894 25.6002 11.3341 25.4719C11.2283 25.227 11.1281 25.3012 11.0515 24.7487ZM30.4405 5.62551C30.422 5.37867 30.4417 5.31051 30.5088 5.09643L30.5584 4.88871C30.633 4.68615 30.7261 4.72503 30.8284 4.63419C30.8866 4.58235 31.1846 4.45335 31.2644 4.45335L31.5779 4.41315C31.6454 4.44975 31.6861 4.42923 31.6897 4.45335L31.7956 4.49355C31.8222 4.54731 31.8949 4.54563 31.9429 4.57395C31.9537 4.73907 32.0315 4.68327 32.0239 4.75479C32.0147 4.84287 32.0986 4.86771 32.0989 4.88199C32.0999 4.91895 32.1364 4.92219 32.1277 4.92219C32.1096 4.94223 32.1632 4.96239 32.1934 4.98915C32.2108 5.00259 32.1973 5.01591 32.2007 5.02935L32.2429 5.11647L32.261 6.16803C32.2289 6.20151 32.2758 6.23499 32.2631 6.26847C32.2405 6.32895 32.333 6.36747 32.2571 6.64359L32.0482 7.65495C32.0741 7.69215 31.992 7.67835 31.9831 7.70187C31.9764 7.72035 31.9128 7.88211 31.8612 7.91619C31.81 7.95015 31.949 8.00775 31.8511 8.01663C31.7694 8.02419 31.8161 8.08155 31.7948 8.11707C31.7924 8.12103 31.6459 8.20419 31.5712 8.15055C31.433 8.07915 31.4129 8.21403 31.2188 8.07015C31.0812 7.96815 30.7554 7.77231 30.7199 7.60131L30.6804 7.40043C30.6461 7.37163 30.7004 7.36491 30.6838 7.36023C30.644 7.16151 30.6041 7.04607 30.6041 6.83103C30.6041 6.68631 30.6132 6.56391 30.5512 6.43587C30.5342 6.40107 30.5748 6.41751 30.5438 6.35547L30.513 6.04743C30.4842 5.86383 30.4782 6.00327 30.4405 5.62551ZM32.6148 43.5905L31.5545 41.7954C31.3181 41.3935 30.815 41.2327 30.3877 41.4337C29.9335 41.6481 29.4781 41.8624 29.0206 42.0634C28.1162 42.4653 27.2422 42.9141 26.3258 43.3025C25.8737 43.4901 25.8636 43.4953 25.4114 43.7097C25.4288 43.5682 25.2358 41.8357 25.3151 41.1121C25.3321 40.9572 25.3751 40.3542 25.4215 40.2682C25.5155 40.0942 25.4814 39.9 25.5006 39.6989C25.5646 39.0439 25.7069 37.8025 25.6687 37.1871C25.6186 36.3779 25.392 35.7447 24.9728 35.0638L23.9273 33.3691C23.0144 31.8649 22.1256 30.3389 21.1891 28.8479C20.867 28.3351 20.3887 27.6755 20.2896 27.0796C20.1678 26.3471 20.1905 26.7101 20.2373 26.0481C20.293 25.2598 20.7421 24.5989 21.1147 23.9248L22.2072 21.9689L22.7544 21.0311C23.0148 20.6771 23.4118 20.4783 23.8489 20.4886C23.9909 20.4953 24.1403 20.4953 24.2863 20.4886C24.8496 20.4751 25.4116 20.502 25.9742 20.4684L26.8496 20.4215C26.9809 20.4148 27.1122 20.4282 27.2422 20.4148C27.4619 20.3813 27.6769 20.3278 27.9046 20.3411L28.261 20.3143C28.5245 20.3143 28.518 20.2657 28.715 20.2541L30.2777 20.1871C30.6128 20.1485 30.983 20.1469 31.3246 20.1469C31.4465 20.1469 31.6199 20.0507 31.8966 20.013C31.9008 20.2301 31.903 21.0163 31.9408 21.2052C31.9421 21.2052 31.9421 21.2119 31.9428 21.2119C31.7568 21.6333 31.6589 21.9286 31.4036 22.3171C30.8183 23.2079 29.2702 23.3334 28.3138 23.496L27.0492 23.6568C26.983 23.6635 26.9172 23.6836 26.8496 23.6903L26.3915 23.7372C25.7586 23.853 25.6204 24.3042 25.6808 24.8692C25.7053 25.098 25.6759 25.1172 25.6902 25.2443L25.7498 26.5169C25.756 27.0966 26.2524 27.1998 26.642 27.3876C27.1679 27.6411 27.8454 28.0343 28.2858 28.4124L28.6964 28.7875C28.7414 28.7998 28.6745 28.813 28.8096 28.9282C29.0436 29.1276 29.468 29.9088 29.7005 30.241C29.8423 30.4437 30.0688 30.8881 30.1781 31.105C30.283 31.3132 30.429 31.86 30.5036 31.8283C30.5389 31.8133 30.5056 31.7094 30.6102 31.7681C30.6214 31.7743 30.6431 31.8232 30.6772 31.7547C30.6972 31.8174 30.7207 31.9141 30.7628 31.9422C31.096 31.6248 30.8015 31.1705 30.9323 31.0715C31.0296 30.9978 30.8401 30.7383 30.8519 30.529C30.874 30.1362 30.5773 29.3031 30.5766 29.2764C30.6096 29.1436 30.531 29.0879 30.4694 28.9683C30.4474 28.9281 30.4306 28.8744 30.4058 28.8276C30.037 28.1173 29.3293 27.3113 28.6931 26.8383C28.2252 26.4905 27.894 26.2918 27.4037 25.9876L27.4271 25.3781L28.9228 25.2442L30.0882 25.0366C30.708 24.898 31.3259 24.6719 31.8859 24.3132C32.3544 24.0131 32.7618 23.515 32.9629 23.0205C33.3029 23.3169 33.9475 23.6571 34.3735 23.7103C34.9672 23.7845 35.3678 23.7903 35.9382 23.5697C36.2203 23.4606 36.205 23.4935 36.4828 23.295C36.6937 23.1443 36.8857 23.0041 37.0554 22.806L37.4432 23.2481C37.4744 23.3758 37.5835 23.3919 37.6924 23.4624C38.4106 23.9279 39.3128 23.9683 40.0984 23.6633L39.803 25.4584C39.7033 25.5963 39.7439 25.6798 39.72 25.8469C39.712 25.9139 39.6946 25.9741 39.6852 26.0345L39.5244 27.1263C39.3805 27.928 39.0838 29.3364 38.8177 30.0467C38.7655 30.1941 38.7266 30.3414 38.661 30.4753C38.4264 30.9647 38.2202 31.5522 37.8124 31.9757C37.0807 32.7354 36.2196 33.0142 35.3581 33.9985C35.0592 34.3402 35.0092 34.3637 34.7552 34.7688C34.2179 35.6262 34.0363 36.4653 34.0934 37.4615L34.2442 40.1675C34.2502 40.2747 34.2683 40.3751 34.2696 40.4823C34.2731 41.0392 34.349 42.2736 34.4491 42.7998L34.4806 43.195C34.5194 43.3491 34.5817 43.503 34.5737 43.6638C34.5724 43.6705 34.5744 43.6773 34.5784 43.6906C34.6423 43.8463 34.5884 43.9733 34.6614 44.1192C34.6992 44.1947 34.7407 44.7615 34.7438 44.8293C34.7602 45.1834 34.8678 45.438 34.8678 45.7C34.8678 46.1184 34.8954 46.0721 34.9964 46.3162L34.3393 46.564C34.2858 46.4769 34.2314 46.3831 34.1785 46.2894C33.6576 45.3923 33.1366 44.4881 32.6148 43.5905ZM23.701 18.4122C23.7335 18.3277 23.7038 18.267 23.7425 18.2448C23.8258 18.1969 23.7757 18.1355 23.7814 18.0707L23.867 16.1818C23.8906 15.8863 23.9297 15.6681 24.08 15.4048C24.1656 15.255 24.4954 14.7517 24.6427 14.7082L24.8396 14.601L25.3112 14.4402C25.5396 14.4019 25.8142 14.4426 26.0306 14.5206C26.2805 14.6233 26.6074 14.8411 26.6737 14.869C26.7004 14.8762 26.714 14.929 26.7588 14.9427C26.8084 14.9628 26.8794 14.9628 26.8955 15.0096C26.8961 15.0163 26.8996 15.0163 26.9028 15.0163C26.964 15.0163 26.9442 15.0892 27.0234 15.0967C27.0704 15.1012 27.102 15.1726 27.1414 15.2307C27.0461 15.5968 27.051 16.0198 27.0583 16.3961C27.0596 16.443 27.0724 16.4899 27.0671 16.5435L27.0818 17.374L27.1274 17.662C27.1315 17.7022 27.1168 17.7491 27.1362 17.7893C27.167 17.8563 27.2206 17.9299 27.2039 18.0036C27.1937 18.0036 27.2302 18.012 27.2334 18.1175C27.2357 18.1915 27.3192 18.2217 27.3131 18.5395C27.3118 18.6132 27.3312 18.6869 27.3572 18.7606C26.7366 18.7265 26.2444 18.7338 25.6285 18.7338C25.5997 18.7338 25.5702 18.7338 25.5428 18.7271L23.672 18.6869L23.701 18.4122ZM28.62 18.5663C28.7297 18.4398 28.7978 17.8011 28.8115 17.5884L28.8175 17.2335C28.8535 17.1047 28.8862 16.0638 28.8832 15.8603C28.8782 15.525 29.1163 14.9019 29.407 14.7082C29.435 14.6895 29.4522 14.6325 29.6254 14.5408C29.8996 14.4021 30.1556 14.2539 30.4566 14.2795C30.5926 14.2912 30.581 14.2642 30.8009 14.3197C31.5938 14.5201 31.7173 14.8493 31.8612 14.9292C31.8912 14.9459 31.8456 14.9646 31.9175 15.0163C32.0249 15.0936 32.1898 15.5367 32.2745 15.6862C31.9501 16.3283 31.959 16.8479 31.959 17.5415C31.959 17.5617 31.9603 17.575 31.9556 17.5951L31.8947 19.3098C31.356 19.2091 30.928 19.0996 30.3689 19.0353C30.125 19.0084 29.8806 18.9883 29.6442 18.9281C29.4179 18.8667 28.755 18.8236 28.5095 18.8075H28.5108C28.537 18.7271 28.5604 18.6467 28.62 18.5663ZM37.8822 16.9923C37.8326 17.0325 37.7878 17.0659 37.7288 17.1061L37.7509 17.6956C37.7861 17.8907 37.7318 17.8738 37.7496 17.9368L37.8206 19.6917C37.8439 20.4175 37.9231 21.1651 37.6417 21.8686C37.8781 22.0834 38.5116 22.4446 38.8273 22.4446L38.9801 22.4513C39.0066 22.4739 39.0322 22.4313 39.0953 22.4313C39.5936 22.392 39.9683 21.9964 40.1402 21.5471C40.1852 21.4295 40.21 21.0421 40.1885 20.9442C40.1338 20.5818 40.1232 19.7751 40.1114 19.3567C40.1094 19.2964 40.0933 19.2429 40.0933 19.1826L40.0076 17.5884C39.9683 17.2853 39.825 17.1509 39.6613 16.9588L39.3211 16.7243L39.0464 16.6506L38.6184 16.6975L38.1556 16.8784C38.0976 16.9032 38.0251 16.8731 37.8822 16.9923ZM54.2778 39.7659C54.1177 39.3573 53.6582 39.1564 53.2489 39.3171C47.4659 41.5687 41.6548 43.7766 35.8552 45.9883C35.9083 45.7225 35.9383 45.6528 35.9698 45.3454C35.9879 45.1713 36.0019 44.9971 36.0528 44.8229C36.1877 44.3783 36.1289 42.4956 36.0984 41.9628C36.0971 41.9428 36.095 41.9226 36.0971 41.9026L36.0281 39.3103C36.0028 38.9099 35.8784 37.3612 35.8948 36.9793C35.9226 36.3271 36.1583 35.6521 36.6269 35.1843C36.737 35.0742 36.7704 34.9837 36.9718 34.8226C37.1785 34.6571 37.6637 34.2673 37.8694 34.1595L38.6443 33.5231L39.1601 32.9269C39.6739 32.2222 40.0134 31.4316 40.2593 30.6228C40.4522 29.9879 40.7021 28.8136 40.7837 28.1646C40.8052 28.0038 40.854 27.8499 40.8467 27.6823C40.8427 27.6119 40.8904 27.6095 40.8983 27.3742L40.9652 26.7982C41.1328 25.3141 41.0909 24.6658 40.8668 23.1745C41.143 22.9493 41.4085 22.5897 41.5681 22.2703C41.8787 21.6487 41.8837 20.6026 41.8669 19.9193C41.863 19.7569 41.8284 19.5791 41.8428 19.4035C41.8529 19.2629 41.8052 19.1223 41.8361 18.9749L41.82 17.508C41.7274 16.6404 41.3201 15.8445 40.5667 15.358C39.7421 14.8704 39.2254 14.7792 38.3174 15.0565C38.2438 15.0766 38.1641 15.09 38.0984 15.1302C37.9838 15.2039 37.8982 15.3111 37.7723 15.3513C37.7669 15.3513 37.7616 15.358 37.7569 15.3647C37.6877 15.4723 37.5654 15.471 37.4998 15.6058L37.3866 15.7264C37.1292 15.3306 36.7516 15.0352 36.3209 14.8557C36.0836 14.7567 35.5681 14.6718 35.3062 14.715C34.9292 14.7772 35.1839 14.8164 35.1816 14.8557C35.18 14.8812 35.0923 14.9628 35.1494 14.9628C35.1535 14.9695 35.1575 14.9763 35.1614 14.9763C35.1155 14.9861 35.0035 15.0105 34.9772 15.0499C35.1709 15.3268 35.6358 15.2611 35.6383 15.4183C35.64 15.5205 35.9081 15.5128 35.9899 15.6528C36.0792 15.8055 36.2084 15.9502 36.2921 16.1686C36.3048 16.2021 36.3323 16.2355 36.3396 16.269C36.3564 16.3855 36.396 16.4542 36.3691 16.4901C36.3074 16.5723 36.3656 16.6264 36.3718 16.7044L36.363 17.3541C36.3486 18.0625 36.3014 18.9621 36.3107 19.6515C36.3131 19.8329 36.2839 20.8501 36.217 21.0714C36.0581 21.5963 35.5404 21.9625 35.03 22.0225C34.896 22.0383 34.611 22.0159 34.5122 21.9421C34.4316 21.8819 34.2724 21.8562 34.0621 21.6139C33.686 21.1804 33.7247 20.8795 33.7232 20.3881L33.7152 19.0419C33.7152 18.9615 33.7031 18.8745 33.7078 18.7941C33.7314 18.3803 33.7198 17.341 33.6488 16.9521L33.6455 16.7176C33.6167 16.6139 33.5905 16.5642 33.6254 16.4765C33.6275 16.4698 33.6268 16.4631 33.6241 16.4631C33.5935 16.3938 33.671 16.3339 33.6509 16.2286C33.6364 16.1526 33.7822 15.9216 33.8311 15.8736C34.0147 15.6931 33.9325 15.5841 34.3609 15.3779C34.4244 15.3473 34.452 15.1925 34.6342 15.1368C34.7802 15.0922 34.6859 15.0346 34.8109 15.0095C34.8839 14.9949 34.8047 15.0019 34.977 14.8822C34.8866 14.8361 34.7786 14.662 34.6561 14.574C34.3292 14.3994 33.6437 14.5089 33.3426 14.6946C33.334 14.7013 33.3265 14.7081 33.3179 14.7081C33.1166 14.2368 32.8463 13.8271 32.4558 13.489C32.0942 13.1759 31.505 12.8458 31.0244 12.7321C30.6299 12.6388 29.9767 12.5857 29.5817 12.6919C29.2214 12.7888 29.0768 12.8521 28.7638 13.0402C28.4359 13.2371 28.5154 13.2007 28.2634 13.4019C28.062 13.5625 28.1096 13.4961 27.9097 13.7233L27.3418 13.1943L26.7972 12.8728C26.278 12.6462 25.7424 12.5559 25.1755 12.6316C24.4255 12.7319 23.6482 13.164 23.1446 13.7301C22.9686 13.9281 22.917 14.0475 22.8338 14.1319L22.5599 14.7414C22.5396 14.8272 22.4528 15.0048 22.3864 15.3108C22.2655 15.8673 22.3412 16.426 22.377 16.9853L22.4125 17.3671C22.43 17.3987 22.3771 17.3868 22.4105 17.4945C22.4394 17.5877 22.4177 18.1789 22.5257 18.4657L22.6912 18.8878C21.4265 19.3536 21.0803 20.2618 20.4774 21.3393L19.1284 23.7774C18.6214 24.7324 18.3354 25.9879 18.5195 27.0661C18.765 28.5048 19.2851 29.1063 20.0273 30.1942C20.1874 30.4354 20.3334 30.6832 20.5096 30.9109L20.7794 31.3263L23.2812 35.1911C23.6736 35.7792 23.9605 36.1023 24.17 36.7986L24.2738 37.4148L24.2651 37.8971C24.2188 38.6422 24.1228 40.1943 24.1525 40.9247C24.1844 41.706 24.2212 42.6442 24.2939 43.4164C24.318 43.6776 24.3328 43.9389 24.3468 44.2001L12.617 49.5921L6.48156 52.3986L6.39048 52.4187L6.3978 52.4387L6.17748 52.5391C5.20092 53.0716 5.76396 54.3765 6.708 54.2003C6.78372 54.1869 6.85872 54.1735 6.93444 54.1601L6.94248 54.1869C7.17852 54.0816 7.55124 54.0417 7.80984 53.9993C8.64312 53.8587 9.47232 53.718 10.3022 53.5639C11.895 53.2692 13.4986 53.0147 15.086 52.6932C15.7471 52.5593 16.4136 52.432 17.0728 52.2913C17.5771 52.1843 18.1354 52.1219 18.6736 51.9966C19.2892 51.856 19.8899 51.6952 20.539 51.5947C20.5711 51.5947 20.6046 51.5813 20.6341 51.5747C21.2222 51.4266 21.7902 51.3719 22.3508 51.2063C22.6475 51.1187 24.951 50.7025 25.2089 50.6571L27.6878 50.148C27.9827 50.6713 28.549 51.771 28.8587 52.1776C29.1996 52.6398 29.5258 53.1489 29.8513 53.6981C30.1609 54.2145 30.2554 54.2203 30.5064 54.6627C30.5546 54.7498 30.627 54.8703 30.653 54.8971C30.7582 54.9909 30.8928 55.2119 31.0328 55.4262C30.8674 55.0713 30.866 55.0713 30.7421 54.7095C30.6392 54.405 30.5096 54.174 30.4561 53.8855C30.4058 53.6145 28.706 49.8036 28.4574 49.2706C28.3494 49.0475 28.1334 48.954 27.8801 48.9893C27.0052 49.111 26.0842 49.2436 25.225 49.3242C25.0213 49.3443 24.811 49.3711 24.6007 49.3979C22.9794 49.6151 21.3874 49.8808 19.766 50.1414C18.7225 50.3155 17.6796 50.4831 16.6354 50.6572L13.4282 51.2199L21.4734 47.4957C22.746 46.8995 24.0174 46.2967 25.2893 45.7006C26.3074 45.225 27.3302 44.7562 28.3536 44.2939C28.714 44.1265 29.0663 43.9457 29.4266 43.7782L30.4361 43.3161L32.2319 46.3972L33.2735 48.1387C33.461 48.4535 33.8543 48.5875 34.2038 48.4469C38.8777 46.5529 43.5852 44.767 48.2538 42.8874L43.967 45.8681C41.7817 47.3867 39.7358 48.9294 37.6045 50.5099L33.2153 53.7519C33.0748 53.8537 31.5547 54.9318 31.593 54.9777C31.6994 54.9307 31.8911 54.7834 31.9715 54.7633C31.813 54.9303 31.6514 55.0534 31.8469 54.9442C31.869 54.9307 31.8878 54.9174 31.9099 54.9107L30.9936 55.5873C31.2226 55.4932 32.2008 54.9234 32.4418 54.7701C32.7678 54.5577 34.709 53.2368 34.9495 53.1558C35.1704 53.0814 36.9875 51.7869 37.4251 51.5214C38.02 51.1597 38.6227 50.7645 39.2222 50.3895C39.8012 50.0245 42.8906 47.9981 43.1293 47.8843C43.6435 47.6392 44.0579 47.2971 44.5366 46.9869C46.5101 45.7078 48.4909 44.3719 50.4557 43.0685L53.9822 40.7107C54.2832 40.5094 54.4158 40.1209 54.2778 39.7659Z" fill="#266BFF"/>
</svg>
