<svg width="60" height="60" viewBox="0 0 60 60" fill="none" xmlns="http://www.w3.org/2000/svg">
<path fill-rule="evenodd" clip-rule="evenodd" d="M15.9373 34.6878C15.9373 34.1702 15.5173 33.7502 14.9998 33.7502H3.74976C3.23226 33.7502 2.81226 34.1702 2.81226 34.6878V47.8127C2.81226 48.3303 3.23226 48.7503 3.74976 48.7503H14.9998C15.5173 48.7503 15.9373 48.3303 15.9373 47.8127V34.6878ZM4.68726 35.6254V46.8751H14.0623V35.6254H4.68726Z" fill="#266BFF"/>
<path fill-rule="evenodd" clip-rule="evenodd" d="M32.8123 27.1876C32.8123 26.6695 32.3923 26.2496 31.8748 26.2496H20.6248C20.1073 26.2496 19.6873 26.6695 19.6873 27.1876V47.8124C19.6873 48.3305 20.1073 48.7496 20.6248 48.7496H31.8748C32.3923 48.7496 32.8123 48.3305 32.8123 47.8124V27.1876ZM21.5623 28.1247V46.8753H30.9373V28.1247H21.5623Z" fill="#266BFF"/>
<path fill-rule="evenodd" clip-rule="evenodd" d="M31.406 51.5625C31.406 51.8111 31.3072 52.0496 31.1314 52.2254C30.9556 52.4012 30.7171 52.5 30.4685 52.5C30.2199 52.5 29.9814 52.4012 29.8056 52.2254C29.6298 52.0496 29.531 51.8111 29.531 51.5625C29.531 51.3139 29.6298 51.0754 29.8056 50.8996C29.9814 50.7238 30.2199 50.625 30.4685 50.625C30.7171 50.625 30.9556 50.7238 31.1314 50.8996C31.3072 51.0754 31.406 51.3139 31.406 51.5625Z" fill="#266BFF"/>
<path fill-rule="evenodd" clip-rule="evenodd" d="M22.968 52.4991H26.718C27.2354 52.4991 27.6555 52.0791 27.6555 51.5616C27.6555 51.0441 27.2354 50.6241 26.718 50.6241H22.968C22.4505 50.6241 22.0305 51.0441 22.0305 51.5616C22.0305 52.0791 22.4505 52.4991 22.968 52.4991Z" fill="#266BFF"/>
<path fill-rule="evenodd" clip-rule="evenodd" d="M38.4373 20.6228V47.8104C38.4373 48.3279 38.0173 48.7475 37.4998 48.7475C36.9823 48.7475 36.5623 48.3279 36.5623 47.8104V19.6857C36.5623 19.1682 36.9823 18.7475 37.4998 18.7475H48.7498C49.2673 18.7475 49.6873 19.1682 49.6873 19.6857V33.7475C49.6873 34.265 49.2673 34.6857 48.7498 34.6857C48.2323 34.6857 47.8123 34.265 47.8123 33.7475V20.6228H38.4373Z" fill="#266BFF"/>
<path fill-rule="evenodd" clip-rule="evenodd" d="M40.8616 9.375L36.8369 5.35031C36.5688 5.08219 36.4882 4.67906 36.6335 4.32844C36.7788 3.97875 37.121 3.75 37.4998 3.75H46.8748C47.3923 3.75 47.8123 4.17 47.8123 4.6875V14.0625C47.8123 14.4413 47.5835 14.7834 47.2338 14.9287C46.8832 15.0741 46.4801 14.9934 46.2119 14.7253L42.1873 10.7006L30.6626 22.2253C30.4873 22.4016 30.2482 22.5 29.9998 22.5H19.1379L11.9126 29.7253C11.7373 29.9016 11.4982 30 11.2498 30H5.62476C5.10726 30 4.68726 29.58 4.68726 29.0625C4.68726 28.545 5.10726 28.125 5.62476 28.125H10.8616L18.0869 20.8997C18.2623 20.7234 18.5013 20.625 18.7498 20.625H29.6116L40.8616 9.375ZM45.9373 11.7994V5.625H39.7629L45.9373 11.7994Z" fill="#266BFF"/>
<path fill-rule="evenodd" clip-rule="evenodd" d="M45.6354 50.3916L41.9105 54.1012C41.6424 54.3694 41.2395 54.4481 40.8896 54.3028C40.5397 54.1575 40.3114 53.8162 40.3114 53.4375V31.875C40.3114 31.4953 40.5403 31.1541 40.8903 31.0087C41.2409 30.8634 41.6438 30.9441 41.9119 31.2122L56.9125 46.2122C57.1806 46.4803 57.2603 46.8834 57.1153 47.2341C56.9702 47.5837 56.6285 47.8125 56.249 47.8125H51.1086L53.3608 53.0681C53.5568 53.5247 53.3622 54.0534 52.9188 54.2756L49.1685 56.1506C48.9375 56.2669 48.6686 56.2819 48.426 56.1919C48.1833 56.1028 47.988 55.9172 47.887 55.68L45.6354 50.3916ZM53.9858 45.9375L42.1869 34.1381V51.18L45.2937 48.0853C45.5144 47.8659 45.8293 47.7703 46.1345 47.8294C46.4398 47.8894 46.6962 48.0966 46.8179 48.3825L49.2214 54.0281L51.2894 52.9941L48.8247 47.2444C48.701 46.9547 48.7305 46.6219 48.9038 46.3584C49.0777 46.0959 49.3713 45.9375 49.6868 45.9375H53.9858Z" fill="#266BFF"/>
</svg>
