<svg width="60" height="60" viewBox="0 0 60 60" fill="none" xmlns="http://www.w3.org/2000/svg">
<g clip-path="url(#clip0_58_10)">
<path d="M56.1738 5.04614H24.0281H10.5937C8.48318 5.04614 6.76755 6.76294 6.76755 8.87349V14.0461V42.6258L0.556616 48.8368C-0.186353 49.5797 -0.186353 50.7891 0.556616 51.5321L3.41833 54.3938C3.77693 54.7547 4.25505 54.954 4.76482 54.9551H4.76833C5.2781 54.9551 5.7574 54.7571 6.11833 54.3961L11.8535 48.661H56.1726C58.2832 48.661 59.9988 46.9442 59.9988 44.8336V14.045V8.87349C60 6.76294 58.2832 5.04614 56.1738 5.04614ZM58.3594 8.87349V13.2247H24.8484V6.68677H56.1738C57.3785 6.68677 58.3594 7.66763 58.3594 8.87349ZM8.40818 8.87349C8.40818 7.6688 9.38904 6.68794 10.5937 6.68794H23.2066V13.2258H8.40818V8.87349ZM4.95818 53.2348C4.89021 53.3028 4.80935 53.3133 4.76833 53.3133C4.72732 53.3133 4.6488 53.3028 4.58084 53.2348L1.71794 50.3719C1.61599 50.27 1.61599 50.0989 1.71794 49.9981L10.0816 41.6344C10.1472 41.5688 10.2258 41.5583 10.2668 41.5583C10.309 41.5583 10.3886 41.5688 10.4566 41.6368L13.3195 44.4997C13.3851 44.5653 13.3957 44.645 13.3957 44.6872C13.3957 44.7293 13.3863 44.8079 13.3195 44.8747L10.9347 47.2594L4.95818 53.2348ZM16.4496 38.502C16.1344 38.1868 15.8402 37.854 15.5672 37.5094C15.5449 37.4743 15.5179 37.4415 15.4898 37.4098C14.0027 35.4797 13.1965 33.1266 13.1965 30.6481C13.1965 27.6809 14.3519 24.8918 16.4484 22.7942C18.6152 20.6297 21.4594 19.5469 24.3035 19.5469C27.1476 19.5469 29.9918 20.6297 32.1562 22.7942C36.4875 27.1254 36.4875 34.1719 32.1562 38.502C27.8285 42.8309 20.782 42.8309 16.4496 38.502ZM15.2894 39.6622C15.45 39.8227 15.614 39.9774 15.7816 40.1286L13.5246 42.3833L12.5683 41.427L14.8242 39.1711C14.9742 39.3387 15.1289 39.5028 15.2894 39.6622ZM56.1738 47.018H13.4953L14.4797 46.0336C14.8383 45.675 15.0363 45.1958 15.0363 44.686C15.0363 44.2747 14.9062 43.8844 14.6672 43.561L17.0789 41.1516C19.2457 42.6434 21.7758 43.3887 24.3047 43.3887C27.5695 43.3887 30.8332 42.1465 33.3176 39.6622C38.2886 34.6911 38.2886 26.604 33.3176 21.634C28.3488 16.6653 20.2617 16.6653 15.2894 21.634C12.8824 24.0411 11.5558 27.2426 11.5558 30.6481C11.5558 33.2684 12.341 35.7668 13.7988 37.8762L11.3906 40.2844C11.066 40.0465 10.6769 39.9153 10.2656 39.9153C10.2644 39.9153 10.2633 39.9153 10.2621 39.9153C9.75232 39.9165 9.27419 40.1157 8.91794 40.4743L8.40818 40.984V14.8653H24.0281H58.3594V44.8313C58.3594 46.0372 57.3785 47.018 56.1738 47.018ZM54.4289 18.1079H41.4304C40.9769 18.1079 40.6101 18.4747 40.6101 18.9282V23.8641C40.6101 24.3176 40.9769 24.6844 41.4304 24.6844H54.4289C54.8824 24.6844 55.2492 24.3176 55.2492 23.8641V18.9282C55.2492 18.4747 54.8824 18.1079 54.4289 18.1079ZM53.6086 23.0438H42.2508V19.7485H53.6086V23.0438ZM54.4289 27.6516H41.4304C40.9769 27.6516 40.6101 28.0184 40.6101 28.4719V33.4114C40.6101 33.8649 40.9769 34.2317 41.4304 34.2317H54.4289C54.8824 34.2317 55.2492 33.8649 55.2492 33.4114V28.4719C55.2492 28.0184 54.8824 27.6516 54.4289 27.6516ZM53.6086 32.5911H42.2508V29.2922H53.6086V32.5911ZM54.4289 37.1989H41.4304C40.9769 37.1989 40.6101 37.5657 40.6101 38.0192V42.9551C40.6101 43.4086 40.9769 43.7754 41.4304 43.7754H54.4289C54.8824 43.7754 55.2492 43.4086 55.2492 42.9551V38.0192C55.2492 37.5657 54.8824 37.1989 54.4289 37.1989ZM53.6086 42.1348H42.2508V38.8395H53.6086V42.1348ZM29.5324 29.2067H23.1937C22.8515 28.2106 21.9047 27.4922 20.7926 27.4922C19.3933 27.4922 18.2543 28.629 18.2543 30.027C18.2543 31.4262 19.3933 32.5653 20.7926 32.5653C21.9047 32.5653 22.8515 31.8458 23.1937 30.8485H25.6289V32.127C25.6289 32.5805 25.9957 32.9473 26.4492 32.9473C26.9027 32.9473 27.2695 32.5805 27.2695 32.127V30.8485H28.7109V32.9848C28.7109 33.4383 29.0777 33.8051 29.5312 33.8051C29.9847 33.8051 30.3515 33.4383 30.3515 32.9848V30.0282C30.3527 29.5735 29.9847 29.2067 29.5324 29.2067ZM20.7926 30.9235C20.298 30.9235 19.8961 30.5215 19.8961 30.027C19.8961 29.5348 20.298 29.1329 20.7926 29.1329C21.2871 29.1329 21.689 29.5336 21.689 30.027C21.689 30.5215 21.2871 30.9235 20.7926 30.9235ZM31.1789 23.7727C27.3867 19.984 21.2203 19.984 17.4316 23.7727C15.5941 25.6102 14.5828 28.0512 14.5828 30.6469C14.5828 33.2426 15.5941 35.6836 17.4316 37.5188C19.2668 39.3563 21.7078 40.3676 24.3047 40.3676C26.9004 40.3676 29.3426 39.3563 31.1789 37.5188C34.9664 33.7313 34.9664 27.5649 31.1789 23.7727ZM24.3035 38.727C22.1461 38.727 20.1176 37.8856 18.5918 36.3586C17.0648 34.8329 16.2234 32.8043 16.2234 30.6469C16.2234 28.4895 17.0648 26.4598 18.5918 24.9329C20.1656 23.359 22.2351 22.5715 24.3035 22.5715C26.3719 22.5715 28.4426 23.359 30.0176 24.9329C33.1664 28.0852 33.1664 33.211 30.0176 36.3598C28.4906 37.8868 26.4621 38.727 24.3035 38.727ZM28.8176 9.9563C28.8176 9.50278 29.1844 9.13599 29.6379 9.13599H54.6281C55.0816 9.13599 55.4484 9.50278 55.4484 9.9563C55.4484 10.4098 55.0816 10.7766 54.6281 10.7766H29.6379C29.1855 10.7766 28.8176 10.4086 28.8176 9.9563ZM13.364 9.9563C13.364 10.4098 12.9972 10.7766 12.5437 10.7766H11.4844C11.0308 10.7766 10.664 10.4098 10.664 9.9563C10.664 9.50278 11.0308 9.13599 11.4844 9.13599H12.5437C12.9972 9.13599 13.364 9.50278 13.364 9.9563ZM17.1586 9.9563C17.1586 10.4098 16.7918 10.7766 16.3383 10.7766H15.2789C14.8254 10.7766 14.4586 10.4098 14.4586 9.9563C14.4586 9.50278 14.8254 9.13599 15.2789 9.13599H16.3383C16.7906 9.13599 17.1586 9.50278 17.1586 9.9563ZM20.9519 9.9563C20.9519 10.4098 20.5851 10.7766 20.1316 10.7766H19.0722C18.6187 10.7766 18.2519 10.4098 18.2519 9.9563C18.2519 9.50278 18.6187 9.13599 19.0722 9.13599H20.1316C20.584 9.13599 20.9519 9.50278 20.9519 9.9563Z" fill="#266BFF"/>
</g>
<defs>
<clipPath id="clip0_58_10">
<rect width="60" height="60" fill="white"/>
</clipPath>
</defs>
</svg>
