<svg width="60" height="60" viewBox="0 0 60 60" fill="none" xmlns="http://www.w3.org/2000/svg">
<g clip-path="url(#clip0_58_5)">
<path d="M54.9819 50.6397L47.5513 43.2118C46.8887 42.5519 46.1242 43.2118 45.7835 43.8609L43.4363 41.5138C50.2139 31.4943 47.5857 17.8775 37.5661 11.1C37.3568 10.9584 37.1452 10.8205 36.9312 10.6863C36.5453 4.41065 31.1451 -0.364044 24.8695 0.0218357C19.1321 0.374553 14.5578 4.94898 14.205 10.6863C-10.2756 27.1677 12.8316 62.7833 37.8943 47.0451L40.2415 49.3923C39.6031 49.7356 38.9324 50.4921 39.5923 51.1628L47.0255 58.5934C48.9094 60.4691 51.9551 60.4691 53.839 58.5934L54.9818 57.4533C56.6908 55.6033 56.5494 52.6202 54.9819 50.6397ZM25.5682 1.74019C30.8553 1.74464 35.1403 6.02963 35.1448 11.3168C35.1448 18.0069 27.902 28.0556 25.5682 31.1056C23.2479 28.0556 15.9943 18.0069 15.9943 11.3168C16.0002 6.03115 20.2827 1.74757 25.5682 1.74019ZM39.0425 29.1769C39.0484 36.6125 33.0254 42.6452 25.5896 42.6512C18.1539 42.6571 12.1214 36.6341 12.1154 29.1983C12.1125 25.5146 13.6191 21.9906 16.284 19.4474C17.9763 23.0906 20.0107 26.5648 22.3599 29.8234C14.6583 31.8272 18.0866 37.9729 25.6192 37.7207C33.224 37.9729 36.5799 31.7522 28.7899 29.8046C31.1335 26.5511 33.1643 23.0833 34.8551 19.4474C37.5266 21.9787 39.0406 25.4966 39.0425 29.1769ZM27.6122 31.4275C33.8759 32.6104 31.7459 35.7436 25.6191 35.8993C19.57 35.7463 17.3569 32.6561 23.5401 31.441C24.2724 32.4281 24.7714 33.0505 24.8627 33.1578C26.1261 34.1475 26.3891 32.8466 27.6122 31.4275ZM5.66664 29.1769C5.67086 22.6401 8.88703 16.5228 14.2694 12.8135C14.5026 14.4742 14.9322 16.1014 15.5489 17.6609C9.17049 23.195 8.48615 32.8521 14.0203 39.2305C19.5544 45.6089 29.2115 46.2933 35.5899 40.7591C41.9684 35.225 42.6527 25.5679 37.1186 19.1895C36.6458 18.6445 36.135 18.1337 35.5899 17.6609C36.2054 16.0994 36.6331 14.4705 36.8642 12.8082C45.9078 19.0498 48.1793 31.441 41.9376 40.4846C35.6959 49.5282 23.3048 51.7997 14.2612 45.558C8.87789 41.8424 5.66453 35.7181 5.66664 29.1769ZM39.359 45.9453C40.4415 45.0546 41.4351 44.061 42.3258 42.9784L44.6837 45.3391C43.7948 46.4191 42.802 47.4092 41.7195 48.2952L39.359 45.9453ZM53.6836 56.1683L52.5436 57.3111C51.3718 58.4807 49.4743 58.4807 48.3025 57.3111L41.6499 50.6584C43.7249 49.169 45.5434 47.3516 47.0337 45.2773L53.6836 51.9273C54.8547 53.0923 54.8598 54.9861 53.6948 56.1572C53.691 56.1609 53.6873 56.1646 53.6836 56.1683ZM31.2631 11.4133C31.1266 8.27108 28.4687 5.8344 25.3263 5.9708C22.3752 6.099 20.012 8.46221 19.8838 11.4133C20.0204 14.5555 22.6783 16.9922 25.8206 16.8558C28.7717 16.7275 31.1349 14.3643 31.2631 11.4133ZM21.6946 11.4133C21.751 9.27322 23.5315 7.58404 25.6716 7.64041C27.7324 7.69466 29.3902 9.35244 29.4445 11.4133C29.3881 13.5534 27.6076 15.2426 25.4675 15.1862C23.4067 15.1318 21.7489 13.4741 21.6946 11.4133Z" fill="#266BFF"/>
</g>
<defs>
<clipPath id="clip0_58_5">
<rect width="60" height="60" fill="white"/>
</clipPath>
</defs>
</svg>
