<svg width="60" height="60" viewBox="0 0 60 60" fill="none" xmlns="http://www.w3.org/2000/svg">
<path d="M4.69117 1.87555C3.14926 1.87555 1.875 3.14251 1.875 4.68442V36.5612C1.875 38.1031 3.14926 39.3701 4.69117 39.3701H14.0607C15.4226 39.4923 15.4226 37.38 14.0607 37.5024H4.69117C4.15555 37.5024 3.75 37.0968 3.75 36.5612V11.2451H41.2518V17.8131C41.2242 19.0904 43.1544 19.0904 43.1268 17.8131V4.68442C43.1268 3.14251 41.8526 1.87555 40.3107 1.87555H4.69117ZM50.6085 2.80203C50.365 2.80912 50.1338 2.9112 49.964 3.08588L47.1478 5.89659C46.7806 6.2629 46.7806 6.85783 47.1478 7.22414L49.964 10.0347C50.8425 11.0602 52.3115 9.59123 51.286 8.7127L50.0812 7.50237H51.5625C53.1369 7.50237 54.3732 8.73687 54.3732 10.3112V15.938C54.3732 17.1884 56.2482 17.1884 56.2482 15.938V10.3112C56.2482 7.73057 54.1432 5.62561 51.5625 5.62561H50.0757L51.286 4.41527C51.9045 3.82081 51.466 2.77659 50.6085 2.80203ZM4.69117 3.75058H40.3107C40.8463 3.75058 41.2518 4.14881 41.2518 4.68442V9.37739H3.75V4.68442C3.75 4.14881 4.15555 3.75058 4.69117 3.75058ZM6.5625 5.62377C6.04474 5.62377 5.625 6.04343 5.625 6.56117C5.625 7.07896 6.04474 7.49869 6.5625 7.49869C7.08026 7.49869 7.5 7.07896 7.5 6.56117C7.5 6.04343 7.08026 5.62377 6.5625 5.62377ZM10.3125 5.62377C9.79474 5.62377 9.375 6.04343 9.375 6.56117C9.375 7.07896 9.79474 7.49869 10.3125 7.49869C10.8303 7.49869 11.25 7.07896 11.25 6.56117C11.25 6.04343 10.8303 5.62377 10.3125 5.62377ZM14.0625 5.62377C13.5447 5.62377 13.125 6.04343 13.125 6.56117C13.125 7.07896 13.5447 7.49869 14.0625 7.49869C14.5803 7.49869 15 7.07896 15 6.56117C15 6.04343 14.5803 5.62377 14.0625 5.62377ZM27.1262 7.50053L38.4357 7.50237C39.6869 7.50237 39.6869 5.62561 38.4357 5.62561H27.1408C25.9264 5.68868 25.8995 7.39915 27.1262 7.50053ZM12.1857 14.9969C10.9077 14.9685 10.9077 16.9002 12.1857 16.8719H29.0643C30.3423 16.9002 30.3423 14.9686 29.0643 14.9969H12.1857ZM32.8162 14.9969C31.5382 14.9685 31.5382 16.9002 32.8162 16.8719H36.5588C37.8368 16.9002 37.8368 14.9686 36.5588 14.9969H32.8162ZM8.43383 20.6219C7.18262 20.6219 7.18262 22.4987 8.43383 22.4987H14.0607C15.3119 22.4987 15.3119 20.6219 14.0607 20.6219H8.43383ZM19.6875 20.6219C18.1456 20.6219 16.8787 21.898 16.8787 23.4399V55.3075C16.8787 56.8494 18.1456 58.1255 19.6875 58.1255H55.3143C56.8562 58.1255 58.125 56.8494 58.125 55.3075V23.4399C58.125 21.898 56.8562 20.6219 55.3143 20.6219H19.6875ZM19.6875 22.4987H55.3143C55.8499 22.4987 56.2482 22.9043 56.2482 23.4399V28.1255H18.7537V23.4399C18.7537 22.9043 19.1519 22.4987 19.6875 22.4987ZM21.5625 24.3737C21.0447 24.3737 20.625 24.7935 20.625 25.3112C20.625 25.829 21.0447 26.2487 21.5625 26.2487C22.0803 26.2487 22.5 25.829 22.5 25.3112C22.5 24.7935 22.0803 24.3737 21.5625 24.3737ZM25.3125 24.3737C24.7947 24.3737 24.375 24.7935 24.375 25.3112C24.375 25.829 24.7947 26.2487 25.3125 26.2487C25.8303 26.2487 26.25 25.829 26.25 25.3112C26.25 24.7935 25.8303 24.3737 25.3125 24.3737ZM29.0625 24.3737C28.5447 24.3737 28.125 24.7935 28.125 25.3112C28.125 25.829 28.5447 26.2487 29.0625 26.2487C29.5803 26.2487 30 25.829 30 25.3112C30 24.7935 29.5803 24.3737 29.0625 24.3737ZM42.1857 26.2487H53.4393C54.6619 26.2203 54.6619 24.4009 53.4393 24.3737H42.1408C40.875 24.4598 40.9621 26.2797 42.1857 26.2487ZM8.43567 28.1255H14.0607C15.3119 28.1255 15.3119 26.2487 14.0607 26.2487H8.38989C7.0929 26.3096 7.18445 28.1865 8.43567 28.1255ZM18.7537 30.0005H56.2482V55.3075C56.2482 55.8431 55.8499 56.2505 55.3143 56.2505H19.6875C19.1519 56.2505 18.7537 55.8431 18.7537 55.3075V30.0005ZM8.43567 33.7506H14.0607C15.2833 33.7223 15.2833 31.9026 14.0607 31.8756H8.38989C7.1203 31.9603 7.20944 33.7857 8.43567 33.7506ZM44.3243 36.3067C45.2519 37.2343 45.2475 38.6815 44.3204 39.6191L39.6128 44.3139C38.7699 45.1544 37.4944 45.2253 36.5769 44.5502C35.5708 43.8155 34.4646 45.3189 35.4655 46.0608C37.1149 47.2748 39.4501 47.1239 40.9367 45.6416L45.6498 40.9412C45.6526 40.9403 45.6544 40.9384 45.6572 40.9377C47.2824 39.2937 47.2927 36.6205 45.6533 34.9813C44.8337 34.1617 43.7503 33.7498 42.6678 33.749C41.5853 33.7482 40.5049 34.1582 39.6878 34.9849L38.4133 36.2191C37.4936 37.0878 38.8183 38.4572 39.717 37.5667L41.0134 36.3107C41.9383 35.375 43.3967 35.3789 44.3243 36.3067ZM30.6775 49.9243C29.7499 48.9967 29.7506 47.5531 30.6775 46.6155L35.3906 41.917C36.2335 41.0766 37.5036 41.0057 38.421 41.6808C39.4332 42.4775 40.594 40.9088 39.5361 40.1738C38.7114 39.5668 37.7157 39.2989 36.7401 39.37C35.7645 39.4412 34.8046 39.8538 34.0613 40.5949L29.3481 45.2952C29.3453 45.2971 29.3435 45.2988 29.3407 45.3024C27.7155 46.9463 27.7085 49.6159 29.3481 51.2551C30.9874 52.8943 33.6795 52.9017 35.3137 51.2481L36.5881 50.0157C37.6241 49.1526 36.1805 47.6643 35.2863 48.6735L33.9853 49.9259C33.0613 50.8616 31.6052 50.8523 30.6775 49.9243ZM6.54602 43.1219C6.3035 43.1289 6.07248 43.2264 5.90149 43.3982L3.08533 46.2071C2.1991 47.0934 3.52844 48.4226 4.41467 47.5364L5.625 46.3225V51.5648C5.625 54.1454 7.72997 56.2504 10.3107 56.2504H12.1857C13.436 56.2504 13.436 54.3736 12.1857 54.3736H10.3107C8.73631 54.3736 7.5 53.1391 7.5 51.5648V46.3261L8.71216 47.5364C9.59821 48.4604 10.9649 47.0919 10.0397 46.2071L7.22351 43.3984C7.04445 43.2184 6.79998 43.1183 6.54602 43.1219Z" fill="#266BFF"/>
</svg>
