<svg width="60" height="60" viewBox="0 0 60 60" fill="none" xmlns="http://www.w3.org/2000/svg">
<path fill-rule="evenodd" clip-rule="evenodd" d="M35.9999 38.28H18.8999C17.8499 38.28 17.8499 36.69 18.8999 36.69H35.9999C37.0499 36.69 37.0499 38.28 35.9999 38.28ZM51.8099 44.19H41.5499C41.3099 44.52 41.0399 44.82 40.7999 45.15L42.4199 46.77C43.6199 46.08 45.1499 46.26 46.1399 47.25L49.2299 50.34C51.1499 52.26 49.7699 55.59 47.0399 55.59C46.1999 55.59 45.4499 55.26 44.8499 54.69L41.7899 51.63C40.7699 50.61 40.6199 49.08 41.2799 47.91L39.6899 46.29C32.0999 53.7 19.7399 52.71 13.3499 44.19H8.18991C6.11991 44.19 4.40991 42.48 4.40991 40.41V8.18997C4.40991 6.11997 6.11991 4.40997 8.18991 4.40997H51.8099C53.8799 4.40997 55.5899 6.11997 55.5899 8.18997V40.41C55.5899 42.48 53.8799 44.19 51.8099 44.19ZM43.5299 33.54C43.4399 21.81 29.3999 12.51 18.0599 20.76C10.1399 26.58 9.20991 38.04 16.1699 44.97C19.3799 48.21 23.5799 49.74 27.7199 49.65C36.3899 49.5 43.5899 42.15 43.5299 33.54ZM42.5999 42.6H51.8099C53.0099 42.6 53.9999 41.61 53.9999 40.41V13.62H5.99991V40.41C5.99991 41.61 6.98991 42.6 8.18991 42.6H12.2999C5.39991 30.9 13.8899 16.11 27.4499 16.11C41.0699 16.11 49.4699 30.96 42.5999 42.6ZM5.99991 12H53.9999V8.18997C53.9999 6.98997 53.0099 5.99997 51.8099 5.99997H8.18991C6.98991 5.99997 5.99991 6.98997 5.99991 8.18997V12ZM11.5799 9.80997H9.02991C7.94991 9.80997 7.94991 8.18997 8.99991 8.18997H11.5499C12.5999 8.18997 12.5999 9.80997 11.5799 9.80997ZM17.7899 9.80997H15.2099C14.1599 9.80997 14.1599 8.18997 15.2099 8.18997H17.7899C18.8399 8.18997 18.8399 9.80997 17.7899 9.80997ZM27.4499 47.58C19.7699 47.58 13.5599 41.37 13.5599 33.69C13.5599 26.01 19.7699 19.8 27.4499 19.8C35.1299 19.8 41.3399 26.01 41.3399 33.69C41.3399 41.37 35.1299 47.58 27.4499 47.58ZM27.4499 21.39C16.5299 21.39 11.0399 34.65 18.7499 42.39C26.4899 50.1 39.7499 44.61 39.7499 33.69C39.7499 26.88 34.2599 21.39 27.4499 21.39ZM43.9799 47.97C42.6599 47.97 41.9999 49.56 42.9299 50.49L45.9899 53.58C47.3699 54.96 49.4699 52.86 48.0899 51.48L45.0299 48.39C44.7299 48.12 44.3699 47.97 43.9799 47.97ZM50.5199 17.7H41.7599C40.7099 17.7 40.7099 16.11 41.7599 16.11H50.5199C51.5699 16.11 51.5699 17.7 50.5199 17.7ZM50.5199 21.18H45.2699C44.1899 21.18 44.1899 19.59 45.2699 19.59H50.5199C51.5699 19.59 51.5699 21.18 50.5199 21.18ZM35.9999 30.69H18.8999C17.8499 30.69 17.8499 29.1 18.8999 29.1H35.9999C37.0499 29.1 37.0499 30.69 35.9999 30.69ZM35.9999 34.5H18.8999C17.8499 34.5 17.8499 32.88 18.8999 32.88H35.9999C37.0499 32.88 37.0499 34.5 35.9999 34.5Z" fill="#266BFF"/>
</svg>
