<svg width="60" height="60" viewBox="0 0 60 60" fill="none" xmlns="http://www.w3.org/2000/svg">
<path d="M33.1758 26.7539C32.6602 26.7539 32.2383 26.332 32.2383 25.8164C32.2383 25.3008 32.6602 24.8789 33.1758 24.8789H42.6446V23.3203C42.6446 21.8555 43.8399 20.6602 45.3047 20.6602H49.6172C51.0821 20.6602 52.2774 21.8555 52.2774 23.3203V27.6328C52.2774 29.0977 51.0821 30.293 49.6172 30.293H48.1641V39.9961C48.1641 40.5117 47.7422 40.9336 47.2266 40.9336H41.3907C40.8751 40.9336 40.4532 40.5117 40.4532 39.9961C40.4532 39.4805 40.8751 39.0586 41.3907 39.0586H46.2891V30.293H45.3165C43.8516 30.293 42.6563 29.0977 42.6563 27.6328V26.7539H33.1758ZM49.6172 22.5352H45.3047C44.8712 22.5352 44.5196 22.8984 44.5196 23.3203V27.6328C44.5196 28.0664 44.8829 28.418 45.3047 28.418H49.6172C50.0508 28.418 50.4024 28.0547 50.4024 27.6328V23.3203C50.4024 22.8984 50.0508 22.5352 49.6172 22.5352ZM35.4962 11.4844C34.9805 11.4844 34.5587 11.0625 34.5587 10.5469C34.5587 10.0312 34.9805 9.60938 35.4962 9.60938H49.629C50.1446 9.60938 50.5665 10.0312 50.5665 10.5469C50.5665 11.0625 50.1446 11.4844 49.629 11.4844H35.4962ZM20.1329 11.4844C19.6172 11.4844 19.1954 11.0625 19.1954 10.5469C19.1954 10.0312 19.6172 9.60938 20.1329 9.60938H20.3321C20.8477 9.60938 21.2696 10.0312 21.2696 10.5469C21.2696 11.0625 20.8477 11.4844 20.3321 11.4844H20.1329ZM14.8829 11.4844C14.3672 11.4844 13.9454 11.0625 13.9454 10.5469C13.9454 10.0312 14.3672 9.60938 14.8829 9.60938H15.0821C15.5977 9.60938 16.0196 10.0312 16.0196 10.5469C16.0196 11.0625 15.5977 11.4844 15.0821 11.4844H14.8829ZM9.64459 11.4844C9.12896 11.4844 8.70709 11.0625 8.70709 10.5469C8.70709 10.0312 9.12896 9.60938 9.64459 9.60938H9.83209C10.3477 9.60938 10.7696 10.0312 10.7696 10.5469C10.7696 11.0625 10.3477 11.4844 9.83209 11.4844H9.64459ZM55.4649 15.9844H4.60553V50.7187C4.60553 51.9023 5.57818 52.8867 6.76178 52.8867H53.2969C54.4805 52.8867 55.4649 51.9141 55.4649 50.7187V15.9844ZM4.60553 14.1094H55.4649V9.25781C55.4649 8.07422 54.4922 7.08984 53.2969 7.08984H6.77349C5.5899 7.08984 4.61724 8.0625 4.61724 9.25781V14.1094H4.60553ZM6.77349 5.21484H53.3087C55.5352 5.21484 57.3516 7.03125 57.3516 9.25781V50.7305C57.3516 52.957 55.5352 54.7617 53.3087 54.7617H6.77349C4.54693 54.7617 2.74224 52.9453 2.74224 50.7305V9.25781C2.73053 7.03125 4.54693 5.21484 6.77349 5.21484ZM23.5079 32.2969C23.6954 30.3164 23.6133 28.1953 23.2735 26.2969C20.8946 26.1328 18.3282 26.1328 15.9493 26.2969C15.504 28.7578 15.504 31.5703 15.9493 34.043C17.7422 34.1719 19.8516 34.207 21.6446 34.1367C21.6797 34.0781 21.7266 34.0313 21.7618 33.9844L23.2618 32.4844C23.3438 32.4023 23.4258 32.3438 23.5079 32.2969ZM22.8047 24.3867C22.2774 22.6641 21.129 20.2734 19.6055 20.2734C18.0821 20.2734 16.9336 22.6641 16.4063 24.3867C18.5157 24.2695 20.7071 24.2695 22.8047 24.3867ZM16.4063 35.9531C16.9454 37.6992 18.0938 40.0898 19.629 40.0664V39.1406C19.629 38.707 19.9219 38.3437 20.3204 38.2383L21.3399 37.8516L21.6563 36.9492C21.7735 36.6562 21.9141 36.375 22.0665 36.0938L22.0196 35.9883C20.086 36.0703 18.2696 36.0586 16.4063 35.9531ZM15.8555 39.3281C15.2227 38.2852 14.754 37.0547 14.4258 35.7891C13.3008 35.6719 12.1993 35.5195 11.168 35.332C12.2579 37.125 13.8985 38.5313 15.8555 39.3281ZM14.0157 33.8672C13.629 31.4766 13.629 28.8633 14.0157 26.4727C12.6329 26.6367 11.3555 26.8477 10.1954 27.1055C9.55084 29.0977 9.55084 31.2539 10.1954 33.2461C11.3555 33.4922 12.6329 33.7148 14.0157 33.8672ZM14.4141 24.5508C14.7422 23.2969 15.211 22.0547 15.8438 21.0117C13.8985 21.8086 12.2579 23.2148 11.1563 24.9961C12.1876 24.8203 13.3008 24.668 14.4141 24.5508ZM23.3672 21.0117C24.0001 22.0547 24.4688 23.2969 24.7969 24.5508C25.9219 24.668 27.0235 24.8203 28.0547 25.0078C26.9532 23.2148 25.3126 21.8086 23.3672 21.0117ZM25.1954 26.4727C25.5118 28.4883 25.5704 30.668 25.336 32.7539L25.3829 32.7773C25.9337 32.4727 26.5196 32.2266 27.129 32.0508L27.5391 30.9492C27.6797 30.5742 28.043 30.3398 28.418 30.3398H29.4961C29.5079 29.2148 29.3555 28.1484 29.0157 27.1055C27.8555 26.8477 26.5782 26.6367 25.1954 26.4727ZM7.8399 30.4453C7.68756 23.8594 12.9844 18.3984 19.6055 18.3984C26.168 18.3984 31.4532 23.7656 31.3712 30.293L31.3594 30.7969C31.4063 30.8672 31.4415 30.9492 31.4532 31.0312L31.8399 32.0508C32.4493 32.2266 33.0352 32.4727 33.586 32.7773L34.6641 32.2852C35.0274 32.1211 35.4493 32.2031 35.7071 32.4727L37.2071 33.9727C37.5118 34.2773 37.5587 34.7227 37.3712 35.0742L36.9141 36.0938C37.2188 36.6445 37.4649 37.2305 37.6407 37.8398L38.7422 38.25C39.1172 38.3906 39.3516 38.7422 39.3516 39.1289V41.2617C39.3516 41.6953 39.0587 42.0586 38.6602 42.1641L37.6407 42.5508C37.4649 43.1602 37.2188 43.7461 36.9141 44.2969L37.4063 45.375C37.5704 45.7383 37.4766 46.1484 37.2188 46.418L35.7188 47.918C35.4141 48.2227 34.9688 48.2695 34.6172 48.082L33.5977 47.625C33.3282 47.7773 33.0469 47.9062 32.7422 48.0352C32.4493 48.1523 32.1563 48.2578 31.8399 48.3516L31.4297 49.4531C31.2891 49.8281 30.9258 50.0625 30.5508 50.0625H28.4297C27.9962 50.0625 27.6329 49.7695 27.5274 49.3711L27.1407 48.3516L26.2501 48.0352C25.9571 47.918 25.6641 47.7773 25.3946 47.625L24.3165 48.1055C23.9532 48.2695 23.543 48.1875 23.2735 47.918L21.7735 46.418C21.4688 46.1133 21.4219 45.668 21.6094 45.3164L22.0665 44.2969C21.7618 43.7461 21.5157 43.1602 21.3399 42.5508L20.2383 42.1406C20.1211 42.0938 20.004 42.0234 19.9219 41.9414C13.4649 42.1523 7.99224 36.9727 7.8399 30.4453ZM29.4844 37.2539C26.8712 37.2539 25.5587 40.4297 27.3985 42.2812C29.2383 44.1211 32.4258 42.832 32.4258 40.207C32.4376 38.5781 31.1133 37.2539 29.4844 37.2539ZM26.0743 36.7969C27.961 34.9102 31.0079 34.9102 32.8946 36.7969C33.7735 37.6641 34.3008 38.8711 34.3008 40.207C34.3008 42.8672 32.1446 45.0234 29.4844 45.0234C26.8243 45.0234 24.668 42.8672 24.668 40.207C24.668 38.8711 25.2071 37.6641 26.0743 36.7969ZM29.0743 32.2148L28.7227 33.1641C28.6172 33.457 28.3712 33.6797 28.043 33.75C27.3047 33.9141 26.5899 34.2187 25.9454 34.6172C25.6876 34.7812 25.3594 34.8164 25.0547 34.6758L24.129 34.2539L23.543 34.8398L23.9415 35.7305C24.0821 36.0117 24.0821 36.3633 23.8946 36.6562C23.6836 36.9727 23.5079 37.3125 23.3672 37.6641C23.2266 38.0039 23.1094 38.3672 23.0274 38.7305C22.9688 39.0352 22.7461 39.3047 22.4415 39.4219L21.4922 39.7734V40.6055L22.4415 40.957C22.7227 41.0625 22.9571 41.3086 23.0274 41.6367C23.1915 42.375 23.4961 43.0898 23.9063 43.7344C24.0704 43.9922 24.1055 44.3203 23.9649 44.6133L23.543 45.5391L24.129 46.125L25.0079 45.7266C25.2891 45.5859 25.6407 45.5859 25.9337 45.7734C26.2501 45.9844 26.5899 46.1602 26.9415 46.3008C27.2813 46.4414 27.6446 46.5586 28.0079 46.6406C28.3126 46.6992 28.5821 46.9219 28.6993 47.2266L29.0508 48.1758H29.8829L30.2344 47.2266C30.3399 46.9453 30.586 46.7109 30.9141 46.6406C31.2774 46.5586 31.6407 46.4414 31.9922 46.3008C32.3555 46.1484 32.6485 45.9961 33.0001 45.7734C33.2579 45.6094 33.586 45.5742 33.8907 45.7148L34.8165 46.1367L35.4024 45.5508L35.004 44.6602C34.8633 44.3789 34.8633 44.0273 35.0508 43.7344C35.4376 43.1133 35.7657 42.3633 35.918 41.6602C35.9766 41.3555 36.1993 41.0859 36.504 40.9688L37.4532 40.6172V39.7852L36.504 39.4336C36.2227 39.3281 35.9883 39.082 35.918 38.7539C35.754 38.0156 35.461 37.3008 35.0508 36.6562C34.8868 36.3984 34.8516 36.0703 34.9922 35.7773L35.4141 34.8516L34.8282 34.2656L33.9493 34.6641C33.668 34.8047 33.3165 34.8047 33.0235 34.6172C32.4024 34.2187 31.6641 33.9023 30.9493 33.75C30.6446 33.6914 30.3751 33.4687 30.2579 33.1641L29.9063 32.2148H29.0743Z" fill="#266BFF"/>
</svg>
