<svg width="60" height="60" viewBox="0 0 60 60" fill="none" xmlns="http://www.w3.org/2000/svg">
<path d="M18.7515 47.4574C21.535 47.4574 24.214 46.7834 26.6084 45.5198L30.9253 52.935C33.1916 57.0994 39.3567 57.8807 42.6175 54.4482C46.0589 51.1906 45.2624 45.0291 41.104 42.7562C41.1041 42.7562 33.6701 38.4284 33.6701 38.4284C35.7917 34.3681 36.2338 29.52 34.7064 25.0819C34.4455 24.038 32.8528 24.2344 32.8607 25.3232C36.3428 35.054 29.1971 45.6559 18.7514 45.5823C10.6919 45.7485 3.58428 38.643 3.75166 30.5823C3.59699 20.3383 14.2985 12.8834 23.8694 16.4826C25.0286 16.8907 25.6619 15.1551 24.5083 14.72C13.7441 10.6712 1.7004 19.0583 1.87664 30.5826C1.68941 39.6496 9.68334 47.6453 18.7515 47.4574ZM30.6831 42.5136C31.4463 41.7505 32.1179 40.9178 32.7101 40.039L40.1602 44.3767C43.2713 46.0764 43.8662 50.686 41.2917 53.1227C38.8539 55.6891 34.2388 55.1046 32.5458 51.9919C32.5458 51.992 28.2143 44.5517 28.2143 44.5517C29.0895 43.956 29.918 43.2787 30.6831 42.5136Z" fill="#266BFF"/>
<path d="M23.2377 21.2921C24.3523 21.8115 25.1551 20.1572 24.0534 19.6038C19.3952 17.3531 13.8 18.2997 10.1283 21.9609C2.47473 29.6019 8.0337 42.8426 18.7513 42.7625C28.4783 42.8694 34.4682 31.5283 28.7032 23.5428C27.9869 22.5469 26.4707 23.6238 27.1745 24.6279C30.0863 28.7326 29.6125 34.3059 26.0493 37.8783C22.0246 41.8929 15.4777 41.892 11.4558 37.8801C3.41555 29.5296 12.7261 16.4365 23.2377 21.2921Z" fill="#266BFF"/>
<path d="M18.146 31.2984C18.5395 31.6315 19.132 31.5848 19.4675 31.1876L27.4424 21.7609C28.6896 22.4201 30.3963 22.1889 31.434 21.277L36.6925 25.1001C36.1146 26.8512 37.5383 28.7386 39.3766 28.7074C41.433 28.761 42.8705 26.3903 41.8613 24.6053L51.5641 14.2113V17.4575C51.5834 18.6867 53.4186 18.692 53.4391 17.4574V11.8325C53.4186 11.3163 53.0112 10.917 52.5016 10.895H46.8766C45.6469 10.9152 45.6421 12.7488 46.8767 12.77C46.8766 12.77 50.3433 12.77 50.3433 12.77L40.4966 23.3181C39.651 22.9254 38.5298 23.0411 37.787 23.5784L32.5456 19.7677C33.5529 17.3923 31.6517 14.5905 29.0641 14.645C26.0977 14.5537 24.2312 18.2137 26.0076 20.5533L18.0357 29.9773C17.7015 30.3719 17.7509 30.9642 18.146 31.2984ZM39.3766 24.9574C40.6087 24.9793 40.6085 26.8107 39.3765 26.8324C38.1445 26.8105 38.1447 24.9791 39.3766 24.9574ZM29.0641 16.5199C30.5543 16.4736 31.4864 18.3202 30.582 19.4868C29.5764 20.9514 27.1564 20.1871 27.1891 18.3949C27.1891 17.3608 28.03 16.5199 29.0641 16.5199Z" fill="#266BFF"/>
<path d="M52.5016 3.39496H17.8141C14.7123 3.39496 12.1891 5.91816 12.1891 9.01996V12.7137C12.2064 13.9473 14.0522 13.9362 14.0641 12.7136V9.01996C14.0641 6.95224 15.7464 5.26996 17.8141 5.26996H52.5016C54.5698 5.26996 56.2516 6.95224 56.2516 9.01996V37.145C56.2516 39.2131 54.5698 40.895 52.5016 40.895H43.0707C42.5526 40.895 42.1332 41.3143 42.1332 41.8325C42.1332 42.3506 42.5526 42.77 43.0707 42.77H52.5016C55.6034 42.77 58.1266 40.2468 58.1266 37.145V9.01996C58.1266 5.91816 55.6034 3.39496 52.5016 3.39496Z" fill="#266BFF"/>
<path d="M43.1265 36.2075C41.8973 36.2269 41.8917 38.0619 43.1266 38.0825H53.439C54.6683 38.0631 54.6739 36.228 53.439 36.2075H43.1265Z" fill="#266BFF"/>
<path d="M53.439 32.4575H47.814C46.5833 32.4773 46.5804 34.312 47.8141 34.3325H53.439C54.6698 34.3126 54.6726 32.4778 53.439 32.4575Z" fill="#266BFF"/>
<path d="M24.3766 9.95746C25.6066 9.9372 25.6106 8.10346 24.3766 8.08246H16.8766C15.6466 8.10272 15.6427 9.9364 16.8767 9.95746H24.3766Z" fill="#266BFF"/>
</svg>
