<svg width="60" height="60" viewBox="0 0 60 60" fill="none" xmlns="http://www.w3.org/2000/svg">
<path d="M53.4375 41.25H51.5625V33.75C51.5625 33.2527 51.3649 32.7758 51.0133 32.4242C50.6617 32.0725 50.1848 31.875 49.6875 31.875H47.8125C47.3152 31.875 46.8383 32.0725 46.4867 32.4242C46.135 32.7758 45.9375 33.2527 45.9375 33.75V41.25H45V28.125C45 27.6277 44.8024 27.1508 44.4508 26.7992C44.0992 26.4475 43.6223 26.25 43.125 26.25H41.25C40.7527 26.25 40.2758 26.4475 39.9242 26.7992C39.5725 27.1508 39.375 27.6277 39.375 28.125V41.25H38.4375V30.9375C38.4375 30.4402 38.2399 29.9633 37.8883 29.6117C37.5367 29.26 37.0598 29.0625 36.5625 29.0625H34.6875C34.1902 29.0625 33.7133 29.26 33.3617 29.6117C33.01 29.9633 32.8125 30.4402 32.8125 30.9375V41.25C32.5639 41.2498 32.3256 41.1509 32.1498 40.9751C31.9741 40.7994 31.8752 40.5611 31.875 40.3125V25.3125C31.875 25.0639 31.7762 24.8254 31.6004 24.6496C31.4246 24.4738 31.1861 24.375 30.9375 24.375C30.6888 24.375 30.4504 24.4738 30.2746 24.6496C30.0988 24.8254 30 25.0639 30 25.3125V40.3125C30.0008 41.0582 30.2974 41.7731 30.8246 42.3003C31.3519 42.8276 32.0668 43.1242 32.8125 43.125H53.4375C53.6861 43.125 53.9246 43.0262 54.1004 42.8504C54.2762 42.6746 54.375 42.4361 54.375 42.1875C54.375 41.9389 54.2762 41.7004 54.1004 41.5246C53.9246 41.3488 53.6861 41.25 53.4375 41.25ZM34.6875 41.25L34.6861 30.9375H36.5625V41.25H34.6875ZM41.25 41.25L41.2486 28.125H43.125V41.25H41.25ZM47.8125 41.25L47.8111 33.75H49.6875V41.25H47.8125ZM43.125 13.125C43.125 13.0019 43.1492 12.88 43.1963 12.7662C43.2434 12.6524 43.3124 12.5491 43.3995 12.462C43.4866 12.375 43.5899 12.3059 43.7037 12.2588C43.8174 12.2117 43.9394 12.1875 44.0625 12.1875H52.5C52.7486 12.1875 52.9871 12.2863 53.1629 12.4621C53.3387 12.6379 53.4375 12.8764 53.4375 13.125C53.4375 13.3736 53.3387 13.6121 53.1629 13.7879C52.9871 13.9637 52.7486 14.0625 52.5 14.0625H44.0625C43.9394 14.0625 43.8174 14.0383 43.7037 13.9912C43.5899 13.9441 43.4866 13.875 43.3995 13.788C43.3124 13.7009 43.2434 13.5976 43.1963 13.4838C43.1492 13.37 43.125 13.2481 43.125 13.125ZM40.3125 13.125C40.3125 12.9396 40.3675 12.7583 40.4705 12.6042C40.5735 12.45 40.7199 12.3298 40.8912 12.2589C41.0625 12.1879 41.251 12.1693 41.4329 12.2055C41.6147 12.2417 41.7818 12.331 41.9129 12.4621C42.044 12.5932 42.1333 12.7602 42.1695 12.9421C42.2056 13.124 42.1871 13.3125 42.1161 13.4838C42.0452 13.6551 41.925 13.8015 41.7708 13.9045C41.6167 14.0075 41.4354 14.0625 41.25 14.0625C41.0013 14.0625 40.7629 13.9637 40.5871 13.7879C40.4113 13.6121 40.3125 13.3736 40.3125 13.125ZM43.125 16.875C43.125 16.7519 43.1492 16.63 43.1963 16.5162C43.2434 16.4024 43.3124 16.2991 43.3995 16.212C43.4866 16.125 43.5899 16.0559 43.7037 16.0088C43.8174 15.9617 43.9394 15.9375 44.0625 15.9375H52.5C52.7486 15.9375 52.9871 16.0363 53.1629 16.2121C53.3387 16.3879 53.4375 16.6264 53.4375 16.875C53.4375 17.1236 53.3387 17.3621 53.1629 17.5379C52.9871 17.7137 52.7486 17.8125 52.5 17.8125H44.0625C43.9394 17.8125 43.8174 17.7883 43.7037 17.7412C43.5899 17.6941 43.4866 17.625 43.3995 17.538C43.3124 17.4509 43.2434 17.3476 43.1963 17.2338C43.1492 17.12 43.125 16.9981 43.125 16.875ZM43.125 20.625C43.125 20.5019 43.1492 20.38 43.1963 20.2662C43.2434 20.1524 43.3124 20.0491 43.3995 19.962C43.4866 19.875 43.5899 19.8059 43.7037 19.7588C43.8174 19.7117 43.9394 19.6875 44.0625 19.6875H52.5C52.7486 19.6875 52.9871 19.7863 53.1629 19.9621C53.3387 20.1379 53.4375 20.3764 53.4375 20.625C53.4375 20.8736 53.3387 21.1121 53.1629 21.2879C52.9871 21.4637 52.7486 21.5625 52.5 21.5625H44.0625C43.9394 21.5625 43.8174 21.5383 43.7037 21.4912C43.5899 21.4441 43.4866 21.375 43.3995 21.288C43.3124 21.2009 43.2434 21.0976 43.1963 20.9838C43.1492 20.87 43.125 20.7481 43.125 20.625ZM40.3125 16.875C40.3125 16.6896 40.3675 16.5083 40.4705 16.3542C40.5735 16.2 40.7199 16.0798 40.8912 16.0089C41.0625 15.9379 41.251 15.9193 41.4329 15.9555C41.6147 15.9917 41.7818 16.081 41.9129 16.2121C42.044 16.3432 42.1333 16.5102 42.1695 16.6921C42.2056 16.874 42.1871 17.0625 42.1161 17.2338C42.0452 17.4051 41.925 17.5515 41.7708 17.6545C41.6167 17.7575 41.4354 17.8125 41.25 17.8125C41.0013 17.8125 40.7629 17.7137 40.5871 17.5379C40.4113 17.3621 40.3125 17.1236 40.3125 16.875ZM40.3125 20.625C40.3125 20.4396 40.3675 20.2583 40.4705 20.1042C40.5735 19.95 40.7199 19.8298 40.8912 19.7589C41.0625 19.6879 41.251 19.6693 41.4329 19.7055C41.6147 19.7417 41.7818 19.831 41.9129 19.9621C42.044 20.0932 42.1333 20.2602 42.1695 20.4421C42.2056 20.624 42.1871 20.8125 42.1161 20.9838C42.0452 21.1551 41.925 21.3015 41.7708 21.4045C41.6167 21.5075 41.4354 21.5625 41.25 21.5625C41.0013 21.5625 40.7629 21.4637 40.5871 21.2879C40.4113 21.1121 40.3125 20.8736 40.3125 20.625ZM55.3125 6.5625H8.43749C7.69181 6.56331 6.97692 6.85989 6.44965 7.38716C5.92238 7.91443 5.6258 8.62933 5.62499 9.375V21.6099C4.84502 21.7191 4.13081 22.1066 3.61397 22.7009C3.09714 23.2951 2.81249 24.0562 2.81249 24.8438C2.81249 25.6313 3.09714 26.3924 3.61397 26.9866C4.13081 27.5809 4.84502 27.9684 5.62499 28.0776V32.4759C4.35056 33.6993 3.3576 35.1854 2.71499 36.831C2.07239 38.4766 1.79554 40.2423 1.90365 42.0056C2.01177 43.7689 2.50225 45.4875 3.34108 47.0423C4.1799 48.5971 5.34698 49.9507 6.76131 51.0093C8.17565 52.0679 9.80339 52.806 11.5316 53.1725C13.2597 53.5391 15.047 53.5252 16.7692 53.1318C18.4915 52.7385 20.1076 51.9751 21.5053 50.8947C22.903 49.8142 24.0489 48.4426 24.8634 46.875H55.3125C56.0582 46.8742 56.7731 46.5776 57.3003 46.0503C57.8276 45.5231 58.1242 44.8082 58.125 44.0625V9.375C58.1242 8.62933 57.8276 7.91443 57.3003 7.38716C56.7731 6.85989 56.0582 6.56331 55.3125 6.5625ZM4.68749 24.8438C4.68749 24.5656 4.76996 24.2937 4.92448 24.0625C5.079 23.8312 5.29863 23.651 5.55559 23.5445C5.81255 23.4381 6.0953 23.4103 6.36808 23.4645C6.64087 23.5188 6.89144 23.6527 7.0881 23.8494C7.28477 24.046 7.4187 24.2966 7.47297 24.5694C7.52723 24.8422 7.49938 25.1249 7.39294 25.3819C7.28651 25.6389 7.10626 25.8585 6.87501 26.013C6.64375 26.1675 6.37187 26.25 6.09374 26.25C5.7209 26.2496 5.36345 26.1013 5.09982 25.8377C4.83618 25.574 4.68789 25.2166 4.68749 24.8438ZM13.125 30.985V40.6896L4.57716 45.2923C3.93916 43.7976 3.66378 42.1731 3.77349 40.5516C3.88321 38.9301 4.37492 37.3576 5.20845 35.9624C6.04199 34.5672 7.19372 33.389 8.56958 32.524C9.94544 31.6589 11.5064 31.1316 13.125 30.985ZM15 30.985C17.3988 31.2071 19.6444 32.2611 21.3479 33.9646C23.0513 35.6681 24.1054 37.9137 24.3275 40.3125H15V30.985ZM14.0625 51.5625C12.3602 51.5616 10.6846 51.139 9.18537 50.3327C7.68615 49.5263 6.40996 48.3612 5.47078 46.9414L14.2996 42.1875H24.3275C24.0914 44.7479 22.9082 47.128 21.0096 48.8619C19.1111 50.5959 16.6337 51.5589 14.0625 51.5625ZM56.25 44.0625C56.2497 44.3111 56.1509 44.5494 55.9751 44.7251C55.7994 44.9009 55.561 44.9998 55.3125 45H25.6536C26.4314 42.6119 26.4512 40.0416 25.7103 37.6417C24.9694 35.2419 23.5041 33.1301 21.5154 31.596C19.5267 30.062 17.1121 29.1809 14.6028 29.0735C12.0934 28.9662 9.6124 29.6379 7.49999 30.9966V27.7959C8.05942 27.5311 8.53242 27.1133 8.86425 26.5909C9.19608 26.0684 9.37316 25.4627 9.37499 24.8438C9.37221 24.3522 9.25769 23.8677 9.04007 23.4269L13.784 19.2099C14.2233 19.4742 14.7183 19.632 15.2295 19.6709C15.7407 19.7097 16.2538 19.6283 16.728 19.4334L20.8593 22.6952C20.6598 23.1956 20.5866 23.7373 20.6461 24.2727C20.7057 24.808 20.8962 25.3204 21.2009 25.7647C21.5055 26.2089 21.9149 26.5712 22.3928 26.8196C22.8708 27.0681 23.4025 27.195 23.9412 27.1891C24.4798 27.1832 25.0086 27.0447 25.481 26.7858C25.9534 26.527 26.3548 26.1558 26.6496 25.705C26.9445 25.2542 27.1237 24.7378 27.1716 24.2013C27.2194 23.6647 27.1344 23.1247 26.9239 22.6289L32.3433 18.152C32.9885 18.5997 33.7733 18.8002 34.5543 18.7169C35.3352 18.6337 36.0601 18.2722 36.5965 17.6986C37.1329 17.1249 37.4449 16.3775 37.4756 15.5927C37.5064 14.808 37.2537 14.0384 36.7638 13.4246C36.2738 12.8108 35.5794 12.3937 34.8074 12.2497C34.0354 12.1057 33.2373 12.2442 32.559 12.6401C31.8807 13.036 31.3675 13.6627 31.1132 14.4057C30.8589 15.1487 30.8805 15.9585 31.1739 16.6869L25.7319 21.1824C25.1815 20.8156 24.5332 20.6237 23.8719 20.6317C23.2105 20.6397 22.567 20.8472 22.0257 21.2272L18.208 18.2131C18.5262 17.735 18.7133 17.1817 18.7506 16.6085C18.7879 16.0354 18.674 15.4625 18.4203 14.9472C18.1667 14.4318 17.7821 13.9922 17.3052 13.6721C16.8283 13.3521 16.2757 13.1629 15.7027 13.1234C15.1297 13.084 14.5564 13.1957 14.0401 13.4474C13.5238 13.6991 13.0827 14.082 12.7608 14.5577C12.439 15.0334 12.2477 15.5853 12.2061 16.1582C12.1645 16.731 12.274 17.3047 12.5238 17.822L7.77636 22.0418C7.6867 21.9877 7.59497 21.9371 7.49999 21.8916V9.375C7.50023 9.12644 7.59909 8.88812 7.77485 8.71236C7.95061 8.5366 8.18892 8.43775 8.43749 8.4375H55.3125C55.561 8.43775 55.7994 8.5366 55.9751 8.71236C56.1509 8.88812 56.2497 9.12644 56.25 9.375V44.0625ZM16.4631 17.4006C16.2664 17.5973 16.0159 17.7312 15.7431 17.7855C15.4703 17.8397 15.1876 17.8119 14.9306 17.7055C14.6736 17.599 14.454 17.4188 14.2995 17.1875C14.145 16.9563 14.0625 16.6844 14.0625 16.4062C14.0625 16.1281 14.145 15.8562 14.2995 15.625C14.454 15.3937 14.6736 15.2135 14.9306 15.107C15.1876 15.0006 15.4703 14.9728 15.7431 15.027C16.0159 15.0813 16.2664 15.2152 16.4631 15.4119C16.7264 15.6758 16.8743 16.0334 16.8743 16.4062C16.8743 16.7791 16.7264 17.1367 16.4631 17.4006ZM24.9006 24.9006C24.7039 25.0973 24.4534 25.2312 24.1806 25.2855C23.9078 25.3397 23.6251 25.3119 23.3681 25.2055C23.1111 25.099 22.8915 24.9188 22.737 24.6875C22.5825 24.4563 22.5 24.1844 22.5 23.9062C22.5 23.6281 22.5825 23.3562 22.737 23.125C22.8915 22.8937 23.1111 22.7135 23.3681 22.607C23.6251 22.5006 23.9078 22.4728 24.1806 22.527C24.4534 22.5813 24.7039 22.7152 24.9006 22.9119C25.1639 23.1758 25.3118 23.5334 25.3118 23.9062C25.3118 24.2791 25.1639 24.6367 24.9006 24.9006ZM33.2244 14.4744C33.421 14.2777 33.6716 14.1438 33.9444 14.0895C34.2172 14.0353 34.4999 14.0631 34.7569 14.1695C35.0138 14.276 35.2335 14.4562 35.388 14.6875C35.5425 14.9187 35.625 15.1906 35.625 15.4688C35.625 15.7469 35.5425 16.0188 35.388 16.25C35.2335 16.4813 35.0138 16.6615 34.7569 16.768C34.4999 16.8744 34.2172 16.9022 33.9444 16.848C33.6716 16.7937 33.421 16.6598 33.2244 16.4631C32.961 16.1992 32.8131 15.8416 32.8131 15.4688C32.8131 15.0959 32.961 14.7383 33.2244 14.4744Z" fill="#266BFF"/>
</svg>
