<svg width="60" height="60" viewBox="0 0 60 60" fill="none" xmlns="http://www.w3.org/2000/svg">
<path fill-rule="evenodd" clip-rule="evenodd" d="M36.6919 32.7448C36.6919 29.0548 33.69 26.0529 30 26.0529C26.31 26.0529 23.3087 29.0548 23.3087 32.7448V41.1787C23.3087 42.0997 24.0582 42.8499 24.9785 42.8499H35.0221C35.9431 42.8499 36.6919 42.0997 36.6919 41.1787V32.7448ZM24.1183 26.9035C22.6288 28.4038 21.7058 30.4679 21.7058 32.7447V37.1706H16.1692C15.635 37.1706 15.2009 36.7357 15.2009 36.2023V28.2545C15.2009 25.7387 17.2481 23.6928 19.7626 23.6928C21.7639 23.6929 23.5302 25.0197 24.1183 26.9035ZM19.7626 22.0907C21.0103 22.0907 22.0265 21.0759 22.0265 19.8268C22.0265 18.579 21.0103 17.5642 19.7626 17.5642C18.5148 17.5642 17.5 18.579 17.5 19.8268C17.5 21.0759 18.5148 22.0907 19.7626 22.0907ZM27.1351 21.585C27.1351 23.1651 28.4201 24.4506 30 24.4506C31.5799 24.4506 32.8649 23.1651 32.8649 21.585C32.8649 20.0064 31.5799 18.7215 30 18.7215C28.4201 18.7215 27.1351 20.0063 27.1351 21.585ZM35.8824 26.9035C36.4698 25.0197 38.2355 23.6929 40.2374 23.6929C42.7525 23.6929 44.7991 25.7388 44.7991 28.2546V36.2025C44.7991 36.7359 44.3657 37.1707 43.8316 37.1707H38.2942V32.7448C38.2942 30.4679 37.3712 28.4039 35.8824 26.9035ZM40.2374 22.0907C41.4852 22.0907 42.5 21.0759 42.5 19.8268C42.5 18.579 41.4852 17.5642 40.2374 17.5642C38.9897 17.5642 37.9735 18.579 37.9735 19.8268C37.9735 21.0759 38.9897 22.0907 40.2374 22.0907ZM35.0221 44.4521H24.9785C23.1737 44.4521 21.7057 42.9828 21.7057 41.1787V38.773H16.169C14.7511 38.773 13.5985 37.6204 13.5985 36.2025V28.2546C13.5985 25.7887 15.0535 23.6585 17.1494 22.6727C16.3804 21.9665 15.8976 20.9517 15.8976 19.8268C15.8976 17.6951 17.6315 15.9619 19.7624 15.9619C21.894 15.9619 23.6286 17.6952 23.6286 19.8268C23.6286 20.9537 23.1438 21.9699 22.3714 22.6768C23.7238 23.3148 24.8237 24.4323 25.4254 25.8306C25.9446 25.4856 26.5044 25.198 27.0965 24.9759C26.1404 24.1569 25.5328 22.9408 25.5328 21.585C25.5328 19.1232 27.5368 17.1185 29.9999 17.1185C32.4637 17.1185 34.4677 19.1232 34.4677 21.585C34.4677 22.9408 33.8594 24.1569 32.9033 24.9759C33.4955 25.198 34.0552 25.4856 34.5737 25.8306C35.176 24.4323 36.2759 23.3148 37.629 22.6768C36.8566 21.9699 36.3712 20.9537 36.3712 19.8268C36.3712 17.6951 38.1065 15.9619 40.2373 15.9619C42.3689 15.9619 44.1022 17.6952 44.1022 19.8268C44.1022 20.9517 43.6201 21.9665 42.8503 22.6727C44.9461 23.6585 46.4012 25.7887 46.4012 28.2546V36.2025C46.4012 37.6204 45.2486 38.773 43.8314 38.773H38.294V41.1787C38.2942 42.9828 36.8263 44.4521 35.0221 44.4521ZM30.611 45.4891L32.6914 47.9401C32.9777 48.2777 32.9358 48.7828 32.5981 49.0691C32.2604 49.3561 31.7558 49.3152 31.4692 48.9773L30.8014 48.19V55.6395C30.8014 56.0818 30.4422 56.4402 29.9999 56.4402C24.2491 56.4402 18.7807 54.6252 14.1874 51.1919C9.74652 47.8726 6.39624 43.1455 4.75416 37.879C4.62252 37.4569 4.85748 37.0073 5.28084 36.8757C5.70288 36.7447 6.15252 36.9803 6.28416 37.4023C9.45564 47.575 18.604 54.4917 29.1992 54.8253V48.1901L28.5314 48.9774C28.2445 49.315 27.7387 49.3555 27.4019 49.0692C27.0643 48.7829 27.0232 48.2779 27.3094 47.9403L29.389 45.4893C29.7461 45.075 30.363 45.1572 30.611 45.4891ZM29.389 14.5102L27.3094 12.0592C27.0232 11.7216 27.0643 11.2165 27.4019 10.9302C27.7388 10.6426 28.2445 10.6845 28.5314 11.0214L29.1992 11.8093V4.36117C29.1992 3.91753 29.5578 3.55969 30 3.55969C35.7506 3.55969 41.2192 5.37397 45.8132 8.80729C50.2541 12.1266 53.6044 16.8537 55.2458 22.1202C55.3775 22.5423 55.1412 22.9919 54.7192 23.1235C54.305 23.2518 53.8505 23.0269 53.7164 22.5961C50.5444 12.4245 41.3968 5.50705 30.8015 5.17417V11.8093L31.4693 11.0214C31.7556 10.6852 32.262 10.644 32.5982 10.9302C32.9359 11.2165 32.9777 11.7215 32.6915 12.0592L30.6112 14.5102L30.3283 14.7222C29.9621 14.8764 29.6567 14.7779 29.389 14.5102ZM7.07484 31.4693C6.50568 31.953 6.85524 32.8811 7.59336 32.8811C7.77636 32.8811 7.9614 32.8183 8.11188 32.6914L10.6189 30.5571C10.9561 30.196 10.8967 29.6566 10.5622 29.389L8.112 27.3079C7.77444 27.0231 7.26864 27.0635 6.98304 27.4012C6.69612 27.7387 6.73788 28.2438 7.07484 28.5301L7.86216 29.1993H5.17488C5.50836 18.6034 12.4246 9.45565 22.5978 6.28429C23.0198 6.15193 23.2561 5.70289 23.1238 5.28025C22.9921 4.85833 22.5438 4.62193 22.1204 4.75429C16.8545 6.39637 12.1267 9.74545 8.80752 14.1875C5.37468 18.7809 3.55968 24.2487 3.55968 30C3.55968 30.4423 3.91884 30.8015 4.36116 30.8015H7.86204L7.07484 31.4693ZM56.4403 30C56.4403 29.5571 56.0818 29.1993 55.6396 29.1993H52.1387L52.926 28.5301C53.2622 28.2438 53.3041 27.7389 53.0178 27.4012C52.7315 27.0636 52.2265 27.0217 51.8888 27.3079L49.4378 29.3889C49.1138 29.6472 49.0446 30.1593 49.3602 30.5333L51.8888 32.6913C52.0394 32.8182 52.2238 32.881 52.4068 32.881C53.148 32.881 53.4928 31.9507 52.926 31.4692L52.1387 30.8014H54.8254C54.4918 41.3967 47.5757 50.5435 37.4024 53.715C36.9804 53.8474 36.7441 54.2964 36.8772 54.7191C37.0116 55.1487 37.466 55.3768 37.8798 55.245C43.1458 53.6029 47.8741 50.2539 51.1934 45.8117C54.6253 41.2185 56.4403 35.7508 56.4403 30Z" fill="#266BFF"/>
</svg>
