<svg width="60" height="60" viewBox="0 0 60 60" fill="none" xmlns="http://www.w3.org/2000/svg">
<g clip-path="url(#clip0_65_358)">
<path d="M57.9792 13.32C57.7332 13.1664 57.4248 13.1508 57.1644 13.2792L45.81 18.8652V13.8936C45.81 13.4292 45.4344 13.0536 44.97 13.0536H39.7476C39.8448 12.9768 39.942 12.8976 40.0356 12.816C41.5656 11.4732 42.3756 9.5736 42.3756 7.3224C42.3756 5.0712 41.5668 3.1716 40.0356 1.8288C38.6892 0.6492 36.888 0 34.9632 0C33.0384 0 31.2372 0.6492 29.892 1.8288C29.0304 2.5836 28.398 3.516 28.0092 4.5876C26.7972 2.9604 24.8172 2.124 22.8528 2.124C21.2076 2.124 19.668 2.6796 18.516 3.6888C17.2044 4.8396 16.5108 6.4656 16.5108 8.3916C16.5108 10.44 17.3016 12.0012 18.4836 13.0536H14.532C14.0676 13.0536 13.692 13.4292 13.692 13.8936V20.8656C12.006 21.1488 10.4628 21.8616 9.23638 22.944C7.39678 24.5664 6.42478 26.8656 6.42478 29.5932V39.4668C6.42478 42.1944 7.39678 44.4936 9.23638 46.116C10.8564 47.5452 13.0284 48.3324 15.3528 48.3324C17.6772 48.3324 19.848 47.5452 21.4692 46.116C23.3088 44.4936 24.2808 42.1944 24.2808 39.4668V34.0632H44.97C45.4344 34.0632 45.81 33.6876 45.81 33.2232V28.2516L57.1644 33.8376C57.282 33.8952 57.408 33.924 57.5352 33.924C57.69 33.924 57.8436 33.882 57.9792 33.7968C58.2252 33.6432 58.3752 33.3744 58.3752 33.084V14.0328C58.3752 13.7424 58.2252 13.4724 57.9792 13.32ZM34.9632 1.68C37.7232 1.68 40.6944 3.4452 40.6944 7.3224C40.6944 11.1996 37.7232 12.9648 34.9632 12.9648C32.2032 12.9648 29.232 11.1996 29.232 7.3224C29.232 3.4452 32.2032 1.68 34.9632 1.68ZM18.1908 8.3916C18.1908 5.2392 20.6076 3.804 22.8528 3.804C25.098 3.804 27.5148 5.2392 27.5148 8.3916C27.5148 11.544 25.098 12.9792 22.8528 12.9792C20.6076 12.9804 18.1908 11.544 18.1908 8.3916ZM28.5792 11.2488C28.9308 11.8308 29.3676 12.3576 29.892 12.816C29.9856 12.8976 30.0816 12.9768 30.18 13.0536H27.222C27.774 12.5628 28.2384 11.9592 28.5792 11.2488ZM22.6008 39.4668C22.6008 44.4036 18.8436 46.6524 15.3528 46.6524C11.862 46.6524 8.10478 44.4036 8.10478 39.4668V39.2532H13.9944C14.4588 39.2532 14.8344 38.8776 14.8344 38.4132C14.8344 37.9488 14.4588 37.5732 13.9944 37.5732H8.10478V35.37H13.9944C14.4588 35.37 14.8344 34.9944 14.8344 34.53C14.8344 34.0656 14.4588 33.69 13.9944 33.69H8.10478V31.4868H13.9944C14.4588 31.4868 14.8344 31.1112 14.8344 30.6468C14.8344 30.1824 14.4588 29.8068 13.9944 29.8068H8.10478V29.5932C8.10478 24.6564 11.862 22.4076 15.3528 22.4076C18.8436 22.4076 22.6008 24.6564 22.6008 29.5932V39.4668ZM44.13 32.3832H24.2808V29.5932C24.2808 26.8656 23.3088 24.5664 21.4692 22.944C19.8528 21.5184 17.6892 20.7324 15.372 20.7276V14.7336H44.13V32.3832ZM56.6952 31.7352L54.63 30.7188C54.6516 30.6444 54.6636 30.5664 54.6636 30.486V21.7284C54.6636 21.264 54.288 20.8884 53.8236 20.8884C53.3592 20.8884 52.9836 21.264 52.9836 21.7284V29.9088L45.8112 26.3796V20.7372L56.6964 15.3816V31.7352H56.6952ZM55.794 39.6036H51.528C51.0312 39.6036 50.6268 39.1992 50.6268 38.7024V37.9872C50.6268 36.564 49.4688 35.406 48.0456 35.406H40.9068C39.4836 35.406 38.3256 36.564 38.3256 37.9872V38.7024C38.3256 39.1992 37.9212 39.6036 37.4244 39.6036H33.1584C31.7352 39.6036 30.5772 40.7616 30.5772 42.1848V57.42C30.5772 58.8432 31.7352 60.0012 33.1584 60.0012H55.7928C57.216 60.0012 58.374 58.8432 58.374 57.42V42.1836C58.3752 40.7604 57.2172 39.6036 55.794 39.6036ZM56.6952 57.4188C56.6952 57.9156 56.2908 58.32 55.794 58.32H33.1596C32.6628 58.32 32.2584 57.9156 32.2584 57.4188V42.1836C32.2584 41.6868 32.6628 41.2824 33.1596 41.2824H37.4256C38.8488 41.2824 40.0068 40.1244 40.0068 38.7012V37.986C40.0068 37.4892 40.4112 37.0848 40.908 37.0848H48.0468C48.5436 37.0848 48.948 37.4892 48.948 37.986V38.7012C48.948 40.1244 50.106 41.2824 51.5292 41.2824H55.7952C56.292 41.2824 56.6964 41.6868 56.6964 42.1836V57.4188H56.6952ZM44.4768 42.6864C41.1012 42.6864 37.6824 44.9928 37.6824 49.4004C37.6824 53.808 41.1 56.1144 44.4768 56.1144C47.8536 56.1144 51.2712 53.808 51.2712 49.4004C51.27 44.9928 47.8524 42.6864 44.4768 42.6864ZM44.4768 54.4344C42.0132 54.4344 39.3624 52.8588 39.3624 49.4004C39.3624 45.942 42.0132 44.3664 44.4768 44.3664C46.9404 44.3664 49.5912 45.942 49.5912 49.4004C49.59 52.8588 46.9392 54.4344 44.4768 54.4344ZM29.0796 39.7068C29.0796 46.9944 23.3724 52.9716 16.1928 53.4072V58.1832C16.1928 58.23 16.188 58.2756 16.1808 58.32H20.2596C20.724 58.32 21.0996 58.6956 21.0996 59.16C21.0996 59.6244 20.724 60 20.2596 60H10.446C9.98158 60 9.60598 59.6244 9.60598 59.16C9.60598 58.6956 9.98158 58.32 10.446 58.32H14.5248C14.5176 58.2756 14.5128 58.23 14.5128 58.1832V53.4072C7.33318 52.9716 1.62598 46.9932 1.62598 39.7068C1.62598 39.2424 2.00158 38.8668 2.46598 38.8668C2.93038 38.8668 3.30598 39.2424 3.30598 39.7068C3.30598 46.35 8.71078 51.7536 15.3528 51.7536C21.996 51.7536 27.3996 46.3488 27.3996 39.7068C27.3996 39.2424 27.7752 38.8668 28.2396 38.8668C28.704 38.8668 29.0796 39.2436 29.0796 39.7068ZM29.2044 28.716C29.334 28.7916 29.4792 28.8288 29.6244 28.8288C29.7696 28.8288 29.9148 28.7916 30.0444 28.716L37.7184 24.2856C37.9788 24.1356 38.1384 23.8584 38.1384 23.5584C38.1384 23.2584 37.9788 22.9812 37.7184 22.8312L30.0444 18.4008C29.784 18.2508 29.4648 18.2508 29.2044 18.4008C28.944 18.5508 28.7844 18.828 28.7844 19.128V27.9888C28.7844 28.2888 28.9452 28.566 29.2044 28.716ZM30.4644 20.5836L35.6184 23.5596L30.4644 26.5344V20.5836Z" fill="#266BFF"/>
</g>
<defs>
<clipPath id="clip0_65_358">
<rect width="60" height="60" fill="white"/>
</clipPath>
</defs>
</svg>
