<svg width="60" height="60" viewBox="0 0 60 60" fill="none" xmlns="http://www.w3.org/2000/svg">
<path d="M52.7377 56.7161H5.72822C4.29212 56.7161 3.12387 55.5477 3.12387 54.1116C3.12387 53.3971 3.4001 52.7232 3.90177 52.2143L9.57644 46.458C9.65707 46.3764 9.76701 46.3304 9.88168 46.3304H49.1197C49.2411 46.3304 49.3566 46.3817 49.4378 46.4718L54.6459 52.2428C55.0951 52.7403 55.3423 53.3834 55.3423 54.0536V54.1116C55.3423 55.5477 54.1738 56.7161 52.7377 56.7161ZM10.0611 47.1875L4.51226 52.816C4.16963 53.1635 3.98101 53.6236 3.98101 54.1116C3.98101 55.0751 4.76477 55.859 5.72822 55.859H52.7377C53.7012 55.859 54.4852 55.0751 54.4852 54.1116V54.0536C54.4852 53.596 54.3164 53.1568 54.0098 52.817L48.9291 47.1875H10.0611Z" fill="#266BFF"/>
<path d="M52.7377 56.7162H5.72822C4.29212 56.7162 3.12387 55.5478 3.12387 54.1117C3.12387 53.8752 3.31556 53.6834 3.55188 53.6831L54.9132 53.6251C55.0463 53.6457 55.1361 53.67 55.2165 53.7505C55.2971 53.8308 55.3423 53.9399 55.3423 54.0536V54.1117C55.3423 55.5478 54.1738 56.7162 52.7377 56.7162ZM4.03403 54.5397C4.22543 55.2969 4.91238 55.859 5.72822 55.859H52.7377C53.5739 55.859 54.2751 55.2686 54.4456 54.4828L4.03403 54.5397Z" fill="#266BFF"/>
<path d="M48.6554 47.1892H9.87834C9.64173 47.1892 9.44977 46.9974 9.44977 46.7607V27.412C9.44977 27.1753 9.64173 26.9835 9.87834 26.9835C10.1149 26.9835 10.3069 27.1753 10.3069 27.412V46.3321H48.6554C48.892 46.3321 49.084 46.5239 49.084 46.7607C49.084 46.9974 48.892 47.1892 48.6554 47.1892Z" fill="#266BFF"/>
<path d="M49.1183 32.1263C48.8817 32.1263 48.6897 31.9345 48.6897 31.6978V23.4063C48.6897 22.1743 47.69 21.1721 46.4612 21.1721H44.7126C44.476 21.1721 44.284 20.9803 44.284 20.7435C44.284 20.5068 44.476 20.3149 44.7126 20.3149H46.4612C48.1627 20.3149 49.5469 21.7018 49.5469 23.4063V31.6978C49.5469 31.9345 49.3549 32.1263 49.1183 32.1263Z" fill="#266BFF"/>
<path d="M32.1973 52.6238H26.269C25.8206 52.6238 25.4266 52.3533 25.2659 51.9348C25.1049 51.5164 25.216 51.0518 25.5488 50.7515L26.5017 49.8915C26.6998 49.713 26.9554 49.6147 27.2218 49.6147H31.2444C31.5109 49.6147 31.7665 49.713 31.9643 49.8914C31.9643 49.8913 31.9646 49.8915 31.9643 49.8914L32.9171 50.7516C33.25 51.052 33.361 51.5165 33.2003 51.9351C33.0393 52.3534 32.6456 52.6238 32.1973 52.6238ZM27.2218 50.4719C27.1677 50.4719 27.1158 50.4918 27.0756 50.5281L26.123 51.3879C26.0232 51.4782 26.0497 51.5853 26.0658 51.6272C26.082 51.6692 26.1339 51.7667 26.269 51.7667H32.1973C32.332 51.7667 32.3842 51.6693 32.4001 51.6273C32.4163 51.5854 32.4431 51.4782 32.3429 51.3879L31.3903 50.5278C31.3502 50.4917 31.2983 50.4719 31.2444 50.4719H27.2218Z" fill="#266BFF"/>
<path d="M7.42299 44.0508C7.18638 44.0508 6.99442 43.859 6.99442 43.6222V42.3932C6.99442 42.1564 7.18638 41.9646 7.42299 41.9646C7.65959 41.9646 7.85156 42.1564 7.85156 42.3932V43.6222C7.85156 43.859 7.65959 44.0508 7.42299 44.0508Z" fill="#266BFF"/>
<path d="M7.42299 40.554C7.18638 40.554 6.99442 40.3622 6.99442 40.1255V32.3647C6.99442 32.128 7.18638 31.9362 7.42299 31.9362C7.65959 31.9362 7.85156 32.128 7.85156 32.3647V40.1255C7.85156 40.3622 7.65959 40.554 7.42299 40.554Z" fill="#266BFF"/>
<path d="M44.7126 33.5549C44.476 33.5549 44.284 33.3631 44.284 33.1263V13.5034C44.284 12.3534 43.3485 11.4178 42.1984 11.4178H16.8041C15.654 11.4178 14.7185 12.3534 14.7185 13.5034V17.1149C14.7185 17.3516 14.5265 17.5434 14.2899 17.5434C14.0533 17.5434 13.8613 17.3516 13.8613 17.1149V13.5034C13.8613 11.8808 15.1814 10.5606 16.8041 10.5606H42.1984C43.8212 10.5606 45.1412 11.8808 45.1412 13.5034V33.1263C45.1412 33.3631 44.9492 33.5549 44.7126 33.5549Z" fill="#266BFF"/>
<path d="M42.1984 44.5263H16.8041C15.1814 44.5263 13.8613 43.2088 13.8613 41.5892V27.412C13.8613 27.1753 14.0533 26.9835 14.2899 26.9835C14.5265 26.9835 14.7185 27.1753 14.7185 27.412V41.5892C14.7185 42.7361 15.654 43.6691 16.8041 43.6691H42.1984C42.4819 43.6691 42.7612 43.6129 43.0285 43.5019C43.2483 43.4115 43.498 43.5151 43.5887 43.7336C43.6794 43.9522 43.5756 44.2029 43.3571 44.2937C42.9849 44.448 42.5951 44.5263 42.1984 44.5263Z" fill="#266BFF"/>
<path d="M44.7132 17.5423H14.2879C14.0513 17.5423 13.8594 17.3505 13.8594 17.1137V13.501C13.8594 11.8784 15.1794 10.5583 16.8022 10.5583H42.1989C43.8217 10.5583 45.1417 11.8784 45.1417 13.501V17.1137C45.1417 17.3505 44.9498 17.5423 44.7132 17.5423ZM14.7165 16.6852H44.2846V13.501C44.2846 12.351 43.349 11.4155 42.1989 11.4155H16.8022C15.6521 11.4155 14.7165 12.351 14.7165 13.501V16.6852Z" fill="#266BFF"/>
<path d="M17.7025 15.6704C16.9252 15.6704 16.2927 15.0379 16.2927 14.2605C16.2927 13.4832 16.9252 12.8508 17.7025 12.8508C18.4799 12.8508 19.1124 13.4832 19.1124 14.2605C19.1124 15.0379 18.4799 15.6704 17.7025 15.6704ZM17.7025 13.7079C17.3979 13.7079 17.1498 13.9558 17.1498 14.2605C17.1498 14.5653 17.3979 14.8132 17.7025 14.8132C18.0072 14.8132 18.2553 14.5653 18.2553 14.2605C18.2553 13.9558 18.0072 13.7079 17.7025 13.7079Z" fill="#266BFF"/>
<path d="M21.4673 15.6704C20.69 15.6704 20.0575 15.0379 20.0575 14.2605C20.0575 13.4832 20.69 12.8508 21.4673 12.8508C22.2447 12.8508 22.8772 13.4832 22.8772 14.2605C22.8772 15.0379 22.2447 15.6704 21.4673 15.6704ZM21.4673 13.7079C21.1627 13.7079 20.9146 13.9558 20.9146 14.2605C20.9146 14.5653 21.1627 14.8132 21.4673 14.8132C21.772 14.8132 22.0201 14.5653 22.0201 14.2605C22.0201 13.9558 21.772 13.7079 21.4673 13.7079Z" fill="#266BFF"/>
<path d="M25.2318 15.6704C24.4545 15.6704 23.822 15.0379 23.822 14.2605C23.822 13.4832 24.4545 12.8508 25.2318 12.8508C26.0092 12.8508 26.6417 13.4832 26.6417 14.2605C26.6417 15.0379 26.0092 15.6704 25.2318 15.6704ZM25.2318 13.7079C24.9272 13.7079 24.6791 13.9558 24.6791 14.2605C24.6791 14.5653 24.9272 14.8132 25.2318 14.8132C25.5365 14.8132 25.7846 14.5653 25.7846 14.2605C25.7846 13.9558 25.5365 13.7079 25.2318 13.7079Z" fill="#266BFF"/>
<path d="M51.7634 11.1334C51.5159 11.1334 51.3075 10.9622 51.2567 10.7173C51.1063 9.97634 50.7425 9.30334 50.2048 8.76944C49.668 8.22871 48.9964 7.86515 48.2606 7.71587C48.0137 7.66425 47.8426 7.45597 47.8426 7.20862C47.8426 6.96141 48.0137 6.75312 48.2584 6.70206C48.995 6.55265 49.6682 6.18867 50.2079 5.64905C50.7438 5.11292 51.1066 4.43964 51.2564 3.70178C51.3075 3.45513 51.5159 3.28381 51.7634 3.28381C52.0109 3.28381 52.2193 3.45513 52.2701 3.70011C52.4202 4.43965 52.7829 5.11292 53.3189 5.64905C53.8585 6.18867 54.5318 6.55265 55.2659 6.7015C55.5131 6.75312 55.6841 6.96141 55.6841 7.20862C55.6841 7.45597 55.5131 7.66425 55.2684 7.71531C55.2678 7.71545 55.2676 7.71545 55.2673 7.71559C53.7581 8.02628 52.5817 9.20429 52.2701 10.7167C52.2193 10.9622 52.0109 11.1334 51.7634 11.1334ZM49.4495 7.20862C49.952 7.44034 50.4127 7.76219 50.8108 8.16342C51.2106 8.56018 51.5321 9.02112 51.7639 9.52558C52.2332 8.50131 53.055 7.67876 54.0778 7.20904C53.5756 6.97759 53.1138 6.65602 52.7129 6.25507C52.3144 5.85678 51.9944 5.39612 51.7634 4.89333C51.5326 5.39598 51.2123 5.85664 50.8139 6.25507C50.4132 6.65574 49.952 6.97717 49.4495 7.20862Z" fill="#266BFF"/>
<path d="M5.51868 13.5927C4.0809 13.5927 2.91098 12.4227 2.91098 10.9848C2.91098 9.54913 4.0809 8.38116 5.51868 8.38116C6.95423 8.38116 8.1222 9.54913 8.1222 10.9848C8.1222 12.4227 6.95423 13.5927 5.51868 13.5927ZM5.51868 9.23831C4.55356 9.23831 3.76812 10.0218 3.76812 10.9848C3.76812 11.9502 4.55356 12.7355 5.51868 12.7355C6.48157 12.7355 7.26505 11.9502 7.26505 10.9848C7.26505 10.0218 6.48157 9.23831 5.51868 9.23831Z" fill="#266BFF"/>
<path d="M32.1127 33.4406H18.4383C17.4869 33.4406 16.7126 32.669 16.7126 31.7206V27.412C16.7126 27.1753 16.9045 26.9835 17.1412 26.9835C17.3778 26.9835 17.5697 27.1753 17.5697 27.412V31.7206C17.5697 32.1964 17.9592 32.5835 18.4383 32.5835H32.1127C32.3493 32.5835 32.5413 32.7753 32.5413 33.0121C32.5413 33.2488 32.3493 33.4406 32.1127 33.4406Z" fill="#266BFF"/>
<path d="M40.5642 33.4406H35.4383C35.2017 33.4406 35.0098 33.2488 35.0098 33.012C35.0098 32.7753 35.2017 32.5835 35.4383 32.5835H40.5642C41.0399 32.5835 41.4269 32.1963 41.4269 31.7206V21.2291C41.4269 20.7534 41.0399 20.3662 40.5642 20.3662H18.5126C18.2759 20.3662 18.084 20.1744 18.084 19.9377C18.084 19.7009 18.2759 19.5091 18.5126 19.5091H40.5642C41.5126 19.5091 42.284 20.2807 42.284 21.2291V31.7206C42.284 32.669 41.5126 33.4406 40.5642 33.4406Z" fill="#266BFF"/>
<path d="M26.4989 41.6677H17.1451C16.9085 41.6677 16.7165 41.4759 16.7165 41.2391C16.7165 41.0024 16.9085 40.8105 17.1451 40.8105H26.4989C26.7355 40.8105 26.9274 41.0024 26.9274 41.2391C26.9274 41.4759 26.7355 41.6677 26.4989 41.6677Z" fill="#266BFF"/>
<path d="M31.7246 39.0171H17.1451C16.9085 39.0171 16.7165 38.8252 16.7165 38.5885C16.7165 38.3517 16.9085 38.1599 17.1451 38.1599H31.7246C31.9612 38.1599 32.1532 38.3517 32.1532 38.5885C32.1532 38.8252 31.9612 39.0171 31.7246 39.0171Z" fill="#266BFF"/>
<path d="M29.435 36.3662H17.1451C16.9085 36.3662 16.7165 36.1744 16.7165 35.9377C16.7165 35.7009 16.9085 35.5091 17.1451 35.5091H29.435C29.6716 35.5091 29.8635 35.7009 29.8635 35.9377C29.8635 36.1744 29.6716 36.3662 29.435 36.3662Z" fill="#266BFF"/>
<path d="M23.8352 23.6691H24.6909L26.7182 29.2563H25.889L25.3223 27.5828H23.1125L22.5078 29.2563H21.7319L23.8352 23.6691ZM25.0789 26.9667L24.2307 24.4983L23.3293 26.9667H25.0789Z" fill="#266BFF"/>
<path d="M27.4408 23.6691H29.7038C30.4721 23.6691 31.068 23.9417 31.4914 24.4869C31.8692 24.9788 32.0581 25.6089 32.0581 26.3771C32.0581 26.9705 31.9466 27.5068 31.7234 27.986C31.3304 28.8329 30.6547 29.2563 29.6962 29.2563H27.4408V23.6691ZM29.5517 28.6097C29.8078 28.6097 30.0182 28.5831 30.183 28.5299C30.4772 28.431 30.7181 28.2408 30.9057 27.9594C31.0553 27.7337 31.1631 27.4446 31.229 27.0922C31.267 26.8817 31.286 26.6865 31.286 26.5065C31.286 25.8142 31.1485 25.2767 30.8734 24.8938C30.5983 24.5109 30.1552 24.3195 29.5441 24.3195H28.2015V28.6097H29.5517Z" fill="#266BFF"/>
<path d="M33.5262 27.4535C33.544 27.7704 33.6188 28.0278 33.7506 28.2256C34.0017 28.5958 34.4441 28.7809 35.078 28.7809C35.362 28.7809 35.6206 28.7403 35.8539 28.6592C36.3053 28.502 36.5309 28.2205 36.5309 27.8148C36.5309 27.5105 36.4358 27.2937 36.2457 27.1644C36.053 27.0377 35.7512 26.9274 35.3405 26.8335L34.5836 26.6624C34.0891 26.5508 33.7392 26.4278 33.5338 26.2935C33.1789 26.0602 33.0014 25.7115 33.0014 25.2475C33.0014 24.7455 33.1751 24.3334 33.5224 24.0114C33.8698 23.6894 34.3617 23.5284 34.9982 23.5284C35.5839 23.5284 36.0815 23.6697 36.491 23.9525C36.9005 24.2352 37.1052 24.6871 37.1052 25.3084H36.394C36.356 25.0092 36.2748 24.7797 36.1506 24.62C35.9198 24.3284 35.5281 24.1826 34.9753 24.1826C34.5291 24.1826 34.2083 24.2764 34.0131 24.464C33.8178 24.6517 33.7202 24.8697 33.7202 25.1182C33.7202 25.392 33.8343 25.5924 34.0625 25.7191C34.2121 25.8003 34.5506 25.9017 35.078 26.0234L35.8615 26.2022C36.2393 26.2884 36.5309 26.4063 36.7363 26.5559C37.0913 26.8171 37.2688 27.1961 37.2688 27.6931C37.2688 28.3118 37.0437 28.7543 36.5937 29.0205C36.1436 29.2867 35.6206 29.4198 35.0248 29.4198C34.33 29.4198 33.7861 29.2424 33.3931 28.8874C33.0001 28.5349 32.8074 28.057 32.815 27.4535H33.5262Z" fill="#266BFF"/>
<path d="M34.8273 39.669C34.4905 39.669 34.1693 39.473 34.0268 39.1452L33.0103 36.8084L32.8694 37.0019C32.6356 37.3247 32.2274 37.4458 31.854 37.3018C31.4796 37.1574 31.2575 36.7919 31.3016 36.3922L31.8607 31.4533C31.8939 31.1411 32.087 30.8777 32.3766 30.7516C32.6663 30.6255 32.9908 30.6637 33.2444 30.8537L37.2355 33.8096C37.5588 34.0508 37.6749 34.4624 37.5254 34.8347C37.3764 35.2058 37.0117 35.4231 36.6124 35.3727L36.3761 35.3441L37.3926 37.6807C37.4855 37.8938 37.4894 38.1306 37.4037 38.3476C37.3183 38.5647 37.154 38.7351 36.9411 38.8278L35.1738 39.5966C35.0608 39.6457 34.9431 39.6689 34.8273 39.669ZM33.1046 35.5222C33.1202 35.5222 33.1359 35.5231 33.1515 35.5248C33.3041 35.5416 33.4364 35.6389 33.4977 35.7799L34.8128 38.8032L36.599 38.0418L35.2915 34.9995C35.2302 34.8585 35.2489 34.6955 35.3409 34.5723C35.4325 34.4493 35.5828 34.385 35.736 34.403L36.7171 34.522C36.7212 34.5227 36.7237 34.5227 36.7254 34.5227C36.7274 34.5227 36.7285 34.5225 36.7285 34.5225L32.7324 31.5411L32.1534 36.4872L32.7581 35.6986C32.8393 35.5871 32.9684 35.5222 33.1046 35.5222Z" fill="#266BFF"/>
<path d="M49.1197 47.2091C44.7254 47.2091 41.1504 43.634 41.1504 39.2398C41.1504 34.8455 44.7254 31.2704 49.1197 31.2704C53.5139 31.2704 57.089 34.8455 57.089 39.2398C57.089 43.634 53.5139 47.2091 49.1197 47.2091ZM49.1197 32.1276C45.1981 32.1276 42.0075 35.3182 42.0075 39.2398C42.0075 43.1614 45.1981 46.3519 49.1197 46.3519C53.0413 46.3519 56.2318 43.1614 56.2318 39.2398C56.2318 35.3182 53.0413 32.1276 49.1197 32.1276Z" fill="#266BFF"/>
<path d="M45.8722 42.715C45.6735 42.715 45.4955 42.5761 45.4531 42.3739C45.2461 41.3821 45.1411 40.3279 45.1411 39.2405C45.1411 37.9795 45.2818 36.7648 45.5591 35.6303C45.6149 35.4004 45.8468 35.2598 46.0772 35.3157C46.3072 35.372 46.4478 35.6038 46.3917 35.8337C46.1305 36.9018 45.9983 38.048 45.9983 39.2405C45.9983 40.2691 46.0971 41.2644 46.2924 42.1987C46.3406 42.4304 46.1919 42.6574 45.9603 42.7058C45.9308 42.7119 45.9012 42.715 45.8722 42.715Z" fill="#266BFF"/>
<path d="M49.1183 47.2064C47.8052 47.2064 46.6252 46.0114 45.8805 43.9276C45.8007 43.7047 45.9168 43.4595 46.1397 43.3798C46.3618 43.3001 46.6079 43.4159 46.6875 43.6391C47.294 45.3361 48.2028 46.3492 49.1183 46.3492C50.8127 46.3492 52.2441 43.0938 52.2441 39.2406C52.2441 38.7919 52.2235 38.3257 52.183 37.8545C52.1626 37.6186 52.3373 37.411 52.5731 37.3907C52.8102 37.3728 53.0164 37.5451 53.0368 37.7809C53.0795 38.2764 53.1012 38.7675 53.1012 39.2406C53.1012 43.7074 51.3518 47.2064 49.1183 47.2064Z" fill="#266BFF"/>
<path d="M52.3864 36.6979C52.1866 36.6979 52.0078 36.5574 51.9668 36.354C51.4567 33.8252 50.3119 32.1263 49.1183 32.1263C48.2854 32.1263 47.4609 32.959 46.8568 34.4109C46.7664 34.6294 46.5156 34.7336 46.2966 34.6419C46.0781 34.551 45.9746 34.3001 46.0655 34.0817C46.8203 32.268 47.9043 31.2692 49.1183 31.2692C50.7821 31.2692 52.1956 33.1525 52.8072 36.1843C52.8538 36.4165 52.7037 36.6425 52.4718 36.6892C52.443 36.6951 52.4146 36.6979 52.3864 36.6979Z" fill="#266BFF"/>
<path d="M49.1197 47.2091C48.8831 47.2091 48.6911 47.0172 48.6911 46.7805V31.699C48.6911 31.4623 48.8831 31.2704 49.1197 31.2704C49.3563 31.2704 49.5482 31.4623 49.5482 31.699V46.7805C49.5482 47.0172 49.3563 47.2091 49.1197 47.2091Z" fill="#266BFF"/>
<path d="M56.6604 39.6683H41.5787C41.342 39.6683 41.1501 39.4765 41.1501 39.2397C41.1501 39.003 41.342 38.8112 41.5787 38.8112H56.6604C56.897 38.8112 57.089 39.003 57.089 39.2397C57.089 39.4765 56.897 39.6683 56.6604 39.6683Z" fill="#266BFF"/>
<path d="M46.1883 36.1926C45.5198 36.1926 44.9757 35.6486 44.9757 34.9799C44.9757 34.3113 45.5198 33.7673 46.1883 33.7673C46.8568 33.7673 47.4009 34.3113 47.4009 34.9799C47.4009 35.6486 46.8568 36.1926 46.1883 36.1926ZM46.1883 34.6245C45.9924 34.6245 45.8329 34.7839 45.8329 34.9799C45.8329 35.176 45.9924 35.3354 46.1883 35.3354C46.3842 35.3354 46.5438 35.176 46.5438 34.9799C46.5438 34.7839 46.3842 34.6245 46.1883 34.6245Z" fill="#266BFF"/>
<path d="M52.5474 38.2492C51.8789 38.2492 51.3348 37.7053 51.3348 37.0366C51.3348 36.3679 51.8789 35.824 52.5474 35.824C53.2159 35.824 53.76 36.3679 53.76 37.0366C53.76 37.7053 53.2159 38.2492 52.5474 38.2492ZM52.5474 36.6811C52.3515 36.6811 52.192 36.8406 52.192 37.0366C52.192 37.2326 52.3515 37.3921 52.5474 37.3921C52.7433 37.3921 52.9029 37.2326 52.9029 37.0366C52.9029 36.8406 52.7433 36.6811 52.5474 36.6811Z" fill="#266BFF"/>
<path d="M46.015 44.266C45.3465 44.266 44.8024 43.722 44.8024 43.0534C44.8024 42.3847 45.3465 41.8408 46.015 41.8408C46.6836 41.8408 47.2277 42.3847 47.2277 43.0534C47.2277 43.722 46.6836 44.266 46.015 44.266ZM46.015 42.6979C45.8192 42.6979 45.6596 42.8574 45.6596 43.0534C45.6596 43.2494 45.8192 43.4088 46.015 43.4088C46.2109 43.4088 46.3705 43.2494 46.3705 43.0534C46.3705 42.8574 46.2109 42.6979 46.015 42.6979Z" fill="#266BFF"/>
<path d="M17.404 27.8384H5.63642C4.78876 27.8384 4.09903 27.1486 4.09903 26.3008V18.2269C4.09903 17.3767 4.78876 16.6852 5.63642 16.6852H17.404C18.2519 16.6852 18.9417 17.3767 18.9417 18.2269V26.3008C18.9417 27.1486 18.2519 27.8384 17.404 27.8384ZM5.63642 17.5423C5.26142 17.5423 4.95617 17.8494 4.95617 18.2269V26.3008C4.95617 26.676 5.26142 26.9812 5.63642 26.9812H17.404C17.7793 26.9812 18.0845 26.676 18.0845 26.3008V18.2269C18.0845 17.8494 17.7793 17.5423 17.404 17.5423H5.63642Z" fill="#266BFF"/>
<path d="M10.1718 25.4244C9.9012 25.4244 9.63055 25.3536 9.38334 25.2117C8.8839 24.925 8.58563 24.4097 8.58563 23.8331V20.6905C8.58563 20.114 8.88362 19.5987 9.38307 19.312C9.88083 19.026 10.4746 19.0282 10.9707 19.3179L13.6682 20.895C14.1604 21.1809 14.4551 21.692 14.4551 22.2616C14.4551 22.831 14.161 23.342 13.6682 23.6287L10.9707 25.2054C10.721 25.3513 10.4464 25.4244 10.1718 25.4244ZM10.1718 19.9576C10.0477 19.9576 9.92324 19.9903 9.80968 20.0554C9.58005 20.1873 9.44278 20.4247 9.44278 20.6905V23.8331C9.44278 24.0988 9.58005 24.3363 9.80996 24.4682C10.0382 24.5992 10.3105 24.5983 10.5382 24.4655L13.2357 22.8887C13.236 22.8886 13.2363 22.8883 13.2366 22.8882C13.4629 22.7568 13.5979 22.5225 13.5979 22.2618C13.5979 22.001 13.4629 21.7669 13.2366 21.6355L10.5382 20.058C10.4238 19.9911 10.2977 19.9576 10.1718 19.9576Z" fill="#266BFF"/>
</svg>
