<svg width="60" height="60" viewBox="0 0 60 60" fill="none" xmlns="http://www.w3.org/2000/svg">
<path d="M27.7547 47.2828H32.2453C32.4318 47.2828 32.6106 47.2088 32.7425 47.0769C32.8744 46.945 32.9485 46.7662 32.9485 46.5797C32.9485 46.3932 32.8744 46.2144 32.7425 46.0825C32.6106 45.9507 32.4318 45.8766 32.2453 45.8766H27.7547C27.5682 45.8766 27.3894 45.9507 27.2575 46.0825C27.1257 46.2144 27.0516 46.3932 27.0516 46.5797C27.0516 46.7662 27.1257 46.945 27.2575 47.0769C27.3894 47.2088 27.5682 47.2828 27.7547 47.2828Z" fill="#266BFF"/>
<path d="M32.8547 35.2219H32.0812C31.8948 35.2219 31.7159 35.2959 31.5841 35.4278C31.4522 35.5597 31.3781 35.7385 31.3781 35.925C31.3781 36.1115 31.4522 36.2903 31.5841 36.4222C31.7159 36.554 31.8948 36.6281 32.0812 36.6281H32.8547C33.0412 36.6281 33.22 36.554 33.3519 36.4222C33.4837 36.2903 33.5578 36.1115 33.5578 35.925C33.5578 35.7385 33.4837 35.5597 33.3519 35.4278C33.22 35.2959 33.0412 35.2219 32.8547 35.2219Z" fill="#266BFF"/>
<path d="M30.0235 35.2219H27.1453C26.9588 35.2219 26.78 35.2959 26.6481 35.4278C26.5163 35.5597 26.4422 35.7385 26.4422 35.925C26.4422 36.1115 26.5163 36.2903 26.6481 36.4222C26.78 36.554 26.9588 36.6281 27.1453 36.6281H30.0235C30.2099 36.6281 30.3888 36.554 30.5206 36.4222C30.6525 36.2903 30.7266 36.1115 30.7266 35.925C30.7266 35.7385 30.6525 35.5597 30.5206 35.4278C30.3888 35.2959 30.2099 35.2219 30.0235 35.2219Z" fill="#266BFF"/>
<path d="M57.2812 27.9422V18.0328C57.28 17.1518 56.9295 16.3072 56.3065 15.6842C55.6835 15.0612 54.8389 14.7106 53.9578 14.7094H47.6391C48.0215 13.7015 48.2185 12.6327 48.2203 11.5547C48.2474 10.3775 48.039 9.20682 47.6073 8.11135C47.1755 7.01588 46.5292 6.01775 45.7062 5.17561C44.8832 4.33348 43.9003 3.66432 42.815 3.20746C41.7298 2.7506 40.5642 2.51526 39.3867 2.51526C38.2092 2.51526 37.0436 2.7506 35.9584 3.20746C34.8732 3.66432 33.8902 4.33348 33.0672 5.17561C32.2443 6.01775 31.5979 7.01588 31.1662 8.11135C30.7344 9.20682 30.526 10.3775 30.5531 11.5547C30.555 12.6327 30.7519 13.7015 31.1344 14.7094H28.9078C29.2903 13.7015 29.4872 12.6327 29.4891 11.5547C29.5162 10.3775 29.3077 9.20682 28.876 8.11135C28.4443 7.01588 27.7979 6.01775 26.975 5.17561C26.152 4.33348 25.169 3.66432 24.0838 3.20746C22.9985 2.7506 21.8329 2.51526 20.6555 2.51526C19.478 2.51526 18.3124 2.7506 17.2272 3.20746C16.1419 3.66432 15.1589 4.33348 14.336 5.17561C13.513 6.01775 12.8667 7.01588 12.4349 8.11135C12.0032 9.20682 11.7948 10.3775 11.8219 11.5547C11.8237 12.6327 12.0206 13.7015 12.4031 14.7094H6.04219C5.16114 14.7106 4.31653 15.0612 3.69353 15.6842C3.07053 16.3072 2.71999 17.1518 2.71875 18.0328C2.71875 31.8234 2.71875 14.1563 2.71875 47.3766C2.71999 48.2576 3.07053 49.1022 3.69353 49.7252C4.31653 50.3482 5.16114 50.6988 6.04219 50.7H23.1281V56.0906H19.3359C19.1495 56.0906 18.9706 56.1647 18.8388 56.2966C18.7069 56.4284 18.6328 56.6073 18.6328 56.7938C18.6328 56.9802 18.7069 57.1591 18.8388 57.2909C18.9706 57.4228 19.1495 57.4969 19.3359 57.4969H40.7203C40.9068 57.4969 41.0856 57.4228 41.2175 57.2909C41.3494 57.1591 41.4234 56.9802 41.4234 56.7938C41.4234 56.6073 41.3494 56.4284 41.2175 56.2966C41.0856 56.1647 40.9068 56.0906 40.7203 56.0906H36.9281V50.7H53.9578C54.8389 50.6988 55.6835 50.3482 56.3065 49.7252C56.9295 49.1022 57.28 48.2576 57.2812 47.3766V28.7531C57.2812 28.6172 57.2812 28.4859 57.2812 28.35C57.2812 28.2141 57.2859 28.0781 57.2812 27.9422ZM39.375 4.12501C40.8464 4.1213 42.2858 4.55428 43.5109 5.36913C44.736 6.18398 45.6918 7.34404 46.2573 8.70244C46.8227 10.0608 46.9723 11.5565 46.6872 13C46.4021 14.4434 45.6951 15.7699 44.6556 16.8113C43.6162 17.8527 42.2911 18.5622 40.8482 18.8501C39.4052 19.1379 37.9093 18.9911 36.5498 18.4283C35.1904 17.8654 34.0285 16.9118 33.2113 15.6882C32.3942 14.4646 31.9585 13.0261 31.9594 11.5547C31.9618 9.58741 32.7435 7.70121 34.1332 6.30881C35.523 4.91641 37.4077 4.13121 39.375 4.12501ZM31.8234 16.1156C32.6346 17.4504 33.7844 18.5469 35.1562 19.2938L30 25.7813L24.8438 19.3266C26.2272 18.5805 27.3848 17.4764 28.1953 16.1297L31.8234 16.1156ZM30 38.161H24.5344V30.4688H35.4656V38.161H32.8547C32.6947 38.1623 32.5397 38.2167 32.4141 38.3156L30.7031 39.7219V38.8641C30.7031 38.6776 30.629 38.4988 30.4972 38.3669C30.3653 38.235 30.1865 38.161 30 38.161ZM20.6578 4.12501C22.1286 4.12408 23.5666 4.55943 24.7899 5.37598C26.0132 6.19252 26.9668 7.35356 27.5301 8.71221C28.0933 10.0709 28.241 11.566 27.9543 13.0086C27.6675 14.4512 26.9594 15.7763 25.9194 16.8163C24.8794 17.8563 23.5543 18.5644 22.1117 18.8511C20.6692 19.1378 19.174 18.9902 17.8153 18.427C16.4567 17.8637 15.2956 16.9101 14.4791 15.6868C13.6625 14.4635 13.2272 13.0255 13.2281 11.5547C13.2306 9.58498 14.0142 7.69666 15.407 6.30386C16.7998 4.91106 18.6881 4.12749 20.6578 4.12501ZM4.125 18.0328C4.125 17.5244 4.32699 17.0367 4.68653 16.6772C5.04607 16.3176 5.53372 16.1156 6.04219 16.1156H13.0734C14.1191 17.8469 15.7267 19.1672 17.6281 19.8565C19.5295 20.5458 21.6098 20.5622 23.5219 19.9031L28.5422 26.1938H20.1047C19.6837 24.5321 18.7876 23.0292 17.5258 21.8688C16.2641 20.7085 14.6914 19.9412 13.0004 19.6607C11.3093 19.3801 9.57319 19.5986 8.00437 20.2894C6.43555 20.9802 5.10211 22.1133 4.16719 23.55L4.125 18.0328ZM4.125 27.9422C4.23062 26.0097 5.08613 24.1947 6.50952 22.8834C7.9329 21.5721 9.81179 20.8679 11.7464 20.9207C13.6811 20.9736 15.5187 21.7792 16.8684 23.1663C18.2181 24.5533 18.9733 26.4123 18.9733 28.3477C18.9733 30.283 18.2181 32.142 16.8684 33.5291C15.5187 34.9161 13.6811 35.7218 11.7464 35.7746C9.81179 35.8274 7.9329 35.1233 6.50952 33.8119C5.08613 32.5006 4.23062 30.6856 4.125 28.7531V27.9422ZM35.5312 56.0906H24.5344V50.7H35.5219L35.5312 56.0906ZM55.8844 47.3766C55.8844 47.885 55.6824 48.3727 55.3228 48.7322C54.9633 49.0918 54.4757 49.2938 53.9672 49.2938H6.04219C5.53372 49.2938 5.04607 49.0918 4.68653 48.7322C4.32699 48.3727 4.125 47.885 4.125 47.3766V43.6781H55.875L55.8844 47.3766ZM55.8844 42.2719H4.125V33.1453C5.15969 34.7447 6.68402 35.9664 8.47032 36.628C10.2566 37.2896 12.209 37.3556 14.0359 36.8161C15.8628 36.2765 17.4661 35.1605 18.6064 33.6346C19.7466 32.1087 20.3627 30.2549 20.3625 28.35C20.3625 28.0969 20.3625 27.8438 20.325 27.6H29.3016V29.0719H23.8313C23.6448 29.0719 23.4659 29.146 23.3341 29.2778C23.2022 29.4097 23.1281 29.5885 23.1281 29.775V38.8641C23.1281 39.0506 23.2022 39.2294 23.3341 39.3613C23.4659 39.4931 23.6448 39.5672 23.8313 39.5672H29.2969V40.3781C29.2951 40.5854 29.3523 40.7889 29.4619 40.9649C29.5714 41.1409 29.7288 41.282 29.9156 41.3719C30.0946 41.4602 30.2951 41.4956 30.4935 41.474C30.6919 41.4524 30.8801 41.3747 31.0359 41.25L33.1031 39.5813H36.1688C36.3552 39.5813 36.5341 39.5072 36.6659 39.3753C36.7978 39.2435 36.8719 39.0646 36.8719 38.8781V29.775C36.8719 29.5885 36.7978 29.4097 36.6659 29.2778C36.5341 29.146 36.3552 29.0719 36.1688 29.0719H30.7266V27.6H39.675C39.675 27.8438 39.6375 28.0969 39.6375 28.35C39.6373 30.2549 40.2534 32.1087 41.3936 33.6346C42.5339 35.1605 44.1372 36.2765 45.9641 36.8161C47.791 37.3556 49.7434 37.2896 51.5297 36.628C53.316 35.9664 54.8403 34.7447 55.875 33.1453L55.8844 42.2719ZM55.8844 28.7531C55.7788 30.6856 54.9232 32.5006 53.4999 33.8119C52.0765 35.1233 50.1976 35.8274 48.2629 35.7746C46.3283 35.7218 44.4907 34.9161 43.141 33.5291C41.7913 32.142 41.0361 30.283 41.0361 28.3477C41.0361 26.4123 41.7913 24.5533 43.141 23.1663C44.4907 21.7792 46.3283 20.9736 48.2629 20.9207C50.1976 20.8679 52.0765 21.5721 53.4999 22.8834C54.9232 24.1947 55.7788 26.0097 55.8844 27.9422V28.7531ZM55.8844 23.55C54.9495 22.1133 53.616 20.9802 52.0472 20.2894C50.4784 19.5986 48.7422 19.3801 47.0512 19.6607C45.3601 19.9412 43.7875 20.7085 42.5258 21.8688C41.264 23.0292 40.3678 24.5321 39.9469 26.1938H31.5094L36.4688 19.8891C38.3808 20.5618 40.4661 20.5563 42.3746 19.8734C44.2831 19.1906 45.8986 17.872 46.95 16.1391H53.9813C54.4897 16.1391 54.9774 16.3411 55.3369 16.7006C55.6964 17.0601 55.8984 17.5478 55.8984 18.0563L55.8844 23.55Z" fill="#266BFF"/>
<path d="M27.1453 33.6375H27.9188C28.1052 33.6375 28.2841 33.5634 28.4159 33.4316C28.5478 33.2997 28.6219 33.1209 28.6219 32.9344C28.6219 32.7479 28.5478 32.5691 28.4159 32.4372C28.2841 32.3053 28.1052 32.2313 27.9188 32.2313H27.1453C26.9588 32.2313 26.78 32.3053 26.6481 32.4372C26.5163 32.5691 26.4422 32.7479 26.4422 32.9344C26.4422 33.1209 26.5163 33.2997 26.6481 33.4316C26.78 33.5634 26.9588 33.6375 27.1453 33.6375Z" fill="#266BFF"/>
<path d="M30 33.6375H32.8781C33.0646 33.6375 33.2434 33.5634 33.3753 33.4316C33.5072 33.2997 33.5812 33.1209 33.5812 32.9344C33.5812 32.7479 33.5072 32.5691 33.3753 32.4372C33.2434 32.3053 33.0646 32.2313 32.8781 32.2313H30C29.8135 32.2313 29.6347 32.3053 29.5028 32.4372C29.371 32.5691 29.2969 32.7479 29.2969 32.9344C29.2969 33.1209 29.371 33.2997 29.5028 33.4316C29.6347 33.5634 29.8135 33.6375 30 33.6375Z" fill="#266BFF"/>
<path d="M36.7969 16.6687H41.7188C42.2418 16.6675 42.743 16.4592 43.1128 16.0894C43.4826 15.7195 43.691 15.2183 43.6922 14.6953V12.2203C43.691 11.6973 43.4826 11.1961 43.1128 10.8262C42.743 10.4564 42.2418 10.2481 41.7188 10.2469H39.2297L39.6984 8.89217C39.8081 8.43494 39.742 7.95317 39.5133 7.54238C39.2845 7.13158 38.9097 6.82175 38.4632 6.67429C38.0167 6.52684 37.5311 6.55253 37.1026 6.74627C36.6742 6.94001 36.3342 7.28766 36.15 7.7203L35.4234 9.91873C35.2227 10.5235 35.1199 11.1565 35.1188 11.7937V14.9625C35.1175 15.4105 35.293 15.841 35.6072 16.1605C35.9213 16.4799 36.3489 16.6626 36.7969 16.6687ZM36.5063 11.8031C36.5067 11.3124 36.5858 10.825 36.7406 10.3594L37.4672 8.16092C37.5195 8.06607 37.603 7.99225 37.7035 7.95201C37.8041 7.91177 37.9155 7.90759 38.0187 7.94017C38.122 7.97276 38.2108 8.04011 38.2701 8.13077C38.3293 8.22143 38.3554 8.32981 38.3438 8.43748L37.8375 9.96092C37.7746 10.1529 37.758 10.3571 37.7892 10.5567C37.8204 10.7563 37.8983 10.9458 38.0168 11.1095C38.1352 11.2731 38.2907 11.4065 38.4706 11.4985C38.6504 11.5906 38.8495 11.6387 39.0516 11.639H41.7188C41.8692 11.639 42.0134 11.6988 42.1198 11.8052C42.2262 11.9115 42.2859 12.0558 42.2859 12.2062V14.6812C42.2878 14.7569 42.2745 14.8322 42.2469 14.9026C42.2192 14.9731 42.1777 15.0373 42.1249 15.0914C42.072 15.1456 42.0089 15.1886 41.9391 15.218C41.8694 15.2474 41.7944 15.2625 41.7188 15.2625H36.7969C36.7198 15.2625 36.6459 15.2319 36.5914 15.1774C36.5369 15.1229 36.5063 15.0489 36.5063 14.9719V11.8031Z" fill="#266BFF"/>
<path d="M18.1547 16.1437H23.1562C23.7091 16.1438 24.2394 15.9248 24.6312 15.5347C25.023 15.1447 25.2444 14.6153 25.2469 14.0625V9.05625C25.2469 8.50135 25.0268 7.96911 24.6348 7.5763C24.2429 7.18348 23.7111 6.96218 23.1562 6.96094H18.1547C17.5998 6.96218 17.068 7.18348 16.6761 7.5763C16.2842 7.96911 16.0641 8.50135 16.0641 9.05625V14.0625C16.0665 14.6153 16.2879 15.1447 16.6797 15.5347C17.0715 15.9248 17.6018 16.1438 18.1547 16.1437ZM17.4703 9.05625C17.4703 8.87431 17.5423 8.69975 17.6705 8.57066C17.7987 8.44157 17.9727 8.36843 18.1547 8.36719H23.1562C23.3382 8.36843 23.5122 8.44157 23.6405 8.57066C23.7687 8.69975 23.8406 8.87431 23.8406 9.05625V11.8922L23.2359 11.3859C23.1107 11.2823 22.9532 11.2256 22.7906 11.2256C22.628 11.2256 22.4706 11.2823 22.3453 11.3859L21.1547 12.3234L19.7203 10.8234C19.5973 10.7015 19.4335 10.6293 19.2605 10.6207C19.0875 10.612 18.9174 10.6675 18.7828 10.7766L17.4937 11.8687L17.4703 9.05625ZM17.4703 13.7437L19.1625 12.3047L20.5687 13.7906C20.6905 13.9137 20.8532 13.9878 21.0259 13.9991C21.1987 14.0103 21.3696 13.9578 21.5062 13.8516L22.7484 12.8531L23.8125 13.7437V14.0625C23.8125 14.244 23.7404 14.4181 23.612 14.5464C23.4837 14.6748 23.3096 14.7469 23.1281 14.7469H18.1547C17.9732 14.7469 17.7991 14.6748 17.6708 14.5464C17.5424 14.4181 17.4703 14.244 17.4703 14.0625V13.7437Z" fill="#266BFF"/>
<path d="M52.9031 25.5656C52.7417 25.4713 52.5581 25.4216 52.3711 25.4216C52.1841 25.4216 52.0005 25.4713 51.8391 25.5656L50.7656 26.1609C50.7656 25.788 50.6175 25.4303 50.3537 25.1666C50.09 24.9029 49.7323 24.7547 49.3594 24.7547H44.9203C44.5474 24.7547 44.1897 24.9029 43.9259 25.1666C43.6622 25.4303 43.5141 25.788 43.5141 26.1609V30.5625C43.5141 30.9355 43.6622 31.2932 43.9259 31.5569C44.1897 31.8206 44.5474 31.9688 44.9203 31.9688H49.35C49.723 31.9688 50.0807 31.8206 50.3444 31.5569C50.6081 31.2932 50.7563 30.9355 50.7563 30.5625L51.825 31.1578C51.9887 31.248 52.1729 31.2941 52.3598 31.2916C52.5466 31.2891 52.7296 31.2381 52.8908 31.1435C53.052 31.049 53.1858 30.9142 53.2792 30.7524C53.3726 30.5905 53.4223 30.4072 53.4234 30.2203V26.4938C53.4253 26.3071 53.3783 26.1232 53.287 25.9603C53.1957 25.7975 53.0634 25.6614 52.9031 25.5656ZM49.35 30.5719H44.9109V26.1328H49.3406L49.35 30.5719ZM52.0266 29.6344L50.7656 28.9359V27.7547L52.0313 27.0563L52.0266 29.6344Z" fill="#266BFF"/>
<path d="M8.50312 31.2094H9.47812L11.4563 32.5265C11.6594 32.6635 11.896 32.7426 12.1407 32.7554C12.3854 32.7681 12.629 32.714 12.8453 32.5989C13.0616 32.4837 13.2424 32.3119 13.3685 32.1018C13.4946 31.8917 13.5611 31.6513 13.5609 31.4062V31.2281H14.5594C15.077 31.2269 15.573 31.0204 15.9385 30.6539C16.3041 30.2875 16.5094 29.791 16.5094 29.2734V25.8937C16.5094 25.3766 16.3039 24.8806 15.9382 24.5149C15.5725 24.1492 15.0765 23.9437 14.5594 23.9437H8.50312C7.98758 23.9462 7.49399 24.1527 7.13032 24.5182C6.76665 24.8836 6.56249 25.3782 6.5625 25.8937V29.2547C6.56249 29.7706 6.76649 30.2657 7.13003 30.6319C7.49357 30.9981 7.98715 31.2056 8.50312 31.2094ZM7.96875 25.8937C7.96875 25.7495 8.02604 25.6112 8.12801 25.5092C8.22998 25.4073 8.36829 25.35 8.5125 25.35H14.5594C14.7036 25.35 14.8419 25.4073 14.9439 25.5092C15.0458 25.6112 15.1031 25.7495 15.1031 25.8937V29.2547C15.1031 29.3993 15.046 29.5381 14.9442 29.6408C14.8423 29.7435 14.704 29.8019 14.5594 29.8031H12.8531C12.7602 29.8025 12.6681 29.8204 12.5822 29.8558C12.4963 29.8912 12.4183 29.9434 12.3529 30.0093C12.2874 30.0752 12.2357 30.1535 12.2009 30.2397C12.166 30.3258 12.1488 30.418 12.15 30.5109V31.2984L10.0781 29.9203C9.96316 29.843 9.82758 29.8022 9.68906 29.8031H8.50312C8.36012 29.7994 8.22421 29.74 8.12438 29.6376C8.02455 29.5351 7.9687 29.3977 7.96875 29.2547V25.8937Z" fill="#266BFF"/>
</svg>
