<svg width="60" height="60" viewBox="0 0 60 60" fill="none" xmlns="http://www.w3.org/2000/svg">
<path d="M17.5312 8.39062L17.8125 7.71094C17.9531 7.38281 18.0234 7.00781 18.0234 6.65625C18.0234 6.14062 17.8828 5.64844 17.6484 5.22656L17.1797 4.45312H48.5625C49.8984 4.45312 50.9766 5.53125 50.9766 6.86719V8.36719L17.5312 8.39062Z" fill="#266BFF"/>
<path d="M3.75 8.39062L3.46875 7.71094C3.32813 7.38281 3.25781 7.00781 3.25781 6.65625C3.25781 6.14062 3.39844 5.64844 3.63281 5.22656L4.07812 4.47656C2.74219 4.47656 1.85156 5.55469 1.85156 6.89062V8.39062H3.75Z" fill="#266BFF"/>
<path d="M0.375 9.32812H52.3359V10.0781H0.375V9.32812Z" fill="#266BFF"/>
<path d="M6 8.53125C5.48438 8.53125 5.01562 8.34375 4.66406 7.96875C4.3125 7.61719 4.10156 7.125 4.10156 6.63281C4.10156 5.57812 4.94531 4.73438 6 4.73438C6.51563 4.73438 6.98437 4.92187 7.33594 5.29687C7.6875 5.64844 7.89844 6.14062 7.89844 6.63281C7.89844 7.6875 7.03125 8.53125 6 8.53125ZM6 5.48437C5.36719 5.48437 4.85156 6 4.85156 6.63281C4.85156 6.9375 4.96875 7.21875 5.17969 7.45312C5.39063 7.66406 5.69531 7.78125 6 7.78125C6.63281 7.78125 7.14844 7.26562 7.14844 6.63281C7.14844 6.32812 7.03125 6.04687 6.82031 5.8125C6.58594 5.60156 6.30469 5.48437 6 5.48437Z" fill="#266BFF"/>
<path d="M10.5703 8.53125C9.51562 8.53125 8.67188 7.6875 8.67188 6.63281C8.67188 5.57812 9.51562 4.73438 10.5703 4.73438C11.625 4.73438 12.4688 5.57812 12.4688 6.63281C12.4453 7.6875 11.6016 8.53125 10.5703 8.53125ZM10.5703 5.48437C9.9375 5.48437 9.42188 6 9.42188 6.63281C9.42188 7.26562 9.9375 7.78125 10.5703 7.78125C11.2031 7.78125 11.7188 7.26562 11.7188 6.63281C11.7188 6 11.2031 5.48437 10.5703 5.48437Z" fill="#266BFF"/>
<path d="M15.1172 8.53125C14.6016 8.53125 14.1328 8.34375 13.7812 7.96875C13.4297 7.61719 13.2188 7.125 13.2188 6.63281C13.2188 5.57812 14.0625 4.73438 15.1172 4.73438C16.1719 4.73438 17.0156 5.57812 17.0156 6.63281C17.0156 7.6875 16.1719 8.53125 15.1172 8.53125ZM15.1172 5.48437C14.4844 5.48437 13.9687 6 13.9687 6.63281C13.9687 6.9375 14.0859 7.21875 14.2969 7.45312C14.5078 7.66406 14.8125 7.78125 15.1172 7.78125C15.75 7.78125 16.2656 7.26562 16.2656 6.63281C16.2656 6 15.75 5.48437 15.1172 5.48437Z" fill="#266BFF"/>
<path d="M48.5625 53.1094H4.14844C1.85156 53.1094 0 51.2578 0 48.9609V6.86719C0 6.1875 0.164062 5.48437 0.492187 4.89844C0.679687 4.54687 0.914062 4.24219 1.21875 3.9375C1.40625 3.75 1.59375 3.58594 1.82813 3.42188C2.0625 3.28125 2.29688 3.14062 2.53125 3.04687C3.04688 2.83594 3.58594 2.71875 4.14844 2.71875H48.5625C49.125 2.71875 49.6641 2.83594 50.1797 3.04687C50.4141 3.14062 50.6484 3.28125 50.8828 3.42188C51.1172 3.58594 51.3281 3.75 51.4922 3.9375C51.7734 4.21875 52.0078 4.54687 52.1953 4.89844C52.5234 5.50781 52.6875 6.1875 52.6875 6.86719V28.1016L46.4766 34.5234H48.9844V53.0391L48.6563 53.0859C48.6328 53.1094 48.5859 53.1094 48.5625 53.1094ZM4.14844 3.46875C3.70313 3.46875 3.25781 3.5625 2.83594 3.72656C2.625 3.82031 2.4375 3.91406 2.25 4.03125C2.0625 4.14844 1.89844 4.28906 1.75781 4.45312C1.52344 4.6875 1.3125 4.94531 1.17188 5.22656C0.914062 5.71875 0.773437 6.28125 0.773437 6.84375V48.9141C0.773437 50.7891 2.29687 52.3125 4.17187 52.3125H48.2578V35.25H44.7422L51.9609 27.7734V6.84375C51.9609 6.28125 51.8203 5.71875 51.5625 5.22656C51.3984 4.94531 51.2109 4.6875 50.9766 4.45312C50.8359 4.3125 50.6719 4.17188 50.4609 4.03125C50.2734 3.91406 50.0859 3.79687 49.8984 3.72656C49.4766 3.53906 49.0312 3.46875 48.5625 3.46875H4.14844Z" fill="#266BFF"/>
<path d="M25.8281 32.9766L25.4531 32.6016L24.2344 33.8203L24.6094 34.1953C25.0078 34.6172 25.2422 35.1562 25.2422 35.7422C25.2422 36.3281 25.0078 36.8672 24.6094 37.2891L18.9375 42.9141C18.5391 43.3125 17.9766 43.5469 17.4141 43.5469C16.8281 43.5469 16.2891 43.3125 15.8672 42.9141L13.8047 40.8281C13.4063 40.4062 13.1719 39.8672 13.1719 39.2813C13.1719 38.6953 13.4063 38.1563 13.8047 37.7578L19.4531 32.1094C19.8516 31.7109 20.4141 31.4766 20.9766 31.4766C21.5625 31.4766 22.1016 31.7109 22.5234 32.1094L22.9922 32.5781L24.2109 31.3594L23.7422 30.8906C22.9922 30.1406 22.0078 29.7422 20.9531 29.7422C19.9219 29.7422 18.9375 30.1406 18.2109 30.8672L12.5391 36.4922C11.7891 37.2187 11.3906 38.2031 11.3906 39.2578C11.3906 40.3125 11.7891 41.2969 12.5156 42.0234L14.5781 44.1094C15.3047 44.8594 16.3125 45.2578 17.3672 45.2578C18.3984 45.2578 19.3828 44.8594 20.1094 44.1328L25.7813 38.5078C26.5313 37.7813 26.9297 36.7969 26.9297 35.7422C26.9531 34.7109 26.5547 33.7266 25.8281 32.9766Z" fill="#266BFF"/>
<path d="M40.8984 18.1641L38.8359 16.0781C38.0859 15.3281 37.1016 14.9297 36.0469 14.9297C35.0156 14.9297 34.0313 15.3281 33.3047 16.0547L27.6328 21.6797C26.8828 22.4062 26.4844 23.3906 26.4844 24.4453C26.4844 25.5 26.8828 26.4844 27.6094 27.2109L27.9844 27.5859L29.2031 26.3438L28.8281 25.9688C28.4297 25.5469 28.1953 25.0078 28.1953 24.4219C28.1953 23.8359 28.4297 23.2969 28.8281 22.875L34.5 17.25C34.8984 16.8516 35.4609 16.6172 36.0234 16.6172C36.6094 16.6172 37.1484 16.8516 37.5703 17.25L39.6328 19.3359C40.0313 19.7578 40.2656 20.2969 40.2656 20.8828C40.2656 21.4687 40.0313 22.0078 39.6328 22.4062L33.9609 28.0312C33.5625 28.4297 33 28.6641 32.4375 28.6641C31.8516 28.6641 31.3125 28.4297 30.8906 28.0312L30.4219 27.5625L29.1797 28.7813L29.6484 29.25C30.3984 30 31.3828 30.3984 32.4375 30.3984C33.4687 30.3984 34.4531 30 35.1797 29.2734L40.8516 23.6484C41.6016 22.9219 42 21.9375 42 20.8828C42.0469 19.8984 41.6484 18.9141 40.8984 18.1641Z" fill="#266BFF"/>
<path d="M32.3493 25.7256L22.3574 35.7175L21.1312 34.4913L31.1231 24.4994L32.3493 25.7256Z" fill="#266BFF"/>
<path d="M17.3672 45.6562C16.2187 45.6562 15.1406 45.2109 14.3203 44.3906L12.2578 42.3047C11.4609 41.4844 11.0156 40.4062 11.0156 39.2578C11.0156 38.1094 11.4609 37.0313 12.2813 36.2344L17.9531 30.6094C18.75 29.8125 19.8281 29.3672 20.9766 29.3672C22.125 29.3672 23.2031 29.8125 24.0234 30.6328L24.75 31.3594L22.9922 33.1172L22.2656 32.3906C21.9141 32.0391 21.4687 31.8516 20.9766 31.8516C20.5078 31.8516 20.0391 32.0391 19.7109 32.3672L14.0391 37.9922C13.6875 38.3203 13.5 38.7891 13.5 39.2578C13.5 39.7266 13.6875 40.1953 14.0156 40.5234L16.0781 42.6094C16.4297 42.9609 16.875 43.1484 17.3672 43.1484C17.8359 43.1484 18.3047 42.9609 18.6328 42.6328L24.3047 37.0078C24.6562 36.6797 24.8438 36.2109 24.8438 35.7422C24.8438 35.2734 24.6563 34.8047 24.3281 34.4766L23.6953 33.8437L25.4531 32.0859L26.0859 32.7188C26.8828 33.5391 27.3281 34.6172 27.3281 35.7656C27.3281 36.9141 26.8828 37.9922 26.0625 38.7891L20.3906 44.4141C19.5703 45.2109 18.4922 45.6562 17.3672 45.6562ZM20.9766 30.1172C20.0391 30.1172 19.1484 30.4922 18.4922 31.1484L12.8203 36.7734C12.1406 37.4297 11.7891 38.3203 11.7656 39.2813C11.7656 40.2188 12.1172 41.1094 12.7969 41.7891L14.8594 43.875C15.5391 44.5547 16.4297 44.9297 17.3672 44.9297C18.3047 44.9297 19.1953 44.5547 19.8516 43.8984L25.5234 38.2734C26.2031 37.6172 26.5781 36.7266 26.5781 35.7656C26.5781 34.8281 26.2266 33.9375 25.5469 33.2578L25.4297 33.1406L24.7266 33.8437L24.8203 33.9375C25.2891 34.4297 25.5703 35.0625 25.5703 35.7422C25.5703 36.4219 25.2891 37.0547 24.8203 37.5469L19.1484 43.1719C18.6562 43.6406 18.0234 43.8984 17.3672 43.8984C16.6875 43.8984 16.0313 43.6406 15.5625 43.1484L13.5 41.0625C13.0312 40.5703 12.75 39.9375 12.7734 39.2578C12.7734 38.5781 13.0547 37.9453 13.5234 37.4531L19.1953 31.8281C19.6641 31.3594 20.3203 31.0781 21 31.0781C21.6797 31.0781 22.3359 31.3359 22.8047 31.8281L23.0156 32.0391L23.7187 31.3359L23.5313 31.125C22.8281 30.4922 21.9375 30.1172 20.9766 30.1172Z" fill="#266BFF"/>
<path d="M32.4609 30.8438C31.3125 30.8438 30.2344 30.3984 29.4141 29.5781L28.6875 28.8516L30.4453 27.0938L31.1719 27.8203C31.5 28.1719 31.9687 28.3594 32.4609 28.3594C32.9297 28.3594 33.3984 28.1719 33.7266 27.8438L39.3984 22.2188C39.75 21.8906 39.9375 21.4219 39.9375 20.9531C39.9375 20.4844 39.75 20.0156 39.4219 19.6875L37.3594 17.6016C37.0312 17.25 36.5625 17.0625 36.0703 17.0625C35.6016 17.0625 35.1328 17.25 34.8047 17.5781L29.1328 23.2031C28.7813 23.5313 28.5937 24 28.5937 24.4688C28.5937 24.9375 28.7812 25.4063 29.1094 25.7344L29.7422 26.3672L27.9844 28.125L27.3516 27.4922C26.5547 26.6719 26.1094 25.5938 26.1094 24.4453C26.1094 23.2969 26.5547 22.2188 27.375 21.4219L33.0469 15.7969C33.8437 15 34.9219 14.5547 36.0703 14.5547C37.2187 14.5547 38.2969 15 39.1172 15.8203L41.1797 17.9063C41.9766 18.7266 42.4219 19.8047 42.4219 20.9297C42.4219 22.0781 41.9766 23.1562 41.1563 23.9531L35.4844 29.5781C34.6641 30.3984 33.5859 30.8438 32.4609 30.8438ZM29.7422 28.8516L29.9531 29.0625C30.6328 29.7422 31.5234 30.1172 32.4609 30.1172C33.3984 30.1172 34.2891 29.7422 34.9453 29.0859L40.6172 23.4609C41.2969 22.8047 41.6484 21.9141 41.6719 20.9531C41.6719 20.0156 41.3203 19.125 40.6406 18.4453L38.5781 16.3594C37.8984 15.6797 37.0078 15.3047 36.0703 15.3047C35.1328 15.3047 34.2422 15.6797 33.5859 16.3359L27.9141 21.9609C27.2344 22.6172 26.8828 23.5078 26.8594 24.4688C26.8594 25.4063 27.2109 26.2969 27.8906 26.9766L28.0078 27.0938L28.7109 26.3906L28.6172 26.2969C28.1484 25.8047 27.8672 25.1719 27.8672 24.4922C27.8672 23.8125 28.1484 23.1797 28.6172 22.6875L34.2891 17.0625C34.7578 16.5938 35.4141 16.3359 36.0703 16.3359C36.75 16.3359 37.4063 16.5938 37.875 17.0859L39.9375 19.1719C40.4062 19.6641 40.6875 20.2969 40.6875 20.9766C40.6875 21.6563 40.4062 22.2891 39.9375 22.7812L34.2656 28.4062C33.7969 28.875 33.1641 29.1563 32.4844 29.1563C31.8047 29.1563 31.1484 28.8984 30.6797 28.4062L30.4687 28.1953L29.7422 28.8516Z" fill="#266BFF"/>
<path d="M22.3359 36.2578L20.5781 34.5L31.1016 23.9766L32.8594 25.7344L22.3359 36.2578ZM21.6328 34.5L22.3359 35.2031L31.8047 25.7344L31.1016 25.0312L21.6328 34.5Z" fill="#266BFF"/>
<path d="M38.0625 44.0391C35.6719 44.0391 33.7031 42.0938 33.7031 39.6797C33.7031 37.2891 35.6484 35.3203 38.0625 35.3203C40.4531 35.3203 42.4219 37.2656 42.4219 39.6797C42.4219 42.0938 40.4531 44.0391 38.0625 44.0391ZM38.0625 36.0938C36.0703 36.0938 34.4531 37.7109 34.4531 39.7031C34.4531 41.6953 36.0703 43.3125 38.0625 43.3125C40.0547 43.3125 41.6719 41.6953 41.6719 39.7031C41.6719 37.7109 40.0547 36.0938 38.0625 36.0938Z" fill="#266BFF"/>
<path d="M38.0625 42.4453C36.5625 42.4453 35.3203 41.2266 35.3203 39.7031C35.3203 38.2031 36.5391 36.9609 38.0625 36.9609C39.5625 36.9609 40.8047 38.1797 40.8047 39.7031C40.8047 41.2031 39.5625 42.4453 38.0625 42.4453Z" fill="#266BFF"/>
<path d="M26.7187 45.5625C26.625 45.5625 26.5078 45.5625 26.4141 45.5625L26.4375 44.8125H26.7187H26.8828H27.1641L27.1875 45.5625C27.0937 45.5625 27 45.5625 26.8828 45.5625H26.7187ZM25.6406 45.5391C25.3828 45.5156 25.125 45.4922 24.8906 45.4687L24.9844 44.7188C25.2187 44.7422 25.4766 44.7656 25.7109 44.7891L25.6406 45.5391ZM27.9375 45.5156L27.8906 44.7656C28.125 44.7422 28.3828 44.7187 28.6172 44.6953L28.7109 45.4453C28.4531 45.4687 28.1953 45.4922 27.9375 45.5156ZM24.1406 45.3516C23.8828 45.3047 23.6484 45.2578 23.3906 45.2109L23.5547 44.4844C23.7891 44.5313 24.0234 44.5781 24.2578 44.625L24.1406 45.3516ZM29.4609 45.3281L29.3203 44.6016L30.0234 44.4609L30.1875 45.1875C29.9531 45.2344 29.6953 45.2812 29.4609 45.3281ZM22.6406 45.0234C22.4531 44.9766 22.2656 44.9297 22.0781 44.8594L21.8906 44.7891L22.1484 44.0859L22.3125 44.1562C22.4766 44.2031 22.6406 44.25 22.8281 44.2969L22.6406 45.0234ZM30.9375 44.9766L30.7266 44.25C30.9609 44.1797 31.1953 44.1094 31.4297 44.0391L31.6641 44.7422C31.4297 44.8359 31.1719 44.9062 30.9375 44.9766ZM32.3906 44.4844L32.1094 43.7812C32.3437 43.6875 32.5547 43.5938 32.7891 43.5L33.0937 44.1797C32.8594 44.2969 32.625 44.3906 32.3906 44.4844ZM33.7734 43.8516L33.4219 43.1953C33.6328 43.0781 33.8438 42.9609 34.0547 42.8438L34.4297 43.5C34.2187 43.6172 34.0078 43.7578 33.7734 43.8516Z" fill="#266BFF"/>
<path d="M41.3672 35.0859L40.6641 34.8516C40.7344 34.6172 40.8047 34.3828 40.875 34.1484L41.6016 34.3594C41.5078 34.5938 41.4375 34.8516 41.3672 35.0859ZM41.7656 33.6094L41.0391 33.4453C41.0859 33.2109 41.1328 32.9766 41.1797 32.7422L41.9063 32.8828C41.8828 33.1172 41.8359 33.375 41.7656 33.6094ZM42.0469 32.1094L41.2969 32.0156C41.3203 31.7813 41.3438 31.5234 41.3672 31.2891L42.1172 31.3594C42.1172 31.5938 42.0703 31.8516 42.0469 32.1094ZM42.1641 30.5859L41.4141 30.5625C41.4141 30.4219 41.4141 30.2578 41.4141 30.1172V29.8359L42.1641 29.8125V30.0937C42.1875 30.2578 42.1641 30.4219 42.1641 30.5859ZM41.3906 29.1094C41.3672 28.875 41.3438 28.6172 41.3203 28.3828L42.0703 28.2891C42.0938 28.5469 42.1172 28.8047 42.1406 29.0391L41.3906 29.1094ZM41.2266 27.6797C41.1797 27.4453 41.1328 27.2109 41.0859 26.9766L41.8125 26.8125C41.8594 27.0703 41.9063 27.3047 41.9531 27.5625L41.2266 27.6797ZM40.9219 26.25C40.8516 26.0156 40.7812 25.7812 40.7109 25.5469L41.4141 25.3125C41.4844 25.5469 41.5547 25.8047 41.625 26.0391L40.9219 26.25Z" fill="#266BFF"/>
<path d="M11.9766 34.8047C11.9062 34.5703 11.8359 34.3125 11.7656 34.0781L12.4922 33.8906L12.7031 34.5938L11.9766 34.8047ZM11.6016 33.3281C11.5547 33.0703 11.5078 32.8359 11.4609 32.5781L12.1875 32.4609C12.2344 32.6953 12.2812 32.9297 12.3281 33.1641L11.6016 33.3281ZM11.3438 31.8281C11.3203 31.5703 11.2969 31.3125 11.2734 31.0781L12.0234 31.0312C12.0469 31.2656 12.0703 31.5234 12.0937 31.7578L11.3438 31.8281ZM11.25 30.3047V30.1172C11.25 29.9297 11.25 29.7422 11.25 29.5547L12 29.5781V30.1172V30.3047H11.25ZM12.0469 28.8516L11.2969 28.7813C11.3203 28.5234 11.3437 28.2656 11.3906 28.0312L12.1406 28.125C12.0937 28.3594 12.0703 28.5937 12.0469 28.8516ZM12.2578 27.3984L11.5313 27.2578C11.5781 27 11.625 26.7656 11.6953 26.5078L12.4219 26.6719C12.3516 26.9297 12.3047 27.1641 12.2578 27.3984ZM12.5859 25.9922L11.8594 25.7812C11.9297 25.5469 12 25.2891 12.0937 25.0547L12.7969 25.2891C12.7266 25.5234 12.6563 25.7578 12.5859 25.9922ZM13.0547 24.6094L12.375 24.3281C12.4687 24.0938 12.5625 23.8594 12.6797 23.625L13.3594 23.9297C13.2422 24.1641 13.1484 24.3984 13.0547 24.6094ZM13.6641 23.2969L13.0078 22.9453C13.125 22.7109 13.2422 22.5 13.3828 22.2656L14.0156 22.6406C13.8984 22.8516 13.7812 23.0859 13.6641 23.2969ZM14.4141 22.0312L13.7812 21.6328C13.9219 21.4219 14.0625 21.2109 14.2266 21L14.8359 21.4453C14.6953 21.6328 14.5547 21.8437 14.4141 22.0312ZM15.2812 20.8594L14.6953 20.3906C14.8594 20.2031 15.0234 19.9922 15.1875 19.8047L15.75 20.2969C15.5859 20.4844 15.4219 20.6719 15.2812 20.8594ZM16.2422 19.7812L15.7031 19.2656C15.8906 19.0781 16.0547 18.9141 16.2422 18.7266L16.7578 19.2656C16.5938 19.4297 16.4063 19.6172 16.2422 19.7812ZM17.3203 18.7969L16.8516 18.2344C17.0391 18.0703 17.25 17.9063 17.4609 17.7656L17.9063 18.3516C17.6953 18.4922 17.4844 18.6328 17.3203 18.7969ZM18.4688 17.9297L18.0469 17.2969C18.2578 17.1563 18.4687 17.0156 18.6797 16.875L19.0781 17.5078C18.8672 17.6484 18.6563 17.7891 18.4688 17.9297ZM19.7109 17.1562L19.3594 16.5C19.5938 16.3828 19.8047 16.2656 20.0391 16.1484L20.3672 16.8281C20.1328 16.9453 19.9219 17.0625 19.7109 17.1562ZM21.0234 16.5469L20.7422 15.8672L21.4453 15.5859L21.7031 16.2891C21.4688 16.3594 21.2344 16.4531 21.0234 16.5469ZM31.6875 16.2422L31.2656 16.1016C31.1719 16.0781 31.0781 16.0313 30.9844 16.0078L31.1953 15.3047C31.2891 15.3281 31.4062 15.375 31.5 15.3984L31.9219 15.5391L31.6875 16.2422ZM22.3828 16.0312L22.1719 15.3281C22.4063 15.2578 22.6641 15.1875 22.8984 15.1172L23.0859 15.8437C22.8516 15.9141 22.6172 15.9609 22.3828 16.0312ZM30.2813 15.8203C30.0469 15.7734 29.8125 15.7031 29.5781 15.6563L29.7188 14.9297C29.9766 14.9766 30.2109 15.0234 30.4688 15.0938L30.2813 15.8203ZM23.7891 15.6797L23.6484 14.9531C23.9063 14.9062 24.1406 14.8594 24.3984 14.8125L24.5156 15.5391C24.2578 15.5859 24.0234 15.6328 23.7891 15.6797ZM28.8516 15.5391C28.6172 15.5156 28.3594 15.4688 28.125 15.4453L28.1953 14.6953C28.4531 14.7187 28.7109 14.7422 28.9453 14.7891L28.8516 15.5391ZM25.2188 15.4687L25.1484 14.7187C25.4063 14.6953 25.6641 14.6719 25.8984 14.6719L25.9453 15.4219C25.7109 15.4219 25.4766 15.4453 25.2188 15.4687ZM27.3984 15.3984C27.1641 15.3984 26.9531 15.375 26.7188 15.375H26.6719V14.625H26.7188C26.9531 14.625 27.2109 14.625 27.4453 14.6484L27.3984 15.3984Z" fill="#266BFF"/>
<path d="M37.6875 37.4297H38.4375V41.9766H37.6875V37.4297Z" fill="#266BFF"/>
<path d="M35.7891 39.3281H40.3359V40.0781H35.7891V39.3281Z" fill="#266BFF"/>
<path d="M56.4844 57.2578H48.2344V35.2734H44.7188L52.3594 27.375L60 35.2734H56.4844V57.2578ZM48.9844 56.5312H55.7344V34.5469H58.2422L52.3594 28.4766L46.4766 34.5469H48.9844V56.5312Z" fill="#266BFF"/>
<path d="M49.8516 55.6406V33.6797H48.5391L52.3594 29.7188L56.1797 33.6797H54.8672V55.6406H49.8516Z" fill="#266BFF"/>
</svg>
