<svg width="60" height="60" viewBox="0 0 60 60" fill="none" xmlns="http://www.w3.org/2000/svg">
<path fill-rule="evenodd" clip-rule="evenodd" d="M1.23083 39.8612V4.7006V4.6999C1.23131 2.81119 2.76236 1.28013 4.65107 1.27966H4.65178H43.8991H43.8999C45.7886 1.28013 47.3195 2.81119 47.32 4.6999V4.7006V23.643C49.7171 26.3598 50.9599 30.0665 50.4234 33.9365C50.0597 36.561 48.9286 38.8905 47.2886 40.7302L49.0127 43.0093C49.8113 42.9267 50.6353 43.2502 51.153 43.9345L58.2906 53.3693C59.0775 54.4097 58.8707 55.9019 57.8305 56.6888L55.7777 58.2419C54.7371 59.0291 53.2413 58.8207 52.4581 57.7817L45.3205 48.3468C44.8025 47.6622 44.7151 46.7819 45.0122 46.0357L43.2881 43.7567C42.5335 44.1235 41.7404 44.4183 40.9188 44.633V47.182C40.9188 47.6368 40.5501 48.0055 40.0953 48.0055H35.2361C34.7813 48.0055 34.4126 47.6368 34.4126 47.182V44.6307C33.249 44.3284 32.1572 43.8711 31.1567 43.2847H4.65436C2.76366 43.2847 1.23083 41.752 1.23083 39.8612ZM45.673 9.59496V4.70131V4.7006C45.6715 3.72155 44.8781 2.92813 43.8991 2.92672H43.8984H4.65248H4.65178C3.67272 2.92813 2.87931 3.72155 2.87789 4.7006V4.70131V9.59496H45.673ZM38.1419 5.01166C38.8318 5.01166 39.392 5.57178 39.392 6.26178C39.392 6.95166 38.8318 7.51178 38.1419 7.51178C37.4519 7.51178 36.8918 6.95166 36.8918 6.26178C36.8918 5.57178 37.4519 5.01166 38.1419 5.01166ZM34.4748 5.01166C35.1648 5.01166 35.725 5.57178 35.725 6.26178C35.725 6.95166 35.1648 7.51178 34.4748 7.51178C33.785 7.51178 33.2247 6.95166 33.2247 6.26178C33.2247 5.57178 33.785 5.01166 34.4748 5.01166ZM41.8088 5.01166C42.4988 5.01166 43.059 5.57178 43.059 6.26178C43.059 6.95166 42.4988 7.51178 41.8088 7.51178C41.119 7.51178 40.5588 6.95166 40.5588 6.26178C40.5588 5.57178 41.119 5.01166 41.8088 5.01166ZM45.673 22.0779V11.242H2.87789V39.8612C2.87789 40.8424 3.67331 41.6377 4.65436 41.6377H28.9357C25.9435 38.8743 24.3074 34.7398 24.909 30.3998C25.8855 23.3545 32.3893 18.4343 39.4345 19.4108C41.8015 19.739 43.9287 20.6911 45.673 22.0779ZM7.51966 25.5647C7.06507 25.5647 6.69613 25.1957 6.69613 24.7412C6.69613 24.2866 7.06507 23.9177 7.51966 23.9177H15.8975C16.352 23.9177 16.7211 24.2866 16.7211 24.7412C16.7211 25.1957 16.352 25.5647 15.8975 25.5647H7.51966ZM7.51966 21.0892C7.06507 21.0892 6.69613 20.7203 6.69613 20.2657C6.69613 19.8112 7.06507 19.4421 7.51966 19.4421H24.2754C24.73 19.4421 25.099 19.8112 25.099 20.2657C25.099 20.7203 24.73 21.0892 24.2754 21.0892H7.51966ZM7.51966 16.6138C7.06507 16.6138 6.69613 16.2448 6.69613 15.7903C6.69613 15.3358 7.06507 14.9667 7.51966 14.9667H15.8975C16.352 14.9667 16.7211 15.3358 16.7211 15.7903C16.7211 16.2448 16.352 16.6138 15.8975 16.6138H7.51966ZM46.1058 41.8967C45.6715 42.2731 45.2127 42.6203 44.7324 42.9358L46.1202 44.7704L47.4937 43.7313L46.1058 41.8967ZM36.0597 40.6735V46.3585H39.2718V43.994C39.2717 43.9841 39.2717 43.9742 39.2718 43.9645V40.6719C39.2717 40.6611 39.2717 40.6502 39.2718 40.6394V34.6385C39.2718 34.1837 39.6405 33.815 40.0953 33.815H41.6652L37.6661 29.154L33.6671 33.815H35.2361C35.691 33.815 36.0597 34.1837 36.0597 34.6385V40.6412V40.6735ZM46.7744 46.3408C46.4571 46.5808 46.394 47.0359 46.634 47.3532L53.7717 56.788L53.7725 56.7892C54.0113 57.1059 54.467 57.1681 54.7839 56.9284L56.8367 55.3753C57.154 55.1353 57.2171 54.6802 56.9771 54.3631L49.8394 44.9283C49.5997 44.6113 49.1442 44.5471 48.8282 44.7871L48.8271 44.7879L46.7744 46.3408ZM40.9188 39.4797C43.359 38.388 45.2038 36.1018 45.5967 33.2674C45.648 32.8973 45.673 32.5293 45.673 32.1655C45.673 28.2371 42.7645 24.7919 38.7654 24.2375C34.3981 23.6323 30.3411 26.7014 29.7357 31.0688C29.2357 34.676 31.2405 38.0691 34.4126 39.4837V35.462H31.8754C31.5537 35.462 31.2614 35.2747 31.1271 34.9825C30.9928 34.6901 31.041 34.3464 31.2504 34.1022L37.0412 27.3531C37.1977 27.1707 37.4259 27.0659 37.6661 27.0659C37.9065 27.0659 38.1347 27.1707 38.2912 27.3531L44.082 34.1022C44.2914 34.3464 44.3395 34.6901 44.2052 34.9825C44.0708 35.2747 43.7786 35.462 43.457 35.462H40.9188V39.4797ZM40.9188 42.9219C41.6893 42.6882 42.4284 42.3732 43.1244 41.9855C43.2559 41.9123 43.3859 41.8364 43.5142 41.758C44.2824 41.2888 44.9928 40.729 45.6287 40.0908C45.6973 40.022 45.7651 39.9522 45.8319 39.8817C47.3845 38.2412 48.4582 36.118 48.792 33.7104C49.2739 30.2331 48.1087 26.9072 45.893 24.5205C44.1934 22.6899 41.8754 21.412 39.2084 21.0424C33.0641 20.1906 27.3921 24.4817 26.5404 30.6259C25.9074 35.1927 28.1154 39.4987 31.8137 41.7585C32.6146 42.2479 33.4855 42.6412 34.4126 42.9205V41.2571C30.2048 39.7495 27.467 35.4404 28.1042 30.8427C28.8341 25.5768 33.7258 21.8763 38.9917 22.6061C43.8134 23.2745 47.32 27.4288 47.32 32.1655C47.32 32.604 47.29 33.0474 47.2281 33.4935C46.7191 37.1659 44.1894 40.0761 40.9188 41.2543V42.9219Z" fill="#266BFF"/>
</svg>
