<svg width="60" height="60" viewBox="0 0 60 60" fill="none" xmlns="http://www.w3.org/2000/svg">
<g clip-path="url(#clip0_59_30)">
<mask id="mask0_59_30" style="mask-type:luminance" maskUnits="userSpaceOnUse" x="0" y="0" width="60" height="60">
<path d="M0 3.8147e-06H60V60H0V3.8147e-06Z" fill="white"/>
</mask>
<g mask="url(#mask0_59_30)">
<path d="M3.51562 50.332V15.0949C3.51562 13.1543 5.08945 11.5793 7.03125 11.5793H16.4109" stroke="#266BFF" stroke-width="2" stroke-miterlimit="10" stroke-linecap="round" stroke-linejoin="round"/>
<path d="M43.5891 11.5793H52.9687C54.9105 11.5793 56.4844 13.1543 56.4844 15.0949V50.332" stroke="#266BFF" stroke-width="2" stroke-miterlimit="10" stroke-linecap="round" stroke-linejoin="round"/>
<path d="M43.9723 15.0949H52.5C52.759 15.0949 52.9688 15.3047 52.9688 15.5637V50.332" stroke="#266BFF" stroke-width="2" stroke-miterlimit="10" stroke-linecap="round" stroke-linejoin="round"/>
<path d="M7.03125 50.332V15.5637C7.03125 15.3047 7.24102 15.0949 7.5 15.0949H16.0277" stroke="#266BFF" stroke-width="2" stroke-miterlimit="10" stroke-linecap="round" stroke-linejoin="round"/>
<path d="M47.9353 50.332H58.5351C58.8587 50.332 59.1211 50.5944 59.1211 50.918V54.9667C59.1211 57.2611 57.2611 59.1211 54.9667 59.1211H5.03331C2.7389 59.1211 0.878899 57.2611 0.878899 54.9667V50.918C0.878899 50.5944 1.14128 50.332 1.46484 50.332H43.8337" stroke="#266BFF" stroke-width="2" stroke-miterlimit="10" stroke-linecap="round" stroke-linejoin="round"/>
<path d="M33.8619 53.8477H26.1381C25.4909 53.8477 24.9662 53.323 24.9662 52.6758V50.332H35.0338V52.6758C35.0338 53.323 34.5092 53.8477 33.8619 53.8477Z" stroke="#266BFF" stroke-width="2" stroke-miterlimit="10" stroke-linecap="round" stroke-linejoin="round"/>
<path d="M25.1078 1.75909C26.6304 1.19003 28.2789 0.878893 30 0.878893C37.7187 0.878893 43.9758 7.13612 43.9758 14.8548C43.9758 22.5735 37.7187 28.8307 30 28.8307C22.2813 28.8307 16.0241 22.5735 16.0241 14.8548C16.0241 10.3241 18.1799 6.29706 21.5218 3.74331" stroke="#266BFF" stroke-width="2" stroke-miterlimit="10" stroke-linecap="round" stroke-linejoin="round"/>
<path d="M35.0215 18.4102C36.6973 18.9375 37.9125 20.5043 37.9125 22.3547" stroke="#266BFF" stroke-width="2" stroke-miterlimit="10" stroke-linecap="round" stroke-linejoin="round"/>
<path d="M22.0875 22.3546C22.0875 20.5042 23.3027 18.9374 24.9785 18.4101" stroke="#266BFF" stroke-width="2" stroke-miterlimit="10" stroke-linecap="round" stroke-linejoin="round"/>
<path d="M35.2676 14.7715C36.8145 14.1727 37.9125 12.6715 37.9125 10.9125" stroke="#266BFF" stroke-width="2" stroke-miterlimit="10" stroke-linecap="round" stroke-linejoin="round"/>
<path d="M22.0875 10.9125C22.0875 12.6715 23.1855 14.1727 24.7324 14.7715" stroke="#266BFF" stroke-width="2" stroke-miterlimit="10" stroke-linecap="round" stroke-linejoin="round"/>
<path d="M30.6311 21.5514H29.3689C26.8085 21.5514 24.733 19.4759 24.733 16.9156V13.8679C24.733 11.3074 26.8085 9.23194 29.3689 9.23194H30.6311C33.1915 9.23194 35.2671 11.3074 35.2671 13.8679V16.9156C35.2671 19.4759 33.1915 21.5514 30.6311 21.5514Z" stroke="#266BFF" stroke-width="2" stroke-miterlimit="10" stroke-linecap="round" stroke-linejoin="round"/>
<path d="M24.7661 5.09627C24.7661 7.38025 26.6177 9.23193 28.9018 9.23193H31.0982C33.3823 9.23193 35.2339 7.38025 35.2339 5.09627" stroke="#266BFF" stroke-width="2" stroke-miterlimit="10" stroke-linecap="round" stroke-linejoin="round"/>
<path d="M36.8175 42.3342C37.0616 42.3342 37.2871 42.4594 37.4216 42.6631C38.7658 44.6974 41.0719 46.0402 43.6926 46.0402C46.1706 46.0402 48.3672 44.8397 49.7354 42.9894C49.9358 42.7185 49.7397 42.3342 49.4027 42.3342H42.8701C42.1578 42.3342 41.5805 41.7568 41.5805 41.0446V38.1181C41.5805 37.4058 42.1578 36.8284 42.8701 36.8284H49.4027C49.7397 36.8284 49.9358 36.4441 49.7354 36.1732C48.3672 34.3229 46.1706 33.1225 43.6926 33.1225C41.0719 33.1225 38.7658 34.4653 37.4216 36.4996C37.2871 36.7032 37.0616 36.8284 36.8175 36.8284H22.9166C22.6724 36.8284 22.447 36.7032 22.3124 36.4996C20.9681 34.4653 18.6622 33.1225 16.0413 33.1225C13.5634 33.1225 11.3668 34.3228 9.99854 36.1732C9.79815 36.4441 9.9942 36.8284 10.3312 36.8284H16.8638C17.5762 36.8284 18.1536 37.4058 18.1536 38.1181V41.0446C18.1536 41.7568 17.5762 42.3342 16.8638 42.3342H10.3312C9.9942 42.3342 9.79826 42.7185 9.99865 42.9894C11.3668 44.8397 13.5634 46.0402 16.0413 46.0402C18.6622 46.0402 20.9682 44.6974 22.3124 42.6631C22.447 42.4594 22.6724 42.3342 22.9166 42.3342H36.8175Z" stroke="#266BFF" stroke-width="2" stroke-miterlimit="10" stroke-linecap="round" stroke-linejoin="round"/>
</g>
</g>
<defs>
<clipPath id="clip0_59_30">
<rect width="60" height="60" fill="white"/>
</clipPath>
</defs>
</svg>
