<svg width="60" height="60" viewBox="0 0 60 60" fill="none" xmlns="http://www.w3.org/2000/svg">
<path d="M46.7735 28.6929V6.22743C46.7735 5.43431 46.1283 4.78907 45.3352 4.78907H5.39613C4.60301 4.78907 3.95789 5.43431 3.95789 6.22743V28.6929C3.95789 29.2106 4.37766 29.6304 4.89539 29.6304H45.836C46.3538 29.6304 46.7735 29.2106 46.7735 28.6929ZM44.8985 27.7554H5.83277V6.66396H44.8984V27.7554H44.8985ZM56.0913 57.2936C56.0913 57.8114 55.6716 58.2311 55.1538 58.2311H22.7047C22.187 58.2311 21.7672 57.8114 21.7672 57.2936C21.7672 56.7759 22.187 56.3561 22.7047 56.3561H55.1537C55.6714 56.3561 56.0913 56.7759 56.0913 57.2936ZM8.23617 24.6415C8.38383 24.7268 8.54496 24.7672 8.70398 24.7672C9.02801 24.7672 9.34312 24.599 9.5168 24.2983L12.9226 18.399C13.1434 18.4484 13.3726 18.4753 13.6082 18.4753C14.1328 18.4753 14.6272 18.3452 15.0623 18.1167L16.3522 19.4067C16.1237 19.8417 15.9937 20.3362 15.9937 20.8609C15.9937 22.5915 17.4016 23.9994 19.1321 23.9994C20.8627 23.9994 22.2707 22.5915 22.2707 20.8609C22.2707 20.0425 21.9555 19.2967 21.4406 18.7373L23.68 14.8586C23.9007 14.9081 24.13 14.9349 24.3655 14.9349C24.8902 14.9349 25.3846 14.8049 25.8197 14.5763L27.2532 16.01C27.0247 16.445 26.8948 16.9395 26.8948 17.4642C26.8948 19.1948 28.3027 20.6027 30.0332 20.6027C31.7637 20.6027 33.1717 19.1948 33.1717 17.4642C33.1717 16.9397 33.0417 16.4451 32.8131 16.0101L35.8432 12.9799C36.2783 13.2084 36.7729 13.3385 37.2974 13.3385C39.028 13.3385 40.4358 11.9306 40.4358 10.2C40.4358 8.46935 39.0279 7.06146 37.2974 7.06146C35.5669 7.06146 34.1589 8.46935 34.1589 10.2C34.1589 10.7245 34.2888 11.219 34.5173 11.654L31.4872 14.6843C31.0522 14.4558 30.5577 14.3258 30.033 14.3258C29.5085 14.3258 29.014 14.4558 28.579 14.6843L27.1453 13.2506C27.3738 12.8156 27.5038 12.3211 27.5038 11.7965C27.5038 10.0659 26.0959 8.65802 24.3654 8.65802C22.6349 8.65802 21.2269 10.0659 21.2269 11.7965C21.2269 12.6149 21.542 13.3608 22.0569 13.9201L19.8175 17.7989C19.5967 17.7494 19.3675 17.7226 19.132 17.7226C18.6075 17.7226 18.113 17.8526 17.678 18.0811L16.3881 16.7911C16.6166 16.3561 16.7466 15.8615 16.7466 15.337C16.7466 13.6064 15.3386 12.1985 13.608 12.1985C11.8775 12.1985 10.4696 13.6064 10.4696 15.337C10.4696 16.1553 10.7846 16.9012 11.2996 17.4604L7.89305 23.3609C7.63418 23.8093 7.78781 24.3826 8.23617 24.6415ZM37.2976 8.93646C37.9943 8.93646 38.561 9.50317 38.561 10.2C38.561 10.8968 37.9943 11.4635 37.2976 11.4635C36.6009 11.4635 36.0341 10.8968 36.0341 10.2C36.0341 9.50317 36.6009 8.93646 37.2976 8.93646ZM31.2968 17.4642C31.2968 18.1609 30.73 18.7277 30.0333 18.7277C29.3367 18.7277 28.7699 18.161 28.7699 17.4642C28.7699 16.7674 29.3367 16.2007 30.0333 16.2007C30.73 16.2007 31.2968 16.7675 31.2968 17.4642ZM24.3656 10.533C25.0623 10.533 25.629 11.0997 25.629 11.7965C25.629 12.4933 25.0623 13.06 24.3656 13.06C23.6689 13.06 23.1021 12.4932 23.1021 11.7965C23.1021 11.0999 23.6689 10.533 24.3656 10.533ZM20.3958 20.8609C20.3958 21.5575 19.8289 22.1244 19.1323 22.1244C18.4356 22.1244 17.8689 21.5577 17.8689 20.8609C17.8689 20.1641 18.4356 19.5974 19.1323 19.5974C19.8289 19.5974 20.3958 20.1642 20.3958 20.8609ZM13.6082 14.0734C14.3048 14.0734 14.8717 14.6401 14.8717 15.3369C14.8717 16.0337 14.3048 16.6004 13.6082 16.6004C12.9115 16.6004 12.3448 16.0337 12.3448 15.3369C12.3448 14.6401 12.9115 14.0734 13.6082 14.0734ZM48.5651 34.2615C49.3371 33.4306 49.7937 32.3266 49.7937 31.1649V6.31802C49.7937 3.80962 47.753 1.7688 45.2446 1.7688H5.48672C2.97832 1.7688 0.9375 3.80962 0.9375 6.31802V31.1649C0.9375 33.6734 2.97832 35.7141 5.48672 35.7141H17.0454V39.5774H12.4853C10.27 39.5774 8.46773 41.1018 8.46773 42.9758V45.4367C8.46773 45.9545 8.8875 46.3742 9.40523 46.3742H19.5777C19.0692 48.1409 18.7962 50.0065 18.7962 51.9345V51.9347C18.7963 52.4523 19.2161 52.872 19.7337 52.872L36.0187 52.8722C36.2563 53.6097 36.7561 54.2206 37.4362 54.5996C37.9051 54.8608 38.4137 54.9847 38.9157 54.9847C39.9873 54.9847 41.0283 54.42 41.5857 53.4193C41.6839 53.2431 41.7636 53.0599 41.8247 52.8722H58.125C58.6427 52.8722 59.0625 52.4524 59.0625 51.9347C59.0625 44.3218 54.8147 37.6825 48.5651 34.2615ZM57.1637 50.9973H53.9725C53.8452 48.9348 53.3016 46.9834 52.4243 45.226L55.1875 43.6305C56.3312 45.8609 57.0294 48.356 57.1637 50.9973ZM54.2463 42.0089L51.4842 43.6038C50.3709 41.9315 48.9328 40.4934 47.2605 39.3801L48.8551 36.6178C51.0071 38.017 52.8471 39.857 54.2463 42.0089ZM22.6711 43.6306L25.4344 45.226C24.5572 46.9834 24.0135 48.9347 23.8863 50.9972H20.6948C20.8291 48.3559 21.5273 45.8609 22.6711 43.6306ZM26.3745 43.6037L23.6122 42.0089C25.0113 39.8572 26.8509 38.0175 29.0026 36.6183L30.5982 39.3799C28.9259 40.4933 27.4879 41.9314 26.3745 43.6037ZM32.2206 38.4399L30.6243 35.6771C32.8548 34.533 35.3501 33.8347 37.9917 33.7004V36.8918C35.9293 37.019 33.9779 37.5627 32.2206 38.4399ZM39.8667 33.7004C42.5081 33.8347 45.003 34.5328 47.2334 35.6767L45.6382 38.4399C43.8807 37.5627 41.9293 37.019 39.8667 36.8918V33.7004ZM2.8125 31.1649V6.31802C2.8125 4.84345 4.01215 3.6438 5.48672 3.6438H45.2446C46.7191 3.6438 47.9187 4.84345 47.9187 6.31802V31.1649C47.9187 32.0518 47.4657 32.8831 46.7385 33.3781C44.3359 32.3633 41.697 31.8016 38.9292 31.8016C35.7677 31.8016 32.7745 32.535 30.1096 33.8391H5.48672C4.01215 33.8391 2.8125 32.6395 2.8125 31.1649ZM18.9204 35.7141H27.0176C25.5234 36.8143 24.186 38.1152 23.0459 39.5774H18.9204V35.7141ZM10.3427 44.4993V42.9759C10.3427 42.1502 11.3239 41.4525 12.4853 41.4525H21.7465C21.1555 42.4177 20.6435 43.4363 20.2196 44.4993H10.3427ZM36.2559 50.4504C36.1579 50.6266 36.0782 50.8097 36.0172 50.9973L25.7651 50.9972C26.2477 44.1556 31.9672 38.7368 38.9292 38.7368C45.8916 38.7368 51.6111 44.1558 52.0936 50.9973H42.0211L45.0461 43.2077C45.2134 42.777 45.042 42.2888 44.6422 42.0572C44.2421 41.8254 43.7336 41.9197 43.4433 42.2789L37.9799 49.0351C37.2721 49.2647 36.6457 49.7506 36.2559 50.4504ZM40.6274 49.4069C40.5557 49.3586 40.482 49.3126 40.4055 49.27H40.4054C40.358 49.2436 40.3102 49.2187 40.2619 49.1951L41.1233 48.1298L40.6274 49.4069ZM39.9479 52.5069C39.6325 53.0733 38.9153 53.277 38.3488 52.9617C38.0746 52.8089 37.8763 52.5584 37.7903 52.2565C37.7043 51.9545 37.7412 51.637 37.894 51.3628C38.1089 50.9771 38.51 50.7595 38.923 50.7595C39.1164 50.7595 39.3124 50.8073 39.4931 50.9079C39.7673 51.0607 39.9657 51.3111 40.0516 51.6132C40.1375 51.9152 40.1006 52.2327 39.9479 52.5069Z" fill="#266BFF"/>
</svg>
