<svg width="60" height="60" viewBox="0 0 60 60" fill="none" xmlns="http://www.w3.org/2000/svg">
<g clip-path="url(#clip0_10_39)">
<path d="M56.129 14.5236H54.8722C55.9951 13.2711 56.7313 11.7202 56.9917 10.0583C57.2522 8.39637 57.0258 6.6946 56.34 5.15857C55.6541 3.62255 54.5381 2.31801 53.1268 1.40258C51.7155 0.487146 50.0693 0 48.3871 0C46.7049 0 45.0587 0.487146 43.6474 1.40258C42.2361 2.31801 41.1201 3.62255 40.4342 5.15857C39.7484 6.6946 39.522 8.39637 39.7825 10.0583C40.0429 11.7202 40.7791 13.2711 41.902 14.5236H30V4.84622C30 4.58956 29.898 4.34341 29.7166 4.16193C29.5351 3.98044 29.2889 3.87848 29.0323 3.87848H25.1613C24.9046 3.87848 24.6585 3.98044 24.477 4.16193C24.2955 4.34341 24.1935 4.58956 24.1935 4.84622V14.5236H23.2258V0.975257C23.2258 0.718596 23.1238 0.472447 22.9424 0.29096C22.7609 0.109473 22.5147 0.00751515 22.2581 0.00751515H18.3871C18.1304 0.00751515 17.8843 0.109473 17.7028 0.29096C17.5213 0.472447 17.4194 0.718596 17.4194 0.975257V14.5236H16.4516V7.74945C16.4516 7.49279 16.3497 7.24664 16.1682 7.06515C15.9867 6.88367 15.7405 6.78171 15.4839 6.78171H11.6129C11.3562 6.78171 11.1101 6.88367 10.9286 7.06515C10.7471 7.24664 10.6452 7.49279 10.6452 7.74945V14.5236H3.87097C2.84468 14.5248 1.86075 14.933 1.13505 15.6587C0.409356 16.3844 0.00115263 17.3683 0 18.3946V47.4269C0.00115263 48.4532 0.409356 49.4371 1.13505 50.1628C1.86075 50.8885 2.84468 51.2967 3.87097 51.2978H23.8185L22.5278 55.1688H19.3548C19.0982 55.1688 18.852 55.2708 18.6705 55.4522C18.4891 55.6337 18.3871 55.8799 18.3871 56.1365V58.072H8.70968C8.45302 58.072 8.20687 58.174 8.02538 58.3555C7.84389 58.537 7.74194 58.7831 7.74194 59.0398C7.74194 59.2964 7.84389 59.5426 8.02538 59.7241C8.20687 59.9056 8.45302 60.0075 8.70968 60.0075H51.2903C51.547 60.0075 51.7931 59.9056 51.9746 59.7241C52.1561 59.5426 52.2581 59.2964 52.2581 59.0398C52.2581 58.7831 52.1561 58.537 51.9746 58.3555C51.7931 58.174 51.547 58.072 51.2903 58.072H41.6129V56.1365C41.6129 55.8799 41.5109 55.6337 41.3295 55.4522C41.148 55.2708 40.9018 55.1688 40.6452 55.1688H37.4722L36.1814 51.2978H56.129C57.1553 51.2967 58.1392 50.8885 58.8649 50.1628C59.5906 49.4371 59.9988 48.4532 60 47.4269V18.3946C59.9988 17.3683 59.5906 16.3844 58.8649 15.6587C58.1392 14.933 57.1553 14.5248 56.129 14.5236ZM49.3548 2.01316C50.8012 2.22421 52.1407 2.89651 53.1742 3.93004C54.2078 4.96358 54.8801 6.30313 55.0911 7.74945H49.3548V2.01316ZM48.7875 9.68493H55.0911C54.924 10.8478 54.4571 11.9471 53.7363 12.8749C53.0156 13.8026 52.0658 14.5269 50.9804 14.9763C49.895 15.4258 48.7113 15.5851 47.5456 15.4385C46.38 15.2919 45.2726 14.8444 44.3323 14.1402L48.7875 9.68493ZM41.6129 8.71719C41.6152 7.08895 42.203 5.51584 43.269 4.28506C44.335 3.05427 45.8081 2.24791 47.4194 2.01316V8.31679L42.9641 12.772C42.0857 11.6028 41.6114 10.1796 41.6129 8.71719ZM26.129 5.81397H28.0645V24.2011H26.129V5.81397ZM23.2258 16.4591H24.1935V24.2011H23.2258V16.4591ZM19.3548 1.943H21.2903V24.2011H19.3548V1.943ZM16.4516 16.4591H17.4194V24.2011H16.4516V16.4591ZM12.5806 8.71719H14.5161V24.2011H12.5806V8.71719ZM39.6774 57.1043V58.072H20.3226V57.1043H39.6774ZM24.5685 55.1688L25.8593 51.2978H34.1407L35.4314 55.1688H24.5685ZM58.0645 47.4269C58.0638 47.94 57.8597 48.4319 57.4969 48.7947C57.1341 49.1576 56.6421 49.3617 56.129 49.3624H3.87097C3.35785 49.3617 2.86594 49.1576 2.50312 48.7947C2.14029 48.4319 1.93616 47.94 1.93548 47.4269V45.4914H58.0645V47.4269ZM58.0645 43.5559H1.93548V18.3946C1.93616 17.8815 2.14029 17.3896 2.50312 17.0268C2.86594 16.6639 3.35785 16.4598 3.87097 16.4591H10.6452V24.2011H9.67742V18.3946C9.67742 18.1379 9.57546 17.8918 9.39397 17.7103C9.21249 17.5288 8.96634 17.4269 8.70968 17.4269H4.83871C4.58205 17.4269 4.3359 17.5288 4.15441 17.7103C3.97293 17.8918 3.87097 18.1379 3.87097 18.3946V25.1688C3.87097 25.4255 3.97293 25.6716 4.15441 25.8531C4.3359 26.0346 4.58205 26.1365 4.83871 26.1365H35.8064C36.0631 26.1365 36.3093 26.0346 36.4907 25.8531C36.6722 25.6716 36.7742 25.4255 36.7742 25.1688V18.3946C36.7742 18.1379 36.6722 17.8918 36.4907 17.7103C36.3093 17.5288 36.0631 17.4269 35.8064 17.4269H31.9355C31.6788 17.4269 31.4327 17.5288 31.2512 17.7103C31.0697 17.8918 30.9677 18.1379 30.9677 18.3946V24.2011H30V16.4591H44.4048C45.6359 17.095 47.0014 17.4269 48.3871 17.4269C49.7727 17.4269 51.1382 17.095 52.3694 16.4591H56.129C56.6421 16.4598 57.1341 16.6639 57.4969 17.0268C57.8597 17.3896 58.0638 17.8815 58.0645 18.3946V43.5559ZM7.74194 19.3624V24.2011H5.80645V19.3624H7.74194ZM32.9032 24.2011V19.3624H34.8387V24.2011H32.9032Z" fill="#256BFE"/>
<path d="M10.6452 46.4591H4.83871C4.58205 46.4591 4.3359 46.5611 4.15441 46.7426C3.97293 46.924 3.87097 47.1702 3.87097 47.4269C3.87097 47.6835 3.97293 47.9297 4.15441 48.1112C4.3359 48.2926 4.58205 48.3946 4.83871 48.3946H10.6452C10.9018 48.3946 11.148 48.2926 11.3295 48.1112C11.5109 47.9297 11.6129 47.6835 11.6129 47.4269C11.6129 47.1702 11.5109 46.924 11.3295 46.7426C11.148 46.5611 10.9018 46.4591 10.6452 46.4591Z" fill="#256BFE"/>
<path d="M14.5161 46.4591H13.5484C13.2917 46.4591 13.0456 46.5611 12.8641 46.7426C12.6826 46.924 12.5806 47.1702 12.5806 47.4269C12.5806 47.6835 12.6826 47.9297 12.8641 48.1112C13.0456 48.2926 13.2917 48.3946 13.5484 48.3946H14.5161C14.7728 48.3946 15.0189 48.2926 15.2004 48.1112C15.3819 47.9297 15.4839 47.6835 15.4839 47.4269C15.4839 47.1702 15.3819 46.924 15.2004 46.7426C15.0189 46.5611 14.7728 46.4591 14.5161 46.4591Z" fill="#256BFE"/>
<path d="M40.6452 24.2011C40.7723 24.2013 40.8982 24.1763 41.0156 24.1277C41.133 24.0791 41.2397 24.0077 41.3295 23.9177L44.9169 20.3301H53.2258C53.4825 20.3301 53.7286 20.2282 53.9101 20.0467C54.0916 19.8652 54.1935 19.6191 54.1935 19.3624C54.1935 19.1057 54.0916 18.8596 53.9101 18.6781C53.7286 18.4966 53.4825 18.3947 53.2258 18.3947H44.5161C44.389 18.3946 44.2632 18.4197 44.1458 18.4683C44.0284 18.5169 43.9217 18.5882 43.8318 18.6781L39.9608 22.549C39.8255 22.6844 39.7333 22.8568 39.696 23.0446C39.6586 23.2323 39.6778 23.4269 39.7511 23.6037C39.8243 23.7805 39.9483 23.9317 40.1075 24.038C40.2666 24.1444 40.4538 24.2011 40.6452 24.2011Z" fill="#256BFE"/>
<path d="M53.2258 34.8462C52.7172 34.8466 52.2177 34.9805 51.7772 35.2346C51.3367 35.4887 50.9706 35.8541 50.7157 36.2942L40.5847 30.3837C40.4474 29.7242 40.0851 29.133 39.5598 28.7113C39.0345 28.2896 38.3789 28.0637 37.7054 28.0722C37.0318 28.0808 36.3822 28.3234 35.8678 28.7583C35.3534 29.1932 35.0063 29.7935 34.8859 30.4563L24.6907 38.1026C24.4134 37.6755 24.0285 37.329 23.5747 37.0978C23.1209 36.8666 22.6143 36.759 22.1057 36.7857C21.5971 36.8124 21.1046 36.9726 20.6775 37.25C20.2505 37.5275 19.904 37.9125 19.673 38.3664L9.59637 34.1676C9.43738 33.5046 9.05027 32.9188 8.50281 32.5125C7.95535 32.1063 7.28244 31.9056 6.60189 31.9455C5.92134 31.9854 5.27652 32.2635 4.78033 32.731C4.28415 33.1984 3.96821 33.8256 3.88784 34.5025C3.80748 35.1795 3.9678 35.8632 4.34074 36.4338C4.71369 37.0045 5.27548 37.4258 5.92777 37.624C6.58005 37.8221 7.28126 37.7845 7.90861 37.5177C8.53597 37.251 9.04949 36.772 9.35927 36.1647L19.4359 40.3635C19.5915 41.011 19.9649 41.5853 20.4936 41.9901C21.0223 42.3949 21.6741 42.6056 22.3398 42.5868C23.0054 42.5681 23.6443 42.3211 24.1495 41.8873C24.6546 41.4534 24.9952 40.859 25.1141 40.2039L35.3093 32.5575C35.5794 32.9736 35.9516 33.3134 36.3906 33.5445C36.8295 33.7756 37.3203 33.8903 37.8162 33.8775C38.3121 33.8648 38.7964 33.7251 39.2229 33.4717C39.6493 33.2184 40.0037 32.8599 40.252 32.4305L50.3831 38.341C50.4949 38.8783 50.7567 39.3729 51.1382 39.7675C51.5197 40.162 52.0053 40.4404 52.5385 40.5702C53.0718 40.7001 53.6309 40.6761 54.1511 40.5011C54.6713 40.3261 55.1313 40.0072 55.4776 39.5814C55.8239 39.1557 56.0425 38.6404 56.1079 38.0955C56.1733 37.5506 56.083 36.9983 55.8473 36.5026C55.6116 36.007 55.2402 35.5883 54.7762 35.2951C54.3122 35.0019 53.7746 34.8463 53.2258 34.8462ZM7.74194 34.851C7.74129 35.1081 7.63863 35.3545 7.4565 35.5359C7.27437 35.7174 7.02766 35.8191 6.77057 35.8188C6.51347 35.8185 6.26702 35.7161 6.08534 35.5342C5.90366 35.3523 5.80162 35.1057 5.80162 34.8486C5.80162 34.5915 5.90366 34.3449 6.08534 34.163C6.26702 33.9811 6.51347 33.8788 6.77057 33.8785C7.02766 33.8781 7.27437 33.9799 7.4565 34.1613C7.63863 34.3428 7.74129 34.5891 7.74194 34.8462V34.851ZM22.2581 40.6526C22.0015 40.6523 21.7556 40.5502 21.5742 40.3688C21.3927 40.1874 21.2907 39.9415 21.2903 39.6849V39.6801C21.2913 39.4889 21.3488 39.3022 21.4558 39.1437C21.5627 38.9852 21.7141 38.8619 21.8911 38.7894C22.068 38.7169 22.2624 38.6985 22.4498 38.7364C22.6372 38.7742 22.8092 38.8668 22.9441 39.0023C23.0789 39.1378 23.1706 39.3103 23.2075 39.4979C23.2445 39.6855 23.2251 39.8798 23.1517 40.0564C23.0783 40.2329 22.9542 40.3838 22.7952 40.4899C22.6362 40.596 22.4493 40.6526 22.2581 40.6526ZM37.7419 31.943C37.5505 31.943 37.3634 31.8862 37.2043 31.7799C37.0451 31.6735 36.9211 31.5224 36.8479 31.3456C36.7746 31.1687 36.7554 30.9742 36.7928 30.7864C36.8301 30.5987 36.9223 30.4263 37.0576 30.2909C37.193 30.1556 37.3654 30.0634 37.5531 30.0261C37.7409 29.9887 37.9354 30.0079 38.1123 30.0812C38.2891 30.1544 38.4402 30.2784 38.5466 30.4376C38.6529 30.5967 38.7097 30.7838 38.7097 30.9752C38.7093 31.2318 38.6072 31.4777 38.4258 31.6591C38.2444 31.8405 37.9985 31.9426 37.7419 31.943ZM53.2258 38.7172C53.0344 38.7172 52.8473 38.6604 52.6882 38.5541C52.529 38.4477 52.405 38.2966 52.3317 38.1198C52.2585 37.9429 52.2393 37.7483 52.2767 37.5606C52.314 37.3729 52.4062 37.2005 52.5415 37.0651C52.6768 36.9298 52.8493 36.8376 53.037 36.8003C53.2247 36.7629 53.4193 36.7821 53.5961 36.8553C53.773 36.9286 53.9241 37.0526 54.0305 37.2118C54.1368 37.3709 54.1935 37.558 54.1935 37.7494C54.1932 38.006 54.0911 38.2519 53.9097 38.4333C53.7283 38.6147 53.4824 38.7168 53.2258 38.7172Z" fill="#256BFE"/>
<path d="M45.4839 40.6526H38.7097C38.453 40.6526 38.2069 40.7546 38.0254 40.936C37.8439 41.1175 37.7419 41.3637 37.7419 41.6203C37.7419 41.877 37.8439 42.1232 38.0254 42.3046C38.2069 42.4861 38.453 42.5881 38.7097 42.5881H45.4839C45.7405 42.5881 45.9867 42.4861 46.1682 42.3046C46.3497 42.1232 46.4516 41.877 46.4516 41.6203C46.4516 41.3637 46.3497 41.1175 46.1682 40.936C45.9867 40.7546 45.7405 40.6526 45.4839 40.6526Z" fill="#256BFE"/>
<path d="M45.4839 37.7495H42.5806C42.324 37.7495 42.0778 37.8514 41.8963 38.0329C41.7149 38.2144 41.6129 38.4606 41.6129 38.7172C41.6129 38.9739 41.7149 39.22 41.8963 39.4015C42.0778 39.583 42.324 39.685 42.5806 39.685H45.4839C45.7405 39.685 45.9867 39.583 46.1682 39.4015C46.3497 39.22 46.4516 38.9739 46.4516 38.7172C46.4516 38.4606 46.3497 38.2144 46.1682 38.0329C45.9867 37.8514 45.7405 37.7495 45.4839 37.7495Z" fill="#256BFE"/>
<path d="M4.83871 29.0398H15.4839C15.7405 29.0398 15.9867 28.9378 16.1682 28.7563C16.3497 28.5748 16.4516 28.3287 16.4516 28.072C16.4516 27.8154 16.3497 27.5692 16.1682 27.3877C15.9867 27.2063 15.7405 27.1043 15.4839 27.1043H4.83871C4.58205 27.1043 4.3359 27.2063 4.15441 27.3877C3.97293 27.5692 3.87097 27.8154 3.87097 28.072C3.87097 28.3287 3.97293 28.5748 4.15441 28.7563C4.3359 28.9378 4.58205 29.0398 4.83871 29.0398Z" fill="#256BFE"/>
<path d="M18.3871 29.0398H19.3548C19.6115 29.0398 19.8577 28.9378 20.0391 28.7563C20.2206 28.5748 20.3226 28.3287 20.3226 28.072C20.3226 27.8154 20.2206 27.5692 20.0391 27.3877C19.8577 27.2063 19.6115 27.1043 19.3548 27.1043H18.3871C18.1304 27.1043 17.8843 27.2063 17.7028 27.3877C17.5213 27.5692 17.4194 27.8154 17.4194 28.072C17.4194 28.3287 17.5213 28.5748 17.7028 28.7563C17.8843 28.9378 18.1304 29.0398 18.3871 29.0398Z" fill="#256BFE"/>
</g>
<defs>
<clipPath id="clip0_10_39">
<rect width="60" height="60" fill="white"/>
</clipPath>
</defs>
</svg>
