<svg width="60" height="60" viewBox="0 0 60 60" fill="none" xmlns="http://www.w3.org/2000/svg">
<path d="M59.1797 10.0605H53.3496C53.1504 5.24297 49.1695 1.38399 44.3039 1.38399C39.4359 1.38399 35.4539 5.24297 35.2547 10.0605H6.67031C6.2168 10.0605 5.85 10.4273 5.85 10.8809V22.0488H4.04297C1.81406 22.0488 0 23.8629 0 26.0918C0 28.323 1.81406 30.1383 4.04297 30.1383H4.14609V35.3801C4.14609 35.8336 4.51289 36.2004 4.96641 36.2004H5.85V41.3027V46.432C5.85 48.102 7.20937 49.4613 8.8793 49.4613H25.3359V53.3777H22.6652C21.2215 53.3777 20.0473 54.5531 20.0473 55.9992V57.7969C20.0473 58.2504 20.4141 58.6172 20.8676 58.6172H44.9848C45.4383 58.6172 45.8051 58.2504 45.8051 57.7969V55.9992C45.8051 54.5543 44.6297 53.3777 43.1836 53.3777H40.5129V49.4613H56.9695C58.6395 49.4613 59.9988 48.102 59.9988 46.432V41.3027V10.8809C60 10.4285 59.632 10.0605 59.1797 10.0605ZM44.3039 3.02461C48.3926 3.02461 51.7184 6.35039 51.7184 10.4391C51.7184 10.5586 51.7148 10.6781 51.709 10.7965C51.7078 10.8117 51.7078 10.8281 51.7066 10.8434C51.4957 14.7457 48.2566 17.8559 44.3039 17.8559C40.3488 17.8559 37.1074 14.7445 36.8977 10.8398C36.8965 10.8258 36.8965 10.8117 36.8953 10.7977C36.8895 10.6781 36.8859 10.5586 36.8859 10.4379C36.8859 6.35157 40.2141 3.02461 44.3039 3.02461ZM1.6418 26.0918C1.6418 24.7676 2.71875 23.6906 4.04297 23.6906H7.55391V28.4977H4.04297C2.71875 28.4965 1.6418 27.4184 1.6418 26.0918ZM16.9512 32.7855C16.9512 32.7844 16.9512 32.7832 16.9512 32.782V19.4051C16.9512 19.4039 16.9512 19.4027 16.9512 19.4016V17.8969C16.9512 17.5066 17.2688 17.1891 17.659 17.1891C18.0492 17.1891 18.3668 17.5066 18.3668 17.8969V34.2867C18.3668 34.6781 18.0492 34.9981 17.659 34.9981C17.2688 34.9981 16.9512 34.6793 16.9512 34.2867V32.7855ZM15.3105 31.5059L9.19453 28.7848V23.4023L15.3105 20.6813V31.5059ZM5.78672 30.1383H7.55391V34.5598H5.78672V30.1383ZM8.37422 36.2004C8.82773 36.2004 9.19453 35.8336 9.19453 35.3801V30.5813L15.3105 33.3023V34.2879C15.3105 35.5852 16.3641 36.6398 17.659 36.6398C18.9539 36.6398 20.0074 35.5852 20.0074 34.2879V29.5359C21.573 29.1738 22.7449 27.7688 22.7449 26.093C22.7449 24.4184 21.573 23.0145 20.0074 22.6535V17.8981C20.0074 16.6031 18.9539 15.5496 17.659 15.5496C16.3641 15.5496 15.3105 16.6031 15.3105 17.8981V18.8859L8.19961 22.05H7.49062V11.7023H35.3344C35.9508 16.1016 39.7371 19.4988 44.3027 19.4988C48.8672 19.4988 52.6523 16.1016 53.2687 11.7023H58.3582V40.4824H7.49062V36.2004H8.37422ZM20.0074 24.3785C20.6531 24.6797 21.1031 25.3336 21.1031 26.0918C21.1031 26.8512 20.6531 27.5063 20.0074 27.8074V24.3785ZM44.1645 55.9981V56.9742H21.6891V55.9981C21.6891 55.4578 22.1273 55.0184 22.6652 55.0184H43.1848C43.725 55.0184 44.1645 55.4578 44.1645 55.9981ZM38.8723 53.3777H26.9766V49.4613H38.8723V53.3777ZM56.9707 47.8195H8.8793C8.11406 47.8195 7.49062 47.1961 7.49062 46.4309V42.1231H58.3582V46.4309C58.3582 47.1973 57.7359 47.8195 56.9707 47.8195ZM29.7574 44.973C29.7574 45.4266 29.3906 45.7934 28.9371 45.7934H11.202C10.7484 45.7934 10.3816 45.4266 10.3816 44.973C10.3816 44.5195 10.7484 44.1527 11.202 44.1527H28.9371C29.3906 44.1527 29.7574 44.5195 29.7574 44.973ZM35.3344 44.973C35.3344 45.4266 34.9676 45.7934 34.5141 45.7934H33.1289C32.6754 45.7934 32.3086 45.4266 32.3086 44.973C32.3086 44.5195 32.6754 44.1527 33.1289 44.1527H34.5141C34.9676 44.1527 35.3344 44.5195 35.3344 44.973ZM23.3414 23.4176C23.0203 23.0977 23.0203 22.5785 23.3402 22.2574L24.9844 20.6098C25.3043 20.2887 25.8234 20.2887 26.1445 20.6086C26.4656 20.9285 26.4656 21.4477 26.1457 21.7688L24.5016 23.4164C24.341 23.577 24.1312 23.6578 23.9203 23.6578C23.7117 23.6566 23.502 23.577 23.3414 23.4176ZM26.1457 30.7008C26.4656 31.0207 26.4656 31.541 26.1457 31.8609C25.9852 32.0215 25.7754 32.1012 25.5656 32.1012C25.3559 32.1012 25.1461 32.0215 24.9855 31.8609L23.3414 30.2168C23.0215 29.8969 23.0215 29.3766 23.3414 29.0566C23.6613 28.7367 24.1816 28.7367 24.5016 29.0566L26.1457 30.7008ZM24.423 25.2715H29.1363C29.5898 25.2715 29.9566 25.6383 29.9566 26.0918C29.9566 26.5453 29.5898 26.9121 29.1363 26.9121H24.423C23.9695 26.9121 23.6027 26.5453 23.6027 26.0918C23.6027 25.6383 23.9695 25.2715 24.423 25.2715ZM42.9984 12.5625C42.9984 12.109 42.6316 11.7422 42.1781 11.7422C41.7246 11.7422 41.3578 12.109 41.3578 12.5625C41.3578 13.902 42.2566 15.0352 43.4836 15.3914V16.1063C43.4836 16.5598 43.8504 16.9266 44.3039 16.9266C44.7574 16.9266 45.1242 16.5598 45.1242 16.1063V15.3914C46.3488 15.0352 47.2465 13.902 47.2465 12.5625C47.2465 11.2242 46.3488 10.0934 45.1242 9.73711V7.30664C45.4184 7.54571 45.6059 7.90899 45.6059 8.3168C45.6059 8.77032 45.9727 9.13711 46.4262 9.13711C46.8797 9.13711 47.2465 8.77032 47.2465 8.3168C47.2465 6.97852 46.3488 5.84649 45.1242 5.49141V4.77305C45.1242 4.31953 44.7574 3.95274 44.3039 3.95274C43.8504 3.95274 43.4836 4.31953 43.4836 4.77305V5.49141C42.2566 5.84766 41.3578 6.97969 41.3578 8.31797C41.3578 9.65625 42.2566 10.7883 43.4836 11.1445V13.5773C43.1883 13.3359 42.9984 12.9715 42.9984 12.5625ZM45.6059 12.5625C45.6059 12.9703 45.4172 13.3359 45.1242 13.575V11.5523C45.4184 11.7914 45.6059 12.1547 45.6059 12.5625ZM42.9984 8.3168C42.9984 7.90899 43.1883 7.54453 43.4836 7.30547V9.32813C43.1883 9.08907 42.9984 8.72461 42.9984 8.3168ZM37.6934 37.5492H51.2766C53.4984 37.5492 55.3055 35.7422 55.3055 33.5203V26.3648C55.3055 24.143 53.4984 22.3359 51.2766 22.3359H37.6934C35.4715 22.3359 33.6645 24.143 33.6645 26.3648V33.5203C33.6645 35.741 35.4715 37.5492 37.6934 37.5492ZM35.3051 26.3637C35.3051 25.0465 36.3762 23.9754 37.6934 23.9754H51.2766C52.5938 23.9754 53.6648 25.0465 53.6648 26.3637V33.5191C53.6648 34.8363 52.5938 35.9074 51.2766 35.9074H37.6934C36.3762 35.9074 35.3051 34.8363 35.3051 33.5191V26.3637ZM41.8113 34.2105C41.9379 34.2832 42.0797 34.3207 42.2215 34.3207C42.3633 34.3207 42.5051 34.2844 42.6316 34.2105L48.7898 30.6527C49.0441 30.5063 49.2 30.2355 49.2 29.9426C49.2 29.6496 49.0441 29.3789 48.7898 29.2324L42.6316 25.6746C42.3773 25.5281 42.0645 25.5281 41.8113 25.6746C41.5582 25.8211 41.4012 26.0918 41.4012 26.3848V33.5004C41.4012 33.7934 41.557 34.0641 41.8113 34.2105ZM43.0418 27.8063L46.7402 29.9426L43.0418 32.0789V27.8063Z" fill="#256BFE"/>
</svg>
