<svg width="60" height="60" viewBox="0 0 60 60" fill="none" xmlns="http://www.w3.org/2000/svg">
<g clip-path="url(#clip0_1_15)">
<path d="M22.5 12.2091H20.625C20.1075 12.2091 19.6875 11.7881 19.6875 11.2716H17.8125C17.8125 12.8222 19.0744 14.0841 20.625 14.0841H22.5C24.0506 14.0841 25.3125 12.8222 25.3125 11.2716C25.3125 9.72094 24.0506 8.45906 22.5 8.45906H20.625C20.1075 8.45906 19.6875 8.03812 19.6875 7.52156C19.6875 7.005 20.1075 6.58406 20.625 6.58406H22.5C23.0175 6.58406 23.4375 7.005 23.4375 7.52156H25.3125C25.3125 5.97094 24.0506 4.70906 22.5 4.70906H20.625C19.0744 4.70906 17.8125 5.97094 17.8125 7.52156C17.8125 9.07219 19.0744 10.3341 20.625 10.3341H22.5C23.0175 10.3341 23.4375 10.755 23.4375 11.2716C23.4375 11.7881 23.0175 12.2091 22.5 12.2091Z" fill="#256BFE"/>
<path d="M30 14.0841H32.8125V12.2091H30C29.4825 12.2091 29.0625 11.7881 29.0625 11.2716V10.3341H32.8125V8.45906H29.0625V7.52156C29.0625 7.005 29.4825 6.58406 30 6.58406H32.8125V4.70906H30C28.4494 4.70906 27.1875 5.97094 27.1875 7.52156V11.2716C27.1875 12.8222 28.4494 14.0841 30 14.0841Z" fill="#256BFE"/>
<path d="M37.5 14.0841H39.375C40.9256 14.0841 42.1875 12.8222 42.1875 11.2716V7.52156C42.1875 5.97094 40.9256 4.70906 39.375 4.70906H37.5C35.9494 4.70906 34.6875 5.97094 34.6875 7.52156V11.2716C34.6875 12.8222 35.9494 14.0841 37.5 14.0841ZM36.5625 7.52156C36.5625 7.005 36.9825 6.58406 37.5 6.58406H39.375C39.8925 6.58406 40.3125 7.005 40.3125 7.52156V11.2716C40.3125 11.7881 39.8925 12.2091 39.375 12.2091H37.5C36.9825 12.2091 36.5625 11.7881 36.5625 11.2716V7.52156Z" fill="#256BFE"/>
<path d="M59.0625 21.5625H55.3125V18.75C55.3125 16.1653 53.2097 14.0625 50.625 14.0625H45.9375V3.77156C45.9375 2.22094 44.6756 0.959061 43.125 0.959061H16.875C15.3244 0.959061 14.0625 2.22094 14.0625 3.77156V14.0625H9.375C6.79031 14.0625 4.6875 16.1653 4.6875 18.75V24.4519C2.44969 25.7512 0.9375 28.1691 0.9375 30.9375C0.9375 33.7059 2.44969 36.1237 4.6875 37.4231V45C4.6875 47.5847 6.79031 49.6875 9.375 49.6875H20.625V53.4375H19.6875C17.1028 53.4375 15 55.5403 15 58.125V59.0625H45V58.125C45 55.5403 42.8972 53.4375 40.3125 53.4375H39.375V49.6875H50.625C53.2097 49.6875 55.3125 47.5847 55.3125 45V38.4375H59.0625V21.5625ZM15.9375 3.77156C15.9375 3.255 16.3575 2.83406 16.875 2.83406H43.125C43.6425 2.83406 44.0625 3.255 44.0625 3.77156V15.0216C44.0625 15.5381 43.6425 15.9591 43.125 15.9591H33.4669L27.9684 19.6041C27.6563 19.8141 27.1875 19.5609 27.1875 19.1841V15.9591H16.875C16.3575 15.9591 15.9375 15.5381 15.9375 15.0216V3.77156ZM6.5625 18.75C6.5625 17.1994 7.82437 15.9375 9.375 15.9375H14.2284C14.6109 17.0372 15.6459 17.8341 16.875 17.8341H25.3125V19.1841C25.3125 20.4956 26.3794 21.5625 27.6909 21.5625C28.1597 21.5625 28.6134 21.4256 29.0044 21.1669L34.0322 17.8341H43.125C44.3531 17.8341 45.3891 17.0372 45.7716 15.9375H50.625C52.1756 15.9375 53.4375 17.1994 53.4375 18.75V21.5625H45.9375V30H40.3125V25.3125H34.6875V36.5625H32.8125V23.4375H27.1875V36.5625H25.3125V27.1875H19.6875V30H15.8728C15.4087 26.3062 12.255 23.4375 8.4375 23.4375C7.78875 23.4375 7.16344 23.5284 6.5625 23.6841V18.75ZM36.5625 36.5625V27.1875H38.4375V36.5625H36.5625ZM30.9375 36.5625H29.0625V25.3125H30.9375V36.5625ZM23.4375 36.5625H21.5625V29.0625H23.4375V36.5625ZM2.8125 30.9375C2.8125 27.8353 5.33531 25.3125 8.4375 25.3125C11.5397 25.3125 14.0625 27.8353 14.0625 30.9375C14.0625 34.0397 11.5397 36.5625 8.4375 36.5625C5.33531 36.5625 2.8125 34.0397 2.8125 30.9375ZM42.9647 57.1875H17.0353C17.4225 56.0962 18.465 55.3125 19.6875 55.3125H40.3125C41.535 55.3125 42.5775 56.0962 42.9647 57.1875ZM37.5 53.4375H22.5V49.6875H37.5V53.4375ZM50.625 47.8125H9.375C7.82437 47.8125 6.5625 46.5506 6.5625 45V42.1875H53.4375V45C53.4375 46.5506 52.1756 47.8125 50.625 47.8125ZM53.4375 40.3125H6.5625V38.1909C7.16344 38.3466 7.78875 38.4375 8.4375 38.4375C12.255 38.4375 15.4087 35.5687 15.8728 31.875H19.6875V36.5625H17.8125V38.4375H42.1875V36.5625H40.3125V31.875H45.9375V38.4375H53.4375V40.3125ZM57.1875 36.5625H47.8125V23.4375H57.1875V36.5625Z" fill="#256BFE"/>
<path d="M26.25 45.9375C26.7678 45.9375 27.1875 45.5178 27.1875 45C27.1875 44.4822 26.7678 44.0625 26.25 44.0625C25.7322 44.0625 25.3125 44.4822 25.3125 45C25.3125 45.5178 25.7322 45.9375 26.25 45.9375Z" fill="#256BFE"/>
<path d="M30 45.9375C30.5178 45.9375 30.9375 45.5178 30.9375 45C30.9375 44.4822 30.5178 44.0625 30 44.0625C29.4822 44.0625 29.0625 44.4822 29.0625 45C29.0625 45.5178 29.4822 45.9375 30 45.9375Z" fill="#256BFE"/>
<path d="M33.75 45.9375C34.2678 45.9375 34.6875 45.5178 34.6875 45C34.6875 44.4822 34.2678 44.0625 33.75 44.0625C33.2322 44.0625 32.8125 44.4822 32.8125 45C32.8125 45.5178 33.2322 45.9375 33.75 45.9375Z" fill="#256BFE"/>
<path d="M12.1875 30.9375C12.1875 28.8694 10.5056 27.1875 8.4375 27.1875C6.36937 27.1875 4.6875 28.8694 4.6875 30.9375C4.6875 33.0056 6.36937 34.6875 8.4375 34.6875C10.5056 34.6875 12.1875 33.0056 12.1875 30.9375ZM6.5625 30.9375C6.5625 29.9034 7.40344 29.0625 8.4375 29.0625C9.47156 29.0625 10.3125 29.9034 10.3125 30.9375C10.3125 31.9716 9.47156 32.8125 8.4375 32.8125C7.40344 32.8125 6.5625 31.9716 6.5625 30.9375Z" fill="#256BFE"/>
<path d="M49.6875 25.3125H55.3125V27.1875H49.6875V25.3125Z" fill="#256BFE"/>
<path d="M49.6875 29.0625H55.3125V30.9375H49.6875V29.0625Z" fill="#256BFE"/>
<path d="M49.6875 32.8125H55.3125V34.6875H49.6875V32.8125Z" fill="#256BFE"/>
</g>
<defs>
<clipPath id="clip0_1_15">
<rect width="60" height="60" fill="white"/>
</clipPath>
</defs>
</svg>
