<svg width="60" height="60" viewBox="0 0 60 60" fill="none" xmlns="http://www.w3.org/2000/svg">
<g clip-path="url(#clip0_8_29)">
<path d="M46.062 17.825H47.4627V23.3535C47.4627 23.8339 47.852 24.2232 48.3325 24.2232C48.8129 24.2232 49.2022 23.8339 49.2022 23.3535V17.825H50.6028C51.0833 17.825 51.4726 17.4357 51.4726 16.9552C51.4726 16.4748 51.0833 16.0855 50.6028 16.0855H49.2022V13.5586C49.2022 13.0729 49.5972 12.6779 50.0829 12.6779H52.1438C52.6242 12.6779 53.0135 12.2886 53.0135 11.8082C53.0135 11.3278 52.6242 10.9385 52.1438 10.9385H50.0829C48.6382 10.9385 47.4627 12.1139 47.4627 13.5586V16.0855H46.062C45.5815 16.0855 45.1922 16.4748 45.1922 16.9552C45.1922 17.4357 45.5817 17.825 46.062 17.825ZM30.3128 4.72664C30.7931 4.72664 31.1826 4.33723 31.1826 3.8569C31.1826 3.37657 30.7931 2.98716 30.3128 2.98716C29.8325 2.98716 29.4431 3.37657 29.4431 3.8569C29.4431 4.33723 29.8324 4.72664 30.3128 4.72664ZM11.5226 19.8386C12.9612 19.8386 14.1318 18.668 14.1318 17.2294C14.1318 15.7907 12.9612 14.6201 11.5226 14.6201C10.0839 14.6201 8.91334 15.7907 8.91334 17.2294C8.91334 18.668 10.0839 19.8386 11.5226 19.8386ZM11.5226 16.3596C12.0022 16.3596 12.3923 16.7497 12.3923 17.2294C12.3923 17.709 12.0022 18.0991 11.5226 18.0991C11.0429 18.0991 10.6528 17.709 10.6528 17.2294C10.6528 16.7497 11.0431 16.3596 11.5226 16.3596ZM15.0015 23.3175C16.4402 23.3175 17.6108 22.147 17.6108 20.7083V13.7504C17.6108 12.3117 16.4402 11.1412 15.0015 11.1412H8.0436C6.60493 11.1412 5.43438 12.3117 5.43438 13.7504V20.7083C5.43438 22.147 6.60493 23.3175 8.0436 23.3175H15.0015ZM7.17386 20.7083V13.7504C7.17386 13.2708 7.56397 12.8806 8.0436 12.8806H15.0015C15.4812 12.8806 15.8713 13.2708 15.8713 13.7504V20.7083C15.8713 21.188 15.4812 21.5781 15.0015 21.5781H8.0436C7.56409 21.5781 7.17386 21.1878 7.17386 20.7083ZM16.7937 36.2011C16.3714 35.8835 15.8126 35.8301 15.3349 36.0615C15.2178 36.1182 15.0948 36.1611 14.9692 36.1893C14.8159 36.2235 14.6598 36.2362 14.5025 36.2266C13.99 35.7556 13.3378 35.4736 12.6331 35.4246C11.8117 35.3665 11.0157 35.6336 10.3936 36.1744C9.81985 36.6735 9.45548 37.3594 9.35888 38.1025C8.34685 37.9393 7.41971 37.4271 6.73597 36.636C6.45545 36.3111 6.02082 36.166 5.60276 36.2565C5.18679 36.3465 4.85385 36.6564 4.73383 37.0648C4.44125 38.0587 3.82373 41.1037 6.39399 43.1337C5.90346 43.2833 5.34404 43.2721 5.05795 43.7689C4.80005 44.2167 4.93793 44.7443 5.04311 45.019C5.2486 45.5555 5.78483 45.9416 6.63659 46.1667C7.1015 46.2896 7.70916 46.3691 8.39394 46.3691C9.9822 46.369 11.9836 45.9414 13.5697 44.637C15.1504 43.3369 15.7968 41.5645 16.0575 40.2196C16.4633 39.7572 16.7847 39.2352 17.0147 38.6644C17.1585 38.3073 17.2644 37.9334 17.3297 37.5529C17.4184 37.0343 17.2131 36.5163 16.7937 36.2011ZM14.6217 39.2114C14.4986 39.3387 14.417 39.5003 14.3882 39.6751C14.2107 40.7502 13.7329 42.2507 12.4648 43.2935C10.9316 44.5543 8.77361 44.7314 7.53254 44.5716C7.94666 44.3997 8.34361 44.1864 8.71307 43.9355C8.97434 43.7582 9.11907 43.4532 9.091 43.1386C9.06294 42.8241 8.86649 42.5495 8.57786 42.4211C6.4122 41.4585 6.07103 39.8199 6.20555 38.5347C7.33134 39.4466 8.74856 39.9375 10.2255 39.896C10.6969 39.8838 11.0727 39.4981 11.0727 39.0266V38.532C11.0727 38.5282 11.0727 38.5242 11.0726 38.5203C11.0673 38.1237 11.2359 37.7469 11.5352 37.4867C11.8065 37.2507 12.1533 37.135 12.5121 37.1595C12.8708 37.1846 13.1983 37.3478 13.4341 37.619C13.5607 37.7644 13.7316 37.8636 13.9206 37.9013C14.4354 38.0037 14.9564 37.9904 15.4595 37.86C15.2819 38.3656 14.9971 38.824 14.6217 39.2114ZM49.1029 29.9966C49.0823 29.9966 49.0619 29.9974 49.0413 29.9975V28.1256C49.0619 28.1257 49.0823 28.1264 49.1029 28.1264C55.1116 28.1264 60 23.2381 60 17.2294C60 11.1962 55.0722 6.2989 49.0413 6.33311V5.50837C49.0413 2.47111 46.5701 0 43.5329 0H17.0927C14.0555 0 11.5844 2.47111 11.5844 5.50837V6.33311C9.45363 6.3207 7.38619 6.92384 5.60543 8.07735C5.20221 8.3385 5.08706 8.87705 5.34822 9.28015C5.60949 9.68336 6.14791 9.79851 6.55101 9.53736C8.03108 8.57855 9.75027 8.07178 11.5226 8.07178C16.5721 8.07178 20.6801 12.1799 20.6801 17.2294C20.6801 22.2788 16.5721 26.3869 11.5226 26.3869C6.47308 26.3869 2.365 22.2788 2.365 17.2294C2.365 15.3987 2.9032 13.6321 3.92114 12.1206C4.18937 11.7221 4.08396 11.1817 3.68562 10.9134C3.28716 10.6453 2.74676 10.7506 2.47842 11.1489C1.26634 12.9487 0.625518 15.0512 0.625518 17.2294C0.625518 23.238 5.51381 28.1264 11.5226 28.1264C11.5432 28.1264 11.5636 28.1257 11.5843 28.1256V30.019C11.3569 30.0047 11.1278 29.9967 10.8969 29.9967C4.8883 29.9966 0 34.885 0 40.8936C0 46.9023 4.8883 51.7908 10.8971 51.7908C11.1279 51.7908 11.357 51.7827 11.5844 51.7685V53.866C11.5844 56.9033 14.0555 59.3744 17.0927 59.3744H43.5329C46.5701 59.3744 49.0413 56.9033 49.0413 53.866V51.7901C49.0619 51.7902 49.0823 51.7909 49.1029 51.7909C55.1116 51.7909 60 46.9025 60 40.8938C60 34.885 55.1116 29.9966 49.1029 29.9966ZM49.1029 8.07178C54.1524 8.07178 58.2605 12.1799 58.2605 17.2294C58.2605 22.2788 54.1524 26.3869 49.1029 26.3869C44.0535 26.3869 39.9454 22.2788 39.9454 17.2294C39.9454 12.1799 44.0535 8.07178 49.1029 8.07178ZM47.3018 27.9766V30.1443C46.7071 30.2424 46.1258 30.3891 45.5623 30.5815V27.5353C46.1229 27.7285 46.7042 27.8769 47.3018 27.9766ZM15.0633 6.08808V6.92314C14.5027 6.72995 13.9214 6.58174 13.3239 6.4819V5.50825C13.3239 3.43003 15.0145 1.73937 17.0927 1.73937H43.5329C45.6111 1.73937 47.3018 3.43003 47.3018 5.50825V6.4819C46.7042 6.58174 46.123 6.72995 45.5623 6.92314V6.08808C45.5623 4.64941 44.3917 3.47885 42.9531 3.47885H39.7582C38.7671 3.47885 37.9607 4.28516 37.9607 5.27632C37.9607 5.66121 37.6475 5.97443 37.2625 5.97443H23.363C22.9781 5.97443 22.6648 5.66132 22.6648 5.27632C22.6648 4.79564 22.478 4.34419 22.1363 4.00267C21.796 3.66498 21.3454 3.47885 20.8673 3.47885H17.6725C16.2338 3.47885 15.0633 4.64941 15.0633 6.08808ZM13.3239 27.9766C13.9214 27.8767 14.5027 27.7285 15.0633 27.5353V30.825C14.5052 30.5932 13.924 30.4063 13.3239 30.2693V27.9766ZM10.8971 50.0513C5.84756 50.0513 1.73948 45.9432 1.73948 40.8936C1.73948 35.8442 5.84756 31.7361 10.8971 31.7361C15.9465 31.7361 20.0546 35.8442 20.0546 40.8936C20.0546 46.231 15.8415 50.0513 10.8971 50.0513ZM47.3018 53.8659C47.3018 55.9441 45.6111 57.6348 43.5329 57.6348H17.0927C15.0145 57.6348 13.3239 55.9441 13.3239 53.8659V51.5181C13.924 51.3811 14.5052 51.194 15.0633 50.9622V53.2861C15.0633 54.7247 16.2339 55.8953 17.6726 55.8953H42.9531C44.3917 55.8953 45.5623 54.7247 45.5623 53.2861V51.1998C46.123 51.393 46.7042 51.5413 47.3018 51.6411V53.8659ZM49.1029 50.0513C44.0535 50.0513 39.9454 45.9432 39.9454 40.8936C39.9454 40.1089 40.0445 39.33 40.2404 38.5784C40.3615 38.1135 40.0828 37.6386 39.618 37.5175C39.1531 37.3962 38.6782 37.6751 38.5572 38.1399C38.3241 39.0346 38.206 39.961 38.206 40.8936C38.206 44.9878 40.4759 48.5612 43.8229 50.4231V53.2861C43.8229 53.7657 43.4328 54.1558 42.9532 54.1558H17.6727C17.1931 54.1558 16.8029 53.7657 16.8029 53.2861V50.0475C19.8041 48.1045 21.7942 44.7272 21.7942 40.8936C21.7942 37.0601 19.8041 33.6828 16.8029 31.7398V26.7586C20.1499 24.8967 22.4199 21.3233 22.4199 17.2292C22.4199 13.1352 20.1499 9.56183 16.8029 7.69988V6.08808C16.8029 5.60844 17.1931 5.21834 17.6727 5.21834H20.8675C20.8839 5.21834 20.8986 5.22471 20.9088 5.23503C20.9238 5.24988 20.9255 5.26577 20.9255 5.27632C20.9255 6.62036 22.0191 7.71392 23.3632 7.71392H37.2627C38.6069 7.71392 39.7005 6.62036 39.7005 5.27632C39.7005 5.24443 39.7266 5.21834 39.7584 5.21834H42.9533C43.4329 5.21834 43.823 5.60844 43.823 6.08808V7.69988C40.476 9.56183 38.2061 13.1352 38.2061 17.2292C38.2061 21.3258 40.4788 24.9011 43.8292 26.7621C43.8255 26.7949 43.823 26.8282 43.823 26.862V31.3533C42.5405 32.0644 41.3981 33.0396 40.4685 34.2453C40.1752 34.6257 40.2458 35.1718 40.6262 35.4652C41.0068 35.7586 41.5527 35.6881 41.8461 35.3075C43.5959 33.0369 46.2035 31.7361 49.1032 31.7361C54.1527 31.7361 58.2607 35.8442 58.2607 40.8936C58.2605 45.9432 54.1524 50.0513 49.1029 50.0513ZM33.5 29.3995C33.0894 29.1505 32.5545 29.2811 32.3051 29.6916C32.1439 29.957 31.9167 30.1845 31.6559 30.3532C31.4046 30.5158 31.0774 30.5204 30.8218 30.3652L29.5201 29.575C29.2605 29.4175 29.1186 29.1149 29.1479 28.8082C29.1769 28.5055 29.2757 28.208 29.4336 27.9482C29.6829 27.5375 29.5522 27.0027 29.1417 26.7533C28.7313 26.5039 28.1962 26.6345 27.9468 27.0451C27.6536 27.5279 27.4702 28.0803 27.416 28.6457L27.4144 28.6632C27.3225 29.6209 27.7946 30.5623 28.6171 31.062L29.9188 31.8522C30.3191 32.0953 30.774 32.2165 31.2287 32.2165C31.7081 32.2165 32.1873 32.0818 32.6015 31.8133C33.0815 31.5023 33.4954 31.0833 33.792 30.5945C34.0413 30.1836 33.9105 29.6488 33.5 29.3995ZM53.6795 39.961L47.5811 36.4384C46.7923 35.974 45.7644 36.5776 45.7713 37.4832V44.5287C45.7631 45.4322 46.7986 46.0351 47.581 45.5735L53.6794 42.051C54.468 41.604 54.4651 40.4059 53.6795 39.961ZM47.5106 43.6054V38.4065L52.0108 41.006L47.5106 43.6054ZM30.1016 21.8113C26.0597 21.9173 22.6984 25.1599 22.4495 29.1934C22.386 30.2206 22.5195 31.2324 22.8459 32.2012L21.9198 34.8358C21.7481 35.3243 21.8689 35.855 22.2349 36.2212C22.6009 36.5871 23.1318 36.7079 23.6201 36.5362L25.4569 35.8907C26.898 37.0204 28.6999 37.6124 30.5309 37.5628C34.7408 37.4487 38.1774 33.9276 38.1914 29.714C38.1986 27.5651 37.3562 25.5545 35.8194 24.0525C34.283 22.5508 32.2513 21.7536 30.1016 21.8113ZM30.4837 35.8239C29.0475 35.8604 27.6402 35.3966 26.517 34.5114C26.2102 34.2693 25.8407 34.1435 25.4666 34.1435C25.28 34.1435 25.0922 34.1748 24.9106 34.2387L23.8412 34.6146L24.4938 32.7583C24.6181 32.4047 24.6208 32.0167 24.501 31.6658C24.2417 30.9051 24.1356 30.1093 24.1854 29.3006C24.3794 26.1585 26.9981 23.6326 30.147 23.5499C31.8235 23.5045 33.4061 24.1263 34.6033 25.2964C35.8008 26.4668 36.4571 28.0336 36.4516 29.7079C36.4408 32.9914 33.7635 35.7349 30.4837 35.8239Z" fill="#256BFE"/>
</g>
<defs>
<clipPath id="clip0_8_29">
<rect width="60" height="60" fill="white"/>
</clipPath>
</defs>
</svg>
