<svg width="60" height="60" viewBox="0 0 60 60" fill="none" xmlns="http://www.w3.org/2000/svg">
<path d="M48.0262 1.77334C46.4492 1.70046 44.6858 2.1961 42.8596 3.2468C37.0157 6.61637 32.2757 14.8122 32.2938 21.5177C32.2998 24.8192 33.4432 27.2987 35.513 28.4973L37.9946 29.9397C38.6391 30.3565 39.3776 30.6359 40.2005 30.76C40.5098 30.8065 40.8269 30.8289 41.1518 30.8289C42.3789 30.8289 43.707 30.481 45.0672 29.8346C45.1383 29.8824 45.2012 29.9224 45.2999 29.9931C48.6578 32.3894 51.2333 35.722 52.55 39.3802C53.933 43.2211 53.9433 47.5092 52.5775 51.1455C52.02 52.6379 51.36 53.5952 50.4992 54.1596C49.261 54.9778 47.6333 54.9476 46.2081 54.8093C44.5761 54.6565 43.0346 54.3544 41.6016 53.9269C43.2558 52.5289 44.5903 50.8229 45.386 48.8482C45.3949 48.8265 45.3997 48.8029 45.4084 48.781C45.5536 48.4143 45.6843 48.0404 45.791 47.6557C45.7922 47.6515 45.795 47.6479 45.7962 47.6436C46.3863 46.0193 46.2779 44.2726 45.4687 42.3771C45.4622 42.3616 45.4547 42.346 45.4481 42.3306C45.1558 41.6547 44.7738 40.9606 44.302 40.2453C44.2775 40.208 44.2513 40.1707 44.2262 40.1333C44.0723 39.9039 43.897 39.669 43.7247 39.4353C43.515 39.1509 43.2901 38.8616 43.0526 38.5702C42.919 38.4064 42.79 38.2433 42.6476 38.0773C42.2565 37.6209 41.8408 37.1591 41.3827 36.6849C40.8053 36.12 40.222 35.5731 39.6335 35.0425C39.0467 34.5138 38.4556 34.0013 37.8585 33.507C34.2698 30.5356 30.4965 28.1894 26.5964 26.5085C25.0747 25.8552 23.5272 25.3706 21.9795 25.0592H21.9778C21.4623 24.9555 20.9467 24.8712 20.432 24.8059H20.4303C19.4002 24.6752 18.372 24.6212 17.3558 24.6456C16.3391 24.6701 15.3335 24.7726 14.3451 24.9541C13.6519 25.0817 12.9807 25.2417 12.3323 25.4349C12.3305 25.4354 12.3288 25.4361 12.3271 25.4366C11.6806 25.6294 11.0571 25.8551 10.4573 26.1121C10.4556 26.1129 10.4537 26.1132 10.4521 26.1139C10.1531 26.2421 9.86016 26.3783 9.57318 26.5223C9.57158 26.5231 9.56961 26.5232 9.56801 26.524C9.28111 26.6681 8.99992 26.8209 8.7253 26.9807C8.61479 27.045 8.50978 27.1156 8.40131 27.1823C8.23858 27.2826 8.07346 27.3798 7.91532 27.4857L7.9136 27.4874C7.83947 27.537 7.76957 27.5916 7.69646 27.6425C7.51043 27.772 7.32256 27.9013 7.14326 28.0388C6.85854 28.2569 6.58848 28.4883 6.33329 28.7299C6.07827 28.9716 5.83889 29.2237 5.61466 29.4865L5.61293 29.4882C5.3893 29.7504 5.18073 30.0226 4.98908 30.3033L4.98736 30.305C4.79579 30.5858 4.62169 30.8753 4.46346 31.1719L4.46174 31.1736C4.30357 31.4703 4.16299 31.7752 4.03952 32.0853L4.03779 32.087C3.91439 32.3971 3.80979 32.7139 3.72242 33.0348L3.7207 33.0366C3.66393 33.246 3.62887 33.461 3.588 33.6742C3.56616 33.7874 3.53291 33.8978 3.51562 34.012V34.0154C3.46592 34.3443 3.43362 34.6769 3.42256 35.0115C3.41497 35.2402 3.41901 35.4649 3.42945 35.6853C3.43131 35.7249 3.43734 35.7632 3.43979 35.8025C3.4509 35.9794 3.4647 36.1549 3.48805 36.3281C3.49551 36.3838 3.5069 36.4383 3.51562 36.4936C3.54014 36.6481 3.56704 36.8027 3.60179 36.9554C3.6193 37.0328 3.642 37.1095 3.66211 37.1864C3.6931 37.3043 3.7247 37.422 3.76206 37.5397C3.77307 37.5744 3.7798 37.6101 3.79136 37.6448C3.80194 37.6764 3.82162 37.7096 3.83272 37.7413C3.94277 38.0567 4.07461 38.3753 4.23253 38.696C4.31844 38.8696 4.43618 39.0546 4.53757 39.2337C4.65511 39.4413 4.75269 39.6435 4.89085 39.8576C4.91821 39.9 4.95274 39.9426 4.98046 39.9851C5.34602 40.549 5.7391 41.1135 6.15579 41.6653C6.17043 41.6848 6.18244 41.7045 6.19715 41.7239C6.3958 41.9867 6.60448 42.2459 6.8141 42.5046C6.85828 42.5592 6.89868 42.6156 6.94336 42.6701L6.94508 42.6718C8.48187 44.5445 10.3113 46.3108 12.4046 47.9418L12.4081 47.9435C12.7561 48.2146 13.1106 48.4813 13.4731 48.7448H13.4748L16.0478 50.6181C16.6734 51.0739 17.2433 51.5125 17.778 51.9451C18.368 52.4242 18.9212 52.9019 19.4376 53.3841C20.1405 54.04 20.8131 54.6251 21.4505 55.1367C21.7687 55.3924 22.0785 55.6284 22.3811 55.8485L22.3828 55.8502C22.4775 55.919 22.5671 55.9744 22.6603 56.0398C22.8649 56.1834 23.0711 56.3316 23.2686 56.4585H23.2703C23.5579 56.6434 23.8368 56.8102 24.1096 56.96H24.1113C24.3841 57.1098 24.649 57.243 24.9075 57.3581H24.9092C25.1676 57.4732 25.4195 57.5721 25.6641 57.6528H25.6658C25.9103 57.7334 26.1481 57.7975 26.3792 57.8441C26.8773 57.9669 27.3925 58.0573 27.9182 58.1216C27.9535 58.1259 27.9879 58.133 28.0233 58.1371H28.025C28.3058 58.1692 28.5895 58.1935 28.8764 58.2095H28.8781C29.1647 58.2254 29.4568 58.2335 29.7484 58.2336H29.7501C30.1605 58.2335 30.5755 58.218 30.9926 58.1871C34.4508 57.931 38.0745 56.6179 40.9208 54.4612C42.5293 54.9821 44.2839 55.3386 46.1426 55.5124C46.607 55.5577 47.093 55.5917 47.5833 55.5917C48.725 55.5917 49.8917 55.4073 50.8869 54.7507C51.8779 54.1006 52.6249 53.033 53.2376 51.3936C54.6611 47.6031 54.6533 43.1384 53.2135 39.1424C51.8659 35.3963 49.2443 31.9827 45.7789 29.4727C45.8551 29.4307 45.9302 29.4011 46.0064 29.3572C48.0296 28.1914 49.9943 26.4068 51.6866 24.1975C54.7636 20.1804 56.5921 15.2783 56.5809 11.0846C56.5714 7.77898 55.4285 5.30156 53.3634 4.1033C53.3591 4.10081 53.3556 4.09717 53.3513 4.09468C53.3464 4.09185 53.3408 4.09061 53.3358 4.08779L50.6353 2.51955C49.8511 2.06491 48.9724 1.81707 48.0262 1.77334ZM47.7177 2.47302C48.6587 2.47302 49.5238 2.69145 50.2821 3.13133L50.6646 3.35365C50.4011 3.34511 50.133 3.35726 49.8616 3.3795C49.8031 3.38434 49.7447 3.39044 49.6858 3.39673C49.3921 3.42776 49.095 3.47159 48.7931 3.53804C48.7651 3.54423 48.7367 3.55396 48.7086 3.56045C48.4294 3.62478 48.1462 3.70564 47.8608 3.79999C47.7951 3.8217 47.7303 3.84219 47.6643 3.86548C47.3812 3.96545 47.0945 4.08277 46.8061 4.21187C46.4035 4.39196 45.9978 4.59232 45.5877 4.82883C39.7412 8.19625 35.0011 16.3938 35.0201 23.1015C35.0216 23.5933 35.0504 24.0636 35.1011 24.5163C35.1026 24.5299 35.103 24.5441 35.1045 24.5577C35.154 24.9863 35.2279 25.3938 35.32 25.7847C35.3329 25.8396 35.3441 25.8961 35.3579 25.9502C35.3844 26.0545 35.4145 26.1554 35.444 26.2569C35.4756 26.3649 35.5073 26.4727 35.5423 26.5775C35.5803 26.6916 35.6226 26.8017 35.6646 26.9118C35.6923 26.984 35.7196 27.0567 35.7491 27.1272C35.8052 27.2623 35.8643 27.3934 35.9266 27.5218C35.9478 27.5654 35.9701 27.6083 35.9921 27.6511C36.0652 27.7946 36.142 27.9335 36.223 28.0681C36.2301 28.0799 36.2365 28.0927 36.2437 28.1043L35.868 27.8855C34.024 26.8179 33.0055 24.556 33.0003 21.516C32.9822 15.0362 37.5629 7.11528 43.2112 3.85859C44.8096 2.93875 46.3451 2.47302 47.7177 2.47302ZM50.5836 4.06366C50.6552 4.06534 50.7249 4.07148 50.7956 4.07573C50.9927 4.08755 51.1868 4.10764 51.3764 4.13949C51.4493 4.15177 51.5218 4.16559 51.5935 4.18085C51.7825 4.22097 51.9663 4.27344 52.1467 4.33423C52.2063 4.35435 52.2674 4.37044 52.3259 4.39282C52.5609 4.48235 52.7902 4.58744 53.0084 4.71337C54.8481 5.7797 55.8666 8.04149 55.8743 11.0863C55.8864 15.1297 54.1113 19.8706 51.1265 23.7684C49.4902 25.9045 47.5971 27.6261 45.6549 28.7454C43.7428 29.8458 41.8954 30.2994 40.3056 30.0621C39.6527 29.9637 39.0623 29.7465 38.5357 29.4313C38.3324 29.3093 38.1375 29.1756 37.955 29.0246C37.9334 29.0067 37.9142 28.986 37.8929 28.9677C37.7374 28.8344 37.5914 28.6875 37.4517 28.5334C37.408 28.485 37.363 28.4375 37.3208 28.387C37.1765 28.2149 37.0412 28.032 36.9158 27.8372C36.8786 27.7794 36.8444 27.7178 36.8089 27.658C36.7153 27.5005 36.6288 27.3358 36.547 27.1651C36.5131 27.0944 36.4771 27.0261 36.4453 26.9531C36.3506 26.7361 36.2648 26.5085 36.1885 26.2724C36.1602 26.1848 36.1368 26.0937 36.111 26.0036C36.0739 25.8736 36.0427 25.7372 36.011 25.602C35.9456 25.3244 35.8932 25.0343 35.8508 24.7352C35.8343 24.6177 35.8154 24.5025 35.8025 24.3819C35.7621 24.0078 35.7383 23.6188 35.7336 23.2152C35.7332 23.1756 35.7285 23.1396 35.7284 23.0997C35.7137 17.8353 38.7347 11.6171 42.8975 7.72405C43.8585 6.82594 44.8798 6.05084 45.9392 5.44062C46.308 5.22807 46.6727 5.04614 47.0335 4.88225C47.1635 4.82328 47.2908 4.77807 47.4196 4.72543C47.6509 4.63075 47.8804 4.54111 48.1072 4.46693C48.2488 4.42063 48.388 4.38113 48.5277 4.34285C48.7357 4.28579 48.9414 4.23731 49.1446 4.19808C49.2904 4.16994 49.4358 4.14466 49.5789 4.1257C49.7779 4.09938 49.9733 4.08594 50.1666 4.07745C50.3061 4.07132 50.4473 4.06049 50.5836 4.06366ZM48.9689 8.21003C47.9389 8.16156 46.7902 8.48335 45.6049 9.16649H45.6032C41.8411 11.3349 38.7908 16.6066 38.8028 20.9197C38.8097 23.0765 39.5637 24.6977 40.9277 25.4831C41.4999 25.8131 42.147 25.976 42.8441 25.976C43.8195 25.976 44.894 25.655 45.9995 25.0178C49.7599 22.8511 52.8093 17.5768 52.7981 13.2612C52.7912 11.1031 52.039 9.48272 50.6767 8.69774C50.162 8.40127 49.5868 8.23912 48.9689 8.21003ZM48.8775 8.91488C49.4062 8.93173 49.893 9.06201 50.3234 9.30953C51.4582 9.96311 52.0864 11.3672 52.0916 13.2629C52.1028 17.3532 49.2119 22.3522 45.6463 24.406C43.9798 25.3677 42.4296 25.5322 41.281 24.8713C40.1445 24.2165 39.5146 22.8124 39.5094 20.918C39.4974 16.8306 42.3891 11.8338 45.9565 9.77828C47.0002 9.17672 47.9964 8.8868 48.8775 8.91488ZM45.8651 13.2215C45.8383 13.2246 45.8086 13.2345 45.7772 13.2525C45.7145 13.2887 45.6616 13.3438 45.6204 13.418C45.5792 13.4922 45.5599 13.565 45.5601 13.6368L45.5618 14.2228C45.2159 14.4552 44.9213 14.7218 44.676 15.0259C44.4307 15.3285 44.2479 15.6388 44.1245 15.9547C44.0024 16.2714 43.9393 16.5757 43.9401 16.8647C43.9411 17.1939 44.0166 17.423 44.1676 17.5506C44.3187 17.6781 44.5086 17.7348 44.7346 17.7212C44.9606 17.7091 45.2392 17.6561 45.5704 17.5661L45.5773 19.4893C45.1447 19.717 44.7307 19.8432 44.3365 19.8702C44.2926 19.8725 44.2446 19.8875 44.1969 19.915C44.1091 19.9656 44.0394 20.0427 43.9832 20.1442C43.9283 20.2464 43.8985 20.3457 43.8988 20.4406C43.899 20.5125 43.92 20.5686 43.9591 20.6095C43.9982 20.6518 44.0461 20.6706 44.1039 20.6647C44.5609 20.6245 45.0536 20.4718 45.579 20.208L45.5808 20.8025C45.581 20.8802 45.6013 20.93 45.6428 20.9507C45.6843 20.9715 45.7369 20.9645 45.7996 20.9283C45.8673 20.8893 45.9221 20.8325 45.9633 20.7612C46.0046 20.6899 46.0239 20.6176 46.0237 20.5457L46.0219 19.9529C46.3579 19.7377 46.6524 19.4861 46.9077 19.1964C47.1618 18.9074 47.3586 18.6016 47.4971 18.2813C47.6344 17.9631 47.703 17.6555 47.7022 17.3593C47.7012 16.997 47.6222 16.7521 47.4661 16.6217C47.31 16.4913 47.1163 16.4357 46.8853 16.458C46.6543 16.4788 46.3646 16.5422 46.0133 16.651L46.0082 14.6605C46.3881 14.4574 46.743 14.3308 47.0732 14.2745C47.1221 14.2679 47.1598 14.2566 47.1886 14.24C47.2764 14.1894 47.3469 14.1118 47.4006 14.0074C47.4543 13.9044 47.4801 13.8104 47.4799 13.7213C47.4794 13.5531 47.4116 13.4798 47.2748 13.5024C46.9045 13.5545 46.4812 13.7059 46.0047 13.9574L46.003 13.3818C46.0028 13.3099 45.9815 13.2604 45.9375 13.2353C45.9155 13.2228 45.8919 13.2185 45.8651 13.2215ZM45.5635 14.9414L45.5687 16.7802C45.2525 16.8674 45.0135 16.8924 44.8501 16.8526C44.6867 16.8128 44.6043 16.6697 44.6036 16.4252C44.6029 16.1679 44.6905 15.9105 44.8656 15.6497C45.0394 15.3912 45.2715 15.1543 45.5635 14.9414ZM46.7854 17.3317C46.9575 17.3521 47.045 17.4713 47.0456 17.6884C47.0473 18.2693 46.7059 18.7845 46.0202 19.2343L46.015 17.4368C46.3564 17.3467 46.612 17.3106 46.7854 17.3317ZM17.8401 25.347C18.1711 25.347 18.5033 25.3558 18.8362 25.3728C18.8546 25.3738 18.8729 25.3736 18.8913 25.3746H18.8948C18.9509 25.3776 19.0074 25.3848 19.0636 25.3883C21.4767 25.5394 23.9265 26.1308 26.3138 27.1582C30.7878 29.0838 35.1014 31.9086 39.1596 35.5647C39.7393 36.0874 40.3143 36.6266 40.8829 37.1829C41.3183 37.6324 41.7112 38.0702 42.0841 38.503C42.2243 38.6658 42.3509 38.8252 42.4822 38.9855C42.704 39.2564 42.9162 39.5242 43.1129 39.7886C43.2382 39.9569 43.3615 40.1245 43.4766 40.2901C43.6783 40.5805 43.8608 40.8657 44.0315 41.1483C44.1109 41.2799 44.2019 41.4149 44.2745 41.5447C44.2878 41.5685 44.2993 41.5916 44.3124 41.6154C44.4846 41.9279 44.6378 42.2362 44.7708 42.5391C44.7778 42.5549 44.7846 42.5715 44.7915 42.5873C45.2109 43.5562 45.4279 44.4765 45.4498 45.3567C45.0264 47.436 43.9385 48.7846 41.9514 50.6767C41.8691 50.755 41.7757 50.8276 41.6894 50.9042C41.4691 50.5516 40.987 49.7983 40.1626 48.576C41.6273 47.0613 40.6744 43.2372 37.8722 39.6404C34.9477 35.8861 31.2865 34.0141 29.533 35.3786C29.4779 35.4214 29.433 35.4753 29.383 35.5233C25.3457 31.5731 21.4532 28.8129 17.809 27.3306C17.6333 27.2582 17.4213 27.3448 17.3489 27.5253C17.2748 27.7058 17.3627 27.9118 17.5437 27.9854C21.123 29.4418 24.9634 32.1737 28.9608 36.0972C28.5999 36.8135 28.5509 37.8169 28.8298 39.0286C28.8302 39.0304 28.8295 39.032 28.8298 39.0338L28.8591 39.163V39.1648C28.8607 39.1712 28.861 39.1772 28.8626 39.1837C28.8666 39.1999 28.874 39.2175 28.8781 39.2337C28.98 39.6346 29.1135 40.0468 29.2779 40.4676C29.384 40.7389 29.5235 41.0171 29.6536 41.2931C29.7344 41.4645 29.7983 41.6324 29.888 41.8049C30.0586 42.1331 30.2609 42.462 30.4619 42.7907C30.538 42.9152 30.5987 43.0404 30.679 43.1647L30.6807 43.1664C30.9716 43.6162 31.2886 44.0637 31.6303 44.502L31.6337 44.5054C31.6536 44.5309 31.6758 44.5525 31.6958 44.5778C32.0018 44.9659 32.3175 45.3386 32.6436 45.6911C32.7753 45.8336 32.9112 45.9585 33.0451 46.0943C33.2615 46.3134 33.4775 46.5336 33.6983 46.7337C33.8687 46.8883 34.0397 47.0238 34.2119 47.1663C34.4001 47.3219 34.5866 47.4781 34.7754 47.6178C34.9735 47.7648 35.1702 47.8919 35.3682 48.021C35.471 48.0875 35.5745 48.1703 35.6767 48.2313L35.6801 48.233C35.7774 48.2945 35.8843 48.352 35.9886 48.4105C36.028 48.4324 36.0683 48.4636 36.1075 48.4846C36.1305 48.497 36.1518 48.5053 36.1747 48.5174C36.2261 48.5442 36.2883 48.57 36.3419 48.5966C37.1551 49.0009 37.9054 49.2153 38.5512 49.2153C38.9374 49.2153 39.2837 49.1374 39.5904 48.9913C40.4625 50.2839 40.9693 51.0811 41.1466 51.3661C40.4456 51.9205 39.6806 52.4264 38.9838 52.8723C33.4079 56.4366 26.0794 55.4577 21.5556 50.544C20.644 49.5531 19.7082 48.4092 18.7724 47.1404C16.7862 44.4955 14.8837 42.3693 13.1164 40.8192C11.9281 39.7774 10.6244 38.9726 9.23885 38.4289C7.84639 37.8826 6.85891 37.678 6.27642 37.6017C5.54893 37.5063 4.95675 37.3913 4.41176 37.2432C4.39582 37.1906 4.38151 37.1376 4.36695 37.0847C4.33867 36.9824 4.30906 36.8806 4.28596 36.7779C4.25916 36.6575 4.23865 36.5349 4.21875 36.4126C4.20878 36.3523 4.196 36.2923 4.18773 36.2316C4.13609 35.846 4.11659 35.4506 4.13086 35.0374C4.14044 34.7281 4.16781 34.4194 4.21358 34.1154C4.25983 33.8118 4.32399 33.5101 4.40487 33.2141V33.2123C4.48581 32.9163 4.58351 32.6248 4.69784 32.3386V32.3369C4.75113 32.2035 4.82017 32.0765 4.88051 31.9457C4.94961 31.7958 5.01254 31.6422 5.09076 31.4959C5.23722 31.2221 5.39943 30.9537 5.57674 30.6945L5.57847 30.6928C5.75585 30.4336 5.9488 30.182 6.15579 29.9397L6.15751 29.938C6.3651 29.6951 6.58663 29.4619 6.82272 29.2383C7.05898 29.0148 7.30877 28.8009 7.57238 28.5989H7.5741C8.05197 28.2327 8.55466 27.8957 9.08203 27.5891L9.08547 27.5873C9.34823 27.4346 9.61734 27.2891 9.892 27.1513C9.8936 27.1505 9.89557 27.1504 9.89717 27.1496C10.1719 27.0119 10.4518 26.881 10.7382 26.7584C10.7398 26.7577 10.7417 26.7574 10.7433 26.7567C11.0298 26.6341 11.3226 26.5194 11.6205 26.412C11.6222 26.4114 11.624 26.4109 11.6257 26.4103C12.2238 26.1949 12.8443 26.0107 13.4869 25.8571L13.4903 25.8554C13.8111 25.7788 14.1378 25.7114 14.4692 25.6503C15.5739 25.4469 16.7009 25.347 17.8401 25.347ZM30.9633 35.6302C32.6186 35.6302 35.22 37.3833 37.3156 40.073C39.9067 43.4003 40.92 47.1266 39.5284 48.2106C39.5247 48.2134 39.52 48.2147 39.5163 48.2175C39.5113 48.2205 39.5057 48.2211 39.5008 48.2244C39.498 48.2263 39.4967 48.2293 39.4939 48.2313C39.0496 48.5548 38.3752 48.5845 37.5638 48.3364C38.049 47.7388 38.318 46.8886 38.3255 45.8703V45.8686C38.3341 43.0332 36.3264 39.5594 33.8517 38.1256C32.5867 37.3914 31.3752 37.2863 30.4377 37.8274L29.4416 38.403C29.2605 37.2487 29.4285 36.3547 29.9673 35.9352C30.2335 35.728 30.5721 35.6302 30.9633 35.6302ZM4.72541 38.048C5.16488 38.147 5.63876 38.23 6.18508 38.3014C6.7288 38.3729 7.6551 38.5668 8.98035 39.0872C10.2901 39.6008 11.5249 40.3621 12.6511 41.35C14.3813 42.8678 16.2511 44.9574 18.2054 47.5609C19.155 48.8478 20.1071 50.0132 21.0369 51.0231C25.7907 56.1888 33.4993 57.2172 39.3647 53.4668C40.3685 52.8244 41.5171 52.0657 42.4374 51.1885C43.2507 50.4148 44.0056 49.6585 44.6312 48.8172C44.6247 48.8324 44.6171 48.8469 44.6105 48.862C44.4527 49.2237 44.2741 49.5748 44.0797 49.9167C44.0588 49.9536 44.0407 49.9921 44.0194 50.0287C43.9616 50.128 43.8906 50.219 43.8298 50.3165C43.65 50.6052 43.467 50.8912 43.2629 51.1644C43.1471 51.3194 43.0172 51.4643 42.8941 51.6142C42.7245 51.8207 42.5579 52.0293 42.3753 52.226L42.3736 52.2277C42.2373 52.3745 42.0894 52.5121 41.9462 52.6534C41.8213 52.7766 41.6952 52.898 41.5654 53.017C41.5003 53.0767 41.4404 53.1411 41.3741 53.1997C41.2088 53.3458 41.0346 53.4826 40.8622 53.6219C40.6768 53.7719 40.4917 53.9228 40.2987 54.0648C40.2941 54.0682 40.2896 54.0718 40.2849 54.0752C40.1163 54.1989 39.9418 54.316 39.7679 54.4336C39.5458 54.5837 39.3223 54.7314 39.0924 54.8713C38.9124 54.9808 38.7286 55.0836 38.5443 55.1867C38.3159 55.3145 38.0859 55.4394 37.8516 55.5572C37.652 55.6576 37.45 55.7537 37.2467 55.8468C37.0215 55.9498 36.795 56.0492 36.5659 56.1432C36.3542 56.23 36.1412 56.3124 35.9266 56.3913C35.6776 56.4829 35.4272 56.569 35.1752 56.6498C34.9778 56.7131 34.7795 56.7742 34.5807 56.8308C34.3144 56.9066 34.0473 56.974 33.7793 57.0376C33.5866 57.0833 33.3934 57.1292 33.2003 57.1686C32.9458 57.2204 32.6913 57.2624 32.4368 57.303C32.229 57.3361 32.022 57.3722 31.8147 57.3978C31.5673 57.4283 31.3214 57.4454 31.0754 57.465C30.8626 57.4819 30.649 57.5028 30.4377 57.5115C30.3224 57.5162 30.2096 57.511 30.0948 57.5132C29.961 57.5158 29.8279 57.5175 29.695 57.5167C29.4989 57.5155 29.3011 57.5201 29.1073 57.5115C28.7295 57.4947 28.3577 57.4607 27.9906 57.415C27.9338 57.4079 27.8747 57.4073 27.8182 57.3995C27.3805 57.3393 26.9514 57.2592 26.5343 57.1565H26.5326C26.0994 57.0687 25.6374 56.9149 25.1488 56.6946C24.9046 56.5846 24.6544 56.4557 24.3957 56.3121H24.394C23.6169 55.8805 22.7719 55.2976 21.8555 54.5577L21.8537 54.556C21.2423 54.0622 20.5985 53.4994 19.9201 52.8654C19.4297 52.4066 18.8992 51.9456 18.3209 51.4746C17.7427 51.0017 17.1265 50.5267 16.4631 50.0442L13.8902 48.1744H13.8884C13.1771 47.6574 12.4948 47.1245 11.8411 46.5786C9.87827 44.9392 8.17533 43.1698 6.76068 41.2983C6.33951 40.7408 5.94923 40.176 5.58364 39.6163C5.55262 39.5685 5.51768 39.521 5.48713 39.4732C5.35967 39.2745 5.26582 39.0926 5.15797 38.9028C5.08013 38.7656 4.99363 38.624 4.92532 38.4892C4.89079 38.4216 4.85739 38.3542 4.82536 38.2876C4.7862 38.206 4.76087 38.1284 4.72541 38.048ZM31.6854 38.1945C32.2313 38.1783 32.85 38.3592 33.4984 38.7357C35.7784 40.057 37.6275 43.2569 37.6189 45.8669C37.6121 46.8256 37.3468 47.5894 36.871 48.0538C36.7822 48.0135 36.6966 47.9825 36.6056 47.9366C36.5127 47.8897 36.4168 47.8414 36.3316 47.7936C36.3031 47.7778 36.2739 47.7564 36.2454 47.7401C36.2527 47.6832 36.2576 47.6266 36.2609 47.5712C36.2799 47.4011 36.2902 47.2218 36.2902 47.0422C36.2902 46.8235 36.2788 46.5993 36.2557 46.3718C36.1866 45.6892 36.0151 44.9746 35.7508 44.2728C35.5914 43.8359 35.438 43.4839 35.27 43.1733C34.896 42.4344 34.454 41.758 33.9499 41.1552C33.825 41.0118 33.6974 40.8674 33.5639 40.7244C33.4355 40.587 33.2985 40.4495 33.152 40.3125C32.7031 39.8933 32.2671 39.565 31.8181 39.3095C31.5856 39.1742 31.3559 39.0675 31.1271 38.9752C31.0689 38.9517 31.0109 38.9321 30.953 38.9114C30.757 38.8414 30.5625 38.7854 30.3705 38.7477C30.3451 38.7427 30.3183 38.7315 30.293 38.727L30.791 38.4375C31.0563 38.2844 31.3579 38.2043 31.6854 38.1945ZM29.6708 39.3957C30.214 39.3953 30.8295 39.5515 31.4648 39.9213C31.8681 40.151 32.2619 40.4469 32.6695 40.8278C32.8039 40.9536 32.9305 41.0803 33.0486 41.2069C33.177 41.3435 33.2968 41.4801 33.4122 41.6119C33.6444 41.89 33.8638 42.1874 34.0688 42.5012L34.0705 42.5029C34.275 42.8161 34.4655 43.1466 34.6392 43.4904C34.641 43.4939 34.6426 43.4972 34.6444 43.5007C34.8004 43.7885 34.94 44.1116 35.089 44.5192C35.413 45.3796 35.5836 46.2516 35.5836 47.0422C35.5836 47.1319 35.574 47.2238 35.5681 47.3145C35.542 47.2966 35.5167 47.2826 35.4906 47.2645C35.3456 47.1643 35.2 47.0497 35.0546 46.9388C34.863 46.7923 34.6711 46.6418 34.4807 46.4786C34.3391 46.3575 34.199 46.2312 34.0585 46.1012C33.851 45.909 33.6466 45.7062 33.4432 45.4963C33.3335 45.3832 33.2222 45.2747 33.1141 45.1568C32.7989 44.8126 32.4875 44.454 32.1904 44.0729C32.1891 44.0712 32.1882 44.0694 32.1869 44.0677C31.8728 43.6645 31.5822 43.2545 31.3132 42.8424C31.2205 42.7004 31.145 42.5573 31.0581 42.415C30.8912 42.1417 30.7238 41.869 30.579 41.5964C30.495 41.4382 30.4277 41.2831 30.3516 41.1259C30.2289 40.8728 30.1066 40.62 30.0052 40.3711C29.9361 40.2014 29.8828 40.0363 29.8242 39.8696C29.768 39.7099 29.7173 39.5522 29.6708 39.3957Z" fill="#256BFE"/>
</svg>
