<svg width="60" height="60" viewBox="0 0 60 60" fill="none" xmlns="http://www.w3.org/2000/svg">
<g clip-path="url(#clip0_8_34)">
<path fill-rule="evenodd" clip-rule="evenodd" d="M39.109 39.8828C38.3705 39.1794 37.245 40.2696 37.9836 41.0082L48.2181 51.2427C48.9215 51.9461 50.0469 50.8558 49.3083 50.1172L39.109 39.8828ZM55.5686 46.6354H48.4994L50.6448 48.7808C52.3329 50.4689 51.102 53.3177 48.7456 53.3177C48.5346 53.3177 48.2884 53.3177 48.0774 53.2474C45.721 53.9859 45.0176 54.7245 43.6108 56.272C41.6413 58.3822 39.9179 60.3165 36.5416 59.9648C30.8792 59.4021 26.4127 52.0868 31.3013 47.163L31.8288 46.6354H26.5533C26.3072 47.8664 25.5686 48.2532 24.6542 48.7456L25.3224 49.1325C26.5533 49.8359 26.9754 51.3834 26.272 52.6143L24.2321 56.1313C23.5287 57.3623 21.9461 57.7843 20.7503 57.0809L20.0821 56.694V57.4326C20.0821 58.8746 18.9566 60 17.5147 60H13.4701C12.0633 60 10.9027 58.8746 10.9027 57.4678V56.694C10.0586 57.1864 9.42556 57.6084 8.33529 57.3271C7.66706 57.1512 7.10434 56.7292 6.75264 56.1313L4.74795 52.6143C4.04455 51.3834 4.46659 49.8359 5.66237 49.1325L6.3306 48.7456C5.41618 48.2532 4.67761 47.8664 4.43142 46.6354C1.96952 46.6354 0 44.6307 0 42.204V4.43142C0 2.00469 2.00469 0 4.43142 0H55.5686C57.9953 0 60 2.00469 60 4.43142V42.2743C60 44.6307 57.9601 46.6354 55.5686 46.6354ZM48.7104 44.7714H55.5686C56.9402 44.7714 58.136 43.6108 58.136 42.2743V10.7972H1.86401V42.204C1.86401 43.6108 3.02462 44.7714 4.43142 44.7714H4.81829L6.75264 41.3599C7.45604 40.129 9.03869 39.7421 10.2696 40.4455L10.9027 40.7972V40.0586C10.9027 38.6518 12.0633 37.4912 13.4701 37.4912H17.5147C18.9215 37.4912 20.0821 38.6518 20.0821 40.0586V40.7972C20.9261 40.3048 21.5592 39.8828 22.6846 40.1641C23.3177 40.34 23.8804 40.762 24.2321 41.3599L26.2016 44.7714H33.8335C34.8183 43.7866 35.381 42.9777 35.9789 41.1489C35.7327 40.2345 35.9789 39.2497 36.6471 38.5815C37.7022 37.5264 39.3904 37.5264 40.4103 38.5815L43.0481 41.1841C45.6506 39.0387 49.5545 41.4654 48.7104 44.7714ZM34.9238 46.2837L32.6026 48.4994C27.714 53.4232 35.803 61.4771 40.6917 56.5885C42.6612 54.619 43.6811 52.966 46.2485 51.9109L37.2802 42.9777C36.6471 44.49 35.9086 45.3693 34.9238 46.2837ZM1.86401 8.89801H58.136V4.43142C58.136 3.02462 56.9754 1.86401 55.5686 1.86401H4.43142C3.02462 1.86401 1.86401 3.02462 1.86401 4.43142V8.89801ZM8.40563 6.3306H5.41618C4.15006 6.3306 4.15006 4.43142 5.38101 4.43142H8.37046C9.60141 4.43142 9.60141 6.3306 8.40563 6.3306ZM15.6858 6.3306H12.6612C11.4302 6.3306 11.4302 4.43142 12.6612 4.43142H15.6858C16.9168 4.43142 16.9168 6.3306 15.6858 6.3306ZM31.9695 17.0926H25.7093C24.4431 17.0926 24.4431 15.2286 25.7093 15.2286H31.9695C33.2005 15.2286 33.2005 17.0926 31.9695 17.0926ZM54.1266 21.2427H25.7093C24.4431 21.2427 24.4431 19.3787 25.7093 19.3787H54.1266C55.3576 19.3787 55.3576 21.2427 54.1266 21.2427ZM54.1266 17.0926H35.4162C34.1852 17.0926 34.1852 15.2286 35.4162 15.2286H54.1266C55.3576 15.2286 55.3576 17.0926 54.1266 17.0926ZM31.9695 29.0152H25.7093C24.4431 29.0152 24.4431 27.1512 25.7093 27.1512H31.9695C33.2005 27.1512 33.2005 29.0152 31.9695 29.0152ZM40.4807 33.1653H25.7093C24.4783 33.1653 24.4783 31.3013 25.7093 31.3013H40.4807C41.7468 31.3013 41.7468 33.1653 40.4807 33.1653ZM54.1266 29.0152H35.4162C34.1852 29.0152 34.1852 27.1512 35.4162 27.1512H54.1266C55.3576 27.1512 55.3576 29.0152 54.1266 29.0152ZM19.238 33.1653H8.15944C6.3306 33.1653 4.81829 31.6882 4.81829 29.8242V18.5698C4.81829 16.7057 6.3306 15.2286 8.15944 15.2286H19.238C21.0668 15.2286 22.5791 16.7057 22.5791 18.5698V29.8242C22.5791 31.6882 21.0668 33.1653 19.238 33.1653ZM8.15944 17.0926C7.35053 17.0926 6.6823 17.7608 6.6823 18.5698V29.8242C6.6823 30.6331 7.35053 31.3013 8.15944 31.3013H19.238C20.0469 31.3013 20.68 30.6331 20.68 29.8242V18.5698C20.68 17.7608 20.0469 17.0926 19.238 17.0926H8.15944ZM10.6565 29.5076C9.8476 29.5076 9.1442 28.8394 9.1442 27.9953V20.3986C9.1442 19.2028 10.4455 18.4642 11.4654 19.0973L17.5498 22.8957C18.4994 23.4936 18.4994 24.9004 17.5498 25.4982L11.4654 29.2966C11.2192 29.4373 10.9379 29.5076 10.6565 29.5076ZM11.0082 21.0317V27.3623L16.0727 24.197L11.0082 21.0317ZM49.1676 40.973C48.3587 40.973 47.9015 39.9883 48.4994 39.3904L50.3986 37.4912C51.2778 36.612 52.5791 37.9484 51.7351 38.8277L49.8359 40.6917C49.66 40.9027 49.4138 40.973 49.1676 40.973ZM11.3247 54.4431C11.6413 54.4431 12.8019 54.9355 12.8019 55.6741C12.8019 56.8347 12.5557 58.136 13.4701 58.136H17.5147C18.9566 58.136 17.5147 55.4982 18.7104 54.8652C19.9062 54.2321 19.5545 54.197 21.6647 55.4631C21.9812 55.6389 22.4033 55.5334 22.5791 55.2169L24.619 51.6999C25.3576 50.4338 22.2978 50.3634 22.3681 49.027C22.4385 47.6905 22.1923 48.007 24.3728 46.7409C24.6893 46.5651 24.83 46.143 24.619 45.8265L22.5791 42.3095C21.8757 41.0434 20.3283 43.646 19.1676 42.9426C18.007 42.204 18.2181 42.4853 18.2181 40.0586C18.2181 39.6717 17.9015 39.3904 17.5147 39.3904H13.4701C12.0281 39.3904 13.4701 42.0281 12.2743 42.6612C11.0785 43.2943 11.4302 43.2943 9.32005 42.0633C9.00352 41.8875 8.58148 41.993 8.40563 42.3095L6.36577 45.8265C5.66237 47.0574 8.68699 47.163 8.61665 48.4994C8.54631 49.8007 8.7925 49.5193 6.61196 50.7503C6.29543 50.9261 6.15475 51.3482 6.36577 51.6647L8.40563 55.2169C9.00352 56.272 10.3751 54.4431 11.3247 54.4431ZM15.51 53.9508C12.626 53.9508 10.3048 51.6295 10.3048 48.7456C10.3048 45.8617 12.626 43.5404 15.51 43.5404C18.3587 43.5404 20.7151 45.8617 20.7151 48.7456C20.7151 51.6295 18.3587 53.9508 15.51 53.9508ZM15.51 45.4045C13.646 45.4045 12.1688 46.9168 12.1688 48.7456C12.1688 50.6096 13.646 52.0868 15.51 52.0868C17.3388 52.0868 18.8511 50.6096 18.8511 48.7456C18.8511 46.9168 17.3388 45.4045 15.51 45.4045ZM46.2485 38.7222C45.721 38.7222 45.2989 38.3001 45.2989 37.7726V35.0996C45.2989 33.8687 47.1981 33.8687 47.1981 35.0996V37.7726C47.1981 38.3001 46.7761 38.7222 46.2485 38.7222ZM54.1266 43.8921H51.4537C50.2227 43.8921 50.2227 42.0281 51.4537 42.0281H54.1266C55.3576 42.0281 55.3576 43.8921 54.1266 43.8921ZM44.3845 42.5205L46.6706 44.8066C47.6553 43.3294 45.8617 41.5709 44.3845 42.5205Z" fill="#256BFE"/>
</g>
<defs>
<clipPath id="clip0_8_34">
<rect width="60" height="60" fill="white"/>
</clipPath>
</defs>
</svg>
