<svg width="60" height="60" viewBox="0 0 60 60" fill="none" xmlns="http://www.w3.org/2000/svg">
<path d="M6.98639 22.0307C6.6412 22.0307 6.31808 21.8974 6.07564 21.6553L4.29235 19.8636C4.04821 19.6258 3.91149 19.3014 3.91149 18.9566C3.91149 18.6119 4.04821 18.2875 4.29702 18.0455L4.78233 17.5657C4.55475 17.0935 4.3709 16.5925 4.23249 16.0694H3.46992C2.76509 16.0694 2.19189 15.492 2.19189 14.7829V12.2523C2.19189 11.5475 2.76509 10.9743 3.46992 10.9743H4.46431C4.62269 10.5429 4.81375 10.1294 5.03539 9.73873L4.28556 8.99654C3.78497 8.49382 3.78497 7.6803 4.28386 7.17928L6.07649 5.396C6.31129 5.15568 6.64417 5.01556 6.98682 5.01556H6.99531C7.34135 5.01811 7.66234 5.15568 7.89842 5.40449L8.75609 6.25537C9.12252 6.08214 9.49828 5.93438 9.87872 5.8138V4.57399C9.87872 3.86407 10.4523 3.28662 11.1572 3.28662H13.6873C14.3921 3.28662 14.9658 3.86407 14.9658 4.57399V5.81295C15.3632 5.93693 15.7368 6.08214 16.096 6.25282L16.9439 5.39769C17.4458 4.89752 18.2602 4.89752 18.7603 5.39685L20.195 6.83197C20.3649 7.0018 20.3649 7.27694 20.195 7.44678C20.0252 7.61661 19.7501 7.61661 19.5802 7.44678L18.1455 6.01166C17.9838 5.85031 17.7209 5.85031 17.56 6.01166L16.4917 7.08927C16.3567 7.22344 16.1491 7.25741 15.981 7.1674C15.4965 6.91349 14.9849 6.71393 14.4163 6.55853C14.2274 6.50673 14.0962 6.33519 14.0962 6.13903V4.57399C14.0962 4.34725 13.9089 4.15619 13.6873 4.15619H11.1572C10.9317 4.15619 10.7483 4.34386 10.7483 4.57399V6.13903C10.7483 6.33519 10.6171 6.50673 10.4281 6.55853C9.8974 6.70374 9.37303 6.90924 8.86988 7.16909C8.70259 7.25486 8.49794 7.22429 8.36419 7.09097L7.27724 6.0125C7.19572 5.92674 7.09636 5.89107 6.98639 5.88513C6.87557 5.88513 6.77155 5.92844 6.69427 6.00826L4.89825 7.79494C4.73818 7.95544 4.73818 8.21869 4.89952 8.38003L5.88925 9.36084C6.03403 9.50435 6.05951 9.72939 5.95124 9.90177C5.63534 10.4036 5.37846 10.9556 5.18782 11.5432C5.12965 11.7224 4.96278 11.8439 4.77427 11.8439H3.46992C3.24488 11.8439 3.06146 12.0273 3.06146 12.2523V14.7829C3.06146 15.013 3.24488 15.1998 3.46992 15.1998H4.57428C4.77809 15.1998 4.95429 15.3416 4.99887 15.5404C5.15003 16.2206 5.38483 16.8625 5.6969 17.4476C5.78777 17.6175 5.75592 17.8264 5.6192 17.9614L4.90631 18.6654C4.82479 18.7452 4.78106 18.8479 4.78106 18.9566C4.78106 19.0653 4.82479 19.1681 4.90419 19.2462L6.6913 21.0414C6.76858 21.1187 6.89595 21.1348 6.98936 21.1611C7.09933 21.1603 7.19954 21.1187 7.27214 21.0448L7.8844 20.4317C8.02877 20.2865 8.2555 20.2627 8.42746 20.3739C8.92678 20.6958 9.48342 20.9505 10.0825 21.1314C10.3126 21.2002 10.443 21.443 10.3738 21.6732C10.3042 21.9016 10.0604 22.0332 9.83201 21.9636C9.2724 21.7955 8.7442 21.5687 8.25762 21.2885L7.89077 21.6553C7.65895 21.8931 7.33965 22.0281 6.99531 22.0307C6.99234 22.0307 6.98936 22.0307 6.98639 22.0307Z" fill="#256BFE"/>
<path d="M11.0354 17.9657C10.9883 17.9657 10.9403 17.9581 10.8936 17.9419C9.00715 17.2897 7.73975 15.5141 7.73975 13.5219C7.73975 10.9421 9.83851 8.84375 12.4179 8.84375C13.6964 8.84375 14.8916 9.35071 15.7828 10.2721C15.9497 10.4445 15.945 10.7196 15.7726 10.8869C15.6002 11.0542 15.3255 11.0499 15.1578 10.8767C14.4317 10.1269 13.459 9.71332 12.4179 9.71332C10.3179 9.71332 8.60931 11.4219 8.60931 13.5219C8.60931 15.143 9.6415 16.5892 11.1772 17.1199C11.4044 17.198 11.525 17.446 11.4464 17.6727C11.384 17.8528 11.2159 17.9657 11.0354 17.9657Z" fill="#256BFE"/>
<path d="M30.0355 56.7132C28.8416 56.7132 27.8701 55.746 27.8701 54.5571V44.9919C27.8701 44.7516 28.0646 44.5571 28.3049 44.5571C28.5452 44.5571 28.7397 44.7516 28.7397 44.9919V54.5571C28.7397 55.2662 29.3209 55.8436 30.0355 55.8436C30.745 55.8436 31.3225 55.2662 31.3225 54.5571V44.9919C31.3225 44.7516 31.5169 44.5571 31.7573 44.5571C31.9976 44.5571 32.192 44.7516 32.192 44.9919V54.5571C32.192 55.746 31.2248 56.7132 30.0355 56.7132Z" fill="#256BFE"/>
<path d="M31.6965 35.5955C31.4562 35.5955 31.2617 35.4053 31.2617 35.165V35.1565C31.2617 34.9161 31.4562 34.7217 31.6965 34.7217C31.9368 34.7217 32.1313 34.9161 32.1313 35.1565C32.1313 35.3968 31.9368 35.5955 31.6965 35.5955Z" fill="#256BFE"/>
<path d="M42.245 56.4751C42.0425 56.4751 41.8382 56.4462 41.6374 56.3876C41.0825 56.2263 40.6252 55.8603 40.3496 55.3567L34.4975 44.6867C34.382 44.4761 34.4592 44.212 34.6698 44.0965C34.8804 43.9802 35.145 44.0583 35.26 44.2689L41.1122 54.9389C41.2761 55.2387 41.5487 55.456 41.8807 55.5529C42.2114 55.6488 42.5596 55.6106 42.8602 55.4459C43.4831 55.1011 43.7141 54.3113 43.3748 53.6855L37.8106 43.5573C37.6951 43.3467 37.7719 43.0817 37.9825 42.9662C38.1918 42.8507 38.4568 42.928 38.5731 43.1378L44.1383 53.2685C44.7051 54.3156 44.3196 55.6327 43.2802 56.2067C42.9583 56.3842 42.6038 56.4751 42.245 56.4751Z" fill="#256BFE"/>
<path d="M17.8149 56.4751C17.4633 56.4751 17.108 56.3885 16.7802 56.2059C16.2736 55.929 15.9034 55.4696 15.7416 54.9134C15.5803 54.3581 15.6452 53.7738 15.9242 53.2685L21.4893 43.1378C21.6048 42.928 21.8693 42.8507 22.0795 42.9662C22.2901 43.0817 22.367 43.3467 22.2515 43.5573L16.6863 53.688C16.5191 53.9904 16.4804 54.3394 16.5768 54.6706C16.6736 55.0026 16.8948 55.2777 17.2005 55.445C17.8187 55.7889 18.6038 55.5605 18.9515 54.9363L24.8109 44.2689C24.9268 44.0583 25.1914 43.9802 25.4015 44.0965C25.6121 44.212 25.689 44.4769 25.5735 44.6875L19.7124 55.3567C19.3137 56.0717 18.5737 56.4751 17.8149 56.4751Z" fill="#256BFE"/>
<path d="M50.0361 28.713C50.0102 28.713 49.9843 28.7105 49.958 28.7062C49.7215 28.6629 49.5648 28.437 49.6077 28.2001C49.8111 27.0834 49.9138 25.9192 49.9138 24.7397C49.9138 20.5863 48.6396 16.6087 46.2296 13.2358C46.0899 13.0405 46.1349 12.7687 46.3307 12.6286C46.5256 12.4902 46.7977 12.5335 46.937 12.7296C49.4535 16.2512 50.7834 20.4037 50.7834 24.7397C50.7834 25.971 50.6755 27.1879 50.4637 28.3563C50.4254 28.5661 50.2424 28.713 50.0361 28.713Z" fill="#256BFE"/>
<path d="M12.1403 34.8261C11.9858 34.8261 11.8359 34.7438 11.7573 34.5977C10.1303 31.5814 9.27051 28.1728 9.27051 24.7395C9.27051 13.2942 18.5818 3.98291 30.0267 3.98291C36.0343 3.98291 41.745 6.59161 45.6942 11.1407C45.8517 11.3224 45.8322 11.5967 45.6509 11.7546C45.4708 11.9117 45.1953 11.8922 45.0377 11.7113C41.2534 7.35248 35.7825 4.85248 30.0267 4.85248C19.0612 4.85248 10.1401 13.774 10.1401 24.7395C10.1401 28.0293 10.9638 31.2952 12.5225 34.185C12.6367 34.3965 12.5577 34.6597 12.3463 34.7743C12.2809 34.8092 12.21 34.8261 12.1403 34.8261Z" fill="#256BFE"/>
<path d="M30.0268 45.5047C29.437 45.5047 28.8447 45.4775 28.2656 45.4249C27.2024 45.3382 26.1316 45.1608 25.0871 44.9001C23.9402 44.6309 22.796 44.2419 21.6916 43.7443C20.9651 43.4318 20.2722 43.0811 19.6391 42.7041C19.4328 42.5809 19.3653 42.3143 19.488 42.1079C19.6107 41.9016 19.8761 41.8328 20.0841 41.9568C20.6845 42.3143 21.3434 42.648 22.0423 42.9486C23.1025 43.4259 24.1933 43.797 25.2917 44.0551C26.2967 44.3056 27.3204 44.4746 28.3403 44.5587C29.4612 44.6606 30.6182 44.6597 31.7179 44.5587C32.751 44.4746 33.7776 44.3056 34.7737 44.056C35.8819 43.7885 36.9714 43.4165 38.0151 42.9503C38.9097 42.5589 39.7708 42.1011 40.5766 41.5899C40.7787 41.4609 41.0475 41.5211 41.177 41.7241C41.3057 41.9262 41.2454 42.1954 41.0428 42.3236C40.1996 42.8595 39.299 43.3376 38.3666 43.746C37.2775 44.2317 36.1379 44.6207 34.9813 44.9009C33.9428 45.1608 32.869 45.3374 31.7927 45.4249C31.2182 45.4775 30.6229 45.5047 30.0268 45.5047Z" fill="#256BFE"/>
<path d="M45.3754 29.0781C45.3393 29.0781 45.3033 29.0739 45.2667 29.0646C45.0345 29.0051 44.8944 28.7682 44.9538 28.5355C45.2676 27.3135 45.4268 26.0364 45.4268 24.7397C45.4268 21.6011 44.4855 18.5839 42.7043 16.0134C42.5676 15.8156 42.6169 15.5447 42.8143 15.408C43.0117 15.2712 43.2822 15.3205 43.4193 15.5175C45.3016 18.2349 46.2964 21.4236 46.2964 24.7397C46.2964 26.1094 46.1282 27.4587 45.7962 28.7512C45.7457 28.9474 45.5691 29.0781 45.3754 29.0781Z" fill="#256BFE"/>
<path d="M18.0703 35.5395C17.9489 35.5395 17.8279 35.4885 17.7421 35.39C15.1725 32.4315 13.7573 28.6492 13.7573 24.7396C13.7573 15.773 21.0556 8.47852 30.0269 8.47852C34.6545 8.47852 39.0766 10.4648 42.1604 13.9286C42.3201 14.1078 42.3039 14.382 42.1248 14.5417C41.9456 14.7013 41.6709 14.6861 41.5108 14.506C38.5922 11.2282 34.4065 9.34808 30.0269 9.34808C21.5354 9.34808 14.6269 16.2528 14.6269 24.7396C14.6269 28.4395 15.9665 32.0196 18.3985 34.8194C18.5561 35.0011 18.5365 35.2754 18.3557 35.4333C18.2733 35.5047 18.1714 35.5395 18.0703 35.5395Z" fill="#256BFE"/>
<path d="M30.0268 41.009C29.4578 41.009 28.863 40.9759 28.2584 40.9105C27.9696 40.8842 27.6733 40.84 27.3862 40.795C26.1978 40.604 25.0187 40.2702 23.8791 39.8023C22.6767 39.309 21.5489 38.6797 20.527 37.9333C20.3329 37.7923 20.2909 37.5197 20.4323 37.3261C20.5737 37.1325 20.8454 37.0892 21.0399 37.2319C22.005 37.9367 23.0715 38.5303 24.2094 38.9973C25.2871 39.4406 26.4016 39.7565 27.5217 39.9357C27.7896 39.9773 28.0673 40.0197 28.345 40.0452C29.5126 40.1717 30.5711 40.1692 31.7107 40.0461C31.9956 40.0197 32.2733 39.9773 32.5425 39.9357C33.7122 39.7378 34.8272 39.4194 35.8501 38.9905C37.044 38.5005 38.1535 37.8772 39.1504 37.1376C39.3419 36.9941 39.6149 37.0332 39.7584 37.2276C39.9015 37.4204 39.8612 37.693 39.6684 37.8356C38.6137 38.6186 37.441 39.2775 36.1834 39.7939C35.1019 40.2465 33.9228 40.5836 32.6822 40.7942C32.3896 40.84 32.0933 40.8842 31.7973 40.9114C31.2004 40.9759 30.6021 41.009 30.0268 41.009Z" fill="#256BFE"/>
<path d="M30.0269 35.7307C29.7887 35.7307 29.5599 35.7214 29.3306 35.7027C28.9897 35.6857 28.6347 35.6492 28.2891 35.5948C27.6603 35.4887 27.0998 35.3494 26.5729 35.1677C22.0718 33.6774 19.0444 29.4858 19.0444 24.7397C19.0444 18.6833 23.971 13.7563 30.0269 13.7563C33.0318 13.7563 35.9394 15.0106 38.0042 17.1981C38.1689 17.3722 38.1609 17.6473 37.9864 17.8121C37.8114 17.9785 37.5367 17.9692 37.3715 17.7942C35.4706 15.7808 32.7936 14.6259 30.0269 14.6259C24.4508 14.6259 19.914 19.1631 19.914 24.7397C19.914 29.1105 22.7019 32.97 26.851 34.344C27.3376 34.5113 27.8522 34.6395 28.4296 34.7363C28.7409 34.7864 29.0644 34.8195 29.3879 34.8357C29.8278 34.8722 30.2422 34.8713 30.6524 34.8365C30.9619 34.8204 31.2591 34.7915 31.5495 34.7482C31.5754 34.738 31.6026 34.7312 31.6311 34.727C32.1809 34.6429 32.7087 34.5147 33.1986 34.3457C37.3575 32.9683 40.1488 29.1088 40.1488 24.7397C40.1488 22.8036 39.5926 20.9184 38.54 19.2888C38.4097 19.0867 38.4674 18.8175 38.6695 18.6876C38.8704 18.5551 39.14 18.6162 39.2703 18.8166C40.4137 20.588 41.0184 22.6354 41.0184 24.7397C41.0184 29.4841 37.9876 33.6757 33.4768 35.1694C32.9668 35.3452 32.417 35.481 31.8455 35.5736C31.82 35.5829 31.7928 35.5897 31.7652 35.5948C31.4192 35.6492 31.0646 35.6857 30.7097 35.7035C30.4944 35.7214 30.2656 35.7307 30.0269 35.7307Z" fill="#256BFE"/>
<path d="M30.0269 30.3738C26.9197 30.3738 24.3921 27.8467 24.3921 24.7395C24.3921 21.6366 26.9197 19.1128 30.0269 19.1128C30.5869 19.1128 31.1418 19.1952 31.6755 19.3582C31.9053 19.4287 32.0348 19.6716 31.9643 19.9017C31.8946 20.131 31.6513 20.2592 31.4216 20.1904C30.9639 20.0503 30.5075 19.9824 30.0269 19.9824C27.3995 19.9824 25.2617 22.1164 25.2617 24.7395C25.2617 27.3669 27.3995 29.5043 30.0269 29.5043C32.6542 29.5043 34.7921 27.3669 34.7921 24.7395C34.7458 24.5043 34.8991 24.2478 35.1347 24.2011C35.3704 24.1553 35.5988 24.2809 35.6451 24.5162C35.6586 24.5858 35.6616 24.669 35.6616 24.7395C35.6616 27.8467 33.134 30.3738 30.0269 30.3738Z" fill="#256BFE"/>
<path d="M46.9659 10.5999C46.9603 10.5999 46.9548 10.5999 46.9497 10.5999C46.7094 10.5905 46.5222 10.3893 46.5311 10.149L46.6444 7.04518C46.6491 6.91696 46.7107 6.79637 46.8126 6.7174L50.8122 3.62127C50.946 3.51852 51.126 3.50323 51.2767 3.57796C51.4266 3.65524 51.5188 3.81149 51.5128 3.98048L51.4088 7.01546C51.4007 7.25493 51.2105 7.44685 50.9596 7.43496C50.7197 7.42647 50.5316 7.22521 50.5401 6.98489L50.6122 4.87637L47.5059 7.28041L47.3998 10.1812C47.3913 10.4156 47.1985 10.5999 46.9659 10.5999Z" fill="#256BFE"/>
<path d="M51.1305 12.7305C51.0991 12.7305 51.0676 12.7271 51.0366 12.7203L48.1673 12.0859C47.9329 12.0341 47.7847 11.8023 47.8365 11.5671C47.8887 11.3336 48.1197 11.1858 48.3549 11.2368L51.0256 11.8269L54.1302 9.43139L52.1058 8.98132C51.8714 8.92868 51.7236 8.69685 51.7754 8.46247C51.8281 8.2281 52.0659 8.08289 52.2943 8.13214L55.2248 8.78431C55.3896 8.82083 55.5182 8.94991 55.5552 9.11465C55.5917 9.27939 55.5297 9.45008 55.3964 9.55283L51.3963 12.6396C51.3194 12.6991 51.2256 12.7305 51.1305 12.7305Z" fill="#256BFE"/>
<path d="M35.4788 22.1913C35.3502 22.1913 35.2228 22.1344 35.137 22.0257C34.9884 21.8371 35.0207 21.5637 35.2092 21.4151L53.1916 7.21503C53.3147 7.12162 53.3886 6.99255 53.4068 6.84649C53.4251 6.70128 53.3856 6.55861 53.2947 6.44482C53.1062 6.19601 52.7593 6.1527 52.5152 6.33783L34.574 20.5065C34.3855 20.6559 34.1129 20.6237 33.9635 20.4343C33.8149 20.2458 33.8471 19.9723 34.0357 19.8237L51.9827 5.64999C52.6141 5.16935 53.5083 5.28823 53.9813 5.91069C54.2127 6.20196 54.3172 6.5756 54.2696 6.95518C54.222 7.33477 54.0284 7.6719 53.724 7.90287L35.7476 22.0978C35.6682 22.1607 35.5731 22.1913 35.4788 22.1913Z" fill="#256BFE"/>
<path d="M30.5596 25.6153C30.1762 25.6153 29.8191 25.4404 29.5822 25.1313C29.3139 24.7814 29.2532 24.3288 29.4196 23.9212L31.8385 17.8623C32.0415 17.3579 32.5229 17.0751 33.0618 17.0878C33.6001 17.1209 34.0383 17.481 34.1776 18.0032L34.9342 20.8191C34.9597 20.9159 35.0229 20.9975 35.1083 21.0459L37.6503 22.4929C38.1182 22.7561 38.3556 23.2699 38.2528 23.8006C38.1492 24.3322 37.7352 24.7211 37.1981 24.7908C37.1977 24.7908 37.1973 24.7908 37.1969 24.7908L30.718 25.6051C30.6649 25.6119 30.6119 25.6153 30.5596 25.6153ZM32.9866 17.9557C32.9072 17.9557 32.7289 17.9803 32.6456 18.1858L30.2259 24.2464C30.155 24.4205 30.2348 24.553 30.2722 24.6023C30.3104 24.6524 30.4178 24.761 30.6097 24.7424L37.0869 23.928C37.3298 23.8966 37.3871 23.6953 37.399 23.6342C37.4108 23.5739 37.4325 23.3684 37.2223 23.2495L34.6799 21.8025C34.3928 21.6411 34.1784 21.3635 34.0939 21.0425L33.3373 18.2283C33.274 17.9905 33.0694 17.9599 33.0083 17.9565C33.0023 17.9557 32.9951 17.9557 32.9866 17.9557Z" fill="#256BFE"/>
<path d="M48.3848 46.5349C43.1887 46.5349 38.9614 42.3077 38.9614 37.1115C38.9614 31.9162 43.1887 27.689 48.3848 27.689C53.5806 27.689 57.8078 31.9162 57.8078 37.1115C57.8078 42.3077 53.5806 46.5349 48.3848 46.5349ZM48.3848 28.5585C43.668 28.5585 39.831 32.3951 39.831 37.1115C39.831 41.8279 43.668 45.6654 48.3848 45.6654C53.1012 45.6654 56.9382 41.8279 56.9382 37.1115C56.9382 32.3951 53.1012 28.5585 48.3848 28.5585Z" fill="#256BFE"/>
<path d="M48.3847 43.2165C45.019 43.2165 42.2808 40.4779 42.2808 37.1118C42.2808 33.7464 45.019 31.0078 48.3847 31.0078C51.7504 31.0078 54.4886 33.7464 54.4886 37.1118C54.4886 40.4779 51.7504 43.2165 48.3847 43.2165ZM48.3847 31.8774C45.4983 31.8774 43.1503 34.2254 43.1503 37.1118C43.1503 39.9981 45.4983 42.347 48.3847 42.347C51.2711 42.347 53.6191 39.9981 53.6191 37.1118C53.6191 34.2254 51.2711 31.8774 48.3847 31.8774Z" fill="#256BFE"/>
<path d="M10.1485 50.2351C5.69665 50.2351 2.20947 48.6047 2.20947 46.5225V43.383C2.20947 43.1427 2.40394 42.9482 2.64426 42.9482C2.88457 42.9482 3.07904 43.1427 3.07904 43.383V46.5225C3.07904 47.8676 5.9824 49.3655 10.1485 49.3655C14.3095 49.3655 17.2095 47.8676 17.2095 46.5225V43.4263C17.2095 43.186 17.4039 42.9873 17.6443 42.9873C17.8846 42.9873 18.079 43.1775 18.079 43.4178V46.5225C18.079 48.6047 14.5957 50.2351 10.1485 50.2351Z" fill="#256BFE"/>
<path d="M10.1485 47.087C5.70642 47.087 2.21924 45.4608 2.20947 43.3845C2.20947 42.0946 3.46584 40.9762 5.65589 40.3062C5.88644 40.2357 6.12846 40.3665 6.19894 40.5949C6.26943 40.8251 6.13992 41.0679 5.91064 41.1384C4.16387 41.6726 3.07904 42.5294 3.07904 43.3743C3.08541 44.7228 5.99004 46.2174 10.1485 46.2174C14.307 46.2174 17.1568 44.7653 17.2099 43.4091C17.2192 43.1731 17.3988 42.9837 17.6527 42.9871C17.8897 42.9922 18.079 43.1807 18.079 43.4176V43.4261C17.9975 45.5202 14.5885 47.087 10.1485 47.087Z" fill="#256BFE"/>
<path d="M13.2872 44.4695C11.6202 44.4695 10.025 44.2368 8.67398 43.7961C6.56078 43.115 5.34814 42.0102 5.34814 40.7653V37.6174C5.34814 37.3771 5.54261 37.1826 5.78293 37.1826C6.02325 37.1826 6.21771 37.3771 6.21771 37.6174V40.722C6.21771 41.5831 7.26178 42.4272 8.94232 42.969C10.2089 43.3817 11.7107 43.5999 13.2872 43.5999C14.7881 43.5999 16.2224 43.4046 17.4405 43.0335C17.4647 43.0208 17.4902 43.0097 17.517 43.0012C18.3666 42.7422 19.0837 42.3924 19.5907 41.9899C20.0934 41.5916 20.3481 41.1797 20.3481 40.7653V37.6174C20.3481 37.3771 20.5426 37.1826 20.7829 37.1826C21.0232 37.1826 21.2177 37.3771 21.2177 37.6174V40.7653C21.2177 41.4498 20.8419 42.1087 20.1312 42.6709C19.5559 43.1278 18.7674 43.5209 17.8481 43.8097C17.8244 43.8224 17.7997 43.8326 17.7734 43.8411C16.4568 44.2521 14.9053 44.4695 13.2872 44.4695Z" fill="#256BFE"/>
<path d="M13.2787 41.3214C11.4992 41.3214 9.83778 41.0666 8.47314 40.5843C6.4886 39.9058 5.34814 38.8239 5.34814 37.6172C5.34814 35.7218 8.12922 34.2162 12.1111 33.9572C12.4864 33.9224 12.8732 33.9131 13.2787 33.9131C15.1155 33.9131 16.824 34.184 18.2197 34.696C20.1218 35.3805 21.1871 36.4012 21.2177 37.5714V37.5824V37.6172C21.2177 38.9963 19.724 40.2038 17.2219 40.8475C16.4538 41.0462 15.6543 41.1821 14.8454 41.25C14.3164 41.2976 13.7886 41.3214 13.2787 41.3214ZM13.2787 34.7827C12.9012 34.7827 12.5407 34.7903 12.1798 34.8243C8.83108 35.0425 6.21771 36.2687 6.21771 37.6172C6.21771 38.4163 7.16752 39.2188 8.75847 39.7631C10.3847 40.3363 12.5331 40.5826 14.7703 40.3839C15.5324 40.3193 16.2831 40.1928 17.0045 40.0051C19.0362 39.4829 20.3481 38.5462 20.3481 37.6172L20.7829 37.5824L20.3481 37.5935C20.3286 36.83 19.4217 36.053 17.9224 35.5138C16.6381 35.0417 14.9898 34.7827 13.2787 34.7827Z" fill="#256BFE"/>
<path d="M50.0895 37.4714C49.9281 37.2725 49.7248 37.1203 49.4863 37.0198C49.2751 36.9311 49.0103 36.8472 48.6983 36.7707V35.2643C49.0177 35.2853 49.321 35.3457 49.598 35.4433C49.658 35.4672 49.7072 35.4789 49.7487 35.4789C49.8628 35.4789 49.9603 35.4345 50.0315 35.3511C50.0988 35.2711 50.1329 35.1799 50.1329 35.0804C50.1329 34.8951 50.0412 34.7645 49.8696 34.7035C49.5268 34.5723 49.1332 34.4928 48.6983 34.467V34.072C48.6983 33.9847 48.6661 33.9062 48.6051 33.8452C48.4808 33.7204 48.2681 33.7233 48.1535 33.8472C48.096 33.9072 48.0653 33.9852 48.0653 34.072V34.4792C47.7542 34.5153 47.4811 34.5996 47.2524 34.7308C46.9993 34.8766 46.8052 35.0634 46.676 35.2862C46.5467 35.5091 46.4809 35.7554 46.4809 36.0182C46.4809 36.3191 46.5628 36.5732 46.7233 36.7731C46.8798 36.9672 47.0773 37.1188 47.3109 37.2247C47.5211 37.3188 47.7746 37.407 48.0653 37.4865V38.9378C47.6947 38.909 47.3362 38.8188 46.9983 38.6686C46.8359 38.5969 46.6525 38.6296 46.5399 38.7525C46.4677 38.83 46.4312 38.9236 46.4312 39.0295C46.4312 39.1104 46.4565 39.188 46.5062 39.2606C46.5555 39.3313 46.6179 39.3825 46.6916 39.4123C47.1168 39.5942 47.5786 39.7063 48.0653 39.7473V40.1589C48.0653 40.253 48.096 40.33 48.1574 40.3881C48.2164 40.4437 48.2906 40.4719 48.3779 40.4719C48.47 40.4719 48.5495 40.4407 48.608 40.3827C48.667 40.3242 48.6983 40.2471 48.6983 40.1589V39.7473C48.9991 39.7205 49.2703 39.6488 49.5053 39.5347C49.7691 39.4059 49.9759 39.2309 50.1202 39.0139C50.2656 38.7939 50.3392 38.5457 50.3392 38.2765C50.3392 37.9474 50.2553 37.6767 50.0895 37.4714ZM48.6983 37.6489C48.9567 37.725 49.1576 37.8059 49.2961 37.8898C49.4351 37.9747 49.5 38.0839 49.5 38.2341C49.5 38.6423 49.2376 38.872 48.6983 38.9344V37.6489ZM47.5235 36.3703C47.3913 36.2752 47.3275 36.144 47.3275 35.9685C47.3275 35.7807 47.3987 35.6334 47.5454 35.5174C47.6776 35.4125 47.8522 35.3389 48.0653 35.2975V36.6112C47.8322 36.5419 47.6503 36.461 47.5235 36.3703Z" fill="#256BFE"/>
</svg>
