<svg width="60" height="60" viewBox="0 0 60 60" fill="none" xmlns="http://www.w3.org/2000/svg">
<path d="M58.2816 59.091H1.71795C1.34522 59.091 1.03613 58.7819 1.03613 58.4091V53.6728C1.03613 53.3001 1.34522 52.991 1.71795 52.991H58.2907C58.6634 52.991 58.9725 53.3001 58.9725 53.6728V58.4091C58.9634 58.7819 58.6634 59.091 58.2816 59.091ZM2.39977 57.7273H57.6089V54.3546H2.39977V57.7273Z" fill="#256BFE"/>
<path d="M33.3177 34.9454C33.0268 34.9454 32.754 34.7545 32.6631 34.4636C31.6177 31.1 28.8177 28.5454 25.3722 27.8L21.7722 27.0272C21.3995 26.9454 21.1722 26.5818 21.245 26.2182C21.3268 25.8545 21.6813 25.6182 22.054 25.6909L25.654 26.4636C29.5813 27.3091 32.7631 30.2182 33.9631 34.0545C34.0722 34.4182 33.8722 34.8 33.5177 34.9091C33.454 34.9363 33.3813 34.9454 33.3177 34.9454Z" fill="#256BFE"/>
<path d="M15.4634 54.3547C15.4452 54.3547 15.427 54.3547 15.4088 54.3547C13.5634 54.2093 11.5543 53.9911 9.28156 53.6911C5.16337 53.1456 2.01792 49.882 1.62701 45.7638C1.39974 43.4002 1.20883 40.8638 1.05428 38.2184C0.727011 32.7002 4.42701 27.8456 9.84519 26.6729L13.227 25.9456C13.5906 25.8729 13.9543 26.1002 14.0361 26.4729C14.1179 26.8456 13.8816 27.2002 13.5179 27.282L10.1361 28.0093C5.38156 29.0365 2.1361 33.2911 2.41792 38.1366C2.57247 40.7547 2.76337 43.282 2.99065 45.6275C3.31792 49.1093 5.98156 51.8729 9.47247 52.3366C11.727 52.6366 13.7088 52.8547 15.527 52.9911C15.8997 53.0184 16.1816 53.3456 16.1543 53.7275C16.1179 54.0911 15.8179 54.3547 15.4634 54.3547Z" fill="#256BFE"/>
<path d="M20.2455 49.0364C20.1455 49.0364 20.0455 49.0182 19.9546 48.9727C14.4546 46.3818 8.82731 46.4727 8.76368 46.4727C8.41822 46.4546 8.07277 46.1818 8.06368 45.8091C8.05459 45.4364 8.35459 45.1182 8.72731 45.1091C8.96368 45.1091 14.7273 45.0091 20.5273 47.7455C20.8728 47.9091 21.0182 48.3091 20.8546 48.6546C20.7455 48.8909 20.5 49.0364 20.2455 49.0364Z" fill="#256BFE"/>
<path d="M17.7546 29.8183C15.4183 29.8183 12.9092 28.7364 12.9092 26.3637C12.9092 26.0455 13.1274 25.7637 13.4455 25.7001L13.9274 25.591V25.1364C13.9274 24.7637 14.2365 24.4546 14.6092 24.4546C14.9819 24.4546 15.291 24.7637 15.291 25.1364V26.1364C15.291 26.4546 15.0728 26.7364 14.7546 26.8001L14.3637 26.8819C15.1365 28.9455 20.3637 28.9455 21.1365 26.8819L20.7365 26.791C20.4274 26.7183 20.2001 26.4455 20.2001 26.1273V25.0546C20.2001 24.6819 20.5092 24.3728 20.8819 24.3728C21.2546 24.3728 21.5637 24.6819 21.5637 25.0546V25.5819L22.0546 25.691C22.3637 25.7637 22.591 26.0364 22.591 26.3546C22.6001 28.7364 20.0819 29.8183 17.7546 29.8183Z" fill="#256BFE"/>
<path d="M8.75462 46.4727C8.71826 46.4727 8.68189 46.4727 8.64553 46.4636C8.2728 46.4091 8.01826 46.0545 8.0728 45.6818C8.86371 40.6091 7.63644 37.6091 7.62735 37.5818C7.48189 37.2363 7.64553 36.8363 7.99098 36.6909C8.33644 36.5454 8.73644 36.7 8.88189 37.0545C8.93644 37.1909 10.2728 40.4091 9.41826 45.9C9.3728 46.2272 9.08189 46.4727 8.75462 46.4727Z" fill="#256BFE"/>
<path d="M45.3454 54.3547H19.2726C19.0635 54.3547 18.8635 54.2547 18.7363 54.0911C18.609 53.9274 18.5635 53.7092 18.609 53.5092L22.5272 37.0183C22.9635 35.182 24.5817 33.9001 26.4726 33.9001H46.7999C47.7544 33.9001 48.6453 34.3274 49.2453 35.082C49.8363 35.8365 50.0544 36.8001 49.8363 37.7365L46.009 53.8274C45.9363 54.1456 45.6544 54.3547 45.3454 54.3547ZM20.1363 52.9911H44.809L48.509 37.4274C48.6363 36.9001 48.509 36.3638 48.1817 35.9365C47.8454 35.5092 47.3454 35.2729 46.809 35.2729H26.4726C25.2181 35.2729 24.1454 36.1274 23.8544 37.3456L20.1363 52.9911Z" fill="#256BFE"/>
<path d="M33.7359 48.3365C32.7086 48.3365 31.8177 47.9183 31.2268 47.1729C30.5723 46.3456 30.3541 45.182 30.645 43.982C31.1813 41.7183 33.2813 39.9365 35.4086 39.9365C36.4268 39.9365 37.3177 40.3547 37.9177 41.1002C38.5723 41.9274 38.7904 43.0911 38.4995 44.2911C37.9632 46.5638 35.8723 48.3365 33.7359 48.3365ZM35.4086 41.3002C33.9268 41.3002 32.3541 42.6729 31.9723 44.2911C31.7813 45.082 31.8995 45.8183 32.2995 46.3274C32.6359 46.7547 33.1359 46.9729 33.7359 46.9729C35.2177 46.9729 36.7904 45.6002 37.1723 43.982C37.3632 43.1911 37.2359 42.4547 36.845 41.9456C36.5177 41.5183 36.0177 41.3002 35.4086 41.3002Z" fill="#256BFE"/>
<path d="M18.0635 26.2727H17.2999C12.6271 26.2727 8.82715 22.4727 8.82715 17.8V12.1091C8.82715 11.7363 9.13624 11.4272 9.50897 11.4272C9.88169 11.4272 10.1908 11.7363 10.1908 12.1091V17.8C10.1908 21.7182 13.3817 24.9091 17.2999 24.9091H18.0635C21.9817 24.9091 25.1726 21.7182 25.1726 17.8V12.1091C25.1726 11.7363 25.4817 11.4272 25.8544 11.4272C26.2271 11.4272 26.5362 11.7363 26.5362 12.1091V17.8C26.5362 22.4727 22.7362 26.2727 18.0635 26.2727Z" fill="#256BFE"/>
<path d="M9.4995 19.1182C9.49041 19.1182 9.47223 19.1182 9.46314 19.1182C7.40859 19.0091 5.80859 17.3182 5.80859 15.2728C5.80859 13.2273 7.41768 11.5364 9.46314 11.4273C9.65405 11.4091 9.83587 11.4819 9.97223 11.6091C10.1086 11.7364 10.1813 11.9182 10.1813 12.1001V18.4364C10.1813 18.6273 10.1086 18.8001 9.97223 18.9273C9.84496 19.0546 9.68132 19.1182 9.4995 19.1182ZM8.81768 12.9273C7.85405 13.2728 7.17223 14.2001 7.17223 15.2728C7.17223 16.3455 7.85405 17.2637 8.81768 17.6182V12.9273Z" fill="#256BFE"/>
<path d="M18.3636 13.6001C18.2 13.6001 18.0454 13.5456 17.9182 13.4365C17.7182 13.2638 17.6363 12.9819 17.7091 12.7274C17.9 12.0547 17.9545 11.6365 17.9454 11.3001C15.3636 13.3456 11.5727 13.6365 8.86362 12.7638C6.39089 11.9728 4.84544 10.3274 4.62726 8.26375C4.59998 8.05466 4.6818 7.83648 4.83635 7.69103C4.99998 7.54557 5.21817 7.48194 5.43635 7.52739C6.54544 7.75466 7.46362 7.72739 8.13635 7.55466C7.11817 7.06375 6.03635 6.09103 6.03635 4.0183C6.03635 3.78194 6.16362 3.55466 6.37271 3.42739C6.5818 3.30921 6.83635 3.30012 7.04544 3.4183C8.37271 4.14557 10.5454 3.44557 12.4909 2.66375C17.4182 0.691027 21.6909 0.372845 24.5091 1.78194C26.3 2.67285 27.5 4.20921 28.0727 6.35466C28.6727 8.59103 27.9363 10.8728 27.2818 12.9001C27.2 13.1547 26.9727 13.3365 26.7091 13.3638C26.4363 13.4001 26.1818 13.2638 26.0454 13.0274C25.3182 11.791 24.2091 11.0183 22.9091 10.2274C21.8636 11.8365 20.7273 12.5638 18.6545 13.5365C18.5545 13.5819 18.4545 13.6001 18.3636 13.6001ZM6.20908 9.0183C6.67271 10.1092 7.74544 10.9728 9.27271 11.4728C11.9182 12.3183 15.7091 11.9274 17.8545 9.52739C18.0273 9.33648 18.2909 9.25466 18.5454 9.32739C18.7909 9.40012 18.9818 9.60012 19.0363 9.85466C19.0636 10.0001 19.1 10.1365 19.1363 10.2638C19.2454 10.6638 19.3545 11.0638 19.3 11.7001C20.6182 10.9819 21.3273 10.3092 22.0909 8.96375C22.1818 8.80012 22.3363 8.68194 22.5091 8.63648C22.6909 8.59103 22.8727 8.6183 23.0363 8.70921C24.2727 9.45466 25.4545 10.1728 26.3909 11.2092C26.8273 9.7183 27.1545 8.14557 26.7636 6.7183C26.2909 4.97285 25.3273 3.72739 23.9 3.00921C21.4363 1.77285 17.5636 2.10921 13 3.93648C11.1091 4.69103 9.17271 5.30921 7.53635 5.0183C7.81817 5.90921 8.56362 6.4183 9.91817 6.68194C10.1545 6.72739 10.3454 6.89103 10.4273 7.10921C10.5091 7.32739 10.4727 7.58194 10.3273 7.76375C9.56362 8.73648 8.03635 9.18194 6.20908 9.0183Z" fill="#256BFE"/>
<path d="M25.8547 19.1182C25.6819 19.1182 25.5092 19.0546 25.3819 18.9273C25.2456 18.8001 25.1729 18.6182 25.1729 18.4364V12.1001C25.1729 11.9091 25.2456 11.7364 25.3819 11.6091C25.5183 11.4819 25.691 11.4091 25.891 11.4273C27.9456 11.5364 29.5456 13.2273 29.5456 15.2728C29.5456 17.3182 27.9365 19.0091 25.891 19.1182C25.8819 19.1182 25.8638 19.1182 25.8547 19.1182ZM26.5365 12.9273V17.6091C27.5001 17.2637 28.1819 16.3364 28.1819 15.2637C28.1819 14.191 27.5001 13.2819 26.5365 12.9273Z" fill="#256BFE"/>
<path d="M56.0637 28.2365H34.9364C33.3364 28.2365 32.0273 26.9274 32.0273 25.3274V6.70013C32.0273 6.3274 32.3364 6.01831 32.7092 6.01831H58.291C58.6637 6.01831 58.9728 6.3274 58.9728 6.70013V25.3274C58.9637 26.9274 57.6637 28.2365 56.0637 28.2365ZM33.391 7.38195V25.3274C33.391 26.1819 34.0819 26.8729 34.9364 26.8729H56.0637C56.9183 26.8729 57.6092 26.1819 57.6092 25.3274V7.38195H33.391Z" fill="#256BFE"/>
<path d="M58.2819 7.38191H32.7092C32.3364 7.38191 32.0273 7.07282 32.0273 6.70009V3.88191C32.0273 2.24554 33.3637 0.90918 35.0001 0.90918H56.0001C57.6364 0.90918 58.9728 2.24554 58.9728 3.88191V6.70009C58.9637 7.07282 58.6637 7.38191 58.2819 7.38191ZM33.391 6.01827H57.6092V3.88191C57.6092 2.991 56.891 2.27282 56.0001 2.27282H35.0001C34.1092 2.27282 33.391 2.991 33.391 3.88191V6.01827Z" fill="#256BFE"/>
<path d="M36.8268 4.82726H35.8722C35.4995 4.82726 35.1904 4.51817 35.1904 4.14544C35.1904 3.77271 35.4995 3.46362 35.8722 3.46362H36.8268C37.1995 3.46362 37.5086 3.77271 37.5086 4.14544C37.5086 4.51817 37.1995 4.82726 36.8268 4.82726Z" fill="#256BFE"/>
<path d="M40.2721 4.82726H39.3176C38.9448 4.82726 38.6357 4.51817 38.6357 4.14544C38.6357 3.77271 38.9448 3.46362 39.3176 3.46362H40.2721C40.6448 3.46362 40.9539 3.77271 40.9539 4.14544C40.9539 4.51817 40.6539 4.82726 40.2721 4.82726Z" fill="#256BFE"/>
<path d="M43.7272 4.82726H42.7726C42.3999 4.82726 42.0908 4.51817 42.0908 4.14544C42.0908 3.77271 42.3999 3.46362 42.7726 3.46362H43.7272C44.0999 3.46362 44.409 3.77271 44.409 4.14544C44.409 4.51817 44.109 4.82726 43.7272 4.82726Z" fill="#256BFE"/>
<path d="M43.0543 17.0819C42.9088 17.0819 42.7725 17.0364 42.6452 16.9455L39.427 14.5455C39.2543 14.4182 39.1543 14.2182 39.1543 14C39.1543 13.7819 39.2543 13.5819 39.427 13.4546L42.6452 11.0546C42.9452 10.8273 43.3725 10.8909 43.5998 11.1909C43.827 11.4909 43.7634 11.9182 43.4634 12.1455L40.9816 13.9909L43.4634 15.8364C43.7634 16.0637 43.827 16.4909 43.5998 16.7909C43.4634 16.9819 43.2634 17.0819 43.0543 17.0819Z" fill="#256BFE"/>
<path d="M47.936 17.082C47.7269 17.082 47.5269 16.9911 47.3905 16.8093C47.1632 16.5093 47.2269 16.082 47.5269 15.8547L50.0087 14.0093L47.5269 12.1638C47.2269 11.9365 47.1632 11.5093 47.3905 11.2093C47.6178 10.9093 48.0451 10.8456 48.3451 11.0729L51.5632 13.4729C51.736 13.6002 51.836 13.8002 51.836 14.0183C51.836 14.2365 51.736 14.4365 51.5632 14.5638L48.3451 16.9638C48.2269 17.0365 48.0814 17.082 47.936 17.082Z" fill="#256BFE"/>
<path d="M44.8089 18.1455C44.7635 18.1455 44.718 18.1455 44.6725 18.1364C44.2998 18.0637 44.0634 17.7 44.1362 17.3364L45.518 10.4091C45.5907 10.0364 45.9544 9.80002 46.318 9.87275C46.6907 9.94548 46.9271 10.3091 46.8544 10.6727L45.4725 17.6C45.4089 17.9273 45.1271 18.1455 44.8089 18.1455Z" fill="#256BFE"/>
<path d="M54.782 20.9093H49.2638C48.8911 20.9093 48.582 20.6002 48.582 20.2275C48.582 19.8547 48.8911 19.5457 49.2638 19.5457H54.782C55.1548 19.5457 55.4638 19.8547 55.4638 20.2275C55.4638 20.6002 55.1548 20.9093 54.782 20.9093Z" fill="#256BFE"/>
<path d="M46.4269 20.9093H40.7814C40.4087 20.9093 40.0996 20.6002 40.0996 20.2275C40.0996 19.8547 40.4087 19.5457 40.7814 19.5457H46.4269C46.7996 19.5457 47.1087 19.8547 47.1087 20.2275C47.1087 20.6002 46.8087 20.9093 46.4269 20.9093Z" fill="#256BFE"/>
<path d="M37.9728 20.9093H36.2092C35.8364 20.9093 35.5273 20.6002 35.5273 20.2275C35.5273 19.8547 35.8364 19.5457 36.2092 19.5457H37.9728C38.3455 19.5457 38.6546 19.8547 38.6546 20.2275C38.6546 20.6002 38.3546 20.9093 37.9728 20.9093Z" fill="#256BFE"/>
<path d="M54.782 24.4H47.0002C46.6275 24.4 46.3184 24.0909 46.3184 23.7182C46.3184 23.3455 46.6275 23.0364 47.0002 23.0364H54.782C55.1547 23.0364 55.4638 23.3455 55.4638 23.7182C55.4638 24.0909 55.1547 24.4 54.782 24.4Z" fill="#256BFE"/>
<path d="M43.8723 24.4H40.7814C40.4087 24.4 40.0996 24.0909 40.0996 23.7182C40.0996 23.3455 40.4087 23.0364 40.7814 23.0364H43.8723C44.2451 23.0364 44.5542 23.3455 44.5542 23.7182C44.5542 24.0909 44.2451 24.4 43.8723 24.4Z" fill="#256BFE"/>
<path d="M37.9728 24.4H36.2092C35.8364 24.4 35.5273 24.0909 35.5273 23.7182C35.5273 23.3455 35.8364 23.0364 36.2092 23.0364H37.9728C38.3455 23.0364 38.6546 23.3455 38.6546 23.7182C38.6546 24.0909 38.3546 24.4 37.9728 24.4Z" fill="#256BFE"/>
</svg>
