<svg width="60" height="60" viewBox="0 0 60 60" fill="none" xmlns="http://www.w3.org/2000/svg">
<g clip-path="url(#clip0_22_946)">
<path fill-rule="evenodd" clip-rule="evenodd" d="M4.36235 0.941162H47.4663H47.4694C49.3581 0.941633 50.8892 2.47257 50.8895 4.36128V4.36469V10.802V29.7595C52.9225 31.0594 55.4506 32.1755 58.3006 32.4014C58.7288 32.4353 59.0591 32.7927 59.0591 33.2223V44.0095C59.0591 47.7026 57.2091 51.1116 54.6342 53.7741C52.0963 56.3985 48.8634 58.29 46.1027 59.0307C45.9629 59.0682 45.8158 59.0682 45.676 59.0307C42.9143 58.2901 39.6811 56.3985 37.1429 53.7741C35.1465 51.7099 33.5859 49.1968 32.9853 46.4506H4.36494C2.47423 46.4506 0.941406 44.9179 0.941406 43.027V10.802V4.36128C0.941759 2.47257 2.47282 0.941633 4.36152 0.941162H4.36235ZM4.36235 2.58822C3.38317 2.58963 2.58988 3.38304 2.58847 4.3621V9.97846H20.4629L23.4483 6.57951C23.6047 6.40151 23.8301 6.29952 24.0671 6.29952C24.304 6.29952 24.5294 6.40151 24.6858 6.57951L27.6713 9.97846H49.2425V4.36469V4.3621C49.2411 3.38304 48.4476 2.58963 47.4686 2.58822H47.466H4.36235ZM40.986 4.92563C41.7358 4.92563 42.3446 5.53446 42.3446 6.28434C42.3446 7.0341 41.7358 7.64293 40.986 7.64293C40.2361 7.64293 39.6273 7.0341 39.6273 6.28434C39.6273 5.53446 40.2361 4.92563 40.986 4.92563ZM37.0006 4.92563C37.7503 4.92563 38.3592 5.53446 38.3592 6.28434C38.3592 7.0341 37.7503 7.64293 37.0006 7.64293C36.2507 7.64293 35.6419 7.0341 35.6419 6.28434C35.6419 5.53446 36.2507 4.92563 37.0006 4.92563ZM44.9714 4.92563C45.7213 4.92563 46.33 5.53446 46.33 6.28434C46.33 7.0341 45.7213 7.64293 44.9714 7.64293C44.2215 7.64293 43.6127 7.0341 43.6127 6.28434C43.6127 5.53446 44.2215 4.92563 44.9714 4.92563ZM34.3649 33.9639V44.0095C34.3649 47.2775 36.0482 50.273 38.3269 52.6292C40.5774 54.9561 43.4182 56.6658 45.8893 57.3803C48.3595 56.6658 51.2 54.9561 53.4502 52.6292C55.7287 50.273 57.412 47.2775 57.412 44.0095V33.9639C54.2223 33.5485 51.4253 32.1607 49.2445 30.6408H42.5325C40.3516 32.1607 37.5546 33.5485 34.3649 33.9639ZM42.7742 32.3166C42.7907 32.2553 42.8026 32.219 42.8026 32.219C42.9508 32.1387 43.1132 32.1083 43.2698 32.1227C43.2938 32.1205 43.3192 32.1194 43.3462 32.1194H48.5816C48.7442 32.1194 48.9031 32.1675 49.0383 32.2576C50.9771 33.5498 53.1221 34.5354 55.3954 35.0207C55.3954 35.0207 56.0471 35.0559 56.0471 35.8286V44.0083C56.0471 46.114 55.1961 48.1981 53.8619 50.0352C51.9194 52.7096 48.9538 54.8594 46.1485 55.7894C45.9801 55.8452 45.7983 55.8452 45.6301 55.7894C42.8248 54.8594 39.8592 52.709 37.9168 50.0345C36.5825 48.1973 35.7315 46.1133 35.7315 44.0083V35.8261C35.7315 35.4375 36.0032 35.1019 36.3832 35.0207C38.6563 34.5354 40.8 33.5498 42.7387 32.2576L42.7742 32.3166ZM54.4 36.4793C52.2458 35.9326 50.2036 34.9834 48.3348 33.7665C47.4356 33.7665 44.3415 33.7665 43.4423 33.7665C41.5735 34.9834 39.5325 35.9326 37.3786 36.4793V44.0083C37.3786 45.7794 38.1268 47.5209 39.2494 49.0666C40.9286 51.3786 43.4563 53.2602 45.8893 54.1363C48.3222 53.2602 50.8501 51.3792 52.5292 49.0673C53.6518 47.5216 54.4 45.7799 54.4 44.0083V36.4793ZM51.0826 39.8932C51.4354 39.6066 51.9545 39.6603 52.2411 40.0132C52.5275 40.366 52.4738 40.885 52.1209 41.1716L43.6781 48.0286C43.4985 48.1745 43.2658 48.2381 43.0369 48.2037C42.8081 48.1695 42.6042 48.0406 42.4753 47.8485L39.4915 43.4047C39.2381 43.0273 39.3387 42.5153 39.7161 42.2619C40.0934 42.0085 40.6055 42.1092 40.8588 42.4865L43.3399 46.1815L51.0826 39.8932ZM7.74917 26.8618V29.0366C10.6882 29.0892 12.1568 32.638 10.116 34.7523L11.6553 36.2903C13.7715 34.2487 17.318 35.7173 17.3705 38.6579H19.5453C19.5979 35.7206 23.1468 34.2502 25.2612 36.291L26.7998 34.7525C24.7591 32.638 26.2293 29.0892 29.1666 29.0366V26.8618C26.2296 26.8092 24.7593 23.261 26.7991 21.1466L25.2612 19.6073C23.1467 21.6481 19.5979 20.1795 19.5453 17.2405H17.3705C17.3179 20.1792 13.7698 21.6478 11.6553 19.608L10.1167 21.1466C12.1565 23.261 10.6879 26.8092 7.74917 26.8618ZM18.4586 34.3143C14.9525 34.3143 12.094 31.4543 12.094 27.9499C12.094 24.4436 14.9525 21.5853 18.4586 21.5853C21.9632 21.5853 24.8232 24.4436 24.8232 27.9499C24.8232 31.4543 21.9632 34.3143 18.4586 34.3143ZM18.4586 32.6673C21.0562 32.6673 23.1761 30.5474 23.1761 27.9499C23.1761 25.351 21.0562 23.2323 18.4586 23.2323C15.8598 23.2323 13.7411 25.351 13.7411 27.9499C13.7411 30.5474 15.8598 32.6673 18.4586 32.6673ZM2.58847 11.6255V43.027C2.58847 44.0082 3.38376 44.8035 4.36494 44.8035H32.7463C32.7275 44.5405 32.7179 44.2757 32.7179 44.0095V33.2223C32.7179 32.7927 33.0481 32.4353 33.4763 32.4014C36.7662 32.1407 39.6271 30.6938 41.7926 29.1472C41.9322 29.0474 42.0995 28.9938 42.2712 28.9938H49.2425V11.6255H29.118L30.6189 13.3343C30.8323 13.5773 30.8839 13.9227 30.7505 14.2174C30.6172 14.512 30.3236 14.7013 30.0002 14.7013H27.3794V19.397L28.0103 20.0285C28.6274 20.6456 28.6274 21.6467 28.0103 22.2638C26.9226 23.3515 27.6948 25.2153 29.2328 25.2153C30.1085 25.2153 30.8136 25.9233 30.8136 26.7961V29.1021C30.8136 29.975 30.1085 30.683 29.2328 30.683C27.6948 30.683 26.9226 32.5467 28.0103 33.6346C28.6271 34.2512 28.6271 35.2545 28.0103 35.8712L26.3799 37.5015C25.7632 38.1182 24.76 38.1182 24.1433 37.5015C23.0555 36.4138 21.1918 37.186 21.1918 38.724C21.1918 39.5997 20.4838 40.3049 19.6109 40.3049H17.3048C16.432 40.3049 15.724 39.5997 15.724 38.724C15.724 37.1841 13.8612 36.4128 12.7725 37.5015C12.1554 38.1187 11.1543 38.1187 10.5375 37.5019L8.90541 35.8712C8.2887 35.2545 8.2887 34.2512 8.90541 33.6346C9.99329 32.5467 9.22199 30.683 7.68294 30.683C6.81011 30.683 6.10211 29.975 6.10211 29.1021V26.7961C6.10211 25.9233 6.81011 25.2153 7.68294 25.2153C9.22199 25.2153 9.99329 23.3515 8.90541 22.2638C8.28835 21.6467 8.28835 20.6456 8.90541 20.0285L10.5373 18.3967C11.1543 17.7796 12.1554 17.7796 12.7725 18.3967C13.8603 19.4845 15.724 18.7132 15.724 17.1742C15.724 16.3014 16.432 15.5934 17.3048 15.5934H19.6109C20.0602 15.5934 20.4659 15.7809 20.7536 16.0821V14.7013H18.1339C17.8105 14.7013 17.5171 14.512 17.3836 14.2174C17.2502 13.9227 17.3018 13.5773 17.5152 13.3343L19.0161 11.6255H2.58847ZM25.7323 18.0054V13.8778C25.7323 13.4229 26.1011 13.0542 26.5559 13.0542H28.1807L24.0671 8.37093L19.9534 13.0542H21.5772C22.032 13.0542 22.4007 13.4229 22.4007 13.8778V18.8221C22.9739 19.0048 23.6412 18.8988 24.1433 18.3967C24.5726 17.9674 25.1892 17.8369 25.7323 18.0054Z" fill="#256BFE"/>
</g>
<defs>
<clipPath id="clip0_22_946">
<rect width="60" height="60" fill="white"/>
</clipPath>
</defs>
</svg>
