<svg width="60" height="60" viewBox="0 0 60 60" fill="none" xmlns="http://www.w3.org/2000/svg">
<path d="M54.1411 53.3506H5.85875C4.22463 53.3506 2.89404 52.02 2.89404 50.3859V9.61412C2.89404 7.98 4.22463 6.64941 5.85875 6.64941H54.1411C55.7752 6.64941 57.1058 7.98 57.1058 9.61412V50.3859C57.1058 52.02 55.7752 53.3506 54.1411 53.3506ZM5.85875 8.34353C5.1564 8.34353 4.58816 8.91177 4.58816 9.61412V50.3859C4.58816 51.0882 5.1564 51.6565 5.85875 51.6565H54.1411C54.8435 51.6565 55.4117 51.0882 55.4117 50.3859V9.61412C55.4117 8.91177 54.8435 8.34353 54.1411 8.34353H5.85875Z" fill="#256BFE"/>
<path d="M56.2588 15.8081H3.7411C3.27169 15.8081 2.89404 15.4305 2.89404 14.9611C2.89404 14.4917 3.27169 14.114 3.7411 14.114H56.2588C56.7282 14.114 57.1058 14.4917 57.1058 14.9611C57.1058 15.4305 56.7282 15.8081 56.2588 15.8081Z" fill="#256BFE"/>
<path d="M51.4904 12.0777H30.4198C29.9504 12.0777 29.5728 11.7 29.5728 11.2306C29.5728 10.7612 29.9504 10.3835 30.4198 10.3835H51.4904C51.9598 10.3835 52.3375 10.7612 52.3375 11.2306C52.3375 11.7 51.9563 12.0777 51.4904 12.0777Z" fill="#256BFE"/>
<path d="M9.22565 12.3424C9.84161 12.3424 10.3409 11.8431 10.3409 11.2271C10.3409 10.6112 9.84161 10.1118 9.22565 10.1118C8.60969 10.1118 8.11035 10.6112 8.11035 11.2271C8.11035 11.8431 8.60969 12.3424 9.22565 12.3424Z" fill="#256BFE"/>
<path d="M13.8951 12.3424C14.511 12.3424 15.0104 11.8431 15.0104 11.2271C15.0104 10.6112 14.511 10.1118 13.8951 10.1118C13.2791 10.1118 12.7798 10.6112 12.7798 11.2271C12.7798 11.8431 13.2791 12.3424 13.8951 12.3424Z" fill="#256BFE"/>
<path d="M18.5645 12.3424C19.1805 12.3424 19.6798 11.8431 19.6798 11.2271C19.6798 10.6112 19.1805 10.1118 18.5645 10.1118C17.9486 10.1118 17.4492 10.6112 17.4492 11.2271C17.4492 11.8431 17.9486 12.3424 18.5645 12.3424Z" fill="#256BFE"/>
<path d="M51.4902 21.2576H33.0385C32.5691 21.2576 32.1914 20.8799 32.1914 20.4105C32.1914 19.9411 32.5691 19.5635 33.0385 19.5635H51.4902C51.9596 19.5635 52.3373 19.9411 52.3373 20.4105C52.3373 20.8799 51.9596 21.2576 51.4902 21.2576Z" fill="#256BFE"/>
<path d="M51.4902 25.1153H33.0385C32.5691 25.1153 32.1914 24.7376 32.1914 24.2682C32.1914 23.7988 32.5691 23.4211 33.0385 23.4211H51.4902C51.9596 23.4211 52.3373 23.7988 52.3373 24.2682C52.3373 24.7376 51.9596 25.1153 51.4902 25.1153Z" fill="#256BFE"/>
<path d="M51.4902 28.9693H33.0385C32.5691 28.9693 32.1914 28.5916 32.1914 28.1222C32.1914 27.6528 32.5691 27.2751 33.0385 27.2751H51.4902C51.9596 27.2751 52.3373 27.6528 52.3373 28.1222C52.3373 28.5916 51.9596 28.9693 51.4902 28.9693Z" fill="#256BFE"/>
<path d="M14.1315 24.7235C13.9974 24.4624 13.8068 24.2435 13.5668 24.0741C13.3339 23.9082 13.048 23.7671 12.7162 23.6506C12.3915 23.5376 12.028 23.4318 11.6256 23.34C11.315 23.2624 11.0856 23.1988 10.9515 23.16C10.8209 23.1212 10.6903 23.0647 10.5633 22.9976C10.4433 22.9306 10.348 22.8529 10.2845 22.7647C10.2245 22.6835 10.1927 22.5847 10.1927 22.4682C10.1927 22.2776 10.288 22.1188 10.4821 21.9776C10.6868 21.8294 10.9656 21.7553 11.308 21.7553C11.675 21.7553 11.9433 21.8224 12.0986 21.9529C12.2645 22.0906 12.4092 22.2882 12.5292 22.5353L12.5327 22.5424C12.6386 22.74 12.7339 22.8776 12.8292 22.9694C12.935 23.0718 13.0868 23.1247 13.2809 23.1247C13.4927 23.1247 13.6762 23.04 13.8174 22.8812C13.955 22.7224 14.0256 22.5459 14.0256 22.3447C14.0256 22.1435 13.9727 21.9318 13.8703 21.7235C13.768 21.5153 13.6056 21.3141 13.3868 21.1271C13.168 20.94 12.8927 20.7882 12.5645 20.6788C12.2398 20.5694 11.848 20.5129 11.4068 20.5129C10.8527 20.5129 10.3621 20.5976 9.9527 20.7635C9.5327 20.9329 9.20799 21.18 8.98564 21.4976C8.75975 21.8153 8.64681 22.1859 8.64681 22.5953C8.64681 23.0259 8.75623 23.3894 8.96799 23.6824C9.17975 23.9718 9.46564 24.2012 9.82564 24.3671C10.1715 24.5294 10.6092 24.6706 11.1209 24.7906C11.4915 24.8753 11.7915 24.9565 12.0139 25.0306C12.2221 25.1012 12.3915 25.2035 12.5221 25.3376C12.6456 25.4612 12.7021 25.6235 12.7021 25.8282C12.7021 26.0859 12.5856 26.2976 12.3527 26.4741C12.1092 26.6541 11.788 26.7459 11.3892 26.7459C11.1033 26.7459 10.8668 26.7 10.6974 26.6118C10.5245 26.5235 10.3939 26.4106 10.2986 26.2765C10.1998 26.1353 10.1045 25.9518 10.0198 25.74C9.93858 25.5318 9.84328 25.3765 9.72328 25.2671C9.59622 25.1506 9.44446 25.0906 9.26446 25.0906C9.04917 25.0906 8.86564 25.1647 8.72446 25.3094C8.58328 25.4541 8.5127 25.6306 8.5127 25.8353C8.5127 26.1529 8.61858 26.4847 8.83034 26.8165C9.03858 27.1447 9.31387 27.4129 9.6527 27.6106C10.1186 27.8823 10.7186 28.02 11.428 28.02C12.0209 28.02 12.5433 27.9212 12.9774 27.72C13.2668 27.5894 13.5139 27.42 13.715 27.2223C13.8209 27.1165 13.9127 27.0035 13.9903 26.88C14.2198 26.5235 14.3362 26.1141 14.3362 25.6694C14.3362 25.3024 14.2656 24.9812 14.1315 24.7235Z" fill="#256BFE"/>
<path d="M19.8174 24.7659C20.068 24.7659 20.2586 24.7059 20.3856 24.5823C20.5127 24.4623 20.5797 24.2965 20.5797 24.1059C20.5797 23.9153 20.5127 23.7529 20.3821 23.6329C20.2515 23.5165 20.0644 23.4565 19.8174 23.4565H16.9727V21.9565H20.0715C20.3291 21.9565 20.5233 21.8965 20.6539 21.7765C20.788 21.6565 20.8586 21.487 20.8586 21.2894C20.8586 21.0953 20.788 20.9294 20.6539 20.8094C20.5233 20.6894 20.3256 20.6294 20.0715 20.6294H16.3056C16.0868 20.6294 15.9068 20.6647 15.7621 20.7282C15.6068 20.7988 15.4939 20.9117 15.4197 21.067C15.3491 21.2153 15.3174 21.3953 15.3174 21.6176V26.9117C15.3174 27.2506 15.3986 27.5012 15.5539 27.66C15.7127 27.8188 15.9633 27.9 16.3056 27.9H20.1809C20.435 27.9 20.6291 27.8365 20.7633 27.7129C20.7703 27.7059 20.7774 27.6988 20.7844 27.6917C20.908 27.5682 20.9715 27.4059 20.9715 27.2223C20.9715 27.0212 20.9009 26.8482 20.7633 26.7212C20.6291 26.5976 20.4315 26.5341 20.1809 26.5341H16.9691V24.7588L19.8174 24.7659Z" fill="#256BFE"/>
<path d="M27.0279 20.9718C26.4879 20.6682 25.8385 20.5129 25.0903 20.5129C24.5397 20.5129 24.0421 20.6012 23.6079 20.7741C23.1703 20.9471 22.7962 21.2012 22.4891 21.5294C22.1856 21.8576 21.9491 22.26 21.7903 22.7224C21.6315 23.1847 21.5503 23.6965 21.5503 24.2506C21.5503 24.7906 21.6279 25.2988 21.7797 25.7612C21.9315 26.2306 22.1644 26.6365 22.4644 26.9682C22.7644 27.3035 23.1456 27.5647 23.5974 27.7482C24.0456 27.9318 24.5574 28.0235 25.1221 28.0235C25.6868 28.0235 26.1985 27.9353 26.6397 27.7553C27.035 27.5965 27.3774 27.3706 27.6632 27.0847C27.6985 27.0494 27.7338 27.0141 27.7656 26.9753C28.0691 26.64 28.3021 26.2341 28.4538 25.7753C28.6056 25.32 28.6797 24.8082 28.6797 24.2541C28.6797 23.5024 28.5385 22.8388 28.2632 22.2776C27.9879 21.72 27.5715 21.2753 27.0279 20.9718ZM24.3491 22.0271C24.575 21.9282 24.8256 21.8753 25.0938 21.8753C25.4715 21.8753 25.8068 21.9671 26.0962 22.1471C26.3891 22.3306 26.6079 22.5953 26.7668 22.9553C26.9256 23.3188 27.0068 23.7529 27.0068 24.2506C27.0068 24.7871 26.9185 25.2459 26.7456 25.6094C26.5762 25.9694 26.3432 26.2376 26.0609 26.4071C25.7715 26.58 25.4609 26.6647 25.115 26.6647C24.8468 26.6647 24.5997 26.6153 24.3774 26.5165C24.155 26.4176 23.9538 26.2659 23.7844 26.0682C23.6115 25.8671 23.4738 25.6094 23.3785 25.3059C23.2797 24.9953 23.2338 24.6424 23.2338 24.2541C23.2338 23.8694 23.2832 23.52 23.3785 23.2165C23.4738 22.9129 23.6044 22.6624 23.7703 22.4718C23.9256 22.2741 24.1232 22.1259 24.3491 22.0271Z" fill="#256BFE"/>
<path d="M23.8937 45.8788C23.7137 45.8788 23.5337 45.8224 23.382 45.7059L17.6784 41.3506C17.4702 41.1918 17.3467 40.9412 17.3467 40.6765C17.3467 40.4118 17.4702 40.1647 17.6784 40.0024L23.382 35.6471C23.7526 35.3647 24.2855 35.4353 24.5679 35.8059C24.8502 36.1765 24.7796 36.7094 24.409 36.9918L19.5879 40.6765L24.409 44.3577C24.7796 44.64 24.8537 45.173 24.5679 45.5436C24.402 45.7624 24.1514 45.8788 23.8937 45.8788Z" fill="#256BFE"/>
<path d="M36.1054 45.8789C35.8513 45.8789 35.5972 45.766 35.4313 45.5471C35.149 45.1766 35.2195 44.6436 35.5901 44.3613L40.4113 40.6801L35.5901 36.9989C35.2195 36.7166 35.1454 36.1836 35.4313 35.813C35.7137 35.4424 36.2466 35.3683 36.6172 35.6542L42.3207 40.0095C42.529 40.1683 42.6525 40.4189 42.6525 40.6836C42.6525 40.9483 42.529 41.1954 42.3207 41.3577L36.6172 45.706C36.4654 45.8224 36.2819 45.8789 36.1054 45.8789Z" fill="#256BFE"/>
<path d="M28.1361 48.1906C28.0619 48.1906 27.9843 48.18 27.9066 48.1589C27.4549 48.0318 27.1937 47.5659 27.3172 47.1142L31.0443 33.7765C31.1713 33.3247 31.6372 33.0636 32.089 33.1871C32.5408 33.3142 32.8019 33.78 32.6784 34.2318L28.9513 47.5695C28.849 47.9471 28.5066 48.1906 28.1361 48.1906Z" fill="#256BFE"/>
</svg>
