<svg width="60" height="60" viewBox="0 0 60 60" fill="none" xmlns="http://www.w3.org/2000/svg">
<path d="M54.375 17.8125H42.1875V11.25C42.186 10.0073 41.6917 8.81584 40.8129 7.93708C39.9342 7.05833 38.7427 6.56399 37.5 6.5625H5.625C4.38225 6.56399 3.19084 7.05833 2.31208 7.93708C1.43333 8.81584 0.938989 10.0073 0.9375 11.25V31.875C0.938989 33.1177 1.43333 34.3092 2.31208 35.1879C3.19084 36.0667 4.38225 36.561 5.625 36.5625H17.8125V45C17.814 46.2427 18.3083 47.4342 19.1871 48.3129C20.0658 49.1917 21.2573 49.686 22.5 49.6875H35.625V54.375C35.625 54.5604 35.6799 54.7417 35.7828 54.8959C35.8858 55.05 36.0322 55.1702 36.2034 55.2412C36.3172 55.2887 36.4393 55.3129 36.5625 55.3125C36.8111 55.3124 37.0495 55.2136 37.2253 55.0378L42.5756 49.6875H54.375C55.6177 49.686 56.8092 49.1917 57.6879 48.3129C58.5667 47.4342 59.061 46.2427 59.0625 45V22.5C59.061 21.2573 58.5667 20.0658 57.6879 19.1871C56.8092 18.3083 55.6177 17.814 54.375 17.8125ZM5.625 34.6875C4.87908 34.6875 4.16371 34.3912 3.63626 33.8637C3.10882 33.3363 2.8125 32.6209 2.8125 31.875V11.25C2.8125 10.5041 3.10882 9.78871 3.63626 9.26126C4.16371 8.73382 4.87908 8.4375 5.625 8.4375H37.5C38.2459 8.4375 38.9613 8.73382 39.4887 9.26126C40.0162 9.78871 40.3125 10.5041 40.3125 11.25V17.8125H22.5C21.621 17.815 20.7608 18.067 20.0194 18.5391C19.5413 18.1883 18.9867 17.9558 18.4014 17.8609C17.816 17.7659 17.2165 17.8112 16.652 17.9929C16.0875 18.1746 15.5741 18.4876 15.1541 18.9062C14.734 19.3247 14.4192 19.837 14.2355 20.4008C14.0518 20.9647 14.0044 21.564 14.0973 22.1497C14.1901 22.7354 14.4206 23.2908 14.7697 23.7701C15.1188 24.2495 15.5766 24.6392 16.1055 24.9074C16.6345 25.1755 17.2195 25.3143 17.8125 25.3125V34.6875H5.625ZM17.8125 22.5V23.4375C17.5303 23.4389 17.2514 23.3765 16.9966 23.2551C16.7418 23.1336 16.5177 22.9562 16.3411 22.7361C16.1644 22.516 16.0397 22.2588 15.9763 21.9838C15.9129 21.7088 15.9124 21.423 15.9748 21.1477C16.0373 20.8725 16.161 20.6149 16.3369 20.3941C16.5128 20.1734 16.7362 19.9952 16.9906 19.8729C17.2449 19.7505 17.5236 19.6872 17.8058 19.6875C18.0881 19.6879 18.3666 19.752 18.6206 19.875C18.0938 20.649 17.8122 21.5637 17.8125 22.5ZM57.1875 45C57.1875 45.7459 56.8912 46.4613 56.3637 46.9887C55.8363 47.5162 55.1209 47.8125 54.375 47.8125H42.1875C41.9389 47.8126 41.7005 47.9114 41.5247 48.0872L37.5 52.1119V48.75C37.5 48.5014 37.4012 48.2629 37.2254 48.0871C37.0496 47.9113 36.8111 47.8125 36.5625 47.8125H22.5C21.7541 47.8125 21.0387 47.5162 20.5113 46.9887C19.9838 46.4613 19.6875 45.7459 19.6875 45V22.5C19.6875 21.7541 19.9838 21.0387 20.5113 20.5113C21.0387 19.9838 21.7541 19.6875 22.5 19.6875H54.375C55.1209 19.6875 55.8363 19.9838 56.3637 20.5113C56.8912 21.0387 57.1875 21.7541 57.1875 22.5V45Z" fill="#256BFE"/>
<path d="M38.4375 21.5625C36.027 21.5625 33.6707 22.2773 31.6665 23.6165C29.6623 24.9556 28.1002 26.8591 27.1777 29.086C26.2553 31.313 26.0139 33.7635 26.4842 36.1277C26.9544 38.4918 28.1152 40.6634 29.8196 42.3679C31.5241 44.0723 33.6957 45.2331 36.0598 45.7033C38.424 46.1736 40.8745 45.9322 43.1015 45.0098C45.3284 44.0873 47.2319 42.5252 48.571 40.521C49.9102 38.5168 50.625 36.1605 50.625 33.75C50.6213 30.5188 49.3361 27.421 47.0513 25.1362C44.7665 22.8515 41.6687 21.5662 38.4375 21.5625ZM38.4375 44.0625C36.3979 44.0625 34.4041 43.4577 32.7082 42.3245C31.0123 41.1914 29.6905 39.5808 28.91 37.6964C28.1295 35.8121 27.9252 33.7386 28.3232 31.7381C28.7211 29.7377 29.7032 27.9002 31.1455 26.458C32.5877 25.0157 34.4252 24.0336 36.4256 23.6357C38.4261 23.2377 40.4996 23.442 42.3839 24.2225C44.2683 25.003 45.8789 26.3248 47.012 28.0207C48.1452 29.7166 48.75 31.7104 48.75 33.75C48.7468 36.4841 47.6593 39.1052 45.726 41.0385C43.7927 42.9717 41.1716 44.0593 38.4375 44.0625Z" fill="#256BFE"/>
<path d="M38.4375 25.3125C36.7687 25.3125 35.1374 25.8074 33.7499 26.7345C32.3623 27.6616 31.2809 28.9794 30.6423 30.5211C30.0037 32.0629 29.8366 33.7594 30.1621 35.3961C30.4877 37.0328 31.2913 38.5362 32.4713 39.7162C33.6513 40.8962 35.1547 41.6998 36.7914 42.0254C38.4281 42.3509 40.1246 42.1838 41.6664 41.5452C43.2081 40.9066 44.5259 39.8252 45.453 38.4376C46.3802 37.0501 46.875 35.4188 46.875 33.75C46.8725 31.513 45.9828 29.3683 44.401 27.7865C42.8192 26.2047 40.6745 25.315 38.4375 25.3125ZM38.4375 40.3125C37.1396 40.3125 35.8708 39.9276 34.7916 39.2065C33.7124 38.4854 32.8712 37.4605 32.3745 36.2614C31.8778 35.0622 31.7479 33.7427 32.0011 32.4697C32.2543 31.1967 32.8793 30.0274 33.7971 29.1096C34.7149 28.1918 35.8842 27.5668 37.1572 27.3136C38.4302 27.0604 39.7497 27.1903 40.9489 27.687C42.148 28.1837 43.1729 29.0249 43.894 30.1041C44.6151 31.1833 45 32.4521 45 33.75C44.998 35.4899 44.306 37.1579 43.0757 38.3882C41.8454 39.6185 40.1774 40.3105 38.4375 40.3125Z" fill="#256BFE"/>
<path d="M39.375 29.0625H37.5V33.75C37.5001 33.9986 37.5989 34.237 37.7747 34.4128L40.5872 37.2253L41.9128 35.8997L39.375 33.3619V29.0625Z" fill="#256BFE"/>
<path d="M8.4375 17.8125C7.69582 17.8125 6.9708 18.0324 6.35411 18.4445C5.73743 18.8565 5.25678 19.4422 4.97295 20.1274C4.68912 20.8127 4.61486 21.5667 4.75956 22.2941C4.90425 23.0215 5.2614 23.6897 5.78585 24.2141C6.3103 24.7386 6.97848 25.0958 7.70591 25.2404C8.43334 25.3851 9.18734 25.3109 9.87256 25.027C10.5578 24.7432 11.1435 24.2626 11.5555 23.6459C11.9676 23.0292 12.1875 22.3042 12.1875 21.5625C12.1875 20.5679 11.7924 19.6141 11.0892 18.9109C10.3859 18.2076 9.43206 17.8125 8.4375 17.8125ZM8.4375 23.4375C8.06666 23.4375 7.70415 23.3275 7.39581 23.1215C7.08747 22.9155 6.84714 22.6226 6.70523 22.28C6.56331 21.9374 6.52618 21.5604 6.59853 21.1967C6.67088 20.833 6.84945 20.4989 7.11168 20.2367C7.3739 19.9745 7.70799 19.7959 8.07171 19.7235C8.43542 19.6512 8.81242 19.6883 9.15503 19.8302C9.49764 19.9721 9.79048 20.2125 9.99651 20.5208C10.2025 20.8291 10.3125 21.1917 10.3125 21.5625C10.3125 22.0598 10.115 22.5367 9.76333 22.8883C9.4117 23.24 8.93478 23.4375 8.4375 23.4375Z" fill="#256BFE"/>
</svg>
