<svg width="60" height="60" viewBox="0 0 60 60" fill="none" xmlns="http://www.w3.org/2000/svg">
<g clip-path="url(#clip0_57_28)">
<path d="M59.0735 27.5469V32.4441C59.0735 32.9655 58.7184 33.4198 58.2127 33.5458L54.612 34.4427C54.1929 34.5471 53.8784 34.8832 53.7847 35.3048C53.1641 38.1006 52.0662 40.7166 50.5763 43.0615C50.345 43.4254 50.3305 43.8837 50.5521 44.2535L52.4618 47.4406C52.7292 47.8869 52.659 48.4579 52.2915 48.8262L48.8317 52.2926C48.4631 52.6619 47.8903 52.7324 47.4431 52.4636L44.2587 50.5491C43.8886 50.3265 43.4295 50.3408 43.065 50.5724C40.7213 52.0621 38.1122 53.1598 35.3175 53.7803C34.8964 53.8738 34.5606 54.1878 34.4558 54.6061L33.5511 58.2184C33.4246 58.7236 32.9706 59.078 32.4498 59.078H27.5506C27.0298 59.078 26.5758 58.7236 26.4492 58.2184L25.5445 54.6061C25.4398 54.1878 25.1038 53.8738 24.6827 53.7803C21.8888 53.1599 19.2807 52.0626 16.9439 50.5733C16.5796 50.3412 16.1203 50.3264 15.7499 50.5486L12.5568 52.4645C12.1097 52.7328 11.5373 52.6621 11.169 52.2931L7.7086 48.8262C7.34098 48.4579 7.27079 47.8869 7.53832 47.4406L9.42914 44.2851C9.66047 43.899 9.63211 43.4202 9.37805 43.0487C7.84219 40.8026 6.82125 38.1042 6.21481 35.3106C6.12246 34.8852 5.80395 34.5463 5.38161 34.4411L1.78746 33.5458C1.28157 33.4198 0.926605 32.9655 0.926605 32.4441V27.5469C0.926605 27.0256 1.28168 26.5712 1.78746 26.4453L5.3843 25.5492C5.80524 25.4444 6.12118 25.1062 6.21446 24.6824C6.82934 21.889 7.93254 19.2753 9.422 16.9321C9.65414 16.5669 9.66856 16.1063 9.44578 15.7353L7.53926 12.5598C7.27125 12.1135 7.34121 11.5419 7.70907 11.1734L11.1684 7.70745C11.537 7.33819 12.1098 7.26764 12.557 7.53647L15.7393 9.44967C16.1106 9.6728 16.571 9.65768 16.9359 9.42425C19.2737 7.92858 21.8888 6.83089 24.6904 6.21061C25.1121 6.11721 25.4487 5.80245 25.5531 5.38327L26.45 1.78292C26.576 1.27702 27.0304 0.922058 27.5517 0.922058H32.4488C32.9701 0.922058 33.4245 1.27714 33.5504 1.78292L34.4464 5.37987C34.5513 5.80081 34.8895 6.11675 35.3133 6.21003C38.1069 6.82503 40.7209 7.92835 43.0643 9.41803C43.4292 9.64995 43.8894 9.6646 44.2603 9.44229L47.4438 7.53471C47.8909 7.26682 48.4628 7.33772 48.831 7.70651L52.2912 11.1733C52.659 11.5418 52.729 12.1133 52.461 12.5597L50.5545 15.7351C50.3317 16.1062 50.3461 16.5668 50.5782 16.932C52.0677 19.2751 53.1709 21.8889 53.7858 24.6823C53.8791 25.1059 54.195 25.4442 54.6159 25.5491L58.2128 26.4451C58.7184 26.5712 59.0735 27.0256 59.0735 27.5469Z" fill="#F77953"/>
<path d="M48.088 29.995C48.088 39.9854 39.9872 48.0863 30.0034 48.0863C20.0129 48.0863 11.9121 39.9854 11.9121 29.995C11.9121 20.0045 20.0129 11.9104 30.0034 11.9104C39.9871 11.9104 48.088 20.0045 48.088 29.995Z" fill="white"/>
<path d="M21.8403 41.9283C21.4984 41.9283 21.2217 41.6513 21.2217 41.3097V35.6808C21.2217 35.3391 21.4984 35.0622 21.8403 35.0622C22.1823 35.0622 22.459 35.3392 22.459 35.6808V41.3097C22.4591 41.6513 22.1824 41.9283 21.8403 41.9283Z" fill="#84405F"/>
<path d="M21.8403 29.6918C21.4984 29.6918 21.2217 29.4148 21.2217 29.0732V18.6906C21.2217 18.3489 21.4984 18.072 21.8403 18.072C22.1823 18.072 22.459 18.349 22.459 18.6906V29.0732C22.4591 29.4148 22.1824 29.6918 21.8403 29.6918Z" fill="#84405F"/>
<path d="M29.9999 24.9379C29.6579 24.9379 29.3813 24.6608 29.3813 24.3192V18.6907C29.3813 18.349 29.6579 18.0721 29.9999 18.0721C30.3418 18.0721 30.6185 18.3491 30.6185 18.6907V24.3192C30.6185 24.6608 30.3418 24.9379 29.9999 24.9379Z" fill="#84405F"/>
<path d="M29.9999 41.9283C29.6579 41.9283 29.3813 41.6513 29.3813 41.3097V30.9269C29.3813 30.5851 29.6579 30.3082 29.9999 30.3082C30.3418 30.3082 30.6185 30.5853 30.6185 30.9269V41.3097C30.6185 41.6513 30.3418 41.9283 29.9999 41.9283Z" fill="#84405F"/>
<path d="M38.16 41.9283C37.8181 41.9283 37.5414 41.6513 37.5414 41.3097V34.8809C37.5414 34.5392 37.8181 34.2623 38.16 34.2623C38.502 34.2623 38.7786 34.5393 38.7786 34.8809V41.3097C38.7786 41.6513 38.502 41.9283 38.16 41.9283Z" fill="#84405F"/>
<path d="M38.16 28.8919C37.8181 28.8919 37.5414 28.6149 37.5414 28.2732V18.6906C37.5414 18.3489 37.8181 18.072 38.16 18.072C38.502 18.072 38.7786 18.349 38.7786 18.6906V28.2732C38.7786 28.6149 38.502 28.8919 38.16 28.8919Z" fill="#84405F"/>
<path opacity="0.1" d="M43.7248 18.2262C40.5633 15.5039 36.4491 13.8645 31.9575 13.8645C21.972 13.8645 13.8671 21.9629 13.8671 31.9485C13.8671 36.4587 15.519 40.5791 18.2536 43.7467C14.3745 40.4305 11.9121 35.4997 11.9121 29.9934C11.9121 20.0017 20.0107 11.9093 30.0023 11.9093C35.4962 11.9094 40.4148 14.3595 43.7248 18.2262Z" fill="black"/>
<path d="M21.8402 35.6808C23.6649 35.6808 25.144 34.2017 25.144 32.3771C25.144 30.5524 23.6649 29.0733 21.8402 29.0733C20.0156 29.0733 18.5365 30.5524 18.5365 32.3771C18.5365 34.2017 20.0156 35.6808 21.8402 35.6808Z" fill="#F77953"/>
<path d="M30 30.9268C31.8246 30.9268 33.3038 29.4476 33.3038 27.623C33.3038 25.7984 31.8246 24.3193 30 24.3193C28.1754 24.3193 26.6963 25.7984 26.6963 27.623C26.6963 29.4476 28.1754 30.9268 30 30.9268Z" fill="#4F8AFF"/>
<path d="M38.1598 34.8808C39.9844 34.8808 41.4635 33.4016 41.4635 31.577C41.4635 29.7524 39.9844 28.2733 38.1598 28.2733C36.3352 28.2733 34.856 29.7524 34.856 31.577C34.856 33.4016 36.3352 34.8808 38.1598 34.8808Z" fill="#543843"/>
</g>
<defs>
<clipPath id="clip0_57_28">
<rect width="60" height="60" fill="white"/>
</clipPath>
</defs>
</svg>
