<svg width="60" height="60" viewBox="0 0 60 60" fill="none" xmlns="http://www.w3.org/2000/svg">
<g clip-path="url(#clip0_57_49)">
<path d="M25.1513 0C18.4983 0 13.1053 5.39297 13.1053 12.0459V16.8128C13.9104 16.0665 15.0557 15.6609 16.1738 15.8102V15.21C16.1738 14.7328 16.5812 14.3559 17.0536 14.3917C21.7109 14.7262 26.4506 13.2463 30.0343 10.9052C30.3689 10.6866 30.8119 10.7409 31.0838 11.0332C34.1476 14.3265 34.1291 14.1991 34.1291 14.629V15.8077C35.3547 15.624 36.4417 16.0027 37.197 16.7048V12.0458C37.1971 5.39309 31.8042 0 25.1513 0Z" fill="#576574"/>
<path d="M15.52 12.0459C15.52 5.80055 20.2725 0.665625 26.3585 0.06C25.9614 0.0205078 25.5587 0 25.1513 0C18.4983 0 13.1053 5.39297 13.1053 12.0459V16.8128C13.7536 16.212 14.6224 15.8325 15.52 15.7853V12.0459Z" fill="#3E4B5A"/>
<path d="M33.9696 15.329V21.9277C33.9696 21.9992 33.9659 22.0699 33.9641 22.1411C36.2993 22.4947 38.1281 20.8074 38.1281 18.7353C38.1282 16.6591 36.2978 14.98 33.9696 15.329Z" fill="#F2BB88"/>
<path d="M16.3334 21.9278V15.3316C14.3004 15.0601 12.1747 16.6203 12.1747 18.7355C12.1747 20.8049 13.9996 22.4952 16.3386 22.1412C16.3369 22.0699 16.3334 21.999 16.3334 21.9278Z" fill="#F2BB88"/>
<path d="M36.3843 15.7491C35.7072 15.366 34.8765 15.1931 33.9696 15.3291V21.9278C33.9696 21.9993 33.9659 22.0699 33.9641 22.1412C34.8739 22.279 35.7063 22.1059 36.3841 21.7219V15.7491H36.3843Z" fill="#E3A76F"/>
<path d="M16.3334 21.7223C15.2707 21.1206 14.5894 19.9992 14.5894 18.7353C14.5894 17.4958 15.3198 16.4476 16.3334 15.8462V15.3315C14.3004 15.06 12.1747 16.6202 12.1747 18.7353C12.1747 20.8048 13.9996 22.4951 16.3386 22.141C16.3369 22.0699 16.3335 21.9989 16.3335 21.9276L16.3334 21.7223Z" fill="#E3A76F"/>
<path d="M25.2796 30.6177C23.3334 30.6177 21.6232 30.0834 20.2245 29.1896V33.9172L25.2579 40.1303L30.2913 33.9172V29.0564C28.8654 30.04 27.139 30.6177 25.2796 30.6177Z" fill="#F2BB88"/>
<path d="M22.6391 30.2638C21.7579 30.018 20.949 29.6526 20.2245 29.1896V33.9172L22.6391 36.8976V30.2638Z" fill="#E3A76F"/>
<path d="M43.6071 38.755L30.2913 33.5981L25.258 39.8112L20.2245 33.5981L6.92262 38.755C6.92262 38.755 1.9977 40.7797 1.9977 46.3941V58.8544C1.9977 59.4871 2.51063 60 3.14332 60H47.3964C48.0236 60 48.532 59.4915 48.532 58.8644V46.3941C48.5322 40.7796 43.6071 38.755 43.6071 38.755Z" fill="#E4EAF8"/>
<path d="M4.41223 58.8544V45.1868C4.41223 41.5315 6.49957 39.3982 7.95644 38.3542L6.9225 38.755C6.9225 38.755 1.99746 40.7796 1.99746 46.3941V58.8544C1.99746 59.4871 2.51039 60 3.14308 60H5.55773C4.92515 60 4.41223 59.4871 4.41223 58.8544Z" fill="#D8DCE5"/>
<path d="M31.0839 10.7141C30.812 10.4219 30.3689 10.3676 30.0343 10.5862C26.4506 12.9272 21.7109 14.4072 17.0536 14.0726C16.5812 14.0369 16.1738 14.4137 16.1738 14.8909V22.0873C16.1738 26.7124 19.7978 30.9368 25.2796 30.9368C30.1593 30.9368 34.1292 26.9669 34.1292 22.0873V14.3099C34.1292 13.8801 34.1477 14.0074 31.0839 10.7141Z" fill="#F2D1A5"/>
<path d="M18.5884 22.0874V14.1173C18.0769 14.1231 17.5648 14.1095 17.0536 14.0727C16.5812 14.0368 16.1738 14.4138 16.1738 14.891V22.0874C16.1738 26.7125 19.7978 30.9369 25.2796 30.9369C25.6451 30.9369 26.0047 30.9119 26.3589 30.8687C21.9866 30.3343 18.5884 26.6013 18.5884 22.0874Z" fill="#F2BB88"/>
<path d="M31.3355 43.0036L35.0994 35.4601L30.2914 33.598L25.258 39.8111L30.1655 43.2963C30.5625 43.5785 31.1179 43.4395 31.3355 43.0036Z" fill="#D8DCE5"/>
<path d="M19.1873 43.0036L15.4234 35.4601L20.2314 33.598L25.2648 39.8111L20.3573 43.2963C19.9602 43.5785 19.405 43.4395 19.1873 43.0036Z" fill="#D8DCE5"/>
<path d="M25.2645 39.8154V39.811L25.2614 39.8131L25.2584 39.811V39.8154L21.6891 42.3504L23.3762 44.8896C24.7373 44.8896 25.7856 44.8896 27.1466 44.8896L28.8338 42.3504L25.2645 39.8154Z" fill="#EE5253"/>
<path d="M20.8187 60H29.7041L27.1466 44.8896C25.7855 44.8896 24.7372 44.8896 23.3762 44.8896L20.8187 60Z" fill="#FF6B6B"/>
<path d="M26.4687 40.6706L25.2643 39.8154V39.811L25.2613 39.8131L25.2582 39.811V39.8154L21.6889 42.3504L23.3761 44.8896C24.0123 44.8896 24.4087 44.8896 25.7907 44.8896L24.4772 42.9126C24.2689 42.5993 24.3472 42.1773 24.654 41.9594L26.4687 40.6706Z" fill="#D83941"/>
<path d="M23.3762 44.8896L20.8187 60H23.2334L25.7909 44.8896C24.4085 44.8896 24.0137 44.8896 23.3762 44.8896Z" fill="#EE5253"/>
<path d="M11.2923 60V48.3238C11.2923 47.8237 10.887 47.4183 10.3868 47.4183C9.88664 47.4183 9.48129 47.8236 9.48129 48.3238V60H11.2923Z" fill="#D8DCE5"/>
<path d="M41.0626 60V51.9451C41.0626 51.4451 40.6573 51.0396 40.1571 51.0396C39.6571 51.0396 39.2516 51.445 39.2516 51.9451V60H41.0626Z" fill="#D8DCE5"/>
<path d="M46.3155 55.1303C39.8713 55.1303 34.6286 49.8874 34.6286 43.4433C34.6286 36.9991 39.8714 31.7563 46.3155 31.7563C52.7597 31.7563 58.0025 36.9991 58.0025 43.4433C58.0025 49.8874 52.7598 55.1303 46.3155 55.1303Z" fill="#15BA8B"/>
<path d="M37.0432 43.4431C37.0432 37.4066 41.6439 32.4243 47.5229 31.8183C40.5925 31.1035 34.6286 36.5631 34.6286 43.4431C34.6286 49.8874 39.8713 55.1301 46.3155 55.1301C46.7231 55.1301 47.1259 55.1089 47.5228 55.068C41.6439 54.4619 37.0432 49.4798 37.0432 43.4431Z" fill="#11AA7B"/>
<path d="M46.3156 34.9413C41.6276 34.9413 37.8136 38.7553 37.8136 43.4433C37.8136 48.1313 41.6276 51.9453 46.3156 51.9453C51.0035 51.9453 54.8175 48.1313 54.8175 43.4433C54.8175 38.7553 51.0035 34.9413 46.3156 34.9413Z" fill="#3FEFBC"/>
<path d="M40.2284 43.4432C40.2284 39.1651 43.405 35.6167 47.5229 35.0285C42.3667 34.2918 37.8137 38.3114 37.8137 43.4432C37.8137 48.1311 41.6277 51.9451 46.3157 51.9451C46.7256 51.9451 47.1284 51.9143 47.5229 51.8579C43.405 51.2697 40.2284 47.7212 40.2284 43.4432Z" fill="#1DD1A1"/>
<path d="M45.1254 46.1337L43.0021 44.0526C42.645 43.7025 42.6391 43.1292 42.9892 42.7721C43.3393 42.415 43.9125 42.4092 44.2697 42.7592L45.761 44.2208L49.3209 40.751C49.6789 40.4019 50.2522 40.4093 50.6014 40.7674C50.9505 41.1256 50.9432 41.6989 50.585 42.0478L46.3914 46.1355C46.0391 46.4787 45.4772 46.4783 45.1254 46.1337Z" fill="#E4EAF8"/>
</g>
<defs>
<clipPath id="clip0_57_49">
<rect width="60" height="60" fill="white"/>
</clipPath>
</defs>
</svg>
