<svg width="60" height="60" viewBox="0 0 60 60" fill="none" xmlns="http://www.w3.org/2000/svg">
<g clip-path="url(#clip0_57_94)">
<path d="M33.8013 33.4992L8.9332 58.3686C6.91858 60.381 3.65564 60.3943 1.62728 58.3686C1.61034 58.3513 1.59341 58.3343 1.57601 58.316C-0.386425 56.2973 -0.36903 53.0595 1.62728 51.0627L26.4967 26.1933C27.2127 25.476 28.3758 25.4773 29.0932 26.1933C29.3706 26.4712 27.7693 24.8694 33.8013 30.9028C34.5186 31.6192 34.5186 32.7833 33.8013 33.4992Z" fill="#0FA9DD"/>
<path d="M33.8013 33.4992L8.93324 58.3686C6.91862 60.381 3.65567 60.3943 1.62732 58.3686C1.61038 58.3513 1.59344 58.3343 1.57605 58.316L31.3957 28.4963L33.8013 30.9028C34.5186 31.6192 34.5186 32.7833 33.8013 33.4992Z" fill="#0D91BD"/>
<path d="M53.7365 35.8851C45.5123 44.1093 32.1286 44.1102 23.9035 35.8851C15.6784 27.66 15.6793 14.2763 23.9035 6.05211C32.1286 -2.17301 45.5123 -2.17392 53.7374 6.05119C61.9625 14.2763 61.9616 27.66 53.7365 35.8851Z" fill="#5ECEF4"/>
<path d="M53.7365 35.8851C45.5123 44.1093 32.1286 44.1102 23.9035 35.8851L53.7374 6.05119C61.9625 14.2763 61.9616 27.66 53.7365 35.8851Z" fill="#0FA9DD"/>
<path d="M51.1396 33.2882C44.3468 40.0805 33.2941 40.0814 26.5004 33.2882C19.7072 26.4945 19.7081 15.4413 26.5004 8.649C33.2941 1.85532 44.3468 1.85441 51.1405 8.64809C57.9337 15.4413 57.9328 26.4945 51.1396 33.2882Z" fill="#EDF0F5"/>
<path d="M51.1395 33.2882C44.3468 40.0805 33.294 40.0814 26.5004 33.2882L51.1405 8.64809C57.9337 15.4413 57.9328 26.4945 51.1395 33.2882Z" fill="#D8DCEB"/>
<path d="M51.6747 20.9487C51.6504 21.075 51.9278 25.5437 48.3504 29.3271C43.5439 34.4111 35.4606 34.4083 30.6582 29.3267C26.2298 24.6415 26.2207 17.3053 30.6582 12.6105C33.7134 9.37777 38.1665 8.15004 42.296 9.12004C43.83 9.47985 44.6063 11.1974 43.8767 12.5936C43.4518 13.407 42.616 13.8913 41.7274 13.8913C41.5434 13.8913 41.3571 13.8707 41.1717 13.8277C38.6842 13.2482 36.0095 13.9934 34.1757 15.9339C31.5033 18.7592 31.506 23.1812 34.1757 26.0038C37.0692 29.0667 41.9417 29.0653 44.8334 26.0038C45.5818 25.2128 46.1554 24.2547 46.4937 23.1908H42.4457C41.2898 23.1908 40.3528 22.2538 40.3528 21.0984C40.3528 19.943 41.2894 19.0059 42.4457 19.0059H49.7145C50.7898 19.0059 51.6733 19.8725 51.6747 20.9487Z" fill="#FFDA44"/>
<path d="M51.6747 20.9487V20.9684C51.6747 24.0862 50.4936 27.0603 48.3504 29.3271C46.0643 31.7451 42.8265 33.2044 39.256 33.1362V28.2958C41.456 28.3663 43.4418 27.4764 44.8334 26.0033C45.5818 25.2123 46.1554 24.2542 46.4937 23.1904H42.4457C41.2898 23.1904 40.3528 22.2533 40.3528 21.0979C40.3528 19.9425 41.2894 19.0055 42.4457 19.0055H49.7145C50.7898 19.0059 51.6733 19.8725 51.6747 20.9487Z" fill="#0FA9DD"/>
<path d="M43.8771 12.5936C43.364 13.5759 42.2512 14.0786 41.1717 13.8272C38.6925 13.2509 36.0164 13.9856 34.1757 15.9339L30.6583 12.6105C33.7203 9.37044 38.1748 8.15233 42.296 9.12004C43.8295 9.48031 44.6059 11.1974 43.8771 12.5936Z" fill="#FF6426"/>
<path d="M48.3504 29.3271C43.543 34.412 35.4611 34.4083 30.6583 29.3267L34.1757 26.0038C37.0702 29.0667 41.9412 29.0658 44.8334 26.0038L48.3504 29.3271Z" fill="#6FBF6B"/>
</g>
<defs>
<clipPath id="clip0_57_94">
<rect width="60" height="60" fill="white"/>
</clipPath>
</defs>
</svg>
