<svg width="60" height="60" viewBox="0 0 60 60" fill="none" xmlns="http://www.w3.org/2000/svg">
<path fill-rule="evenodd" clip-rule="evenodd" d="M40.8397 39.9178L21.6991 40.1632L17.4466 47.4604C17.2598 47.781 17.5125 48.1326 17.8329 48.1326H44.8487C45.1691 48.1326 45.4218 47.781 45.235 47.4604L40.8397 39.9178Z" fill="#003748"/>
<path fill-rule="evenodd" clip-rule="evenodd" d="M56.0134 1.05481C57.5953 1.05481 58.8898 2.34903 58.8898 3.93118V38.557C58.8898 40.1392 57.5953 41.4335 56.0134 41.4335H6.66824C5.08621 41.4335 3.79187 40.1393 3.79187 38.557V3.93118C3.79187 2.34903 5.08632 1.05481 6.66824 1.05481H56.0134Z" fill="#E6F8FF"/>
<path fill-rule="evenodd" clip-rule="evenodd" d="M58.8899 36.6174H3.79187V38.5572C3.79187 40.1393 5.08632 41.4335 6.66824 41.4335H56.0134C57.5953 41.4335 58.8898 40.1393 58.8898 38.5572V36.6174H58.8899Z" fill="#004960"/>
<path fill-rule="evenodd" clip-rule="evenodd" d="M44.195 24.2895H46.8018C47.1703 24.2895 47.4709 24.5901 47.4709 24.9586V34.8328C47.4709 35.2014 47.1703 35.502 46.8018 35.502H44.195C43.8264 35.502 43.5258 35.2014 43.5258 34.8328V24.9586C43.5257 24.5901 43.8264 24.2895 44.195 24.2895Z" fill="#FFDA2D"/>
<path fill-rule="evenodd" clip-rule="evenodd" d="M37.3056 21.0143H39.9123C40.2809 21.0143 40.5815 21.3149 40.5815 21.6835V34.8327C40.5815 35.2013 40.2809 35.5019 39.9123 35.5019H37.3056C36.9371 35.5019 36.6365 35.2013 36.6365 34.8327V21.6835C36.6365 21.3149 36.9371 21.0143 37.3056 21.0143Z" fill="#72D561"/>
<path fill-rule="evenodd" clip-rule="evenodd" d="M30.4163 28.63H33.023C33.3915 28.63 33.6921 28.9306 33.6921 29.2991V34.8327C33.6921 35.2013 33.3915 35.5019 33.023 35.5019H30.4163C30.0477 35.5019 29.7471 35.2013 29.7471 34.8327V29.2991C29.7471 28.9306 30.0477 28.63 30.4163 28.63Z" fill="#FC685B"/>
<path fill-rule="evenodd" clip-rule="evenodd" d="M51.0842 17.9286H53.691C54.0595 17.9286 54.3601 18.2292 54.3601 18.5978V34.8327C54.3601 35.2013 54.0595 35.5019 53.691 35.5019H51.0842C50.7157 35.5019 50.4151 35.2013 50.4151 34.8327V18.5978C50.415 18.2292 50.7156 17.9286 51.0842 17.9286Z" fill="#64B5F6"/>
<path fill-rule="evenodd" clip-rule="evenodd" d="M32.4237 24.8567C32.1234 25.2455 31.5647 25.3172 31.1759 25.017C30.787 24.7167 30.7152 24.158 31.0155 23.7692L37.9049 14.8119C38.1968 14.4339 38.733 14.3556 39.12 14.6276L45.4094 18.8424L50.4179 14.2181L49.7375 14.1862C49.2466 14.1631 48.8675 13.7463 48.8906 13.2556C48.9137 12.7648 49.3304 12.3856 49.8212 12.4087L52.7253 12.5454C53.2162 12.5685 53.5953 12.9852 53.5723 13.476C53.5697 13.5311 53.5621 13.5847 53.55 13.6365L53.0386 16.4516C52.952 16.9348 52.49 17.2562 52.0069 17.1696C51.5237 17.083 51.2023 16.6211 51.2889 16.1379L51.3544 15.7777L46.1012 20.6278L46.1005 20.627C45.8052 20.8992 45.3517 20.9447 45.0033 20.7114L38.806 16.5585L32.4237 24.8567Z" fill="#64B5F6"/>
<path fill-rule="evenodd" clip-rule="evenodd" d="M29.7471 6.50578C29.2543 6.50578 28.8549 6.10629 28.8549 5.61352C28.8549 5.12074 29.2543 4.72125 29.7471 4.72125H43.2067C43.6995 4.72125 44.099 5.12074 44.099 5.61352C44.099 6.10629 43.6995 6.50578 43.2067 6.50578H29.7471ZM9.1806 33.9357C8.68782 33.9357 8.28833 33.5363 8.28833 33.0435C8.28833 32.5507 8.68782 32.1512 9.1806 32.1512H23.6639C24.1567 32.1512 24.5562 32.5507 24.5562 33.0435C24.5562 33.5363 24.1567 33.9357 23.6639 33.9357H9.1806ZM9.1806 30.2539C8.68982 30.2539 8.29185 29.856 8.29185 29.3652C8.29185 28.8744 8.68982 28.4764 9.1806 28.4764H23.6639C24.1548 28.4764 24.5527 28.8744 24.5527 29.3652C24.5527 29.856 24.1547 30.2539 23.6639 30.2539H9.1806ZM9.1806 26.5792C8.68782 26.5792 8.28833 26.1797 8.28833 25.6869C8.28833 25.1941 8.68782 24.7947 9.1806 24.7947H23.6639C24.1567 24.7947 24.5562 25.1941 24.5562 25.6869C24.5562 26.1797 24.1567 26.5792 23.6639 26.5792H9.1806ZM29.7471 13.8623C29.2543 13.8623 28.8549 13.4629 28.8549 12.9701C28.8549 12.4773 29.2543 12.0778 29.7471 12.0778H43.2067C43.6995 12.0778 44.099 12.4773 44.099 12.9701C44.099 13.4629 43.6995 13.8623 43.2067 13.8623H29.7471ZM29.7471 10.1807C29.2563 10.1807 28.8584 9.7827 28.8584 9.29192C28.8584 8.80114 29.2563 8.40317 29.7471 8.40317H43.2067C43.6976 8.40317 44.0954 8.80114 44.0954 9.29192C44.0954 9.7827 43.6975 10.1807 43.2067 10.1807H29.7471Z" fill="#8D9CA8"/>
<path d="M24.9763 16.0238C26.3328 11.3006 23.6035 6.37197 18.8803 5.01546C14.1571 3.65895 9.22847 6.3882 7.87196 11.1114C6.51544 15.8346 9.2447 20.7632 13.9679 22.1198C18.6911 23.4763 23.6197 20.747 24.9763 16.0238Z" fill="#64B5F6"/>
<path fill-rule="evenodd" clip-rule="evenodd" d="M16.4222 4.65985L16.4221 13.5592L24.5956 17.0851C25.0627 16.004 25.3215 14.8118 25.3215 13.5591C25.3216 8.64423 21.3372 4.65985 16.4222 4.65985Z" fill="#FFDA2D"/>
<path fill-rule="evenodd" clip-rule="evenodd" d="M24.5957 17.0853L16.4222 13.5592L11.0782 20.676C12.5664 21.7951 14.4168 22.4585 16.4222 22.4585C20.0846 22.4584 23.2301 20.2463 24.5957 17.0853Z" fill="#72D561"/>
<path fill-rule="evenodd" clip-rule="evenodd" d="M16.4223 17.2941C18.4795 17.2941 20.1574 15.6163 20.1574 13.559C20.1574 11.5018 18.4795 9.82391 16.4223 9.82391C14.3651 9.82391 12.6873 11.5018 12.6873 13.559C12.6873 15.6164 14.3651 17.2941 16.4223 17.2941Z" fill="#EFF4F7"/>
<path fill-rule="evenodd" clip-rule="evenodd" d="M11.0743 50.7993L9.31641 48.9207L12.8688 45.3683L14.7525 47.1211L11.0743 50.7993Z" fill="#8D9CA8"/>
<path d="M28.2405 47.0329C32.4452 42.8282 32.4452 36.011 28.2405 31.8063C24.0357 27.6016 17.2185 27.6016 13.0138 31.8063C8.80911 36.011 8.80911 42.8282 13.0138 47.0329C17.2185 51.2376 24.0357 51.2376 28.2405 47.0329Z" fill="#64B5F6"/>
<path fill-rule="evenodd" clip-rule="evenodd" d="M20.6335 31.4116C16.2096 31.4116 12.6234 34.9979 12.6234 39.4217C12.6234 43.8456 16.2096 47.4319 20.6335 47.4319C25.0573 47.4319 28.6436 43.8457 28.6436 39.4217C28.6436 34.9978 25.0574 31.4116 20.6335 31.4116Z" fill="#E6F8FF"/>
<path fill-rule="evenodd" clip-rule="evenodd" d="M9.77428 47.9427L12.1126 50.2811C12.3543 50.5227 12.3543 50.917 12.1126 51.1587L4.9894 58.2819C4.10499 59.1663 2.65795 59.1663 1.77354 58.2819C0.889126 57.3974 0.889126 55.9505 1.77354 55.0661L8.89667 47.9428C9.13831 47.7011 9.53264 47.701 9.77428 47.9427Z" fill="#C97629"/>
<path fill-rule="evenodd" clip-rule="evenodd" d="M12.1125 51.1587L10.4802 52.7908L7.26447 49.575L8.89677 47.9427C9.13841 47.701 9.53275 47.701 9.77439 47.9427C10.5538 48.7221 11.3332 49.5016 12.1126 50.281C12.3543 50.5227 12.3543 50.917 12.1125 51.1587Z" fill="#DA8C36"/>
</svg>
