<svg width="60" height="60" viewBox="0 0 60 60" fill="none" xmlns="http://www.w3.org/2000/svg">
<path d="M22.5 58.125C33.8909 58.125 43.125 48.8909 43.125 37.5C43.125 26.1091 33.8909 16.875 22.5 16.875C11.1091 16.875 1.875 26.1091 1.875 37.5C1.875 48.8909 11.1091 58.125 22.5 58.125Z" fill="#FC4750"/>
<path d="M22.5 54.375C31.8198 54.375 39.375 46.8198 39.375 37.5C39.375 28.1802 31.8198 20.625 22.5 20.625C13.1802 20.625 5.625 28.1802 5.625 37.5C5.625 46.8198 13.1802 54.375 22.5 54.375Z" fill="#F9F9F9"/>
<path d="M22.5 48.75C28.7132 48.75 33.75 43.7132 33.75 37.5C33.75 31.2868 28.7132 26.25 22.5 26.25C16.2868 26.25 11.25 31.2868 11.25 37.5C11.25 43.7132 16.2868 48.75 22.5 48.75Z" fill="#FC4750"/>
<path d="M22.5 45C26.6421 45 30 41.6421 30 37.5C30 33.3579 26.6421 30 22.5 30C18.3579 30 15 33.3579 15 37.5C15 41.6421 18.3579 45 22.5 45Z" fill="#F9F9F9"/>
<path d="M22.5 41.25C24.5711 41.25 26.25 39.5711 26.25 37.5C26.25 35.4289 24.5711 33.75 22.5 33.75C20.4289 33.75 18.75 35.4289 18.75 37.5C18.75 39.5711 20.4289 41.25 22.5 41.25Z" fill="#FC4750"/>
<path d="M58.0687 14.5313C57.9 13.8375 57.3187 13.2938 56.625 13.1625L48.4687 11.5313L46.8375 3.37501C46.6875 2.66251 46.1625 2.10001 45.4687 1.93126C44.775 1.76251 44.025 1.98751 43.575 2.55001L34.2 13.8C33.825 14.2688 33.675 14.8688 33.825 15.45L35.7 22.95C35.8687 23.625 36.3937 24.15 37.0687 24.3188L44.5687 26.1938C44.7 26.2313 44.85 26.25 45 26.25C45.4312 26.25 45.8625 26.1 46.2 25.8188L57.45 16.4438C58.0125 15.975 58.2375 15.2438 58.0687 14.5313Z" fill="#F6B545"/>
<path d="M22.5 39.375C22.0125 39.375 21.5438 39.1875 21.1688 38.8313C20.4375 38.1 20.4375 36.9188 21.1688 36.1875L49.2938 8.06251C50.025 7.33126 51.2063 7.33126 51.9375 8.06251C52.6688 8.79376 52.6688 9.97501 51.9375 10.7063L23.8125 38.8313C23.4563 39.1875 22.9875 39.375 22.5 39.375Z" fill="#7F4122"/>
</svg>
