<svg width="60" height="60" viewBox="0 0 60 60" fill="none" xmlns="http://www.w3.org/2000/svg">
<g clip-path="url(#clip0_41_310)">
<path d="M29.5608 -0.0458442C29.9996 -0.0439577 30.4383 -0.0458393 30.8771 -0.0480758C33.1353 -0.0501456 35.3556 0.108554 37.5513 0.666493C37.6712 0.696281 37.7911 0.726068 37.9146 0.756759C43.0445 2.06898 47.4936 4.55636 51.3281 8.20311C51.4277 8.29766 51.4277 8.29766 51.5293 8.39412C52.4719 9.29556 53.3238 10.2298 54.1024 11.2763C54.259 11.4859 54.4186 11.693 54.5787 11.9C56.1992 14.0193 58.618 17.4424 58.7695 20.1709C58.7042 20.5467 58.6516 20.6296 58.3594 20.8594C58.1366 20.91 58.1366 20.91 57.8893 20.9193C57.8005 20.9235 57.7118 20.9276 57.6203 20.9319C57.5283 20.9346 57.4362 20.9372 57.3413 20.9399C57.2479 20.9439 57.1545 20.9479 57.0582 20.9521C56.8279 20.9617 56.5976 20.9693 56.3672 20.9766C56.4125 21.1216 56.4578 21.2666 56.5045 21.416C57.2283 23.7986 57.6723 26.2385 57.6751 28.7326C57.6757 28.858 57.6763 28.9833 57.6769 29.1124C57.6786 29.5229 57.6794 29.9333 57.6801 30.3438C57.6807 30.6303 57.6814 30.9168 57.6821 31.2033C57.6833 31.8016 57.684 32.4 57.6844 32.9984C57.6851 33.7663 57.6879 34.5342 57.6912 35.3021C57.6934 35.8928 57.694 36.4834 57.6942 37.074C57.6945 37.3573 57.6955 37.6406 57.697 37.9238C57.699 38.3185 57.6988 38.7132 57.698 39.1079C57.6991 39.2253 57.7002 39.3427 57.7013 39.4637C57.7003 39.6246 57.7003 39.6246 57.6993 39.7887C57.6995 39.8819 57.6997 39.9752 57.6998 40.0712C57.6446 40.3773 57.553 40.4807 57.3047 40.6641C57.0097 40.6947 56.7444 40.705 56.4501 40.6984C56.3673 40.6979 56.2846 40.6974 56.1993 40.6969C55.9354 40.6949 55.6716 40.6905 55.4077 40.686C55.2287 40.6843 55.0496 40.6827 54.8705 40.6812C54.4319 40.6773 53.9933 40.6713 53.5547 40.6641C53.5572 40.7579 53.5596 40.8518 53.5621 40.9485C53.572 41.3786 53.578 41.8086 53.584 42.2388C53.5879 42.3864 53.5919 42.5341 53.5959 42.6862C53.6089 43.9315 53.3765 44.8058 52.5 45.7031C51.769 46.263 51.1454 46.4382 50.2295 46.4209C50.0836 46.4188 49.9377 46.4167 49.7873 46.4145C49.6219 46.4104 49.6219 46.4104 49.4531 46.4062C49.4572 46.5405 49.4613 46.6748 49.4655 46.8132C49.4688 46.9925 49.472 47.1718 49.4751 47.3511C49.4795 47.4833 49.4795 47.4833 49.484 47.6182C49.4931 48.315 49.3936 48.8714 48.9299 49.4229C48.3847 49.8423 48.0216 49.9374 47.3456 49.9333C47.2361 49.9329 47.1266 49.9326 47.0137 49.9322C46.9003 49.9312 46.7868 49.9302 46.6699 49.9292C46.5547 49.9287 46.4394 49.9281 46.3207 49.9276C46.0367 49.9262 45.7527 49.9243 45.4688 49.9219C45.4715 50.0071 45.4742 50.0923 45.477 50.18C45.5187 52.5009 44.8521 54.3506 43.2568 56.0522C41.5648 57.6714 39.5698 57.9273 37.3384 57.9135C37.1297 57.9131 36.9211 57.9127 36.7124 57.9125C36.1662 57.9116 35.62 57.9093 35.0739 57.9067C34.5153 57.9043 33.9568 57.9032 33.3982 57.9021C32.3045 57.8996 31.2109 57.8956 30.1172 57.8906C30.1021 57.9636 30.0871 58.0365 30.0716 58.1117C30.0513 58.2071 30.031 58.3025 30.01 58.4008C29.9901 58.4955 29.9702 58.5902 29.9497 58.6878C29.8707 58.9918 29.7612 59.1786 29.5459 59.4067C29.4594 59.5026 29.4594 59.5026 29.371 59.6004C28.9985 59.9221 28.6735 60.0292 28.1848 60.034C28.0299 60.0363 28.0299 60.0363 27.8719 60.0386C27.7611 60.0388 27.6504 60.0391 27.5363 60.0394C27.4216 60.0401 27.3069 60.0409 27.1887 60.0417C26.9462 60.0429 26.7037 60.0435 26.4612 60.0434C26.091 60.0439 25.7211 60.0482 25.351 60.0526C25.1151 60.0533 24.8792 60.0538 24.6433 60.054C24.533 60.0557 24.4228 60.0574 24.3092 60.0591C23.6454 60.0545 23.2589 59.9782 22.7344 59.5312C22.0591 58.783 22.12 58.1152 22.1118 57.1509C22.1084 57.0186 22.105 56.8864 22.1015 56.7501C22.0946 55.8447 22.1711 55.4201 22.8044 54.7682C23.4426 54.2594 23.9323 54.2367 24.7243 54.2299C24.8282 54.2289 24.9321 54.228 25.0392 54.227C25.2594 54.2254 25.4795 54.2241 25.6997 54.2232C26.0343 54.2212 26.3688 54.2161 26.7034 54.2109C26.9177 54.2097 27.132 54.2087 27.3464 54.2079C27.4455 54.2059 27.5447 54.2038 27.6468 54.2017C28.4674 54.2046 29.0847 54.4232 29.6924 54.9829C29.8732 55.2958 29.9395 55.512 30.0119 55.8604C30.032 55.9553 30.052 56.0503 30.0726 56.1481C30.0873 56.2204 30.102 56.2927 30.1172 56.3672C31.3 56.3627 32.4828 56.3557 33.6655 56.3456C34.2149 56.341 34.7642 56.3372 35.3136 56.3354C35.8447 56.3336 36.3758 56.3296 36.9069 56.324C37.1086 56.3223 37.3102 56.3214 37.5118 56.3213C39.0493 56.3197 40.3276 56.1751 41.6089 55.2383C41.8359 55.0781 41.8359 55.0781 42.085 54.9692C42.3639 54.8099 42.4121 54.6658 42.5391 54.375C42.6498 54.2152 42.7622 54.0566 42.876 53.8989C43.6988 52.6586 43.8243 51.3694 43.9453 49.9219C43.8745 49.9231 43.8036 49.9243 43.7306 49.9256C43.4067 49.9305 43.0827 49.9335 42.7588 49.9365C42.6473 49.9385 42.5358 49.9404 42.421 49.9425C41.5228 49.9487 40.8723 49.8581 40.1953 49.2187C39.941 48.8229 39.931 48.4962 39.9296 48.031C39.9281 47.8097 39.9281 47.8097 39.9266 47.5839C39.9267 47.4207 39.9268 47.2575 39.9269 47.0943C39.9262 46.9222 39.9254 46.7501 39.9245 46.578C39.9224 46.1107 39.9219 45.6434 39.9218 45.1761C39.9216 44.8841 39.9211 44.592 39.9205 44.3C39.9183 43.281 39.9173 42.2621 39.9175 41.2431C39.9177 40.2935 39.9152 39.3441 39.9115 38.3946C39.9084 37.579 39.9072 36.7636 39.9073 35.9481C39.9074 35.4611 39.9067 34.9742 39.9042 34.4873C39.902 34.0292 39.9019 33.5712 39.9036 33.1132C39.9039 32.9453 39.9033 32.7774 39.9019 32.6095C39.8895 31.0387 39.8895 31.0387 40.4297 30.4687C40.9015 30.0541 41.2947 29.9852 41.9116 29.9792C42.0473 29.9777 42.1831 29.9762 42.323 29.9747C42.5432 29.9734 42.5432 29.9734 42.768 29.9721C42.9945 29.9706 42.9945 29.9706 43.2256 29.9692C43.5456 29.9674 43.8655 29.9663 44.1855 29.9654C44.5938 29.9641 45.0021 29.9601 45.4105 29.9554C45.8016 29.9516 46.1927 29.9511 46.5839 29.9501C46.7298 29.948 46.8757 29.946 47.026 29.9439C47.8209 29.9459 48.3467 29.9756 48.9844 30.4687C49.6694 31.2894 49.4942 32.3938 49.4531 33.3984C49.534 33.3943 49.6148 33.3903 49.698 33.3861C50.7776 33.355 51.6406 33.5312 52.5 34.2187C53.2497 34.9555 53.5726 35.6006 53.589 36.6572C53.5867 36.9553 53.5825 37.2533 53.5767 37.5513C53.5751 37.7041 53.5735 37.8569 53.5719 38.0143C53.5677 38.3898 53.5614 38.7652 53.5547 39.1406C54.4055 39.1406 55.2563 39.1406 56.1328 39.1406C56.1254 37.6745 56.1165 36.2084 56.1052 34.7423C56.1 34.0612 56.0954 33.3802 56.0922 32.6991C56.0891 32.0396 56.0844 31.38 56.0785 30.7205C56.0766 30.4712 56.0753 30.2219 56.0745 29.9726C56.0644 26.8914 55.6643 23.8833 54.6094 20.9766C54.5331 20.9748 54.4569 20.9731 54.3783 20.9714C54.0329 20.9626 53.6876 20.9513 53.3423 20.9399C53.1623 20.936 53.1623 20.936 52.9786 20.9319C52.8634 20.9278 52.7482 20.9236 52.6296 20.9193C52.5234 20.9163 52.4172 20.9132 52.3078 20.91C51.9764 20.8493 51.8817 20.7731 51.6797 20.5078C51.5545 20.2862 51.5545 20.2862 51.4385 20.0349C51.394 19.9411 51.3495 19.8474 51.3037 19.7507C51.2562 19.6501 51.2086 19.5495 51.1597 19.4458C50.5727 18.2404 49.883 17.1424 49.1016 16.0547C49.0514 15.9838 49.0012 15.9129 48.9495 15.8399C47.6261 13.9912 45.9356 12.3041 44.0625 11.0156C43.9427 10.9316 43.8229 10.8476 43.6995 10.7611C41.09 9.00694 38.2358 7.77361 35.1563 7.14843C35.0145 7.11939 35.0145 7.11939 34.8698 7.08978C28.5438 5.87265 21.7354 7.12074 16.3884 10.7034C15.4855 11.3215 14.671 12.0246 13.8661 12.7643C13.6792 12.9314 13.4866 13.0923 13.2898 13.2477C12.8665 13.5913 12.5383 13.9985 12.1875 14.4141C12.0529 14.5684 12.0529 14.5684 11.9156 14.7258C10.6455 16.2049 9.70778 17.7815 8.83334 19.5244C8.77175 19.6465 8.71016 19.7686 8.64671 19.8944C8.56493 20.059 8.56493 20.059 8.48149 20.2268C8.32684 20.4965 8.22069 20.6785 7.96876 20.8594C7.68143 20.8993 7.68143 20.8993 7.34483 20.8937C7.22436 20.8926 7.10389 20.8914 6.97976 20.8903C6.85416 20.8873 6.72855 20.8844 6.59913 20.8813C6.47217 20.8798 6.3452 20.8782 6.21438 20.8765C5.90068 20.8724 5.58709 20.8666 5.27345 20.8594C5.24188 21.0065 5.21031 21.1536 5.17778 21.3052C5.08604 21.7188 4.98441 22.1283 4.87474 22.5375C4.84536 22.6489 4.81598 22.7602 4.7857 22.8749C4.72674 23.0974 4.66669 23.3196 4.60534 23.5414C4.03321 25.7392 3.93107 27.9888 3.92442 30.2486C3.92244 30.5074 3.92031 30.7663 3.91805 31.0252C3.91255 31.6966 3.90901 32.3679 3.90592 33.0393C3.90239 33.7284 3.89695 34.4175 3.89169 35.1066C3.88169 36.4512 3.87394 37.7959 3.8672 39.1406C4.71798 39.1406 5.56876 39.1406 6.44533 39.1406C6.43513 38.8057 6.43513 38.8057 6.42473 38.464C6.41923 38.1671 6.4139 37.8702 6.4087 37.5732C6.40379 37.4266 6.39889 37.2799 6.39383 37.1287C6.37988 36.0634 6.51822 35.2328 7.26673 34.4372C8.06751 33.6889 8.84775 33.378 9.93898 33.3911C10.0533 33.3922 10.1677 33.3932 10.2855 33.3943C10.4149 33.3963 10.4149 33.3963 10.5469 33.3984C10.5414 33.2655 10.536 33.1326 10.5304 32.9956C10.4756 31.1155 10.4756 31.1155 11.0156 30.4687C11.7656 29.8913 12.4831 29.9335 13.4038 29.9419C13.5544 29.9417 13.7051 29.9415 13.8603 29.9413C14.1779 29.9412 14.4956 29.9426 14.8132 29.9453C15.219 29.9486 15.6246 29.9483 16.0303 29.9468C16.4195 29.9458 16.8086 29.9476 17.1977 29.9492C17.3428 29.9488 17.4878 29.9485 17.6372 29.9481C18.9005 29.962 18.9005 29.962 19.4531 30.3516C19.9279 30.8777 20.0536 31.162 20.0563 31.8627C20.0576 32.0835 20.0576 32.0835 20.0589 32.3087C20.0592 32.4728 20.0595 32.6369 20.0598 32.8009C20.0606 32.973 20.0613 33.1451 20.0622 33.3172C20.0642 33.7854 20.0654 34.2537 20.0664 34.722C20.067 35.0145 20.0677 35.3071 20.0684 35.5996C20.0707 36.5148 20.0723 37.4299 20.0733 38.3451C20.0745 39.4017 20.0776 40.4582 20.0823 41.5148C20.0858 42.3313 20.0876 43.1478 20.0879 43.9643C20.0882 44.452 20.0893 44.9397 20.0922 45.4274C20.0949 45.8864 20.0954 46.3454 20.0942 46.8044C20.0942 46.9727 20.0949 47.141 20.0965 47.3092C20.0986 47.5394 20.0975 47.7695 20.0962 47.9997C20.0965 48.1284 20.0968 48.257 20.0971 48.3896C20.0059 48.9559 19.7379 49.3316 19.2774 49.6655C18.8051 49.8899 18.405 49.937 17.8838 49.9407C17.7574 49.9419 17.6311 49.943 17.5009 49.9442C17.3649 49.9447 17.2289 49.9452 17.0888 49.9457C16.9483 49.9463 16.8079 49.947 16.6632 49.9477C16.366 49.9488 16.0688 49.9496 15.7716 49.95C15.3179 49.9512 14.8643 49.9548 14.4106 49.9585C14.1217 49.9593 13.8328 49.9599 13.5439 49.9603C13.4086 49.9618 13.2733 49.9632 13.1339 49.9647C12.3354 49.9625 11.6764 49.9374 11.0459 49.3945C10.6926 48.9268 10.5313 48.6029 10.5354 48.0199C10.536 47.8788 10.536 47.8788 10.5366 47.7349C10.5381 47.5884 10.5381 47.5884 10.5396 47.439C10.5401 47.3399 10.5406 47.2409 10.5412 47.1389C10.5425 46.8947 10.5446 46.6505 10.5469 46.4062C10.4407 46.4117 10.3345 46.4171 10.2251 46.4227C9.07911 46.4567 8.32789 46.3201 7.41212 45.6299C6.69668 44.9438 6.41109 44.1904 6.38811 43.2046C6.39196 42.8997 6.39888 42.5948 6.4087 42.29C6.41165 42.1316 6.41432 41.9733 6.41672 41.8149C6.42357 41.4311 6.43317 41.0477 6.44533 40.6641C6.33357 40.6659 6.22181 40.6677 6.10667 40.6696C5.69194 40.676 5.27722 40.68 4.86246 40.6834C4.68298 40.6851 4.50349 40.6875 4.32402 40.6906C4.06599 40.6948 3.80803 40.6968 3.54997 40.6984C3.46976 40.7002 3.38955 40.702 3.3069 40.7039C2.74935 40.7041 2.74935 40.7041 2.49832 40.5181C2.30337 40.2588 2.29959 40.1178 2.29912 39.7953C2.29813 39.6894 2.29714 39.5836 2.29612 39.4745C2.29683 39.3585 2.29754 39.2426 2.29827 39.1231C2.29766 39.0007 2.29704 38.8783 2.29641 38.7522C2.29485 38.3453 2.29589 37.9385 2.29707 37.5316C2.29683 37.2472 2.29649 36.9628 2.29605 36.6784C2.29553 36.0799 2.29629 35.4814 2.29793 34.8829C2.29991 34.1238 2.2988 33.3646 2.29667 32.6055C2.29539 32.0164 2.29582 31.4273 2.29672 30.8382C2.29695 30.5589 2.29668 30.2796 2.29585 30.0003C2.29035 27.6268 2.41905 25.26 3.05421 22.9614C3.09919 22.7895 3.09919 22.7895 3.14508 22.6142C3.29973 22.027 3.46377 21.4426 3.63283 20.8594C3.49309 20.8634 3.35336 20.8675 3.20939 20.8717C3.02583 20.875 2.84227 20.8782 2.6587 20.8813C2.56663 20.8843 2.47456 20.8872 2.3797 20.8903C2.24657 20.892 2.24657 20.892 2.11076 20.8937C1.98833 20.8965 1.98833 20.8965 1.86343 20.8993C1.56923 20.8466 1.4682 20.7432 1.28908 20.5078C1.19443 19.7861 1.42502 19.2329 1.69923 18.5815C1.74161 18.4786 1.784 18.3757 1.82766 18.2697C2.2282 17.3119 2.67575 16.3845 3.16408 15.4687C3.20405 15.3927 3.24403 15.3167 3.28521 15.2383C4.22273 13.465 5.36944 11.8307 6.6797 10.3125C6.75674 10.2225 6.83378 10.1324 6.91316 10.0397C8.12474 8.65891 9.43142 7.3198 10.8985 6.21093C10.9647 6.1604 11.031 6.10987 11.0992 6.05781C12.0246 5.35449 12.9652 4.69119 13.971 4.10596C14.1164 4.02125 14.2613 3.9357 14.4058 3.8495C19.0285 1.10092 24.2199 -0.0730654 29.5608 -0.0458442ZM10.2846 8.83345C10.0574 9.04908 9.83366 9.24903 9.59199 9.4464C9.3207 9.67384 9.09594 9.88911 8.86964 10.1587C8.65245 10.4147 8.43505 10.6667 8.20451 10.9108C6.5347 12.6844 3.16408 16.7412 3.16408 19.3359C4.47892 19.3359 5.79376 19.3359 7.14845 19.3359C7.34181 18.9589 7.53517 18.5818 7.73439 18.1933C8.2299 17.2416 8.73976 16.3354 9.37501 15.4687C9.46505 15.3455 9.55508 15.2222 9.64784 15.0952C10.3213 14.1898 11.0559 13.3535 11.836 12.5391C11.9189 12.4514 11.9189 12.4514 12.0034 12.3619C12.8924 11.4251 13.84 10.6052 14.8828 9.84374C14.949 9.79515 15.0152 9.74657 15.0834 9.69651C18.9555 6.89409 23.7842 5.27473 28.5695 5.24962C28.675 5.2488 28.7806 5.24798 28.8893 5.24713C29.2278 5.24509 29.5663 5.24434 29.9048 5.24413C30.0204 5.24405 30.1361 5.24397 30.2552 5.24389C31.9504 5.24573 33.6069 5.28525 35.2734 5.62499C35.3753 5.6451 35.4772 5.66521 35.5822 5.68593C40.0925 6.60091 44.1948 8.72458 47.5219 11.9048C47.6369 12.0146 47.7525 12.1237 47.8687 12.2321C50.0139 14.2373 51.5462 16.7251 52.8516 19.3359C54.1664 19.3359 55.4813 19.3359 56.8359 19.3359C55.9433 16.6581 54.4908 14.2695 52.7344 12.0703C52.6845 12.0069 52.6347 11.9435 52.5833 11.8782C51.1979 10.1257 49.5791 8.48478 47.7702 7.1712C47.5778 7.03097 47.3884 6.88726 47.1991 6.74285C46.0286 5.86341 44.7638 5.14659 43.4766 4.45311C43.3947 4.4087 43.3127 4.36429 43.2284 4.31853C34.1841 -0.495396 21.7619 0.563105 10.2846 8.83345ZM12.0703 31.6406C12.0585 31.8536 12.055 32.0671 12.0547 32.2804C12.0542 32.4193 12.0537 32.5581 12.0531 32.7012C12.0532 32.8549 12.0532 33.0086 12.0533 33.167C12.053 33.3294 12.0526 33.4919 12.0521 33.6543C12.0511 34.0966 12.0508 34.539 12.0507 34.9813C12.0506 35.35 12.0502 35.7188 12.0498 36.0875C12.0488 36.957 12.0485 37.8266 12.0486 38.6962C12.0487 39.5945 12.0474 40.4928 12.0456 41.3911C12.0441 42.1612 12.0434 42.9313 12.0435 43.7014C12.0435 44.1619 12.0432 44.6223 12.042 45.0828C12.0408 45.5157 12.0408 45.9486 12.0417 46.3816C12.0419 46.6169 12.0409 46.8523 12.0399 47.0876C12.0404 47.2268 12.0408 47.366 12.0414 47.5094C12.0413 47.6308 12.0412 47.7523 12.0412 47.8775C12.042 48.1851 12.042 48.1851 12.3047 48.3984C12.6463 48.4311 12.6463 48.4311 13.0454 48.4213C13.1926 48.4206 13.3399 48.4198 13.4917 48.419C13.6462 48.4171 13.8008 48.4151 13.96 48.4131C14.117 48.4119 14.274 48.4108 14.431 48.4099C14.816 48.4071 15.201 48.4032 15.586 48.3984C15.5883 48.2967 15.5906 48.195 15.593 48.0902C15.6021 47.7132 15.6123 47.3363 15.6231 46.9593C15.6276 46.7961 15.6317 46.6329 15.6354 46.4696C15.6407 46.2352 15.6477 46.0007 15.6546 45.7663C15.6583 45.6251 15.662 45.484 15.6658 45.3386C15.7031 45 15.7031 45 15.9375 44.7656C16.2526 44.734 16.5576 44.7554 16.875 44.7656C16.9958 45.1696 17.0154 45.5519 17.0293 45.9723C17.0342 46.1135 17.0391 46.2548 17.0442 46.4003C17.0488 46.5473 17.0534 46.6943 17.0581 46.8457C17.0657 47.0689 17.0657 47.0689 17.0735 47.2966C17.0859 47.6639 17.0978 48.0311 17.1094 48.3984C17.3218 48.4016 17.5342 48.4039 17.7466 48.4058C17.924 48.4078 17.924 48.4078 18.105 48.4099C18.3914 48.432 18.3914 48.432 18.5156 48.2812C18.5272 48.0665 18.5304 47.8513 18.5305 47.6362C18.5309 47.4962 18.5312 47.3562 18.5315 47.2119C18.5313 47.0554 18.5311 46.8988 18.5308 46.7422C18.531 46.5785 18.5312 46.4147 18.5314 46.2509C18.532 45.8049 18.5318 45.359 18.5314 44.913C18.5311 44.4473 18.5314 43.9816 18.5315 43.5159C18.5318 42.7336 18.5315 41.9514 18.5309 41.1692C18.5303 40.2636 18.5305 39.3579 18.5311 38.4523C18.5317 37.6761 18.5317 36.8999 18.5314 36.1238C18.5312 35.6596 18.5312 35.1954 18.5316 34.7312C18.5319 34.2949 18.5317 33.8586 18.531 33.4223C18.5309 33.2617 18.5309 33.1012 18.5312 32.9406C18.5315 32.7223 18.531 32.504 18.5305 32.2857C18.5305 32.1632 18.5304 32.0408 18.5304 31.9146C18.5465 31.6454 18.5465 31.6454 18.3985 31.5234C18.1299 31.5131 17.8611 31.5109 17.5923 31.512C17.5119 31.5122 17.4314 31.5123 17.3485 31.5125C17.0906 31.5131 16.8326 31.5146 16.5747 31.5161C16.4002 31.5167 16.2258 31.5172 16.0513 31.5177C15.6227 31.519 15.1942 31.521 14.7656 31.5234C14.7627 31.6216 14.7598 31.7198 14.7567 31.8209C14.7456 32.1848 14.734 32.5486 14.722 32.9125C14.7144 33.1475 14.7074 33.3826 14.7004 33.6177C14.6955 33.765 14.6906 33.9123 14.6855 34.064C14.6812 34.2003 14.6769 34.3365 14.6725 34.4769C14.6485 34.8047 14.6485 34.8047 14.5313 35.0391C14.1144 35.1387 13.8876 35.1761 13.4766 35.0391C13.313 34.712 13.3338 34.4294 13.3223 34.064C13.3174 33.9167 13.3125 33.7694 13.3074 33.6177C13.3028 33.4632 13.2982 33.3086 13.2935 33.1494C13.2884 32.9924 13.2833 32.8354 13.2781 32.6784C13.2657 32.2934 13.2537 31.9084 13.2422 31.5234C13.0689 31.5203 12.8955 31.518 12.7222 31.5161C12.6257 31.5147 12.5291 31.5134 12.4297 31.512C12.1885 31.4962 12.1885 31.4962 12.0703 31.6406ZM41.4844 31.6406C41.4728 31.8554 41.4696 32.0706 41.4695 32.2857C41.4692 32.4257 41.4688 32.5657 41.4685 32.7099C41.4687 32.8665 41.469 33.0231 41.4692 33.1796C41.4691 33.3434 41.4689 33.5072 41.4686 33.6709C41.4681 34.1169 41.4683 34.5629 41.4686 35.0089C41.4689 35.4746 41.4687 35.9403 41.4685 36.406C41.4683 37.1882 41.4686 37.9704 41.4691 38.7527C41.4697 39.6583 41.4695 40.5639 41.4689 41.4696C41.4684 42.2458 41.4683 43.0219 41.4686 43.7981C41.4688 44.2623 41.4688 44.7265 41.4684 45.1907C41.4681 45.627 41.4683 46.0632 41.469 46.4995C41.4691 46.6601 41.4691 46.8207 41.4688 46.9813C41.4685 47.1996 41.469 47.4179 41.4695 47.6362C41.4696 47.7586 41.4696 47.8811 41.4696 48.0073C41.4535 48.2765 41.4535 48.2765 41.6016 48.3984C41.853 48.4087 42.1048 48.411 42.3564 48.4099C42.5094 48.4095 42.6623 48.4091 42.8199 48.4087C42.9826 48.4077 43.1454 48.4068 43.3081 48.4058C43.4713 48.4052 43.6345 48.4046 43.7977 48.4042C44.1985 48.4028 44.5992 48.4008 45 48.3984C45.0029 48.305 45.0059 48.2116 45.0089 48.1154C45.0225 47.6922 45.0369 47.2689 45.0513 46.8457C45.0559 46.6987 45.0605 46.5517 45.0652 46.4003C45.0702 46.259 45.0751 46.1178 45.0801 45.9723C45.0844 45.8422 45.0887 45.7121 45.0931 45.578C45.1133 45.2894 45.1519 45.0416 45.2344 44.7656C45.9439 44.7427 45.9439 44.7427 46.1719 44.7656C46.499 45.0928 46.4428 45.3084 46.4548 45.7663C46.4616 45.9951 46.4616 45.9951 46.4685 46.2286C46.4722 46.3904 46.4759 46.5521 46.4795 46.7139C46.484 46.8765 46.4886 47.0392 46.4932 47.2018C46.5043 47.6007 46.5143 47.9995 46.5234 48.3984C46.7138 48.4048 46.9043 48.4093 47.0947 48.4131C47.2008 48.4158 47.3068 48.4185 47.4161 48.4213C47.7174 48.4269 47.7174 48.4269 47.9297 48.1641C47.9651 47.8645 47.9651 47.8645 47.9587 47.5094C47.9592 47.3702 47.9597 47.231 47.9602 47.0876C47.9595 46.9341 47.9588 46.7806 47.9582 46.6225C47.9583 46.4599 47.9585 46.2972 47.9588 46.1346C47.9594 45.6923 47.9585 45.2499 47.9573 44.8076C47.9563 44.3455 47.9565 43.8834 47.9565 43.4212C47.9564 42.6452 47.9554 41.8692 47.9538 41.0932C47.952 40.1948 47.9514 39.2965 47.9514 38.3981C47.9515 37.5352 47.9509 36.6724 47.9499 35.8095C47.9495 35.4417 47.9493 35.0738 47.9493 34.7059C47.9491 34.2732 47.9484 33.8404 47.9472 33.4077C47.9467 33.1722 47.9468 32.9367 47.9469 32.7012C47.9464 32.5623 47.9459 32.4235 47.9454 32.2804C47.9452 32.159 47.945 32.0376 47.9448 31.9124C47.9603 31.6451 47.9603 31.6451 47.8125 31.5234C47.5525 31.5131 47.2922 31.5109 47.032 31.512C46.9542 31.5122 46.8763 31.5123 46.7961 31.5125C46.5465 31.5131 46.2969 31.5146 46.0474 31.5161C45.8785 31.5167 45.7097 31.5172 45.5409 31.5177C45.1262 31.519 44.7115 31.521 44.2969 31.5234C44.2958 31.621 44.2947 31.7185 44.2936 31.8191C44.2884 32.1814 44.2812 32.5437 44.2726 32.906C44.2676 33.1398 44.2651 33.3736 44.2626 33.6074C44.2588 33.7543 44.255 33.9012 44.2511 34.0526C44.2474 34.256 44.2474 34.256 44.2437 34.4636C44.1797 34.8047 44.1797 34.8047 43.9642 35.0288C43.6074 35.2083 43.3841 35.1477 43.0078 35.0391C42.8443 34.712 42.8651 34.4294 42.8536 34.064C42.8486 33.9167 42.8437 33.7694 42.8387 33.6177C42.8341 33.4632 42.8295 33.3086 42.8247 33.1494C42.8197 32.9924 42.8145 32.8354 42.8094 32.6784C42.7969 32.2934 42.785 31.9084 42.7734 31.5234C42.5806 31.5203 42.3877 31.518 42.1948 31.5161C42.0337 31.5141 42.0337 31.5141 41.8694 31.512C41.6056 31.493 41.6056 31.493 41.4844 31.6406ZM8.33497 35.5664C7.95403 36.0146 7.95306 36.3587 7.94802 36.9282C7.94652 37.076 7.94501 37.2239 7.94346 37.3762C7.94251 37.5379 7.94163 37.6995 7.94084 37.8612C7.94036 37.9427 7.93988 38.0243 7.93939 38.1083C7.93695 38.5399 7.93527 38.9715 7.93417 39.4032C7.93288 39.8481 7.92885 40.2929 7.92419 40.7378C7.92112 41.0807 7.92015 41.4236 7.91973 41.7665C7.91916 41.9305 7.9178 42.0944 7.91562 42.2584C7.91275 42.4883 7.91316 42.7183 7.91369 42.9482C7.913 43.0788 7.91231 43.2094 7.91161 43.344C8.00282 43.9296 8.30891 44.2919 8.73048 44.6924C9.27785 44.9815 9.27785 44.9815 10.5469 44.8828C10.5469 41.5957 10.5469 38.3086 10.5469 34.9219C9.3078 34.9218 9.3078 34.9218 8.33497 35.5664ZM49.4531 34.9219C49.4531 38.209 49.4531 41.4961 49.4531 44.8828C50.7113 44.9791 50.7113 44.9791 51.5625 44.4141C52.2076 43.7304 52.0995 42.9188 52.0935 42.0264C52.0938 41.8609 52.0943 41.6954 52.0949 41.53C52.0956 41.184 52.0946 40.8381 52.0924 40.4922C52.0897 40.05 52.0912 39.608 52.0941 39.1659C52.0957 38.8245 52.0952 38.4831 52.094 38.1416C52.0937 37.9787 52.0941 37.8157 52.0952 37.6527C52.1292 36.4775 52.1292 36.4775 51.5625 35.5078C50.8699 34.8672 50.4343 34.9219 49.4531 34.9219ZM23.7939 55.93C23.5595 56.3195 23.6119 56.7447 23.6133 57.1875C23.61 57.2836 23.6066 57.3796 23.6032 57.4786C23.6029 57.5711 23.6026 57.6635 23.6023 57.7588C23.6015 57.8431 23.6006 57.9274 23.5998 58.0142C23.6572 58.2674 23.6572 58.2674 23.9173 58.4453C24.3304 58.6254 24.6389 58.6392 25.0891 58.6404C25.1675 58.6408 25.246 58.6411 25.3267 58.6415C25.4918 58.6417 25.6569 58.641 25.8219 58.6396C26.0735 58.6377 26.3248 58.6396 26.5764 58.6418C26.7374 58.6416 26.8984 58.6411 27.0593 58.6404C27.2047 58.64 27.3501 58.6396 27.4999 58.6392C27.9196 58.5904 28.1417 58.495 28.4766 58.2422C28.6525 57.8903 28.6249 57.5293 28.6304 57.1435C28.6338 57.0647 28.6372 56.9858 28.6407 56.9046C28.6454 56.5352 28.6281 56.2992 28.4144 55.9929C28.0183 55.7032 27.6666 55.7159 27.1944 55.7231C27.1048 55.7229 27.0153 55.7228 26.923 55.7226C26.7342 55.7228 26.5454 55.7241 26.3566 55.7266C26.0675 55.73 25.7786 55.729 25.4894 55.7275C25.3058 55.7282 25.1222 55.7292 24.9385 55.7304C24.8089 55.7299 24.8089 55.7299 24.6766 55.7294C24.3357 55.7357 24.0845 55.7417 23.7939 55.93Z" fill="#266BFF"/>
<path d="M21.8325 11.3507C21.9815 11.3501 22.1305 11.3494 22.284 11.3487C22.4483 11.3485 22.6125 11.3484 22.7768 11.3483C22.9505 11.3478 23.1241 11.3472 23.2978 11.3465C23.769 11.345 24.2402 11.3442 24.7114 11.3437C25.0062 11.3434 25.3009 11.3429 25.5957 11.3424C26.519 11.3408 27.4423 11.3396 28.3656 11.3392C29.4294 11.3387 30.4931 11.3366 31.5569 11.3332C32.3805 11.3307 33.2041 11.3295 34.0276 11.3293C34.5189 11.3292 35.0102 11.3285 35.5014 11.3264C35.964 11.3245 36.4265 11.3242 36.8891 11.3253C37.0581 11.3254 37.2272 11.3249 37.3962 11.3237C38.6607 11.3155 39.7913 11.3845 40.8023 12.2113C41.6568 13.0548 41.9742 14.0124 41.9875 15.1931C41.9873 15.3346 41.9873 15.3346 41.9871 15.479C41.9879 15.581 41.9887 15.6831 41.9895 15.7883C41.9917 16.1232 41.9922 16.4581 41.9925 16.7931C41.9932 17.0277 41.994 17.2624 41.9948 17.497C41.9962 17.9881 41.9967 18.4791 41.9965 18.9701C41.9965 19.5966 41.9997 20.2231 42.0037 20.8496C42.0064 21.3341 42.0068 21.8185 42.0067 22.303C42.007 22.5339 42.008 22.7647 42.0098 22.9955C42.021 24.5569 42.0186 25.9178 40.8742 27.111C40.0797 27.8432 39.3329 28.0475 38.2726 28.0136C38.0725 28.0094 37.8723 28.0052 37.6721 28.0011C37.5138 27.9973 37.5138 27.9973 37.3522 27.9934C36.7845 27.9811 36.2166 27.9776 35.6488 27.9728C34.93 27.9665 34.2116 27.9579 33.4931 27.9375C30.48 27.8557 28.3147 27.9571 25.8857 29.862C25.3175 30.2899 24.7035 30.6389 24.0893 30.9961C23.8842 31.1191 23.6793 31.2423 23.4746 31.366C23.1116 31.5842 22.805 31.7039 22.3828 31.7578C22.0656 31.6433 21.9489 31.5931 21.7969 31.2891C21.7868 31.0423 21.7843 30.7953 21.7854 30.5484C21.7858 30.4011 21.7862 30.2538 21.7866 30.1021C21.7875 29.9475 21.7885 29.793 21.7895 29.6338C21.7901 29.4768 21.7907 29.3198 21.7911 29.1627C21.7925 28.7778 21.7944 28.3928 21.7969 28.0078C21.7276 28.0098 21.6583 28.0119 21.587 28.014C20.5664 28.0315 19.8158 27.8142 19.0576 27.0996C18.2038 26.1733 18.0301 25.2651 18.0261 24.0424C18.0253 23.9392 18.0246 23.836 18.0238 23.7297C18.0215 23.3891 18.0201 23.0485 18.0189 22.7078C18.0185 22.591 18.018 22.4742 18.0175 22.3539C18.015 21.7354 18.0134 21.117 18.0123 20.4985C18.011 19.8621 18.0069 19.2258 18.0023 18.5895C17.9992 18.0981 17.9982 17.6066 17.9978 17.1152C17.9972 16.8808 17.9959 16.6463 17.9937 16.4119C17.9679 13.4543 17.9679 13.4543 19.0942 12.2722C19.9099 11.5909 20.7886 11.3535 21.8325 11.3507ZM20.0537 13.5791C19.6086 14.2336 19.5354 14.7583 19.5362 15.5403C19.5355 15.6406 19.5347 15.7409 19.5339 15.8443C19.5316 16.1752 19.5312 16.5061 19.5309 16.837C19.5302 17.0678 19.5294 17.2985 19.5286 17.5293C19.5272 18.0128 19.5267 18.4964 19.5269 18.98C19.5269 19.5983 19.5237 20.2165 19.5196 20.8347C19.517 21.3113 19.5166 21.788 19.5167 22.2646C19.5164 22.4925 19.5154 22.7203 19.5136 22.9482C19.5113 23.2676 19.5119 23.5869 19.5134 23.9064C19.512 23.9996 19.5107 24.0929 19.5094 24.1889C19.5175 24.9187 19.7007 25.5622 20.2303 26.0885C20.8072 26.5576 21.4883 26.557 22.2014 26.5693C22.6385 26.5773 22.8292 26.5867 23.2031 26.8359C23.3928 27.7154 23.3308 28.6354 23.3203 29.5312C23.7965 29.3577 24.2082 29.1274 24.64 28.8629C24.7092 28.8207 24.7785 28.7785 24.8498 28.735C25.0702 28.6004 25.2902 28.4653 25.5102 28.3301C25.7282 28.1967 25.9463 28.0634 26.1644 27.9302C26.3639 27.8082 26.5632 27.6859 26.7625 27.5637C26.8306 27.5238 26.8987 27.484 26.9688 27.443C27.1952 27.3059 27.1952 27.3059 27.4139 27.12C28.4224 26.3687 29.579 26.5102 30.7777 26.5237C31.0132 26.5236 31.2486 26.5231 31.4841 26.5222C32.1012 26.5207 32.7183 26.5229 33.3355 26.5263C34.3243 26.5316 35.3131 26.5334 36.3019 26.531C36.6462 26.5311 36.9904 26.5341 37.3346 26.5373C37.5464 26.5374 37.7582 26.5374 37.97 26.5372C38.0649 26.5389 38.1598 26.5406 38.2576 26.5423C38.9184 26.5378 39.3001 26.3959 39.8437 26.0156C40.4075 25.3035 40.4474 24.7418 40.4504 23.8588C40.4516 23.71 40.4516 23.71 40.4527 23.5583C40.455 23.2306 40.4564 22.9028 40.4576 22.5751C40.4581 22.4629 40.4585 22.3507 40.459 22.2351C40.4615 21.6414 40.4632 21.0477 40.4643 20.4539C40.4656 19.8418 40.4696 19.2298 40.4742 18.6177C40.4773 18.146 40.4783 17.6743 40.4787 17.2026C40.4793 16.977 40.4806 16.7514 40.4828 16.5259C40.4857 16.2095 40.4856 15.8933 40.4847 15.5769C40.4862 15.4846 40.4877 15.3922 40.4893 15.2971C40.4819 14.5048 40.2473 13.8801 39.6826 13.3154C39.1159 12.9646 38.5959 12.8613 37.9352 12.8601C37.7896 12.8592 37.6441 12.8584 37.4941 12.8576C37.3344 12.8578 37.1746 12.8581 37.0148 12.8584C36.8454 12.8579 36.6759 12.8573 36.5064 12.8566C36.0474 12.8551 35.5883 12.855 35.1292 12.8553C34.7454 12.8554 34.3616 12.8548 33.9778 12.8543C33.0719 12.853 32.1661 12.8529 31.2603 12.8536C30.3271 12.8543 29.394 12.8529 28.4609 12.8504C27.6585 12.8483 26.8561 12.8476 26.0538 12.848C25.5751 12.8482 25.0964 12.8479 24.6177 12.8463C24.1674 12.8448 23.717 12.845 23.2667 12.8466C23.1019 12.8468 22.9371 12.8465 22.7724 12.8456C21.2742 12.8109 21.2742 12.8109 20.0537 13.5791Z" fill="#266BFF"/>
<path d="M22.9443 14.7202C23.0581 14.719 23.1719 14.7179 23.2891 14.7168C23.4732 14.7179 23.4732 14.7179 23.6609 14.719C23.8501 14.7184 23.8501 14.7184 24.0431 14.7179C24.3099 14.7177 24.5766 14.7183 24.8434 14.7198C25.2523 14.7217 25.6612 14.7198 26.0701 14.7176C26.3291 14.7178 26.588 14.7183 26.8469 14.719C26.9696 14.7182 27.0923 14.7175 27.2187 14.7168C27.3894 14.7185 27.3894 14.7185 27.5636 14.7202C27.6637 14.7204 27.7639 14.7207 27.8671 14.721C28.125 14.7656 28.125 14.7656 28.333 14.9119C28.5141 15.1708 28.5211 15.3211 28.5221 15.6356C28.5232 15.74 28.5243 15.8445 28.5254 15.952C28.5247 16.0645 28.524 16.1769 28.5233 16.2927C28.5236 16.4085 28.5239 16.5242 28.5243 16.6434C28.5245 16.8881 28.5239 17.1328 28.5224 17.3775C28.5205 17.7525 28.5224 18.1274 28.5246 18.5024C28.5244 18.7399 28.524 18.9775 28.5233 19.2151C28.524 19.3275 28.5247 19.44 28.5254 19.5558C28.5243 19.6602 28.5232 19.7646 28.5221 19.8722C28.5218 19.9641 28.5215 20.0559 28.5212 20.1505C28.4642 20.4573 28.3763 20.5604 28.125 20.7422C27.7719 20.7729 27.4436 20.7831 27.0909 20.7765C26.99 20.776 26.889 20.7755 26.785 20.775C26.4626 20.7731 26.1403 20.7687 25.8179 20.7642C25.5993 20.7624 25.3807 20.7608 25.1621 20.7594C24.6263 20.7558 24.0906 20.7489 23.5547 20.7422C23.5547 21.7477 23.5547 22.7531 23.5547 23.7891C23.8623 23.7864 24.1698 23.7836 24.4867 23.7808C24.785 23.779 25.0832 23.7776 25.3815 23.7762C25.5886 23.775 25.7957 23.7734 26.0028 23.7714C26.3006 23.7686 26.5985 23.7672 26.8964 23.7662C27.035 23.7644 27.035 23.7644 27.1765 23.7625C27.9999 23.7624 27.9999 23.7624 28.3594 24.0235C28.5234 24.3514 28.5062 24.5983 28.4766 24.961C28.2887 25.2185 28.1837 25.3024 27.8671 25.3572C27.7669 25.3574 27.6668 25.3577 27.5636 25.358C27.4498 25.3591 27.336 25.3602 27.2187 25.3614C27.096 25.3607 26.9733 25.3599 26.8469 25.3592C26.7208 25.3595 26.5947 25.3599 26.4648 25.3602C26.198 25.3605 25.9312 25.3598 25.6645 25.3584C25.2555 25.3565 24.8467 25.3583 24.4377 25.3606C24.1788 25.3604 23.9199 25.3599 23.6609 25.3592C23.5382 25.3599 23.4155 25.3606 23.2891 25.3614C23.1184 25.3597 23.1184 25.3597 22.9443 25.358C22.794 25.3576 22.794 25.3576 22.6407 25.3572C22.3828 25.3125 22.3828 25.3125 22.1748 25.1663C21.9938 24.9073 21.9867 24.7571 21.9858 24.4425C21.9847 24.3381 21.9836 24.2337 21.9824 24.1261C21.9835 23.9575 21.9835 23.9575 21.9846 23.7854C21.9842 23.6697 21.9839 23.554 21.9836 23.4348C21.9833 23.1901 21.984 22.9454 21.9854 22.7007C21.9873 22.3257 21.9855 21.9508 21.9832 21.5758C21.9834 21.3382 21.9839 21.1006 21.9846 20.8631C21.9839 20.7506 21.9832 20.6382 21.9824 20.5224C21.9835 20.4179 21.9846 20.3135 21.9858 20.2059C21.9861 20.1141 21.9863 20.0223 21.9866 19.9276C22.0437 19.6209 22.1315 19.5177 22.3828 19.336C22.7359 19.3053 23.0643 19.2951 23.4169 19.3016C23.5179 19.3021 23.6188 19.3026 23.7228 19.3031C24.0452 19.3051 24.3676 19.3095 24.69 19.314C24.9085 19.3157 25.1271 19.3174 25.3457 19.3188C25.8816 19.3224 26.4173 19.3292 26.9531 19.336C26.9531 18.3305 26.9531 17.325 26.9531 16.2891C26.6456 16.2918 26.338 16.2945 26.0211 16.2973C25.7229 16.2992 25.4246 16.3006 25.1264 16.302C24.9193 16.3031 24.7122 16.3047 24.5051 16.3068C24.2072 16.3096 23.9094 16.3109 23.6115 16.312C23.4728 16.3138 23.4728 16.3138 23.3314 16.3156C22.508 16.3158 22.508 16.3158 22.1485 16.0547C21.9845 15.7267 22.0017 15.4799 22.0313 15.1172C22.2968 14.7533 22.5057 14.7214 22.9443 14.7202Z" fill="#266BFF"/>
<path d="M32.6953 14.7656C33.0322 15.0595 33.0479 15.2466 33.0868 15.6964C33.0867 15.8824 33.0848 16.0683 33.0812 16.2543C33.0807 16.3525 33.0802 16.4506 33.0797 16.5518C33.0777 16.8646 33.0733 17.1774 33.0689 17.4902C33.0671 17.7026 33.0655 17.915 33.0641 18.1274C33.0605 18.6475 33.0536 19.1674 33.0469 19.6875C34.1684 19.6875 35.2899 19.6875 36.4453 19.6875C36.4412 19.3617 36.4372 19.0358 36.433 18.7001C36.4302 18.3848 36.4281 18.0695 36.426 17.7542C36.4242 17.5349 36.4218 17.3156 36.4188 17.0964C36.4145 16.7813 36.4125 16.4663 36.411 16.1513C36.4092 16.0531 36.4074 15.955 36.4055 15.8538C36.4053 15.17 36.4053 15.17 36.598 14.9159C36.931 14.6643 37.217 14.7156 37.6172 14.7656C37.9341 15.051 37.9683 15.2302 38.0134 15.6576C38.0155 15.83 38.0156 16.0025 38.0143 16.1749C38.0149 16.2693 38.0155 16.3636 38.0161 16.4609C38.0177 16.7724 38.0166 17.0839 38.0155 17.3955C38.0157 17.612 38.016 17.8286 38.0165 18.0452C38.017 18.4988 38.0162 18.9524 38.0146 19.4061C38.0126 19.988 38.0137 20.5699 38.0159 21.1518C38.0171 21.5989 38.0167 22.0459 38.0158 22.493C38.0156 22.7076 38.0159 22.9222 38.0167 23.1368C38.0176 23.4364 38.0162 23.736 38.0143 24.0356C38.0153 24.169 38.0153 24.169 38.0164 24.3051C38.0092 24.8999 38.0092 24.8999 37.8158 25.1918C37.4772 25.3976 37.1804 25.3536 36.7969 25.3125C36.5976 25.1874 36.5976 25.1874 36.4453 24.9609C36.4147 24.666 36.4043 24.4007 36.411 24.1063C36.4115 24.0236 36.412 23.9408 36.4125 23.8556C36.4145 23.5917 36.4189 23.3279 36.4234 23.064C36.4251 22.8849 36.4267 22.7058 36.4282 22.5268C36.432 22.0881 36.4381 21.6496 36.4453 21.2109C36.3129 21.2134 36.1804 21.2159 36.044 21.2184C35.5522 21.2269 35.0604 21.2323 34.5685 21.2367C34.3557 21.239 34.1429 21.2422 33.9301 21.2463C33.6241 21.252 33.3182 21.2547 33.0121 21.2567C32.9171 21.2591 32.8221 21.2616 32.7243 21.2641C32.3344 21.2642 32.0436 21.2386 31.6977 21.0527C31.4151 20.5491 31.4591 20.0459 31.4653 19.4783C31.4651 19.355 31.465 19.2316 31.4648 19.1045C31.465 18.844 31.4663 18.5834 31.4688 18.3229C31.4722 17.9234 31.4712 17.5242 31.4697 17.1247C31.4704 16.8716 31.4714 16.6186 31.4726 16.3655C31.4723 16.2458 31.472 16.126 31.4716 16.0026C31.4731 15.8915 31.4746 15.7805 31.4761 15.666C31.4767 15.5683 31.4774 15.4706 31.478 15.3699C31.5993 14.6954 32.0989 14.6911 32.6953 14.7656Z" fill="#266BFF"/>
</g>
<defs>
<clipPath id="clip0_41_310">
<rect width="60" height="60" fill="white"/>
</clipPath>
</defs>
</svg>
