<svg width="60" height="60" viewBox="0 0 60 60" fill="none" xmlns="http://www.w3.org/2000/svg">
<g clip-path="url(#clip0_42_328)">
<path d="M29.4327 8.50923C29.5145 8.5086 29.5963 8.50797 29.6805 8.50732C29.9531 8.50565 30.2256 8.50648 30.4982 8.50732C30.6942 8.50665 30.8902 8.50583 31.0862 8.50488C31.6177 8.50278 32.1492 8.50291 32.6806 8.50358C33.1247 8.50395 33.5688 8.50323 34.0129 8.50252C35.0609 8.50088 36.1089 8.50106 37.1569 8.5024C38.237 8.50374 39.3171 8.50209 40.3972 8.49895C41.3255 8.49635 42.2538 8.49558 43.182 8.49626C43.736 8.49666 44.29 8.49638 44.844 8.49436C45.3652 8.49254 45.8863 8.49301 46.4074 8.49522C46.5983 8.49565 46.7891 8.49529 46.98 8.49406C48.7815 8.48335 48.7816 8.48335 49.5703 9.02342C50.0509 9.55326 50.1511 10.0831 50.1562 10.7812C50.0923 11.317 49.9832 11.8407 49.8715 12.3683C49.84 12.5228 49.8085 12.6773 49.7772 12.8319C49.6934 13.2431 49.6076 13.6538 49.5212 14.0644C49.4676 14.3197 49.4145 14.5752 49.3617 14.8306C47.3163 24.714 47.3163 24.714 45.7031 28.0078C45.8401 28.0037 45.9771 27.9996 46.1183 27.9954C46.2997 27.9921 46.4812 27.9889 46.6626 27.9858C46.7527 27.9829 46.8428 27.9799 46.9356 27.9769C47.4864 27.9698 47.8284 28.0103 48.2812 28.3594C48.5834 28.6615 48.4306 29.4639 48.433 29.873C48.435 30.1052 48.4401 30.3375 48.4453 30.5697C48.4524 31.6468 48.358 32.5416 47.644 33.3838C47.5449 33.4659 47.4458 33.5481 47.3437 33.6328C47.2567 33.715 47.1697 33.7971 47.0801 33.8818C46.4098 34.3388 45.8073 34.4531 45 34.4531C45 35.4199 45 36.3867 45 37.3828C45.5579 37.4454 45.5579 37.4454 45.802 37.2024C45.866 37.1218 45.9301 37.0411 45.9961 36.958C46.0662 36.8731 46.1363 36.7882 46.2085 36.7007C46.3289 36.5451 46.4469 36.3875 46.56 36.2265C46.6992 36.0351 46.6992 36.0351 46.9922 35.7422C47.6806 35.6627 48.1573 35.8451 48.7646 36.1304C48.8455 36.1665 48.9263 36.2027 49.0095 36.24C50.2934 36.823 50.2934 36.823 50.5078 37.3828C50.4962 37.6255 50.4962 37.6255 50.4423 37.8827C50.2032 38.9481 50.2032 38.9481 50.4794 39.9476C50.7509 40.1768 51.0283 40.3575 51.3281 40.5469C51.3866 40.6321 51.445 40.7173 51.5053 40.805C51.6614 41.044 51.6614 41.044 51.9333 41.0399C52.0284 41.0246 52.1236 41.0093 52.2217 40.9936C52.3251 40.9794 52.4286 40.9652 52.5352 40.9506C52.7378 40.9172 52.9402 40.8825 53.1422 40.8462C53.2324 40.832 53.3226 40.8178 53.4155 40.8032C53.496 40.7879 53.5765 40.7727 53.6595 40.757C54.0575 40.7961 54.214 40.967 54.4922 41.25C54.6865 41.5726 54.839 41.9088 54.9902 42.2534C55.0313 42.3434 55.0724 42.4333 55.1147 42.526C55.4076 43.1719 55.6221 43.6866 55.5469 44.414C55.2999 44.7227 55.0528 44.945 54.7133 45.1483C54.4061 45.3556 54.2246 45.5056 54.0234 45.8203C53.9051 46.4763 53.97 47.1523 54.0234 47.8125C54.1266 47.8439 54.2298 47.8753 54.3361 47.9077C54.7072 48.04 55.0132 48.1945 55.3491 48.3984C55.4502 48.4588 55.5512 48.5193 55.6554 48.5815C55.8984 48.75 55.8984 48.75 56.0156 48.9844C56.0367 49.772 55.8516 50.5095 55.6201 51.2549C55.5834 51.374 55.5834 51.374 55.5459 51.4955C55.3995 51.9461 55.2333 52.3455 54.9609 52.7344C54.6874 52.8711 54.5446 52.8584 54.2413 52.8474C53.1624 52.8126 53.1624 52.8126 52.1718 53.1669C51.9097 53.5103 51.8312 53.7073 51.7969 54.1406C51.889 54.5914 52.0476 55.0125 52.2342 55.4322C52.5108 56.0571 52.5108 56.0571 52.4551 56.4454C52.1881 56.8305 51.8626 57.0845 51.4892 57.3633C51.4151 57.4197 51.3409 57.476 51.2645 57.5342C51.0526 57.6938 50.8391 57.8512 50.625 58.0078C50.53 58.0783 50.435 58.1489 50.3371 58.2216C49.9927 58.4586 49.6934 58.5924 49.2847 58.6816C48.586 58.5345 48.1014 58.0473 47.5923 57.5647C47.2346 57.3592 47.0087 57.435 46.6113 57.5171C46.485 57.542 46.3587 57.5669 46.2286 57.5926C46.1325 57.6136 46.0365 57.6346 45.9375 57.6562C45.9278 57.765 45.9182 57.8738 45.9082 57.9858C45.8198 58.6017 45.6209 59.2056 45.3515 59.7656C44.9503 60.0331 44.7999 60.0301 44.328 60.0311C44.1954 60.0314 44.0627 60.0317 43.9261 60.032C43.7874 60.0311 43.6487 60.0302 43.5058 60.0293C43.3006 60.0306 43.3006 60.0306 43.0911 60.032C41.7652 60.029 41.7652 60.029 41.1328 59.7656C40.6861 59.0725 40.6497 58.226 40.5469 57.4219C40.384 57.359 40.2202 57.2984 40.0561 57.2387C39.965 57.2048 39.874 57.1708 39.7801 57.1358C39.2994 57.0265 39.0084 57.1276 38.5876 57.3742C38.4801 57.448 38.3725 57.5217 38.2617 57.5976C37.8518 57.8786 37.5335 58.0874 37.0312 58.125C35.9979 57.8415 35.0505 56.7787 34.3359 56.0156C34.1536 55.6509 34.1864 55.3647 34.2187 54.9609C34.3621 54.6817 34.5074 54.4269 34.6728 54.1626C34.8358 53.8772 34.9341 53.6382 35.039 53.3203C34.9072 52.8378 34.662 52.5206 34.3359 52.1484C34.2973 52.0711 34.2586 51.9937 34.2187 51.914C33.9981 51.856 33.9981 51.856 33.7326 51.8307C33.6341 51.8177 33.5356 51.8047 33.4341 51.7914C33.2258 51.7658 33.0174 51.7411 32.8088 51.7172C32.0478 51.6148 32.0478 51.6148 31.7459 51.3308C31.6406 51.0937 31.6406 51.0937 31.6406 50.8594C31.5177 50.8597 31.3948 50.86 31.2682 50.8603C28.2815 50.8681 25.2947 50.8739 22.3079 50.8776C20.8635 50.8794 19.4191 50.8819 17.9747 50.8859C16.7162 50.8894 15.4576 50.8916 14.199 50.8924C13.5323 50.8929 12.8656 50.894 12.1989 50.8965C11.5718 50.8989 10.9448 50.8996 10.3178 50.8991C10.0872 50.8992 9.85661 50.8999 9.62603 50.9013C9.31207 50.903 8.99818 50.9026 8.68421 50.9016C8.59222 50.9027 8.50023 50.9037 8.40545 50.9047C8.06375 50.9019 7.80017 50.8983 7.50186 50.7217C7.33537 50.4226 7.33959 50.1981 7.34052 49.856C7.34004 49.7204 7.33956 49.5849 7.33906 49.4452C7.34032 49.2963 7.34159 49.1475 7.34289 48.9941C7.34299 48.8359 7.34293 48.6777 7.34273 48.5194C7.34263 48.0897 7.3447 47.66 7.34716 47.2302C7.34935 46.7812 7.34956 46.3322 7.34998 45.8832C7.35107 45.0328 7.35396 44.1824 7.35748 43.332C7.36141 42.3639 7.36334 41.3958 7.36511 40.4277C7.36879 38.4362 7.37497 36.4446 7.3828 34.4531C7.3039 34.4469 7.225 34.4406 7.14371 34.4342C7.03937 34.425 6.93503 34.4158 6.82753 34.4064C6.72446 34.3977 6.62139 34.3891 6.5152 34.3801C5.65048 34.2544 4.97174 33.7304 4.45311 33.0469C3.95286 32.0774 3.91568 31.1306 3.93309 30.0586C3.93226 29.9108 3.93143 29.7631 3.93058 29.6109C3.93803 28.5393 3.93803 28.5393 4.14135 28.2639C4.54909 27.9728 4.92973 27.9953 5.41259 28.0005C5.53993 28.0015 5.66728 28.0026 5.79848 28.0037C5.89592 28.005 5.99335 28.0064 6.09374 28.0078C6.09296 27.8932 6.09218 27.7786 6.09137 27.6606C6.08422 26.5762 6.07896 25.4919 6.07552 24.4075C6.0737 23.8502 6.07122 23.2928 6.06722 22.7355C6.06337 22.1967 6.06129 21.658 6.06038 21.1193C6.05974 20.9146 6.05848 20.71 6.05657 20.5053C6.03828 18.4631 6.34722 16.8023 7.80806 15.2719C9.21933 13.8908 10.8187 13.4604 12.7565 13.4577C12.9054 13.4568 12.9054 13.4568 13.0572 13.4559C13.3829 13.4542 13.7085 13.4534 14.0341 13.4527C14.1463 13.4524 14.2584 13.4521 14.374 13.4517C14.9678 13.45 15.5616 13.4489 16.1554 13.4484C16.7645 13.4477 17.3736 13.4449 17.9827 13.4416C18.4548 13.4394 18.9269 13.4388 19.3991 13.4386C19.6234 13.4383 19.8478 13.4373 20.0721 13.4358C21.6075 13.4259 23.168 13.4269 24.5581 14.1723C24.667 14.229 24.7759 14.2856 24.8881 14.344C25.2092 14.5397 25.4898 14.763 25.7812 15C25.8192 14.8559 25.8192 14.8559 25.858 14.7089C26.0828 13.8575 26.3093 13.0065 26.5383 12.1562C26.6574 11.7139 26.7747 11.2711 26.8909 10.8279C26.9383 10.6536 26.9859 10.4794 27.0337 10.3052C27.0924 10.0856 27.0924 10.0856 27.1522 9.86158C27.5629 8.86633 28.4089 8.51123 29.4327 8.50923ZM28.731 10.2245C28.5716 10.4628 28.5007 10.6643 28.4293 10.9422C28.4017 11.0469 28.3741 11.1517 28.3457 11.2597C28.3168 11.3744 28.2879 11.489 28.2582 11.6072C28.211 11.7888 28.211 11.7888 28.1628 11.974C28.0587 12.3754 27.9563 12.7772 27.854 13.179C27.7819 13.4586 27.7096 13.7382 27.6373 14.0178C27.4468 14.7556 27.2578 15.4937 27.069 16.232C26.9156 16.831 26.7611 17.4298 26.6066 18.0285C26.4215 18.7459 26.2368 19.4634 26.0522 20.1809C26.0174 20.3165 25.9825 20.452 25.9466 20.5917C25.8468 20.98 25.7474 21.3684 25.648 21.7567C25.6192 21.8691 25.5903 21.9814 25.5606 22.0971C25.3474 22.9322 25.1549 23.7689 24.9609 24.6094C31.6898 24.6094 38.4187 24.6094 45.3515 24.6094C46.3992 21.8157 46.9329 18.8403 47.5481 15.9282C47.6686 15.3582 47.7917 14.7887 47.9157 14.2194C48.0075 13.7962 48.0979 13.3727 48.1878 12.9491C48.2303 12.7504 48.2733 12.5518 48.3169 12.3534C48.3768 12.0797 48.4346 11.8057 48.4918 11.5315C48.5098 11.4517 48.5278 11.3719 48.5463 11.2896C48.6461 10.7974 48.6004 10.5301 48.3984 10.0781C45.8681 10.0699 43.3378 10.0637 40.8075 10.0599C39.6327 10.0581 38.4579 10.0556 37.2831 10.0516C36.2594 10.0481 35.2356 10.0458 34.2119 10.045C33.6696 10.0446 33.1274 10.0435 32.5851 10.0409C32.075 10.0386 31.565 10.0378 31.0549 10.0383C30.8674 10.0382 30.6799 10.0375 30.4924 10.0362C30.2369 10.0345 29.9816 10.0349 29.7261 10.0358C29.5114 10.0353 29.5114 10.0353 29.2924 10.0348C28.9505 10.0506 28.9505 10.0506 28.731 10.2245ZM8.77715 16.4227C7.93819 17.4437 7.59725 18.4617 7.60387 19.7728C7.60386 19.862 7.60384 19.9512 7.60382 20.0432C7.6039 20.3368 7.60481 20.6303 7.60573 20.9239C7.60595 21.128 7.60612 21.3321 7.60624 21.5362C7.60668 22.0723 7.60783 22.6085 7.60913 23.1446C7.61033 23.6922 7.61086 24.2397 7.61145 24.7872C7.61271 25.8607 7.61477 26.9343 7.61718 28.0078C8.89335 28.0078 10.1695 28.0078 11.4844 28.0078C11.509 26.9824 11.509 26.9824 11.5298 25.9569C11.5356 25.7655 11.5356 25.7655 11.5416 25.5702C11.5447 25.4395 11.5477 25.3088 11.5509 25.1741C11.6016 24.8437 11.6016 24.8437 11.7545 24.6212C11.9531 24.4922 11.9531 24.4922 12.3779 24.5141C12.5084 24.5456 12.639 24.577 12.7734 24.6094C12.9338 24.9301 12.916 25.2003 12.9277 25.5588C12.9344 25.7506 12.9344 25.7506 12.9412 25.9463C12.9463 26.1094 12.9513 26.2724 12.9565 26.4404C12.9735 26.9576 12.9904 27.4749 13.0078 28.0078C14.4773 28.0078 15.9469 28.0078 17.4609 28.0078C17.5383 27.389 17.6156 26.7703 17.6953 26.1328C18.2209 25.3444 18.5497 24.9746 19.4531 24.7265C19.77 24.7 20.0764 24.6832 20.3934 24.678C20.4808 24.6757 20.5682 24.6735 20.6583 24.6711C20.9353 24.6642 21.2123 24.6587 21.4892 24.6533C21.678 24.6488 21.8668 24.6442 22.0555 24.6396C22.5161 24.6284 22.9768 24.6185 23.4375 24.6094C23.6856 23.6746 23.9323 22.7395 24.177 21.8038C24.2906 21.3693 24.4048 20.935 24.5202 20.501C24.6317 20.0819 24.7417 19.6624 24.8508 19.2427C24.8926 19.0829 24.9348 18.9232 24.9776 18.7636C25.0376 18.5396 25.0957 18.3151 25.1537 18.0905C25.1872 17.963 25.2208 17.8355 25.2554 17.7041C25.3177 17.3109 25.292 17.0255 25.1953 16.6406C24.5341 15.7721 23.4754 15.2703 22.4244 15.0531C21.9574 14.99 21.4973 14.9818 21.0271 14.9811C20.9286 14.9805 20.8302 14.9799 20.7288 14.9793C20.4046 14.9776 20.0804 14.9768 19.7562 14.9762C19.6448 14.9758 19.5334 14.9755 19.4187 14.9752C18.8289 14.9734 18.2392 14.9723 17.6495 14.9718C17.0435 14.9712 16.4375 14.9684 15.8316 14.965C15.3628 14.9628 14.8941 14.9622 14.4254 14.9621C14.2022 14.9617 13.979 14.9608 13.7558 14.9592C11.9002 14.9473 10.1614 15.0127 8.77715 16.4227ZM19.1016 26.6015C18.897 26.9669 18.897 26.9669 18.9844 28.0078C25.1719 28.0078 31.3594 28.0078 37.7344 28.0078C37.7344 27.389 37.7344 26.7703 37.7344 26.1328C35.3915 26.1219 33.0486 26.1136 30.7057 26.1085C29.6178 26.1061 28.53 26.1028 27.4421 26.0974C26.494 26.0928 25.5459 26.0897 24.5978 26.0887C24.0958 26.0881 23.5937 26.0866 23.0916 26.0832C22.6191 26.0801 22.1466 26.0791 21.674 26.0798C21.5006 26.0796 21.3271 26.0787 21.1537 26.0769C20.9169 26.0746 20.68 26.0754 20.4431 26.0764C20.2443 26.0758 20.2443 26.0758 20.0414 26.0751C19.6079 26.1458 19.4137 26.2987 19.1016 26.6015ZM39.2578 26.1328C39.2578 26.7515 39.2578 27.3703 39.2578 28.0078C39.8958 28.0339 40.5334 28.053 41.1718 28.0657C41.3887 28.071 41.6056 28.0782 41.8224 28.0874C43.0303 28.1889 43.0303 28.1889 44.1223 27.7972C44.4858 27.2767 44.5893 26.75 44.7656 26.1328C42.948 26.1328 41.1305 26.1328 39.2578 26.1328ZM5.5078 29.5312C5.37 31.1374 5.37 31.1374 5.88546 32.4129C6.67105 33.0361 7.51512 32.98 8.47452 32.9759C8.63408 32.9765 8.79363 32.9772 8.95318 32.9781C9.39045 32.98 9.82769 32.9797 10.265 32.9791C10.737 32.9787 11.209 32.9805 11.6811 32.9819C12.6053 32.9844 13.5296 32.9849 14.4539 32.9847C15.2052 32.9845 15.9564 32.985 16.7077 32.9858C16.9242 32.9861 17.1407 32.9863 17.3571 32.9866C17.4649 32.9867 17.5726 32.9868 17.6836 32.9869C19.7208 32.9892 21.758 32.989 23.7952 32.9882C25.6587 32.9876 27.5221 32.99 29.3856 32.9939C31.2994 32.9979 33.2133 32.9996 35.1271 32.9991C36.2014 32.9988 37.2757 32.9994 38.35 33.0024C39.2645 33.0048 40.179 33.0052 41.0935 33.003C41.56 33.002 42.0265 33.0018 42.493 33.0042C42.9203 33.0064 43.3475 33.0059 43.7748 33.0032C44.0021 33.0025 44.2293 33.0047 44.4566 33.0069C45.1868 32.9995 45.7238 32.9462 46.3394 32.538C47.1928 31.6371 46.875 30.8134 46.875 29.5312C33.2238 29.5312 19.5726 29.5312 5.5078 29.5312ZM8.90624 34.4531C8.90624 39.3644 8.90624 44.2758 8.90624 49.3359C16.2926 49.3359 23.6789 49.3359 31.2891 49.3359C31.2891 48.8332 31.2891 48.3304 31.2891 47.8125C31.3277 47.6965 31.3664 47.5804 31.4062 47.4609C31.6452 47.362 31.6452 47.362 31.9482 47.2851C32.1593 47.2306 32.3692 47.1715 32.5781 47.1094C32.7216 47.0668 32.8651 47.0242 33.013 46.9803C33.4375 46.7893 33.4375 46.7893 33.5596 46.3339C33.5877 46.1682 33.6121 46.0018 33.6328 45.8349C33.6469 45.752 33.6609 45.6691 33.6754 45.5836C33.7456 45.1291 33.7965 44.7304 33.6328 44.2969C33.3431 43.961 33.0309 43.6585 32.7132 43.3493C32.4609 43.0078 32.4609 43.0078 32.3941 42.6159C32.4782 42.0767 32.6747 41.6996 32.9516 41.2353C32.997 41.1545 33.0424 41.0737 33.0892 40.9904C33.3712 40.5028 33.662 40.0892 34.1015 39.7265C34.7365 39.7265 35.2626 39.9035 35.8502 40.1339C36.1555 40.2109 36.2704 40.1999 36.5625 40.0781C36.8269 39.8909 37.0793 39.7018 37.3315 39.4995C38.0643 38.9207 38.0643 38.9207 38.4375 38.6719C38.4546 38.2236 38.4392 37.7892 38.4135 37.3421C38.3899 36.6377 38.3899 36.6377 38.6156 36.281C38.9948 36.0367 39.3848 35.903 39.8144 35.7788C39.8939 35.7539 39.9734 35.7291 40.0552 35.7035C40.6083 35.5368 41.1416 35.4289 41.7187 35.3906C42.2581 35.763 42.5257 36.3337 42.8288 36.9012C43.0057 37.2013 43.0057 37.2013 43.4765 37.2656C43.4765 36.3375 43.4765 35.4094 43.4765 34.4531C32.0683 34.4531 20.6601 34.4531 8.90624 34.4531ZM40.4224 37.0898C40.3146 37.1225 40.2069 37.1551 40.096 37.1887C39.9711 37.2268 39.9711 37.2268 39.8437 37.2656C39.8505 37.4111 39.8573 37.5566 39.8643 37.7064C39.8698 37.8988 39.8752 38.0913 39.8804 38.2837C39.8853 38.3794 39.8902 38.4751 39.8952 38.5737C39.9055 39.0824 39.9003 39.3021 39.5791 39.716C39.3129 39.9189 39.0528 40.1095 38.7671 40.2832C38.2201 40.6335 37.7637 41.052 37.2963 41.5013C37.0252 41.7237 36.9087 41.8167 36.5625 41.8359C36.1999 41.7448 36.1999 41.7448 35.8008 41.6089C35.3508 41.4566 35.0493 41.3672 34.5703 41.3672C34.3769 41.7539 34.1836 42.1406 33.9844 42.539C34.1318 42.6841 34.2792 42.8291 34.4311 42.9785C35.2537 43.7876 35.2537 43.7876 35.3174 44.2969C35.2955 44.8102 35.1478 45.2944 35.0134 45.7878C34.8883 46.3126 34.8344 46.8405 34.7836 47.3771C34.6875 47.6953 34.6875 47.6953 34.4247 47.899C34.1145 48.0409 33.8052 48.1746 33.4863 48.2959C33.1202 48.4175 33.1202 48.4175 32.8125 48.6328C32.779 49.2029 32.8558 49.6223 33.0469 50.1562C33.2651 50.178 33.2651 50.178 33.4877 50.2002C33.8778 50.2464 34.2646 50.3011 34.6509 50.3728C34.7386 50.3888 34.8264 50.4048 34.9168 50.4213C35.2117 50.5278 35.3392 50.6649 35.5298 50.9106C35.6034 51.0877 35.6738 51.2661 35.7422 51.4453C35.8854 51.6986 36.0321 51.95 36.1816 52.1997C36.2511 52.3204 36.3206 52.4411 36.3922 52.5654C36.5374 52.836 36.5374 52.836 36.6797 52.9687C36.7461 53.5836 36.5552 54.0078 36.2695 54.5361C36.2304 54.6112 36.1913 54.6863 36.151 54.7636C36.055 54.9472 35.9574 55.13 35.8594 55.3125C36.2461 55.6605 36.6328 56.0086 37.0312 56.3672C37.5743 56.1499 37.9926 55.8982 38.4732 55.5752C38.9381 55.361 39.3402 55.3513 39.8338 55.495C40.0655 55.5808 40.2913 55.6748 40.5176 55.7739C40.6707 55.8385 40.8239 55.903 40.9772 55.9675C41.1059 56.0221 41.2346 56.0766 41.3672 56.1328C41.4832 56.1715 41.5992 56.2101 41.7187 56.25C41.8195 56.5606 41.8987 56.8552 41.9678 57.1728C42.007 57.3434 42.0464 57.514 42.0859 57.6846C42.1194 57.8299 42.1529 57.9753 42.1875 58.125C42.2262 58.241 42.2648 58.357 42.3047 58.4765C42.5512 58.4994 42.7978 58.5212 43.0444 58.5425C43.1817 58.5547 43.3191 58.5669 43.4605 58.5795C43.8317 58.6155 43.8317 58.6155 44.1797 58.4765C44.3283 58.06 44.4551 57.6451 44.5676 57.2177C44.7716 56.5541 44.7716 56.5541 45.0975 56.3497C45.3367 56.2601 45.5722 56.1929 45.8203 56.1328C45.9158 56.0961 46.0112 56.0594 46.1096 56.0216C47.2745 55.5982 47.2745 55.5982 47.8125 55.7812C48.3162 56.1371 48.7683 56.5327 49.2187 56.9531C50.0535 56.5256 50.0535 56.5256 50.7422 55.8984C50.5196 55.205 50.5196 55.205 50.2515 54.5288C50.1269 54.1743 50.119 53.9304 50.1562 53.5547C50.3746 53.199 50.3746 53.199 50.6616 52.8442C51.0578 52.3506 51.0578 52.3506 51.3991 51.8193C51.5625 51.5625 51.5625 51.5625 51.914 51.4453C52.0703 51.4284 52.2272 51.4165 52.3842 51.4082C52.4729 51.4033 52.5617 51.3984 52.6531 51.3933C52.7452 51.3887 52.8373 51.3841 52.9321 51.3794C53.0723 51.3718 53.0723 51.3718 53.2152 51.364C53.4456 51.3516 53.6759 51.3398 53.9062 51.3281C54.1672 50.7722 54.3119 50.3059 54.375 49.6875C54.2014 49.5921 54.2014 49.5921 54.0243 49.4948C53.8726 49.4101 53.721 49.3254 53.5693 49.2407C53.493 49.1989 53.4168 49.1572 53.3382 49.1141C52.961 48.9022 52.7438 48.7641 52.5 48.3984C52.2972 47.3834 52.0459 45.8996 52.5278 44.948C52.9111 44.4662 53.3775 44.1359 53.9062 43.8281C53.8532 43.6594 53.7993 43.491 53.7451 43.3227C53.7152 43.2289 53.6853 43.1351 53.6545 43.0385C53.556 42.7468 53.556 42.7468 53.3203 42.4219C53.2381 42.4388 53.1559 42.4557 53.0713 42.4731C51.738 42.734 51.738 42.734 51.0937 42.6562C50.8439 42.4641 50.7011 42.3119 50.5078 42.0703C50.3354 41.8741 50.162 41.6789 49.9878 41.4844C49.8974 41.3816 49.8071 41.2789 49.714 41.1731C49.4948 40.9423 49.2981 40.7796 49.0356 40.6054C48.7112 40.2727 48.7056 40.2071 48.6987 39.7632C48.7115 39.5553 48.7288 39.3477 48.75 39.1406C48.7643 38.9741 48.7643 38.9741 48.7788 38.8041C48.8045 38.5253 48.8354 38.2469 48.8672 37.9687C48.4805 37.7754 48.0937 37.582 47.6953 37.3828C47.3589 37.7009 47.1078 38.0232 46.853 38.4082C46.4902 38.8831 46.4902 38.8831 46.1435 38.9786C45.7619 38.9798 45.4136 38.9189 45.0403 38.8426C44.7121 38.7977 44.425 38.7868 44.0959 38.7932C42.4877 38.8121 42.4877 38.8121 41.9815 38.4242C41.7751 38.1226 41.627 37.8358 41.4844 37.5C41.3727 37.3014 41.2568 37.1051 41.1328 36.914C40.8918 36.914 40.6504 37.0205 40.4224 37.0898Z" fill="#266BFF"/>
<path d="M47.8024 41.9536C49.3128 43.1165 50.2654 44.7179 50.5554 46.5976C50.787 48.571 50.2856 50.3343 49.1016 51.9141C49.0529 51.9834 49.0043 52.0527 48.9542 52.1242C47.9812 53.3971 46.4249 54.1277 44.8906 54.4464C42.7971 54.7131 40.926 54.2829 39.2285 52.998C37.7359 51.7327 36.9158 50.0777 36.709 48.1494C36.5943 46.3117 37.0974 44.7055 38.2031 43.2422C38.259 43.1642 38.3149 43.0863 38.3725 43.006C40.6198 40.1375 44.9546 39.9952 47.8024 41.9536ZM39.6313 43.916C38.6602 45.067 38.1202 46.4782 38.2104 48.0029C38.4246 49.5243 39.0816 50.9064 40.3075 51.8742C41.7183 52.7995 43.1249 53.2205 44.8054 52.8923C46.3012 52.4779 47.5363 51.6708 48.3435 50.3261C49.1343 48.8111 49.2431 47.3813 48.7798 45.7461C48.3119 44.4195 47.305 43.332 46.0474 42.7144C43.797 41.7464 41.355 42.1043 39.6313 43.916Z" fill="#266BFF"/>
<path d="M20.5518 0.966827C22.091 2.15376 23.0252 3.53655 23.4009 5.44925C23.5598 7.22835 23.2504 8.96254 22.1315 10.4013C21.8734 10.696 21.6073 10.9753 21.3282 11.25C21.2593 11.3188 21.1904 11.3875 21.1194 11.4583C19.988 12.507 18.4719 12.9597 16.9556 12.9419C16.8484 12.941 16.7411 12.9401 16.6307 12.9392C14.8402 12.8959 13.4105 12.186 12.1161 10.969C10.7995 9.53613 10.3094 7.81486 10.3849 5.90701C10.5095 4.1036 11.3526 2.62592 12.6563 1.40628C14.9284 -0.330994 18.1149 -0.634127 20.5518 0.966827ZM13.3594 2.84915C12.2938 4.05202 11.8557 5.33279 11.9124 6.92096C12.0393 8.35898 12.8015 9.53325 13.8858 10.454C15.1317 11.3447 16.4432 11.4892 17.9297 11.3672C19.1477 11.132 20.2377 10.3818 20.9693 9.38968C21.7932 8.10529 22.1091 6.78796 21.7823 5.28812C21.591 4.57358 21.281 4.00212 20.8594 3.39847C20.7748 3.2752 20.6902 3.15193 20.6031 3.02493C18.6007 1.02256 15.4621 0.89034 13.3594 2.84915Z" fill="#266BFF"/>
</g>
<defs>
<clipPath id="clip0_42_328">
<rect width="60" height="60" fill="white"/>
</clipPath>
</defs>
</svg>
