<svg width="60" height="60" viewBox="0 0 60 60" fill="none" xmlns="http://www.w3.org/2000/svg">
<path d="M31.1719 5.62501C31.2478 5.65928 31.3237 5.69355 31.4019 5.72886C33.2152 6.55622 34.7265 7.70534 36.2109 9.02345C36.3258 9.12541 36.3258 9.12541 36.443 9.22944C39.5198 12.1382 41.3246 16.5955 41.4958 20.7886C41.501 21.0745 41.5029 21.3602 41.5033 21.6461C41.5038 21.7531 41.5044 21.8602 41.505 21.9705C41.5067 22.3205 41.5075 22.6705 41.5082 23.0205C41.5085 23.1409 41.5088 23.2614 41.5092 23.3854C41.5109 24.0219 41.512 24.6583 41.5125 25.2947C41.5132 25.9499 41.516 26.605 41.5193 27.2601C41.5215 27.7663 41.5221 28.2725 41.5223 28.7787C41.5226 29.0202 41.5236 29.2617 41.5251 29.5032C41.5271 29.8413 41.5269 30.1794 41.5261 30.5175C41.5272 30.616 41.5283 30.7145 41.5294 30.8159C41.5226 31.7878 41.2676 32.6654 40.6439 33.4223C39.9999 34.0552 39.3493 34.2454 38.4644 34.2579C38.064 34.2542 37.6655 34.2396 37.2656 34.2188C37.2685 35.1382 37.3527 35.8933 37.7197 36.7383C38.647 38.9034 38.8303 41.4866 37.9687 43.7109C37.7537 44.1915 37.5224 44.6576 37.2656 45.1172C37.5951 45.2128 37.9247 45.308 38.2544 45.4028C38.3607 45.4335 38.467 45.4641 38.5765 45.4957C39.2885 45.6994 40.0024 45.8951 40.7181 46.0854C40.891 46.1316 41.064 46.1778 41.237 46.2241C41.4946 46.293 41.7523 46.3615 42.0103 46.4289C44.5082 47.0817 44.5082 47.0817 45.2344 48.1641C45.5727 48.7839 45.7158 49.4108 45.722 50.1131C45.7231 50.2172 45.7243 50.3213 45.7254 50.4285C45.7262 50.5953 45.7262 50.5954 45.7269 50.7655C45.7276 50.8816 45.7283 50.9976 45.729 51.1172C45.7301 51.3625 45.7308 51.6079 45.7313 51.8533C45.7324 52.2257 45.736 52.598 45.7397 52.9704C45.7405 53.2095 45.7411 53.4487 45.7416 53.6879C45.743 53.7979 45.7445 53.908 45.746 54.0213C45.7428 54.9845 45.6013 55.9658 44.9341 56.7041C44.8638 56.786 44.7936 56.8679 44.7212 56.9522C43.7853 57.6692 42.792 57.724 41.6499 57.7158C41.4912 57.7163 41.3325 57.7171 41.1737 57.718C40.7404 57.7199 40.3071 57.719 39.8737 57.7175C39.4053 57.7165 38.9369 57.7181 38.4684 57.7194C37.5519 57.7215 36.6353 57.721 35.7188 57.7197C34.9736 57.7186 34.2285 57.7185 33.4834 57.719C33.3241 57.7191 33.3241 57.7191 33.1616 57.7192C32.9459 57.7194 32.7302 57.7195 32.5144 57.7197C30.4931 57.721 28.4718 57.7195 26.4505 57.7169C24.7173 57.7148 22.9842 57.7152 21.251 57.7174C19.2367 57.7199 17.2225 57.7209 15.2082 57.7194C14.9933 57.7193 14.7784 57.7191 14.5635 57.719C14.4578 57.7189 14.352 57.7188 14.2431 57.7188C13.4991 57.7184 12.7552 57.719 12.0112 57.7201C11.1042 57.7215 10.1972 57.7211 9.29018 57.7186C8.82768 57.7174 8.36522 57.7169 7.90273 57.7184C7.47883 57.7198 7.05499 57.7191 6.6311 57.7166C6.40624 57.7158 6.18138 57.7173 5.95652 57.7189C4.85732 57.709 3.85837 57.5143 3.04688 56.7188C2.07995 55.5788 2.24493 54.07 2.26496 52.6673C2.27051 52.2511 2.26977 51.8354 2.26822 51.4192C2.26953 51.1517 2.27119 50.8843 2.27325 50.6168C2.27293 50.4325 2.27293 50.4325 2.27261 50.2445C2.29161 49.246 2.49498 48.351 3.17871 47.5928C3.98234 46.8632 5.14255 46.6462 6.16699 46.3829C6.29223 46.35 6.41747 46.3172 6.54651 46.2833C6.94228 46.1795 7.33831 46.0768 7.73438 45.9741C8.13374 45.8701 8.53305 45.7658 8.93229 45.6612C9.17974 45.5964 9.42727 45.532 9.67489 45.4679C9.78606 45.4389 9.89722 45.41 10.0117 45.3801C10.1097 45.3547 10.2077 45.3293 10.3086 45.3032C10.5519 45.2408 10.5519 45.2408 10.7812 45.1172C10.7359 45.0334 10.6906 44.9495 10.6439 44.8631C9.47949 42.6352 9.1038 40.2459 9.81811 37.8149C10.3659 36.1575 10.3659 36.1575 10.6641 35.8594C10.6916 35.584 10.7126 35.3079 10.73 35.0317C10.7447 34.8049 10.7447 34.8049 10.7597 34.5735C10.7668 34.4565 10.7739 34.3394 10.7812 34.2188C10.651 34.2256 10.5208 34.2324 10.3867 34.2394C9.22325 34.2821 8.3116 34.2575 7.40295 33.4401C6.66722 32.649 6.51001 31.8733 6.51701 30.8264C6.51639 30.7121 6.51578 30.5978 6.51514 30.4801C6.5136 30.1034 6.51462 29.7267 6.51581 29.35C6.51557 29.0859 6.51523 28.8218 6.51479 28.5576C6.51427 28.0036 6.51502 27.4496 6.51667 26.8956C6.51866 26.1916 6.51753 25.4876 6.51541 24.7836C6.51413 24.2374 6.51455 23.6913 6.51546 23.1451C6.51569 22.8859 6.51541 22.6268 6.51458 22.3676C6.50959 20.3612 6.62786 18.4049 7.24365 16.4795C7.27387 16.3823 7.3041 16.2851 7.33523 16.1849C7.59754 15.3653 7.92501 14.5928 8.32031 13.8281C8.38149 13.7049 8.44267 13.5816 8.50571 13.4546C9.31919 11.8695 10.3698 10.5343 11.6016 9.25782C11.6795 9.17383 11.7575 9.08984 11.8378 9.0033C16.6584 3.93962 24.9294 2.76724 31.1719 5.62501ZM19.8047 5.97657C19.7168 6.00044 19.629 6.02431 19.5385 6.0489C15.377 7.20625 11.9452 10.084 9.83597 13.8148C8.47571 16.285 7.82624 18.9602 7.84012 21.7754C7.84028 21.9039 7.84045 22.0325 7.84062 22.165C7.84127 22.5721 7.84274 22.9791 7.84424 23.3862C7.84483 23.6637 7.84536 23.9412 7.84584 24.2187C7.84713 24.8958 7.84908 25.5729 7.85156 26.25C7.9845 26.1937 8.11743 26.1373 8.25439 26.0793C8.78684 25.8796 9.27919 25.835 9.84375 25.8179C9.93454 25.8139 10.0253 25.8099 10.1189 25.8057C10.3396 25.7962 10.5604 25.7885 10.7812 25.7813C10.7817 25.7128 10.7821 25.6443 10.7825 25.5738C10.7875 24.8492 10.7957 24.1247 10.8056 23.4002C10.8088 23.1312 10.8113 22.8622 10.813 22.5933C10.8371 18.9198 11.6323 15.5506 14.1797 12.7734C14.2308 12.7167 14.282 12.66 14.3347 12.6015C16.2842 10.4594 19.04 8.97434 21.9141 8.5547C22.0018 8.5417 22.0896 8.52871 22.18 8.51533C25.6164 8.09362 29.1773 8.93641 31.9578 11.0269C32.2902 11.2871 32.6122 11.5578 32.9297 11.8359C33.0256 11.9199 33.1215 12.0039 33.2204 12.0905C35.7768 14.4976 37.0814 17.9566 37.1997 21.4191C37.2143 22.0186 37.2225 22.6181 37.229 23.2178C37.2329 23.4679 37.2369 23.718 37.2411 23.9681C37.251 24.5724 37.2588 25.1768 37.2656 25.7813C37.3887 25.7856 37.5119 25.79 37.6387 25.7945C37.8049 25.8022 37.971 25.81 38.1372 25.8179C38.2581 25.8218 38.2581 25.8218 38.3814 25.8259C39.0302 25.8591 39.5893 26.0203 40.1953 26.25C40.2481 20.5707 40.0873 15.1653 35.9766 10.7813C35.9137 10.7134 35.8508 10.6456 35.7861 10.5757C33.1067 7.70989 29.3622 5.69857 25.3918 5.48708C23.4828 5.45306 21.6572 5.45144 19.8047 5.97657ZM17.9297 11.25C17.9297 11.2887 17.9297 11.3274 17.9297 11.3672C18.0357 11.3676 18.1418 11.3681 18.251 11.3685C19.2544 11.3729 20.2577 11.3796 21.261 11.3887C21.7767 11.3934 22.2924 11.3971 22.8081 11.399C23.3066 11.4007 23.805 11.4048 24.3035 11.4104C24.4929 11.4121 24.6823 11.413 24.8717 11.4131C26.289 11.4146 27.4434 11.5427 28.5132 12.5565C29.0447 13.1397 29.2538 13.7699 29.4141 14.5313C29.499 14.4903 29.5839 14.4494 29.6713 14.4072C29.8413 14.3272 29.8413 14.3272 30.0146 14.2456C30.1819 14.1661 30.1819 14.1661 30.3525 14.0849C30.9906 13.8309 31.589 13.8144 32.2705 13.8208C32.4164 13.8219 32.5624 13.8229 32.7127 13.824C32.8781 13.8261 32.8781 13.8261 33.0469 13.8281C32.1086 12.6733 31.0589 11.8673 29.7656 11.1328C29.6534 11.0686 29.5411 11.0044 29.4255 10.9383C25.7002 8.94022 21.5858 9.42723 17.9297 11.25ZM14.7144 13.9993C13.5687 15.4513 12.7191 17.1823 12.3047 18.9844C12.2718 19.1187 12.2718 19.1187 12.2383 19.2557C11.972 20.5428 12.0451 21.8666 12.0557 23.1738C12.0568 23.4271 12.0579 23.6804 12.0589 23.9337C12.0614 24.5496 12.0653 25.1654 12.0703 25.7813C19.6171 25.9316 19.6171 25.9316 26.1328 22.5C26.2227 22.4183 26.3126 22.3366 26.4052 22.2524C26.9921 21.692 27.483 21.0854 27.9449 20.4203C28.1634 20.1182 28.313 19.9397 28.6652 19.8047C28.9453 19.8047 28.9453 19.8047 29.2969 20.0391C29.3817 20.3486 29.4492 20.6477 29.5093 20.9619C29.8158 22.3897 30.3258 23.5914 31.5564 24.4428C32.2547 24.8803 32.9923 25.2256 33.75 25.5469C33.8777 25.6083 33.8777 25.6083 34.008 25.6711C34.4171 25.8085 34.7623 25.804 35.1929 25.7959C35.4133 25.7927 35.4133 25.7927 35.6383 25.7895C35.7499 25.7868 35.8615 25.7841 35.9766 25.7813C35.9854 25.1211 35.9917 24.4609 35.9959 23.8007C35.9976 23.5772 36 23.3537 36.0031 23.1302C36.0292 21.1876 35.9519 19.2459 35.2295 17.417C35.1805 17.2801 35.1805 17.2801 35.1306 17.1405C34.8044 16.2794 34.2763 15.7864 33.468 15.3607C32.5867 14.9944 31.713 14.8864 30.8203 15.2344C30.2041 15.5608 29.7822 15.9778 29.5312 16.6406C29.455 16.9507 29.394 17.2584 29.3431 17.5736C29.2969 17.8125 29.2969 17.8125 29.1797 17.9297C28.8667 17.9462 28.5557 17.9347 28.2422 17.9297C28.2411 17.8281 28.24 17.7265 28.2389 17.6218C28.2337 17.2409 28.2264 16.86 28.2179 16.4792C28.2146 16.3151 28.2121 16.151 28.2104 15.9868C28.2052 14.5331 28.2052 14.5331 27.4951 13.3002C26.8749 12.7337 26.2329 12.6271 25.418 12.6241C25.3378 12.6235 25.2577 12.6229 25.1751 12.6223C24.9118 12.6206 24.6484 12.6207 24.3851 12.621C24.2003 12.6206 24.0155 12.62 23.8307 12.6195C23.4436 12.6186 23.0564 12.6186 22.6693 12.6193C22.1768 12.6199 21.6844 12.618 21.1919 12.6152C20.81 12.6135 20.4282 12.6134 20.0463 12.6138C19.865 12.6137 19.6836 12.6131 19.5023 12.6119C17.8369 12.6023 15.9539 12.7479 14.7144 13.9993ZM28.2033 22.1796C28.1377 22.248 28.0722 22.3164 28.0046 22.3869C26.3889 24.0531 26.3889 24.0531 25.4297 24.6094C25.3543 24.6539 25.2789 24.6984 25.2011 24.7442C23.8113 25.5538 22.4231 26.1112 20.8594 26.4844C20.7801 26.5038 20.7008 26.5232 20.6191 26.5433C18.6447 27.0045 16.5487 26.9795 14.5312 27.0703C14.5223 27.9501 14.5162 28.8298 14.5119 29.7096C14.5102 30.0085 14.5078 30.3075 14.5047 30.6064C14.5004 31.0375 14.4985 31.4686 14.4969 31.8997C14.4951 32.0321 14.4933 32.1645 14.4914 32.3009C14.4911 33.709 14.8184 34.8363 15.8203 35.8594C16.3801 36.3115 16.995 36.6853 17.6057 37.0637C17.9611 37.2852 18.3131 37.5114 18.6649 37.7385C19.3943 38.2092 20.1261 38.676 20.8594 39.1406C20.9928 39.2252 20.9928 39.2252 21.1289 39.3115C21.3414 39.4457 21.5543 39.5791 21.7676 39.7119C21.8757 39.7793 21.9839 39.8467 22.0953 39.9161C22.6157 40.2094 23.077 40.3541 23.6719 40.415C23.7903 40.4292 23.9087 40.4434 24.0308 40.4581C25.3409 40.3775 26.3849 39.7947 27.4512 39.0747C27.5768 38.992 27.7024 38.9093 27.8318 38.8241C28.0843 38.6577 28.3364 38.4907 28.588 38.323C28.9158 38.1055 29.2457 37.8919 29.5775 37.6804C29.6709 37.6208 29.7643 37.5612 29.8605 37.4998C30.0329 37.3899 30.2054 37.2801 30.378 37.1704C30.5665 37.049 30.7524 36.9234 30.9375 36.7969C30.9375 36.7582 30.9375 36.7195 30.9375 36.6797C30.829 36.679 30.7204 36.6783 30.6086 36.6776C29.5844 36.6708 28.5602 36.6624 27.5361 36.6521C27.0096 36.6468 26.4831 36.6422 25.9566 36.6391C25.4482 36.636 24.9399 36.6313 24.4316 36.6254C24.2379 36.6235 24.0442 36.6221 23.8505 36.6214C23.5786 36.6202 23.3069 36.617 23.0351 36.6132C22.8805 36.6119 22.7259 36.6106 22.5667 36.6092C22.1143 36.5587 21.8303 36.4504 21.4453 36.2109C21.0997 35.7041 21.0179 35.2946 21.0937 34.6875C21.3642 34.1666 21.6194 33.8815 22.1484 33.6328C22.4844 33.5991 22.7939 33.5835 23.1294 33.5861C23.27 33.5856 23.27 33.5856 23.4135 33.5851C23.6112 33.5849 23.8089 33.5855 24.0065 33.587C24.3077 33.5889 24.6087 33.587 24.9099 33.5848C25.1025 33.585 25.2952 33.5854 25.4878 33.5861C25.5772 33.5854 25.6666 33.5847 25.7587 33.584C26.4109 33.5925 26.9068 33.7231 27.3999 34.1821C27.5391 34.4531 27.5391 34.4531 27.6562 35.3906C29.3191 35.3906 30.982 35.3906 32.6953 35.3906C33.3735 34.1253 33.3735 34.1253 33.5289 32.8492C33.5289 32.7155 33.5289 32.5819 33.5289 32.4441C33.5283 32.3004 33.5277 32.1567 33.5271 32.0087C33.5269 31.8611 33.5267 31.7135 33.5266 31.5614C33.526 31.1699 33.525 30.7785 33.5237 30.387C33.5225 29.9872 33.5219 29.5873 33.5213 29.1875C33.5201 28.4036 33.5181 27.6198 33.5156 26.8359C33.4193 26.7914 33.4193 26.7914 33.321 26.7459C33.0273 26.6096 32.7341 26.4724 32.4408 26.3352C32.3398 26.2884 32.2387 26.2417 32.1346 26.1935C31.4236 25.8598 30.8111 25.4996 30.2344 24.9609C30.1258 24.8701 30.1258 24.8701 30.0151 24.7774C29.2039 24.0534 28.7991 23.0504 28.4766 22.0313C28.3376 22.0178 28.3376 22.0178 28.2033 22.1796ZM8.03879 27.8764C7.71297 28.53 7.77936 29.2807 7.78564 29.9927C7.78285 30.1376 7.78006 30.2826 7.77718 30.4319C7.77839 31.1863 7.81734 31.7618 8.24298 32.3967C8.79194 32.9088 9.35899 32.9798 10.0809 32.964C10.1585 32.9637 10.2361 32.9633 10.3161 32.963C10.603 32.9611 10.8899 32.9562 11.1768 32.9517C12.1411 32.9408 12.1411 32.9408 13.125 32.9297C13.125 30.9961 13.125 29.0625 13.125 27.0703C12.4845 27.0607 11.844 27.051 11.1841 27.041C10.8833 27.0346 10.8833 27.0346 10.5764 27.0281C10.415 27.0267 10.2537 27.0255 10.0923 27.0245C10.0105 27.0221 9.92865 27.0197 9.84434 27.0173C9.05646 27.0167 8.54478 27.2701 8.03879 27.8764ZM34.8047 27.0703C34.8047 29.0039 34.8047 30.9375 34.8047 32.9297C35.4669 32.9394 36.1292 32.949 36.8115 32.959C37.0193 32.9633 37.227 32.9675 37.441 32.9719C37.6075 32.9733 37.7739 32.9745 37.9404 32.9755C38.0678 32.9791 38.0678 32.9791 38.1978 32.9827C38.806 32.9832 39.1397 32.841 39.6094 32.4609C40.2964 31.7368 40.2167 30.9601 40.2173 30.0147C40.2194 29.8445 40.2194 29.8445 40.2216 29.6709C40.2376 28.5953 40.2376 28.5953 39.7668 27.6608C39.6955 27.6062 39.6242 27.5515 39.5508 27.4951C39.4795 27.4386 39.4082 27.3821 39.3347 27.3239C38.8984 27.0173 38.5015 27.0553 37.9861 27.0589C37.8656 27.0591 37.8656 27.0591 37.7425 27.0592C37.442 27.0598 37.1414 27.0615 36.8408 27.063C35.8329 27.0666 35.8329 27.0666 34.8047 27.0703ZM12.0703 34.2188C12.0714 34.3506 12.0724 34.4825 12.0735 34.6184C12.0606 35.6898 11.9403 36.5069 11.4452 37.4602C10.5647 39.1603 10.6028 40.9784 11.1672 42.7712C11.3958 43.4246 11.6785 44.0771 12.0703 44.6484C12.4407 44.7952 12.696 44.7538 13.0745 44.6517C13.2322 44.61 13.2322 44.61 13.3932 44.5675C13.5057 44.5365 13.6183 44.5055 13.7343 44.4736C13.8504 44.4425 13.9665 44.4114 14.0861 44.3793C14.3312 44.3135 14.5762 44.247 14.821 44.1801C15.1972 44.0773 15.5738 43.9761 15.9505 43.8753C16.1884 43.8111 16.4262 43.7469 16.664 43.6826C16.7772 43.652 16.8905 43.6215 17.0072 43.5901C17.1113 43.5615 17.2153 43.533 17.3225 43.5036C17.4146 43.4786 17.5066 43.4535 17.6014 43.4277C17.8126 43.377 17.8126 43.377 17.9297 43.2422C18.2888 40.7786 18.2888 40.7786 17.7295 38.4558C17.2244 37.976 16.622 37.723 15.9735 37.4878C14.8117 37.0367 14.068 35.966 13.5828 34.8656C13.5013 34.6525 13.429 34.436 13.3594 34.2188C12.934 34.2188 12.5086 34.2188 12.0703 34.2188ZM34.6875 34.2188C34.5328 34.6055 34.3781 34.9922 34.2187 35.3906C34.7988 35.3906 35.3789 35.3906 35.9766 35.3906C35.9766 35.0039 35.9766 34.6172 35.9766 34.2188C35.5512 34.2188 35.1258 34.2188 34.6875 34.2188ZM22.2656 34.9219C22.2656 35.0379 22.2656 35.1539 22.2656 35.2734C22.7827 35.532 23.482 35.4172 24.0569 35.4188C24.3154 35.4199 24.5738 35.4236 24.8323 35.4273C24.996 35.428 25.1598 35.4286 25.3235 35.4291C25.5477 35.4307 25.5477 35.4307 25.7764 35.4324C25.894 35.4186 26.0116 35.4048 26.1328 35.3906C26.2102 35.2746 26.2875 35.1586 26.3672 35.0391C26.1457 34.767 26.1457 34.767 25.7764 34.7762C25.627 34.7767 25.4775 34.7772 25.3235 34.7777C25.2437 34.7777 25.164 34.7778 25.0818 34.7779C24.9132 34.7782 24.7445 34.7791 24.5759 34.7806C24.3174 34.7827 24.059 34.783 23.8005 34.783C23.0091 34.7383 23.0091 34.7383 22.2656 34.9219ZM32.1094 37.5C31.9338 37.6232 31.7555 37.7427 31.5747 37.858C31.4458 37.9405 31.4458 37.9405 31.3142 38.0246C31.2286 38.0787 31.1429 38.1328 31.0547 38.1885C30.8788 38.3004 30.703 38.4124 30.5273 38.5245C30.4512 38.5727 30.3751 38.6208 30.2966 38.6705C30.1195 38.779 30.1195 38.779 30 38.9063C29.9896 39.2272 29.9865 39.5452 29.9886 39.8662C29.9887 39.9623 29.9889 40.0583 29.9891 40.1573C29.9897 40.4654 29.9912 40.7735 29.9927 41.0816C29.9933 41.2899 29.9938 41.4983 29.9943 41.7066C29.9956 42.2185 29.9976 42.7303 30 43.2422C31.3182 43.6673 32.6441 44.0432 33.9844 44.3921C34.1678 44.4402 34.3512 44.4883 34.5346 44.5365C34.9761 44.6524 35.4177 44.7678 35.8594 44.8828C37.0436 42.642 37.5467 40.6374 36.828 38.1477C36.6479 37.6458 36.4343 37.1637 36.2109 36.6797C35.7252 36.6556 35.2396 36.6412 34.7534 36.6284C34.6169 36.6216 34.4804 36.6147 34.3398 36.6076C33.3068 36.5872 32.8567 36.817 32.1094 37.5ZM19.2187 39.7266C18.9193 41.9522 18.9193 41.9522 19.5305 43.9714C19.8638 44.2586 20.2373 44.4599 20.6329 44.6492C21.0015 44.8387 21.308 45.0986 21.6284 45.3589C21.8148 45.5019 22.0011 45.6449 22.1876 45.7878C22.5386 46.057 22.8891 46.3269 23.2397 46.5967C23.3687 46.6959 23.4976 46.7951 23.6266 46.8942C23.7189 46.9652 23.8112 47.0362 23.9062 47.1094C24.3301 46.9205 24.6691 46.6618 25.0342 46.377C25.0987 46.3268 25.1632 46.2766 25.2297 46.2249C25.3731 46.1133 25.5164 46.0015 25.6597 45.8895C25.9202 45.6862 26.1814 45.4838 26.4427 45.2815C26.63 45.1364 26.8172 44.9913 27.0044 44.8462C27.0931 44.7775 27.1818 44.7088 27.2732 44.638C27.3583 44.5718 27.4435 44.5056 27.5313 44.4374C27.6063 44.3792 27.6813 44.321 27.7585 44.261C27.8408 44.1955 27.9231 44.13 28.0078 44.0625C28.1945 43.9322 28.1945 43.9322 28.3849 43.7994C28.7443 43.5037 28.7443 43.5037 28.7908 43.0766C28.7871 42.9274 28.7834 42.7783 28.7796 42.6247C28.7781 42.505 28.7781 42.505 28.7766 42.3828C28.7727 42.1295 28.7639 41.8767 28.7549 41.6235C28.7514 41.4512 28.7481 41.2789 28.7453 41.1065C28.7375 40.6854 28.7254 40.2646 28.7109 39.8438C28.2336 40.0266 27.8362 40.2529 27.4072 40.5322C26.0344 41.4015 24.5874 41.8092 22.9655 41.5434C21.6847 41.2517 20.6876 40.6511 19.6138 39.911C19.3753 39.7158 19.3753 39.7158 19.2187 39.7266ZM28.6816 45.1538C28.5982 45.2171 28.5147 45.2803 28.4287 45.3454C27.8052 45.8195 27.1879 46.3014 26.5735 46.7872C26.081 47.1765 25.5827 47.5563 25.0781 47.9297C25.5797 48.5441 26.1116 49.0613 26.7187 49.5703C26.786 49.6289 26.8532 49.6875 26.9225 49.7479C27.4281 50.1846 27.7729 50.2841 28.4381 50.3233C29.1781 50.188 29.6147 49.7666 30.0262 49.1739C30.0804 49.092 30.1346 49.0102 30.1904 48.9258C30.2488 48.8402 30.3071 48.7546 30.3672 48.6664C30.5592 48.383 30.7484 48.0979 30.9375 47.8125C31.0083 47.7074 31.079 47.6023 31.1519 47.494C31.3674 47.1738 31.5813 46.8525 31.7944 46.5308C31.8626 46.4288 31.9307 46.3268 32.0009 46.2218C32.0629 46.1269 32.1248 46.032 32.1886 45.9343C32.2718 45.8079 32.2718 45.8079 32.3567 45.6789C32.4083 45.5749 32.4083 45.5749 32.4609 45.4688C32.3651 45.2104 32.3651 45.2104 32.0975 45.1432C31.9916 45.115 31.8857 45.0868 31.7766 45.0577C31.6617 45.0267 31.5468 44.9958 31.4285 44.9638C31.3075 44.9323 31.1866 44.9007 31.062 44.8682C30.9415 44.8357 30.8211 44.8032 30.6969 44.7698C29.7302 44.512 29.4883 44.5364 28.6816 45.1538ZM16.9263 44.8682C16.7365 44.9155 16.7365 44.9155 16.5429 44.9638C16.4227 44.9948 16.3026 45.0258 16.1787 45.0577C16.0679 45.0859 15.9571 45.1141 15.8429 45.1432C15.5651 45.2083 15.5651 45.2083 15.4687 45.4688C15.9357 46.1731 16.4046 46.8761 16.875 47.5781C16.9356 47.6687 16.9962 47.7593 17.0587 47.8526C17.2286 48.1059 17.3995 48.3585 17.5708 48.6108C17.6218 48.6871 17.6729 48.7633 17.7254 48.8418C18.3263 49.733 18.3263 49.733 19.2187 50.2734C19.9359 50.344 20.398 50.2522 20.9766 49.8047C21.3109 49.5148 21.6371 49.218 21.9608 48.9162C22.2873 48.6127 22.6226 48.3275 22.9687 48.0469C22.525 47.5794 22.0526 47.1968 21.5332 46.8164C21.3674 46.6938 21.2017 46.5712 21.0361 46.4484C20.9502 46.3847 20.8642 46.321 20.7757 46.2554C20.4985 46.0477 20.2241 45.8367 19.9503 45.6244C19.8146 45.5194 19.8146 45.5194 19.6762 45.4122C19.5003 45.2758 19.3247 45.1389 19.1495 45.0016C19.0699 44.9401 18.9904 44.8785 18.9084 44.8151C18.8381 44.7602 18.7678 44.7053 18.6954 44.6488C18.2275 44.3428 17.4238 44.74 16.9263 44.8682ZM33.8672 45.7031C33.6954 45.8896 33.6954 45.8896 33.5428 46.1438C33.4494 46.2882 33.4494 46.2882 33.3541 46.4355C33.2875 46.541 33.2208 46.6464 33.1522 46.7551C33.0086 46.9762 32.865 47.1973 32.7214 47.4184C32.4962 47.7681 32.2717 48.1183 32.0481 48.4691C31.832 48.8072 31.6133 49.1435 31.3943 49.4797C31.3291 49.5837 31.2639 49.6877 31.1967 49.7949C30.6809 50.5827 30.0862 51.1432 29.1797 51.4453C28.9214 51.4656 28.6623 51.4766 28.4033 51.4819C28.198 51.4885 28.198 51.4885 27.9886 51.4952C26.9719 51.3824 26.2807 50.8628 25.5469 50.1856C25.3933 50.0468 25.2395 49.9082 25.0854 49.7699C25.0191 49.7091 24.9528 49.6482 24.8845 49.5855C24.7459 49.4406 24.7459 49.4406 24.6094 49.4531C24.6094 51.7348 24.6094 54.0164 24.6094 56.3672C26.9768 56.3778 29.3441 56.3864 31.7115 56.3915C32.8108 56.3939 33.9101 56.3972 35.0093 56.4026C35.9676 56.4072 36.9259 56.4103 37.8842 56.4113C38.3914 56.4119 38.8986 56.4133 39.4059 56.4168C39.8838 56.4199 40.3616 56.4209 40.8394 56.4202C41.0144 56.4203 41.1894 56.4213 41.3644 56.4231C42.2906 56.4322 43.0352 56.4258 43.8281 55.8984C44.4183 55.2934 44.3652 54.6419 44.3591 53.844C44.3596 53.714 44.36 53.584 44.3605 53.4501C44.3608 53.1759 44.3599 52.9016 44.358 52.6274C44.3555 52.2084 44.358 51.7897 44.361 51.3707C44.3607 51.1038 44.3601 50.837 44.3591 50.5701C44.3601 50.4452 44.361 50.3203 44.362 50.1916C44.3533 49.502 44.3252 49.0386 43.8281 48.5156C43.2741 48.1638 42.7501 47.9422 42.1135 47.7785C41.9855 47.7441 41.9855 47.7441 41.855 47.709C41.5761 47.6344 41.2968 47.5614 41.0175 47.4884C40.8224 47.4366 40.6274 47.3847 40.4323 47.3328C40.0251 47.2245 39.6177 47.117 39.2101 47.0102C38.6875 46.8731 38.1652 46.7346 37.643 46.5956C37.241 46.4887 36.8388 46.3822 36.4366 46.2759C36.2439 46.225 36.0512 46.174 35.8585 46.1229C35.59 46.0517 35.3212 45.9812 35.0525 45.9108C34.933 45.8791 34.933 45.8791 34.8111 45.8467C34.4851 45.7619 34.2059 45.7031 33.8672 45.7031ZM13.1059 45.9197C13.0181 45.9428 12.9302 45.9659 12.8397 45.9896C12.027 46.2033 11.2148 46.419 10.4028 46.6354C9.85727 46.7807 9.31157 46.9254 8.76543 47.0684C8.23756 47.2067 7.71017 47.3467 7.18305 47.4879C6.98241 47.5413 6.78161 47.5941 6.58064 47.6464C6.29832 47.7199 6.01665 47.7955 5.73503 47.8716C5.6527 47.8925 5.57036 47.9135 5.48553 47.935C4.75295 48.1374 4.16051 48.4596 3.76024 49.1196C3.5982 49.6927 3.58234 50.2122 3.58612 50.8049C3.58578 50.9217 3.58545 51.0386 3.5851 51.1589C3.58486 51.4048 3.58551 51.6508 3.58698 51.8967C3.58886 52.2722 3.58699 52.6475 3.58475 53.023C3.58498 53.2626 3.58543 53.5023 3.58612 53.7419C3.58541 53.8536 3.5847 53.9653 3.58396 54.0804C3.59135 54.782 3.66718 55.3163 4.16016 55.8568C4.72259 56.2947 5.07279 56.3819 5.77537 56.3813C5.92967 56.3815 6.08398 56.3816 6.24296 56.3818C6.41435 56.3814 6.58574 56.3809 6.75714 56.3805C6.9373 56.3805 7.11746 56.3805 7.29762 56.3806C7.78715 56.3806 8.27669 56.3799 8.76622 56.3791C9.27766 56.3783 9.78909 56.3783 10.3005 56.3781C11.2692 56.3778 12.2379 56.3768 13.2065 56.3756C14.3092 56.3743 15.412 56.3737 16.5147 56.3731C18.7832 56.3719 21.0518 56.3697 23.3203 56.3672C23.3203 54.1242 23.3203 51.8813 23.3203 49.5703C22.583 50.1175 22.583 50.1175 21.8994 50.7056C21.1033 51.4113 20.3361 51.6068 19.2924 51.5959C18.5307 51.5133 17.9028 51.1318 17.3437 50.625C17.0671 50.2637 16.8207 49.884 16.5729 49.5026C16.4653 49.3397 16.4653 49.3397 16.3555 49.1735C16.1274 48.8279 15.9005 48.4814 15.6738 48.1348C15.4453 47.7866 15.2164 47.4387 14.9871 47.091C14.8446 46.8748 14.7026 46.6583 14.561 46.4415C14.4972 46.3445 14.4334 46.2475 14.3677 46.1475C14.2833 46.0185 14.2833 46.0185 14.1972 45.8868C14.1528 45.8262 14.1083 45.7656 14.0625 45.7031C13.747 45.7031 13.4116 45.8391 13.1059 45.9197Z" fill="#266BFF"/>
<path d="M51.1006 6.71998C52.4287 7.91935 53.6295 9.1622 54.6094 10.6641C54.6598 10.7409 54.7102 10.8177 54.7621 10.8968C57.4226 15.018 58.317 20.167 57.3047 24.9609C56.1717 29.9586 53.1593 34.1491 48.8672 36.9141C48.7648 36.9801 48.7648 36.9801 48.6603 37.0474C46.1932 38.608 42.9121 39.7411 39.9609 39.6094C39.668 39.419 39.668 39.419 39.4922 39.1406C39.5215 38.7598 39.5215 38.7598 39.6094 38.4375C40.1011 38.2512 40.5647 38.1586 41.0824 38.0935C45.6176 37.5218 49.7945 35.238 52.6245 31.6187C54.5122 29.1331 55.671 26.2845 56.1328 23.2031C56.1482 23.1019 56.1636 23.0007 56.1795 22.8964C56.7131 18.613 55.4173 14.0359 52.8032 10.6269C49.8123 6.82974 45.8012 4.52254 41.0229 3.8379C38.4642 3.5382 36.0289 3.89447 33.5788 4.65181C33.1262 4.78802 32.698 4.88225 32.2266 4.92189C31.9995 4.79738 31.9995 4.79738 31.875 4.57033C31.8237 4.21876 31.8237 4.21876 31.875 3.8672C36.5555 -0.565176 47.0119 3.25893 51.1006 6.71998Z" fill="#266BFF"/>
<path d="M40.2269 9.46106C40.3697 9.46076 40.5126 9.46046 40.6597 9.46014C40.883 9.4615 40.883 9.4615 41.1108 9.46289C41.2584 9.46198 41.4059 9.46108 41.5578 9.46014C43.2261 9.46366 43.2261 9.46366 43.8235 9.8909C43.8782 9.95027 43.9329 10.0096 43.9893 10.0708C44.0458 10.1299 44.1023 10.1889 44.1605 10.2498C44.4049 10.5722 44.4286 10.873 44.4274 11.2622C44.4274 11.3584 44.4273 11.4546 44.4273 11.5536C44.4267 11.6569 44.4261 11.7602 44.4255 11.8666C44.4253 11.9728 44.4252 12.0789 44.425 12.1883C44.4243 12.5274 44.4229 12.8665 44.4214 13.2056C44.4208 13.4354 44.4203 13.6653 44.4198 13.8952C44.4185 14.4588 44.4165 15.0224 44.4141 15.5859C44.5565 15.5841 44.699 15.5823 44.8458 15.5804C45.3754 15.574 45.905 15.57 46.4347 15.5666C46.6637 15.5649 46.8927 15.5625 47.1218 15.5594C47.4514 15.5551 47.7809 15.5532 48.1105 15.5516C48.2126 15.5498 48.3146 15.548 48.4198 15.5461C48.9812 15.546 49.3489 15.5736 49.8047 15.9375C50.4476 16.6096 50.5218 17.0748 50.5248 17.9793C50.5256 18.1291 50.5263 18.2789 50.5271 18.4333C50.5273 18.5959 50.5274 18.7586 50.5275 18.9212C50.5279 19.0892 50.5283 19.2572 50.5287 19.4251C50.5294 19.7768 50.5296 20.1285 50.5295 20.4801C50.5295 20.9292 50.5311 21.3782 50.5331 21.8273C50.5344 22.1741 50.5347 22.521 50.5346 22.8678C50.5347 23.0333 50.5353 23.1988 50.5362 23.3643C50.5373 23.5964 50.5368 23.8285 50.5363 24.0607C50.5364 24.1924 50.5366 24.3241 50.5368 24.4599C50.4972 24.9841 50.4249 25.4847 50.0793 25.8939C50.008 25.9485 49.9367 26.0032 49.8633 26.0596C49.7563 26.1443 49.7563 26.1443 49.6472 26.2308C49.1739 26.5634 48.7028 26.4991 48.1448 26.4958C48.0385 26.4957 47.9322 26.4955 47.8227 26.4953C47.4824 26.4947 47.1421 26.4932 46.8018 26.4917C46.5714 26.4911 46.3409 26.4906 46.1105 26.4901C45.545 26.4888 44.9796 26.4868 44.4141 26.4844C44.4165 26.6262 44.419 26.7681 44.4215 26.9143C44.43 27.4423 44.4354 27.9704 44.4398 28.4985C44.4422 28.7268 44.4454 28.955 44.4494 29.1832C44.4551 29.512 44.4578 29.8406 44.4598 30.1694C44.4623 30.2708 44.4647 30.3723 44.4672 30.4769C44.4674 31.1204 44.3716 31.4799 43.9453 31.9922C43.6783 32.2506 43.5444 32.3338 43.1763 32.3877C42.8906 32.3438 42.8906 32.3438 42.6709 32.2192C42.4631 31.8614 42.5751 31.5628 42.6562 31.1719C42.7723 31.1332 42.8883 31.0945 43.0078 31.0547C43.0088 30.9865 43.0097 30.9182 43.0107 30.848C43.0208 30.1389 43.0324 29.4298 43.045 28.7208C43.0495 28.4561 43.0536 28.1913 43.0573 27.9266C43.0626 27.5464 43.0694 27.1662 43.0765 26.786C43.0778 26.6674 43.0792 26.5487 43.0806 26.4265C43.0829 26.3162 43.0852 26.206 43.0876 26.0924C43.0892 25.9953 43.0908 25.8983 43.0924 25.7982C43.125 25.5469 43.125 25.5469 43.3594 25.1953C43.6011 25.1486 43.6011 25.1486 43.9023 25.1446C44.0149 25.1423 44.1275 25.14 44.2435 25.1376C44.3654 25.1369 44.4872 25.1361 44.6127 25.1353C44.7373 25.1332 44.8618 25.1311 44.9901 25.129C45.3889 25.1226 45.7877 25.1187 46.1865 25.1147C46.4565 25.1109 46.7264 25.1068 46.9963 25.1026C47.659 25.0926 48.3217 25.0846 48.9844 25.0781C48.9871 24.0412 48.9892 23.0042 48.9904 21.9672C48.9911 21.4857 48.9919 21.0043 48.9932 20.5228C48.9945 20.0586 48.9952 19.5943 48.9955 19.1301C48.9957 18.9526 48.9961 18.7751 48.9968 18.5975C48.9976 18.3498 48.9977 18.102 48.9977 17.8542C48.9979 17.7129 48.9982 17.5716 48.9985 17.426C49.0205 17.1191 49.0205 17.1191 48.8672 16.9922C48.7 16.9797 48.5323 16.9751 48.3646 16.9737C48.2578 16.9725 48.1511 16.9713 48.041 16.9701C47.9248 16.9692 47.8086 16.9683 47.6889 16.9675C47.4452 16.9642 47.2015 16.9608 46.9579 16.9574C46.5718 16.9526 46.1858 16.9482 45.7998 16.9452C45.4285 16.9419 45.0572 16.9365 44.686 16.9308C44.5702 16.9305 44.4545 16.9301 44.3353 16.9297C44.2278 16.9278 44.1202 16.9258 44.0095 16.9238C43.9148 16.9229 43.8202 16.9219 43.7227 16.9209C43.4103 16.8626 43.3076 16.782 43.125 16.5234C43.0791 16.2773 43.0791 16.2773 43.0762 15.9905C43.0742 15.883 43.0723 15.7755 43.0703 15.6647C43.0699 15.549 43.0695 15.4333 43.0692 15.314C43.0673 15.1952 43.0655 15.0763 43.0636 14.9538C43.058 14.5737 43.0548 14.1936 43.0518 13.8135C43.0475 13.4325 43.0427 13.0516 43.0374 12.6706C43.0342 12.4334 43.0317 12.1962 43.0299 11.959C43.0287 11.8522 43.0275 11.7454 43.0263 11.6354C43.0255 11.5409 43.0248 11.4465 43.024 11.3492C43.0313 11.1308 43.0313 11.1308 42.8906 11.0156C42.6362 11.0028 42.3814 10.9974 42.1266 10.995C41.9689 10.9923 41.8112 10.9895 41.6535 10.9866C41.4043 10.9824 41.1552 10.979 40.906 10.9774C40.6658 10.9756 40.4258 10.9709 40.1857 10.9657C40.0416 10.964 39.8975 10.9623 39.7491 10.9606C39.3102 10.8877 39.1653 10.7865 38.9062 10.4297C38.9062 10.0635 38.9062 10.0635 39.0234 9.72656C39.4105 9.45708 39.7649 9.462 40.2269 9.46106Z" fill="#266BFF"/>
</svg>
