<svg width="60" height="60" viewBox="0 0 60 60" fill="none" xmlns="http://www.w3.org/2000/svg">
<path d="M2.02267 5.91309C2.17347 5.91092 2.32427 5.90875 2.47964 5.90652C2.64654 5.9065 2.81343 5.90653 2.98033 5.90661C3.1563 5.90501 3.33226 5.90323 3.50823 5.90126C3.98622 5.89662 4.46418 5.89504 4.94219 5.8943C5.24113 5.8937 5.54006 5.89247 5.839 5.89102C6.88284 5.88598 7.92666 5.88349 8.97051 5.88326C9.9419 5.88298 10.9131 5.87701 11.8845 5.86839C12.7195 5.86124 13.5545 5.85819 14.3895 5.85826C14.8878 5.85823 15.3859 5.85655 15.8842 5.85072C16.3534 5.84536 16.8225 5.84512 17.2918 5.84869C17.4632 5.84915 17.6347 5.84783 17.8062 5.84452C18.7098 5.82823 19.3133 5.86873 20.005 6.48466C20.1759 6.66382 20.3437 6.84587 20.5078 7.03125C20.6574 7.17738 20.8079 7.32262 20.9599 7.46626C21.1012 7.60613 21.2423 7.74631 21.3831 7.88681C21.4589 7.96223 21.5347 8.03766 21.6128 8.11538C21.7705 8.27247 21.928 8.42971 22.0854 8.5871C22.3264 8.82787 22.5684 9.06768 22.8104 9.30748C22.9645 9.4613 23.1187 9.61519 23.2727 9.76913C23.3447 9.8403 23.4167 9.91147 23.4909 9.9848C23.5575 10.0517 23.6241 10.1187 23.6927 10.1877C23.7511 10.2459 23.8095 10.3041 23.8697 10.3641C24.3048 10.8813 24.289 11.3821 24.2807 12.0355C24.2804 12.1337 24.28 12.2319 24.2797 12.333C24.2784 12.6459 24.2754 12.9587 24.2725 13.2715C24.2713 13.4839 24.2702 13.6963 24.2693 13.9087C24.2667 14.4287 24.2626 14.9487 24.2578 15.4687C24.3227 15.4687 24.3877 15.4686 24.4546 15.4685C28.3063 15.4632 32.158 15.4592 36.0098 15.4568C36.4727 15.4565 36.9356 15.4562 37.3985 15.4559C37.4906 15.4558 37.5828 15.4557 37.6777 15.4557C39.1681 15.4547 40.6585 15.4528 42.1489 15.4507C43.6792 15.4485 45.2095 15.4472 46.7398 15.4467C47.6834 15.4464 48.627 15.4454 49.5706 15.4435C50.2952 15.4421 51.0198 15.4419 51.7445 15.4422C52.0409 15.4422 52.3374 15.4417 52.6339 15.4408C53.0398 15.4396 53.4457 15.4399 53.8517 15.4406C54.0261 15.4395 54.0261 15.4395 54.2041 15.4385C55.6814 15.4447 56.9138 15.6284 58.038 16.6457C59.2494 17.9085 59.2481 19.2223 59.2403 20.8772C59.241 21.1041 59.2418 21.331 59.2428 21.5578C59.245 22.1714 59.2441 22.7849 59.2426 23.3984C59.2415 24.0419 59.2426 24.6854 59.2433 25.3289C59.2442 26.4094 59.243 27.4898 59.2408 28.5703C59.2382 29.8176 59.2391 31.0649 59.2417 32.3123C59.2438 33.3852 59.2441 34.458 59.2429 35.5309C59.2421 36.1709 59.242 36.8108 59.2436 37.4507C59.2449 38.0525 59.244 38.6542 59.2413 39.256C59.2407 39.4762 59.2408 39.6964 59.2419 39.9167C59.2488 41.545 59.1199 42.6908 57.951 43.9215C57.1044 44.663 56.2145 44.9008 55.114 44.8961C55.0099 44.8961 54.9058 44.8961 54.7986 44.8962C54.4543 44.8961 54.11 44.8952 53.7657 44.8942C53.5271 44.894 53.2885 44.8939 53.05 44.8937C52.4217 44.8933 51.7935 44.8921 51.1652 44.8909C50.5243 44.8897 49.8833 44.8891 49.2423 44.8885C47.9845 44.8873 46.7266 44.8852 45.4687 44.8828C45.4687 45.8496 45.4687 46.8164 45.4687 47.8125C45.8884 47.8064 45.8884 47.8064 46.3165 47.8001C46.5923 47.7974 46.8681 47.7953 47.1439 47.7932C47.3332 47.7914 47.5225 47.789 47.7118 47.786C50.6156 47.7401 50.6156 47.7401 51.709 48.6648C52.5452 49.4898 52.8448 50.2554 52.8827 51.4288C52.8833 51.6199 52.8827 51.8109 52.8809 52.0019C52.8818 52.0985 52.8827 52.195 52.8836 52.2945C52.8817 52.8929 52.8571 53.3787 52.463 53.8603C52.2176 54.0631 52.0978 54.0676 51.7826 54.068C51.6838 54.069 51.585 54.07 51.4832 54.071C51.3747 54.0703 51.2662 54.0696 51.1543 54.0689C51.039 54.0695 50.9237 54.0701 50.8049 54.0708C50.4168 54.0725 50.0287 54.0716 49.6406 54.0708C49.3631 54.0714 49.0855 54.0723 48.808 54.0732C48.1313 54.0751 47.4547 54.0753 46.778 54.0747C46.2281 54.0742 45.6782 54.0744 45.1283 54.075C45.0501 54.0751 44.972 54.0752 44.8914 54.0753C44.7325 54.0755 44.5737 54.0757 44.4148 54.0758C42.9244 54.0775 41.434 54.0768 39.9435 54.0755C38.5794 54.0743 37.2154 54.0758 35.8513 54.0786C34.4513 54.0815 33.0513 54.0826 31.6513 54.0818C30.8651 54.0814 30.0788 54.0817 29.2926 54.0837C28.5534 54.0855 27.8142 54.0851 27.075 54.0829C26.8033 54.0824 26.5316 54.0828 26.2598 54.084C25.8897 54.0856 25.5197 54.0842 25.1496 54.0822C25.0413 54.0833 24.9331 54.0844 24.8215 54.0856C24.0982 54.0772 24.0982 54.0772 23.7226 53.8072C23.3577 53.2584 23.4834 52.5277 23.4888 51.8921C23.486 51.7409 23.4832 51.5898 23.4803 51.4341C23.4819 50.3983 23.621 49.6598 24.3375 48.8901C25.2799 47.9851 26.4216 47.7922 27.6846 47.801C27.7747 47.8012 27.8647 47.8014 27.9575 47.8016C28.2428 47.8022 28.5281 47.8037 28.8135 47.8052C29.0079 47.8058 29.2023 47.8063 29.3967 47.8068C29.8712 47.808 30.3458 47.8103 30.8203 47.8125C30.8203 46.8457 30.8203 45.8789 30.8203 44.8828C30.3449 44.8865 30.3449 44.8865 29.86 44.8902C28.8099 44.898 27.7599 44.9032 26.7098 44.9071C26.0734 44.9095 25.4371 44.9128 24.8008 44.9182C24.1861 44.9233 23.5714 44.9261 22.9567 44.9273C22.7228 44.9281 22.489 44.9298 22.2551 44.9324C20.6213 44.9494 19.4004 44.9078 18.1613 43.7279C17.2123 42.6983 17.0735 41.6884 17.0865 40.3313C17.0868 40.1998 17.0871 40.0683 17.0875 39.9328C17.0888 39.5149 17.0917 39.0971 17.0947 38.6792C17.0959 38.395 17.097 38.1108 17.0979 37.8266C17.1005 37.1318 17.1044 36.437 17.1094 35.7422C16.9877 35.7428 16.9877 35.7428 16.8636 35.7435C14.8909 35.7538 12.9182 35.7616 10.9455 35.7665C9.99154 35.7689 9.03757 35.7722 8.08359 35.7775C7.25218 35.7822 6.42078 35.7852 5.58935 35.7863C5.14904 35.7869 4.70878 35.7883 4.26848 35.7917C3.77715 35.7955 3.28588 35.7956 2.79453 35.7954C2.64829 35.7971 2.50204 35.7988 2.35136 35.8005C2.2176 35.7999 2.08384 35.7992 1.94603 35.7986C1.77168 35.7992 1.77168 35.7992 1.59381 35.7999C1.28906 35.7422 1.28906 35.7422 1.01735 35.576C0.713547 35.1095 0.755625 34.6714 0.760788 34.1258C0.760057 34.008 0.759326 33.8902 0.758573 33.7688C0.756698 33.373 0.758186 32.9772 0.759658 32.5813C0.759023 32.298 0.758189 32.0147 0.757169 31.7313C0.755251 31.041 0.755536 30.3507 0.756894 29.6603C0.757952 29.0993 0.758096 28.5383 0.757586 27.9773C0.757514 27.8975 0.757442 27.8177 0.757368 27.7354C0.757218 27.5733 0.757066 27.4112 0.756912 27.2491C0.755575 25.7284 0.757113 24.2077 0.759631 22.687C0.761726 21.3819 0.761362 20.0768 0.759201 18.7716C0.756693 17.2564 0.755704 15.7413 0.757144 14.2261C0.757293 14.0645 0.75744 13.903 0.757586 13.7415C0.757658 13.662 0.757731 13.5825 0.757805 13.5006C0.75821 12.9402 0.757526 12.3798 0.756424 11.8194C0.754973 11.0653 0.756004 10.3112 0.758718 9.55711C0.759339 9.27989 0.759157 9.00268 0.758126 8.72546C0.756851 8.34792 0.758445 7.97049 0.760788 7.59295C0.759743 7.48247 0.758697 7.37198 0.75762 7.25815C0.766427 6.53 0.766427 6.52999 1.01256 6.14317C1.36974 5.92794 1.60593 5.91607 2.02267 5.91309ZM2.8125 7.96875C2.8125 16.4766 2.8125 24.9844 2.8125 33.75C9.23203 33.75 15.6516 33.75 22.2656 33.75C22.2656 33.518 22.2656 33.2859 22.2656 33.0469C22.1994 33.0462 22.1332 33.0455 22.0649 33.0448C21.3748 33.0373 20.6848 33.0274 19.9947 33.0161C19.7372 33.0122 19.4798 33.0089 19.2223 33.0063C18.852 33.0023 18.4817 32.9962 18.1114 32.9897C17.9965 32.9889 17.8816 32.9882 17.7633 32.9874C17.1682 32.9746 16.7818 32.9461 16.2891 32.5781C16.2117 32.5781 16.1344 32.5781 16.0547 32.5781C15.8523 32.0789 15.6889 31.6607 15.6842 31.1189C15.6831 31.0136 15.682 30.9084 15.6808 30.7999C15.6803 30.6864 15.6798 30.5729 15.6793 30.4559C15.6787 30.3387 15.678 30.2215 15.6773 30.1008C15.6762 29.8525 15.6754 29.6043 15.675 29.356C15.6738 28.9777 15.6702 28.5994 15.6665 28.2211C15.6657 27.9797 15.6651 27.7383 15.6647 27.4969C15.6632 27.3844 15.6618 27.2718 15.6603 27.1558C15.6625 26.4897 15.7275 26.0152 16.0547 25.4297C17.827 24.0266 19.822 24.7821 22.2656 24.7266C22.2656 20.6273 22.2656 16.5281 22.2656 12.3047C20.9895 12.266 19.7133 12.2273 18.3984 12.1875C17.3553 11.1443 17.8572 9.2644 17.8125 7.96875C12.8625 7.96875 7.9125 7.96875 2.8125 7.96875ZM19.9219 9.49218C19.9219 9.76289 19.9219 10.0336 19.9219 10.3125C20.1926 10.3125 20.4633 10.3125 20.7422 10.3125C20.6279 10.1754 20.513 10.0388 20.3979 9.90234C20.3021 9.78814 20.3021 9.78814 20.2043 9.67163C20.1498 9.61241 20.0952 9.55319 20.0391 9.49218C20.0004 9.49218 19.9617 9.49218 19.9219 9.49218ZM24.2578 17.4609C24.2578 17.693 24.2578 17.925 24.2578 18.1641C24.3243 18.1641 24.3908 18.1642 24.4593 18.1643C28.398 18.1685 32.3368 18.1751 36.2756 18.1849C36.7484 18.1861 37.2211 18.1872 37.6939 18.1884C37.8351 18.1887 37.8351 18.1887 37.9791 18.1891C39.5038 18.1927 41.0284 18.1947 42.5531 18.1961C44.1172 18.1975 45.6812 18.2007 47.2453 18.2056C48.2106 18.2086 49.176 18.2101 50.1414 18.2099C50.8031 18.2099 51.4647 18.2116 52.1264 18.2147C52.5084 18.2164 52.8903 18.2171 53.2723 18.2163C53.6862 18.2155 54.1001 18.2176 54.514 18.2204C54.6955 18.2191 54.6955 18.2191 54.8805 18.2177C55.3986 18.2239 55.697 18.2296 56.1461 18.5048C56.5304 18.9311 56.4997 19.2129 56.5016 19.7798C56.5021 19.8626 56.5025 19.9453 56.5029 20.0306C56.5042 20.3092 56.5047 20.5878 56.5051 20.8664C56.5058 21.0656 56.5066 21.2648 56.5075 21.464C56.5095 22.0061 56.5107 22.5482 56.5117 23.0904C56.5123 23.4287 56.513 23.7671 56.5137 24.1055C56.516 25.1634 56.5176 26.2213 56.5186 27.2792C56.5198 28.502 56.5229 29.7247 56.5276 30.9475C56.5311 31.8917 56.5329 32.8359 56.5332 33.78C56.5335 34.3445 56.5346 34.9088 56.5375 35.4732C56.5402 36.0039 56.5407 36.5345 56.5395 37.0652C56.5395 37.2603 56.5402 37.4553 56.5418 37.6504C56.5439 37.9161 56.5431 38.1817 56.5415 38.4474C56.5418 38.5963 56.5421 38.7452 56.5424 38.8986C56.4844 39.2578 56.4844 39.2578 56.2848 39.4533C55.9632 39.6398 55.7713 39.6535 55.4011 39.6539C55.2759 39.6549 55.1508 39.6559 55.0218 39.6569C54.8844 39.6562 54.747 39.6555 54.6055 39.6548C54.4595 39.6554 54.3134 39.6561 54.163 39.6567C53.7574 39.6581 53.3519 39.6579 52.9463 39.657C52.5091 39.6565 52.0718 39.658 51.6345 39.6592C50.7778 39.6612 49.921 39.6613 49.0643 39.6607C48.3682 39.6602 47.672 39.6603 46.9759 39.661C46.8274 39.6611 46.8274 39.6611 46.6759 39.6612C46.4748 39.6614 46.2737 39.6616 46.0726 39.6618C44.1859 39.6634 42.2992 39.6628 40.4126 39.6614C38.6855 39.6602 36.9585 39.6618 35.2314 39.6646C33.459 39.6674 31.6867 39.6686 29.9143 39.6678C28.9189 39.6674 27.9234 39.6676 26.928 39.6697C26.0807 39.6714 25.2334 39.6715 24.386 39.6694C23.9535 39.6684 23.5211 39.6682 23.0886 39.67C22.6202 39.6719 22.1519 39.6702 21.6836 39.6681C21.5462 39.6692 21.4088 39.6704 21.2672 39.6715C21.1421 39.6704 21.0169 39.6692 20.888 39.668C20.7799 39.668 20.6717 39.668 20.5603 39.668C20.1815 39.5906 20.0413 39.4406 19.8047 39.1406C19.7407 38.7754 19.7407 38.7754 19.7333 38.3514C19.7295 38.1996 19.7257 38.0478 19.7218 37.8914C19.7201 37.7316 19.7184 37.5719 19.7168 37.4121C19.7135 37.2505 19.71 37.0889 19.7063 36.9273C19.698 36.5323 19.6918 36.1373 19.6875 35.7422C19.4941 35.7422 19.3008 35.7422 19.1016 35.7422C19.0926 36.5304 19.0865 37.3186 19.0823 38.1068C19.0805 38.3748 19.0781 38.6429 19.075 38.9109C19.0708 39.2966 19.0688 39.6823 19.0672 40.068C19.0654 40.1875 19.0636 40.3069 19.0617 40.4299C19.0616 41.1757 19.1252 41.7219 19.6587 42.2887C19.7636 42.3727 19.7636 42.3727 19.8706 42.4585C19.9408 42.516 20.0111 42.5736 20.0835 42.6329C20.4321 42.8908 20.6568 42.9056 21.0849 42.9067C21.2691 42.9076 21.2691 42.9076 21.4569 42.9085C21.6608 42.9086 21.6608 42.9086 21.8688 42.9087C22.0124 42.9092 22.156 42.9097 22.3039 42.9102C22.7037 42.9115 23.1036 42.9123 23.5034 42.9128C23.9341 42.9135 24.3649 42.9149 24.7956 42.9161C25.8366 42.919 26.8776 42.9207 27.9186 42.9222C28.2126 42.9227 28.5066 42.9231 28.8006 42.9236C30.6256 42.9266 32.4507 42.9291 34.2757 42.9306C34.6986 42.9309 35.1215 42.9313 35.5444 42.9316C35.7021 42.9318 35.7021 42.9318 35.8629 42.9319C37.5655 42.9334 39.2679 42.9373 40.9704 42.9422C42.7179 42.9471 44.4654 42.9499 46.2129 42.9505C47.1942 42.9509 48.1755 42.9523 49.1568 42.9562C49.9926 42.9594 50.8284 42.9607 51.6642 42.9594C52.0906 42.9588 52.517 42.9591 52.9433 42.962C53.4059 42.9652 53.8684 42.9637 54.331 42.9619C54.4653 42.9635 54.5997 42.9651 54.7381 42.9668C55.5371 42.9589 56.124 42.8682 56.7187 42.3047C57.1675 41.7734 57.2557 41.2164 57.2486 40.5386C57.2495 40.4468 57.2504 40.355 57.2513 40.2603C57.2537 39.9544 57.2528 39.6485 57.2519 39.3425C57.2529 39.1225 57.2541 38.9024 57.2555 38.6823C57.2586 38.0857 57.2588 37.4891 57.2582 36.8925C57.2579 36.394 57.2591 35.8954 57.2602 35.3968C57.2628 34.2204 57.2629 33.0439 57.2615 31.8674C57.2601 30.6548 57.263 29.4424 57.2679 28.2299C57.2721 27.1877 57.2735 26.1456 57.2727 25.1035C57.2723 24.4815 57.2729 23.8596 57.2762 23.2377C57.2791 22.6527 57.2787 22.0677 57.2756 21.4827C57.275 21.2685 57.2757 21.0542 57.2776 20.84C57.3086 19.3833 57.3086 19.3833 56.6694 18.1069C55.8885 17.359 54.8317 17.4439 53.8235 17.4468C53.6971 17.4467 53.5706 17.4466 53.4403 17.4465C53.0166 17.4463 52.5928 17.447 52.1691 17.4476C51.8653 17.4477 51.5616 17.4476 51.2578 17.4476C50.6039 17.4475 49.9499 17.4479 49.296 17.4485C48.3505 17.4495 47.405 17.4498 46.4595 17.4499C44.9254 17.4502 43.3913 17.451 41.8572 17.4521C40.3672 17.4532 38.8771 17.454 37.387 17.4545C37.2492 17.4545 37.2492 17.4545 37.1086 17.4546C36.6477 17.4547 36.1868 17.4549 35.7259 17.455C31.9032 17.4562 28.0805 17.4583 24.2578 17.4609ZM24.2578 20.1562C24.2578 21.6644 24.2578 23.1727 24.2578 24.7266C24.7219 24.7266 25.1859 24.7266 25.6641 24.7266C25.6684 24.5726 25.6728 24.4187 25.6773 24.2601C25.685 24.0567 25.6928 23.8533 25.7007 23.6499C25.7033 23.5486 25.706 23.4473 25.7087 23.343C25.7326 22.7759 25.7669 22.3751 26.1328 21.9141C26.4807 21.6435 26.8495 21.6449 27.2818 21.6257C27.9807 21.7724 28.5473 22.3966 29.0698 22.8589C29.226 22.9957 29.3823 23.1324 29.5386 23.269C29.6162 23.337 29.6939 23.405 29.7739 23.475C30.1028 23.7613 30.4355 24.0429 30.769 24.3237C31.2308 24.7128 31.6906 25.1039 32.1483 25.4979C33.0076 26.2374 33.8709 26.9723 34.7685 27.6654C35.1115 27.9509 35.2445 28.1717 35.3906 28.5937C35.4102 29.2013 35.3237 29.5245 34.9365 29.9927C34.5003 30.4484 34.0177 30.8411 33.5248 31.2337C33.1314 31.5497 32.7479 31.8753 32.3657 32.2046C32.297 32.2637 32.2283 32.3227 32.1575 32.3836C31.946 32.5655 31.7347 32.7476 31.5234 32.9297C30.557 33.7628 29.5887 34.5915 28.5937 35.3906C28.5082 35.4622 28.4227 35.5338 28.3347 35.6076C27.8469 36.0019 27.4887 36.223 26.8359 36.2109C26.3377 36.0289 26.0601 35.8385 25.7812 35.3906C25.7306 35.1223 25.7306 35.1223 25.7213 34.8321C25.7171 34.7279 25.713 34.6237 25.7087 34.5163C25.7047 34.3545 25.7047 34.3545 25.7007 34.1894C25.6967 34.0798 25.6927 33.9701 25.6886 33.8571C25.6789 33.5871 25.6713 33.317 25.6641 33.0469C25.2 33.0469 24.7359 33.0469 24.2578 33.0469C24.2548 33.1937 24.2518 33.3405 24.2487 33.4918C24.2421 33.6853 24.2353 33.8788 24.2285 34.0723C24.226 34.2173 24.226 34.2173 24.2235 34.3652C24.2063 34.7924 24.1852 35.081 23.9648 35.4529C23.5339 35.7061 23.1381 35.7038 22.6465 35.7129C22.3274 35.7226 22.0084 35.7322 21.6797 35.7422C21.6797 36.3996 21.6797 37.057 21.6797 37.7344C32.5465 37.7344 43.4133 37.7344 54.6094 37.7344C54.6094 31.9336 54.6094 26.1328 54.6094 20.1562C44.5934 20.1562 34.5773 20.1562 24.2578 20.1562ZM27.6562 24.375C27.6476 24.5445 27.6476 24.5445 27.6389 24.7174C27.6301 24.8654 27.6213 25.0135 27.6123 25.166C27.6041 25.3128 27.596 25.4597 27.5876 25.611C27.5444 25.9714 27.5052 26.1872 27.3047 26.4844C26.9452 26.6641 26.5671 26.6226 26.1724 26.6256C26.0797 26.6268 25.9871 26.6279 25.8917 26.6291C25.5848 26.6328 25.2779 26.6357 24.971 26.6386C24.7585 26.641 24.546 26.6435 24.3336 26.646C23.7737 26.6525 23.2139 26.6583 22.654 26.6639C21.9826 26.6708 21.3112 26.6786 20.6398 26.6862C19.6192 26.6977 18.5987 26.7081 17.5781 26.7187C17.5781 28.1496 17.5781 29.5805 17.5781 31.0547C18.5704 31.0613 18.5704 31.0613 19.5827 31.068C20.0019 31.0715 20.4211 31.0752 20.8404 31.0792C21.5057 31.0855 22.171 31.0915 22.8364 31.0953C23.3728 31.0983 23.9093 31.1031 24.4457 31.109C24.6503 31.1109 24.8549 31.1123 25.0595 31.113C25.3462 31.1141 25.6329 31.1174 25.9196 31.1212C26.004 31.121 26.0885 31.1209 26.1755 31.1207C26.687 31.1302 27.0146 31.2096 27.4219 31.5234C27.6001 31.8799 27.5829 32.2594 27.605 32.6514C27.61 32.7341 27.6151 32.8169 27.6203 32.9022C27.6327 33.1067 27.6446 33.3111 27.6562 33.5156C28.207 33.1663 28.6915 32.7753 29.1797 32.3437C29.3353 32.2076 29.4909 32.0715 29.6466 31.9354C29.7249 31.8668 29.8033 31.7981 29.884 31.7274C30.2432 31.4133 30.6046 31.1017 30.9668 30.791C31.0337 30.7336 31.1005 30.6763 31.1694 30.6172C31.7872 30.089 32.4147 29.5734 33.0469 29.0625C32.8954 28.7228 32.7463 28.504 32.4628 28.2642C32.3926 28.2041 32.3225 28.1441 32.2502 28.0823C32.137 27.9874 32.137 27.9874 32.0215 27.8906C31.9433 27.824 31.8651 27.7575 31.7845 27.6889C31.6217 27.5504 31.4587 27.4122 31.2955 27.2742C31.0689 27.0823 30.8436 26.889 30.6189 26.6949C29.2329 25.3876 29.2329 25.3876 27.6562 24.375ZM32.8125 44.8828C32.8125 45.8496 32.8125 46.8164 32.8125 47.8125C36.3316 47.8125 39.8508 47.8125 43.4766 47.8125C43.4766 46.8457 43.4766 45.8789 43.4766 44.8828C39.9574 44.8828 36.4383 44.8828 32.8125 44.8828ZM25.8984 50.1562C25.4062 50.7148 25.4062 50.7148 25.5469 52.0312C33.8613 52.0312 42.1758 52.0312 50.7422 52.0312C50.874 50.745 50.874 50.745 50.4932 50.2588C49.8558 49.8431 49.2632 49.7703 48.5162 49.7741C48.4239 49.7737 48.3316 49.7732 48.2366 49.7728C47.9284 49.7716 47.6202 49.772 47.312 49.7725C47.0906 49.772 46.8692 49.7714 46.6478 49.7707C46.047 49.7691 45.4463 49.769 44.8456 49.7693C44.3439 49.7695 43.8421 49.7689 43.3403 49.7683C42.1564 49.767 40.9724 49.767 39.7885 49.7677C38.5678 49.7684 37.3471 49.767 36.1264 49.7645C35.0777 49.7624 34.029 49.7617 32.9803 49.7621C32.3543 49.7623 31.7282 49.762 31.1022 49.7603C30.5133 49.7589 29.9245 49.7591 29.3356 49.7606C29.1198 49.7609 28.904 49.7606 28.6882 49.7596C28.393 49.7584 28.0978 49.7593 27.8026 49.7608C27.7178 49.76 27.633 49.7591 27.5456 49.7582C26.959 49.7644 26.4074 49.8561 25.8984 50.1562Z" fill="#266BFF"/>
<path d="M6.38634 22.0148C6.49724 22.0141 6.60813 22.0135 6.72239 22.0128C6.90548 22.0126 6.90548 22.0126 7.09227 22.0124C7.28465 22.0115 7.28465 22.0115 7.48092 22.0106C7.90674 22.0089 8.33256 22.0081 8.75839 22.0074C9.05355 22.0068 9.3487 22.0061 9.64385 22.0054C10.1842 22.0043 10.7245 22.0036 11.2648 22.0033C12.0597 22.0027 12.8547 22.0007 13.6497 21.9973C14.3384 21.9944 15.027 21.9935 15.7157 21.9933C16.0086 21.993 16.3015 21.992 16.5944 21.9905C17.004 21.9885 17.4136 21.9887 17.8232 21.9895C17.9445 21.9884 18.0659 21.9873 18.1909 21.9862C19.238 21.9923 19.238 21.9923 19.6875 22.3828C19.8818 22.7714 19.9497 22.9771 19.8413 23.4009C19.6892 23.6688 19.5747 23.8311 19.3359 24.0234C19.082 24.0683 19.082 24.0683 18.7815 24.0697C18.6675 24.071 18.5535 24.0723 18.436 24.0737C18.3111 24.0733 18.1862 24.073 18.0575 24.0726C17.9258 24.0736 17.7941 24.0746 17.6584 24.0757C17.2218 24.0784 16.7852 24.0785 16.3486 24.0784C16.0457 24.0792 15.7428 24.0801 15.44 24.0811C14.8045 24.0826 14.1691 24.0829 13.5337 24.0821C12.7997 24.0814 12.0657 24.084 11.3316 24.0884C10.6251 24.0924 9.91869 24.0932 9.21219 24.0927C8.91176 24.0929 8.61132 24.0941 8.3109 24.0961C7.89087 24.0987 7.47101 24.0976 7.05099 24.0955C6.86431 24.0979 6.86431 24.0979 6.67386 24.1002C6.11383 24.0938 5.83327 24.0901 5.37154 23.7521C5.08886 23.339 5.07595 23.1079 5.15625 22.6172C5.52767 22.1467 5.8015 22.0169 6.38634 22.0148Z" fill="#266BFF"/>
<path d="M6.38634 18.2648C6.49724 18.2641 6.60813 18.2635 6.72239 18.2628C6.90548 18.2626 6.90548 18.2626 7.09227 18.2624C7.28465 18.2615 7.28465 18.2615 7.48092 18.2606C7.90674 18.2589 8.33256 18.2581 8.75839 18.2574C9.05355 18.2568 9.3487 18.2561 9.64385 18.2554C10.1842 18.2543 10.7245 18.2536 11.2648 18.2533C12.0597 18.2527 12.8547 18.2507 13.6497 18.2473C14.3384 18.2444 15.027 18.2435 15.7157 18.2433C16.0086 18.243 16.3015 18.242 16.5944 18.2405C17.004 18.2385 17.4136 18.2387 17.8232 18.2395C17.9445 18.2384 18.0659 18.2373 18.1909 18.2362C19.238 18.2423 19.238 18.2423 19.6875 18.6328C19.8818 19.0214 19.9497 19.2271 19.8413 19.6509C19.6892 19.9188 19.5747 20.0811 19.3359 20.2734C19.082 20.3183 19.082 20.3183 18.7815 20.3197C18.6675 20.321 18.5535 20.3223 18.436 20.3237C18.3111 20.3233 18.1862 20.323 18.0575 20.3226C17.9258 20.3236 17.7941 20.3246 17.6584 20.3257C17.2218 20.3284 16.7852 20.3285 16.3486 20.3284C16.0457 20.3292 15.7428 20.3301 15.44 20.3311C14.8045 20.3326 14.1691 20.3329 13.5337 20.3321C12.7997 20.3314 12.0657 20.334 11.3316 20.3384C10.6251 20.3424 9.91869 20.3432 9.21219 20.3427C8.91176 20.3429 8.61132 20.3441 8.3109 20.3461C7.89087 20.3487 7.47101 20.3476 7.05099 20.3455C6.86431 20.3479 6.86431 20.3479 6.67386 20.3502C6.11383 20.3438 5.83327 20.3401 5.37154 20.0021C5.08886 19.589 5.07595 19.3579 5.15625 18.8672C5.52767 18.3967 5.8015 18.2669 6.38634 18.2648Z" fill="#266BFF"/>
<path d="M6.38634 14.5148C6.49724 14.5141 6.60814 14.5135 6.72239 14.5128C6.90549 14.5126 6.90549 14.5126 7.09228 14.5124C7.28465 14.5115 7.28465 14.5115 7.48092 14.5106C7.90674 14.5089 8.33256 14.5081 8.75839 14.5074C9.05355 14.5068 9.3487 14.5061 9.64386 14.5054C10.1842 14.5043 10.7245 14.5036 11.2648 14.5033C12.0598 14.5027 12.8547 14.5007 13.6497 14.4973C14.3384 14.4944 15.027 14.4935 15.7157 14.4933C16.0086 14.493 16.3015 14.492 16.5944 14.4905C17.004 14.4885 17.4136 14.4887 17.8232 14.4895C17.9445 14.4884 18.0659 14.4873 18.1909 14.4862C19.238 14.4923 19.238 14.4923 19.6875 14.8828C19.8818 15.2714 19.9497 15.4771 19.8413 15.9009C19.6892 16.1688 19.5747 16.3311 19.3359 16.5234C19.082 16.5683 19.082 16.5683 18.7815 16.5697C18.6675 16.571 18.5535 16.5723 18.436 16.5737C18.3111 16.5733 18.1862 16.573 18.0575 16.5726C17.9258 16.5736 17.7941 16.5746 17.6584 16.5757C17.2218 16.5784 16.7852 16.5785 16.3486 16.5784C16.0457 16.5792 15.7428 16.5801 15.44 16.5811C14.8045 16.5826 14.1691 16.5829 13.5337 16.5821C12.7997 16.5814 12.0657 16.584 11.3316 16.5884C10.6251 16.5924 9.91869 16.5932 9.21219 16.5927C8.91176 16.5929 8.61132 16.5941 8.3109 16.5961C7.89087 16.5987 7.47102 16.5976 7.05099 16.5955C6.86431 16.5979 6.86431 16.5979 6.67386 16.6002C5.83256 16.5906 5.83256 16.5906 5.37154 16.2479C5.15625 15.9375 5.15625 15.9375 5.09033 15.5859C5.17073 15.1571 5.32352 14.9588 5.625 14.6484C5.904 14.5089 6.07494 14.5159 6.38634 14.5148Z" fill="#266BFF"/>
<path d="M6.75879 10.7624C6.85161 10.7618 6.94443 10.7612 7.04006 10.7606C7.34795 10.7589 7.65583 10.7581 7.96371 10.7574C8.17742 10.7568 8.39113 10.7561 8.60483 10.7554C9.05337 10.7542 9.5019 10.7535 9.95044 10.7531C10.525 10.7525 11.0995 10.7496 11.674 10.7463C12.1157 10.7441 12.5573 10.7435 12.999 10.7433C13.2108 10.743 13.4226 10.742 13.6343 10.7405C13.9309 10.7385 14.2273 10.7387 14.5238 10.7395C14.6112 10.7384 14.6986 10.7373 14.7886 10.7362C15.3099 10.7404 15.6421 10.8089 16.0547 11.1328C16.3296 11.5451 16.357 11.7021 16.2891 12.1875C15.9664 12.6139 15.7918 12.7586 15.2585 12.8478C15.0828 12.8513 14.9071 12.8516 14.7315 12.8493C14.6352 12.8503 14.5389 12.8513 14.4397 12.8524C14.1223 12.8549 13.805 12.8532 13.4875 12.8513C13.2665 12.8517 13.0454 12.8522 12.8243 12.853C12.3613 12.8538 11.8983 12.8526 11.4353 12.8498C10.8422 12.8465 10.2493 12.8484 9.65619 12.8519C9.19976 12.854 8.74336 12.8534 8.28693 12.8518C8.06827 12.8515 7.84961 12.8519 7.63095 12.8533C7.32514 12.8548 7.01958 12.8525 6.71379 12.8493C6.57862 12.851 6.57862 12.851 6.44072 12.8528C5.97444 12.8437 5.76318 12.79 5.39261 12.4977C5.15625 12.1875 5.15625 12.1875 5.09033 11.8359C5.17073 11.4071 5.32352 11.2088 5.625 10.8984C5.98517 10.7184 6.3635 10.763 6.75879 10.7624Z" fill="#266BFF"/>
<path d="M6.59743 29.5105C6.67311 29.5098 6.74878 29.509 6.82675 29.5082C7.07756 29.5059 7.32837 29.5045 7.57919 29.5034C7.70771 29.5026 7.70771 29.5026 7.83882 29.5019C8.29235 29.4995 8.74588 29.4978 9.19942 29.4967C9.66758 29.4954 10.1357 29.4914 10.6038 29.4867C10.964 29.4836 11.3242 29.4827 11.6844 29.4822C11.857 29.4817 12.0295 29.4803 12.2021 29.4781C12.4439 29.4753 12.6856 29.4754 12.9274 29.4762C13.1336 29.4752 13.1336 29.4752 13.344 29.4741C13.7904 29.5437 13.9833 29.6793 14.2969 30C14.4066 30.4096 14.4579 30.6851 14.3262 31.0913C14.1797 31.2891 14.1797 31.2891 13.8281 31.5235C13.4828 31.5556 13.4828 31.5556 13.0552 31.5594C12.9773 31.5603 12.8993 31.5613 12.819 31.5623C12.5612 31.5652 12.3034 31.5662 12.0456 31.567C11.8662 31.568 11.6868 31.5691 11.5074 31.5702C11.1313 31.5721 10.7552 31.573 10.3791 31.5733C9.89766 31.574 9.41633 31.5784 8.93492 31.5837C8.56435 31.5872 8.19381 31.5881 7.82322 31.5882C7.64577 31.5887 7.46831 31.5901 7.29088 31.5926C7.0423 31.5957 6.79398 31.5952 6.54539 31.5937C6.40411 31.5943 6.26282 31.5949 6.11726 31.5955C5.6318 31.5023 5.45777 31.3218 5.15625 30.9375C5.09033 30.52 5.09033 30.52 5.15625 30.1172C5.59369 29.5631 5.91377 29.5163 6.59743 29.5105Z" fill="#266BFF"/>
<path d="M6.59743 25.7605C6.67311 25.7598 6.74878 25.759 6.82675 25.7582C7.07756 25.7559 7.32837 25.7545 7.57919 25.7534C7.70771 25.7526 7.70771 25.7526 7.83882 25.7519C8.29235 25.7495 8.74588 25.7478 9.19942 25.7467C9.66758 25.7454 10.1357 25.7414 10.6038 25.7367C10.964 25.7336 11.3242 25.7327 11.6844 25.7322C11.857 25.7317 12.0295 25.7303 12.2021 25.7281C12.4439 25.7253 12.6856 25.7254 12.9274 25.7262C13.1336 25.7252 13.1336 25.7252 13.344 25.7241C13.7904 25.7937 13.9833 25.9293 14.2969 26.25C14.4066 26.6596 14.4579 26.9351 14.3262 27.3413C14.1797 27.5391 14.1797 27.5391 13.8281 27.7735C13.4828 27.8056 13.4828 27.8056 13.0552 27.8094C12.9773 27.8103 12.8993 27.8113 12.819 27.8123C12.5612 27.8152 12.3034 27.8162 12.0456 27.817C11.8662 27.818 11.6868 27.8191 11.5074 27.8202C11.1313 27.8221 10.7552 27.823 10.3791 27.8233C9.89766 27.824 9.41633 27.8284 8.93492 27.8337C8.56435 27.8372 8.19381 27.8381 7.82322 27.8382C7.64577 27.8387 7.46831 27.8401 7.29088 27.8426C7.0423 27.8457 6.79398 27.8452 6.54539 27.8437C6.40411 27.8443 6.26282 27.8449 6.11726 27.8455C5.6318 27.7523 5.45777 27.5718 5.15625 27.1875C5.09033 26.77 5.09033 26.77 5.15625 26.3672C5.59369 25.8131 5.91377 25.7663 6.59743 25.7605Z" fill="#266BFF"/>
</svg>
