<svg width="60" height="60" viewBox="0 0 60 60" fill="none" xmlns="http://www.w3.org/2000/svg">
<path d="M18.441 31.5552C18.7041 31.5529 18.9672 31.5547 19.2302 31.5596C19.3692 31.5598 19.5081 31.5599 19.6513 31.5601C19.9449 31.5611 20.2386 31.5639 20.5322 31.5683C20.9826 31.5747 21.4327 31.5755 21.8832 31.5754C22.1683 31.5771 22.4534 31.5792 22.7385 31.5816C22.9412 31.5822 22.9412 31.5822 23.148 31.5828C23.2731 31.585 23.3983 31.5872 23.5272 31.5895C23.6375 31.5909 23.7477 31.5922 23.8613 31.5936C24.1914 31.6492 24.2942 31.7267 24.4922 31.9922C24.7816 32.9495 24.2826 33.8954 23.9282 34.7754C23.6001 35.6142 23.3177 36.4498 23.1006 37.3242C23.0783 37.4136 23.0559 37.503 23.0329 37.5951C22.5163 39.7792 22.1112 42.5456 23.0859 44.6484C23.1284 44.7502 23.1708 44.8521 23.2146 44.957C24.1431 47.0155 25.8511 48.2242 27.8984 49.0041C29.8005 49.5675 31.8429 49.2573 33.5962 48.3911C35.4456 47.3265 36.684 45.7112 37.2624 43.6578C38.0285 40.4225 37.0213 36.6265 35.6616 33.6667C35.5086 33.2833 35.4604 33.017 35.4639 32.6074C35.463 32.4993 35.4621 32.3911 35.4611 32.2797C35.5174 31.9331 35.5829 31.8508 35.8594 31.6406C36.1395 31.596 36.1395 31.596 36.4746 31.5951C36.6001 31.594 36.7257 31.5929 36.855 31.5918C37.0583 31.5928 37.0583 31.5928 37.2656 31.5939C37.4048 31.5936 37.5439 31.5933 37.6872 31.5929C37.9816 31.5927 38.2759 31.5933 38.5703 31.5948C39.0216 31.5967 39.4729 31.5948 39.9243 31.5926C40.21 31.5928 40.4956 31.5932 40.7812 31.5939C40.9168 31.5932 41.0523 31.5925 41.1919 31.5918C41.3174 31.5929 41.4429 31.594 41.5723 31.5951C41.7381 31.5955 41.7381 31.5955 41.9073 31.596C42.2386 31.6488 42.338 31.7292 42.5391 31.9922C42.6557 32.2512 42.6557 32.2512 42.7579 32.5552C42.8152 32.7248 42.8152 32.7248 42.8736 32.8979C42.9131 33.0196 42.9525 33.1412 42.9932 33.2666C43.0344 33.3927 43.0755 33.5188 43.118 33.6488C44.3499 37.4945 45.0372 41.7443 43.9453 45.7031C43.9252 45.7799 43.9052 45.8567 43.8845 45.9358C42.9887 49.2859 40.5867 52.364 37.6172 54.1406C37.0077 54.4868 36.3813 54.791 35.7422 55.0781C35.6171 55.1348 35.492 55.1914 35.3632 55.2498C33.9594 55.8359 32.3432 56.1907 30.8203 56.25C30.7055 56.256 30.5907 56.2621 30.4724 56.2683C26.4861 56.3801 22.8758 54.861 19.9525 52.2089C17.3042 49.6767 15.6724 46.0884 15.5621 42.4182C15.5166 39.2718 16.0366 36.2499 17.0068 33.2593C17.0337 33.1758 17.0606 33.0924 17.0882 33.0064C17.5661 31.6107 17.5661 31.6107 18.441 31.5552ZM18.8672 33.2812C18.7512 33.622 18.6352 33.9628 18.5156 34.314C18.4606 34.4743 18.4606 34.4743 18.4044 34.638C18.3758 34.7227 18.3473 34.8075 18.3179 34.8949C18.2737 35.0247 18.2737 35.0247 18.2286 35.1571C18.1485 35.4067 18.1485 35.4067 18.1641 35.7422C19.3242 35.7422 20.4844 35.7422 21.6797 35.7422C22.0057 34.9271 22.3172 34.1062 22.6172 33.2812C21.3797 33.2812 20.1422 33.2812 18.8672 33.2812ZM37.3828 33.2812C37.6922 34.0934 38.0016 34.9055 38.3203 35.7422C39.4805 35.7422 40.6406 35.7422 41.8359 35.7422C41.6248 34.5333 41.6248 34.5333 41.1328 33.2812C39.8953 33.2812 38.6578 33.2812 37.3828 33.2812ZM17.6953 37.3828C16.9647 41.3099 17.0593 45.315 19.314 48.7427C19.8729 49.5559 20.5141 50.2798 21.2109 50.9766C21.3061 51.0717 21.4013 51.1669 21.4993 51.2649C22.2298 51.9576 23.0308 52.4762 23.9062 52.9687C24.0197 53.0328 24.1331 53.0968 24.25 53.1628C27.052 54.6532 30.5105 54.9736 33.5479 54.0605C36.7968 53.0338 39.6634 50.8401 41.2761 47.8043C42.5605 45.2608 42.9386 42.6637 42.6709 39.8364C42.6617 39.7291 42.6525 39.6218 42.643 39.5112C42.6332 39.4045 42.6233 39.2977 42.6132 39.1878C42.6046 39.0941 42.596 39.0004 42.5872 38.9039C42.5168 38.393 42.4058 37.8885 42.3047 37.3828C41.1445 37.3828 39.9844 37.3828 38.7891 37.3828C38.8471 37.7647 38.9051 38.1466 38.9648 38.54C39.39 41.6537 39.3243 44.5643 37.494 47.2243C37.2717 47.5097 37.0407 47.7796 36.7969 48.0469C36.7363 48.1182 36.6757 48.1895 36.6133 48.2629C35.0413 49.9964 32.5988 50.8664 30.3181 50.9912C27.8394 51.0557 25.5049 50.176 23.6719 48.5156C21.8866 46.8077 20.8836 44.4626 20.8263 42.0057C20.812 40.6765 20.95 39.3978 21.1787 38.0898C21.2214 37.8142 21.2214 37.8142 21.2109 37.3828C20.0508 37.3828 18.8906 37.3828 17.6953 37.3828Z" fill="#266BFF"/>
<path d="M32.1533 4.43846C32.9432 5.08719 33.4263 5.82817 33.5738 6.84676C33.6348 8.04704 33.2988 8.84457 32.6953 9.84374C32.7992 9.87229 32.9032 9.90084 33.0103 9.93025C33.6557 10.1761 34.0838 10.655 34.5703 11.1328C34.6386 11.1982 34.7069 11.2636 34.7772 11.331C36.0904 12.7099 36.2511 14.5319 36.2415 16.331C36.2402 16.6123 36.2415 16.8935 36.243 17.1748C36.2428 17.355 36.2425 17.5352 36.2421 17.7154C36.2425 17.7988 36.243 17.8822 36.2435 17.9681C36.2382 18.5373 36.199 18.9827 35.7984 19.4078C35.368 19.6485 34.9439 19.6192 34.4635 19.6158C34.3053 19.6167 34.3053 19.6167 34.144 19.6177C33.7955 19.6192 33.4471 19.6182 33.0986 19.617C32.8563 19.6172 32.6141 19.6176 32.3718 19.618C31.864 19.6185 31.3562 19.6178 30.8483 19.6161C30.1976 19.6141 29.5469 19.6153 28.8962 19.6174C28.3958 19.6187 27.8955 19.6183 27.3951 19.6173C27.1552 19.6171 26.9153 19.6174 26.6753 19.6182C26.3398 19.6191 26.0044 19.6177 25.6689 19.6158C25.5698 19.6165 25.4708 19.6172 25.3687 19.6179C24.8263 19.6121 24.4609 19.5758 24.0234 19.2187C23.6683 18.4742 23.7498 17.6443 23.7521 16.8375C23.7524 16.5706 23.7497 16.3038 23.7467 16.0368C23.7378 14.024 24.2041 12.4298 25.6114 10.9341C26.7702 9.84374 26.7702 9.84374 27.3047 9.84374C27.2306 9.69758 27.2306 9.69758 27.155 9.54848C27.0908 9.42113 27.0266 9.29379 26.9605 9.16258C26.8966 9.03614 26.8327 8.90971 26.7668 8.77944C26.3791 7.9772 26.3557 7.09541 26.5645 6.23061C26.9489 5.19211 27.5952 4.46667 28.5938 3.98436C29.805 3.53189 31.1015 3.67988 32.1533 4.43846ZM28.4326 6.31346C28.1302 6.89505 28.0747 7.28911 28.2495 7.91747C28.449 8.46261 28.7002 8.70376 29.1797 9.02342C29.8089 9.23317 30.3747 9.24424 30.9741 8.95018C31.5159 8.4714 31.8359 8.00007 31.8942 7.27568C31.8464 6.66737 31.5376 6.21867 31.106 5.80809C30.1244 5.1789 29.1315 5.46749 28.4326 6.31346ZM26.521 12.4951C25.1774 14.2696 25.5469 15.4548 25.5469 17.8125C28.4859 17.8125 31.425 17.8125 34.4531 17.8125C34.6437 14.7482 34.6437 14.7482 33.2661 12.2745C32.1771 11.2605 31.0888 10.8041 29.5816 10.8536C28.319 10.9945 27.3868 11.5977 26.521 12.4951Z" fill="#266BFF"/>
<path d="M18.8036 14.9386C19.6562 15.558 20.1953 16.296 20.3906 17.3437C20.4949 18.5675 20.2072 19.4755 19.5703 20.5078C19.6564 20.5389 19.7425 20.57 19.8312 20.6021C21.2569 21.2165 22.1514 22.5254 22.7344 23.9062C23.1135 24.9888 23.1072 26.164 23.1079 27.2973C23.1093 27.4169 23.1108 27.5365 23.1123 27.6597C23.1154 29.2926 23.1154 29.2926 22.8516 29.8828C22.3278 30.3048 21.8473 30.2838 21.2061 30.278C21.1005 30.2784 20.9948 30.2788 20.886 30.2793C20.5376 30.2802 20.1893 30.2786 19.8408 30.2769C19.5985 30.2769 19.3561 30.2769 19.1137 30.2771C18.6061 30.2771 18.0985 30.2759 17.5909 30.2738C16.94 30.2711 16.2891 30.271 15.6383 30.2718C15.1379 30.2722 14.6376 30.2714 14.1372 30.2703C13.8972 30.2698 13.6572 30.2697 13.4172 30.2699C13.082 30.2699 12.7468 30.2685 12.4115 30.2665C12.2626 30.267 12.2626 30.267 12.1106 30.2674C11.2526 30.2596 11.2526 30.2596 10.8984 30C10.6113 29.5085 10.6263 28.9905 10.6247 28.4363C10.6239 28.3419 10.6231 28.2475 10.6223 28.1502C10.6211 27.9505 10.6206 27.7507 10.6206 27.5509C10.6201 27.2503 10.6159 26.9498 10.6114 26.6492C10.5973 24.6071 11.0967 22.9946 12.5038 21.459C12.9736 21.0268 13.5101 20.7064 14.0625 20.3906C14.0131 20.2945 13.9637 20.1985 13.9128 20.0995C13.8486 19.9732 13.7844 19.8469 13.7183 19.7168C13.6544 19.5917 13.5905 19.4666 13.5246 19.3378C13.1299 18.4935 13.1384 17.6918 13.4253 16.8091C13.8241 15.8085 14.506 15.1212 15.4687 14.6484C16.5868 14.2215 17.7746 14.3203 18.8036 14.9386ZM15.314 16.8173C14.9578 17.353 14.892 17.8868 15 18.5156C15.1619 19.0032 15.4144 19.337 15.8423 19.6216C16.4052 19.9 16.9818 19.9248 17.5768 19.7273C18.036 19.5001 18.3283 19.2079 18.5554 18.7486C18.753 18.1537 18.7282 17.5771 18.4497 17.0141C18.1651 16.5863 17.8313 16.3338 17.3437 16.1719C16.5413 16.0341 15.8596 16.1942 15.314 16.8173ZM13.4798 22.9729C12.0844 24.6526 12.3047 26.2593 12.3047 28.4765C15.2824 28.4765 18.2602 28.4765 21.3281 28.4765C21.4295 25.3885 21.4295 25.3885 20.0606 22.8506C19.0044 21.8648 17.9018 21.5168 16.485 21.53C15.3454 21.6161 14.2737 22.1538 13.4798 22.9729Z" fill="#266BFF"/>
<path d="M45.3223 15.0147C46.1975 15.7062 46.6426 16.7348 46.7908 17.8194C46.8381 18.7985 46.4495 19.6957 45.9375 20.5078C46.0148 20.532 46.0922 20.5562 46.1719 20.5811C47.6069 21.2388 48.4994 22.4892 49.1016 23.9063C49.4925 25.0047 49.4744 26.1597 49.4751 27.312C49.4765 27.4447 49.478 27.5774 49.4794 27.7142C49.4824 29.425 49.4824 29.425 49.043 29.9927C48.5946 30.3103 48.1424 30.2517 47.6132 30.2514C47.4548 30.252 47.4548 30.252 47.2933 30.2526C46.943 30.2537 46.5927 30.2539 46.2424 30.2541C45.9995 30.2544 45.7566 30.2548 45.5137 30.2552C45.004 30.2559 44.4943 30.2562 43.9846 30.2561C43.3309 30.2561 42.6773 30.2577 42.0237 30.2597C41.5218 30.261 41.02 30.2612 40.5181 30.2612C40.2771 30.2613 40.0361 30.2618 39.7951 30.2627C39.4582 30.2639 39.1213 30.2636 38.7843 30.2628C38.6845 30.2635 38.5846 30.2642 38.4817 30.2648C38.3437 30.2641 38.3437 30.2641 38.2029 30.2633C38.1233 30.2634 38.0436 30.2635 37.9616 30.2635C37.6869 30.2283 37.5013 30.144 37.2656 30C36.9785 29.5085 36.9935 28.9906 36.9919 28.4363C36.9911 28.3419 36.9903 28.2475 36.9895 28.1502C36.9883 27.9505 36.9878 27.7507 36.9878 27.551C36.9873 27.2503 36.9831 26.9498 36.9786 26.6492C36.965 24.6778 37.4186 23.0551 38.7721 21.5579C39.2736 21.0994 39.8531 20.7466 40.4297 20.3906C40.3556 20.2486 40.3556 20.2486 40.28 20.1036C40.2158 19.9784 40.1516 19.8531 40.0854 19.7241C40.0215 19.6004 39.9576 19.4767 39.8918 19.3492C39.4837 18.4481 39.5522 17.6042 39.8557 16.6814C40.193 15.7997 40.9204 15.0317 41.7764 14.6278C42.9827 14.2314 44.2359 14.3231 45.3223 15.0147ZM41.4844 17.2266C41.2808 17.6336 41.3131 18.0705 41.3672 18.5156C41.664 19.0982 42.069 19.5111 42.6562 19.8047C43.2867 19.883 43.8181 19.8475 44.3546 19.4907C44.7492 19.1451 44.9557 18.7739 45.0444 18.257C45.078 17.6203 44.9554 17.125 44.5312 16.6406C44.0442 16.2141 43.547 16.095 42.9071 16.1266C42.2491 16.2454 41.8552 16.7047 41.4844 17.2266ZM39.6313 23.2105C38.449 24.8185 38.6719 26.4683 38.6719 28.4766C41.6496 28.4766 44.6273 28.4766 47.6953 28.4766C47.8358 25.371 47.8358 25.371 46.4062 22.8516C45.4915 21.9801 44.516 21.5471 43.2495 21.5039C41.759 21.556 40.618 22.0877 39.6313 23.2105Z" fill="#266BFF"/>
<path d="M31.4429 20.2295C31.875 20.2734 31.875 20.2734 32.1396 20.5225C32.3976 20.9482 32.372 21.1186 32.2925 21.6064C32.2808 21.6828 32.2691 21.7591 32.257 21.8377C32.2283 22.0218 32.1982 22.2056 32.1672 22.3893C32.0967 22.8101 32.0312 23.2316 31.9656 23.6531C31.8636 24.3037 31.7607 24.9541 31.6548 25.6041C31.6211 25.8117 31.6211 25.8117 31.5868 26.0236C31.5234 26.3672 31.5234 26.3672 31.4062 26.7188C31.5401 26.7151 31.5401 26.7151 31.6766 26.7113C32.0821 26.7015 32.4875 26.6955 32.8931 26.6895C33.0335 26.6855 33.1739 26.6816 33.3186 26.6776C33.4541 26.676 33.5897 26.6745 33.7294 26.673C33.9163 26.6693 33.9163 26.6693 34.1069 26.6655C34.5401 26.7321 34.7319 26.8801 35.0391 27.1875C35.1593 27.6611 35.105 27.8785 34.8836 28.3125C34.6621 28.6773 34.4285 29.0312 34.1895 29.3848C34.1028 29.516 34.0163 29.6473 33.93 29.7788C33.7565 30.0427 33.5823 30.3061 33.4075 30.5691C33.0794 31.0656 32.7621 31.5684 32.4463 32.0728C32.3344 32.2504 32.2224 32.428 32.1103 32.6056C32.0538 32.6951 31.9974 32.7846 31.9392 32.8768C29.3482 36.9799 29.3482 36.9799 29.0625 37.2656C28.1976 37.3214 28.1976 37.3214 27.9366 37.1208C27.5833 36.6732 27.746 35.9849 27.8067 35.4478C27.8501 35.1477 27.9002 34.8496 27.9529 34.5511C27.9711 34.4435 27.9893 34.3359 28.0081 34.2251C28.0657 33.8859 28.1246 33.547 28.1836 33.208C28.2232 32.9762 28.2627 32.7445 28.3022 32.5127C28.3983 31.9484 28.4957 31.3843 28.5937 30.8203C28.4537 30.824 28.4537 30.824 28.3107 30.8278C27.8875 30.8375 27.4643 30.8436 27.041 30.8496C26.894 30.8535 26.747 30.8575 26.5956 30.8615C26.3837 30.8638 26.3837 30.8638 26.1676 30.8661C26.0375 30.8685 25.9074 30.871 25.7734 30.8735C25.4297 30.8203 25.4297 30.8203 25.1492 30.627C24.9037 30.2678 24.9022 30.0766 24.9609 29.6484C25.0925 29.3569 25.0925 29.3569 25.2795 29.0675C25.3492 28.958 25.4188 28.8485 25.4906 28.7356C25.6055 28.5602 25.6055 28.5602 25.7227 28.3813C25.8016 28.2581 25.8805 28.1349 25.9618 28.0079C26.1288 27.7475 26.2962 27.4875 26.4646 27.2281C26.7098 26.8498 26.9529 26.4703 27.1953 26.0902C27.5067 25.602 27.8189 25.1144 28.1319 24.6272C28.4404 24.1465 28.7471 23.6646 29.052 23.1816C29.1253 23.0656 29.1986 22.9496 29.2742 22.8301C29.4113 22.613 29.5482 22.3957 29.6846 22.1781C30.8763 20.2936 30.8763 20.2936 31.4429 20.2295ZM29.7656 25.3125C29.626 25.5148 29.4921 25.721 29.3605 25.9287C29.2373 26.1222 29.2373 26.1222 29.1117 26.3196C29.0245 26.4575 28.9373 26.5954 28.8501 26.7334C28.681 26.9999 28.5117 27.2663 28.3424 27.5327C28.2671 27.6517 28.1917 27.7708 28.1141 27.8934C27.9564 28.1396 27.7938 28.3827 27.628 28.6234C27.4008 28.9145 27.4008 28.9145 27.4219 29.1797C27.5023 29.182 27.5827 29.1843 27.6656 29.1867C28.0287 29.1979 28.3918 29.2107 28.7549 29.2236C28.9448 29.2291 28.9448 29.2291 29.1385 29.2346C29.3198 29.2414 29.3198 29.2414 29.5047 29.2484C29.6164 29.252 29.7281 29.2557 29.8432 29.2595C30.1172 29.2969 30.1172 29.2969 30.3516 29.5313C30.4509 30.3764 30.3155 31.2667 30.2344 32.1094C30.7184 31.6846 31.0137 31.1693 31.3403 30.6226C31.422 30.4881 31.422 30.4881 31.5054 30.3509C31.8779 29.7342 32.2323 29.1086 32.5781 28.4766C32.506 28.4749 32.4339 28.4731 32.3597 28.4714C32.032 28.4626 31.7045 28.4513 31.377 28.4399C31.2068 28.436 31.2068 28.436 31.0332 28.4319C30.9237 28.4278 30.8141 28.4236 30.7013 28.4193C30.6006 28.4163 30.5 28.4132 30.3963 28.41C30.0588 28.3488 29.893 28.2465 29.6484 28.0078C29.5457 27.1175 29.754 26.1956 29.8828 25.3125C29.8441 25.3125 29.8055 25.3125 29.7656 25.3125ZM30.1172 32.1094C30.2344 32.3438 30.2344 32.3438 30.2344 32.3438L30.1172 32.1094Z" fill="#266BFF"/>
<path d="M50.2295 8.07129C50.625 8.20312 50.625 8.20312 50.8227 8.44697C51.0145 8.87329 51.0259 9.24838 51.0221 9.70688C51.0227 9.79746 51.0233 9.88805 51.0239 9.98138C51.0255 10.2798 51.0244 10.5781 51.0233 10.8765C51.0235 11.0844 51.0238 11.2924 51.0243 11.5003C51.0248 11.9357 51.024 12.3711 51.0224 12.8065C51.0204 13.3641 51.0216 13.9217 51.0237 14.4793C51.0249 14.9085 51.0245 15.3378 51.0236 15.7671C51.0234 15.9727 51.0237 16.1782 51.0245 16.3838C51.0254 16.6713 51.024 16.9587 51.0221 17.2462C51.0231 17.3732 51.0231 17.3732 51.0242 17.5027C51.0178 18.0139 50.9498 18.3493 50.625 18.75C50.2295 18.8818 50.2295 18.8818 49.8047 18.8672C49.3823 18.5516 49.2349 18.3746 49.1444 17.8499C49.1409 17.6806 49.1406 17.5112 49.1429 17.3419C49.1419 17.249 49.1409 17.1562 49.1398 17.0605C49.1373 16.7545 49.139 16.4486 49.1409 16.1426C49.1405 15.9294 49.14 15.7162 49.1392 15.503C49.1384 15.0565 49.1396 14.6101 49.1424 14.1637C49.1457 13.5918 49.1438 13.0202 49.1403 12.4484C49.1382 12.0082 49.1388 11.5681 49.1403 11.128C49.1407 10.9172 49.1403 10.7063 49.1389 10.4955C49.1374 10.2007 49.1397 9.90606 49.1429 9.61121C49.1418 9.52438 49.1406 9.43755 49.1393 9.34809C49.1487 8.89179 49.2076 8.68632 49.4899 8.32111C49.8047 8.08594 49.8047 8.08594 50.2295 8.07129Z" fill="#266BFF"/>
<path d="M10.4297 8.20312C10.7417 8.48952 10.7804 8.66414 10.8275 9.08911C10.8303 9.25868 10.8311 9.4283 10.8305 9.5979C10.8315 9.69075 10.8324 9.78361 10.8335 9.87927C10.8362 10.1859 10.8363 10.4925 10.8362 10.7991C10.837 11.0125 10.8379 11.2258 10.8389 11.4392C10.8405 11.8864 10.8406 12.3335 10.84 12.7806C10.8393 13.3534 10.8429 13.926 10.8476 14.4987C10.8506 14.9393 10.851 15.3799 10.8505 15.8206C10.8507 16.0317 10.8519 16.2429 10.8539 16.454C10.8565 16.7494 10.8554 17.0446 10.8533 17.3401C10.8557 17.4706 10.8557 17.4706 10.8581 17.6037C10.8506 18.061 10.793 18.266 10.5103 18.6321C10.1953 18.8672 10.1953 18.8672 9.77051 18.8818C9.375 18.75 9.375 18.75 9.17734 18.5062C8.98554 18.0798 8.97409 17.7047 8.97795 17.2462C8.97733 17.1557 8.97672 17.0651 8.97608 16.9717C8.97454 16.6734 8.97556 16.375 8.97675 16.0767C8.97651 15.8687 8.97617 15.6608 8.97573 15.4528C8.97521 15.0174 8.97596 14.582 8.97761 14.1466C8.97961 13.589 8.97845 13.0315 8.97635 12.4739C8.97508 12.0446 8.97548 11.6153 8.97639 11.186C8.97663 10.9805 8.97634 10.7749 8.97552 10.5693C8.97463 10.2818 8.97599 9.99438 8.97795 9.70688C8.97724 9.62224 8.97653 9.5376 8.97579 9.4504C8.98224 8.93769 9.05997 8.61109 9.375 8.20312C9.74803 8.01661 10.0328 8.1126 10.4297 8.20312Z" fill="#266BFF"/>
<path d="M37.8076 7.49268C38.2539 7.63316 38.3368 7.68442 38.5547 8.08594C38.5904 8.40267 38.6068 8.69173 38.6055 9.00833C38.6061 9.09732 38.6067 9.1863 38.6074 9.27798C38.6081 9.46582 38.608 9.65366 38.607 9.84149C38.606 10.1281 38.6093 10.4144 38.6131 10.7009C38.6132 10.8838 38.6132 11.0667 38.6128 11.2495C38.6148 11.3774 38.6148 11.3774 38.6168 11.5078C38.6111 11.9283 38.5635 12.173 38.3423 12.5345C38.0859 12.7734 38.0859 12.7734 37.6758 12.8467C37.2656 12.7734 37.2656 12.7734 37.0098 12.5343C36.7446 12.1024 36.7271 11.7458 36.7305 11.2537C36.7298 11.1648 36.729 11.076 36.7283 10.9845C36.7275 10.7974 36.7278 10.6102 36.7293 10.4231C36.731 10.1375 36.727 9.85236 36.7225 9.5668C36.7224 9.38446 36.7226 9.20212 36.7232 9.01978C36.7216 8.93492 36.7201 8.85007 36.7185 8.76264C36.7268 8.30612 36.7857 8.10035 37.0679 7.73506C37.3828 7.5 37.3828 7.5 37.8076 7.49268Z" fill="#266BFF"/>
<path d="M46.4063 8.20311C46.9299 8.72681 46.7771 9.51536 46.7796 10.2102C46.7795 10.3346 46.7795 10.3346 46.7795 10.4615C46.7798 10.7141 46.7819 10.9666 46.7841 11.2191C46.7845 11.3806 46.7847 11.5421 46.7848 11.7036C46.7853 11.8498 46.7858 11.9959 46.7863 12.1465C46.7584 12.5315 46.7056 12.7865 46.5234 13.125C46.1143 13.3977 45.9501 13.4183 45.4688 13.3594C45.2161 13.1834 45.2161 13.1834 45 12.8906C44.952 12.5496 44.9314 12.2537 44.9336 11.9128C44.9329 11.8184 44.9322 11.7239 44.9314 11.6266C44.9306 11.4272 44.931 11.2278 44.9325 11.0285C44.9341 10.7236 44.9301 10.4191 44.9256 10.1143C44.9255 9.92034 44.9257 9.7264 44.9263 9.53246C44.9247 9.44151 44.9232 9.35055 44.9216 9.25684C44.9294 8.80492 44.9614 8.59701 45.2706 8.25828C45.6971 8.02517 45.9441 8.08104 46.4063 8.20311Z" fill="#266BFF"/>
<path d="M22.8516 7.61718C23.0461 7.73806 23.0461 7.73806 23.2031 7.96874C23.2395 8.29959 23.2552 8.60408 23.2539 8.93508C23.2546 9.02971 23.2552 9.12434 23.2558 9.22184C23.2566 9.4219 23.2564 9.62197 23.2554 9.82203C23.2544 10.1279 23.2578 10.4335 23.2615 10.7394C23.2617 10.9338 23.2616 11.1283 23.2613 11.3228C23.2632 11.4598 23.2632 11.4598 23.2653 11.5995C23.2599 12.0157 23.2376 12.258 22.9871 12.5972C22.6439 12.8365 22.4414 12.8333 22.0313 12.7734C21.7506 12.6217 21.5999 12.5285 21.493 12.2238C21.3908 11.6437 21.4188 11.0482 21.4172 10.4608C21.416 10.2193 21.4124 9.97788 21.4087 9.7364C21.4028 8.23317 21.4028 8.23317 21.7969 7.61718C22.2129 7.47852 22.4296 7.5117 22.8516 7.61718Z" fill="#266BFF"/>
<path d="M14.5312 8.08593C14.7837 8.26285 14.7837 8.26285 15 8.55468C15.0466 8.89579 15.0658 9.19165 15.0623 9.53246C15.0627 9.62692 15.0632 9.72139 15.0636 9.81872C15.0639 10.0181 15.0631 10.2174 15.0611 10.4168C15.0586 10.7216 15.0611 11.0262 15.0641 11.331C15.0638 11.525 15.0632 11.7189 15.0623 11.9128C15.0632 12.0038 15.0642 12.0947 15.0651 12.1884C15.0579 12.6032 15.0339 12.8448 14.7837 13.1824C14.4383 13.4245 14.2411 13.4282 13.8281 13.3594C13.5757 13.1824 13.5757 13.1824 13.3594 12.8906C13.3128 12.5495 13.2936 12.2536 13.2971 11.9128C13.2967 11.8184 13.2962 11.7239 13.2958 11.6266C13.2954 11.4272 13.2963 11.2278 13.2983 11.0285C13.3008 10.7236 13.2983 10.4191 13.2953 10.1143C13.2956 9.92034 13.2962 9.7264 13.2971 9.53246C13.2962 9.44151 13.2952 9.35055 13.2942 9.25684C13.3014 8.84206 13.3254 8.60045 13.5757 8.26285C13.921 8.02082 14.1183 8.0171 14.5312 8.08593Z" fill="#266BFF"/>
</svg>
