<svg width="60" height="60" viewBox="0 0 60 60" fill="none" xmlns="http://www.w3.org/2000/svg">
<path d="M33.0948 4.40723C35.3436 6.37434 37.4278 9.1262 37.8296 12.1802C37.8369 12.2986 37.8441 12.417 37.8516 12.5391C37.9196 12.5421 37.9875 12.5451 38.0576 12.5482C38.6955 12.5945 39.1136 12.6882 39.6094 13.125C39.9948 13.727 40.0126 14.2318 40.0076 14.9231C40.008 15.0271 40.0083 15.1311 40.0087 15.2382C40.0089 15.4572 40.0083 15.6763 40.0068 15.8953C40.0049 16.2294 40.0068 16.5633 40.009 16.8974C40.0088 17.1109 40.0083 17.3244 40.0076 17.5378C40.0084 17.6371 40.0091 17.7364 40.0098 17.8386C40.0029 18.4249 39.9319 18.8272 39.6094 19.3359C39.1499 19.7833 38.7832 19.91 38.1501 19.9317C38.0498 19.9297 37.9495 19.9276 37.8461 19.9255C37.7315 19.9237 37.6169 19.9218 37.4988 19.9199C37.3763 19.9179 37.2537 19.9158 37.1274 19.9136C36.866 19.9124 36.6046 19.9114 36.3433 19.9109C35.9324 19.91 35.522 19.9072 35.1112 19.8982C33.5858 19.7908 33.5858 19.7908 32.2286 20.3143C32.0196 20.6472 31.8854 20.9575 31.7578 21.3281C31.4891 21.6724 31.4891 21.6724 31.2671 21.9141C31.1929 21.9962 31.1188 22.0784 31.0423 22.1631C30.825 22.3782 30.6007 22.5576 30.3516 22.7344C30.8694 22.9352 31.3871 23.1198 31.9176 23.2841C34.894 24.213 37.3825 25.5757 39.4922 27.8906C39.5309 27.968 39.5696 28.0453 39.6094 28.125C39.7561 28.1254 39.9028 28.1258 40.054 28.1263C41.4369 28.1306 42.8197 28.1374 44.2026 28.1465C44.9136 28.1512 45.6245 28.1549 46.3354 28.1568C47.0216 28.1585 47.7077 28.1626 48.3938 28.1682C48.6555 28.1699 48.9173 28.1708 49.179 28.1709C49.5457 28.1712 49.9123 28.1744 50.279 28.1782C50.3872 28.1776 50.4953 28.177 50.6067 28.1764C51.2568 28.187 51.6336 28.2762 52.1485 28.7109C52.838 29.4936 52.7922 30.1572 52.7344 31.1719C52.6753 31.6974 52.5936 32.2171 52.503 32.7381C52.4603 32.9848 52.4196 33.2317 52.3794 33.4788C52.2649 34.1799 52.1477 34.8804 52.0278 35.5806C51.9541 36.0122 51.883 36.4441 51.8136 36.8764C51.7867 37.04 51.7589 37.2034 51.73 37.3666C51.6898 37.5937 51.6533 37.8215 51.6169 38.0493C51.595 38.1784 51.5732 38.3075 51.5506 38.4405C51.566 38.8924 51.7278 39.0513 52.0313 39.375C52.1658 39.6441 52.162 39.7949 52.1599 40.0937C52.1595 40.1881 52.1591 40.2825 52.1588 40.3798C52.1578 40.4784 52.1568 40.5771 52.1558 40.6787C52.1553 40.7783 52.1547 40.8778 52.1542 40.9804C52.1528 41.2265 52.1507 41.4726 52.1485 41.7187C52.2749 41.7148 52.4013 41.7109 52.5316 41.7068C53.0772 41.7217 53.3711 41.8484 53.7891 42.1875C54.3619 42.9261 54.3992 43.4881 54.4043 44.3848C54.4079 44.5398 54.4079 44.5398 54.4116 44.6979C54.4166 45.526 54.2908 46.0811 53.7525 46.7358C53.4168 47.0091 53.1441 47.1017 52.7344 47.2266C52.7356 47.4294 52.7356 47.4294 52.7368 47.6364C52.7439 48.9106 52.7492 50.1849 52.7526 51.4591C52.7544 52.1143 52.7569 52.7694 52.7609 53.4245C52.7647 54.0567 52.7668 54.6888 52.7678 55.321C52.7684 55.5622 52.7697 55.8035 52.7716 56.0447C52.7741 56.3825 52.7745 56.7202 52.7743 57.058C52.7762 57.2077 52.7762 57.2077 52.7781 57.3605C52.7753 57.9032 52.7461 58.2763 52.3828 58.7109C51.9727 58.8476 51.6522 58.8431 51.2191 58.8435C51.0939 58.8439 51.0939 58.8439 50.966 58.8442C50.684 58.8449 50.402 58.8447 50.12 58.8446C49.9166 58.8449 49.7132 58.8452 49.5098 58.8456C48.9492 58.8466 48.3886 58.8468 47.828 58.8469C47.2241 58.8471 46.6202 58.848 46.0163 58.8488C44.695 58.8504 43.3738 58.8511 42.0526 58.8516C41.2281 58.8519 40.4036 58.8524 39.5791 58.8529C37.2977 58.8544 35.0163 58.8556 32.7349 58.856C32.5158 58.856 32.5158 58.856 32.2923 58.856C32.1459 58.8561 31.9994 58.8561 31.8486 58.8561C31.5518 58.8562 31.2551 58.8562 30.9583 58.8563C30.8112 58.8563 30.664 58.8563 30.5123 58.8564C28.126 58.8568 25.7398 58.8589 23.3535 58.8616C20.9054 58.8644 18.4573 58.8658 16.0092 58.866C14.6339 58.8661 13.2586 58.8667 11.8834 58.8689C10.7125 58.8707 9.54172 58.8713 8.3709 58.8703C7.77321 58.8699 7.17553 58.87 6.57784 58.8716C6.03107 58.8731 5.48433 58.873 4.93756 58.8715C4.73938 58.8713 4.54121 58.8717 4.34303 58.8727C4.07431 58.874 3.80567 58.8731 3.53695 58.8717C3.38749 58.8718 3.23803 58.8718 3.08405 58.8719C2.66551 58.8248 2.44221 58.7304 2.1094 58.4766C2.0373 58.2576 2.0373 58.2576 2.03894 58.0072C2.03813 57.912 2.03732 57.8169 2.03649 57.7189C2.03965 57.563 2.03965 57.563 2.04288 57.4039C2.04279 57.2942 2.0427 57.1844 2.04262 57.0713C2.04302 56.7079 2.04759 56.3447 2.05218 55.9813C2.05327 55.7296 2.0541 55.4778 2.05469 55.2261C2.05692 54.5632 2.06268 53.9003 2.06916 53.2373C2.07515 52.561 2.07783 51.8847 2.08079 51.2084C2.08707 49.8811 2.09707 48.5538 2.1094 47.2266C2.01743 47.2103 1.92546 47.194 1.8307 47.1773C1.49357 47.1028 1.34679 47.0065 1.09133 46.7798C1.0232 46.721 0.955071 46.6623 0.884878 46.6017C0.321756 45.996 0.425717 45.2743 0.424825 44.4946C0.42052 44.2985 0.42052 44.2985 0.416128 44.0984C0.413362 43.3207 0.437744 42.7997 0.937521 42.1875C1.60047 41.7175 2.08832 41.6538 2.88897 41.673C2.99445 41.6736 3.09994 41.6743 3.20862 41.675C3.54296 41.6776 3.87715 41.6835 4.21145 41.6894C4.43918 41.6918 4.66692 41.6939 4.89466 41.6959C5.45067 41.701 6.00657 41.7091 6.56252 41.7187C6.56174 41.614 6.56096 41.5093 6.56015 41.4014C6.55307 40.4068 6.54773 39.4123 6.5443 38.4178C6.54248 37.9067 6.54002 37.3956 6.536 36.8845C6.53214 36.3898 6.53007 35.8952 6.52916 35.4005C6.52852 35.2133 6.52727 35.026 6.52535 34.8387C6.49648 31.9022 7.3272 29.3957 9.38873 27.2423C10.0716 26.5511 10.7668 25.9336 11.6016 25.4297C11.7239 25.3545 11.8463 25.2792 11.9724 25.2017C13.5207 24.2715 15.139 23.6352 16.8654 23.1166C17.2288 23.0071 17.5802 22.8835 17.9297 22.7344C17.8465 22.67 17.8465 22.67 17.7617 22.6044C16.0549 21.207 14.7864 18.959 14.5313 16.7578C14.3055 13.7818 14.8932 11.2113 16.8164 8.88702C18.3897 7.10231 20.6783 5.87037 23.0594 5.6401C25.7315 5.4854 28.3398 6.0907 30.3882 7.91015C30.5722 8.08503 30.7554 8.26074 30.9375 8.4375C31.0094 8.50079 31.0813 8.56409 31.1554 8.6293C32.6732 10.0114 33.6232 12.2361 33.7739 14.2666C33.7855 14.6018 33.7885 14.9356 33.7866 15.271C33.7864 15.3885 33.7862 15.5061 33.7859 15.6272C33.7732 16.5723 33.7117 17.5376 33.2813 18.3984C33.7067 18.3984 34.1321 18.3984 34.5703 18.3984C34.5679 18.2601 34.5654 18.1218 34.5629 17.9793C34.5544 17.4643 34.549 16.9494 34.5446 16.4343C34.5422 16.2118 34.539 15.9892 34.535 15.7667C34.5293 15.4461 34.5266 15.1256 34.5246 14.805C34.5221 14.7061 34.5197 14.6072 34.5172 14.5053C34.517 13.8685 34.6197 13.5157 35.0391 13.0078C35.4278 12.6191 35.7951 12.6065 36.3281 12.5391C35.1136 8.86428 33.1764 5.99277 29.6704 4.18945C28.7563 3.73829 27.8211 3.42047 26.836 3.16406C26.7252 3.13521 26.6145 3.10635 26.5004 3.07663C24.7266 2.70441 22.7156 2.79556 20.9766 3.28125C20.8328 3.32113 20.689 3.36101 20.5408 3.4021C18.8497 3.91921 17.4266 4.75183 16.0547 5.85937C15.9781 5.91798 15.9015 5.9766 15.8226 6.03698C13.8124 7.63782 12.6949 10.1566 11.9531 12.5391C12.074 12.5463 12.1948 12.5536 12.3194 12.561C12.8886 12.6804 13.0696 12.8352 13.4766 13.2422C13.6792 13.5768 13.741 13.8264 13.745 14.2156C13.7465 14.3141 13.748 14.4127 13.7495 14.5143C13.7498 14.6199 13.7501 14.7255 13.7503 14.8343C13.7515 14.9986 13.7515 14.9986 13.7527 15.1662C13.7539 15.3976 13.7544 15.6291 13.7544 15.8606C13.7549 16.2137 13.7592 16.5667 13.7636 16.9199C13.7643 17.1451 13.7648 17.3703 13.765 17.5955C13.7667 17.7006 13.7683 17.8058 13.7701 17.9141C13.7654 18.5649 13.6754 18.936 13.2422 19.4531C12.6233 20.0321 11.8282 19.9433 11.0303 19.9438C10.928 19.9453 10.8258 19.9467 10.7204 19.9482C9.34318 19.9513 9.34318 19.9513 8.8193 19.519C8.30676 18.8121 8.30676 18.8121 8.29959 18.272C8.29733 18.1241 8.29733 18.1241 8.29503 17.9732C8.29417 17.8664 8.2933 17.7596 8.29241 17.6495C8.29146 17.5397 8.29052 17.4298 8.28954 17.3167C8.28792 17.0838 8.28666 16.8509 8.28574 16.618C8.28373 16.2628 8.27859 15.9077 8.27341 15.5525C8.27223 15.3262 8.27123 15.0999 8.27044 14.8737C8.26839 14.7678 8.26633 14.6619 8.26422 14.5529C8.26646 13.8989 8.35316 13.5272 8.78908 13.0078C9.13787 12.6753 9.39653 12.607 9.87307 12.5757C9.9776 12.568 10.0821 12.5603 10.1898 12.5523C10.3086 12.5458 10.3086 12.5458 10.4297 12.5391C10.4416 12.3872 10.4536 12.2354 10.4659 12.079C10.5325 11.4862 10.6947 10.9636 10.9058 10.4077C10.9421 10.3111 10.9785 10.2145 11.0159 10.1149C12.3578 6.66101 15.0708 3.9274 18.4193 2.38984C19.284 2.01273 20.1788 1.74772 21.0938 1.52343C21.2118 1.49443 21.3297 1.46543 21.4513 1.43554C25.4856 0.649432 29.9458 1.76539 33.0948 4.40723ZM19.1016 8.90625C18.955 9.01977 18.955 9.01977 18.8054 9.13559C17.2819 10.4008 16.213 12.3803 16.0269 14.3584C15.9013 16.8061 16.4393 18.9602 18.1128 20.8301C19.5853 22.3941 21.5632 23.3212 23.7076 23.4631C26.1984 23.5297 28.1991 22.6136 30.0096 20.9601C30.2689 20.7087 30.5005 20.4557 30.7031 20.1562C30.7031 20.0789 30.7031 20.0016 30.7031 19.9219C30.5888 19.9148 30.4744 19.9077 30.3566 19.9004C30.133 19.8856 30.133 19.8856 29.9048 19.8706C29.6825 19.8563 29.6825 19.8563 29.4557 19.8418C29.0625 19.8047 29.0625 19.8047 28.711 19.6875C28.5491 19.3638 28.5714 19.1077 28.5938 18.75C28.8986 18.4452 29.0416 18.4805 29.4663 18.4671C29.5924 18.4626 29.7185 18.458 29.8485 18.4534C29.9807 18.4497 30.1129 18.4461 30.249 18.4424C30.3821 18.4378 30.5152 18.4333 30.6523 18.4286C30.9818 18.4176 31.3112 18.4075 31.6406 18.3984C32.4091 16.3897 32.5393 14.2187 31.6883 12.1999C30.7266 10.0625 29.1478 8.49781 26.9531 7.61718C24.2294 6.71809 21.37 7.11121 19.1016 8.90625ZM9.84377 14.1797C9.83194 14.4822 9.8274 14.7816 9.82821 15.0842C9.82809 15.1748 9.82798 15.2654 9.82787 15.3588C9.82779 15.5507 9.828 15.7426 9.82849 15.9345C9.82912 16.2292 9.8285 16.5239 9.82775 16.8187C9.82783 17.0047 9.82798 17.1907 9.82821 17.3767C9.82797 17.4654 9.82773 17.5542 9.82749 17.6456C9.79168 18.0563 9.79168 18.0563 9.96096 18.3984C10.1169 18.41 10.2734 18.4138 10.4297 18.414C10.524 18.4141 10.6182 18.4143 10.7154 18.4145C10.864 18.4138 10.864 18.4138 11.0156 18.4131C11.1147 18.4135 11.2138 18.414 11.3159 18.4145C11.4102 18.4143 11.5045 18.4142 11.6016 18.414C11.7321 18.4138 11.7321 18.4138 11.8653 18.4136C12.0736 18.4206 12.0736 18.4206 12.1875 18.2812C12.1993 17.9787 12.2039 17.6793 12.2031 17.3767C12.2032 17.2861 12.2033 17.1955 12.2034 17.1022C12.2035 16.9103 12.2033 16.7184 12.2028 16.5265C12.2022 16.2317 12.2028 15.937 12.2035 15.6422C12.2035 15.4562 12.2033 15.2702 12.2031 15.0842C12.2033 14.9955 12.2036 14.9067 12.2038 14.8153C12.2396 14.4047 12.2396 14.4047 12.0703 14.0625C11.9144 14.051 11.7579 14.0472 11.6016 14.0469C11.5073 14.0468 11.4131 14.0466 11.3159 14.0465C11.2168 14.0469 11.1177 14.0474 11.0156 14.0478C10.9165 14.0474 10.8175 14.0469 10.7154 14.0465C10.6211 14.0466 10.5268 14.0468 10.4297 14.0469C10.2992 14.0471 10.2992 14.0471 10.166 14.0473C9.95765 14.0403 9.95765 14.0403 9.84377 14.1797ZM36.0938 14.1797C36.0819 14.4822 36.0774 14.7816 36.0782 15.0842C36.0781 15.1748 36.078 15.2654 36.0779 15.3588C36.0778 15.5507 36.078 15.7426 36.0785 15.9345C36.0791 16.2292 36.0785 16.5239 36.0777 16.8187C36.0778 17.0047 36.078 17.1907 36.0782 17.3767C36.078 17.4654 36.0777 17.5542 36.0775 17.6456C36.0417 18.0563 36.0417 18.0563 36.211 18.3984C36.3669 18.41 36.5234 18.4138 36.6797 18.414C36.774 18.4141 36.8682 18.4143 36.9654 18.4145C37.114 18.4138 37.114 18.4138 37.2656 18.4131C37.3647 18.4135 37.4638 18.414 37.5659 18.4145C37.6602 18.4143 37.7545 18.4142 37.8516 18.414C37.9821 18.4138 37.9821 18.4138 38.1153 18.4136C38.3236 18.4206 38.3236 18.4206 38.4375 18.2812C38.4493 17.9787 38.4539 17.6793 38.4531 17.3767C38.4532 17.2861 38.4533 17.1955 38.4534 17.1022C38.4535 16.9103 38.4533 16.7184 38.4528 16.5265C38.4522 16.2317 38.4528 15.937 38.4535 15.6422C38.4535 15.4562 38.4533 15.2702 38.4531 15.0842C38.4533 14.9955 38.4536 14.9067 38.4538 14.8153C38.4896 14.4047 38.4896 14.4047 38.3203 14.0625C38.1644 14.051 38.0079 14.0472 37.8516 14.0469C37.7573 14.0468 37.6631 14.0466 37.5659 14.0465C37.4668 14.0469 37.3677 14.0474 37.2656 14.0478C37.1665 14.0474 37.0675 14.0469 36.9654 14.0465C36.8711 14.0466 36.7768 14.0468 36.6797 14.0469C36.5492 14.0471 36.5492 14.0471 36.416 14.0473C36.2076 14.0403 36.2076 14.0403 36.0938 14.1797ZM11.25 27.6562C11.1724 27.7161 11.0947 27.7759 11.0147 27.8375C9.29165 29.2129 8.60609 31.0835 8.08596 33.1641C8.08596 35.9871 8.08596 38.8102 8.08596 41.7187C14.8535 41.7187 21.6211 41.7187 28.5938 41.7187C28.6324 41.0227 28.6711 40.3266 28.711 39.6094C28.943 39.2613 28.943 39.2613 29.1797 38.9062C29.2192 38.5516 29.2192 38.5516 29.1639 38.1893C29.1489 38.056 29.1339 37.9227 29.1185 37.7853C29.1 37.6525 29.0815 37.5197 29.0625 37.3828C29.0465 37.2647 29.0304 37.1466 29.0138 37.0249C28.9619 36.6701 28.9047 36.3165 28.846 35.9628C28.8036 35.6981 28.7613 35.4334 28.719 35.1686C28.6529 34.7595 28.5864 34.3504 28.5191 33.9415C27.8742 30.0068 27.8742 30.0068 28.3191 29.1633C28.7118 28.6841 29.0705 28.3941 29.6929 28.2986C29.837 28.2975 29.9812 28.2965 30.1297 28.2954C30.2099 28.2942 30.29 28.293 30.3725 28.2917C30.635 28.2883 30.8974 28.2881 31.16 28.288C31.3429 28.2862 31.5258 28.2842 31.7087 28.2821C32.1884 28.277 32.6681 28.2746 33.1478 28.2729C33.638 28.2706 34.1282 28.2656 34.6184 28.261C35.5789 28.2521 36.5395 28.2462 37.5 28.2422C37.3911 28.1113 37.2816 27.9809 37.1719 27.8507C37.0805 27.7417 37.0805 27.7417 36.9873 27.6305C36.6981 27.3136 36.3719 27.0828 36.0132 26.8506C35.9379 26.8014 35.8627 26.7523 35.7851 26.7017C33.8249 25.4587 31.6767 24.7301 29.4287 24.2065C29.3416 24.1859 29.2545 24.1652 29.1648 24.1439C28.414 23.98 27.9442 24.1133 27.2388 24.3677C25.0403 25.1041 22.5101 25.092 20.381 24.1136C17.9846 23.1521 13.0592 26.1796 11.25 27.6562ZM29.5313 30C29.5313 32.9169 30.2596 35.7889 30.7031 38.6719C37.0453 38.6719 43.3875 38.6719 49.9219 38.6719C50.0739 38.1399 50.1969 37.6757 50.2797 37.1386C50.3113 36.9356 50.3113 36.9356 50.3436 36.7285C50.3655 36.5844 50.3873 36.4404 50.4099 36.292C50.4329 36.1419 50.456 35.9918 50.4798 35.8372C50.5284 35.5206 50.5766 35.2039 50.6246 34.8872C50.6857 34.4835 50.748 34.0799 50.8106 33.6764C50.8705 33.2886 50.9294 32.9006 50.9885 32.5127C51.0108 32.3688 51.0332 32.225 51.0562 32.0768C51.2302 31.0411 51.2302 31.0411 51.211 30C50.7483 29.6245 50.3633 29.6043 49.7799 29.6038C49.6961 29.6032 49.6123 29.6027 49.5259 29.6021C49.2457 29.6007 48.9655 29.6018 48.6852 29.6029C48.4841 29.6025 48.2829 29.6018 48.0817 29.6011C47.5357 29.5995 46.9898 29.6001 46.4438 29.6012C45.8724 29.6021 45.301 29.6013 44.7297 29.6007C43.7701 29.6001 42.8106 29.6009 41.8511 29.6026C40.7418 29.6045 39.6325 29.6039 38.5231 29.602C37.5707 29.6004 36.6182 29.6001 35.6658 29.6011C35.0969 29.6016 34.5281 29.6017 33.9592 29.6005C33.4244 29.5995 32.8896 29.6002 32.3548 29.6022C32.1585 29.6027 31.9623 29.6026 31.766 29.6018C31.498 29.6008 31.2302 29.602 30.9623 29.6038C30.8124 29.6039 30.6624 29.6041 30.5079 29.6042C30.067 29.6541 29.8483 29.6846 29.5313 30ZM30.1172 40.1953C30.1172 40.698 30.1172 41.2008 30.1172 41.7187C36.8848 41.7187 43.6524 41.7187 50.625 41.7187C50.625 41.216 50.625 40.7133 50.625 40.1953C43.8574 40.1953 37.0899 40.1953 30.1172 40.1953ZM1.99221 43.3594C1.9859 43.7061 1.98124 44.0527 1.97756 44.3994C1.9756 44.4981 1.97363 44.5967 1.97161 44.6983C1.97085 44.7927 1.9701 44.8872 1.96932 44.9844C1.96809 45.0716 1.96687 45.1587 1.9656 45.2485C1.97269 45.4974 1.97269 45.4974 2.22658 45.7031C2.5966 45.739 2.5966 45.739 3.04174 45.7329C3.12702 45.7333 3.21229 45.7337 3.30016 45.7341C3.58885 45.7351 3.87752 45.7344 4.16621 45.7337C4.3741 45.734 4.58199 45.7345 4.78987 45.735C5.36343 45.7362 5.93697 45.736 6.51052 45.7355C7.12818 45.7352 7.74584 45.7362 8.3635 45.7371C9.57439 45.7386 10.7853 45.7388 11.9962 45.7386C12.9799 45.7383 13.9636 45.7385 14.9473 45.739C15.0871 45.7391 15.2268 45.7392 15.3708 45.7393C15.6547 45.7394 15.9385 45.7395 16.2224 45.7397C18.8871 45.741 21.5519 45.7407 24.2167 45.74C26.6574 45.7394 29.098 45.7407 31.5387 45.7429C34.0418 45.7452 36.5449 45.7462 39.048 45.7457C40.4545 45.7455 41.8609 45.7458 43.2675 45.7475C44.4647 45.7488 45.662 45.749 46.8592 45.7476C47.4706 45.7469 48.082 45.7468 48.6934 45.7482C49.2523 45.7494 49.8112 45.7491 50.3701 45.7474C50.5731 45.7471 50.7761 45.7474 50.979 45.7484C51.2534 45.7495 51.5277 45.7486 51.8021 45.747C51.9549 45.747 52.1078 45.747 52.2653 45.7471C52.3814 45.7326 52.4975 45.7181 52.6172 45.7031C52.9003 45.2785 52.8865 44.963 52.8809 44.4727C52.8818 44.3933 52.8827 44.314 52.8836 44.2323C52.8819 43.7989 52.8636 43.6118 52.6172 43.2422C52.2049 43.1047 51.8813 43.1102 51.4459 43.1099C51.3615 43.1097 51.2772 43.1095 51.1903 43.1093C50.9054 43.1088 50.6206 43.109 50.3357 43.1093C50.1303 43.1091 49.9249 43.1088 49.7195 43.1085C49.1534 43.1078 48.5872 43.1078 48.0211 43.108C47.4112 43.108 46.8013 43.1073 46.1913 43.1068C44.9958 43.1058 43.8003 43.1055 42.6048 43.1054C41.6334 43.1054 40.6621 43.1051 39.6907 43.1047C36.9391 43.1037 34.1875 43.1032 31.4358 43.1033C31.2132 43.1033 31.2132 43.1033 30.986 43.1033C30.8374 43.1033 30.6888 43.1033 30.5356 43.1033C28.1258 43.1033 25.716 43.1022 23.3061 43.1006C20.8341 43.0989 18.362 43.0981 15.8899 43.0982C14.501 43.0982 13.1122 43.0979 11.7234 43.0966C10.5411 43.0956 9.35885 43.0953 8.17658 43.0961C7.57297 43.0965 6.96937 43.0965 6.36576 43.0955C5.81373 43.0946 5.26171 43.0947 4.70967 43.0957C4.50945 43.0959 4.30922 43.0957 4.109 43.0951C3.83781 43.0942 3.56666 43.0948 3.29547 43.0958C3.14455 43.0958 2.99362 43.0958 2.83812 43.0958C2.4848 43.1231 2.28785 43.1722 1.99221 43.3594ZM3.63283 47.2266C3.63283 50.5523 3.63283 53.8781 3.63283 57.3047C19.3336 57.3047 35.0344 57.3047 51.211 57.3047C51.211 53.9789 51.211 50.6531 51.211 47.2266C35.5102 47.2266 19.8094 47.2266 3.63283 47.2266Z" fill="#266BFF"/>
<path d="M56.4844 3.63282C56.5729 3.71062 56.6614 3.78841 56.7526 3.86857C58.4292 5.42701 59.4859 7.69077 59.5706 9.97697C59.6085 12.6981 59.0715 15.056 57.1875 17.1094C57.1097 17.1979 57.0319 17.2864 56.9518 17.3776C55.2931 19.162 52.8952 20.1521 50.4822 20.2881C48.8841 20.3296 47.0723 20.0623 45.7118 19.1762C44.8329 18.9064 43.6519 19.4497 42.8101 19.6983C41.6983 20.0068 41.6983 20.0068 41.1328 19.6875C40.8674 19.2893 40.8873 19.1347 40.9583 18.6764C41.0927 18.0249 41.2931 17.3893 41.4848 16.7528C41.7367 15.8768 41.7399 15.3423 41.3233 14.5166C40.2732 12.286 40.3247 9.72556 41.1035 7.41944C42.0702 4.99742 43.6957 3.10293 46.0853 2.02424C49.5809 0.542781 53.6483 1.03063 56.4844 3.63282ZM45.1172 4.45313C45.0353 4.51567 44.9534 4.57821 44.8691 4.64265C43.2288 5.97658 42.3193 7.97587 42.1044 10.0463C41.9735 11.6429 42.2391 13.4882 43.2092 14.8045C43.4197 15.2428 43.3387 15.5967 43.2422 16.0547C43.2241 16.1411 43.2059 16.2275 43.1872 16.3165C43.1283 16.5817 43.0652 16.8455 43.0005 17.1094C42.9787 17.2002 42.9568 17.291 42.9344 17.3845C42.8812 17.6054 42.8274 17.8262 42.7734 18.0469C42.8735 18.0193 42.8735 18.0193 42.9756 17.9912C43.2813 17.9081 43.5877 17.8273 43.8941 17.7466C43.999 17.7177 44.1039 17.6887 44.212 17.6589C45.1292 17.4204 45.7612 17.4425 46.604 17.915C48.5055 18.9 50.6086 18.9337 52.6318 18.3106C54.7053 17.5685 56.2242 16.2587 57.2241 14.3042C57.2623 14.2302 57.3005 14.1562 57.3398 14.0799C57.8647 13.0033 58.0719 11.9377 58.0591 10.7446C58.0576 10.5681 58.0576 10.5681 58.0561 10.3881C58.0084 8.27665 57.1626 6.52223 55.6641 5.03907C55.5863 4.95735 55.5085 4.87562 55.4283 4.79142C53.9953 3.38566 51.9052 2.69485 49.9274 2.68708C48.1304 2.74879 46.5304 3.34656 45.1172 4.45313Z" fill="#266BFF"/>
<path d="M50.625 8.32032C50.8948 8.72492 50.8905 8.8833 50.8953 9.36056C50.8972 9.50214 50.899 9.64371 50.901 9.78958C50.9016 9.94266 50.9022 10.0957 50.9029 10.2535C50.9039 10.4121 50.905 10.5707 50.9061 10.7294C50.908 11.0619 50.9089 11.3943 50.9093 11.7268C50.9099 12.1526 50.9143 12.5782 50.9197 13.0039C50.9231 13.3316 50.924 13.6592 50.9241 13.9868C50.9248 14.22 50.9283 14.4532 50.9318 14.6863C50.9311 14.8283 50.9304 14.9702 50.9296 15.1165C50.9302 15.2414 50.9308 15.3663 50.9314 15.4949C50.8594 15.8203 50.8594 15.8203 50.5854 16.0991C50.2735 16.2891 50.2735 16.2891 49.8999 16.2817C49.5703 16.1719 49.5703 16.1719 49.336 15.8203C49.3046 15.5046 49.3046 15.5046 49.3019 15.119C49.3004 14.9747 49.2989 14.8304 49.2974 14.6817C49.297 14.5242 49.2968 14.3666 49.2966 14.209C49.2958 14.0474 49.295 13.8859 49.2942 13.7243C49.2928 13.3859 49.2924 13.0474 49.2925 12.7089C49.2925 12.275 49.2893 11.8412 49.2853 11.4073C49.2827 11.0737 49.2822 10.7402 49.2824 10.4066C49.2821 10.2466 49.281 10.0867 49.2792 9.92668C49.2769 9.70313 49.2779 9.47955 49.279 9.25599C49.2787 9.12876 49.2784 9.00152 49.278 8.87044C49.336 8.55469 49.336 8.55469 49.5473 8.33417C49.9375 8.13554 50.211 8.21299 50.625 8.32032Z" fill="#266BFF"/>
<path d="M50.625 5.39063C50.8594 5.74219 50.8594 5.74219 50.8374 6.15967C50.7422 6.5625 50.7422 6.5625 50.3907 6.79688C49.6345 6.74381 49.6345 6.74381 49.336 6.44531C49.299 5.93714 49.2833 5.70392 49.5703 5.27344C50.0172 5.12448 50.1984 5.2091 50.625 5.39063Z" fill="#266BFF"/>
</svg>
